<svg xmlns="http://www.w3.org/2000/svg" xmlns:xlink="http://www.w3.org/1999/xlink" viewBox="0 0 83.98 61.36"><defs><style>.cls-1{fill:url(#linear-gradient);}.cls-2{fill:url(#linear-gradient-2);}.cls-3{fill:url(#linear-gradient-3);}.cls-4{fill:url(#linear-gradient-4);}.cls-5{fill:url(#linear-gradient-5);}.cls-6{fill:url(#linear-gradient-6);}.cls-7{fill:url(#linear-gradient-7);}.cls-8{fill:url(#linear-gradient-8);}.cls-9{fill:url(#linear-gradient-9);}</style><linearGradient id="linear-gradient" x1="8.11" y1="10.23" x2="70.94" y2="51.87" gradientUnits="userSpaceOnUse"><stop offset="0" stop-color="#fff"/><stop offset="0.12" stop-color="#fff"/><stop offset="1" stop-color="#fff"/></linearGradient><linearGradient id="linear-gradient-2" x1="6.07" y1="13.31" x2="68.89" y2="54.96" xlink:href="#linear-gradient"/><linearGradient id="linear-gradient-3" x1="3.04" y1="17.88" x2="65.86" y2="59.52" xlink:href="#linear-gradient"/><linearGradient id="linear-gradient-4" x1="12.13" y1="4.17" x2="74.95" y2="45.82" xlink:href="#linear-gradient"/><linearGradient id="linear-gradient-5" x1="5.68" y1="13.89" x2="68.5" y2="55.54" xlink:href="#linear-gradient"/><linearGradient id="linear-gradient-6" x1="7.77" y1="10.74" x2="70.59" y2="52.39" xlink:href="#linear-gradient"/><linearGradient id="linear-gradient-7" x1="9.86" y1="7.59" x2="72.68" y2="49.24" xlink:href="#linear-gradient"/><linearGradient id="linear-gradient-8" x1="-3.44" y1="27.65" x2="59.38" y2="69.3" xlink:href="#linear-gradient"/><linearGradient id="linear-gradient-9" x1="17.21" y1="-3.5" x2="80.04" y2="38.15" xlink:href="#linear-gradient"/></defs><title>Icon_StandardW</title><g id="Layer_2" data-name="Layer 2"><g id="Layer_1-2" data-name="Layer 1"><path class="cls-1" d="M83.91,25.41a.19.19,0,0,0,0-.19C84,24.14,84,23,84,22a4.21,4.21,0,0,0-4.36-4.08H69.78l-.06-.28c-.66-2.07-1.31-4.14-2-6.21L65.14,3.14A4.69,4.69,0,0,0,63.61.8,3.64,3.64,0,0,0,60.06.21c-2.29.71-4.57,1.44-6.85,2.16L35.63,7.92l-8.51,2.7L13.75,14.84c-3.65,1.15-7.3,2.34-11,3.45A3.79,3.79,0,0,0,0,22.63a15.35,15.35,0,0,0,.82,2.89Q3.2,33,5.58,40.53c1.75,5.53,3.49,11.07,5.26,16.6A3.93,3.93,0,0,0,14.13,60a6.72,6.72,0,0,0,2.74-.45,5.72,5.72,0,0,1-.79-2.58l-.9.27a1.35,1.35,0,0,1-1.75-.92q-1.48-4.71-3-9.42Q8.73,41.38,7,35.89c-.09-.29,0-.34.24-.42,2.92-.91,5.84-1.84,8.76-2.76l.13-.06h0c.16-.06.22,0,.22.18,0,1.74,0,3.48,0,5.23,0,3.86,0,7.72,0,11.59a.59.59,0,0,0,0,.13v.72c0,2,0,4,0,6,0,.19,0,.34-.24.39a5.72,5.72,0,0,0,.79,2.58c.14,0,.2.1.28.2a4,4,0,0,0,3.36,1.64H79.79A4.31,4.31,0,0,0,84,57.18V41.46q0-7.68,0-15.36A1.61,1.61,0,0,0,83.91,25.41ZM63.74,9c.3-.1.41,0,.5.26.46,1.51.94,3,1.43,4.51.1.28,0,.33-.22.4l-6.12,1.92-5,1.6a1.58,1.58,0,0,1-.38,0H36.33v-.06l3.3-1,11.12-3.53Zm-47.4,18a2.82,2.82,0,0,0,0,.82c0,.57,0,1.14,0,1.71,0,.15-.13.16-.24.18L9.93,31.74c-1.19.38-2.39.75-3.58,1.14-.24.07-.31,0-.38-.2-.48-1.54-1-3.08-1.46-4.61-.09-.28,0-.33.22-.4L10,26l5.94-1.88.19-.08c.18-.05.22,0,.22.2,0,.72,0,1.44,0,2.16h0c0,.22,0,.44,0,.65a1,1,0,0,0,.59-.1A1,1,0,0,1,16.34,27.08Zm.12-6.24c-.05.18-.09.34-.29.39-.07.71-.05,1.42-.06,2.13,0-.71,0-1.42.06-2.13L10.61,23c-2.24.7-4.48,1.4-6.71,2.12-.27.09-.35,0-.42-.22-.21-.71-.44-1.41-.66-2.11a4,4,0,0,1-.09-.48,1.14,1.14,0,0,1,.88-1.37L8,19.51l11.49-3.63,14.84-4.67L49.5,6.42C53.13,5.28,56.77,4.15,60.39,3a1.54,1.54,0,0,1,2.25,1.18c.18.64.37,1.28.59,1.91.08.24,0,.29-.2.35L59.36,7.56,53.58,9.39l-9.12,2.88-12.69,4L27.29,17.7a2,2,0,0,1-.69.1H21l-.38,0A4,4,0,0,0,16.46,20.84Zm1.77,1.91c0,.5,0,1,0,1.5C18.21,23.75,18.22,23.25,18.23,22.75Zm0,32.1c0,.78,0,1.55,0,2.33h0C18.24,56.4,18.23,55.63,18.23,54.85ZM81.91,26.77l0,0h0a.6.6,0,0,0,0,.54h0a.26.26,0,0,0,0,.24c-.07.77,0,1.54,0,2.31V47.2a.7.7,0,0,0,0,.38,1.61,1.61,0,0,0,0,.69,1.67,1.67,0,0,0,0,.8h0a13.59,13.59,0,0,0,0,2.21,1.17,1.17,0,0,0-.05.49V56.9a2.13,2.13,0,0,1-2.31,2.32H20.57a2.18,2.18,0,0,1-2.33-2c0-.57,0-1.14,0-1.71,0-1.48,0-3,0-4.44V49.45h0a.58.58,0,0,0,0-.39,3.14,3.14,0,0,0,0-.81.29.29,0,0,0,0-.24,2.42,2.42,0,0,0,0-.89h0a1.55,1.55,0,0,0,0-.71,5.08,5.08,0,0,0,0-1.1c0-1.49,0-3,0-4.48,0,.75,0,1.49,0,2.24,0-.75,0-1.49,0-2.24V39.26a.46.46,0,0,0,0-.26.69.69,0,0,0,0,.13.69.69,0,0,1,0-.13V37.43c0-.34,0-.67,0-1,0-1.53,0-3.07,0-4.6v-1.2h0l0-.69c-.22.09-.4.26-.62.36.22-.1.4-.27.62-.36l0-.17a.08.08,0,0,0,0-.12,8.26,8.26,0,0,0,0-1.22,1.94,1.94,0,0,0,0-.68l0-.22a.2.2,0,0,0,0-.21l0-.24a1.77,1.77,0,0,0,0-.65l0-.17h0c0-1.33,0-2.66,0-4V22a2.17,2.17,0,0,1,2.2-2H79.63a2.13,2.13,0,0,1,2.13,1.6,3.25,3.25,0,0,1,.06.76c0,.95,0,1.9,0,2.85h0a.4.4,0,0,0,0,.32,1.18,1.18,0,0,0,0,.59.64.64,0,0,0,0,.39.24.24,0,0,0,.08.25l0,0Zm.4,22.88,0,.18Z"/><path class="cls-2" d="M29.25,37.09a5.88,5.88,0,0,0,2.9-.71.59.59,0,0,1,.64,0,6,6,0,0,0,4.12.55,6.24,6.24,0,1,0-4.17-11.65.5.5,0,0,1-.54,0,6,6,0,0,0-3.59-.67,6.25,6.25,0,0,0-5.49,6.14,7,7,0,0,0,.07,1A6.27,6.27,0,0,0,29.25,37.09Zm8.34-8.65.25.19.12.14a3.12,3.12,0,0,1-1.47,5,3,3,0,0,1-1.66,0A5.89,5.89,0,0,0,35.47,32c.06,0,0-.11,0-.18a6,6,0,0,0-.67-4A3,3,0,0,1,37.59,28.44Zm-2.43,4.13a.36.36,0,0,1-.14.26A.36.36,0,0,0,35.16,32.57Zm0-.08h0v0Zm-5.81-4.78a3.11,3.11,0,1,1-3.11,3.11A3.13,3.13,0,0,1,29.35,27.71Z"/><path class="cls-3" d="M62.49,44.94c0-.55,0-1.11,0-1.66,0-.26-.09-.29-.32-.29H23c-.28,0-.35.07-.34.34,0,.5,0,1,0,1.51,0,.24,0,.32.3.31.58,0,1.15,0,1.72,0H62.27C62.44,45.15,62.49,45.11,62.49,44.94Z"/><path class="cls-4" d="M78,43.3c0-.25-.06-.31-.31-.31H67c-.27,0-.33.07-.32.33a12.68,12.68,0,0,1,0,1.51c0,.26.06.33.33.32h5.34c1.77,0,3.54,0,5.31,0,.32,0,.39-.09.37-.39A14.42,14.42,0,0,1,78,43.3Z"/><path class="cls-5" d="M63.57,51.57c0-.3,0-.59,0-.88s-.06-.24-.25-.24c-.57,0-1.14,0-1.71,0-.17,0-.23,0-.22.22,0,.59,0,1.17,0,1.76,0,.17.05.21.22.21h1.72c.18,0,.25,0,.24-.23S63.57,51.85,63.57,51.57Z"/><path class="cls-6" d="M70.4,51.57c0-.31,0-.61,0-.92,0-.15-.06-.2-.21-.2H68.45c-.17,0-.22,0-.22.22,0,.59,0,1.17,0,1.76,0,.17.06.21.22.21h1.76c.15,0,.2,0,.2-.2S70.4,51.86,70.4,51.57Z"/><path class="cls-7" d="M77.23,51.57c0-.29,0-.58,0-.87s0-.25-.23-.24H75.33c-.18,0-.25,0-.25.23,0,.57,0,1.14,0,1.71,0,.18,0,.25.23.24.56,0,1.13,0,1.69,0,.21,0,.25-.08.24-.26S77.23,51.84,77.23,51.57Z"/><path class="cls-8" d="M39.32,49.58c0-.14,0-.18-.19-.18a11.63,11.63,0,0,0-1.32,0h-.58a1.79,1.79,0,0,0-.61,0H22.83c-.2,0-.19.09-.19.23,0,.54,0,1.08,0,1.62,0,.27.08.32.34.31H38.89c.44,0,.44,0,.38-.44A13,13,0,0,0,39.32,49.58Z"/><path class="cls-9" d="M60.48,30.46c0,.12,0,.23,0,.35,0,1.93,0,3.87,0,5.8,0,.3.14.28.34.27H77.65c.28,0,.34-.07.34-.35q0-3.3,0-6.6c0-1.52,0-3.05,0-4.57,0-.26-.06-.33-.32-.32H60.58c-.1,0-.15,0-.14.14a8.07,8.07,0,0,0,0,1.3,1.88,1.88,0,0,0,0,.67,1.38,1.38,0,0,0,0,.67A16.49,16.49,0,0,0,60.48,30.46Z"/></g></g></svg>