<svg xmlns="http://www.w3.org/2000/svg" xmlns:xlink="http://www.w3.org/1999/xlink" viewBox="0 0 86.23 71.38"><defs><style>.cls-1{fill:url(#Degradado_sin_nombre_8);}</style><linearGradient id="Degradado_sin_nombre_8" x1="4.74" y1="-7.07" x2="57.68" y2="46.93" gradientUnits="userSpaceOnUse"><stop offset="0" stop-color="#ff736b"/><stop offset="1" stop-color="#ff2260"/></linearGradient></defs><title>Icon_free</title><g id="Layer_2" data-name="Layer 2"><g id="Layer_1-2" data-name="Layer 1"><path class="cls-1" d="M86,19.5h0v0l0-.07s0,0,0-.05l0-.06s0,0,0-.06,0,0,0-.06,0,0,0-.06,0,0,0-.06a.2.2,0,0,1,0-.07v0a.17.17,0,0,0,0-.07v0h0a.22.22,0,0,0,0-.08v0s0,0,0-.06,0-.05,0-.07a.07.07,0,0,1,0-.05.14.14,0,0,1,0-.07s0,0,0,0l0-.07s0,0,0,0l0-.06,0-.05,0,0L86,18l0,0L85.88,18l0,0,0,0a.1.1,0,0,0,0,0l0,0-.06,0h0L74.83,11h0l0,0h0l0,0,0,0h0l-.06,0h0l-.08,0h-.59l-.07,0,0,0h-.06l-.06,0,0,0h0L54.24,21.26l-11.5-14h0l0,0-.05-.06,0,0,0,0L42.5,7h0l0,0-.06,0,0,0-.06,0,0,0-.05,0-.07,0h0l-.06,0H42L4.19,0H3.72L3.65,0l-.06,0h0L3.48.1l-.06,0,0,0-.06,0-.05,0L3.2.26l0,0h0L3.11.34l0,0s0,0,0,0l0,0L3,.52a.1.1,0,0,0,0,0l0,.05,0,.05,0,.06s0,0,0,.05l0,.06a.14.14,0,0,1,0,.06s0,0,0,.06,0,0,0,.06V1s0,0,0,0v.07a.13.13,0,0,0,0,.06v.13s0,0,0,0a.17.17,0,0,0,0,.07.13.13,0,0,0,0,.06.13.13,0,0,0,0,.06s0,0,0,.06,0,0,0,.05a.14.14,0,0,0,0,.06s0,0,0,.06l0,.05,0,.06,0,.05L3,2s0,0,0,0l8.07,10.09H1l-.06,0-.06,0,0,0-.06,0-.06,0,0,0-.06,0,0,0-.06,0s0,0,0,0l0,0,0,0,0,.05,0,.05,0,0v0l0,.06,0,0,0,.07a.08.08,0,0,0,0,.05l0,.06s0,0,0,0,0,0,0,.06a.14.14,0,0,0,0,.06s0,0,0,.06,0,0,0,.07v.05a.17.17,0,0,0,0,.07v.06a.2.2,0,0,0,0,.07v.06s0,0,0,.06,0,0,0,.06l0,.06a.14.14,0,0,0,0,.06.08.08,0,0,0,0,0l0,.06,0,.06,0,0,0,.06,0,0,0,.06,0,0,0,0,.05,0,0,0,.06.05,0,0L29.6,35.58,24.32,69.9v0h0v0s0,.07,0,.1v.13a.13.13,0,0,0,0,.06v.06s0,0,0,.07a.07.07,0,0,1,0,0,.14.14,0,0,1,0,.07s0,0,0,0a.64.64,0,0,0,0,.07s0,0,0,0l0,0,0,.06,0,0a.21.21,0,0,0,0,.06l0,0,0,.06,0,0,.05.06,0,0,.05,0,.07,0,0,0,.1.06h0l.13,0h0l.09,0h.49a1,1,0,0,0,.3-.08h0l.13-.07,0,0,.1-.07,0,0,.11-.1,0,0,.09-.12h0a1.19,1.19,0,0,0,.09-.15h0l9.24-18.49L66.57,38.87h0l.07,0h0l0,0,.06,0,0,0h0l0,0h0l0,0,0,0h0l0,0,0,0,0,0,0,0h0v0h0l0,0h0s0,0,0,0l0-.05h0l0-.05,0,0h0a.14.14,0,0,0,0-.07h0v0h0l5.68-18H85.15l.11,0h0l.1,0h0l.13-.06h0l.12-.08,0,0,.07-.06,0,0,.09-.1h0ZM72,14.64,65.56,35.1,55.87,23.26ZM7.06,3.1,40,9,30.6,32.53ZM63.21,36.22,32.78,33.88l9.36-23.4ZM35.88,49.46,32.62,36.41l28.27,2.17Zm-2.21,1.61L28,62.33l3.22-20.92ZM24.1,28.45,5.16,14.68h7.92ZM74.88,14l5.67,3.55H73.76Z"/></g></g></svg>