<svg xmlns="http://www.w3.org/2000/svg" xmlns:xlink="http://www.w3.org/1999/xlink" viewBox="0 0 66.38 59"><defs><style>.cls-1{fill:url(#linear-gradient);}.cls-2{fill:url(#linear-gradient-2);}</style><linearGradient id="linear-gradient" y1="29.5" x2="66.38" y2="29.5" gradientUnits="userSpaceOnUse"><stop offset="0" stop-color="#fff"/><stop offset="0.12" stop-color="#fff"/><stop offset="1" stop-color="#fff"/></linearGradient><linearGradient id="linear-gradient-2" x1="57.75" y1="35.98" x2="60.59" y2="35.98" xlink:href="#linear-gradient"/></defs><title>Icon_basicW</title><g id="Layer_2" data-name="Layer 2"><g id="Layer_1-2" data-name="Layer 1"><path class="cls-1" d="M66.38,19a8.63,8.63,0,0,0,0-.88,5.51,5.51,0,0,0-1.91-3.75,5.8,5.8,0,0,0-3.81-1.49V10.34a5.81,5.81,0,0,0-6.05-6c-1.44,0-2.88,0-4.32,0a.71.71,0,0,1-.83-.57c-.27-.83-.59-1.65-.9-2.47C48.07.05,47.44-.25,46.23.19c-3.6,1.3-7.2,2.61-10.8,3.89a4,4,0,0,1-1.18.21H6.38a9,9,0,0,0-1.55.08A5.76,5.76,0,0,0,0,10.32V39.55c0,4.18,0,8.37,0,12.55A7.12,7.12,0,0,0,7.12,59H59.27a6.26,6.26,0,0,0,.87,0,7.16,7.16,0,0,0,6.24-7.38ZM54.86,7.18a2.81,2.81,0,0,1,2.85,3c0,.9,0,1.79,0,2.8-.92,0-1.79,0-2.66,0s-1.69.2-2.21-.16-.59-1.3-.85-2c-.43-1.17-.86-2.35-1.31-3.61C52.16,7.16,53.52,7.12,54.86,7.18Zm-8.65-4,3.52,9.69h-30l0-.11Zm-41.08,4a4.29,4.29,0,0,1,.94-.1H26.35l.26,0v.11C22.75,8.68,18.84,10,15,11.51a18.44,18.44,0,0,1-8.54,1.43c-.42,0-.86,0-1.28-.08a2.86,2.86,0,0,1-.08-5.6ZM63.49,42.45c0,3,0,6,0,9a4.34,4.34,0,0,1-4.64,4.64H7.51a4.35,4.35,0,0,1-4.63-4.6q0-18,0-36c0-.13,0-.26,0-.46a9.67,9.67,0,0,0,1.27.45A9,9,0,0,0,6,15.78q27,0,54,0a5.06,5.06,0,0,1,2.07.44,2.43,2.43,0,0,1,1.4,2.24c0,3.83,0,7.65,0,11.48a1.3,1.3,0,0,1-.08.25c-1.76,0-3.54,0-5.31,0a6.36,6.36,0,0,0-3.3.83,5.73,5.73,0,0,0,2.71,10.67c1.92,0,3.84,0,5.75,0a1.65,1.65,0,0,1,.23.05Zm0-9.34v5.73c-2,0-4,.06-5.93,0a2.85,2.85,0,0,1-.05-5.69C59.45,33,61.44,33.11,63.46,33.11Z"/><path class="cls-2" d="M57.75,37.36h2.84V34.59H57.75Z"/></g></g></svg>