<svg xmlns="http://www.w3.org/2000/svg" xmlns:xlink="http://www.w3.org/1999/xlink" viewBox="0 0 78.29 72.75"><defs><style>.cls-1{fill:url(#linear-gradient);}</style><linearGradient id="linear-gradient" y1="36.38" x2="78.29" y2="36.38" gradientUnits="userSpaceOnUse"><stop offset="0" stop-color="#fff"/><stop offset="0.12" stop-color="#fff"/><stop offset="1" stop-color="#fff"/></linearGradient></defs><title>Icon_PremiumW</title><g id="Layer_2" data-name="Layer 2"><g id="Layer_1-2" data-name="Layer 1"><path class="cls-1" d="M0,19.15c2.26-2.65,4.59-5.09,6.58-7.78A24.52,24.52,0,0,1,17.14,3.43C22.44,1.16,27.64-.27,33.46,0c6.33.34,12.7.07,19,.1a4.69,4.69,0,0,1,1.77.38c4,1.69,8.07,3.4,12.08,5.17a5.76,5.76,0,0,1,1.93,1.42c3.17,3.64,6.27,7.35,9.45,11a1.42,1.42,0,0,1,.11,2.16q-12.54,17-25,34.07L40.12,71.67c-.23.33-.49.63-.86,1.08ZM58.16,33.54H20.24l19,34.76Zm0-2.82C56,25.9,54,21.3,51.88,16.73a1.64,1.64,0,0,0-1.29-.57c-7.53,0-15.06,0-22.59-.06a1.6,1.6,0,0,0-1.72,1.16c-1.56,3.61-3.19,7.18-4.79,10.77-.37.84-.72,1.7-1.14,2.69ZM63.68,7.46C59.89,5.85,56.43,4.37,53,2.93a3.24,3.24,0,0,0-1.21-.11c-8.19,0-16.37,0-24.56,0a8.53,8.53,0,0,0-2.95.6C21.4,4.58,18.6,5.83,15.78,7.05a7.08,7.08,0,0,0-.79.5c3.64,1.82,7.09,3.59,10.58,5.28a6.11,6.11,0,0,0,2.45.58c6.91.05,13.83,0,20.75.07a10.65,10.65,0,0,0,5.39-1.23C57.17,10.62,60.27,9.16,63.68,7.46ZM17.46,30.09c.15-.14.23-.18.26-.25C19.8,25.22,21.86,20.59,24,16c.32-.71.1-1-.53-1.3C19.93,13,16.43,11.3,13,9.56a1.19,1.19,0,0,0-1.75.36c-2.4,2.89-4.86,5.74-7.28,8.62a7.18,7.18,0,0,0-.56.84ZM75.08,19.3c-.33-.42-.55-.71-.79-1-2.36-2.78-4.75-5.53-7.07-8.34a1.24,1.24,0,0,0-1.83-.41c-3.4,1.72-6.83,3.36-10.25,5-.34.17-.67.4-1,.62l6.69,14.92ZM9.84,27.59l-.27.27q8.34,11.34,16.67,22.7a.6.6,0,0,0,0-.56q-4.43-8.13-8.86-16.26a2.18,2.18,0,0,0-.48-.7C14.55,31.21,12.19,29.41,9.84,27.59Zm42.51,22.2.28.23L68.83,27.9l-.27-.22c-2.28,1.73-4.57,3.44-6.83,5.2a3.13,3.13,0,0,0-.71,1Q58,39.39,55,45Z"/></g></g></svg>