<svg xmlns="http://www.w3.org/2000/svg" xmlns:xlink="http://www.w3.org/1999/xlink" viewBox="0 0 61.02 16.26"><defs><style>.cls-1{fill:url(#linear-gradient);}</style><linearGradient id="linear-gradient" y1="8.13" x2="61.02" y2="8.13" gradientUnits="userSpaceOnUse"><stop offset="0" stop-color="#fff"/><stop offset="0.12" stop-color="#fff"/><stop offset="1" stop-color="#fff"/></linearGradient></defs><title>Star_W</title><g id="Layer_2" data-name="Layer 2"><g id="Layer_1-2" data-name="Layer 1"><path class="cls-1" d="M8.55,0l2.64,5.35,5.91.86-4.27,4.17,1,5.88L8.55,13.49,3.27,16.26l1-5.88L0,6.21l5.91-.86ZM27.87,5.35,22,6.21l4.28,4.17-1,5.88,5.28-2.77,5.29,2.77-1-5.88,4.27-4.17-5.91-.86L30.51,0Zm22,0-5.91.86,4.28,4.17-1,5.88,5.28-2.77,5.29,2.77-1-5.88L61,6.21l-5.91-.86L52.47,0Z"/></g></g></svg>