<svg xmlns="http://www.w3.org/2000/svg" xmlns:xlink="http://www.w3.org/1999/xlink" viewBox="0 0 857.35 632.62"><defs><style>.cls-1,.cls-14,.cls-18,.cls-2,.cls-24,.cls-26,.cls-28,.cls-30,.cls-35,.cls-39,.cls-40,.cls-8{fill:none;}.cls-2{stroke:#ded8d5;stroke-width:2.62px;}.cls-14,.cls-2,.cls-28,.cls-40{stroke-miterlimit:13.33;}.cls-3{fill:#ffb1a5;}.cls-4{fill:#ead254;}.cls-5{fill:#00857b;}.cls-6{fill:#ededed;}.cls-7{fill:url(#linear-gradient);}.cls-14,.cls-40,.cls-8{stroke:#fff;}.cls-18,.cls-24,.cls-26,.cls-30,.cls-39,.cls-8{stroke-linecap:round;stroke-linejoin:round;}.cls-8{stroke-width:2.2px;}.cls-9{fill:url(#Degradado_sin_nombre_8);}.cls-10{fill:#fff;}.cls-11{fill:#c98bd2;}.cls-12{fill:url(#Degradado_sin_nombre_8-2);}.cls-13{fill:#56dfed;}.cls-14{stroke-width:1.57px;}.cls-15{fill:url(#linear-gradient-2);}.cls-16{clip-path:url(#clip-path);}.cls-17{fill:url(#linear-gradient-3);}.cls-18,.cls-24,.cls-26,.cls-30,.cls-39{stroke:#282828;}.cls-18{stroke-width:1.64px;}.cls-18,.cls-38{opacity:0.2;}.cls-19{fill:#f3978e;}.cls-20{fill:url(#linear-gradient-4);}.cls-21{fill:url(#linear-gradient-5);}.cls-22{fill:#e6e6e6;}.cls-23{fill:url(#linear-gradient-6);}.cls-24{stroke-width:1.32px;}.cls-25{fill:#233862;}.cls-26{stroke-width:1.64px;}.cls-27{fill:#282828;}.cls-28{stroke:#c98bd2;stroke-width:1.79px;}.cls-29{fill:url(#Degradado_sin_nombre_8-3);}.cls-30{stroke-width:1.64px;}.cls-31{fill:url(#linear-gradient-7);}.cls-32{fill:#005683;}.cls-33{fill:url(#Degradado_sin_nombre_8-4);}.cls-34{opacity:0.19;}.cls-35{stroke:#233862;stroke-miterlimit:10;}.cls-36{fill:url(#Degradado_sin_nombre_8-5);}.cls-37{fill:url(#Degradado_sin_nombre_8-6);}.cls-39{stroke-width:1.86px;}.cls-40{stroke-width:2.6px;}</style><linearGradient id="linear-gradient" x1="720.11" y1="228.35" x2="817.5" y2="228.35" gradientUnits="userSpaceOnUse"><stop offset="0" stop-color="#fe3eff"/><stop offset="1" stop-color="#423eff"/></linearGradient><linearGradient id="Degradado_sin_nombre_8" x1="35.61" y1="358.47" x2="130.71" y2="358.47" gradientUnits="userSpaceOnUse"><stop offset="0" stop-color="#ff736b"/><stop offset="1" stop-color="#ff2260"/></linearGradient><linearGradient id="Degradado_sin_nombre_8-2" x1="522.51" y1="62.92" x2="663.99" y2="62.92" xlink:href="#Degradado_sin_nombre_8"/><linearGradient id="linear-gradient-2" x1="298.45" y1="-2.01" x2="298.45" y2="78.77" gradientUnits="userSpaceOnUse"><stop offset="0" stop-color="#00f0ff"/><stop offset="1" stop-color="#553eff"/></linearGradient><clipPath id="clip-path"><rect class="cls-1" x="155.8" y="88.15" width="612.37" height="443.58"/></clipPath><linearGradient id="linear-gradient-3" x1="575.97" y1="604.2" x2="561.15" y2="388.2" xlink:href="#linear-gradient"/><linearGradient id="linear-gradient-4" x1="707.79" y1="314.57" x2="672.49" y2="299.98" xlink:href="#linear-gradient"/><linearGradient id="linear-gradient-5" x1="720.38" y1="289.8" x2="683.68" y2="341.57" xlink:href="#linear-gradient"/><linearGradient id="linear-gradient-6" x1="575.54" y1="263.44" x2="582.95" y2="405.32" xlink:href="#linear-gradient-2"/><linearGradient id="Degradado_sin_nombre_8-3" x1="281.28" y1="540.1" x2="281.28" y2="336.81" xlink:href="#Degradado_sin_nombre_8"/><linearGradient id="linear-gradient-7" x1="274.78" y1="247.79" x2="267.37" y2="373.79" xlink:href="#linear-gradient"/><linearGradient id="Degradado_sin_nombre_8-4" x1="478.96" y1="278.95" x2="524.49" y2="378.47" xlink:href="#Degradado_sin_nombre_8"/><linearGradient id="Degradado_sin_nombre_8-5" x1="371.54" y1="308.47" x2="288.95" y2="348.71" xlink:href="#Degradado_sin_nombre_8"/><linearGradient id="Degradado_sin_nombre_8-6" x1="420.69" y1="240.37" x2="429.16" y2="482.84" xlink:href="#Degradado_sin_nombre_8"/></defs><title>about us_1</title><g id="Layer_2" data-name="Layer 2"><g id="svg2"><g id="g14"><path id="path16" class="cls-2" d="M94.47,164.5H760.29"/></g><g id="g20"><g id="g26"><path id="path28" class="cls-2" d="M751.6,532.81H103.16a8.7,8.7,0,0,1-8.69-8.7V129.55a8.7,8.7,0,0,1,8.69-8.7H751.6a8.7,8.7,0,0,1,8.69,8.7V524.11A8.7,8.7,0,0,1,751.6,532.81Z"/></g><g id="g30"><path id="path32" class="cls-3" d="M138.35,143.12a6.09,6.09,0,1,1-6.09-6.09,6.09,6.09,0,0,1,6.09,6.09"/></g><g id="g34"><path id="path36" class="cls-4" d="M162,143.12a6.09,6.09,0,1,1-6.09-6.09,6.09,6.09,0,0,1,6.09,6.09"/></g><g id="g38"><path id="path40" class="cls-5" d="M185.69,143.12A6.09,6.09,0,1,1,179.6,137a6.09,6.09,0,0,1,6.09,6.09"/></g><g id="g42"><path id="path44" class="cls-6" d="M846.79,311.51H690.31a8,8,0,0,1-8-8V158.8a8,8,0,0,1,8-8H846.79a8,8,0,0,1,8,8V303.52a8,8,0,0,1-8,8"/></g><g id="g46"><path id="path48" class="cls-2" d="M846.79,311.51H690.31a8,8,0,0,1-8-8V158.8a8,8,0,0,1,8-8H846.79a8,8,0,0,1,8,8V303.52A8,8,0,0,1,846.79,311.51Z"/></g><g id="g50"><path id="path52" class="cls-7" d="M728.14,269.71h81.33a8,8,0,0,0,8-8V195a8,8,0,0,0-8-8H728.14a8,8,0,0,0-8,8v66.66a8,8,0,0,0,8,8"/></g><g id="g54"><path id="path56" class="cls-8" d="M791,242.1H746.08V212H791V242.1Z"/></g><g id="g58"><path id="path60" class="cls-8" d="M746.08,212l22.47,17.71L791,212"/></g><g id="g62"><path id="path64" class="cls-6" d="M158.16,432.69H8.93a7.62,7.62,0,0,1-7.62-7.61V295a7.62,7.62,0,0,1,7.62-7.61H158.16a7.62,7.62,0,0,1,7.62,7.61V425.08a7.62,7.62,0,0,1-7.62,7.61"/></g><g id="g66"><path id="path68" class="cls-2" d="M158.16,432.69H8.93a7.62,7.62,0,0,1-7.62-7.61V295a7.62,7.62,0,0,1,7.62-7.61H158.16a7.62,7.62,0,0,1,7.62,7.61V425.08A7.62,7.62,0,0,1,158.16,432.69Z"/></g><g id="g70"><path id="path72" class="cls-9" d="M121.86,404.69H44.46a8.85,8.85,0,0,1-8.85-8.85V321.09a8.85,8.85,0,0,1,8.85-8.85h77.4a8.85,8.85,0,0,1,8.85,8.85v74.75a8.85,8.85,0,0,1-8.85,8.85"/></g><g id="g74"><path id="path76" class="cls-10" d="M108,357.76H96.39A47.26,47.26,0,0,0,95,347.33h9.82A24.27,24.27,0,0,1,108,357.76m-3.12,13.57H94.7a50.29,50.29,0,0,0,1.64-10.43H108a24.27,24.27,0,0,1-3.12,10.43M90.46,382.64a63,63,0,0,0,3.31-8.17h8.92a24.18,24.18,0,0,1-12.23,8.17m-6.72.95a23.81,23.81,0,0,1-3.18-.21,73.62,73.62,0,0,1-3.76-8.91H90.68a73.62,73.62,0,0,1-3.76,8.91,23.81,23.81,0,0,1-3.18.21m-18.95-9.12H73.7A65.14,65.14,0,0,0,77,382.64a24.18,24.18,0,0,1-12.23-8.17m-2.14-3.14a24.27,24.27,0,0,1-3.12-10.43H71.14a50.29,50.29,0,0,0,1.64,10.43Zm0-24h9.82a47.26,47.26,0,0,0-1.38,10.43H59.53a24.27,24.27,0,0,1,3.12-10.43m14-11.22a54.07,54.07,0,0,0-3.33,8.08H64.79a24.26,24.26,0,0,1,11.9-8.08m7-1a23.86,23.86,0,0,1,3.8.3,49.22,49.22,0,0,1,3.9,8.82H76a49.22,49.22,0,0,1,3.9-8.82,23.86,23.86,0,0,1,3.8-.3m9.77,25.83a51.47,51.47,0,0,1-1.85,10.43H75.82A51.47,51.47,0,0,1,74,360.9Zm-19.64-3.14a43.26,43.26,0,0,1,1.27-10.43h17.2a43.26,43.26,0,0,1,1.27,10.43Zm28.82-13.57H94.12a54.07,54.07,0,0,0-3.33-8.08,24.26,24.26,0,0,1,11.9,8.08m-38-3.87a26.88,26.88,0,1,0,38,0,27,27,0,0,0-38,0"/></g><g id="g78"><path id="path80" class="cls-11" d="M149.27,82.84H14.07a5.06,5.06,0,1,1,0-10.12h135.2a5.06,5.06,0,0,1,0,10.12"/></g><path class="cls-12" d="M660,37H526.53a4,4,0,0,0-4,4V73.6a4,4,0,0,0,4,4h11.4V88.85l14.12-11.24H660a4,4,0,0,0,4-4V41A4,4,0,0,0,660,37Z"/><g id="g82"><path id="path84" class="cls-13" d="M852.3,413.08H786.68a5.06,5.06,0,1,1,0-10.11H852.3a5.06,5.06,0,0,1,0,10.11"/></g><g id="g86"><path id="path88" class="cls-11" d="M806.34,471.59h-8a3.81,3.81,0,0,1-3.81-3.82v-7.53a3.81,3.81,0,0,1,3.81-3.81h8a3.81,3.81,0,0,1,3.81,3.81v7.53a3.81,3.81,0,0,1-3.81,3.82"/></g><g id="g90"><path id="path92" class="cls-3" d="M46.28,506.62h-8a3.81,3.81,0,0,1-3.82-3.81v-7.53a3.81,3.81,0,0,1,3.82-3.81h8a3.81,3.81,0,0,1,3.81,3.81v7.53a3.81,3.81,0,0,1-3.81,3.81"/></g><g id="g98"><path id="path100" class="cls-14" d="M541.79,51.47h94.9"/></g><g id="g102"><path id="path104" class="cls-14" d="M541.79,61.21h38.65"/></g><g id="g110"><path id="path112" class="cls-15" d="M332.12,80h-64.6a11.37,11.37,0,0,1-11.36-11.36V8.61A8.62,8.62,0,0,1,264.77,0h67.35a8.62,8.62,0,0,1,8.61,8.61V71.42A8.62,8.62,0,0,1,332.12,80"/></g><g id="g114"><path id="path116" class="cls-10" d="M316.2,50.4l-1,1c-.6.51-1.12,1.11-1.72,1.71a4.08,4.08,0,0,1-3.09,1.3h-.43a18.29,18.29,0,0,1-6.71-2.07,39.16,39.16,0,0,1-12.81-10.06,37.38,37.38,0,0,1-6.28-10.4,10.7,10.7,0,0,1-1-5.34,3.62,3.62,0,0,1,1.2-2.49l2.93-2.92a1.76,1.76,0,0,1,1.2-.6,1.62,1.62,0,0,1,1.2.6l1.55,1.54a7.75,7.75,0,0,0,.86.86L294.45,26a2,2,0,0,1,.6,1.21,1.8,1.8,0,0,1-.6,1.2l-.78.77-2.15,2.15-.08.09a1.89,1.89,0,0,0-.52,2.15v.08a19.78,19.78,0,0,0,2.84,4.65,32,32,0,0,0,7.83,7.14,7.55,7.55,0,0,0,1.11.6,6.87,6.87,0,0,1,.86.43l.09.08a2,2,0,0,0,2.41-.43l3-3a1.8,1.8,0,0,1,1.2-.6,1.85,1.85,0,0,1,1.12.6l4.81,4.82a1.62,1.62,0,0,1,0,2.49m2-4.47-4.81-4.81a4.22,4.22,0,0,0-3.1-1.47,4.47,4.47,0,0,0-3.1,1.38l-2.75,2.75-.51-.26a6.25,6.25,0,0,1-.86-.43,29.71,29.71,0,0,1-7.14-6.53A15.56,15.56,0,0,1,293.67,33c.69-.6,1.29-1.29,1.9-1.89l.77-.77a4.55,4.55,0,0,0,1.46-3.18A4.55,4.55,0,0,0,296.34,24l-2.41-2.4a8.32,8.32,0,0,1-.77-.86l-1.64-1.64a4.44,4.44,0,0,0-3.09-1.37,4.29,4.29,0,0,0-3.1,1.37l-3,3a7,7,0,0,0-2,4.22,15.56,15.56,0,0,0,1.11,6.53,35.34,35.34,0,0,0,6.71,11.27,41.92,41.92,0,0,0,13.76,10.75,23,23,0,0,0,7.74,2.32h.6A6.85,6.85,0,0,0,315.43,55l.09-.08a12.47,12.47,0,0,1,1.54-1.55l1.12-1.12a4.31,4.31,0,0,0,0-6.28"/></g></g><g class="cls-16"><g id="g120"><g id="g126"><path id="path128" class="cls-17" d="M613.12,383l-48.67-6.48.38,4.83-41.62,5.54S496.39,454.22,520,602.22h33.85l12.18-150.07h4.33l11.8,150.07H616c23.64-148-2.92-219.18-2.92-219.18"/></g><g id="g130"><path id="path132" class="cls-18" d="M550.59,452.15H585.9"/></g><g id="g134"><path id="path136" class="cls-3" d="M641.54,312.05c-4.17-6.65-27.56-6.41-28.79-6.56-6.32-.74,4,49.58,17.21,93.56a14.77,14.77,0,0,0,19.9,9.39l.26-.11A14.8,14.8,0,0,0,658.89,392c-6.26-33.18-12.54-72.23-17.35-79.91"/></g><g id="g138"><path id="path140" class="cls-19" d="M647.11,330.24l-29.86,11.59-2.8-14.17L645.37,320Z"/></g><g id="g142"><path id="path144" class="cls-19" d="M652.75,358.59s-14.14,19-13.47,18.12S650.37,346,650.37,346Z"/></g><g id="g146"><path id="path148" class="cls-3" d="M673,333.05l-40.55,52.54a14.91,14.91,0,1,0,24.91,16.21l33.75-62.27Z"/></g><g id="g150"><path id="path152" class="cls-3" d="M683.47,346.54a16.73,16.73,0,1,1,21.06-10.77,16.72,16.72,0,0,1-21.06,10.77"/></g><g id="g154"><path id="path156" class="cls-3" d="M700.81,320.57s4.58-4.75-3.54-8.08-18.16-2.57-24.57,13Z"/></g><g id="g158"><path id="path160" class="cls-20" d="M709.22,287.37l17,7.36a1.75,1.75,0,0,1,.77,2.5L704.64,339a2.15,2.15,0,0,1-2.66,1l-17-7.36a1.75,1.75,0,0,1-.76-2.5l22.33-41.72a2.14,2.14,0,0,1,2.65-1"/></g><g id="g162"><path id="path164" class="cls-21" d="M707.6,286.63l17,7.36a1.75,1.75,0,0,1,.77,2.5L703,338.21a2.13,2.13,0,0,1-2.65,1l-17-7.36a1.75,1.75,0,0,1-.77-2.5L705,287.65a2.14,2.14,0,0,1,2.65-1"/></g><g id="g166"><path id="path168" class="cls-22" d="M705.69,290.88l14.91,6.46-18.2,34-14.92-6.47Z"/></g><g id="g170"><path id="path172" class="cls-10" d="M720.6,297.34l-33.12,27.54,18.21-34Z"/></g><g id="g174"><path id="path176" class="cls-3" d="M692.39,311.1a27.29,27.29,0,0,1,7.2,2.67,3.82,3.82,0,0,1-1.37,7.13L689.39,322s-4.6,7.94-10.62,8.83l5.52-13.94Z"/></g><g id="g178"><path id="path180" class="cls-23" d="M579.67,245.89c-1,0,62.59,8.79,73.08,81.27l-33,5.06-6.64,54.71h-92L502.82,285.84s20.39-29.22,58.25-39.95Z"/></g><g id="g182"><path id="path184" class="cls-18" d="M619.76,332.22l2.87-31.65"/></g><g id="g186"><path id="path188" class="cls-3" d="M585.71,246.93V221.75h-29.5v25.47a57.42,57.42,0,0,0-7.93,3.21l23,13.71,23.52-13.71a38.12,38.12,0,0,0-9.1-3.5"/></g><g id="g190"><path id="path192" class="cls-19" d="M555.93,224.83s5.3,14.06,19.45,12.85c13-1.12,10.93-20.61,10.93-20.61Z"/></g><g id="g194"><path id="path196" class="cls-19" d="M543.07,206.12c-4.63,4.19-15-11.72-10.5-16.19s7.88,2.55,7.88,2.55l2,4.75,1.51,6.43.36,1.68Z"/></g><g id="g198"><path id="path200" class="cls-24" d="M534.73,195.57s3.5-1.57,6.61,3.5"/></g><g id="g202"><path id="path204" class="cls-19" d="M597.75,205.63c4.25,4.57,15.9-10.4,11.83-15.23s-8.06,1.86-8.06,1.86l-2.39,4.57-2,6.28-.5,1.65Z"/></g><g id="g206"><path id="path208" class="cls-24" d="M607,195.83s-3.35-1.86-6.88,2.93"/></g><g id="g210"><path id="path212" class="cls-25" d="M535,174.76c0,21.06,16,31,35.86,31s35.86-10,35.86-31-16-35.39-35.86-35.39S535,153.7,535,174.76"/></g><g id="g214"><path id="path216" class="cls-3" d="M539.83,176.22a144.28,144.28,0,0,0,3.65,32c1.79,7.75,6.81,13.16,13.91,17.53l1.29.79a24.42,24.42,0,0,0,24.84.28c7.7-4.49,13.08-10.4,14.74-18.72a210.89,210.89,0,0,0,3.34-31.89s2.87-32.63-30.44-32-31.33,32-31.33,32"/></g><g id="g218"><path id="path220" class="cls-26" d="M568.7,194.85v4.51a2.1,2.1,0,0,0,.14.76,2,2,0,0,0,2.4,1.11l2.07-.55"/></g><g id="g222"><path id="path224" class="cls-25" d="M563.4,177.34l-16.56,3.88s.76-4.22,7.53-5.75,9,1.87,9,1.87"/></g><g id="g226"><path id="path228" class="cls-25" d="M578.09,177.34l16,3.88s-.73-4.22-7.27-5.75-8.72,1.87-8.72,1.87"/></g><g id="g230"><path id="path232" class="cls-27" d="M559.9,189.5a2.79,2.79,0,1,1-2.79-2.79,2.78,2.78,0,0,1,2.79,2.79"/></g><g id="g234"><path id="path236" class="cls-27" d="M586.37,189.5a2.79,2.79,0,1,1-2.79-2.79,2.78,2.78,0,0,1,2.79,2.79"/></g><g id="g238"><path id="path240" class="cls-10" d="M559.9,206.49h21.53s-9.54,11.61-21.53,0"/></g><g id="g242"><path id="path244" class="cls-28" d="M567.81,190.58a11.88,11.88,0,1,1-11.88-11.87A11.87,11.87,0,0,1,567.81,190.58Z"/></g><g id="g246"><path id="path248" class="cls-28" d="M597,190.58a11.87,11.87,0,1,1-11.87-11.87A11.86,11.86,0,0,1,597,190.58Z"/></g><g id="g250"><path id="path252" class="cls-28" d="M567.81,190.58s2.81-2.63,5.42,0"/></g><g id="g254"><path id="path256" class="cls-28" d="M544.06,190.58l-3.74-.09"/></g><g id="g258"><path id="path260" class="cls-28" d="M597,190.58l3.77-.09"/></g><g id="g262"><path id="path264" class="cls-25" d="M601.17,187s-13.31-18-10.24-36.24a26.24,26.24,0,0,1,12.46,17.81C606,181.45,601.17,187,601.17,187"/></g><g id="g266"><path id="path268" class="cls-25" d="M539.81,188.26s15.47-20.45,12.4-38.69c0,0-10.73,6.2-13.31,19s.91,19.65.91,19.65"/></g><g id="g270"><path id="path272" class="cls-25" d="M600.06,158S583,176.7,536.16,173.5c0,0,7.17-27.47,29.84-30.4,0,0,26.19-3.13,34.06,14.88"/></g><g id="g274"><path id="path276" class="cls-25" d="M621.2,136.09a22.35,22.35,0,1,1-22.34-22.34,22.35,22.35,0,0,1,22.34,22.34"/></g><g id="g278"><path id="path280" class="cls-29" d="M326.13,383l-41.61-5.55.38-4.83-48.67,6.48s-26.56,71.19-2.92,219.18h33.85L279,448.21h4.32l12.18,150.06h33.85C353,450.28,326.13,383,326.13,383"/></g><g id="g282"><path id="path284" class="cls-25" d="M322.81,180.53c-5.63-6.63-10.14-14.36-14-25.2-4.12-11.65-17.59-6.91-17.59-6.91S280,134,263.14,139,240.37,156.06,240,170.35s-11.58,16.52-20.24,33.05c-15.28,29.19,10.45,53.77,57.28,46.95l.06-.45a49.11,49.11,0,0,0,17.16,1.6c56.27-3.34,50.84-44.72,28.52-71"/></g><g id="g286"><path id="path288" class="cls-19" d="M304.39,202.17c4.63,4.2,15-11.71,10.5-16.18s-7.88,2.54-7.88,2.54l-2,4.75-1.51,6.43-.36,1.69Z"/></g><g id="g290"><path id="path292" class="cls-24" d="M312.73,191.63s-3.5-1.58-6.61,3.5"/></g><g id="g294"><path id="path296" class="cls-19" d="M249.71,201.69c-4.26,4.57-15.9-10.41-11.83-15.24s8.06,1.87,8.06,1.87l2.39,4.56,2,6.28.49,1.65Z"/></g><g id="g298"><path id="path300" class="cls-24" d="M240.51,191.89s3.35-1.87,6.88,2.92"/></g><g id="g302"><path id="path304" class="cls-25" d="M312.5,170.81c0,21.06-16.05,31.05-35.86,31.05s-35.86-10-35.86-31.05,16.06-35.38,35.86-35.38,35.86,14.33,35.86,35.38"/></g><path id="path306" class="cls-3" d="M291.25,256h-29.5v-38.2h29.5Z"/><g id="g308"><path id="path310" class="cls-19" d="M257.45,215.42s8.21,16.39,18.31,19a14.21,14.21,0,0,0,8.19-.47c3.8-1.35,8.62-7,9.44-13.29l.38-3.58s-18,9.78-36.32-1.61"/></g><g id="g312"><path id="path314" class="cls-3" d="M307.63,172.28a144.19,144.19,0,0,1-3.65,32c-1.79,7.75-6.81,13.17-13.91,17.53l-1.29.8a24.42,24.42,0,0,1-24.85.27c-7.69-4.48-13.07-10.4-14.73-18.71a210.89,210.89,0,0,1-3.34-31.89s-2.87-32.64,30.44-32,31.33,32,31.33,32"/></g><g id="g316"><path id="path318" class="cls-30" d="M274.42,192.67v2.68a2.1,2.1,0,0,0,.14.76,2,2,0,0,0,2.4,1.11l2.07-.55"/></g><g id="g320"><path id="path322" class="cls-25" d="M281.36,175l17.72,4.2s-.81-4.56-8.06-6.21-9.66,2-9.66,2"/></g><g id="g324"><path id="path326" class="cls-25" d="M272.05,175l-18,4.2s.82-4.56,8.16-6.21,9.79,2,9.79,2"/></g><g id="g328"><path id="path330" class="cls-27" d="M265.62,186a2.79,2.79,0,1,1-2.79-2.77,2.78,2.78,0,0,1,2.79,2.77"/></g><g id="g332"><path id="path334" class="cls-27" d="M292.09,186a2.79,2.79,0,1,1-2.79-2.77,2.78,2.78,0,0,1,2.79,2.77"/></g><g id="g336"><path id="path338" class="cls-10" d="M263.78,201.86h24.5s-1.73,6.73-12.84,6.73a13,13,0,0,1-11.66-6.73"/></g><g id="g340"><path id="path342" class="cls-25" d="M246.29,183.1s13.31-18,10.24-36.25a26.28,26.28,0,0,0-12.46,17.82c-2.57,12.84,2.22,18.43,2.22,18.43"/></g><g id="g344"><path id="path346" class="cls-25" d="M307.65,182.5s-15.47-18.63-12.4-36.87c0,0,10.73,6.2,13.31,19s-.91,17.83-.91,17.83"/></g><g id="g348"><path id="path350" class="cls-25" d="M247.4,154s15.29,20.54,62.08,17.33c0,0-5.35-29.29-28-32.22,0,0-26.18-3.12-34,14.89"/></g><g id="g352"><path id="path354" class="cls-3" d="M204.75,473.34c-.68,1.08,38.94-172.4,27.18-169.78-1.07.24-21.68,2.15-24.74,8.38C198.31,330,192,472,192,472Z"/></g><g id="g356"><path id="path358" class="cls-3" d="M192,472s-6.39,29.63,17.76,32.87a3.4,3.4,0,0,0,3.65-2.24l.07-.2a3.39,3.39,0,0,0-1.88-4.19c-3.94-1.77-10-6.21-7-16.31,0,0,3.5-.43,5.42,6.08a2.79,2.79,0,0,0,5.45-1.13c-.58-4.56-2.87-15.54-11.67-18.48Z"/></g><g id="g360"><path id="path362" class="cls-19" d="M200.07,353.62s22.83,32.15,23,31.53S231,340,231,340L203.3,328Z"/></g><g id="g364"><path id="path366" class="cls-31" d="M263.51,249.72c1,0-56.43,1-66.92,73.5l33,5L236.23,383h92l18.27-101.1s-13-21.9-50.84-32.63Z"/></g><g id="g368"><path id="path370" class="cls-3" d="M235.45,258.48s8.11,10.77,41.35,10.77c32.93,0,41.35-11.33,41.35-11.33s-19.41-10.85-41.94-14.36a149.54,149.54,0,0,0-40.76,14.92"/></g><g id="g372"><path id="path374" class="cls-32" d="M348.38,488.08l.08,144.54H420l5.49-144.54Z"/></g><g id="g376"><path id="path378" class="cls-32" d="M503.64,488.08l-.08,144.54H432.05l-5.49-144.54Z"/></g><path id="path380" class="cls-32" d="M464.59,538.3H390.65V488.08h73.94Z"/><g id="g382"><path id="path384" class="cls-3" d="M548.81,361.94c4.44,49-.24,84.67,1.05,174.79l-42.68,1.79-6.35-168.7Z"/></g><g id="g386"><path id="path388" class="cls-19" d="M506.09,400.16s26.43-2.41,44.5-14.33l-.48-10.49-44,6Z"/></g><g id="g390"><path id="path392" class="cls-33" d="M463.69,249.18s83.95,21.11,99.16,127.66c0,0-41.09,17.81-82.26,10.15l9.26-35.63Z"/></g><g id="g394"><path id="path396" class="cls-3" d="M212.94,293.48l62.51,73.82-19.13,53.86s-47.51-66.05-68.85-117.1Z"/></g><g id="g398"><path id="path400" class="cls-3" d="M215,296.15s-21.95,12.4-27.53,7.91c-9.76-7.84-17.82-36.53-17.82-36.53s41-15.47,40.66-14.87S215,296.15,215,296.15"/></g><g id="g402"><path id="path404" class="cls-3" d="M215,296.15c-.39-2.21,8.14-26,11.06-35a4,4,0,0,0-3.12-5,4.56,4.56,0,0,0-5.08,2.09l-10.29,17.59Z"/></g><g id="g406"><path id="path408" class="cls-3" d="M214.24,270.38l-7.06-35.17a4.42,4.42,0,0,0-5.12-3.5,3.81,3.81,0,0,0-3.13,4.22L202,262.12Z"/></g><g id="g410"><path id="path412" class="cls-3" d="M200.19,257.41l-9.6-25.11a4.41,4.41,0,0,0-5.45-2.69,3.8,3.8,0,0,0-2.51,4.51l7.12,29Z"/></g><g id="g414"><path id="path416" class="cls-3" d="M189.87,264.81l-12.14-24.67a4.82,4.82,0,0,0-6.16-2.36,4.19,4.19,0,0,0-2.17,5.55l9.68,23.29Z"/></g><g id="g418"><path id="path420" class="cls-3" d="M169.65,267.53l-9.53-15.11a3.42,3.42,0,0,1,1.67-4.57,3.9,3.9,0,0,1,4.76,1.39l12.53,17.38Z"/></g><g id="g422" class="cls-34"><path id="path424" class="cls-35" d="M212.32,267.74s-14.31-1.5-15.78,17.57"/></g><g id="g426"><path id="path428" class="cls-3" d="M243.64,396s11.76,40.68,35.19,35.28,59.93-55.45,59.93-55.45l-8.17-85.43-65.75,80.92Z"/></g><g id="g430"><path id="path432" class="cls-19" d="M285.23,346.16s22.2,33.48,41.14,45.29l12.39-15.65-47.81-37Z"/></g><g id="g434"><path id="path436" class="cls-36" d="M382.36,247.33S317.18,262,282.45,337.77c0,0,21,31.61,54.63,45.67l22.52-27.59Z"/></g><g id="g438"><path id="path440" class="cls-37" d="M382.36,247.1a163.41,163.41,0,0,0-41.47,30.37l5,221.42H506.35l-.52-220.27s-20.22-19.79-42.14-29.44c-18.62-8.2-63.24-11.37-81.33-2.08"/></g><g id="g442" class="cls-38"><path id="path444" class="cls-35" d="M458.27,355h0A22.31,22.31,0,0,1,436,332.67V310.36h44.63v22.31A22.32,22.32,0,0,1,458.27,355Z"/></g><g id="g446" class="cls-38"><path id="path448" class="cls-35" d="M506.09,387.82l2.08-72.43"/></g><g id="g450" class="cls-38"><path id="path452" class="cls-35" d="M343.36,375.74,339.89,313"/></g><g id="g454"><path id="path456" class="cls-25" d="M384.23,166.23l-6.68-33.09c-.38-2.69-1.42-6.85-.14-10.76,2.11-6.47,9.9-18.88,23.21-13.2l2.87,13.1s-13.82,2.79-19.36,20.87Z"/></g><g id="g458"><path id="path460" class="cls-25" d="M399.64,116c-.25,4.35-4.08,23.37-17.57,30.3,0,0-11.82-25.34,17.57-30.3"/></g><g id="g462"><path id="path464" class="cls-3" d="M447,241h0V184.82H395.17V241l-15.42,7s3.62,23.29,41.86,23.81,42.08-22.66,42.08-22.66Z"/></g><g id="g466"><path id="path468" class="cls-25" d="M400.62,109.18s9.5-25.07,38.81-11.74c17.74,8.07,22.71,18.88,24.82,26.55a30.6,30.6,0,0,1,.8,8.94L458,166.23l-27.68-46.07-26.79,2.12Z"/></g><g id="g470"><path id="path472" class="cls-19" d="M458,166.23s3.49-5.56,10.69-2.83,3.94,20.23-6.86,22.45a8.54,8.54,0,0,1-6.91-1.8s2.66-12.92,3.08-17.82"/></g><g id="g474"><path id="path476" class="cls-39" d="M467.22,169.57s-6-2-10.31,6.87"/></g><g id="g478"><path id="path480" class="cls-19" d="M384.23,166.23s-3.49-5.56-10.69-2.83-3.94,20.23,6.86,22.45a8.54,8.54,0,0,0,6.91-1.8s-2.66-12.92-3.08-17.82"/></g><g id="g482"><path id="path484" class="cls-39" d="M375,169.57s6-2,10.31,6.87"/></g><g id="g486"><path id="path488" class="cls-3" d="M458.68,149.63c0,10.54-1,32.6-7.52,45.69-6.08,12.3-16.15,18.91-29.34,19.31s-23-4.7-30.91-20.65-7.5-44.15-7.5-44.15,0-37.67,37.22-37.67c39.21,0,38.05,37.47,38.05,37.47"/></g><g id="g490"><path id="path492" class="cls-19" d="M395.56,201.84s4.33,22,23.49,24.54c22,2.91,27.91-24,27.91-24s-9.74,12.21-25.14,12.23a33.7,33.7,0,0,1-26.26-12.79"/></g><g id="g494"><path id="path496" class="cls-39" d="M418.39,165.27V174a2.91,2.91,0,0,0,.2,1.07,2.81,2.81,0,0,0,3.35,1.55l2.89-.77"/></g><g id="g498"><path id="path500" class="cls-27" d="M407.39,161.1a3.39,3.39,0,1,1-3.39-3.39,3.38,3.38,0,0,1,3.39,3.39"/></g><g id="g502"><path id="path504" class="cls-27" d="M439.17,161.1a3.39,3.39,0,1,1-3.39-3.39,3.39,3.39,0,0,1,3.39,3.39"/></g><g id="g506"><path id="path508" class="cls-25" d="M427.1,144.24l22.79,5.89s-1-6.39-10.36-8.71-12.43,2.82-12.43,2.82"/></g><g id="g510"><path id="path512" class="cls-25" d="M412.94,144.24l-22.78,5.89s1-6.39,10.36-8.71,12.42,2.82,12.42,2.82"/></g><g id="g514"><path id="path516" class="cls-39" d="M408.41,182.77s3.36,2.57,12.2,2.57a31,31,0,0,0,13.06-2.57"/></g><g id="g518"><path id="path520" class="cls-40" d="M417.49,162.09a14.4,14.4,0,1,1-14.4-14.4A14.39,14.39,0,0,1,417.49,162.09Z"/></g><g id="g522"><path id="path524" class="cls-40" d="M452.87,162.09a14.4,14.4,0,1,1-14.4-14.4A14.4,14.4,0,0,1,452.87,162.09Z"/></g><g id="g526"><path id="path528" class="cls-40" d="M417.49,162.09s3.41-3.18,6.58,0"/></g><g id="g530"><path id="path532" class="cls-40" d="M388.69,162.09l-4.83-.12"/></g><g id="g534"><path id="path536" class="cls-40" d="M452.87,162.09l5.39-.08"/></g><g id="g538"><path id="path540" class="cls-25" d="M395.56,116.87s6.91,19.65,38.12,19c21.2-.41,26.27,14.93,26.27,14.93s-3.69-34.3-4.66-34S423,108.52,423,108.52Z"/></g></g></g></g></g></svg>