<svg id="Capa_1" enable-background="new 0 0 512 512" height="512" viewBox="0 0 512 512" width="512" xmlns="http://www.w3.org/2000/svg"><g><path d="m42.667 343.477v-20.939c0-3.414 2.767-6.181 6.181-6.181h414.305c3.414 0 6.181 2.767 6.181 6.181v20.939c0 3.414-2.767 6.181-6.181 6.181h-414.305c-3.414.001-6.181-2.767-6.181-6.181z" fill="#e4f6ff"/><path d="m399.988 349.659c2.475-10.706 3.784-21.853 3.784-33.301h-295.544c0 11.447 1.309 22.595 3.784 33.301z" fill="#d3effb"/><path d="m447.48 316.358h-66.602v-306.056c0-5.69 4.612-10.302 10.302-10.302h45.998c5.69 0 10.302 4.612 10.302 10.302z" fill="#95d6a4"/><path d="m380.878 316.358h22.894c0-29.001-8.403-56.072-22.894-78.92z" fill="#78c2a4"/><path d="m342.027 316.358h-66.602v-241.536c0-5.69 4.612-10.302 10.302-10.302h45.998c5.69 0 10.302 4.612 10.302 10.302z" fill="#f6e781"/><path d="m275.426 169.863v146.494h66.602v-120.078c-19.27-13.844-41.99-23.169-66.602-26.416z" fill="#f4dd45"/><path d="m236.575 316.358h-66.602v-196.788c0-5.69 4.612-10.302 10.302-10.302h45.998c5.69 0 10.302 4.612 10.302 10.302z" fill="#9d66d5"/><path d="m169.973 196.279v120.078h66.602v-146.494c-24.613 3.247-47.333 12.572-66.602 26.416z" fill="#8659b9"/><path d="m131.122 316.358h-66.602v-144.755c0-5.69 4.612-10.302 10.302-10.302h45.998c5.69 0 10.302 4.612 10.302 10.302z" fill="#dd636e"/><path d="m131.122 237.437c-14.491 22.848-22.894 49.92-22.894 78.92h22.894z" fill="#da4a54"/><g><path d="m276.918 474.537h-41.835c-5.69 0-10.302-4.612-10.302-10.302v-27.162h62.439v27.162c-.001 5.689-4.613 10.302-10.302 10.302z" fill="#2b4d66"/><path d="m268.551 512h-25.101c-3.414 0-6.181-2.767-6.181-6.181v-31.282h37.463v31.282c0 3.414-2.768 6.181-6.181 6.181z" fill="#4a80aa"/><circle cx="256" cy="316.358" fill="#407093" r="124.878"/><path d="m331.519 216.904c15.95 20.973 25.424 47.138 25.424 75.519 0 68.968-55.91 124.878-124.878 124.878-28.381 0-54.547-9.474-75.519-25.424 22.809 29.992 58.867 49.359 99.454 49.359 68.968 0 124.878-55.91 124.878-124.878 0-40.587-19.367-76.645-49.359-99.454z" fill="#365e7d"/><circle cx="256" cy="316.358" fill="#e4f6ff" r="91.577"/><path d="m311.302 243.365c11.66 15.367 18.584 34.525 18.584 55.302 0 50.577-41 91.577-91.577 91.577-20.778 0-39.935-6.924-55.302-18.584 16.723 22.039 43.194 36.275 72.993 36.275 50.577 0 91.577-41.001 91.577-91.577 0-29.799-14.236-56.27-36.275-72.993z" fill="#d3effb"/></g><g><path d="m93.06 15.453h-20.813c-4.267 0-7.726-3.459-7.726-7.726s3.459-7.727 7.726-7.727h20.813c4.267 0 7.726 3.459 7.726 7.726s-3.459 7.727-7.726 7.727z" fill="#9dc6fb"/></g><g><path d="m199.206 15.453h-72.846c-4.267 0-7.726-3.459-7.726-7.726s3.46-7.727 7.727-7.727h72.846c4.267 0 7.726 3.459 7.726 7.726s-3.459 7.727-7.727 7.727z" fill="#9dc6fb"/></g><g><path d="m93.06 48.754h-20.813c-4.267 0-7.726-3.459-7.726-7.726s3.459-7.726 7.726-7.726h20.813c4.267 0 7.726 3.459 7.726 7.726s-3.459 7.726-7.726 7.726z" fill="#9dc6fb"/></g><g><path d="m199.206 48.754h-72.846c-4.267 0-7.726-3.459-7.726-7.726s3.459-7.726 7.726-7.726h72.846c4.267 0 7.726 3.459 7.726 7.726s-3.458 7.726-7.726 7.726z" fill="#9dc6fb"/></g><g><path d="m93.06 82.054h-20.813c-4.267 0-7.726-3.459-7.726-7.726s3.459-7.726 7.726-7.726h20.813c4.267 0 7.726 3.459 7.726 7.726s-3.459 7.726-7.726 7.726z" fill="#9dc6fb"/></g><g><path d="m199.206 82.054h-72.846c-4.267 0-7.726-3.459-7.726-7.726s3.459-7.726 7.726-7.726h72.846c4.267 0 7.726 3.459 7.726 7.726.001 4.267-3.458 7.726-7.726 7.726z" fill="#9dc6fb"/></g></g></svg>