<svg xmlns="http://www.w3.org/2000/svg" xmlns:xlink="http://www.w3.org/1999/xlink" viewBox="0 0 938.76 760.7"><defs><style>.cls-1{opacity:0.2;fill:url(#linear-gradient);}.cls-2,.cls-21{opacity:0.5;}.cls-2{fill:url(#Degradado_sin_nombre_8);}.cls-3{fill:url(#linear-gradient-2);}.cls-4{fill:url(#linear-gradient-3);}.cls-5{fill:#ffb8b8;}.cls-6{fill:#233862;}.cls-7{fill:url(#linear-gradient-4);}.cls-8{fill:url(#Degradado_sin_nombre_8-2);}.cls-9{opacity:0.2;isolation:isolate;}.cls-10{fill:url(#Degradado_sin_nombre_8-3);}.cls-11{fill:#e6e6e6;}.cls-12{fill:#3f3d56;}.cls-13{fill:#fff;}.cls-14{fill:url(#Degradado_sin_nombre_8-4);}.cls-15{fill:url(#linear-gradient-5);}.cls-16{fill:url(#linear-gradient-6);}.cls-17{fill:#2f2e41;}.cls-18{fill:url(#linear-gradient-7);}.cls-19{fill:url(#linear-gradient-8);}.cls-20{fill:url(#linear-gradient-9);}.cls-21{fill:url(#Degradado_sin_nombre_8-5);}.cls-22{fill:url(#Degradado_sin_nombre_8-6);}.cls-23{fill:url(#Degradado_sin_nombre_8-7);}.cls-24{fill:url(#Degradado_sin_nombre_8-8);}</style><linearGradient id="linear-gradient" y1="366.01" x2="938.76" y2="366.01" gradientUnits="userSpaceOnUse"><stop offset="0" stop-color="#ff736b" stop-opacity="0.5"/><stop offset="0.51" stop-color="#ff4a66"/><stop offset="0.77" stop-color="#ff3563"/><stop offset="1" stop-color="#ff2260"/></linearGradient><linearGradient id="Degradado_sin_nombre_8" x1="324.35" y1="129.51" x2="421.76" y2="225.86" gradientUnits="userSpaceOnUse"><stop offset="0" stop-color="#ff736b"/><stop offset="1" stop-color="#ff2260"/></linearGradient><linearGradient id="linear-gradient-2" x1="838.1" y1="454.43" x2="838.1" y2="613.28" gradientUnits="userSpaceOnUse"><stop offset="0" stop-color="#ff736b"/><stop offset="0.51" stop-color="#ff4a66"/><stop offset="0.77" stop-color="#ff3563"/><stop offset="1" stop-color="#ff2260"/></linearGradient><linearGradient id="linear-gradient-3" x1="851.66" y1="454.43" x2="851.66" y2="613.28" xlink:href="#linear-gradient-2"/><linearGradient id="linear-gradient-4" x1="747.56" y1="651.48" x2="757.09" y2="557.25" gradientUnits="userSpaceOnUse"><stop offset="0" stop-color="#00f0ff"/><stop offset="1" stop-color="#553eff"/></linearGradient><linearGradient id="Degradado_sin_nombre_8-2" x1="720.97" y1="438.75" x2="730.38" y2="522.04" xlink:href="#Degradado_sin_nombre_8"/><linearGradient id="Degradado_sin_nombre_8-3" x1="763.27" y1="434.07" x2="772.68" y2="517.37" xlink:href="#Degradado_sin_nombre_8"/><linearGradient id="Degradado_sin_nombre_8-4" x1="634.34" y1="448.54" x2="643.75" y2="531.83" xlink:href="#Degradado_sin_nombre_8"/><linearGradient id="linear-gradient-5" x1="488.53" y1="658.07" x2="488.53" y2="685.27" gradientUnits="userSpaceOnUse"><stop offset="0" stop-color="#fe3eff"/><stop offset="1" stop-color="#423eff"/></linearGradient><linearGradient id="linear-gradient-6" x1="488.53" y1="534.9" x2="488.53" y2="669.1" xlink:href="#linear-gradient-5"/><linearGradient id="linear-gradient-7" x1="359.47" y1="454.43" x2="359.47" y2="613.28" xlink:href="#linear-gradient-2"/><linearGradient id="linear-gradient-8" x1="342.09" y1="454.43" x2="342.09" y2="613.28" xlink:href="#linear-gradient-2"/><linearGradient id="linear-gradient-9" x1="152.52" y1="70.39" x2="201.93" y2="554.63" gradientTransform="translate(42.76 -26.29) rotate(10.22)" xlink:href="#linear-gradient-5"/><linearGradient id="Degradado_sin_nombre_8-5" x1="150.05" y1="620.05" x2="280.99" y2="620.05" xlink:href="#Degradado_sin_nombre_8"/><linearGradient id="Degradado_sin_nombre_8-6" x1="450.48" y1="565.03" x2="510.01" y2="565.03" xlink:href="#Degradado_sin_nombre_8"/><linearGradient id="Degradado_sin_nombre_8-7" x1="450.48" y1="579.03" x2="526.01" y2="579.03" xlink:href="#Degradado_sin_nombre_8"/><linearGradient id="Degradado_sin_nombre_8-8" x1="450.48" y1="593.03" x2="526.01" y2="593.03" xlink:href="#Degradado_sin_nombre_8"/></defs><title>anywhere</title><g id="Layer_2" data-name="Layer 2"><g id="a379d9a4-f6fe-40d1-beba-a0916853bd02"><path class="cls-1" d="M57.57,625.77S-57.77,501.93,38.06,367.86c85-119,184.17-110.82,256.9-62.55,31,20.56,120.29,2.53,196.31-118.51,103.67-165.07,463-65,397.49,189-31.71,122.9,96.5,127.37,31.17,250.22Z"/><circle class="cls-2" cx="375.31" cy="179.91" r="75.37"/><path class="cls-3" d="M853.37,586.34A136.59,136.59,0,0,1,847,624.12c-.09.28-.19.56-.28.84H822.89c0-.25.05-.53.07-.84,1.59-18.26,10.75-129.4-.2-148.41C823.72,477.25,855.22,528.32,853.37,586.34Z"/><path class="cls-4" d="M851.58,624.12,851,625H833.09c.14-.24.29-.52.48-.84,2.95-5.33,11.69-21.26,19.8-37.78,8.72-17.75,16.71-36.17,16-42.83C869.62,545,875.65,590.85,851.58,624.12Z"/><path class="cls-5" d="M671.23,693.31l3.32-27.45,94-24.13-10.82-32.44c7.54-21.61,20.76-32.2,44.93-21.63l41.56,25.82a26.51,26.51,0,0,1,12.49,24h0A26.49,26.49,0,0,1,841.63,660C795.1,682,735.79,690.48,671.23,693.31Z"/><path class="cls-6" d="M677.05,701.63l-29.12-4.16L620.7,703a11.76,11.76,0,0,1-13.88-9.18,12.77,12.77,0,0,1-.23-1.86h0a11.75,11.75,0,0,1,4.68-9.88L653.94,650a19.26,19.26,0,0,1,25,1.51l10.63,10.23c-7.61,4.72-13.26,11.79-16.64,21.63Q683.86,689.36,677.05,701.63Z"/><circle class="cls-5" cx="704.86" cy="386.48" r="26.93"/><path class="cls-5" d="M746.93,439.58,686.62,465c4.9-24.61,7.34-47,0-60.72l38.68-4.58C723.38,410.18,733.17,424.27,746.93,439.58Z"/><path class="cls-5" d="M644.6,692.48l-22.46-1.67c-13.76-57.38-20.8-111.61-17.73-161.11A28,28,0,0,1,633,503.39h0a27.92,27.92,0,0,1,18.63,7.7l29,27.64a119.51,119.51,0,0,1,29.43,43.82c8.23,21.55,5.27,33.62-14.36,31.57a48.5,48.5,0,0,1-31.56-16.77l-21.22-24.66Z"/><path class="cls-6" d="M627.21,760.66h0a19.2,19.2,0,0,1-17.92-20.42,19.4,19.4,0,0,1,1-5l4.39-12.86L618,690c5.13-10.46,12.39-8.89,20.8-.83,5.35-.52,6.5-5.87,5.82-13.31l16.87,22.7a13.55,13.55,0,0,1,1.45,13.69l-17,37.23A19.22,19.22,0,0,1,627.21,760.66Z"/><path class="cls-7" d="M839.68,610.54c-30.78,17.47-40.42,18-71.12,30.36l-26.62-15c-31.27,11.56-53.2-4.29-77-27.87,15.54-25.89,8.67-59.54,18.3-59.07l115.22,36.19,5,12.48Z"/><path class="cls-8" d="M802.67,583.5c-40.69,17.61-84.49-1-121.88-42L656,441.51A8.34,8.34,0,0,1,662,431.3l.5-.12,28.73-5.74,14.14,22.46,28.29-25,30,9.82a23.21,23.21,0,0,1,15.63,18Z"/><path class="cls-9" d="M738.05,668.26h0a14.69,14.69,0,0,1-8.5-19,14.5,14.5,0,0,1,2.52-4.27l19-22.43,13.31,7.49L757.54,658a14.68,14.68,0,0,1-17.76,10.77A16.55,16.55,0,0,1,738.05,668.26Z"/><path class="cls-5" d="M738.05,664.93h0a14.7,14.7,0,0,1-6-23.23l19-22.43,13.31,7.49-6.86,27.94a14.68,14.68,0,0,1-17.76,10.77A12.85,12.85,0,0,1,738.05,664.93Z"/><path class="cls-10" d="M767.73,633.41l-20-13.31,29.12-77.36-10.82-109,9.87,6.16a46.08,46.08,0,0,1,20.72,29.83l16,78C805.65,583.67,794,615.29,767.73,633.41Z"/><polygon class="cls-9" points="755.66 509.88 765.65 559.79 757.43 588.98 755.66 509.88"/><path class="cls-6" d="M678.52,384.17S663,333.39,710.43,344c7.36,1.65,13.71,5.93,18.77,11.52a4.57,4.57,0,0,0,3.57,1.46c7.58,0,12.25,27.07-2.9,39,0,0,3.09-16-2.52-21.48a12.22,12.22,0,0,1-2.51-3.22c-3.65-7.38-16-9.8-24.43-9.17-4.33.32-4.71,7.86-9.5,6.81C680,366.54,676.53,379.17,678.52,384.17Z"/><path class="cls-11" d="M726.26,459.55l-.32,2.29L724,476l-3.18,23.24-.79,5.81a1.86,1.86,0,0,1-1.84,1.61H697a1.85,1.85,0,0,1-1.84-1.6l-.81-5.82L691.17,476l-2-14.2-.31-2.28a1.85,1.85,0,0,1,1.58-2.09l.25,0h33.71a1.85,1.85,0,0,1,1.85,1.86A2.18,2.18,0,0,1,726.26,459.55Z"/><path class="cls-12" d="M692.94,451.29H722.3a1.85,1.85,0,0,1,1.85,1.85h0v2.45a1.85,1.85,0,0,1-1.85,1.85H693a1.85,1.85,0,0,1-1.86-1.85h0v-2.45a1.85,1.85,0,0,1,1.85-1.85Z"/><path class="cls-12" d="M728.91,460.52a196.8,196.8,0,0,1-42.58,0,1.85,1.85,0,0,1-1.85-1.85h0v-2.45a1.85,1.85,0,0,1,1.85-1.86,174.32,174.32,0,0,0,42.58,0,1.85,1.85,0,0,1,1.85,1.86v2.45A1.85,1.85,0,0,1,728.91,460.52Z"/><circle class="cls-13" cx="706.76" cy="480.96" r="8"/><path class="cls-5" d="M727.33,497.79h0a14.68,14.68,0,0,1-18,15.81l-28.6-6.87.69-15.25,28-6.48A14.69,14.69,0,0,1,727,496,13.5,13.5,0,0,1,727.33,497.79Z"/><path class="cls-14" d="M688.7,509.46l-77.17,1.93a19.16,19.16,0,0,1-19.64-18.68,18.85,18.85,0,0,1,.18-3.19h0A19.23,19.23,0,0,1,598,478.23l36.34-34A48.53,48.53,0,0,1,658.49,432l12.74-2.39,7.48,56.57-43.26-5L686.2,487Z"/><path class="cls-15" d="M587,675.46H390a6.61,6.61,0,0,1-6.61-6.61h0q107.11-12.45,210.22,0h0a6.61,6.61,0,0,1-6.61,6.61Z"/><path class="cls-16" d="M593.64,669.24l-210.22-.39,24.36-41,.12-.2V537.31a8.35,8.35,0,0,1,8.35-8.35H559.64a8.35,8.35,0,0,1,8.35,8.35h0v91Z"/><path class="cls-13" d="M416.06,534.79a2.72,2.72,0,0,0-2.72,2.72v82.38a2.72,2.72,0,0,0,2.72,2.72H561a2.72,2.72,0,0,0,2.72-2.72V537.51a2.72,2.72,0,0,0-2.72-2.72Z"/><path class="cls-9" d="M417,633.49a1.18,1.18,0,0,0-1.06.68l-7.5,16.32a1.15,1.15,0,0,0,1.06,1.65H567.38a1.16,1.16,0,0,0,1.16-1.16,1.24,1.24,0,0,0-.12-.53l-8.16-16.32a1.17,1.17,0,0,0-1-.64Z"/><circle class="cls-13" cx="487.95" cy="531.68" r="1.75"/><path class="cls-9" d="M472.43,655.25a1.17,1.17,0,0,0-1.13.86l-1.88,7a1.17,1.17,0,0,0,.82,1.43,1.55,1.55,0,0,0,.31,0h35.81a1.17,1.17,0,0,0,1.16-1.17,1.21,1.21,0,0,0-.06-.38L505,656a1.18,1.18,0,0,0-1.1-.78Z"/><polygon class="cls-17" points="567.99 626.3 567.99 627.86 407.78 627.86 407.9 627.66 407.9 626.3 567.99 626.3"/><path class="cls-18" d="M339.9,574.46a175.12,175.12,0,0,0,8.19,48.42c.11.36.23.72.35,1.08H379c0-.32-.06-.69-.1-1.08-2-23.41-13.77-165.85.26-190.21C377.91,434.64,337.54,500.1,339.9,574.46Z"/><path class="cls-19" d="M342.19,622.88c.26.36.53.73.8,1.08h22.9c-.17-.31-.37-.67-.61-1.08-3.78-6.83-15-27.25-25.38-48.42-11.17-22.75-21.42-46.36-20.56-54.9C319.08,521.49,311.35,580.24,342.19,622.88Z"/><path class="cls-6" d="M483.31,106.83l12.42-9.93c-9.65-1.07-13.61,4.19-15.23,8.36-7.53-3.13-15.74,1-15.74,1l24.84,9A18.71,18.71,0,0,0,483.31,106.83Z"/><path class="cls-6" d="M767.74,78l12.41-9.93c-9.64-1.06-13.6,4.2-15.22,8.36-7.54-3.13-15.74,1-15.74,1l24.84,9A18.86,18.86,0,0,0,767.74,78Z"/><path class="cls-6" d="M696.26,209.76l12.41-9.92c-9.64-1.07-13.6,4.19-15.23,8.35-7.53-3.12-15.73,1-15.73,1l24.84,9A19,19,0,0,0,696.26,209.76Z"/><ellipse class="cls-20" cx="168.39" cy="225.95" rx="112.08" ry="228.69" transform="translate(-37.42 33.46) rotate(-10.22)"/><path class="cls-6" d="M150,183.15q14.79,40.22,26.32,81.52T196.05,348q8.17,42.07,13,84.73t6.12,85.45q1.35,42.81-.74,85.66-.26,5.24-.57,10.49c-.21,3.58,5.36,3.57,5.57,0q2.52-43,1.59-86-1-42.84-5.32-85.5t-12.15-85.14q-7.77-42.35-18.91-84T159,191.55q-1.76-5-3.58-9.88c-1.23-3.34-6.61-1.9-5.37,1.48Z"/><path class="cls-6" d="M188.43,288.6l24.68-54.8,7-15.45a2.87,2.87,0,0,0-1-3.81,2.81,2.81,0,0,0-3.81,1l-24.68,54.81-7,15.45a2.87,2.87,0,0,0,1,3.81,2.8,2.8,0,0,0,3.81-1Z"/><path class="cls-6" d="M193.88,326.05,137.6,305,121.73,299a2.81,2.81,0,0,0-3.42,1.95,2.85,2.85,0,0,0,1.94,3.43l56.29,21.1,15.86,5.95a2.82,2.82,0,0,0,3.43-1.95,2.85,2.85,0,0,0-2-3.43Z"/><path class="cls-21" d="M150.05,625s67.79-22.29,130.94,0"/><path class="cls-22" d="M453.38,568.4c13.43-.14,26.86-.38,40.3-.57l13.43-.16c3.86,0,3.87-6,0-6-13.43.14-26.86.38-40.3.57l-13.43.16C449.52,562.44,449.51,568.44,453.38,568.4Z"/><path class="cls-23" d="M453.38,582.4l54.29-.57,15.44-.16c3.86,0,3.87-6,0-6l-54.29.57-15.44.16C449.52,576.44,449.51,582.44,453.38,582.4Z"/><path class="cls-24" d="M453.38,596.4l54.29-.57,15.44-.16c3.86,0,3.87-6,0-6l-54.29.57-15.44.16C449.52,590.44,449.51,596.44,453.38,596.4Z"/></g></g></svg>