<svg xmlns="http://www.w3.org/2000/svg" xmlns:xlink="http://www.w3.org/1999/xlink" viewBox="0 0 1045 787"><defs><style>.cls-1{isolation:isolate;}.cls-2,.cls-25{opacity:0.2;}.cls-2{fill:url(#linear-gradient);}.cls-3{fill:url(#linear-gradient-2);}.cls-4{fill:#233862;}.cls-5{fill:#b589b6;opacity:0.5;}.cls-25,.cls-5{mix-blend-mode:multiply;}.cls-6{fill:#ffa39f;}.cls-7{fill:#f24b46;}.cls-8{fill:#ff7d78;}.cls-9{fill:url(#linear-gradient-3);}.cls-10{fill:url(#Degradado_sin_nombre_8);}.cls-11{fill:#7831bb;}.cls-12{fill:#6615b2;}.cls-13,.cls-26{fill:#fff;}.cls-14{fill:url(#linear-gradient-4);}.cls-15{fill:#ebf3ff;}.cls-16{fill:#ff938f;}.cls-17{fill:url(#linear-gradient-5);}.cls-18{fill:url(#linear-gradient-6);}.cls-19{fill:url(#linear-gradient-7);}.cls-20{fill:url(#linear-gradient-8);}.cls-21{fill:url(#Degradado_sin_nombre_8-2);}.cls-22{fill:#f9f7f7;opacity:0.3;}.cls-23{fill:url(#Degradado_sin_nombre_8-3);}.cls-24{fill:url(#Degradado_sin_nombre_8-4);}.cls-26{font-size:17.61px;font-family:Poppins-Medium, Poppins;font-weight:500;}.cls-27{fill:url(#linear-gradient-9);}</style><linearGradient id="linear-gradient" x1="165" y1="393.5" x2="1283" y2="393.5" gradientTransform="matrix(-1, 0, 0, 1, 1283, 0)" gradientUnits="userSpaceOnUse"><stop offset="0" stop-color="#ff736b" stop-opacity="0.5"/><stop offset="0.51" stop-color="#ff4a66"/><stop offset="0.77" stop-color="#ff3563"/><stop offset="1" stop-color="#ff2260"/></linearGradient><linearGradient id="linear-gradient-2" x1="165" y1="393.5" x2="1283" y2="393.5" gradientTransform="matrix(-1, 0, 0, 1, 1283, 0)" gradientUnits="userSpaceOnUse"><stop offset="0" stop-color="#ff736b"/><stop offset="0.51" stop-color="#ff4a66"/><stop offset="0.77" stop-color="#ff3563"/><stop offset="1" stop-color="#ff2260"/></linearGradient><linearGradient id="linear-gradient-3" x1="202.91" y1="576.99" x2="202.91" y2="358.53" gradientUnits="userSpaceOnUse"><stop offset="0" stop-color="#fe3eff"/><stop offset="1" stop-color="#423eff"/></linearGradient><linearGradient id="Degradado_sin_nombre_8" x1="169.24" y1="260.48" x2="169.24" y2="337.31" gradientUnits="userSpaceOnUse"><stop offset="0" stop-color="#ff736b"/><stop offset="1" stop-color="#ff2260"/></linearGradient><linearGradient id="linear-gradient-4" x1="152.27" y1="576.99" x2="152.27" y2="358.53" xlink:href="#linear-gradient-3"/><linearGradient id="linear-gradient-5" x1="426.92" y1="207.61" x2="715.88" y2="257.71" gradientTransform="translate(101.16 -159.92) rotate(14.44)" xlink:href="#linear-gradient-3"/><linearGradient id="linear-gradient-6" x1="737.15" y1="396.1" x2="763.87" y2="553.93" gradientUnits="userSpaceOnUse"><stop offset="0" stop-color="#553eff"/><stop offset="1" stop-color="#00f0ff"/></linearGradient><linearGradient id="linear-gradient-7" x1="726.1" y1="344.05" x2="716.91" y2="552.83" xlink:href="#linear-gradient-6"/><linearGradient id="linear-gradient-8" x1="727.79" y1="380.74" x2="727.79" y2="232.9" xlink:href="#linear-gradient-3"/><linearGradient id="Degradado_sin_nombre_8-2" x1="559.76" y1="272.92" x2="559.76" y2="476.01" xlink:href="#Degradado_sin_nombre_8"/><linearGradient id="Degradado_sin_nombre_8-3" x1="301.41" y1="272.92" x2="301.41" y2="476.01" xlink:href="#Degradado_sin_nombre_8"/><linearGradient id="Degradado_sin_nombre_8-4" x1="533.03" y1="272.92" x2="533.03" y2="476.01" xlink:href="#Degradado_sin_nombre_8"/><linearGradient id="linear-gradient-9" x1="725.6" y1="250.92" x2="718.91" y2="361.16" xlink:href="#linear-gradient-3"/></defs><title>Asset 10</title><g class="cls-1"><g id="Layer_2" data-name="Layer 2"><g id="Layer_1-2" data-name="Layer 1"><path class="cls-2" d="M374.5,0C593.77,0,861,79,1045,88V739c-244-11-451.23,48-670.5,48C83.72,787,0,610.82,0,393.5S83.72,0,374.5,0Z"/><path class="cls-3" d="M374.5,23C593.77,23,905.13,73.62,1045,219.22V580.78C905.13,731,593.77,764,374.5,764,83.72,764,0,598.12,0,393.5S83.72,23,374.5,23Z"/><path class="cls-4" d="M727.18,561s-1,16.72-4.27,17c-.43,0-16.41,0-16.41,0l-20.39-.12s.14-4.91,6.1-6,15.93-5.23,19.55-13.11C715.55,550.5,727.18,561,727.18,561Z"/><path class="cls-4" d="M772.6,561s-1,16.72-4.27,17c-.43,0-16.41,0-16.41,0l-20.45-.07s.2-5,6.16-6,15.93-5.23,19.54-13.11C761,550.5,772.6,561,772.6,561Z"/><ellipse class="cls-5" cx="459.51" cy="579.55" rx="329.49" ry="10.65"/><polygon class="cls-6" points="150.34 531.67 156.71 558.49 166.25 558.43 166.6 531.67 150.34 531.67"/><polygon class="cls-6" points="230.56 532.82 248.67 558.49 255.73 549.42 244.83 529.29 230.56 532.82"/><path class="cls-4" d="M183.46,179.32a18.39,18.39,0,0,0-10-1.91,4.58,4.58,0,0,1,2.1-1c-1.71-.26-5.53,1.44-5.53,1.44-23.8-9.17-27.54,25.87-27,34s-8,10.8-20.38,17.21c-23.63,12.24-25.7,28.63-25.7,28.63.18.11.37.23.58.38,1.17-2,3.58-5.72,5.62-6.28a82.86,82.86,0,0,0-3.28,8c7,5.3,20,17.05,29.1,25.38a13.45,13.45,0,0,1,.62-5.16l1.12,6.76c4.87,4.47,8.22,7.62,8.22,7.62-.6-6.58,29.76-41.3,45.6-51.7,3.85-5.68,5.22-15.71,5.33-16.5-.67,8-2,12.42-3.24,14.93C200,228.76,192.19,184.28,183.46,179.32Z"/><path class="cls-6" d="M183.56,243.2c.08,0-7.65,4-13.46,2.45-5.47-1.49-9-8.58-9-8.59,2.31-.46,3-3.64,2.93-17.32l1.05.21,17.6,3.49s-.4,5.53-.42,10.75C182.29,238.57,182.56,242.73,183.56,243.2Z"/><path class="cls-7" d="M163.66,185.06s8.68-9.25,19.58-.48C183.24,184.58,176.9,183.49,163.66,185.06Z"/><path class="cls-8" d="M182.72,223.44s-.4,5.53-.42,10.75c-9.84-.28-15.05-9.26-17.18-14.24Z"/><path class="cls-4" d="M163.3,218s-5.16-8.16-6.4-15.13c-.88-5,1.65-23.43,20.19-20.77a25.17,25.17,0,0,1,10.45,4c4,2.71,9.84,8.58,3.34,24.69l-1.69,5.44Z"/><path class="cls-9" d="M252.86,542.39l-9.33.28-10.1.31s-23.32-26-36.4-67.59c-.31-1-.63-1.95-1-2.94-7.16-20.88-22-47.08-29.83-70.8-1.24-3.78-2.36-7.34-3.36-10.71-.32-1.07-.64-2.13-.93-3.17-5.77-20-7.44-33.18-9-47.23l56.49.45S218.57,436.93,252.86,542.39Z"/><path class="cls-10" d="M201.54,308.53c-.14,26.88,3.94,38.41,3.94,38.41s-24.18,12.29-52.92,3.24c-.34-.1-23.8-5.46-23.8-5.46.48-1.08,4.76-19.2,5.22-20.2,6.07-13,10.68-18.74,11.4-22.75a85.25,85.25,0,0,0,.7-22.52,180.37,180.37,0,0,0-7-35.36c7.83-1.78,15.37-4.83,23.52-7.89,1.87,2.34,7.4,4.7,12.38,4.59,5.72-.13,7.51-2.55,7.3-5.28,6.1,3.4,10.95,6.62,10.95,6.62,5.19,9,15.7,17.76,16.46,31.58C209.91,276.9,201.54,307.78,201.54,308.53Z"/><path class="cls-11" d="M153,311.53c-2.47,3.49-7.2,24.73-19,27.4,6.07-15.14,10.68-21.77,11.4-26.43a114.78,114.78,0,0,0,.7-26.15C150,279.44,153,274.7,153,274.7c.31-1.12,6.27-19.53,8.18-3.07S155.72,307.62,153,311.53Z"/><path class="cls-6" d="M186,228.38s-23.3.38-23.31-14.13-3-24.24,11.84-25.1,17.77,4.67,19,9.52S192.07,227.9,186,228.38Z"/><path class="cls-4" d="M192.79,190.6c-3.59-4.36-6.31-3.41-7.84-2.1-5-7.53-20.95,3.35-20.95,3.35a27.71,27.71,0,0,1-9.07,16.38s4.25,2.63,14,.11c7.71-2,13.3-13,15.33-17.53,1.39,1.23,4.31,4.08,5.19,6.86,1.16,3.7,1.68,11.31,3.9,11.05C193.39,208.72,198.19,197.15,192.79,190.6Z"/><path class="cls-6" d="M156.39,557a25.82,25.82,0,0,1-1.21,11s-1.57,7.11,5.44,7.25,8.72-.53,7.93-4.89-2.3-11.91-2.3-11.91Z"/><path class="cls-12" d="M169.21,578.72H154.67c-.79-3.72.5-10.73.5-10.73,7.94,7.58,12.9-.19,12.9-.19C169.36,571,169.21,578.72,169.21,578.72Z"/><path class="cls-6" d="M272.61,571.38s-12.91-14.66-16.88-22l-9.6,4.92L267.6,574.5l5-.66Z"/><path class="cls-12" d="M280.53,578.69H262.62c-1.58-1.42-3.09-4.28-4.93-8-1.06-2.15-3.42-3.34-5.85-4v12h-3.7L244.7,565.9c-2.28-4.29-.57-8.22,1-11.6,1.87,0,7.3,1.34,16.84,12.3,3.13,3.6,6.59,4.89,10,4.78l.14.08C278.19,574,280,577,280.53,578.69Z"/><path class="cls-13" d="M279.66,252.46s-15.29,8.56-20.76,11c-1.94.88-5.46,2.52-9,4.2-2.18,1-4.37,2-6.27,2.94a7.9,7.9,0,0,1-9.35-2c-8.28-9.67-29.71-30.63-51.84-33.26l-.08,0v0h0l.12.24c1.25,3.09,13.38,33.41,13.76,39.81.39,6.73,1.58,110.21,1.58,110.21s-.79,4.76,8.33,2.77,11.5-4,11.5-4-8.73-63.83-6.35-86a49.09,49.09,0,0,0-.93-14.31c13.48,8.17,29.38,11.8,29.38,11.8a133.75,133.75,0,0,0,15.14-8.3,94.84,94.84,0,0,0,12.76-10.27c5.34-4.89,14.51-16.7,14.51-16.7Z"/><path class="cls-5" d="M243.53,542.67l-10.1.31s-23.32-26-36.4-67.59c-.31-1-.63-1.95-1-2.94-7.16-20.88-22-47.08-29.83-70.8-1.24-3.78-2.36-7.34-3.36-10.71-.32-1.07-.64-2.13-.93-3.17l8.31-6.32s25,40.44,32.71,78.5C209.67,493,236.57,532.78,243.53,542.67Z"/><path class="cls-14" d="M171.12,463.49c.14,18.51-.79,61.06-3.2,78.67H159c-4.94,0-7.4-.07-7.4-.07-6-30.63-10.35-56-13.48-77.81-2.57-17.91-4.86-33.28-6.61-46.5s-3-24.46-3.44-33.87c-.07-1.48-.12-2.93-.15-4.33s0-2.77,0-4.1l48.8-4.76C176.06,403.15,171,452.74,171.12,463.49Z"/><path class="cls-5" d="M159,542.16c-4.94,0-7.4-.07-7.4-.07-6-30.63-10.35-56-13.48-77.81-2.57-17.91-4.86-33.28-6.61-46.5s-3-24.46-3.44-33.87L146,394.44s-11.43,4-7.07,34.56S152.91,537.84,159,542.16Z"/><path class="cls-13" d="M161.28,383.61S157.84,396,146,394.44s-28.81-8.72-28.81-8.72,5.08-16.06,11.4-37.16c7.66-25.54,17.13-58.47,21.59-79.24a130,130,0,0,0,2.43-14.16L162.63,236s14.51,33,15.3,41.36S161.28,383.61,161.28,383.61Z"/><path class="cls-6" d="M203.76,286.65c-5.73.75-7.92,3.8-8.63,7.9a17.47,17.47,0,0,1-2.49,5.95c-5.7.3-19.28,1-30.69,1.77l-.94,15a170.79,170.79,0,0,0,34.14-8.08A9.07,9.07,0,0,0,199,307c8.21-6.73,12.87-18,12.89-19.61S209.48,285.9,203.76,286.65Z"/><path class="cls-15" d="M160.75,294.8c-.53,13.48-3.7,39.65-32,53.65l-.23.11c7.66-25.54,17.13-58.47,21.59-79.24C155.32,277.08,161,287.38,160.75,294.8Z"/><path class="cls-13" d="M162.63,236s-24.19,1.72-30,14.67-7.67,56-.27,68.72c0,0,10.19,2.9,28.21-.47l.67-.13s5.74-14.07.59-16.85c0,0-15.2.8-13.61-4.23S162.63,236,162.63,236Z"/><path class="cls-6" d="M296.06,242.3c-13-1.67-16.3,10.16-16.3,10.16l2.43,8.13c4,.56,7.52-.49,10.76-5.12s4.12-2.85,6.18-6.29C301.92,244.51,297.56,242.77,296.06,242.3Z"/><path class="cls-6" d="M258.9,263.48c-1.94.88-5.46,2.52-9,4.2,1.92,3.41,4.33,9.62,5,19.88A83.3,83.3,0,0,0,268,277a173.53,173.53,0,0,0,14.13-16.39l-2.43-8.13S264.37,261,258.9,263.48Z"/><path class="cls-4" d="M734.42,209.88s-2.09-20-24.16-21.44c-15.12-1-7.08-14.22-5.53-16.33,0,0,11.6,1.26,23.49,2.88C753.19,178.4,736.78,206.69,734.42,209.88Z"/><path class="cls-16" d="M640.91,222.05s-5.93-8.23-6.45-14.74-7.32-15.4-10.08-16.18-3.36.14-3,3.3,0,15.07,5.17,20.79,8.65,14.42,8.65,14.42Z"/><path class="cls-17" d="M751.4,270.09s-77.13,18.3-90.34,3.83c-6.52-7.14-28.37-41.42-33.4-52.12,0,0,1.13-3.55,10.28-6.37,0,0,29.5,33.33,39.43,35.82,14.78,3.71,45.25-23.58,60.14-17.5S763.88,255.39,751.4,270.09Z"/><path class="cls-18" d="M704.6,388.07s5.33,32.92,25.22,91.35,22.61,83.74,22.61,83.74a91.08,91.08,0,0,0,11.07.75,72.48,72.48,0,0,0,10.27-1.33s.19-63.86-9-93.24-2-105.93-2-105.93Z"/><path class="cls-19" d="M694.21,365.21a770.46,770.46,0,0,0,8.14,110.51c8.89,60.9,5.88,86.75,5.88,86.75s7.32,1.27,9.89,1.35c2.75.09,11.41-.66,11.41-.66s12.73-60.93,9.08-91.41S756,367.15,756,367.15Z"/><path class="cls-16" d="M716.6,237.27a34.79,34.79,0,0,0-9.15,8.77c14.87,3.4,38.95-11,38.95-11s-9.68-6.12-13.59-20c-.2-.71-.38-1.43-.54-2.17a44.09,44.09,0,0,1-1-7.65l-6.61,6.26-11,10.42a98.38,98.38,0,0,0,2,11.35Q716.06,235.13,716.6,237.27Z"/><path class="cls-20" d="M764,305.62c-1.32,28.49,3.45,71.61,1.26,79.17-1.89,6.52-26.35,3.38-35.83,1.48-3.5-.7-7.75-1.72-12.15-2.95C705,379.9,691.57,374.9,690,371c-.06-.16-.11-.31-.15-.46a3.77,3.77,0,0,1,0-1.67c.42-2.05,2.18-4.3,2.26-9.34.08-5.63-.14-12.25-.13-19.38,0-.8,0-1.68,0-2.48v-.29c0-.15,0-.3,0-.46,0-7.94.17-16.3.42-24.59.16-5.21.37-10.37.64-15.32.7-12.76,1.81-24.13,3.5-31.34,2.76-11.76,9.36-19.57,15.41-25.32l4.38-4a26,26,0,0,0,16.22-2.63c5.71-2.91,7.66-4.94,8.69-4.22C755,239.43,765.47,270.79,764,305.62Z"/><path class="cls-5" d="M717.3,383.38C705,380,691.64,375,690.11,371a2.89,2.89,0,0,1-.14-.45l0-1.68c.42-2,2.18-4.3,2.26-9.34.08-5.63-.14-12.25-.13-19.38,0-.8,0-1.67,0-2.47v-.75l45.34-22.11S741.12,351.75,717.3,383.38Z"/><path class="cls-8" d="M713.65,221.9a98.38,98.38,0,0,0,2,11.35c10.91-3.87,15.62-13.95,17.17-18.21.44-1.21.63-1.95.63-1.95l-1.17-.22-7.63-1.39Z"/><path class="cls-16" d="M709.19,221.91s24.26,2.05,25.31-13.08,4.88-25.05-10.57-27-18.86,3.62-20.43,8.58S702.91,221,709.19,221.91Z"/><path class="cls-21" d="M468.87,256.31A98.26,98.26,0,0,1,541.48,304l71.44-1.9L650.65,240A224.74,224.74,0,0,0,469.57,129.35l34.27,62.48Z"/><path class="cls-22" d="M547.62,316.38a98.27,98.27,0,0,1-5.92,86.77l37.36,60.92,72.74,1.59a225.11,225.11,0,0,0,5.77-213l-37.51,61.81Z"/><path class="cls-22" d="M378.41,294.53a98.06,98.06,0,0,1,76.64-38.95l34.56-63.72L455.13,129A224.58,224.58,0,0,0,269.34,229.63l70.2,1.54Z"/><path class="cls-23" d="M365.89,391.14a98.21,98.21,0,0,1,5-85L332.45,243.5,261.7,242a225.16,225.16,0,0,0-6.65,211.16l36.41-60Z"/><path class="cls-22" d="M442.78,451A98.33,98.33,0,0,1,372,403.48l-73.41,1.95-36.72,60.5a224.8,224.8,0,0,0,180,112.16l-34.2-62.34Z"/><path class="cls-24" d="M534,414.48A98,98,0,0,1,456.76,452h-.31L421.9,515.71l34.49,62.88h.37A224.58,224.58,0,0,0,644.16,478L572,476.41Z"/><path class="cls-13" d="M529.89,498.69c0,.84-.22,1.53-1.27,1.53H491.25a1.92,1.92,0,0,1-1.91-1.91V463.08c0-1,.69-1.27,1.53-1.27s1.52.23,1.52,1.27v32.18a1.92,1.92,0,0,0,1.91,1.91h34.32c1,0,1.27.68,1.27,1.52Z"/><path class="cls-13" d="M526.33,474.87c.44.28.76.08.71-.44l-.73-8.12a.69.69,0,0,0-1-.61l-7.64,2.86c-.48.18-.52.55-.08.83l1.42.89a.94.94,0,0,1,.28,1.3l-5.78,8.76a1.23,1.23,0,0,1-1.4.46l-9-3.4a1.43,1.43,0,0,0-1.49.4L496,484.62a3.15,3.15,0,0,0-.61,1.68l0,5.57c0,.52.27.62.61.22l7.25-8.45a1.48,1.48,0,0,1,1.51-.38l9,3.43a1.25,1.25,0,0,0,1.41-.46l8.09-12.14a1,1,0,0,1,1.32-.29Z"/><g class="cls-25"><path class="cls-13" d="M629.42,359.67a.2.2,0,0,1-.25,0L608,343.94a.22.22,0,0,0-.22,0,.22.22,0,0,0-.12.19v22.24a.78.78,0,0,0,.84.77H650a.78.78,0,0,0,.84-.77V344a.22.22,0,0,0-.12-.19.24.24,0,0,0-.23,0Z"/><path class="cls-13" d="M650.82,340.08v-.31A.77.77,0,0,0,650,339H608.5a.77.77,0,0,0-.83.77v.39l21.52,14a.2.2,0,0,0,.23,0Z"/></g><path class="cls-13" d="M629.42,359.67a.2.2,0,0,1-.25,0L608,343.94a.47.47,0,0,0-.35,0c-.07,0-.24.11-.24.19v22.24a1.16,1.16,0,0,0,1.08.94H650c.46,0,.59-.47.59-.94V344c0-.08.07-.16,0-.19s-.09,0-.16,0Z"/><path class="cls-13" d="M650.58,340.08v-.31c0-.47-.13-.61-.59-.61H608.47c-.46,0-1.09.14-1.09.61v.39l21.67,14a.14.14,0,0,0,.17,0Z"/><g id="_2" data-name="2"><g class="cls-25"><path class="cls-13" d="M553.65,180.57c.34-.68.88-.68,1.21,0l5.36,10.84a2.9,2.9,0,0,0,2,1.43l12,1.74c.75.11.92.63.38,1.15l-8.67,8.44a2.93,2.93,0,0,0-.75,2.31l2,11.93c.12.74-.32,1.06-1,.71l-10.71-5.63a2.92,2.92,0,0,0-2.42,0l-10.71,5.63c-.67.35-1.11,0-1-.71l2-11.93a2.93,2.93,0,0,0-.75-2.31L534,195.73c-.54-.52-.37-1,.37-1.15l12-1.74a2.9,2.9,0,0,0,2-1.43Z"/></g><path class="cls-13" d="M553.42,181c.46-.93,1.21-.93,1.67,0L560,191a4.07,4.07,0,0,0,2.7,2l10.94,1.59c1,.15,1.27.87.52,1.59l-7.92,7.72a4,4,0,0,0-1,3.17l1.87,10.9c.18,1-.43,1.47-1.36,1l-9.78-5.14a4.05,4.05,0,0,0-3.34,0l-9.79,5.14c-.92.49-1.53,0-1.36-1l1.87-10.9a4,4,0,0,0-1-3.17l-7.92-7.72c-.75-.72-.51-1.44.52-1.59l10.94-1.59a4.11,4.11,0,0,0,2.71-2Z"/></g><path class="cls-13" d="M348,422.34c-9.61,0-17.4,6.78-17.4,15.14s7.79,15.13,17.4,15.13a10.65,10.65,0,0,0,3.5-.3c6.19-2.17,1.52,9.89,1.52,9.89s7.32-7.44,10.56-15.12a24.67,24.67,0,0,0,1.82-9.6C365.36,429.12,357.57,422.34,348,422.34Zm-7.69,19.07a2.62,2.62,0,1,1,2.62-2.62A2.62,2.62,0,0,1,340.27,441.41Zm7.69,0a2.62,2.62,0,1,1,2.63-2.62A2.61,2.61,0,0,1,348,441.41Zm7.71,0a2.62,2.62,0,1,1,2.62-2.62A2.61,2.61,0,0,1,355.67,441.41Z"/><path class="cls-13" d="M315.71,310.13A6.31,6.31,0,0,0,311,312.3l-9.74-5.12a10.32,10.32,0,0,0,.63-3.53,10.48,10.48,0,0,0-.83-4.09l7.59-4.56a4.61,4.61,0,0,0,3,1.08,4.68,4.68,0,1,0-4.68-4.68,4.53,4.53,0,0,0,.17,1.17l-7.53,4.52a10.45,10.45,0,1,0,.35,12.64l9.73,5.12a6.39,6.39,0,0,0-.2,1.58,6.31,6.31,0,1,0,6.3-6.3Z"/><circle class="cls-13" cx="392.91" cy="222.25" r="9.43"/><path class="cls-13" d="M401.8,230h-.18a11.41,11.41,0,0,1-17.42,0H384a7.79,7.79,0,0,0-7.76,7.76V249.2H382v-6.38a.85.85,0,1,1,1.69,0v6.38h18.45v-6.38a.85.85,0,1,1,1.69,0v6.38h5.73V237.73A7.78,7.78,0,0,0,401.8,230Z"/><text class="cls-26" transform="translate(357.43 198.52)">Business</text><text class="cls-26" transform="translate(512.17 245.97)">Developer</text><text class="cls-26" transform="translate(584.75 403.62)">Design</text><text class="cls-26" transform="translate(461.92 524.04)">Marketing</text><text class="cls-26" transform="translate(293.2 477.97)">Photography</text><text class="cls-26" transform="translate(275.75 354.44)">Web</text><path class="cls-16" d="M694,357.26s-8.51,5.54-15,5.76-15.72,6.59-16.63,9.31,0,3.36,3.16,3.12,15,.67,21-4.2,14.81-8,14.81-8Z"/><path class="cls-27" d="M747.11,249.13s14.69,77.9-.39,90.42c-7.43,6.18-42.69,26.4-53.62,30.93,0,0-3.48-1.29-5.87-10.56,0,0,34.66-27.92,37.61-37.72,4.39-14.6-21.44-46.3-14.68-60.89S733,236,747.11,249.13Z"/></g></g></g></svg>