<?xml version="1.0" encoding="utf-8"?>
<!-- Generator: Adobe Illustrator 24.0.1, SVG Export Plug-In . SVG Version: 6.00 Build 0)  -->
<svg version="1.1" id="Layer_1" xmlns="http://www.w3.org/2000/svg" xmlns:xlink="http://www.w3.org/1999/xlink" x="0px" y="0px"
	 viewBox="0 0 830.3 435.1" style="enable-background:new 0 0 830.3 435.1;" xml:space="preserve">
<style type="text/css">
	.st0{opacity:0.2;fill:url(#SVGID_1_);enable-background:new    ;}
	.st1{fill:#9EC3F6;}
	.st2{fill:#CDE0FB;}
	.st3{opacity:0.5;}
	.st4{fill:#FFFFFF;}
	.st5{fill:url(#SVGID_2_);}
	.st6{fill:url(#SVGID_3_);}
	.st7{fill:url(#SVGID_4_);}
	.st8{fill:url(#SVGID_5_);}
	.st9{fill:url(#SVGID_6_);}
	.st10{fill:url(#SVGID_7_);}
	.st11{fill:url(#SVGID_8_);}
	.st12{fill:#F1A34F;}
	.st13{opacity:0.2;fill:#233862;enable-background:new    ;}
	.st14{opacity:0.1;fill:#EBEEF3;enable-background:new    ;}
	.st15{fill:url(#SVGID_9_);}
	.st16{fill:url(#SVGID_10_);}
	.st17{fill:#E9F3FE;}
	.st18{fill:url(#SVGID_11_);}
	.st19{fill:url(#SVGID_12_);}
	.st20{fill:#233862;}
	.st21{fill:#C65447;}
	.st22{fill:url(#SVGID_13_);}
	.st23{fill:#FFB27D;}
	.st24{fill:#E2915A;}
	.st25{fill:url(#SVGID_14_);}
	.st26{fill:url(#SVGID_15_);}
	.st27{fill:url(#SVGID_16_);}
	.st28{fill:url(#SVGID_17_);}
	.st29{fill:url(#SVGID_18_);}
	.st30{fill:#ADCBF9;}
	.st31{fill:url(#SVGID_19_);}
	.st32{fill:url(#SVGID_20_);}
	.st33{fill:url(#SVGID_21_);}
	.st34{fill:#ED975D;}
	.st35{fill:url(#SVGID_22_);}
	.st36{fill:#EBF3FF;}
	.st37{opacity:0.1;enable-background:new    ;}
	.st38{fill:url(#SVGID_23_);}
	.st39{fill:#ED7D2B;}
	.st40{fill:#F99746;}
	.st41{opacity:0.5;fill:#B589B6;enable-background:new    ;}
</style>
<title>Asset 23</title>
<g>
	<g id="Layer_2_1_">
		<g id="Layer_1-2">
			
				<linearGradient id="SVGID_1_" gradientUnits="userSpaceOnUse" x1="7.5297" y1="220.3967" x2="789.8282" y2="220.3967" gradientTransform="matrix(1 0 0 -1 0 438)">
				<stop  offset="0" style="stop-color:#FF736B;stop-opacity:0.5"/>
				<stop  offset="0.51" style="stop-color:#FF4A66"/>
				<stop  offset="0.77" style="stop-color:#FF3563"/>
				<stop  offset="1" style="stop-color:#FF2260"/>
			</linearGradient>
			<path class="st0" d="M55.5,434.1c0,0-96.1-103.2-16.3-214.9c70.8-99.1,153.5-92.3,214.1-52.1c25.8,17.1,100.2,2.1,163.6-98.8
				c86.4-137.5,385.8-54.1,331.2,157.5c-26.4,102.4,80.4,106.1,26,208.5L55.5,434.1z"/>
			<polygon class="st1" points="331.8,26.3 378.5,33 347.5,11.9 345.9,18.6 334.6,20.7 			"/>
			<polygon class="st2" points="378.5,33 339.6,13 301.6,11.1 			"/>
			<polygon class="st2" points="347.5,11.9 378.5,33 354.5,0 			"/>
			<g class="st3">
				<path class="st4" d="M592.6,118.3l-11.7,8.4l-11.8-8.3c4.6-6.5,13.6-8.1,20.1-3.5C590.5,115.9,591.7,117,592.6,118.3
					L592.6,118.3z"/>
				<path class="st4" d="M580.9,91.8c-11.4,0-22,5.5-28.5,14.8l7.5,5.2c8.2-11.6,24.3-14.4,35.9-6.2c2.4,1.7,4.4,3.7,6.1,6.1
					l7.4-5.3C602.7,97.2,592.2,91.8,580.9,91.8z"/>
				<path class="st4" d="M580.9,52.8c-24,0-46.6,11.7-60.4,31.4l7.5,5.2c20.6-29.2,61-36.2,90.2-15.6c5.9,4.2,11.1,9.3,15.3,15.2
					l7.4-5.3C627.1,64.3,604.7,52.8,580.9,52.8z"/>
				<path class="st4" d="M580.9,74.1c-17.1,0-33.2,8.3-43.1,22.3l7.4,5.2c14-19.7,41.4-24.3,61-10.2c3.9,2.8,7.2,6.1,10,9.9l7.4-5.3
					C613.8,82.3,597.9,74.1,580.9,74.1z"/>
			</g>
			
				<linearGradient id="SVGID_2_" gradientUnits="userSpaceOnUse" x1="-4.163824e-02" y1="296.5661" x2="340.0174" y2="296.5661" gradientTransform="matrix(1 0 0 -1 0 438)">
				<stop  offset="0" style="stop-color:#00F0FF"/>
				<stop  offset="1" style="stop-color:#553EFF"/>
			</linearGradient>
			<path class="st5" d="M337.5,169.4l-10.8-0.2c3.5,4.5,4.2,8.6,2.1,12.1s-7.3,6.5-15,8.7C340.6,118,304,38,232,11.2
				c-35.3-13.1-74.5-11.4-108.5,4.9l0,0c-6-1.8-11.8-3.3-17.4-4.4C77.8,6,57.7,9.9,49.5,22.9C41.7,35.2,46,53.8,61.4,75.5l0,0
				c-3.6,6.8-6.7,13.9-9.2,21.2c-29,1.7-44.5,6.8-50.2,16.1c-6.6,10.8,2.4,25.2,31.1,39.2c4,1.9,8.2,3.9,12.6,5.8
				c9,76.2,78.1,130.7,154.3,121.7c49.1-5.8,91.4-37.2,111.1-82.6c14.1-2.9,23.5-7.5,27.2-13.6C340.9,179,340.5,174.4,337.5,169.4z
				 M304.4,192.2c-11.5,1.9-23.2,2.8-34.9,2.8c-21.3,0.3-45.7-1.4-71.5-4.8c2.2-4.7,4.3-9.6,6.4-14.5c7.6,2.6,15.3,4.7,23.1,6.3
				c7.6,1.6,15.3,2.5,23.1,2.6c16.2,0,27.8-4.7,33.5-13.8c0.9-1.5,1.7-3.1,2.3-4.8h-8.3c-0.1,0.3-0.3,0.5-0.4,0.8
				c-4.2,6.7-13.7,10.3-27.1,10.3c-7.3-0.1-14.5-0.9-21.6-2.5c-7.4-1.5-14.7-3.5-21.8-5.9c2-5,3.9-10,5.8-15.2
				c5-13.9,9.3-27.6,12.8-40.8c28.2,4.2,57.7,4.3,86,2.2c1.8,8.8,2.7,17.7,2.7,26.6C314.6,158.8,311.1,176.1,304.4,192.2z
				 M132.5,261c-4-1.5-6-7.2-7-11.8c-1.6-7.2-1.9-17.4-0.8-29.4c0.5-6.1,1.4-12.5,2.5-19.2c16.6,4.4,32.8,10,48.6,16.8
				c-3.6,6.2-7.2,11.9-10.8,17c-6.9,9.9-13.6,17.5-19.5,22C141.7,259.4,136.5,262.5,132.5,261z M179.3,211
				c-16.5-7.1-33.5-13-50.9-17.6c0.6-3.1,1.3-6.3,2-9.6c4.8,1.1,9.7,2.1,14.6,3.2c14.4,2.9,28.8,5.4,42.8,7.5
				C185.1,200.2,182.2,205.7,179.3,211z M148.2,181.8c-5.6-1.1-11-2.3-16.4-3.6c2.5-10.6,5.6-21.6,9.3-32.8
				c17.8,11.1,36.7,20.4,56.4,27.8c-2.3,5.5-4.6,10.8-7,15.9C176.5,187.1,162.4,184.7,148.2,181.8L148.2,181.8z M102,39.2
				c10.5,21.5,30.8,39.3,52.6,51.1c-5.3,11.5-10.3,23.8-14.9,36.6c-0.9,2.4-1.7,4.8-2.5,7.1c-27.6-18-51-38.6-66.4-58.6l0,0
				C78.9,61.5,89.5,49.3,102,39.2z M220.1,19.3c4,1.5,6,7.2,7,11.8c1.6,7.2,1.9,17.4,0.8,29.4c-1.4,14.8-4,29.5-7.7,43.9
				c-19.2-3.3-38.4-8.8-56.1-17.3c6.7-14.3,14.6-28.1,23.5-41.2c6.9-9.9,13.6-17.5,19.5-22c3-2.4,7.2-4.9,10.8-4.9
				C218.7,18.9,219.4,19,220.1,19.3z M218.5,111.5c-3.4,12.8-7.6,26.1-12.4,39.5c-1.9,5.2-3.8,10.3-5.8,15.3
				c-19.8-7.5-38.9-16.9-56.8-28.2c1-2.9,2-5.8,3.1-8.7c4.5-12.5,9.4-24.5,14.6-35.7C179.1,102.4,198.6,108,218.5,111.5L218.5,111.5
				z M276.2,48.9c16.3,16.2,28,36.5,33.9,58.7c-30.2,2.2-57.8,1.5-82.5-2.1c3.7-14.6,6.3-29.4,7.7-44.4c1.3-14.7,1.1-32.1-4.8-41.9
				C247.7,25.7,263.3,35.9,276.2,48.9z M183.7,10.5c9,0,17.9,0.9,26.7,2.7c-10.3,4.5-20.8,16.9-28.7,28.3c-9.1,13.3-17.1,27.4-24,42
				c-20.7-11.3-40.3-28.6-49.7-48.9C130.1,19,156.6,10.5,183.7,10.5z M55.9,26.9c4.3-6.8,13.8-10.2,27.1-10.2
				c7.3,0.1,14.5,0.9,21.6,2.4c3,0.6,6.1,1.3,9.3,2.2l0,0c-19.7,11.5-36.3,27.6-48.3,47l0,0C53.8,50.7,50.2,35.9,55.9,26.9z
				 M66.8,82.6L66.8,82.6c16.2,20.2,40,40.8,67.8,58.8c-4,12-7.3,23.8-10,35.1c-23.1-5.6-49.9-13.5-71.1-22.5
				C51.1,129.4,55.7,104.6,66.8,82.6L66.8,82.6z M39.5,147.8c-25-12.2-36.4-24-31.3-32.3c4.1-6.8,19.1-11.3,42.1-13
				c-4.5,15.6-6.3,31.8-5.3,48C43.2,149.5,41.3,148.6,39.5,147.8z M123.3,182.1c-0.7,3.2-1.4,6.3-2,9.4c-1.6-0.4-3.2-0.8-4.8-1.1
				c-27.1-6.2-47.4-7.4-56.9-7.6c-2.3-7-4.1-14.3-5.2-21.6C72.9,168.3,93.7,175.1,123.3,182.1z M62.3,190.2
				c17.7,0.9,35.3,3.3,52.6,7.4c1.7,0.4,3.4,0.8,5.1,1.2c-1.2,7.2-2.1,14-2.7,20.4c-1.1,12.2-1.1,26.2,2.3,36.3
				C93.6,240.8,73.4,217.8,62.3,190.2L62.3,190.2z M144.1,266.2c9.7-5.1,19.4-16.7,26.9-27.5c3.9-5.5,7.7-11.7,11.5-18.3
				c22.1,10,43.2,22.2,63,36.4C214.3,273.5,177.7,276.9,144.1,266.2z M276.2,234c-7.2,7.2-15.2,13.5-23.8,18.9
				c-20.7-15.2-43-28.2-66.3-38.9c3.2-5.8,6.3-12,9.4-18.5c20,2.7,40.1,4.4,60.3,4.9c4.9,0.1,9.6,0.1,14.2,0.1
				c10.5,0,21.1-0.7,31.5-2.1C295.1,211.7,286.6,223.7,276.2,234z"/>
			
				<linearGradient id="SVGID_3_" gradientUnits="userSpaceOnUse" x1="253.8433" y1="126.85" x2="356.45" y2="126.85" gradientTransform="matrix(1 0 0 -1 0 438)">
				<stop  offset="0" style="stop-color:#423EFF"/>
				<stop  offset="1" style="stop-color:#FE3EFF"/>
			</linearGradient>
			<path class="st6" d="M273.3,191.1L254,419.5c0,0-2,13.8,8.3,13.9c16.9,0,84.3,0,84.3,0s-12.7-2.9-12.6-9.4
				c0.2-7.6,22.5-235.1,22.5-235.1L273.3,191.1z"/>
			
				<linearGradient id="SVGID_4_" gradientUnits="userSpaceOnUse" x1="310.743" y1="-8.96" x2="310.743" y2="70.91" gradientTransform="matrix(1 0 0 -1 0 438)">
				<stop  offset="0" style="stop-color:#FE3EFF"/>
				<stop  offset="1" style="stop-color:#423EFF"/>
			</linearGradient>
			<path class="st7" d="M352.1,429.2c-3.3,0-67.7,0.2-84.1,0c-7.2-0.1-8.5-6.4-8.5-10.5c0-1.1,0.1-2.3,0.2-3.4l0.5-5.9l1.3-15.1
				l1.1-13.4l1.5-17.2l1.2-14.5L278.9,187l83.2-2.2c0,0-9.4,95.2-16,164.4c-0.7,7.7-1.5,15.1-2.1,22c-0.2,2.2-0.4,4.4-0.6,6.5
				c-0.6,6.5-1.2,12.6-1.7,17.9c-0.3,2.8-0.5,5.4-0.7,7.8c-0.9,9.4-1.3,15.3-1.4,16.5c0,0.6,0,1.2,0.2,1.9
				C341.1,429,350.8,429.2,352.1,429.2z"/>
			
				<linearGradient id="SVGID_5_" gradientUnits="userSpaceOnUse" x1="71.15" y1="220.585" x2="551.02" y2="220.585" gradientTransform="matrix(1 0 0 -1 0 438)">
				<stop  offset="0" style="stop-color:#FE3EFF"/>
				<stop  offset="1" style="stop-color:#423EFF"/>
			</linearGradient>
			<polygon class="st8" points="71.2,66.8 117.9,254.8 124.3,280.5 146.1,368 551,368 470.7,66.8 			"/>
			
				<linearGradient id="SVGID_6_" gradientUnits="userSpaceOnUse" x1="64.66" y1="217.315" x2="146.14" y2="217.315" gradientTransform="matrix(1 0 0 -1 0 438)">
				<stop  offset="0" style="stop-color:#FE3EFF"/>
				<stop  offset="1" style="stop-color:#423EFF"/>
			</linearGradient>
			<polygon class="st9" points="71.2,66.8 64.7,69 137.5,374.6 146.1,368 			"/>
			
				<linearGradient id="SVGID_7_" gradientUnits="userSpaceOnUse" x1="137.52" y1="66.695" x2="551.01" y2="66.695" gradientTransform="matrix(1 0 0 -1 0 438)">
				<stop  offset="0" style="stop-color:#423EFF"/>
				<stop  offset="1" style="stop-color:#FE3EFF"/>
			</linearGradient>
			<polygon class="st10" points="137.5,374.6 539.9,374.6 551,368 146.1,368 			"/>
			
				<linearGradient id="SVGID_8_" gradientUnits="userSpaceOnUse" x1="278.83" y1="6.61" x2="365.95" y2="6.61" gradientTransform="matrix(1 0 0 -1 0 438)">
				<stop  offset="0" style="stop-color:#FE3EFF"/>
				<stop  offset="1" style="stop-color:#423EFF"/>
			</linearGradient>
			<rect x="278.8" y="429.3" class="st11" width="87.1" height="4.1"/>
			<polygon class="st12" points="531.4,312.5 465.7,70.8 70.5,70.8 70.5,66.8 470.7,66.8 536.2,312 			"/>
			<polygon class="st13" points="343.8,374.6 343.4,377.7 261.4,394.3 262.5,380.9 263.1,374.6 			"/>
			<path class="st13" d="M352.1,429.2c-3.3,0-67.7,0.2-84.1,0c-7.2-0.1-8.5-6.4-8.5-10.5l81.6-15.4c-0.9,9.4-1.3,15.3-1.4,16.5
				c0,0.6,0,1.2,0.2,1.9C341.1,429,350.8,429.2,352.1,429.2z"/>
			<polygon class="st14" points="324,307 146.1,368 124.3,280.5 			"/>
			
				<linearGradient id="SVGID_9_" gradientUnits="userSpaceOnUse" x1="604.7097" y1="-13.7305" x2="-24.3104" y2="531.0496" gradientTransform="matrix(1 0 0 -1 0 438)">
				<stop  offset="0" style="stop-color:#FE3EFF"/>
				<stop  offset="1" style="stop-color:#423EFF"/>
			</linearGradient>
			<polygon class="st15" points="71.2,66.8 470.7,66.8 535.5,308.9 129.4,308.9 			"/>
			
				<linearGradient id="SVGID_10_" gradientUnits="userSpaceOnUse" x1="337.6077" y1="98.5" x2="359.5123" y2="98.5" gradientTransform="matrix(1 0 0 -1 0 438)">
				<stop  offset="0" style="stop-color:#FE3EFF"/>
				<stop  offset="1" style="stop-color:#423EFF"/>
			</linearGradient>
			<path class="st16" d="M359.3,339.5c-1.3-6.1-6.6-10.5-12.8-10.8c-5.9,0-9.8,4.8-8.7,10.8c1.3,6.1,6.6,10.5,12.8,10.8
				C356.6,350.3,360.5,345.4,359.3,339.5z"/>
			<polygon class="st17" points="516.7,298.4 142.6,298.4 100.2,129.6 97,116.7 94.2,105.7 92,96.8 87.7,79.8 456.4,79.8 
				456.7,80.7 461.1,96.8 463.5,105.7 466.6,116.7 470.1,129.6 			"/>
			<polygon class="st17" points="516.7,299 142.6,299 100.2,130.2 97,117.3 94.2,106.2 92,97.4 87.7,80.3 456.4,80.3 456.7,81.3 
				461.1,97.4 463.5,106.2 466.6,117.3 470.1,130.2 			"/>
			
				<linearGradient id="SVGID_11_" gradientUnits="userSpaceOnUse" x1="87.7" y1="349.705" x2="461.1" y2="349.705" gradientTransform="matrix(1 0 0 -1 0 438)">
				<stop  offset="0" style="stop-color:#553EFF;stop-opacity:0.2"/>
				<stop  offset="1" style="stop-color:#00F0FF"/>
			</linearGradient>
			<polygon class="st18" points="461.1,96.8 92,96.8 87.7,79.8 456.3,79.8 456.7,80.7 			"/>
			<path class="st17" d="M98,88.3c-0.4-1.3,0.3-2.7,1.5-3.1c0.3-0.1,0.6-0.1,0.9-0.1c1.9,0.1,3.5,1.4,4.1,3.2
				c0.4,1.3-0.2,2.7-1.5,3.1c-0.3,0.1-0.6,0.1-1,0.1C100.1,91.4,98.5,90.1,98,88.3z"/>
			
				<ellipse transform="matrix(0.662 -0.7495 0.7495 0.662 -28.3395 113.7462)" class="st17" cx="111.9" cy="88.3" rx="2.9" ry="3.7"/>
			<path class="st17" d="M120.3,88.3c-0.4-1.3,0.3-2.7,1.5-3.1c0.3-0.1,0.6-0.1,0.9-0.1c1.9,0.1,3.5,1.4,4.1,3.2
				c0.4,1.3-0.2,2.7-1.5,3.1c-0.3,0.1-0.6,0.1-0.9,0.1C122.4,91.4,120.8,90.1,120.3,88.3z"/>
			
				<linearGradient id="SVGID_12_" gradientUnits="userSpaceOnUse" x1="219.32" y1="208.89" x2="259.11" y2="208.89" gradientTransform="matrix(1 0 0 -1 0 438)">
				<stop  offset="0" style="stop-color:#FE3EFF"/>
				<stop  offset="1" style="stop-color:#423EFF"/>
			</linearGradient>
			<path class="st19" d="M259.1,299h-37c-0.4-2.9-0.7-5.9-0.9-9.1c-0.5-5.7-0.9-11.9-1.2-18.3c-0.1-1.5-0.1-3-0.2-4.5
				c-0.1-1.9-0.1-3.8-0.2-5.8c-0.1-3.3-0.2-6.6-0.2-10l0,0c-0.1-4.3-0.1-8.6-0.1-12.9l0,0v-3.2l0,0v-3c0-9.2,0.2-18.3,0.4-26.7
				c0.4-18.6,1.1-34.1,1.5-41.6l0,0c0.1-3.1,0.3-4.8,0.3-4.8l0,0c0.1,0,0.6,0.1,1.5,0.3c0.6,0.2,1.5,0.4,2.4,0.7l0,0
				c0.9,0.3,1.8,0.6,2.8,0.9l0,0c1.8,0.7,3.5,1.5,5.1,2.5h0.1c2.8,1.7,5.3,4,6.4,7c1,2.6,3.3,16.3,6,34.4c0.1,0.5,0.1,1,0.2,1.6
				c1.5,9.7,3,20.5,4.6,31.6c1.7,11.7,3.4,23.7,4.9,34.8C256.9,282.6,258.1,291.5,259.1,299z"/>
			<path class="st20" d="M248.8,299h-43.1c-0.8-3.5-1.6-7-2.3-10.2c-1.9-8.9-3.1-16.1-3.1-20c0-1.7,0.7-3.2,1.9-4.4
				c0.9-0.8,2-1.4,3.1-1.8c3.6-1.4,8.9-1.6,14.3-1.3c1.9,0.1,3.7,0.3,5.6,0.5c6.7,0.8,13.3,2.1,19.8,3.8c0,0,0.6,2.6,1.4,7.1
				c0.6,3.4,1.2,7.8,1.7,13.1c0.3,3,0.5,6.4,0.6,9.9C248.7,296.8,248.7,297.9,248.8,299z"/>
			<path class="st21" d="M228.9,268.8l-0.4,3.1l-2.1,15.1l-0.4,2.6l-1.3,9.4h-44.9c-0.4-6.2-0.7-12.2-0.7-17.5c0-0.6,0-1.2,0-1.7
				c0-7.9,0.7-13.8,3-15.3c2.6-1.7,11.1-1.2,20.2-0.1l2.7,0.4c5.3,0.7,10.6,1.6,14.9,2.4c2.2,0.4,4.1,0.8,5.6,1L228.9,268.8z"/>
			<path class="st4" d="M179.1,167c0,0,24.6-15.9,42.3-7.8c2.8,1.3,6,4.9,8.3,7.5c6.4,7,18.9,118.9,18.9,118.9s-35.4,12-69.5-4.1
				V167z"/>
			
				<linearGradient id="SVGID_13_" gradientUnits="userSpaceOnUse" x1="230.8768" y1="289.8391" x2="270.8968" y2="138.8991" gradientTransform="matrix(1 0 0 -1 0 438)">
				<stop  offset="0" style="stop-color:#FF736B"/>
				<stop  offset="1" style="stop-color:#FF2260"/>
			</linearGradient>
			<path class="st22" d="M222.8,158.8c0,0,25,10.2,28.3,18.1s14.4,56.1,14.4,61.8s-19.1,1.3-22.2-7.9c-2.6-7.6-11.2-30.9-15.7-45.6
				L222.8,158.8z"/>
			<path class="st23" d="M217.6,166.6c-6.7,1.1-13.6-0.3-19.3-3.9c2-4.6,3.4-9.5,4.1-14.5c0-0.2,0-0.3,0.1-0.5
				c0.1-1.1,0.2-2.2,0.1-3.3h14.1c0,0,3.9,1.8,3.9,3c0,0.6,0,1.3,0,1.9c0,1.6,0.1,3,0.2,4.2c0.1,2,0.3,3.9,0.7,5.8
				C221.4,159.2,223.1,165.5,217.6,166.6z"/>
			<path class="st24" d="M220.7,153.4c-10.7,2.1-16.9-3.8-18.3-5.3c-0.2-0.2-0.3-0.3-0.3-0.3l0.4-0.2c4-1.6,13-0.3,18,1.5
				C220.6,150.8,220.6,152.2,220.7,153.4z"/>
			<path class="st23" d="M199,142c1.9,10.3,15.1,9.9,20.9,9.3c1.6-0.2,2.6-0.4,2.6-0.4c1.8-0.5,2.8-3.3,3.3-7.1
				c0.9-7.4-0.2-18.3-1.5-21.1c-1.9-4.2-5.4-8.7-18.8-5.4S196.5,128.8,199,142z"/>
			<path class="st20" d="M224.8,117c-1.8-2.5-5.7-5.6-9.2-7.5c-7.5-4.1-17.2,0.1-17.2,0.2c-10.9,4.8-13.7,13.1-8,26.1
				c6.1,13.7,11.9,12.2,11.9,12.2s-1.2-0.8-1.1-5c0-0.3,0-0.4,0-0.6c0.1-0.9-0.3-1.7-0.9-2.3c-1.4-1.2-2-4.9-0.9-5.9
				c1.4-1.2,3.3,0.3,3.9,1.4c0.5,0.8,1.5,1.1,2.3,0.6c0,0,0.1,0,0.1-0.1c3.4-2.1,1.2-6.4,4.4-9.1s9.8-0.4,14.7-2.5
				C231.2,122,226.1,118.9,224.8,117z"/>
			
				<linearGradient id="SVGID_14_" gradientUnits="userSpaceOnUse" x1="170.5508" y1="273.8476" x2="210.5708" y2="122.9075" gradientTransform="matrix(1 0 0 -1 0 438)">
				<stop  offset="0" style="stop-color:#FF736B"/>
				<stop  offset="1" style="stop-color:#FF2260"/>
			</linearGradient>
			<path class="st25" d="M226.5,299h-53.7c0.4-11.1,0.9-24.4,1.4-37.9c0.1-3.5,0.3-7,0.4-10.5c0.1-1.5,0.1-2.9,0.2-4.4
				c1.2-29.9,2.4-56.9,2.6-58.3c0.6-3.3,1.1-6.1,1.7-8.5c1.7-7.1,3.8-11,8.4-14.3c0.4-0.3,4.1-2.2,7.3-3.8c2.6-1.3,5-2.4,5-2.5l0,0
				c0.8,0.5,1.4,1.3,1.7,2.1c0.7,1.4,1.4,2.8,1.9,4.3c2.7,7.6,5,15.3,6.9,23.1l0,0l0,0c1.2,4.6,2,8.3,2.3,9.3
				c0.4,1.8,0.9,5.1,1.6,9.7l0,0c0.9,6.3,1.9,14.8,3,24.4l0,0c0.1,1,0.2,2,0.3,3l0.4,3.5l0,0c0.1,0.4,0.1,0.8,0.1,1.1l0,0
				c0.4,3.8,0.8,7.8,1.3,11.8l0,0c0.4,3.3,5.4,5.7,5.7,9.1c0,0.3,0.1,0.7,0.1,1.4c0.1,1.4,0.1,3.7,0.2,6.3c0,1.2,0.1,2.4,0.1,3.7
				c0.2,5.6,0.4,11.7,0.7,14.7c0,0.1,0,0.3,0,0.5c0,0.6,0,1.5,0.1,2.5C226.5,291.9,226.5,295.2,226.5,299z"/>
			<path class="st13" d="M187.9,194.5c0,0.1,1.2,35.7,23.9,39.4s7.6,4.6,7.6,4.6s-42.7-1.8-43.4-2.9S187.9,194.5,187.9,194.5z"/>
			<path class="st13" d="M209.1,246.8c0,0-0.4,0.3-1.3,0.8l0,0c-8.9,5.5-18.6,9.6-28.7,12.3c-1.6,0.4-3.2,0.8-4.9,1.2
				c0.1-3.5,0.3-7,0.4-10.5c-1.9-0.1-3.8-0.4-5.6-0.8l0.2-1.4c1.9-0.8,3.8-1.5,5.6-2.3c1.5-0.6,2.9-1.1,4.3-1.6
				c6.1-2.3,10.7-3.9,10.7-3.9l18.2,5.8L209.1,246.8z"/>
			
				<linearGradient id="SVGID_15_" gradientUnits="userSpaceOnUse" x1="154.9751" y1="233.1478" x2="213.87" y2="233.1478" gradientTransform="matrix(1 0 0 -1 0 438)">
				<stop  offset="0" style="stop-color:#FF736B"/>
				<stop  offset="1" style="stop-color:#FF2260"/>
			</linearGradient>
			<path class="st26" d="M213.9,246.3c0,0-2.3,0.6-6.1,1.3l0,0c-6.9,1.4-18.4,3.3-28.7,3.2c-1.5,0-3-0.1-4.5-0.2
				c-1.9-0.1-3.8-0.4-5.6-0.8c-3.8-0.8-6.9-2.1-9-4.2c-15.3-15.6,8.4-71.6,13.3-77c5.8-6.4,16.4-8.6,22.3-9.4l0.7-0.1
				c2.1-0.2,3.4-0.3,3.4-0.3l0,0l-1.2,4c-0.3,1-0.6,2.1-1,3.3C194,178,187,201.1,184,214.2c-1.1,4.8-1.7,8.2-1.4,9.2
				c1.2,4.4,13.6,6.8,21.4,7.8c3.3,0.4,5.8,0.6,6.3,0.7h0.1l0.4,1.9l1.1,4.5l1.1,4.4L213.9,246.3z"/>
			
				<linearGradient id="SVGID_16_" gradientUnits="userSpaceOnUse" x1="235.615" y1="241.67" x2="235.615" y2="139.15" gradientTransform="matrix(1 0 0 -1 0 438)">
				<stop  offset="0" style="stop-color:#00F0FF"/>
				<stop  offset="1" style="stop-color:#553EFF"/>
			</linearGradient>
			<polygon class="st27" points="256.6,273.1 204,270.9 214.7,205.4 267.3,207.6 			"/>
			<path class="st23" d="M210.4,231.8c0,0,10.2-0.7,10.8,1.7c1.2,5.6-8.8,10.1-12,9.8S208,231.4,210.4,231.8z"/>
			<path class="st23" d="M264.4,220.9c0,0-9.8-3.1-10.9-0.9c-2.4,5.1,6.2,11.9,9.5,12.3S266.8,221.1,264.4,220.9z"/>
			
				<linearGradient id="SVGID_17_" gradientUnits="userSpaceOnUse" x1="194.41" y1="266.0241" x2="210.44" y2="266.0241" gradientTransform="matrix(1 0 0 -1 0 438)">
				<stop  offset="0" style="stop-color:#FE3EFF"/>
				<stop  offset="1" style="stop-color:#423EFF"/>
			</linearGradient>
			<path class="st28" d="M200.9,155.6c0,0-4.3,2.1-6.5,5.2c0,0,16.1,27.9,16,27.7S205,159.1,200.9,155.6z"/>
			
				<linearGradient id="SVGID_18_" gradientUnits="userSpaceOnUse" x1="220.93" y1="267.365" x2="227.6" y2="267.365" gradientTransform="matrix(1 0 0 -1 0 438)">
				<stop  offset="0" style="stop-color:#FE3EFF"/>
				<stop  offset="1" style="stop-color:#423EFF"/>
			</linearGradient>
			<path class="st29" d="M220.9,156c2,1.1,3.7,2.8,4.8,4.9l1.9,24.4c0,0-4.1-17.9-6.2-26C221.1,158.2,221,157.1,220.9,156z"/>
			<path class="st21" d="M232.1,206.1c0.4-1.2,1.6-1.9,2.8-1.6c2.4,0.2,15.9,0.9,15.9,0.9s2.6-0.1,2.4,1.6L232.1,206.1z"/>
			<path class="st4" d="M216.7,144.3c1.3,1,3,1.4,4.6,1.1c1.7-0.3,2.6-2.5,2.6-2.5C221.4,142.7,218.9,143.2,216.7,144.3z"/>
			<polygon class="st4" points="465.9,164.7 427,164.8 414.5,116.6 453.3,116.5 			"/>
			<polygon class="st30" points="443.7,122.8 427.4,122.9 427.2,122.2 443.5,122.1 			"/>
			<polygon class="st30" points="446.3,124.8 425.8,124.9 425.6,124.2 446.1,124.1 			"/>
			<polygon class="st30" points="451.9,134.6 425.3,134.7 425.1,134 451.7,133.9 			"/>
			<polygon class="st30" points="452.5,137 425.9,137.1 425.8,136.3 452.3,136.2 			"/>
			<polygon class="st30" points="453.1,139.3 426.5,139.4 426.4,138.7 452.9,138.6 			"/>
			<polygon class="st30" points="453.7,141.7 427.2,141.8 427,141 453.5,140.9 			"/>
			<polygon class="st30" points="454.4,144 427.8,144.1 427.6,143.4 454.2,143.3 			"/>
			<polygon class="st30" points="455.9,149.7 429.3,149.8 429.1,149.1 455.7,149 			"/>
			<polygon class="st30" points="456.5,152.1 429.9,152.2 429.7,151.5 456.3,151.4 			"/>
			<polygon class="st30" points="457.1,154.4 430.5,154.5 430.3,153.8 456.9,153.7 			"/>
			<polygon class="st30" points="457.7,156.8 431.1,156.9 430.9,156.2 457.5,156.1 			"/>
			<polygon class="st30" points="458.3,159.1 431.7,159.2 431.5,158.5 458.1,158.4 			"/>
			<polygon class="st4" points="481.6,224.6 442.7,224.8 430.1,176.6 469,176.4 			"/>
			<polygon class="st30" points="459.3,182.7 443,182.8 442.9,182.1 459.1,182 			"/>
			<polygon class="st30" points="461.9,184.7 441.5,184.8 441.3,184.1 461.7,184 			"/>
			<polygon class="st30" points="467.5,194.5 441,194.6 440.8,193.9 467.4,193.8 			"/>
			<polygon class="st30" points="468.2,196.9 441.6,197 441.4,196.3 468,196.2 			"/>
			<polygon class="st30" points="468.8,199.3 442.2,199.3 442,198.6 468.6,198.5 			"/>
			<polygon class="st30" points="469.4,201.6 442.8,201.7 442.6,201 469.2,200.9 			"/>
			<polygon class="st30" points="470,203.9 443.4,204.1 443.3,203.3 469.8,203.2 			"/>
			<polygon class="st30" points="471.5,209.7 444.9,209.8 444.8,209.1 471.3,209 			"/>
			<polygon class="st30" points="472.1,212 445.5,212.1 445.4,211.4 471.9,211.3 			"/>
			<polygon class="st30" points="472.7,214.4 446.2,214.5 446,213.8 472.5,213.7 			"/>
			<polygon class="st30" points="473.3,216.7 446.8,216.8 446.6,216.1 473.2,216 			"/>
			<polygon class="st30" points="474,219.1 447.4,219.2 447.2,218.5 473.8,218.4 			"/>
			<polygon class="st4" points="497.3,285 458.5,285.1 445.9,236.9 484.7,236.8 			"/>
			<polygon class="st30" points="475.1,243.1 458.8,243.1 458.6,242.4 474.9,242.4 			"/>
			<polygon class="st30" points="477.7,245.1 457.2,245.1 457,244.4 477.5,244.4 			"/>
			<polygon class="st30" points="483.3,254.9 456.7,255 456.6,254.3 483.1,254.2 			"/>
			<polygon class="st30" points="483.9,257.2 457.4,257.3 457.2,256.6 483.7,256.5 			"/>
			<polygon class="st30" points="484.5,259.6 458,259.7 457.8,259 484.4,258.9 			"/>
			<polygon class="st30" points="485.1,261.9 458.6,262 458.4,261.3 485,261.2 			"/>
			<polygon class="st30" points="485.8,264.3 459.2,264.4 459,263.7 485.6,263.6 			"/>
			<polygon class="st30" points="487.3,270 460.7,270.1 460.5,269.4 487.1,269.3 			"/>
			<polygon class="st30" points="487.9,272.4 461.3,272.5 461.1,271.8 487.7,271.6 			"/>
			<polygon class="st30" points="488.5,274.7 461.9,274.8 461.7,274.1 488.3,274 			"/>
			<polygon class="st30" points="489.1,277.1 462.5,277.2 462.4,276.5 488.9,276.4 			"/>
			<polygon class="st30" points="489.7,279.4 463.1,279.5 463,278.8 489.5,278.7 			"/>
			<polygon class="st4" points="446.2,285.4 310.3,285.9 271.2,136.2 288.9,117.1 402.2,116.7 			"/>
			<polygon class="st30" points="364.7,142 316.8,142.2 316.3,140.1 364.2,139.9 			"/>
			<linearGradient id="SVGID_19_" gradientUnits="userSpaceOnUse" x1="692.8193" y1="321.1176" x2="692.8193" y2="432.1366">
				<stop  offset="0" style="stop-color:#FF736B"/>
				<stop  offset="1" style="stop-color:#FF2260"/>
			</linearGradient>
			<path class="st31" d="M612.9,319.2h155.3c2.5,0,4.5,2,4.5,4.5v109.8H612.9V319.2z"/>
			<polygon class="st30" points="372.4,147.8 312.3,148 311.7,145.9 371.8,145.7 			"/>
			<polygon class="st30" points="388.9,176.7 310.8,177 310.3,174.9 388.4,174.6 			"/>
			<polygon class="st30" points="390.7,183.6 312.6,183.9 312.1,181.8 390.2,181.5 			"/>
			<polygon class="st30" points="392.5,190.5 314.4,190.8 313.9,188.7 392,188.4 			"/>
			<polygon class="st30" points="394.3,197.4 316.2,197.7 315.7,195.6 393.8,195.3 			"/>
			<polygon class="st30" points="396.1,204.3 318,204.6 317.5,202.5 395.6,202.2 			"/>
			<polygon class="st30" points="400.5,221.1 322.4,221.4 321.9,219.3 400,219.1 			"/>
			<linearGradient id="SVGID_20_" gradientUnits="userSpaceOnUse" x1="598.6879" y1="433.1176" x2="598.6879" y2="329.4343">
				<stop  offset="0" style="stop-color:#FF736B"/>
				<stop  offset="1" style="stop-color:#FF2260"/>
			</linearGradient>
			<path class="st32" d="M665.2,319.2H542.5c-5.7,0-10.4,4.7-10.4,10.4v103.8h133.1V319.2z"/>
			<polygon class="st30" points="402.3,228.1 324.2,228.4 323.7,226.3 401.8,226 			"/>
			<polygon class="st30" points="404.1,235 326,235.3 325.5,233.2 403.6,232.9 			"/>
			<polygon class="st30" points="406,241.9 327.9,242.2 327.3,240.1 405.4,239.8 			"/>
			<polygon class="st30" points="407.8,248.8 329.6,249.1 329.1,247 407.2,246.7 			"/>
			<polygon class="st30" points="271.2,136.2 293.9,136.1 288.9,117.1 			"/>
			<path class="st20" d="M613.7,302.6c6.9,12,15.5,16.6,15.5,16.6h36C665.2,319.2,608.4,293.5,613.7,302.6z"/>
			<path class="st23" d="M641.4,395.4c0.9,1,1.1,2.4,0.6,3.6l0,0c-0.9,2.4-3.7,5-7,7.7c-0.4,0.3-0.8,0.6-1.1,0.9l-0.3,0.2l-0.2,0.2
				c-3.1,2.8-1.9,3.5-7.4,9.2c-6.3,6.6-10.6,6.7-11.9,6.1c-1-0.5,1.1-4,3.4-7.9c0.1-0.2,0.2-0.4,0.3-0.6c0.3-0.5,0.6-1,0.9-1.6
				c2.8-4.7,2-6.9,1.4-13.9c-0.5-5.7-8.8-31.8-8.8-31.8l12.1-2.1c0,0,3.6,20.8,7.6,24c2.1,1.7,4.5,1.7,6.6,3
				c0.1,0.1,0.3,0.2,0.4,0.3C639.3,393.4,640.4,394.3,641.4,395.4z"/>
			<path class="st20" d="M641.4,395.4c0.9,1,1.1,2.4,0.6,3.6l0,0c-1,2.4-3.8,5-7,7.6c-0.4,0.4-0.8,0.7-1.1,1l-0.3,0.2l-0.2,0.2
				c-3.1,2.8-1.9,3.5-7.4,9.2c-6.3,6.6-10.6,6.7-11.9,6.1c-1-0.5,1.1-4,3.4-7.9c4.4-1.7,8.3-4.6,11.2-8.3c3.8-4.8,6.3-11.1,8.9-14.7
				c0.1,0.1,0.3,0.2,0.4,0.3C639.3,393.5,640.4,394.3,641.4,395.4z"/>
			<path class="st23" d="M544,387.8c-0.8,3.7-6.1,3.1-12,1.6s-4.5,0.3-13-0.7s-11-4.1-11.3-5.3s3.9-1.5,8.4-2l1.7-0.2
				c5.1-0.6,8.8-3.9,13.3-6.6c4.3-2.5,10.8-12.9,10.8-12.9l11.6,0.9c0,0-6,9.3-8.4,13.3c-1.4,2.4-1.3,5.5-1.1,7.9
				C544.2,385.2,544.2,386.5,544,387.8z"/>
			<path class="st20" d="M532,389.5c-5.9-1.5-4.5,0.3-13-0.7s-11-4.1-11.3-5.3s3.9-1.5,8.4-2v0.1c3.6,2.3,7.8,3.6,12.1,3.8
				c5.7,0.1,11.8-1.5,15.8-1.4c0.1,1.3,0.1,2.7-0.1,4C543.3,391.5,537.9,390.9,532,389.5z"/>
			<path class="st20" d="M588.4,313.7l10.8,29.1l14.1,38c2.5,0.2,5.1,0,7.5-0.7c2.6-0.9,5-2.1,7.3-3.5c0,0-3.9-40.9-11.3-64.3
				c-1.9-6-4-10.9-6.3-13.6C599.2,285.4,588.4,313.7,588.4,313.7z"/>
			
				<linearGradient id="SVGID_21_" gradientUnits="userSpaceOnUse" x1="535.41" y1="121.2946" x2="704.1637" y2="121.2946" gradientTransform="matrix(1 0 0 -1 0 438)">
				<stop  offset="0" style="stop-color:#FE3EFF"/>
				<stop  offset="1" style="stop-color:#423EFF"/>
			</linearGradient>
			<path class="st33" d="M599.4,267.5c7.1-2.3,27.3,0.6,47.7,4.6l4.3-7l43.9-3.4c0,0,14.5,32.1,6.5,52.6c-1.2,3-3.5,4.9-7.4,5h-35.3
				c-21.8,0-46.2-15-49.4-15.6c-5.2-1-7.2,9.3-12.4,20.1s-48.5,48-48.5,48s-6.7,0.1-9.4-1c-1.5-0.5-2.9-1.4-4-2.5
				C535.4,368.2,583.4,272.6,599.4,267.5z"/>
			<path class="st20" d="M651.6,204.6c15.6,8.6,47.4,26.4,47.5,26.3c0,0,11.7,4.4,18.3,0c11-7.3,16.9-27-3.2-44
				c-10-8.5-17.2-10.5-18.3-24c-0.6-7.3-10.6-31.5-27.2-29.3c-1.4,0.2-10,0.6-15.6,3.5C638.7,144.7,628.1,201.3,651.6,204.6z"/>
			<path class="st23" d="M664.7,197.3c-0.1,0,7.7,2.7,12.9,0.4c4.9-2.1,8.6-10.2,8.5-10.2c-2.2-0.1-4.7-2.1-6.5-14.8l-0.9,0.3
				l-15.9,5.7c0,0,1.2,5.1,1.9,10C665.2,192.8,665.6,196.7,664.7,197.3z"/>
			<path class="st34" d="M662.7,178.7c0,0,1.2,5.1,1.9,10c9.1-1.6,12.7-10.7,14-15.7L662.7,178.7z"/>
			<path class="st23" d="M660.3,183.8c0,0,21.8-2.9,19.7-16.4s-0.6-23-14.6-21.7s-15.9,6.9-16.3,11.5S654.6,184.2,660.3,183.8z"/>
			<path class="st20" d="M650,149.8c0,0,13.9,12,23.4,13s13.1-2.1,13.1-2.1c-3.8-3.4-6.8-7.5-8.9-12.1c-1-2.2-3.1-3.7-5.5-3.9
				C665.2,144,652.4,143.8,650,149.8z"/>
			<path class="st20" d="M658.7,148.7c0,0-4.7,4.5-6.1,7.9s-1.8,10.9-0.7,14c0,0-7.3-14.1-3.2-21C653,142.3,658.7,148.7,658.7,148.7
				z"/>
			<path class="st4" d="M646.4,229.3c0.7,44,0.2,34.8,5,39c1.2,1,4.4,1.6,8.7,1.9c13.5,0.9,37.2-1.3,38.1-3.8
				c3.1-8.6,0.9-11.3,3.5-24.5c0.3-1.4,0.6-2.9,1-4.6c2.2-9.1,4.3-12.2-3.4-26.8c-7-13.2-14.2-23.9-14.9-23.6
				c-18.4,10.9-19.9,1.7-19.9,1.7S646,207.8,646.4,229.3z"/>
			
				<linearGradient id="SVGID_22_" gradientUnits="userSpaceOnUse" x1="624.3293" y1="47.4098" x2="599.0593" y2="145.6998" gradientTransform="matrix(1 0 0 -1 0 438)">
				<stop  offset="0" style="stop-color:#FE3EFF"/>
				<stop  offset="1" style="stop-color:#423EFF"/>
			</linearGradient>
			<path class="st35" d="M599.2,342.9l14.1,38c2.5,0.2,5.1,0,7.5-0.7c2.6-0.9,5-2.1,7.3-3.5c0,0-3.9-40.9-11.3-64.3L599.2,342.9z"/>
			<path class="st4" d="M664.6,188.7c0,0-18.9,3.2-21.2,11.4s-15.3,56.1-15.3,56.1s9.6,1.7,14.1-2.7s15.5-41.2,15.5-41.2
				L664.6,188.7z"/>
			<path class="st36" d="M660.1,270.2c13.5,0.9,37.2-1.3,38.1-3.8c3.1-8.6,0.9-11.3,3.5-24.5l-6.5-18.3c0,0,1.1,20.4-5,25.8
				s-24.7,10.4-27.6,14.9C661.4,266,660.5,268.1,660.1,270.2z"/>
			<path class="st23" d="M675.6,261.6c0,0-13.3-3-15.5-1.8s-7.4,5.5-8.1,7s4.8-1.1,6.6-1.6c1.2-0.3,4.2,0.7,5.7,1.2
				c6.3,2.1,10.1,1,10.1,1L675.6,261.6z"/>
			<path class="st4" d="M684.5,187c0,0,17.9,1.1,24.1,9.7c8.7,12.1,26,64,16.1,70.9c-11.2,7.8-50.8,2-50.8,2s-1.3-6.2,0.5-9.1
				s31.7-7.8,33-9.2s-17.2-26.9-17.2-31S684.5,187,684.5,187z"/>
			<path class="st37" d="M650,319.2h-23.2l11,68.7l-9.7,26.8l13.8-15.8l2.1-4c0.8-1.6,1.3-3.4,1.5-5.2L650,319.2z"/>
			<path class="st23" d="M659.4,263.6c0,0-2.8,3.6-3.7,4c-0.5,0.2-1,0.4-1.5,0.3l1.9-3.4L659.4,263.6z"/>
			<path class="st23" d="M660.1,259.9l-8.1,3.9c0.3,0.4,0.8,0.6,1.3,0.5c1.2-0.2,2.4-0.6,3.5-1L660.1,259.9z"/>
			
				<linearGradient id="SVGID_23_" gradientUnits="userSpaceOnUse" x1="613.98" y1="206.15" x2="613.98" y2="166.26" gradientTransform="matrix(1 0 0 -1 0 438)">
				<stop  offset="0" style="stop-color:#FF736B"/>
				<stop  offset="1" style="stop-color:#FF2260"/>
			</linearGradient>
			<polygon class="st38" points="655.7,273.1 591.5,273.1 572.2,225.1 636.3,225.1 			"/>
			<polygon class="st39" points="590.8,271.2 675.6,271.2 675.6,273.1 591.5,273.1 			"/>
			<path class="st4" d="M607.7,249.1c-0.5-1.1,0.1-2.4,1.2-2.9c0.3-0.1,0.6-0.2,1-0.2c1.8,0.1,3.4,1.3,3.9,3.1
				c0.5,1.1-0.1,2.4-1.2,2.9c-0.3,0.1-0.6,0.2-1,0.2C609.9,252,608.3,250.8,607.7,249.1z"/>
			<path class="st4" d="M72.3,292l-1.4,1c-1.5,1-3.5,0.6-4.5-0.8c0,0,0,0,0,0l-8-11.5c-1-1.5-0.7-3.5,0.8-4.5l2-1.4
				c0.3-0.1,0.7,0,0.8,0.3c0.1,0.2,0.1,0.5-0.1,0.7l-2,1.4c-0.9,0.6-1.1,1.8-0.5,2.7l8,11.5c0.6,0.9,1.8,1.1,2.7,0.5l1.4-1
				c0.9-0.6,1.1-1.8,0.5-2.7l-5.3-7.6c-0.1-0.3,0-0.7,0.3-0.8c0.2-0.1,0.5-0.1,0.7,0.1l5.3,7.6C74.1,288.9,73.8,290.9,72.3,292
				C72.3,292,72.3,292,72.3,292z"/>
			<path class="st4" d="M81,303.3l-2.4,1.7c-2.4,1.6-5.6,0.9-7.2-1.6l-12-17.3c-0.2-0.3-0.1-0.7,0.2-0.9c0,0,0,0,0,0
				c0.3-0.2,0.7-0.1,0.9,0.2l12,17.3c1.2,1.8,3.6,2.4,5.4,1.3l2.4-1.7c1.7-1.3,2-3.8,0.8-5.5l-13.6-19.7c-1.2-1.8-3.6-2.4-5.4-1.2
				c-0.2,0.3-0.6,0.3-0.9,0c-0.3-0.2-0.3-0.6,0-0.9c0.1-0.1,0.1-0.1,0.2-0.2c2.4-1.6,5.6-0.9,7.2,1.6L82.1,296
				C83.8,298.3,83.3,301.6,81,303.3z"/>
			<path class="st4" d="M97.5,393.4l0.3,2.4c0.3,2.6-1.5,5-4.1,5.3h0l-20.4,2.5c-2.6,0.3-4.9-1.6-5.2-4.1l-0.4-3.5
				c-0.1-0.5,0.2-1,0.7-1.1c0.5-0.1,1,0.2,1.1,0.7c0,0.1,0,0.1,0,0.2l0.4,3.5c0.2,1.6,1.6,2.7,3.2,2.5l20.4-2.5
				c1.6-0.2,2.7-1.6,2.5-3.2c0,0,0,0,0,0l-0.3-2.4c-0.2-1.6-1.6-2.7-3.2-2.5l-13.5,1.6c-0.5,0-0.9-0.3-1-0.8c0-0.5,0.3-0.9,0.8-1
				l13.5-1.6C94.8,389,97.1,390.8,97.5,393.4z"/>
			<path class="st4" d="M118.2,389.8l0.5,4.4c0.4,4.2-2.8,7.9-7,8.3L81,406.2c-0.5,0-0.9-0.4-1-0.9c0-0.5,0.3-0.8,0.7-0.9l30.7-3.7
				c3.2-0.3,5.6-3,5.3-6.2l-0.5-4.4c-0.5-3.2-3.5-5.3-6.7-4.8l-34.9,4.2c-3.2,0.3-5.6,3-5.3,6.2c0,0.5-0.4,0.9-0.9,1
				c-0.5,0-0.8-0.3-0.9-0.7c-0.4-4.2,2.8-7.9,7-8.3l34.9-4.2C113.6,382.8,117.5,385.6,118.2,389.8z"/>
			
				<ellipse transform="matrix(0.2297 -0.9733 0.9733 0.2297 242.763 516.4725)" class="st40" cx="447.7" cy="104.9" rx="2.8" ry="2.8"/>
			<path class="st41" d="M5.2,432.9h824.3c0.5,0,0.8,0.4,0.8,0.9v0.5c0,0.5-0.4,0.9-0.8,0.9H5.2c-0.5,0-0.8-0.4-0.8-0.9v-0.5
				C4.4,433.3,4.7,432.9,5.2,432.9z"/>
		</g>
	</g>
</g>
</svg>
