<?xml version="1.0" encoding="utf-8"?>
<!-- Generator: Adobe Illustrator 24.0.1, SVG Export Plug-In . SVG Version: 6.00 Build 0)  -->
<svg version="1.1" id="Layer_1" xmlns="http://www.w3.org/2000/svg" xmlns:xlink="http://www.w3.org/1999/xlink" x="0px" y="0px"
	 viewBox="0 0 942.2 589.3" style="enable-background:new 0 0 942.2 589.3;" xml:space="preserve">
<style type="text/css">
	.st0{opacity:0.2;fill:url(#SVGID_1_);enable-background:new    ;}
	.st1{fill:url(#SVGID_2_);}
	.st2{fill:url(#SVGID_3_);}
	.st3{fill:url(#SVGID_4_);}
	.st4{fill:url(#SVGID_5_);}
	.st5{fill:url(#SVGID_6_);}
	.st6{fill:url(#SVGID_7_);}
	.st7{fill:url(#SVGID_8_);}
	.st8{fill:#F7CC7F;}
	.st9{fill:#FAE0B2;}
	.st10{fill:#466EB6;}
	.st11{fill:#F48C7F;}
	.st12{fill:url(#SVGID_9_);}
	.st13{fill:#E9F3FE;}
	.st14{fill:url(#SVGID_10_);}
	.st15{fill:url(#SVGID_11_);}
	.st16{fill:#F7A491;}
	.st17{fill:#233862;}
	.st18{fill:url(#SVGID_12_);}
	.st19{fill:url(#SVGID_13_);}
	.st20{fill:url(#SVGID_14_);}
	.st21{fill:url(#SVGID_15_);}
	.st22{fill:#F47458;}
	.st23{fill:url(#SVGID_16_);}
	.st24{fill:url(#SVGID_17_);}
	.st25{fill:url(#SVGID_18_);}
	.st26{fill:url(#SVGID_19_);}
	.st27{fill:url(#SVGID_20_);}
	.st28{fill:url(#SVGID_21_);}
	.st29{fill:url(#SVGID_22_);}
	.st30{fill:url(#SVGID_23_);}
	.st31{fill:url(#SVGID_24_);}
	.st32{fill:url(#SVGID_25_);}
	.st33{fill:url(#SVGID_26_);}
	.st34{fill:url(#SVGID_27_);}
	.st35{fill:url(#SVGID_28_);}
	.st36{fill:url(#SVGID_29_);}
	.st37{fill:url(#SVGID_30_);}
	.st38{fill:url(#SVGID_31_);}
	.st39{fill:url(#SVGID_32_);}
	.st40{fill:url(#SVGID_33_);}
	.st41{fill:url(#SVGID_34_);}
	.st42{fill:url(#SVGID_35_);}
	.st43{fill:url(#SVGID_36_);}
	.st44{fill:url(#SVGID_37_);}
	.st45{fill:url(#SVGID_38_);}
	.st46{fill:url(#SVGID_39_);}
	.st47{fill:url(#SVGID_40_);}
	.st48{fill:url(#SVGID_41_);}
	.st49{fill:url(#SVGID_42_);}
	.st50{fill:#86B1F2;}
	.st51{fill:url(#SVGID_43_);}
	.st52{fill:#355389;}
	.st53{fill:url(#SVGID_44_);}
	.st54{fill:url(#SVGID_45_);}
	.st55{fill:url(#SVGID_46_);}
	.st56{fill:url(#SVGID_47_);}
	.st57{fill:url(#SVGID_48_);}
	.st58{fill:url(#SVGID_49_);}
	.st59{fill:url(#SVGID_50_);}
	.st60{fill:url(#SVGID_51_);}
	.st61{fill:url(#SVGID_52_);}
</style>
<title>Asset 11</title>
<g id="Layer_2_1_">
	<g id="Layer_1-2">
		<g id="Layer_2-2">
			<g id="Layer_1-2-2">
				
					<linearGradient id="SVGID_1_" gradientUnits="userSpaceOnUse" x1="-303.1659" y1="281.9491" x2="639.0453" y2="281.9491" gradientTransform="matrix(-1 0 0 -1 639.05 592)">
					<stop  offset="0" style="stop-color:#FF736B;stop-opacity:0.5"/>
					<stop  offset="0.51" style="stop-color:#FF4A66"/>
					<stop  offset="0.77" style="stop-color:#FF3563"/>
					<stop  offset="1" style="stop-color:#FF2260"/>
				</linearGradient>
				<path class="st0" d="M888.5,585.5c0,0,106.5-146.4,19.7-275.5c-59.6-88.4-173-92.2-259-66.8C589,261,540.9,244,451.2,116.7
					C333.1-50.8-15.6,47.3,50.4,318.6c32,131.3-97.3,136-31.4,267.3L888.5,585.5z"/>
				
					<linearGradient id="SVGID_2_" gradientUnits="userSpaceOnUse" x1="271.34" y1="543.335" x2="300.29" y2="543.335" gradientTransform="matrix(1 0 0 1 0 -433.99)">
					<stop  offset="0" style="stop-color:#FE3EFF"/>
					<stop  offset="1" style="stop-color:#423EFF"/>
				</linearGradient>
				<polygon class="st1" points="299.4,112.4 293.1,114.3 288.8,104.5 279.2,106.2 274.8,99.3 271.3,101.6 277.2,110.7 286.3,109.1 
					290.8,119.4 300.3,116.4 				"/>
				
					<linearGradient id="SVGID_3_" gradientUnits="userSpaceOnUse" x1="677.87" y1="897.765" x2="706.82" y2="897.765" gradientTransform="matrix(1 0 0 1 0 -433.99)">
					<stop  offset="0" style="stop-color:#FE3EFF"/>
					<stop  offset="1" style="stop-color:#423EFF"/>
				</linearGradient>
				<polygon class="st2" points="705.9,466.8 699.6,468.8 695.3,458.9 685.7,460.6 681.3,453.8 677.9,456 683.7,465.1 692.9,463.5 
					697.3,473.8 706.8,470.9 				"/>
				
					<linearGradient id="SVGID_4_" gradientUnits="userSpaceOnUse" x1="282.6327" y1="813.8398" x2="277.4727" y2="1050.2998" gradientTransform="matrix(1 0 0 1 0 -433.99)">
					<stop  offset="0" style="stop-color:#FF736B"/>
					<stop  offset="0.51" style="stop-color:#FF4A66"/>
					<stop  offset="0.77" style="stop-color:#FF3563"/>
					<stop  offset="1" style="stop-color:#FF2260"/>
				</linearGradient>
				<path class="st3" d="M260.4,583.5c0,0-33.8-114.7-36.5-140s16.2-17.4,16.2-17.4s-15.9-48.2-4.4-59.6s21.9,9.9,21.9,9.9
					s3.5-58.5,15.8-58.5c22.9,0,22.4,63.8,22.4,63.8s5.8-25,18.1-18.1c18.5,10.3-8,60.4-8,60.4s23.5,0,31.8,11.9
					C352.3,457,260.4,583.5,260.4,583.5z"/>
				
					<linearGradient id="SVGID_5_" gradientUnits="userSpaceOnUse" x1="197.0724" y1="1012.7697" x2="184.4724" y2="931.3596" gradientTransform="matrix(1 0 0 1 0 -433.99)">
					<stop  offset="0" style="stop-color:#FF736B"/>
					<stop  offset="0.51" style="stop-color:#FF4A66"/>
					<stop  offset="0.77" style="stop-color:#FF3563"/>
					<stop  offset="1" style="stop-color:#FF2260"/>
				</linearGradient>
				<path class="st4" d="M271.4,568.3c0,0-97.5-16.3-118.7-33.6s-0.2-25.1-0.2-25.1s-49-25.1-48.4-42.2s24.9-8.4,24.9-8.4
					s-41.3-47.1-31.5-56c18.2-16.6,65.9,32.3,65.9,32.3s-14.2-23.3,0.8-27c22.5-5.5,39.1,51.8,39.1,51.8s-4.2-22.7,11.3-19.6
					C242.4,446,271.4,568.3,271.4,568.3z"/>
				
					<linearGradient id="SVGID_6_" gradientUnits="userSpaceOnUse" x1="97.44" y1="917.9623" x2="271.08" y2="917.9623" gradientTransform="matrix(1 0 0 1 0 -433.99)">
					<stop  offset="0" style="stop-color:#FF736B"/>
					<stop  offset="0.51" style="stop-color:#FF4A66"/>
					<stop  offset="0.77" style="stop-color:#FF3563"/>
					<stop  offset="1" style="stop-color:#FF2260"/>
				</linearGradient>
				<path class="st5" d="M214.5,440.6c-15.6-2.8-11.3,19.6-11.3,19.6s-16.6-57.4-39.1-51.8c-14.9,3.7-0.8,27-0.8,27
					s-47.7-48.9-65.9-32.3l173.6,165.3C268,552.5,240.6,445.3,214.5,440.6z"/>
				
					<linearGradient id="SVGID_7_" gradientUnits="userSpaceOnUse" x1="193.9824" y1="933.62" x2="193.9824" y2="1017.06" gradientTransform="matrix(1 0 0 1 0 -433.99)">
					<stop  offset="0" style="stop-color:#FE3EFF"/>
					<stop  offset="1" style="stop-color:#423EFF"/>
				</linearGradient>
				<path class="st6" d="M299.2,581.8c0,0-51.4-52.2-77.2-57.7s-21.2,13-21.2,13s-51.3-44.9-63.2-34s1,21.4,1,21.4
					s-42.7-7.6-48.9,6.5c-9.4,21.5,60.9,33.3,60.9,33.3s-29.5,2-22.6,15.6C138.2,600.1,299.2,581.8,299.2,581.8z"/>
				
					<linearGradient id="SVGID_8_" gradientUnits="userSpaceOnUse" x1="89.64" y1="975.4446" x2="299.13" y2="975.4446" gradientTransform="matrix(1 0 0 1 0 -433.99)">
					<stop  offset="0" style="stop-color:#FE3EFF"/>
					<stop  offset="1" style="stop-color:#423EFF"/>
				</linearGradient>
				<path class="st7" d="M89.6,530.9c6.1-14,48.9-6.5,48.9-6.5s-12.9-10.5-1-21.4s61.6,27.9,61.6,27.9s-11.7-22.4,14.1-17
					c25.9,5.4,85.9,67.8,85.9,67.8L89.6,530.9z"/>
				<path class="st8" d="M380.9,43.1c-17.3,2.9-22.4,25.5-8.1,35.7c2.6,1.8,4.4,4.6,5.1,7.6l2.6,10.6c0.7,2.9,3.6,4.8,6.5,4.3
					l6.5-1.1c3-0.5,5-3.2,4.8-6.2c-0.9-10.9-2-14.8,1.5-19.7C410.3,60.1,398.2,40.3,380.9,43.1z"/>
				<path class="st9" d="M382.7,89.3c-1.1-9.3-2.7-19.2-3.2-22c-9.9,0.6-6.1-9.9-1.6-5.7c1.2,1.3,2,2.9,2.3,4.7
					c3.3-0.3,6.5-1.2,9.4-2.8c-0.1-2.3-0.4-4,0.3-5.5c1-2.2,3.8-2.8,4.9-0.7c0.4,0.8,0.5,1.8,0.2,2.7c-0.7,1.8-2.7,3.1-4.4,4
					c0.5,7.4,1.2,14.9,2.1,22.3l-0.9,0.1c-0.9-7.2-1.6-14.6-2.1-21.9c-2.9,1.4-6.1,2.4-9.3,2.7c0.7,3.6,2.2,13.2,3.2,21.9
					L382.7,89.3z M374.7,65.1c0.9,1,2.4,1.4,4.5,1.3c-0.3-1.5-1-2.9-2-4C374.8,60,373.3,63.5,374.7,65.1L374.7,65.1z M390.7,58.4
					c-0.5,1.2-0.3,2.8-0.2,4.6c1.4-0.8,3.1-1.8,3.6-3.3c0.4-1,0-2.5-1.1-2.8C392.9,57,391.1,57.5,390.7,58.4L390.7,58.4z"/>
				<path class="st10" d="M377.9,86.2c0,0.1,0,0.2,0.1,0.3l2.6,10.6c0.7,2.9,3.6,4.8,6.5,4.3l6.5-1.1c3-0.5,5-3.2,4.8-6.2
					c-0.4-4.8-0.9-8.3-0.9-11.1L377.9,86.2z"/>
				<path class="st9" d="M368.1,35.2l-5.2-9.4c-0.5-0.9-0.2-2.1,0.7-2.6c0.9-0.5,2.1-0.2,2.6,0.7l0,0l5.2,9.4c0.4,0.9,0,2.1-0.9,2.5
					C369.6,36.3,368.6,36,368.1,35.2z"/>
				<path class="st9" d="M356.8,58.1l-11.3-1c-1,0-1.9-0.9-1.8-1.9c0-1,0.9-1.9,2-1.8l0,0h0.2l11.3,1c1,0.1,1.8,1,1.7,2
					S357.8,58.1,356.8,58.1L356.8,58.1L356.8,58.1L356.8,58.1z"/>
				<path class="st9" d="M345.6,92.6c-0.7-0.7-0.7-1.9,0-2.7c0,0,0,0,0,0c2.8-2.7,5.8-5.2,9-7.4c0.9-0.6,2-0.3,2.6,0.5
					c0.6,0.9,0.3,2-0.5,2.6c-3.1,2-5.9,4.4-8.5,6.9C347.5,93.3,346.4,93.3,345.6,92.6z"/>
				<path class="st9" d="M395.9,34.7c-1-0.3-1.6-1.3-1.3-2.3c1.3-4.8,2.1-9.7,2.3-14.6c0.1-1,1-1.8,2.1-1.7c1,0.1,1.7,0.9,1.7,1.9
					c-0.3,5.2-1.1,10.4-2.5,15.4C398,34.4,397,35,395.9,34.7L395.9,34.7z"/>
				<path class="st9" d="M407.5,49.2c-0.3-1,0.3-2,1.2-2.3c0,0,0,0,0,0l11.7-3.5c1-0.3,2.1,0.2,2.4,1.2c0.3,0.9-0.1,1.9-1,2.3
					l-0.3,0.1l-11.7,3.5C408.9,50.8,407.9,50.2,407.5,49.2C407.6,49.2,407.6,49.2,407.5,49.2L407.5,49.2z"/>
				<path class="st9" d="M426.8,80.4c-0.2,0-0.3,0-0.5-0.1c-4.1-1.1-8-2.7-11.7-4.7c-1-0.4-1.4-1.5-1-2.5c0.4-1,1.5-1.4,2.5-1
					c0,0,0.1,0,0.1,0c0.1,0,0.2,0.1,0.2,0.1c3.5,1.9,7.2,3.3,11,4.4c1,0.3,1.6,1.4,1.3,2.4C428.4,79.8,427.6,80.4,426.8,80.4
					L426.8,80.4z"/>
				<path class="st8" d="M598.4,163.7l-5.9-14l-14.9-3c-1.1-0.2-1.9-1.3-1.7-2.4c0.1-0.5,0.3-0.9,0.7-1.2l11.5-9.9l-1.7-15.2
					c-0.1-1.1,0.7-2.2,1.8-2.3c0.5-0.1,0.9,0,1.4,0.3l13,7.8l13.8-6.3c1.1-0.5,2.3,0,2.8,1.1c0.2,0.4,0.2,0.9,0.1,1.3l-3.4,14.8
					l10.3,11.3c0.8,0.8,0.7,2.2-0.1,2.9c-0.3,0.3-0.8,0.5-1.2,0.5l-15.1,1.3l-7.5,13.2c-0.6,1-1.9,1.3-2.8,0.8
					C598.8,164.5,598.5,164.2,598.4,163.7z"/>
				<polygon class="st11" points="692.5,115.8 690,125.6 673.8,123.4 668.5,137.3 656.2,137.6 656.3,143.9 672.9,143.4 677.9,130.3 
					694.8,132.5 698.4,117.8 				"/>
				<linearGradient id="SVGID_9_" gradientUnits="userSpaceOnUse" x1="250.3076" y1="557.9043" x2="540.9413" y2="557.9043">
					<stop  offset="0" style="stop-color:#FE3EFF"/>
					<stop  offset="1" style="stop-color:#423EFF"/>
				</linearGradient>
				<path class="st12" d="M534,584.8H257.3c-3.8,0-7-3.1-7-7V538c0-3.8,3.1-7,7-7H534c3.8,0,7,3.1,7,7v39.8
					C540.9,581.7,537.8,584.8,534,584.8z"/>
				<path class="st13" d="M560.3,211.9l12.9-3.4l-8.8,116.8l-15.5,0.5l7.8-109.7C556.9,214.1,558.3,212.4,560.3,211.9z"/>
				
					<linearGradient id="SVGID_10_" gradientUnits="userSpaceOnUse" x1="560.4348" y1="702.5357" x2="578.3547" y2="702.5357" gradientTransform="matrix(1 0 0 1 0 -433.99)">
					<stop  offset="0" style="stop-color:#423EFF"/>
					<stop  offset="1" style="stop-color:#FE3EFF"/>
				</linearGradient>
				<path class="st14" d="M565.6,328.6c-0.3,0-0.6,0-0.9,0c-2.7-0.5-4.6-3-4.2-5.7l8.5-109.9c0-2.6,2.2-4.7,4.8-4.6c0,0,0,0,0,0h0.3
					c2.7,0.5,4.6,3,4.2,5.7L569.8,324C569.7,326.3,567.9,328.3,565.6,328.6z"/>
				
					<linearGradient id="SVGID_11_" gradientUnits="userSpaceOnUse" x1="446.67" y1="766.6526" x2="569.8381" y2="766.6526" gradientTransform="matrix(1 0 0 1 0 -433.99)">
					<stop  offset="0" style="stop-color:#FE3EFF"/>
					<stop  offset="1" style="stop-color:#423EFF"/>
				</linearGradient>
				<path class="st15" d="M446.7,334.5v0.2l0,0c0.4,4.5,3.9,7.8,7.7,7.5l109.1-9.8c3.9-0.4,6.7-4.3,6.3-8.7c0-0.2,0-0.4-0.1-0.6
					L446.7,334.5z"/>
				<path class="st16" d="M522.7,452.5c-7.1,4-29-3-29-3.6c-0.3,6-24.5,64.4-24.5,64.4v18c0,0,49.8,2.4,49-2s-3.4-1.5-13.3-9.8
					c-0.9-0.7-14.8-4-11-12.2C501.5,490.5,517.6,462.8,522.7,452.5z"/>
				<path class="st17" d="M467.6,531.8h54.5c2-0.2,2.4-1.8,1.7-2.8c-1.4-2-11.9-6.7-18.9-9.8c-12.2,1.4-33.7-3.3-35.7-6.1
					C464,520.1,466.5,531.6,467.6,531.8z"/>
				
					<linearGradient id="SVGID_12_" gradientUnits="userSpaceOnUse" x1="461.6632" y1="933.2812" x2="500.4332" y2="827.6512" gradientTransform="matrix(1 0 0 1 0 -433.99)">
					<stop  offset="0" style="stop-color:#FE3EFF"/>
					<stop  offset="1" style="stop-color:#423EFF"/>
				</linearGradient>
				<path class="st18" d="M455.6,410.5c-0.7-2.2,46.9-22.4,49-20.1c3.8,4.1-25.8,80.8-25.8,80.8l33.9,10.4c0,0,35.3-88.6,33.8-104.8
					s-19.2-34.6-57.4-22.8S455.6,410.5,455.6,410.5z"/>
				<path class="st16" d="M554.3,462.5c-8-1.5-18.5-1.9-26.8-2c1,7.4,5.8,45.5,4.9,47.9c-2.2,5.7-6.2,10.6-11.3,13.9
					c0,0,37,33.4,39.2,29.5s-1.7-3.3-4.1-16.1c-0.2-1.1-5.6-18.9-5.9-28.4C549.6,489,554,472.7,554.3,462.5z"/>
				
					<linearGradient id="SVGID_13_" gradientUnits="userSpaceOnUse" x1="523.8187" y1="907.7135" x2="420.1187" y2="768.1535" gradientTransform="matrix(1 0 0 1 0 -433.99)">
					<stop  offset="0" style="stop-color:#FE3EFF"/>
					<stop  offset="1" style="stop-color:#423EFF"/>
				</linearGradient>
				<path class="st19" d="M542.4,337.9c-5.2-2.8-18.5-2.9-33.3-1.9c-28.7,1.9-57.1,7.5-84.4,16.6l-18.3,6l0.1-18.7
					c0,0-58.1-9.7-60.2,4.7c-3,21.7,0.7,65.8,20.1,75.6c60.2,30.5,144.5-48.7,144.8-38.3c0.4,13.9,12.1,65.7,15.1,88.4
					c8.3,0.1,22.7,0.1,28.9-1.3C556.5,424.6,557.1,345.8,542.4,337.9z"/>
				<path class="st17" d="M519.8,523l41.6,33.2c1.7,1.1,3,0.2,3.1-1c0.2-2.5-4.9-12.7-8.4-19.6c-10.4-6.7-24-24-23.8-27.4
					C528,512,519.1,522.2,519.8,523z"/>
				
					<linearGradient id="SVGID_14_" gradientUnits="userSpaceOnUse" x1="339.7698" y1="745.8115" x2="361.0898" y2="601.4214" gradientTransform="matrix(1 0 0 1 0 -433.99)">
					<stop  offset="0" style="stop-color:#FE3EFF"/>
					<stop  offset="1" style="stop-color:#423EFF"/>
				</linearGradient>
				<path class="st20" d="M425.7,156.8c-1.4-12.8-2.9-25.6-13.5-34.9c-8.6-7.6-19.5-8.9-30.2-4.8c-30.5,11.5-14.8,38.6-53.7,65.9
					c-12.1,8.5-25.4,14.3-34.5,25.7c-12.7,16-7.9,35.2,3.7,48.1c55.5,61.5,117.6-21.6,122-41.5C422.9,200.5,426.6,165,425.7,156.8z"
					/>
				
					<linearGradient id="SVGID_15_" gradientUnits="userSpaceOnUse" x1="383.5236" y1="670.99" x2="383.5236" y2="819.42" gradientTransform="matrix(1 0 0 1 0 -433.99)">
					<stop  offset="0" style="stop-color:#00F0FF"/>
					<stop  offset="1" style="stop-color:#553EFF"/>
				</linearGradient>
				<path class="st21" d="M414.5,228.6c-2.8-5.2-5.9-10.2-9.2-15c-4.7-8.4-16.9-12.6-16.9-12.6s-4.1,0.1-8.7,0.3
					c-0.2,0.6-0.5,1.1-0.9,1.6c-1.8,1.3-11.8-0.4-18.3,4c-21.8,18.7-15.8,109.1-14,137.7l66.3,0.6c0,0-8.4-61.5,5.1-77.3
					C427.2,256.9,421.2,241,414.5,228.6z"/>
				<path class="st16" d="M384.6,170.4c0,0-3.6,26-6.2,32.4s14,19.9,27.8,24s-4.2-14-3.6-20.7s3.1-38.8,3.1-38.8L384.6,170.4z"/>
				<path class="st22" d="M404.9,176.4c0.4-5.3,0.7-9.2,0.7-9.2l-21,3.2c0,0-0.5,3.1-1.1,7.4C392,182.7,399.6,181.1,404.9,176.4z"/>
				<path class="st16" d="M391.2,122.8c-5.5,1.5-10.2,4.9-13.4,9.7c-5.1,7.8-8.6,30.8,8.2,41.5s29.9-4.4,30.1-19.2
					S413.2,120.2,391.2,122.8z"/>
				<path class="st16" d="M420,150.1c-1.4,3.6-4.3,5.8-6.4,4.9s-2.6-4.4-1.2-8s4.3-5.8,6.4-5S421.4,146.6,420,150.1z"/>
				
					<linearGradient id="SVGID_16_" gradientUnits="userSpaceOnUse" x1="403.0697" y1="700.1401" x2="381.7498" y2="589.66" gradientTransform="matrix(1 0 0 1 0 -433.99)">
					<stop  offset="0" style="stop-color:#FE3EFF"/>
					<stop  offset="1" style="stop-color:#423EFF"/>
				</linearGradient>
				<path class="st23" d="M393.6,122.3c0,0-10.6,23.7-19.8,25.8s-9.1,14-9.1,14s0.2-27.5,8.9-33.8S393.6,122.3,393.6,122.3z"/>
				<path class="st16" d="M377.5,153.1c1.2,3.9,0.1,7.6-2.5,8.5s-5.7-1.6-6.9-5.5s-0.1-7.6,2.5-8.5S376.3,149.2,377.5,153.1z"/>
				<path class="st16" d="M496.1,324c-4-1.4-9.9-1.6-9.8-2.1c0.4-2.1,18,4.7,15.6,1.6c-1.3-1.7-14.5-7.9-17.7-6.8
					s-23.5,6.7-23.5,6.7l-55.7-13c0,0-14.1-31.9-15.4-59.3c-11.6,1.6-19.5,4.4-29.6,10c4.9,26.2,16.7,68.8,29.8,76.7
					c5.5,3.4,71.2-4,71.2-4s14.5-1,16.9-1.9c1.8-0.7,6.4-3.3,8.9-4c5.7-1.6,15.9,2.4,15.9,1.3C502.8,328.3,500.2,325.5,496.1,324z"
					/>
				
					<linearGradient id="SVGID_17_" gradientUnits="userSpaceOnUse" x1="372.894" y1="643.86" x2="372.894" y2="713.63" gradientTransform="matrix(1 0 0 1 0 -433.99)">
					<stop  offset="0" style="stop-color:#00F0FF"/>
					<stop  offset="1" style="stop-color:#553EFF"/>
				</linearGradient>
				<path class="st24" d="M390,221.6c-0.5-8.4-3.7-16.6-12.7-19.2c-5.7-1.5-11.8-0.2-16.3,3.6c-5.3,4.3-6.8,11.3-6.8,17.8
					c-0.1,15.1,1.2,30.1,3.8,45c10.1-5.6,21.9-9,33.5-10.5C391.6,258.2,390.7,232.8,390,221.6z"/>
				
					<linearGradient id="SVGID_18_" gradientUnits="userSpaceOnUse" x1="86.8258" y1="695.6705" x2="190.333" y2="695.6705" gradientTransform="matrix(1 0 0 1 0 -433.99)">
					<stop  offset="0" style="stop-color:#423EFF"/>
					<stop  offset="1" style="stop-color:#FE3EFF"/>
				</linearGradient>
				<path class="st25" d="M175.7,301.9l-86.3-16.1c-1.7-0.3-2.9-2-2.6-3.7c0,0,0,0,0,0l0,0L97.7,224c0.3-1.7,2-2.9,3.7-2.6
					l86.3,16.1c1.7,0.3,2.9,2,2.6,3.7l-10.8,58.1C179.2,301.1,177.5,302.2,175.7,301.9C175.8,301.9,175.7,301.9,175.7,301.9z"/>
				
					<linearGradient id="SVGID_19_" gradientUnits="userSpaceOnUse" x1="113.7117" y1="719.6682" x2="134.0616" y2="587.8682" gradientTransform="matrix(0.9964 2.474504e-03 -2.474504e-03 0.9964 1.8347 -430.7998)">
					<stop  offset="0" style="stop-color:#553EFF"/>
					<stop  offset="1" style="stop-color:#00F0FF"/>
				</linearGradient>
				<path class="st26" d="M105.8,226.9l1.6-8.8c0.3-1.7,2-2.9,3.7-2.6l26.3,4.9c1.7,0.3,2.9,2,2.6,3.7l-1.6,8.8
					c-0.3,1.7-2,2.9-3.7,2.6l-26.3-4.9C106.7,230.3,105.5,228.7,105.8,226.9z"/>
				
					<linearGradient id="SVGID_20_" gradientUnits="userSpaceOnUse" x1="86.5281" y1="698.7164" x2="193.9771" y2="698.7164" gradientTransform="matrix(1 0 0 1 0 -433.99)">
					<stop  offset="0" style="stop-color:#FE3EFF"/>
					<stop  offset="1" style="stop-color:#423EFF"/>
				</linearGradient>
				<path class="st27" d="M179.7,299.7c-0.4,1.6-2,2.6-3.7,2.3l-86.9-16.2c-1.6-0.3-2.7-1.8-2.6-3.4l4.6-52.1
					c0.2-1.8,1.7-3.1,3.5-2.9h0.3l96.5,18c1.7,0.3,2.9,2,2.6,3.7c0,0.1,0,0.2-0.1,0.3L179.7,299.7z"/>
				
					<linearGradient id="SVGID_21_" gradientUnits="userSpaceOnUse" x1="599.37" y1="473.775" x2="617.33" y2="473.775" gradientTransform="matrix(1 0 0 1 0 -433.99)">
					<stop  offset="0" style="stop-color:#FE3EFF"/>
					<stop  offset="1" style="stop-color:#423EFF"/>
				</linearGradient>
				<polygon class="st28" points="617.3,45.1 602.5,49.2 599.4,31.3 604.2,30.4 606.4,43 616,40.4 				"/>
				
					<linearGradient id="SVGID_22_" gradientUnits="userSpaceOnUse" x1="268.0318" y1="448.4498" x2="277.0718" y2="516.9398" gradientTransform="matrix(1 0 0 1 0 -433.99)">
					<stop  offset="0" style="stop-color:#00F0FF"/>
					<stop  offset="1" style="stop-color:#553EFF"/>
				</linearGradient>
				<path class="st29" d="M332.6,51.8l-17.1-48c-1.1-3-4.3-4.6-7.3-3.5l0,0l-92.8,33.1c-3,1.1-4.5,4.4-3.5,7.3c0,0,0,0,0,0l17.1,48
					c1.1,3,4.4,4.6,7.4,3.5l92.8-33.1C332.1,58.1,333.7,54.8,332.6,51.8z M256.5,70.3c-9.6,3.4-20.1-1.6-23.5-11.1
					c-3.4-9.6,1.6-20.1,11.1-23.5c9.6-3.4,20.1,1.6,23.5,11.1C271,56.4,266,66.9,256.5,70.3z M269.9,36.8c-1.3,0-2.3-1.1-2.3-2.4
					c0-1,0.6-1.9,1.6-2.2l40.5-14.5c1.2-0.4,2.5,0.4,2.9,1.6c0,0,0,0,0,0c0.3,1.1-0.2,2.3-1.3,2.8l-40.5,14.5
					C270.4,36.7,270.2,36.8,269.9,36.8z M314.6,34.3c-0.3,0.6-0.7,1-1.3,1.2l-31.7,11.3c-1.2,0.4-2.5-0.4-2.9-1.6
					c-0.3-1.1,0.2-2.3,1.3-2.8l31.7-11.3c1.2-0.4,2.6,0.2,3,1.4C314.9,33.1,314.9,33.7,314.6,34.3z"/>
				
					<linearGradient id="SVGID_23_" gradientUnits="userSpaceOnUse" x1="244.0747" y1="451.6194" x2="253.1247" y2="520.0994" gradientTransform="matrix(1 0 0 1 0 -433.99)">
					<stop  offset="0" style="stop-color:#00F0FF"/>
					<stop  offset="1" style="stop-color:#553EFF"/>
				</linearGradient>
				<path class="st30" d="M249.7,51.2c2.8-1,4.3-4.1,3.3-6.9c-1-2.8-4.1-4.3-6.9-3.3c-2.8,1-4.3,4.1-3.3,6.9
					C243.7,50.7,246.8,52.2,249.7,51.2C249.7,51.2,249.7,51.2,249.7,51.2z"/>
				
					<linearGradient id="SVGID_24_" gradientUnits="userSpaceOnUse" x1="247.5707" y1="451.1599" x2="256.6107" y2="519.6399" gradientTransform="matrix(1 0 0 1 0 -433.99)">
					<stop  offset="0" style="stop-color:#00F0FF"/>
					<stop  offset="1" style="stop-color:#553EFF"/>
				</linearGradient>
				<path class="st31" d="M251.1,54.3l-0.6,0.2c-4.4,1.6-6.6,6.3-5.1,10.7l16.3-5.8l0,0C260.2,55,255.4,52.8,251.1,54.3z"/>
				
					<linearGradient id="SVGID_25_" gradientUnits="userSpaceOnUse" x1="794.2104" y1="822.3612" x2="834.9104" y2="807.8212" gradientTransform="matrix(1 0 0 1 0 -433.99)">
					<stop  offset="0" style="stop-color:#FF736B"/>
					<stop  offset="1" style="stop-color:#FF2260"/>
				</linearGradient>
				<path class="st32" d="M771.5,422.2l-17-42.6c-0.9-2.1,0.2-4.6,2.3-5.4c0,0,0,0,0,0l0,0l61.1-24.4c2.1-0.9,4.5,0.2,5.4,2.3
					c0,0,0,0,0,0l0,0l17,42.6c0.8,2.1-0.2,4.6-2.3,5.4L777,424.5C774.9,425.4,772.4,424.4,771.5,422.2L771.5,422.2z"/>
				
					<linearGradient id="SVGID_26_" gradientUnits="userSpaceOnUse" x1="813.814" y1="811.9929" x2="831.4726" y2="811.9929" gradientTransform="matrix(1 0 0 1 0 -433.99)">
					<stop  offset="0" style="stop-color:#FE3EFF"/>
					<stop  offset="1" style="stop-color:#423EFF"/>
				</linearGradient>
				<path class="st33" d="M829.2,397.6l-15.3-38.3c-0.2-0.6,0.1-1.3,0.7-1.6c0,0,0,0,0,0l0,0c0.6-0.2,1.3,0.1,1.6,0.7l15.3,38.3
					c0.2,0.6-0.1,1.3-0.7,1.5l0,0C830.1,398.5,829.4,398.2,829.2,397.6L829.2,397.6z"/>
				
					<linearGradient id="SVGID_27_" gradientUnits="userSpaceOnUse" x1="809.2812" y1="810.3781" x2="824.2012" y2="810.3781" gradientTransform="matrix(1 0 0 1 0 -433.99)">
					<stop  offset="0" style="stop-color:#FE3EFF"/>
					<stop  offset="1" style="stop-color:#423EFF"/>
				</linearGradient>
				<path class="st34" d="M821.9,392.5l-12.5-31.4c-0.2-0.6,0-1.3,0.7-1.6l0,0c0.6-0.2,1.3,0.1,1.5,0.7l12.5,31.4
					c0.2,0.6-0.1,1.3-0.7,1.5l0,0C822.8,393.5,822.1,393.2,821.9,392.5L821.9,392.5z"/>
				
					<linearGradient id="SVGID_28_" gradientUnits="userSpaceOnUse" x1="804.7412" y1="815.5874" x2="822.4012" y2="815.5874" gradientTransform="matrix(1 0 0 1 0 -433.99)">
					<stop  offset="0" style="stop-color:#FE3EFF"/>
					<stop  offset="1" style="stop-color:#423EFF"/>
				</linearGradient>
				<path class="st35" d="M820.1,401.2l-15.3-38.3c-0.2-0.6,0-1.3,0.7-1.6l0,0c0.6-0.2,1.3,0.1,1.5,0.6l15.3,38.3
					c0.2,0.6,0,1.3-0.7,1.5l0,0C821,402.1,820.3,401.8,820.1,401.2z"/>
				
					<linearGradient id="SVGID_29_" gradientUnits="userSpaceOnUse" x1="800.2" y1="813.0502" x2="814.37" y2="813.0502" gradientTransform="matrix(1 0 0 1 0 -433.99)">
					<stop  offset="0" style="stop-color:#FE3EFF"/>
					<stop  offset="1" style="stop-color:#423EFF"/>
				</linearGradient>
				<path class="st36" d="M812,394.3l-11.8-29.5c-0.2-0.6,0-1.3,0.7-1.6l0,0c0.6-0.2,1.3,0.1,1.6,0.7c0,0,0,0,0,0l0,0l11.8,29.5
					c0.2,0.6-0.1,1.3-0.7,1.6l0,0C812.9,395.2,812.2,394.9,812,394.3z"/>
				
					<linearGradient id="SVGID_30_" gradientUnits="userSpaceOnUse" x1="821.64" y1="790.1636" x2="828.7894" y2="790.1636" gradientTransform="matrix(1 0 0 1 0 -433.99)">
					<stop  offset="0" style="stop-color:#FE3EFF"/>
					<stop  offset="1" style="stop-color:#423EFF"/>
				</linearGradient>
				<path class="st37" d="M828.8,355.2l-0.3-0.8c-0.1-0.3-0.4-0.4-0.7-0.3c0,0,0,0,0,0l0,0l-5.8,2.3c-0.3,0.1-0.4,0.4-0.3,0.7
					c0,0,0,0,0,0l0,0l0.3,0.8c0.1,0.3,0.4,0.4,0.7,0.3l5.8-2.3C828.8,355.8,828.9,355.5,828.8,355.2L828.8,355.2z"/>
				
					<linearGradient id="SVGID_31_" gradientUnits="userSpaceOnUse" x1="822.95" y1="793.475" x2="830.1144" y2="793.475" gradientTransform="matrix(1 0 0 1 0 -433.99)">
					<stop  offset="0" style="stop-color:#FE3EFF"/>
					<stop  offset="1" style="stop-color:#423EFF"/>
				</linearGradient>
				<path class="st38" d="M830,358.5l-0.3-0.8c-0.1-0.3-0.4-0.4-0.7-0.3l-5.8,2.3c-0.3,0.1-0.4,0.4-0.3,0.7c0,0,0,0,0,0l0.3,0.8
					c0.1,0.3,0.4,0.4,0.7,0.3l5.8-2.3C830,359.1,830.1,358.8,830,358.5z"/>
				
					<linearGradient id="SVGID_32_" gradientUnits="userSpaceOnUse" x1="824.26" y1="796.725" x2="831.42" y2="796.725" gradientTransform="matrix(1 0 0 1 0 -433.99)">
					<stop  offset="0" style="stop-color:#FE3EFF"/>
					<stop  offset="1" style="stop-color:#423EFF"/>
				</linearGradient>
				<path class="st39" d="M831.4,361.8L831,361c-0.1-0.3-0.4-0.4-0.7-0.3l-5.8,2.3c-0.3,0.1-0.4,0.4-0.3,0.7l0.3,0.8
					c0.1,0.3,0.4,0.4,0.7,0.3l5.8-2.3C831.3,362.4,831.4,362.1,831.4,361.8z"/>
				
					<linearGradient id="SVGID_33_" gradientUnits="userSpaceOnUse" x1="825.57" y1="800.0571" x2="832.72" y2="800.0571" gradientTransform="matrix(1 0 0 1 0 -433.99)">
					<stop  offset="0" style="stop-color:#FE3EFF"/>
					<stop  offset="1" style="stop-color:#423EFF"/>
				</linearGradient>
				<path class="st40" d="M832.7,365.1l-0.3-0.8c-0.1-0.3-0.4-0.4-0.7-0.3c0,0,0,0,0,0l0,0l-5.8,2.3c-0.3,0.1-0.4,0.4-0.3,0.7l0,0
					l0.3,0.8c0.1,0.3,0.4,0.4,0.7,0.3c0,0,0,0,0,0l0,0l5.8-2.3C832.7,365.7,832.8,365.4,832.7,365.1L832.7,365.1z"/>
				
					<linearGradient id="SVGID_34_" gradientUnits="userSpaceOnUse" x1="826.89" y1="803.365" x2="834.0509" y2="803.365" gradientTransform="matrix(1 0 0 1 0 -433.99)">
					<stop  offset="0" style="stop-color:#FE3EFF"/>
					<stop  offset="1" style="stop-color:#423EFF"/>
				</linearGradient>
				<path class="st41" d="M834,368.4l-0.3-0.8c-0.1-0.3-0.4-0.4-0.7-0.3l-5.8,2.3c-0.3,0.1-0.4,0.4-0.3,0.7l0.3,0.8
					c0.1,0.3,0.4,0.4,0.7,0.3l5.8-2.3C834,369,834.1,368.7,834,368.4z"/>
				
					<linearGradient id="SVGID_35_" gradientUnits="userSpaceOnUse" x1="828.21" y1="806.6548" x2="835.3627" y2="806.6548" gradientTransform="matrix(1 0 0 1 0 -433.99)">
					<stop  offset="0" style="stop-color:#FE3EFF"/>
					<stop  offset="1" style="stop-color:#423EFF"/>
				</linearGradient>
				<path class="st42" d="M835.3,371.7l-0.3-0.8c-0.1-0.3-0.4-0.4-0.7-0.3l-5.8,2.3c-0.3,0.1-0.4,0.4-0.3,0.7l0,0l0.3,0.8
					c0.1,0.3,0.4,0.4,0.7,0.3l5.8-2.3C835.3,372.3,835.4,372,835.3,371.7z"/>
				
					<linearGradient id="SVGID_36_" gradientUnits="userSpaceOnUse" x1="829.51" y1="809.94" x2="836.67" y2="809.94" gradientTransform="matrix(1 0 0 1 0 -433.99)">
					<stop  offset="0" style="stop-color:#FE3EFF"/>
					<stop  offset="1" style="stop-color:#423EFF"/>
				</linearGradient>
				<path class="st43" d="M836.6,375l-0.3-0.8c-0.1-0.3-0.4-0.4-0.7-0.3c0,0,0,0,0,0l0,0l-5.8,2.3c-0.3,0.1-0.4,0.4-0.3,0.7l0,0
					l0.3,0.8c0.1,0.3,0.4,0.4,0.7,0.3c0,0,0,0,0,0l0,0l5.8-2.3C836.6,375.6,836.7,375.2,836.6,375L836.6,375z"/>
				
					<linearGradient id="SVGID_37_" gradientUnits="userSpaceOnUse" x1="830.83" y1="813.255" x2="837.988" y2="813.255" gradientTransform="matrix(1 0 0 1 0 -433.99)">
					<stop  offset="0" style="stop-color:#FE3EFF"/>
					<stop  offset="1" style="stop-color:#423EFF"/>
				</linearGradient>
				<path class="st44" d="M838,378.3l-0.3-0.8c-0.1-0.3-0.4-0.4-0.7-0.3l-5.8,2.3c-0.3,0.1-0.4,0.4-0.3,0.7l0.3,0.8
					c0.1,0.3,0.4,0.4,0.7,0.3l5.8-2.3C838,378.9,838.1,378.6,838,378.3z"/>
				
					<linearGradient id="SVGID_38_" gradientUnits="userSpaceOnUse" x1="832.142" y1="816.5538" x2="839.292" y2="816.5538" gradientTransform="matrix(1 0 0 1 0 -433.99)">
					<stop  offset="0" style="stop-color:#FE3EFF"/>
					<stop  offset="1" style="stop-color:#423EFF"/>
				</linearGradient>
				<path class="st45" d="M839.3,381.6l-0.3-0.8c-0.1-0.3-0.4-0.4-0.7-0.3c0,0,0,0,0,0l0,0l-5.8,2.3c-0.3,0.1-0.4,0.4-0.3,0.7
					c0,0,0,0,0,0l0.3,0.8c0.1,0.3,0.4,0.4,0.7,0.3l5.8-2.3C839.3,382.2,839.4,381.9,839.3,381.6z"/>
				
					<linearGradient id="SVGID_39_" gradientUnits="userSpaceOnUse" x1="833.45" y1="819.845" x2="840.62" y2="819.845" gradientTransform="matrix(1 0 0 1 0 -433.99)">
					<stop  offset="0" style="stop-color:#FE3EFF"/>
					<stop  offset="1" style="stop-color:#423EFF"/>
				</linearGradient>
				<path class="st46" d="M840.6,384.9l-0.3-0.8c-0.1-0.3-0.4-0.4-0.7-0.3c0,0,0,0,0,0l0,0l-5.8,2.3c-0.3,0.1-0.4,0.4-0.3,0.7
					c0,0,0,0,0,0l0.3,0.8c0.1,0.3,0.4,0.4,0.7,0.3c0,0,0,0,0,0l0,0l5.8-2.3C840.6,385.5,840.7,385.2,840.6,384.9z"/>
				
					<linearGradient id="SVGID_40_" gradientUnits="userSpaceOnUse" x1="834.772" y1="823.145" x2="841.922" y2="823.145" gradientTransform="matrix(1 0 0 1 0 -433.99)">
					<stop  offset="0" style="stop-color:#FE3EFF"/>
					<stop  offset="1" style="stop-color:#423EFF"/>
				</linearGradient>
				<path class="st47" d="M841.9,388.2l-0.3-0.8c-0.1-0.3-0.4-0.4-0.7-0.3l-5.8,2.3c-0.3,0.1-0.4,0.4-0.3,0.7c0,0,0,0,0,0l0.3,0.8
					c0.1,0.3,0.4,0.4,0.7,0.3l5.8-2.3C841.9,388.8,842,388.5,841.9,388.2z"/>
				
					<linearGradient id="SVGID_41_" gradientUnits="userSpaceOnUse" x1="836.082" y1="826.4449" x2="843.2463" y2="826.4449" gradientTransform="matrix(1 0 0 1 0 -433.99)">
					<stop  offset="0" style="stop-color:#FE3EFF"/>
					<stop  offset="1" style="stop-color:#423EFF"/>
				</linearGradient>
				<path class="st48" d="M843.2,391.5l-0.3-0.8c-0.1-0.3-0.4-0.4-0.7-0.3l-5.8,2.3c-0.3,0.1-0.4,0.4-0.3,0.7c0,0,0,0,0,0l0.3,0.8
					c0.1,0.3,0.4,0.4,0.7,0.3l5.8-2.3C843.2,392.1,843.3,391.8,843.2,391.5z"/>
				
					<linearGradient id="SVGID_42_" gradientUnits="userSpaceOnUse" x1="860.2249" y1="825.0303" x2="836.1049" y2="862.9404" gradientTransform="matrix(1 0 0 1 0 -433.99)">
					<stop  offset="0" style="stop-color:#FF736B"/>
					<stop  offset="1" style="stop-color:#FF2260"/>
				</linearGradient>
				<path class="st49" d="M859.2,388.1L835,422.6c-0.1,0.1-0.1,0.2-0.1,0.3l-2.5,7.6c-0.1,0.5,0.3,1.1,0.8,1.2c0.2,0,0.5,0,0.7-0.1
					l6.5-4.9c0.1-0.1,0.2-0.1,0.2-0.2l24.3-34.6c0.3-0.5,0.2-1-0.3-1.4l-4.1-2.6C860.1,387.6,859.5,387.7,859.2,388.1z"/>
				<path class="st8" d="M725.5,426.5L725.5,426.5l-6.3,4.8l-1.7-1.1l2.3-7.2C721.9,423.9,723.8,425.1,725.5,426.5z"/>
				<path class="st10" d="M498.6,14.3c3.5,2.8,9.6,11.8,17.3,18c4.5,3.7,8,2.8,13.8,3.5c27.4,3.3,20,8.9,23.3,9.5
					c-0.9,2.2-9.5,20.3-11.1,24c-1.5,3.4-4,4.9-7.7,4.4c-5.7-0.8-11.4-1.4-17-2.6c-14.3-3.1-22.3-10.3-32.5-19
					c-2.6-1.9-3.5-5.5-2-8.5C489.3,28.5,497.9,15.7,498.6,14.3z"/>
				<path class="st50" d="M556,67.2c-0.1,6,0.3,7.2-2.2,6.3c-1.5-0.6-3.1-1.2-4.5-2c-1-0.5-1.1-1.2-0.2-2.1c1.2-1.2,2.5-2.4,3.7-3.6
					c-0.9-2.4,0.1-5.1,2.3-6.4c0.5-0.3,0.1,0.3,3.9-8.5c-12.6-1.6-21.5-2.6-37-4.5c-4.1-0.5-7.9-2.1-11-4.8L478,14
					c-1.4-1-1.7-2.9-0.7-4.3c0.1-0.1,0.1-0.2,0.2-0.2c0.9-0.9,2.2-1.3,3.4-1c3.5,0.4,38,4.7,41.5,5.1c4.5,0.5,8.8,2.3,12.2,5.3
					c10.8,9,21.6,18.1,32.5,27.1c1.5,1.2,1.9,2.4,1.4,3.8c-0.5,1.5-2.2,2.4-3.7,1.8l0,0c-0.9-0.4-1.9,0-2.3,0.9
					c-0.1,0.1-0.1,0.3-0.1,0.5c-2.1,5.7-3.6,7-3.1,9.1C559.6,63.7,557.7,66.5,556,67.2z"/>
				
					<linearGradient id="SVGID_43_" gradientUnits="userSpaceOnUse" x1="634.3625" y1="940.5729" x2="656.5925" y2="921.0529" gradientTransform="matrix(1 0 0 1 0 -433.99)">
					<stop  offset="0" style="stop-color:#553EFF"/>
					<stop  offset="1" style="stop-color:#00F0FF"/>
				</linearGradient>
				<path class="st51" d="M613.2,473.4l6.3,6c14.9,14.2,27,31,35.8,49.6l1,2c0,0,16.5,1.5,18.8-13.4l0,0
					c-14.3-16.1-26.4-33.9-36.2-53.1l-3-7L613.2,473.4z"/>
				<path class="st50" d="M635.9,457.5c0.8,1.2-3.6,5.6-9.9,10s-12,7-12.8,5.9s3.6-5.7,9.9-10.1S635,456.4,635.9,457.5z"/>
				<path class="st52" d="M635.9,457.6L635.9,457.6c0,0-12.5,10.6-17.7,11.7l1.6,2.2c2.1-1.2,4.2-2.5,6.2-3.9
					C632.2,463.2,636.6,458.8,635.9,457.6z"/>
				
					<linearGradient id="SVGID_44_" gradientUnits="userSpaceOnUse" x1="658.4846" y1="922.0149" x2="638.0246" y2="940.9649" gradientTransform="matrix(1 0 0 1 0 -433.99)">
					<stop  offset="0" style="stop-color:#FE3EFF"/>
					<stop  offset="1" style="stop-color:#423EFF"/>
				</linearGradient>
				<path class="st53" d="M652.6,488.4c0,1.8-0.7,9.7-13.8,13c0.9,1.2,1.7,2.4,2.5,3.6c8.3-2.5,12-6.7,13.7-10
					c0.3-0.6,0.6-1.1,0.8-1.7C654.8,491.6,653.7,490,652.6,488.4z"/>
				
					<linearGradient id="SVGID_45_" gradientUnits="userSpaceOnUse" x1="651.867" y1="914.8776" x2="631.417" y2="933.8276" gradientTransform="matrix(1 0 0 1 0 -433.99)">
					<stop  offset="0" style="stop-color:#FE3EFF"/>
					<stop  offset="1" style="stop-color:#423EFF"/>
				</linearGradient>
				<polygon class="st54" points="640,499.1 620.7,498.4 625.3,502.3 622.5,507.2 640.8,502.6 				"/>
				
					<linearGradient id="SVGID_46_" gradientUnits="userSpaceOnUse" x1="661.9252" y1="925.7356" x2="641.4752" y2="944.6855" gradientTransform="matrix(1 0 0 1 0 -433.99)">
					<stop  offset="0" style="stop-color:#FE3EFF"/>
					<stop  offset="1" style="stop-color:#423EFF"/>
				</linearGradient>
				<polygon class="st55" points="641.8,503.5 634.9,515.5 639.7,513.7 641.6,517.5 644.8,504.9 				"/>
				
					<linearGradient id="SVGID_47_" gradientUnits="userSpaceOnUse" x1="637.77" y1="934.4716" x2="650.1" y2="934.4716" gradientTransform="matrix(1 0 0 1 0 -433.99)">
					<stop  offset="0" style="stop-color:#FF2260"/>
					<stop  offset="1" style="stop-color:#FF736B"/>
				</linearGradient>
				<path class="st56" d="M644.4,506.8c-3.5,0.3-6.6-2.2-7-5.7s2.2-6.6,5.7-7c3.5-0.3,6.6,2.2,6.9,5.6c0,0.1,0,0.1,0,0.2
					C650.4,503.4,647.8,506.5,644.4,506.8C644.4,506.8,644.4,506.8,644.4,506.8z"/>
				
					<linearGradient id="SVGID_48_" gradientUnits="userSpaceOnUse" x1="650.2675" y1="659.5076" x2="734.455" y2="659.5076" gradientTransform="matrix(1 0 0 1 0 -433.99)">
					<stop  offset="0" style="stop-color:#FE3EFF"/>
					<stop  offset="1" style="stop-color:#423EFF"/>
				</linearGradient>
				<path class="st57" d="M692.4,257.4L651.7,221c-2.7-2.4-1.5-7.2,2.1-9.3l32.5-18.4c1.8-1.2,4.2-1.1,5.9,0.3L733,230
					c2.6,2.4,1.5,7.2-2.1,9.3l-32.5,18.4C696.6,258.9,694.1,258.8,692.4,257.4z"/>
				
					<linearGradient id="SVGID_49_" gradientUnits="userSpaceOnUse" x1="665.8405" y1="633.3591" x2="788.6005" y2="703.1392" gradientTransform="matrix(1 0 0 1 0 -433.99)">
					<stop  offset="0" style="stop-color:#423EFF"/>
					<stop  offset="1" style="stop-color:#FE3EFF"/>
				</linearGradient>
				<path class="st58" d="M690.5,228.5l-3.4-27.9c-0.1-1.2,0.6-2.2,1.7-2.6c0.8-0.3,1.8,0.1,2.1,0.9c0,0,0,0,0,0.1
					c0.1,0.1,0.1,0.3,0.1,0.4l3.1,25.6l30.9,7.5c0.9,0.3,1.4,1.2,1.1,2.1c0,0.1-0.1,0.2-0.1,0.3c-0.4,1.1-1.5,1.7-2.6,1.5
					L690.5,228.5z"/>
				<polygon class="st8" points="152,78.7 156.2,87 165.7,86.7 169.7,96.3 179.8,92.9 184.8,103.6 194.4,101.6 201,111.1 
					197.4,113.6 192.5,106.5 182.4,108.6 177.5,98.3 167.3,101.8 162.8,91.2 153.5,91.4 149.6,83.7 143.6,85.2 142.5,80.9 				"/>
				
					<linearGradient id="SVGID_50_" gradientUnits="userSpaceOnUse" x1="624.21" y1="766.65" x2="688.1" y2="766.65" gradientTransform="matrix(1 0 0 1 0 -433.99)">
					<stop  offset="0" style="stop-color:#FE3EFF"/>
					<stop  offset="1" style="stop-color:#423EFF"/>
				</linearGradient>
				<polygon class="st59" points="629.8,332.8 638.5,336.3 645.4,329.8 654.8,334.4 660.1,325.2 671,330 676.9,322.1 688.1,325 
					687,329.2 678.6,327.1 672.4,335.4 662,330.8 656.6,340.1 646.2,335 639.4,341.4 631.4,338.1 627.8,343.2 624.2,340.7 				"/>
				<linearGradient id="SVGID_51_" gradientUnits="userSpaceOnUse" x1="418.4733" y1="535.0588" x2="418.4733" y2="430.6025">
					<stop  offset="0" style="stop-color:#FF736B"/>
					<stop  offset="1" style="stop-color:#FF2260"/>
				</linearGradient>
				<path class="st60" d="M364.7,424.9h99.2c4.6,0,8.4,3.8,8.4,8.4v99.2H364.7V424.9z"/>
				<linearGradient id="SVGID_52_" gradientUnits="userSpaceOnUse" x1="316.7525" y1="421.4118" x2="316.7525" y2="531.7125">
					<stop  offset="0" style="stop-color:#FF736B"/>
					<stop  offset="1" style="stop-color:#FF2260"/>
				</linearGradient>
				<path class="st61" d="M277.5,425.9l90.1-1v107.6H265.9v-95.1C265.9,431,271.1,425.9,277.5,425.9z"/>
			</g>
		</g>
	</g>
</g>
</svg>
