<svg xmlns="http://www.w3.org/2000/svg" xmlns:xlink="http://www.w3.org/1999/xlink" viewBox="0 0 886.92 592.94"><defs><style>.cls-1,.cls-23{opacity:0.2;}.cls-1,.cls-2,.cls-20,.cls-30{isolation:isolate;}.cls-1{fill:url(#linear-gradient);}.cls-2{fill:#b589b6;}.cls-2,.cls-20{opacity:0.5;}.cls-3{fill:#233862;}.cls-4{fill:#ffa39f;}.cls-5{fill:#f24b46;}.cls-6{fill:#ff7d78;}.cls-7{fill:url(#linear-gradient-2);}.cls-8{fill:url(#linear-gradient-3);}.cls-9{fill:#7831bb;}.cls-10{fill:#6615b2;}.cls-11,.cls-30{fill:#fff;}.cls-12{fill:url(#linear-gradient-4);}.cls-13{fill:#ebf3ff;}.cls-14{fill:#ff938f;}.cls-15{fill:url(#linear-gradient-5);}.cls-16{fill:url(#linear-gradient-6);}.cls-17{fill:url(#linear-gradient-7);}.cls-18{fill:url(#linear-gradient-8);}.cls-19{fill:url(#linear-gradient-9);}.cls-20{fill:#f9f7f7;}.cls-21{fill:url(#linear-gradient-10);}.cls-22{fill:url(#linear-gradient-11);}.cls-24{fill:url(#linear-gradient-12);}.cls-25{fill:url(#linear-gradient-13);}.cls-26{fill:url(#linear-gradient-14);}.cls-27{fill:url(#linear-gradient-15);}.cls-28{fill:url(#linear-gradient-16);}.cls-29,.cls-30{font-size:17.61px;font-family:Poppins-Medium, Poppins;font-weight:500;}.cls-29{fill:#a728ff;}.cls-31{fill:url(#linear-gradient-17);}</style><linearGradient id="linear-gradient" x1="-61.96" y1="-749.18" x2="886.92" y2="-749.18" gradientTransform="matrix(1, 0, 0, -1, 0, -452.71)" gradientUnits="userSpaceOnUse"><stop offset="0" stop-color="#ff736b" stop-opacity="0.5"/><stop offset="0.51" stop-color="#ff4a66"/><stop offset="0.77" stop-color="#ff3563"/><stop offset="1" stop-color="#ff2260"/></linearGradient><linearGradient id="linear-gradient-2" x1="215.64" y1="-962.08" x2="215.64" y2="-743.62" gradientTransform="matrix(1, 0, 0, -1, 0, -452.71)" gradientUnits="userSpaceOnUse"><stop offset="0" stop-color="#fe3eff"/><stop offset="1" stop-color="#423eff"/></linearGradient><linearGradient id="linear-gradient-3" x1="181.98" y1="-645.57" x2="181.98" y2="-722.4" gradientTransform="matrix(1, 0, 0, -1, 0, -452.71)" gradientUnits="userSpaceOnUse"><stop offset="0" stop-color="#ff736b"/><stop offset="1" stop-color="#ff2260"/></linearGradient><linearGradient id="linear-gradient-4" x1="165.07" y1="-962.08" x2="165.07" y2="-743.62" xlink:href="#linear-gradient-2"/><linearGradient id="linear-gradient-5" x1="749.83" y1="-803.6" x2="1038.79" y2="-853.7" gradientTransform="matrix(0.97, 0.25, 0.25, -0.97, -50.19, -885.19)" xlink:href="#linear-gradient-2"/><linearGradient id="linear-gradient-6" x1="749.89" y1="-781.19" x2="776.61" y2="-939.02" gradientTransform="matrix(1, 0, 0, -1, 0, -452.71)" gradientUnits="userSpaceOnUse"><stop offset="0" stop-color="#553eff"/><stop offset="1" stop-color="#00f0ff"/></linearGradient><linearGradient id="linear-gradient-7" x1="738.83" y1="-729.13" x2="729.64" y2="-937.91" xlink:href="#linear-gradient-6"/><linearGradient id="linear-gradient-8" x1="740.56" y1="-765.83" x2="740.56" y2="-617.99" xlink:href="#linear-gradient-2"/><linearGradient id="linear-gradient-9" x1="572.52" y1="-658.01" x2="572.52" y2="-861.1" xlink:href="#linear-gradient-3"/><linearGradient id="linear-gradient-10" x1="314.18" y1="-658.01" x2="314.18" y2="-861.1" xlink:href="#linear-gradient-3"/><linearGradient id="linear-gradient-11" x1="545.79" y1="-658.01" x2="545.79" y2="-861.1" xlink:href="#linear-gradient-3"/><linearGradient id="linear-gradient-12" x1="633.77" y1="258.38" x2="633.77" y2="313.82" gradientTransform="matrix(1, 0, 0, 1, 0, 0)" xlink:href="#linear-gradient-2"/><linearGradient id="linear-gradient-13" x1="633.74" y1="258.38" x2="633.74" y2="313.82" gradientTransform="matrix(1, 0, 0, 1, 0, 0)" xlink:href="#linear-gradient-2"/><linearGradient id="linear-gradient-14" x1="360.76" y1="342.38" x2="360.76" y2="396.39" gradientTransform="matrix(1, 0, 0, 1, 0, 0)" xlink:href="#linear-gradient-2"/><linearGradient id="linear-gradient-15" x1="405.67" y1="141.38" x2="405.67" y2="195.46" gradientTransform="matrix(1, 0, 0, 1, 0, 0)" xlink:href="#linear-gradient-2"/><linearGradient id="linear-gradient-16" x1="405.66" y1="141.38" x2="405.66" y2="195.46" gradientTransform="matrix(1, 0, 0, 1, 0, 0)" xlink:href="#linear-gradient-2"/><linearGradient id="linear-gradient-17" x1="738.36" y1="-636.01" x2="731.67" y2="-746.25" xlink:href="#linear-gradient-2"/></defs><title>Asset10</title><g id="Layer_2" data-name="Layer 2"><g id="Layer_1-2" data-name="Layer 1"><path class="cls-1" d="M567.05,0C397.26,0,369.86,29.94,206,47.5A229.28,229.28,0,0,0,4.19,237h0c-28.7,169.08,93.39,326.5,264.29,340.84,95.1,8,172.39,15.1,286,15.1,290.78,0,332.46-126.56,332.46-307.05S771.66,0,567.05,0Z"/><ellipse class="cls-2" cx="472.27" cy="511.93" rx="329.49" ry="10.65"/><path class="cls-3" d="M739.94,493.38s-1,16.72-4.27,17H719.26l-20.39-.12s.14-4.91,6.1-6,15.93-5.23,19.55-13.11C728.31,482.88,739.94,493.38,739.94,493.38Z"/><path class="cls-3" d="M785.36,493.38s-1,16.72-4.27,17H764.68l-20.45-.07s.2-5,6.16-6,15.93-5.23,19.54-13.11C773.76,482.88,785.36,493.38,785.36,493.38Z"/><polygon class="cls-4" points="163.09 464.05 169.47 490.87 179 490.81 179.35 464.05 163.09 464.05"/><polygon class="cls-4" points="243.31 465.2 261.43 490.87 268.49 481.8 257.58 461.67 243.31 465.2"/><path class="cls-3" d="M196.22,111.7a18.34,18.34,0,0,0-10-1.91,4.56,4.56,0,0,1,2.1-1c-1.71-.26-5.53,1.44-5.53,1.44-23.8-9.17-27.54,25.87-27,34s-8,10.8-20.38,17.21c-23.63,12.24-25.7,28.63-25.7,28.63.18.11.37.23.58.38,1.17-2,3.58-5.72,5.62-6.28a80.43,80.43,0,0,0-3.28,8c7,5.3,20,17.05,29.1,25.38a13.28,13.28,0,0,1,.62-5.16l1.12,6.76c4.87,4.47,8.22,7.62,8.22,7.62-.6-6.58,29.76-41.3,45.6-51.7,3.85-5.68,5.22-15.71,5.33-16.5-.67,8-2,12.42-3.24,14.93C212.76,161.14,205,116.66,196.22,111.7Z"/><path class="cls-4" d="M196.32,175.58c.08,0-7.65,4-13.46,2.45-5.47-1.49-9-8.58-9-8.59,2.31-.46,3-3.64,2.93-17.32l1.05.21,17.6,3.49s-.4,5.53-.42,10.75C195.05,171,195.32,175.11,196.32,175.58Z"/><path class="cls-5" d="M176.42,117.44s8.68-9.25,19.58-.48C196,117,189.66,115.87,176.42,117.44Z"/><path class="cls-6" d="M195.48,155.82s-.4,5.53-.42,10.75c-9.84-.28-15.05-9.26-17.18-14.24Z"/><path class="cls-3" d="M176.06,150.38s-5.16-8.16-6.4-15.13c-.88-5,1.65-23.43,20.19-20.77a25.2,25.2,0,0,1,10.45,4c4,2.71,9.84,8.58,3.34,24.69L202,148.61Z"/><path class="cls-7" d="M265.62,474.77l-9.33.28-10.1.31s-23.32-26-36.4-67.59c-.31-1-.63-1.95-1-2.94-7.16-20.88-22-47.08-29.83-70.8-1.24-3.78-2.36-7.34-3.36-10.71-.32-1.07-.64-2.13-.93-3.17-5.77-20-7.44-33.18-9-47.23l56.49.45S231.33,369.31,265.62,474.77Z"/><path class="cls-8" d="M214.3,240.91c-.14,26.88,3.94,38.41,3.94,38.41s-24.18,12.29-52.92,3.24c-.34-.1-23.8-5.46-23.8-5.46.48-1.08,4.76-19.2,5.22-20.2,6.07-13,10.68-18.74,11.4-22.75a85.79,85.79,0,0,0,.7-22.52,181.17,181.17,0,0,0-7-35.36c7.83-1.78,15.37-4.83,23.52-7.89,1.87,2.34,7.4,4.7,12.38,4.59,5.72-.13,7.51-2.55,7.3-5.28,6.1,3.4,11,6.62,11,6.62,5.19,9,15.7,17.76,16.46,31.58C222.67,209.28,214.3,240.16,214.3,240.91Z"/><path class="cls-9" d="M165.76,243.91c-2.47,3.49-7.2,24.73-19,27.4,6.07-15.14,10.68-21.77,11.4-26.43a115.54,115.54,0,0,0,.7-26.15c3.9-6.91,6.9-11.65,6.9-11.65.31-1.12,6.27-19.53,8.18-3.07S168.48,240,165.76,243.91Z"/><path class="cls-4" d="M198.76,160.76s-23.3.38-23.31-14.13-3-24.24,11.84-25.1,17.77,4.67,19,9.52S204.83,160.28,198.76,160.76Z"/><path class="cls-3" d="M205.55,123c-3.59-4.36-6.31-3.41-7.84-2.1-5-7.53-21,3.35-21,3.35a27.75,27.75,0,0,1-9.07,16.38s4.25,2.63,14,.11c7.71-2,13.3-13,15.33-17.53,1.39,1.23,4.31,4.08,5.19,6.86,1.16,3.7,1.68,11.31,3.9,11C206.15,141.1,211,129.53,205.55,123Z"/><path class="cls-4" d="M169.15,489.38a26,26,0,0,1-1.21,11s-1.57,7.11,5.44,7.25,8.72-.53,7.93-4.89-2.3-11.91-2.3-11.91Z"/><path class="cls-10" d="M182,511.1H167.43c-.79-3.72.5-10.73.5-10.73,7.94,7.58,12.9-.19,12.9-.19C182.12,503.38,182,511.1,182,511.1Z"/><path class="cls-4" d="M285.37,503.76s-12.91-14.66-16.88-22l-9.6,4.92,21.47,20.2,5-.66Z"/><path class="cls-10" d="M293.29,511.07H275.38c-1.58-1.42-3.09-4.28-4.93-8-1.06-2.15-3.42-3.34-5.85-4v12h-3.7l-3.44-12.79c-2.28-4.29-.57-8.22,1-11.6,1.87,0,7.3,1.34,16.84,12.3,3.13,3.6,6.59,4.89,10,4.78l.14.08C291,506.38,292.76,509.38,293.29,511.07Z"/><path class="cls-11" d="M292.42,184.84s-15.29,8.56-20.76,11c-1.94.88-5.46,2.52-9,4.2-2.18,1-4.37,2-6.27,2.94a7.9,7.9,0,0,1-9.35-2c-8.28-9.67-29.71-30.63-51.84-33.26h-.08l.12.24c1.25,3.09,13.38,33.41,13.76,39.81.39,6.73,1.58,110.21,1.58,110.21s-.79,4.76,8.33,2.77,11.5-4,11.5-4-8.73-63.83-6.35-86a49.47,49.47,0,0,0-.93-14.31c13.48,8.17,29.38,11.8,29.38,11.8a134.75,134.75,0,0,0,15.14-8.3,95.45,95.45,0,0,0,12.76-10.27c5.34-4.89,14.51-16.7,14.51-16.7Z"/><path class="cls-2" d="M256.29,475.05l-10.1.31s-23.32-26-36.4-67.59c-.31-1-.63-1.95-1-2.94-7.16-20.88-22-47.08-29.83-70.8-1.24-3.78-2.36-7.34-3.36-10.71-.32-1.07-.64-2.13-.93-3.17l8.31-6.32s25,40.44,32.71,78.5C222.43,425.38,249.33,465.16,256.29,475.05Z"/><path class="cls-12" d="M183.88,395.87c.14,18.51-.79,61.06-3.2,78.67h-8.92c-4.94,0-7.4-.07-7.4-.07-6-30.63-10.35-56-13.48-77.81-2.57-17.91-4.86-33.28-6.61-46.5s-3-24.46-3.44-33.87c-.07-1.48-.12-2.93-.15-4.33s0-2.77,0-4.1l48.8-4.76C188.82,335.53,183.76,385.12,183.88,395.87Z"/><path class="cls-2" d="M171.76,474.54c-4.94,0-7.4-.07-7.4-.07-6-30.63-10.35-56-13.48-77.81-2.57-17.91-4.86-33.28-6.61-46.5s-3-24.46-3.44-33.87l17.93,10.53s-11.43,4-7.07,34.56S165.67,470.22,171.76,474.54Z"/><path class="cls-11" d="M174,316s-3.44,12.39-15.28,10.83S130,318.1,130,318.1,135,302,141.35,280.94c7.66-25.54,17.13-58.47,21.59-79.24a130.48,130.48,0,0,0,2.43-14.16l10-19.16s14.51,33,15.3,41.36S174,316,174,316Z"/><path class="cls-4" d="M216.52,219c-5.73.75-7.92,3.8-8.63,7.9a17.63,17.63,0,0,1-2.49,5.95c-5.7.3-19.28,1-30.69,1.77l-.94,15a170.61,170.61,0,0,0,34.14-8.08,9.1,9.1,0,0,0,3.85-2.19c8.21-6.73,12.87-18,12.89-19.61S222.24,218.28,216.52,219Z"/><path class="cls-13" d="M173.51,227.18c-.53,13.48-3.7,39.65-32,53.65l-.23.11c7.66-25.54,17.13-58.47,21.59-79.24C168.08,209.46,173.76,219.76,173.51,227.18Z"/><path class="cls-11" d="M175.39,168.38s-24.19,1.72-30,14.67-7.67,56-.27,68.72c0,0,10.19,2.9,28.21-.47l.67-.13s5.74-14.07.59-16.85c0,0-15.2.8-13.61-4.23S175.39,168.38,175.39,168.38Z"/><path class="cls-4" d="M308.82,174.68c-13-1.67-16.3,10.16-16.3,10.16L295,193c4,.56,7.52-.49,10.76-5.12s4.12-2.85,6.18-6.29C314.68,176.89,310.32,175.15,308.82,174.68Z"/><path class="cls-4" d="M271.66,195.86c-1.94.88-5.46,2.52-9,4.2,1.92,3.41,4.33,9.62,5,19.88a83.68,83.68,0,0,0,13.1-10.56A175,175,0,0,0,294.89,193l-2.43-8.13S277.13,193.38,271.66,195.86Z"/><path class="cls-3" d="M747.18,142.26s-2.09-20-24.16-21.44c-15.12-1-7.08-14.22-5.53-16.33,0,0,11.6,1.26,23.49,2.88C766,110.78,749.54,139.07,747.18,142.26Z"/><path class="cls-14" d="M653.67,154.43s-5.93-8.23-6.45-14.74-7.32-15.4-10.08-16.18-3.36.14-3,3.3,0,15.07,5.17,20.79S648,162,648,162Z"/><path class="cls-15" d="M764.16,202.47s-77.13,18.3-90.34,3.83c-6.52-7.14-28.37-41.42-33.4-52.12,0,0,1.13-3.55,10.28-6.37,0,0,29.5,33.33,39.43,35.82,14.78,3.71,45.25-23.58,60.14-17.5S776.64,187.77,764.16,202.47Z"/><path class="cls-16" d="M717.36,320.45s5.33,32.92,25.22,91.35,22.61,83.74,22.61,83.74a90.94,90.94,0,0,0,11.07.75A72.51,72.51,0,0,0,786.53,495s.19-63.86-9-93.24-2-105.93-2-105.93Z"/><path class="cls-17" d="M707,297.59a768.28,768.28,0,0,0,8.14,110.51C724,469,721,494.85,721,494.85s7.32,1.27,9.89,1.35c2.75.09,11.41-.66,11.41-.66s12.73-60.93,9.08-91.41,17.39-104.6,17.39-104.6Z"/><path class="cls-14" d="M729.36,169.65a34.56,34.56,0,0,0-9.15,8.77c14.87,3.4,38.95-11,38.95-11s-9.68-6.12-13.59-20c-.2-.71-.38-1.43-.54-2.17a43,43,0,0,1-1-7.65l-6.61,6.26-11,10.42a97,97,0,0,0,2,11.35C728.68,166.88,729,168.22,729.36,169.65Z"/><path class="cls-18" d="M776.76,238c-1.32,28.49,3.45,71.61,1.26,79.17-1.89,6.52-26.35,3.38-35.83,1.48-3.5-.7-7.75-1.72-12.15-2.95-12.28-3.42-25.71-8.42-27.28-12.32-.06-.16-.11-.31-.15-.46a3.62,3.62,0,0,1,0-1.67c.42-2.05,2.18-4.3,2.26-9.34.08-5.63-.14-12.25-.13-19.38V269.3c0-7.94.17-16.3.42-24.59.16-5.21.37-10.37.64-15.32.7-12.76,1.81-24.13,3.5-31.34,2.76-11.76,9.36-19.57,15.41-25.32l4.38-4a26,26,0,0,0,16.22-2.63c5.71-2.91,7.66-4.94,8.69-4.22C767.76,171.81,778.23,203.17,776.76,238Z"/><path class="cls-2" d="M730.06,315.76c-12.3-3.38-25.66-8.38-27.19-12.38a2.59,2.59,0,0,1-.14-.45v-1.68c.42-2,2.18-4.3,2.26-9.34.08-5.63-.14-12.25-.13-19.38v-3.22L750.2,247.2S753.88,284.13,730.06,315.76Z"/><path class="cls-6" d="M726.41,154.28a97,97,0,0,0,2,11.35c10.91-3.87,15.62-13.95,17.17-18.21.44-1.21.63-1.95.63-1.95l-1.17-.22-7.63-1.39Z"/><path class="cls-14" d="M722,154.29s24.26,2.05,25.31-13.08,4.88-25.05-10.57-27-18.86,3.62-20.43,8.58S715.67,153.38,722,154.29Z"/><path class="cls-19" d="M481.63,188.69a98.29,98.29,0,0,1,72.61,47.69l71.44-1.9,37.73-62.1A224.76,224.76,0,0,0,482.33,61.73l34.27,62.48Z"/><path class="cls-20" d="M560.38,248.76a98.31,98.31,0,0,1-5.92,86.77l37.36,60.92L664.56,398a225.14,225.14,0,0,0,5.77-213l-37.51,61.81Z"/><path class="cls-20" d="M391.17,226.91A98.06,98.06,0,0,1,467.81,188l34.56-63.72L467.89,61.38A224.58,224.58,0,0,0,282.1,162l70.2,1.54Z"/><path class="cls-21" d="M378.65,323.52a98.15,98.15,0,0,1,5-85l-38.44-62.64-70.75-1.5a225.14,225.14,0,0,0-6.65,211.16l36.41-60Z"/><path class="cls-20" d="M455.54,383.38a98.3,98.3,0,0,1-70.78-47.52l-73.41,1.95-36.72,60.5a224.79,224.79,0,0,0,180,112.16l-34.2-62.34Z"/><path class="cls-22" d="M546.76,346.86a98,98,0,0,1-77.24,37.52h-.31l-34.55,63.71L469.15,511h.37a224.59,224.59,0,0,0,187.4-100.59l-72.16-1.59Z"/><path class="cls-11" d="M542.65,431.07c0,.84-.22,1.53-1.27,1.53H504a1.92,1.92,0,0,1-1.91-1.91V395.46c0-1,.69-1.27,1.53-1.27s1.52.23,1.52,1.27v32.18a1.92,1.92,0,0,0,1.91,1.91h34.32c1,0,1.27.68,1.27,1.52Z"/><path class="cls-11" d="M539.09,407.25c.44.28.76.08.71-.44l-.73-8.12a.69.69,0,0,0-.7-.68.6.6,0,0,0-.3.07l-7.64,2.86c-.48.18-.52.55-.08.83l1.42.89a1,1,0,0,1,.28,1.3h0l-5.78,8.76a1.24,1.24,0,0,1-1.4.46l-9-3.4a1.43,1.43,0,0,0-1.49.4L508.76,417a3,3,0,0,0-.61,1.68v5.57c0,.52.27.62.61.22L516,416a1.48,1.48,0,0,1,1.51-.38l9,3.43a1.25,1.25,0,0,0,1.41-.46L536,406.47a1,1,0,0,1,1.32-.29Z"/><g class="cls-23"><path class="cls-11" d="M642.18,292.05a.2.2,0,0,1-.25,0l-21.17-15.73a.22.22,0,0,0-.22,0,.21.21,0,0,0-.12.19v22.24a.77.77,0,0,0,.78.77h41.56a.78.78,0,0,0,.83-.72s0,0,0-.05V276.38a.25.25,0,0,0-.12-.19.24.24,0,0,0-.23,0Z"/><path class="cls-11" d="M663.58,272.46v-.31a.77.77,0,0,0-.77-.77H621.26a.77.77,0,0,0-.83.71v.45l21.52,14a.19.19,0,0,0,.23,0Z"/></g><path class="cls-24" d="M634.18,292.05a.2.2,0,0,1-.25,0l-21.17-15.73a.43.43,0,0,0-.35,0c-.07,0-.24.11-.24.19v22.24a1.16,1.16,0,0,0,1.08.94h41.51c.46,0,.59-.47.59-.94V276.38c0-.08.07-.16,0-.19s-.09,0-.16,0Z"/><path class="cls-25" d="M655.34,272.46v-.31c0-.47-.13-.61-.59-.61H613.23c-.46,0-1.09.14-1.09.61v.39l21.67,14a.14.14,0,0,0,.17,0Z"/><g id="_2" data-name=" 2"><g class="cls-23"><path class="cls-11" d="M566.41,113c.34-.68.88-.68,1.21,0L573,123.79a2.9,2.9,0,0,0,2,1.43L587,127c.75.11.92.63.38,1.15l-8.67,8.44a2.9,2.9,0,0,0-.75,2.31l2,11.93c.12.74-.32,1.06-1,.71l-10.71-5.63a2.92,2.92,0,0,0-2.42,0L555.1,151.5c-.67.35-1.11,0-1-.71l2-11.93a3,3,0,0,0-.75-2.31l-8.59-8.44c-.54-.52-.37-1,.37-1.15l12-1.74a2.94,2.94,0,0,0,2-1.43Z"/></g><path class="cls-11" d="M566.18,113.38c.46-.93,1.21-.93,1.67,0l4.91,10a4.08,4.08,0,0,0,2.7,2L586.4,127c1,.15,1.27.87.52,1.59L579,136.28a4,4,0,0,0-1,3.17l1.87,10.9c.18,1-.43,1.47-1.36,1l-9.78-5.14a4.05,4.05,0,0,0-3.34,0l-9.79,5.14c-.92.49-1.53,0-1.36-1l1.87-10.9a4,4,0,0,0-1-3.17l-7.92-7.72c-.75-.72-.51-1.44.52-1.59l10.94-1.59a4.15,4.15,0,0,0,2.71-2Z"/></g><path class="cls-26" d="M360.76,354.72c-9.61,0-17.4,6.78-17.4,15.14S351.15,385,360.76,385a10.89,10.89,0,0,0,3.5-.3c6.19-2.17,1.52,9.89,1.52,9.89s7.32-7.44,10.56-15.12a24.86,24.86,0,0,0,1.82-9.6C378.12,361.5,370.33,354.72,360.76,354.72Zm-7.69,19.07a2.62,2.62,0,1,1,2.62-2.62h0a2.62,2.62,0,0,1-2.62,2.62h0Zm7.69,0a2.62,2.62,0,1,1,2.63-2.62,2.62,2.62,0,0,1-2.63,2.62Zm7.71,0a2.62,2.62,0,1,1,2.62-2.62h0a2.62,2.62,0,0,1-2.6,2.62h0Z"/><path class="cls-11" d="M328.47,242.51a6.3,6.3,0,0,0-4.71,2.17L314,239.56a10.36,10.36,0,0,0-.2-7.62l7.59-4.56a4.57,4.57,0,0,0,3,1.08,4.68,4.68,0,1,0-4.68-4.68h0a4.19,4.19,0,0,0,.17,1.17l-7.53,4.52a10.42,10.42,0,1,0,.35,12.64l9.73,5.12a6.06,6.06,0,0,0-.2,1.58,6.31,6.31,0,1,0,6.32-6.3h-.1Z"/><circle class="cls-27" cx="405.67" cy="154.63" r="9.43"/><path class="cls-28" d="M414.56,162.38h-.18a11.42,11.42,0,0,1-16.09,1.34,11.22,11.22,0,0,1-1.33-1.34h-.2a7.79,7.79,0,0,0-7.76,7.76v11.44h5.76V175.2a.84.84,0,0,1,.75-.94.87.87,0,0,1,.94.76v6.56H414.9V175.2a.84.84,0,0,1,.75-.94.87.87,0,0,1,.94.76v6.56h5.73V170.11A7.79,7.79,0,0,0,414.56,162.38Z"/><text class="cls-29" transform="translate(370.19 130.9)">Business</text><text class="cls-30" transform="translate(524.93 178.35)">Developer</text><text class="cls-29" transform="translate(597.51 336)">Design</text><text class="cls-30" transform="translate(474.68 456.42)">Marketing</text><text class="cls-29" transform="translate(305.96 411.35)">Photography</text><text class="cls-30" transform="translate(288.51 286.82)">Web</text><path class="cls-14" d="M706.76,289.64s-8.51,5.54-15,5.76S676,302,675.13,304.71s0,3.36,3.16,3.12,15,.67,21-4.2,14.81-8,14.81-8Z"/><path class="cls-31" d="M759.87,181.51s14.69,77.9-.39,90.42c-7.43,6.18-42.69,26.4-53.62,30.93,0,0-3.48-1.29-5.87-10.56,0,0,34.66-27.92,37.61-37.72,4.39-14.6-21.44-46.3-14.68-60.89S745.76,168.38,759.87,181.51Z"/></g></g></svg>