<svg xmlns="http://www.w3.org/2000/svg" xmlns:xlink="http://www.w3.org/1999/xlink" viewBox="0 0 898 496.05"><defs><style>.cls-1,.cls-14{opacity:0.2;}.cls-1,.cls-14,.cls-15,.cls-46{isolation:isolate;}.cls-1{fill:url(#linear-gradient);}.cls-2{fill:#9ec3f6;}.cls-3{fill:#cde0fb;}.cls-4,.cls-46{opacity:0.5;}.cls-5{fill:#fff;}.cls-6{fill:url(#linear-gradient-2);}.cls-7{fill:url(#linear-gradient-3);}.cls-8{fill:url(#linear-gradient-4);}.cls-9{fill:url(#linear-gradient-5);}.cls-10{fill:url(#linear-gradient-6);}.cls-11{fill:url(#linear-gradient-7);}.cls-12{fill:url(#linear-gradient-8);}.cls-13{fill:#f1a34f;}.cls-14,.cls-21{fill:#233862;}.cls-15{fill:#ebeef3;opacity:0.1;}.cls-16{fill:url(#linear-gradient-9);}.cls-17{fill:url(#linear-gradient-10);}.cls-18{fill:#e9f3fe;}.cls-19{fill:url(#linear-gradient-11);}.cls-20{fill:url(#linear-gradient-12);}.cls-22{fill:#c65447;}.cls-23{fill:url(#linear-gradient-13);}.cls-24{fill:#ffb27d;}.cls-25{fill:#e2915a;}.cls-26{fill:url(#linear-gradient-14);}.cls-27{fill:url(#linear-gradient-15);}.cls-28{fill:url(#linear-gradient-16);}.cls-29{fill:url(#linear-gradient-17);}.cls-30{fill:url(#linear-gradient-18);}.cls-31{fill:#adcbf9;}.cls-32{fill:#fcecdb;}.cls-33{fill:#699dee;}.cls-34{fill:#548ee2;}.cls-35{fill:#f4d2b8;}.cls-36{fill:#2b478b;}.cls-37{fill:#568cdb;}.cls-38{fill:#b5453c;}.cls-39{fill:#f99746;}.cls-40{fill:#ed7d2b;}.cls-41{fill:url(#linear-gradient-19);}.cls-42{fill:#ed975d;}.cls-43{fill:url(#linear-gradient-20);}.cls-44{fill:#ebf3ff;}.cls-45{fill:url(#linear-gradient-21);}.cls-46{fill:#b589b6;}</style><linearGradient id="linear-gradient" y1="355.69" x2="898" y2="355.69" gradientTransform="matrix(1, 0, 0, -1, 0, 603.3)" gradientUnits="userSpaceOnUse"><stop offset="0" stop-color="#ff736b" stop-opacity="0.5"/><stop offset="0.51" stop-color="#ff4a66"/><stop offset="0.77" stop-color="#ff3563"/><stop offset="1" stop-color="#ff2260"/></linearGradient><linearGradient id="linear-gradient-2" x1="50.74" y1="400.93" x2="390.74" y2="400.93" gradientTransform="matrix(1, 0, 0, -1, 0, 603.3)" gradientUnits="userSpaceOnUse"><stop offset="0" stop-color="#00f0ff"/><stop offset="1" stop-color="#553eff"/></linearGradient><linearGradient id="linear-gradient-3" x1="304.6" y1="231.2" x2="407.19" y2="231.2" gradientTransform="matrix(1, 0, 0, -1, 0, 603.3)" gradientUnits="userSpaceOnUse"><stop offset="0" stop-color="#423eff"/><stop offset="1" stop-color="#fe3eff"/></linearGradient><linearGradient id="linear-gradient-4" x1="361.46" y1="95.39" x2="361.46" y2="175.26" gradientTransform="matrix(1, 0, 0, -1, 0, 603.3)" gradientUnits="userSpaceOnUse"><stop offset="0" stop-color="#fe3eff"/><stop offset="1" stop-color="#423eff"/></linearGradient><linearGradient id="linear-gradient-5" x1="121.86" y1="324.93" x2="601.73" y2="324.93" xlink:href="#linear-gradient-4"/><linearGradient id="linear-gradient-6" x1="115.38" y1="321.66" x2="196.85" y2="321.66" xlink:href="#linear-gradient-4"/><linearGradient id="linear-gradient-7" x1="188.23" y1="171.04" x2="601.73" y2="171.04" xlink:href="#linear-gradient-3"/><linearGradient id="linear-gradient-8" x1="329.54" y1="110.96" x2="416.66" y2="110.96" xlink:href="#linear-gradient-4"/><linearGradient id="linear-gradient-9" x1="655.43" y1="90.61" x2="26.4" y2="635.39" xlink:href="#linear-gradient-4"/><linearGradient id="linear-gradient-10" x1="388.32" y1="202.84" x2="410.24" y2="202.84" xlink:href="#linear-gradient-4"/><linearGradient id="linear-gradient-11" x1="138.41" y1="454.06" x2="511.81" y2="454.06" gradientTransform="matrix(1, 0, 0, -1, 0, 603.3)" gradientUnits="userSpaceOnUse"><stop offset="0" stop-color="#553eff" stop-opacity="0.2"/><stop offset="1" stop-color="#00f0ff"/></linearGradient><linearGradient id="linear-gradient-12" x1="270.03" y1="313.25" x2="309.83" y2="313.25" xlink:href="#linear-gradient-4"/><linearGradient id="linear-gradient-13" x1="281.6" y1="394.19" x2="321.61" y2="243.25" gradientTransform="matrix(1, 0, 0, -1, 0, 603.3)" gradientUnits="userSpaceOnUse"><stop offset="0" stop-color="#ff736b"/><stop offset="1" stop-color="#ff2260"/></linearGradient><linearGradient id="linear-gradient-14" x1="221.26" y1="378.19" x2="261.28" y2="227.26" xlink:href="#linear-gradient-13"/><linearGradient id="linear-gradient-15" x1="205.68" y1="337.5" x2="264.58" y2="337.5" xlink:href="#linear-gradient-13"/><linearGradient id="linear-gradient-16" x1="286.34" y1="346.01" x2="286.34" y2="243.49" xlink:href="#linear-gradient-2"/><linearGradient id="linear-gradient-17" x1="245.12" y1="370.37" x2="261.15" y2="370.37" xlink:href="#linear-gradient-4"/><linearGradient id="linear-gradient-18" x1="271.65" y1="371.77" x2="278.31" y2="371.77" xlink:href="#linear-gradient-4"/><linearGradient id="linear-gradient-19" x1="586.17" y1="225.66" x2="754.93" y2="225.66" xlink:href="#linear-gradient-4"/><linearGradient id="linear-gradient-20" x1="675.05" y1="151.76" x2="649.77" y2="250.04" xlink:href="#linear-gradient-4"/><linearGradient id="linear-gradient-21" x1="664.69" y1="310.5" x2="664.69" y2="270.6" xlink:href="#linear-gradient-13"/></defs><title>Asset9</title><g id="Layer_2" data-name="Layer 2"><g id="Layer_1-2" data-name="Layer 1"><path class="cls-1" d="M55.06,495S-55.28,377.05,36.44,249.38c81.29-113.29,176.12-105.54,245.65-59.57C311.72,209.39,397.16,192.23,469.88,77c99.19-157.22,443-61.86,380.28,180C819.83,374,942.47,378.24,880,495.23Z"/><polygon class="cls-2" points="382.52 87.27 429.17 93.93 398.21 72.83 396.64 79.59 385.3 81.65 382.52 87.27"/><polygon class="cls-3" points="429.17 93.93 390.35 73.91 352.31 72 429.17 93.93"/><polygon class="cls-3" points="398.21 72.83 429.17 93.93 405.21 60.96 398.21 72.83"/><g class="cls-4"><path class="cls-5" d="M643.34,179.29l-11.73,8.41-11.8-8.32a14.45,14.45,0,0,1,23.53-.09Z"/><path class="cls-5" d="M631.61,152.75a34.87,34.87,0,0,0-28.54,14.83l7.44,5.23a25.81,25.81,0,0,1,42.07-.15l7.41-5.32A34.89,34.89,0,0,0,631.61,152.75Z"/><path class="cls-5" d="M631.61,113.76a73.76,73.76,0,0,0-60.39,31.36l7.44,5.23A64.76,64.76,0,0,1,684.28,150l7.38-5.32A73.76,73.76,0,0,0,631.61,113.76Z"/><path class="cls-5" d="M631.61,135.09a52.8,52.8,0,0,0-43.07,22.25l7.45,5.23a43.75,43.75,0,0,1,71-.27l7.39-5.29A52.79,52.79,0,0,0,631.61,135.09Z"/></g><path class="cls-6" d="M388.26,230.37l-10.75-.25c3.45,4.48,4.23,8.61,2.08,12.1s-7.3,6.49-15,8.71A139,139,0,0,0,174.28,77.11h0c-6-1.82-11.79-3.32-17.41-4.46-28.34-5.75-48.45-1.77-56.62,11.2-7.78,12.33-3.55,30.9,11.88,52.55h0a139.76,139.76,0,0,0-9.21,21.16c-29,1.73-44.5,6.83-50.14,16.07-6.56,10.76,2.39,25.19,31.06,39.23,4,1.94,8.19,3.84,12.63,5.75a138.94,138.94,0,0,0,265.4,39.1c14.14-2.92,23.45-7.51,27.15-13.57C391.58,240,391.26,235.31,388.26,230.37Zm-33.18,22.74a214.54,214.54,0,0,1-34.88,2.83c-21.29.25-45.73-1.43-71.49-4.82q3.24-7.08,6.36-14.53a195,195,0,0,0,23.15,6.29,116.72,116.72,0,0,0,23.12,2.58c16.19,0,27.78-4.68,33.51-13.77a23.75,23.75,0,0,0,2.3-4.76H328.9c-.14.25-.28.5-.43.74-4.26,6.75-13.76,10.24-27.11,10.24a110.11,110.11,0,0,1-21.64-2.42,188.68,188.68,0,0,1-21.79-5.84q3-7.46,5.78-15.18c5-13.87,9.34-27.62,12.82-40.82,28.23,4.17,57.71,4.29,86,2.15a131.54,131.54,0,0,1,2.7,26.62,130.12,130.12,0,0,1-10.15,50.69ZM183.19,322c-4-1.46-6.05-7.22-7.05-11.79-1.59-7.23-1.88-17.39-.83-29.37.52-6.06,1.37-12.51,2.51-19.24a358.29,358.29,0,0,1,48.6,16.81c-3.58,6.16-7.19,11.87-10.8,17.05-6.88,9.86-13.61,17.48-19.46,22C192.45,320.32,187.2,323.43,183.19,322Zm46.86-50a366,366,0,0,0-50.91-17.63q.92-4.69,2-9.54c4.79,1.09,9.66,2.14,14.58,3.16,14.4,3,28.77,5.45,42.84,7.47q-4.19,8.63-8.51,16.5Zm-31.16-29.23q-8.34-1.71-16.44-3.58c2.54-10.56,5.66-21.57,9.29-32.79a322,322,0,0,0,56.38,27.81c-2.29,5.45-4.64,10.77-7,15.92-13.87-2-28-4.46-42.23-7.4Zm-46.2-142.53c10.51,21.54,30.78,39.29,52.59,51.07C200,162.76,195,175.05,190.33,187.8q-1.29,3.57-2.52,7.13c-27.63-18-51-38.64-66.38-58.61h0a131.52,131.52,0,0,1,31.26-36.14ZM270.86,80.28c4,1.46,6.05,7.22,7.05,11.79,1.59,7.23,1.87,17.39.83,29.37a292.62,292.62,0,0,1-7.68,43.88C251.84,162,232.64,156.56,215,148a297.88,297.88,0,0,1,23.48-41.16c6.88-9.86,13.61-17.47,19.46-22,3.05-2.36,7.16-4.9,10.76-4.9a6.61,6.61,0,0,1,2.21.32Zm-1.63,92.19c-3.39,12.76-7.57,26.06-12.43,39.48-1.88,5.17-3.82,10.27-5.82,15.26A314.73,314.73,0,0,1,194.2,199q1.47-4.34,3.05-8.68c4.52-12.47,9.43-24.47,14.58-35.71,18,8.69,37.52,14.32,57.4,17.79Zm57.71-62.59a130.43,130.43,0,0,1,33.92,58.66c-30.16,2.2-57.8,1.51-82.51-2.06a300.77,300.77,0,0,0,7.72-44.4c1.28-14.7,1.12-32.11-4.84-41.9a130.12,130.12,0,0,1,45.71,29.66Zm-92.5-38.34a130.75,130.75,0,0,1,26.69,2.72c-10.28,4.48-20.77,16.93-28.74,28.35a307.09,307.09,0,0,0-24,42c-20.75-11.27-40.35-28.56-49.72-48.92A130.41,130.41,0,0,1,234.44,71.5ZM106.61,87.88c4.25-6.75,13.76-10.24,27.1-10.24a110.11,110.11,0,0,1,21.64,2.42c3,.61,6.13,1.34,9.28,2.17h0a139.59,139.59,0,0,0-48.34,47h0C104.5,111.65,101,96.84,106.61,87.88Zm10.89,55.67h0c16.17,20.2,40,40.85,67.82,58.77-3.94,12-7.31,23.81-10,35.13-23.08-5.59-49.9-13.48-71.08-22.45a130.65,130.65,0,0,1,5.43-52.12A128.42,128.42,0,0,1,117.5,143.55ZM90.24,208.72c-25-12.21-36.43-24-31.31-32.34,4.12-6.77,19.15-11.36,42.14-13a139.53,139.53,0,0,0-5.29,48C93.87,210.48,92,209.65,90.24,208.72ZM174,243.1c-.72,3.18-1.37,6.32-2,9.4-1.6-.39-3.21-.77-4.81-1.13-27.15-6.18-47.51-7.44-56.95-7.65a128.1,128.1,0,0,1-5.15-21.6C123.58,229.23,144.39,236.05,174,243.1Zm-61,8.08a296,296,0,0,1,52.58,7.36c1.71.39,3.41.8,5.12,1.21-1.23,7.16-2.14,14-2.69,20.43-1.06,12.18-1.14,26.23,2.26,36.26A131.48,131.48,0,0,1,113,251.18Zm81.79,75.93c9.68-5.07,19.41-16.72,26.9-27.46,3.86-5.54,7.72-11.67,11.53-18.28a370.37,370.37,0,0,1,63,36.42,131.06,131.06,0,0,1-101.41,9.32ZM327,294.9a130.15,130.15,0,0,1-23.8,18.87,377.56,377.56,0,0,0-66.34-38.84q4.78-8.78,9.41-18.47a563.53,563.53,0,0,0,60.31,4.94c4.86.14,9.59.14,14.17.11a250.09,250.09,0,0,0,31.53-2.12,130.19,130.19,0,0,1-25.31,35.51Z"/><path class="cls-7" d="M324,252.05l-19.24,228.4s-2,13.85,8.28,13.87h84.29s-12.75-2.88-12.59-9.36c.18-7.65,22.45-235.07,22.45-235.07Z"/><path class="cls-8" d="M402.79,490.18c-3.33,0-67.66.21-84.15,0-7.18-.09-8.44-6.39-8.5-10.47a20.37,20.37,0,0,1,.22-3.4l.5-5.94,1.27-15.13,1.12-13.36,1.45-17.18,1.22-14.5,13.64-162.3,83.23-2.16s-9.38,95.18-16,164.46c-.74,7.72-1.44,15.12-2.1,22-.21,2.2-.41,4.36-.61,6.46-.61,6.56-1.17,12.58-1.66,17.89q-.39,4.2-.71,7.79c-.85,9.34-1.35,15.31-1.35,16.44a8.84,8.84,0,0,0,.16,1.85C391.86,489.94,401.54,490.18,402.79,490.18Z"/><polygon class="cls-9" points="121.86 127.76 168.65 315.71 175.06 341.45 196.85 428.99 601.73 428.99 521.4 127.76 121.86 127.76"/><polygon class="cls-10" points="121.86 127.76 115.38 129.92 188.23 435.53 196.85 428.99 121.86 127.76"/><polygon class="cls-11" points="188.23 435.53 590.62 435.53 601.73 428.99 196.85 428.99 188.23 435.53"/><rect class="cls-12" x="329.54" y="490.27" width="87.12" height="4.14"/><polygon class="cls-13" points="582.12 373.48 516.42 131.74 121.22 131.74 121.22 127.76 521.4 127.76 586.88 372.95 582.12 373.48"/><polygon class="cls-14" points="394.51 435.53 394.06 438.69 312.13 455.24 313.25 441.88 313.79 435.53 394.51 435.53"/><path class="cls-14" d="M402.79,490.18c-3.33,0-67.66.21-84.15,0-7.18-.09-8.44-6.39-8.5-10.47l81.55-15.34c-.85,9.34-1.35,15.31-1.35,16.44a8.84,8.84,0,0,0,.16,1.85C391.86,489.94,401.54,490.18,402.79,490.18Z"/><polygon class="cls-15" points="374.71 368.01 196.85 428.99 175.06 341.45 374.71 368.01"/><polygon class="cls-16" points="121.86 127.76 521.4 127.76 586.23 369.85 180.07 369.85 121.86 127.76"/><path class="cls-17" d="M410,400.46a13.71,13.71,0,0,0-12.84-10.75c-5.94,0-9.82,4.81-8.67,10.75a13.69,13.69,0,0,0,12.84,10.75C407.26,411.21,411.18,406.39,410,400.46Z"/><polygon class="cls-18" points="567.39 359.36 193.3 359.36 150.93 190.59 147.68 177.65 144.91 166.61 142.69 157.77 138.41 140.72 507.11 140.72 507.37 141.66 511.81 157.77 514.25 166.61 517.29 177.65 520.86 190.59 567.39 359.36"/><polygon class="cls-18" points="567.39 359.94 193.3 359.94 150.93 191.17 147.68 178.23 144.91 167.19 142.69 158.35 138.41 141.3 507.11 141.3 507.37 142.24 511.81 158.35 514.25 167.19 517.29 178.23 520.86 191.17 567.39 359.94"/><polygon class="cls-19" points="511.81 157.77 142.69 157.77 138.41 140.72 506.97 140.72 507.37 141.66 511.81 157.77"/><path class="cls-18" d="M148.67,149.25a2.45,2.45,0,0,1,1.5-3.11,2.65,2.65,0,0,1,.93-.13,4.41,4.41,0,0,1,4,3.24,2.44,2.44,0,0,1-2.43,3.23A4.39,4.39,0,0,1,148.67,149.25Z"/><ellipse class="cls-18" cx="162.66" cy="149.25" rx="2.86" ry="3.66" transform="translate(-56.88 172.37) rotate(-48.55)"/><path class="cls-18" d="M171,149.25a2.45,2.45,0,0,1,1.5-3.11,2.65,2.65,0,0,1,.93-.13,4.43,4.43,0,0,1,4,3.24,2.44,2.44,0,0,1-2.43,3.23A4.39,4.39,0,0,1,171,149.25Z"/><path class="cls-20" d="M309.83,359.94h-37c-.36-2.89-.67-6-.95-9.14-.5-5.71-.88-11.86-1.16-18.26l-.18-4.47c-.07-1.9-.13-3.84-.18-5.78-.09-3.29-.17-6.62-.22-10h0c-.06-4.27-.1-8.57-.11-12.86h0v-3.2h0v-3c0-9.23.17-18.28.36-26.69.43-18.63,1.12-34.14,1.49-41.6h0c.15-3.07.24-4.77.24-4.77h0c.09,0,.65.11,1.53.32.65.16,1.47.38,2.4.67h0c.84.25,1.77.57,2.75.94h0a31.74,31.74,0,0,1,5.15,2.49H284c2.76,1.71,5.26,4,6.4,7,1,2.55,3.26,16.26,6,34.45l.24,1.57c1.46,9.67,3,20.51,4.62,31.58,1.68,11.74,3.36,23.72,4.9,34.82C307.58,343.56,308.8,352.43,309.83,359.94Z"/><path class="cls-21" d="M299.47,359.94H256.41c-.82-3.55-1.6-7-2.28-10.19-1.89-8.86-3.14-16.12-3.07-20a5.84,5.84,0,0,1,1.91-4.36,9.51,9.51,0,0,1,3.08-1.82c3.63-1.38,8.85-1.6,14.32-1.26,1.85.12,3.74.3,5.59.53a163.05,163.05,0,0,1,19.73,3.77s.64,2.57,1.39,7.06c.56,3.37,1.19,7.82,1.66,13.08.27,3.06.49,6.39.61,9.94C299.39,357.73,299.43,358.83,299.47,359.94Z"/><path class="cls-22" d="M279.58,329.78l-.42,3.11L277.07,348l-.35,2.58-1.3,9.36H230.55c-.35-6.19-.67-12.22-.73-17.48v-1.71c0-7.92.7-13.79,3-15.27,2.57-1.68,11.1-1.22,20.19-.11l2.73.35c5.29.72,10.59,1.6,14.85,2.35l5.65,1Z"/><path class="cls-5" d="M229.81,228s24.65-15.94,42.33-7.79c2.82,1.3,6,4.93,8.34,7.46,6.39,7,18.88,118.91,18.88,118.91s-35.46,12-69.55-4.07Z"/><path class="cls-23" d="M273.55,219.76S298.5,230,301.88,237.84s14.37,56.12,14.37,61.78-19.13,1.26-22.21-7.86c-2.56-7.58-11.18-30.86-15.73-45.59Z"/><path class="cls-24" d="M268.36,227.55a28,28,0,0,1-19.31-3.9,55.79,55.79,0,0,0,4.12-14.54l.06-.49a15.44,15.44,0,0,0,.06-3.33h14.09s3.85,1.76,3.85,3v1.87c0,1.62.1,3,.18,4.25a37.81,37.81,0,0,0,.72,5.81S273.86,226.47,268.36,227.55Z"/><path class="cls-25" d="M271.42,214.35c-10.67,2.06-16.86-3.77-18.25-5.27-.2-.21-.3-.34-.3-.34l.36-.15c4-1.61,13-.33,18,1.51C271.27,211.72,271.34,213.14,271.42,214.35Z"/><path class="cls-24" d="M249.68,202.94c1.91,10.26,15.15,9.93,20.87,9.28,1.62-.18,2.63-.38,2.63-.38,1.81-.49,2.83-3.35,3.3-7.09.93-7.42-.25-18.3-1.5-21.09-1.89-4.18-5.44-8.71-18.77-5.45S247.24,189.79,249.68,202.94Z"/><path class="cls-21" d="M275.48,177.94a30.63,30.63,0,0,0-9.2-7.51c-7.54-4.07-17.19.13-17.23.15-10.89,4.79-13.74,13.12-8,26.1,6.1,13.73,11.92,12.19,11.92,12.19s-1.24-.77-1.13-5.05v-.62a2.83,2.83,0,0,0-.91-2.34c-1.35-1.21-2-4.86-.88-5.88,1.37-1.22,3.29.27,3.9,1.41a1.69,1.69,0,0,0,2.32.58l.08-.05c3.39-2.14,1.18-6.43,4.42-9s9.82-.42,14.67-2.51C281.88,183,276.85,179.84,275.48,177.94Z"/><path class="cls-26" d="M277.23,359.94H223.55c.39-11.13.88-24.42,1.4-37.87.13-3.49.27-7,.4-10.47l.18-4.4c1.18-29.88,2.36-56.86,2.61-58.32.56-3.28,1.09-6.08,1.67-8.51,1.69-7.08,3.78-11,8.35-14.3.45-.34,4.1-2.18,7.32-3.79l5-2.48h0a5.12,5.12,0,0,1,1.73,2.1,35.62,35.62,0,0,1,1.94,4.27,230.62,230.62,0,0,1,6.94,23.15h0c1.19,4.65,2,8.27,2.28,9.31.42,1.75,1,5.15,1.6,9.74h0c.87,6.27,1.9,14.77,3,24.43h0l.33,3c.11,1,.27,2.32.4,3.51h0l.12,1.14h0c.42,3.83.85,7.77,1.27,11.78h0c.36,3.31,5.38,5.71,5.73,9.08,0,.24.05.74.08,1.43.07,1.42.14,3.68.24,6.29,0,1.17.08,2.4.12,3.66.2,5.6.44,11.74.72,14.69v.54c0,.59.06,1.45.08,2.54C277.2,352.86,277.22,356.17,277.23,359.94Z"/><path class="cls-14" d="M238.58,255.41c0,.07,1.18,35.73,23.85,39.4s7.61,4.63,7.61,4.63-42.66-1.82-43.37-2.94S238.58,255.41,238.58,255.41Z"/><path class="cls-14" d="M259.77,307.75s-.42.3-1.24.82h0a106.07,106.07,0,0,1-28.68,12.26q-2.35.65-4.86,1.2c.13-3.48.27-7,.4-10.46a44.42,44.42,0,0,1-5.62-.78c.06-.46.13-.92.18-1.38,1.91-.78,3.8-1.53,5.62-2.24l4.28-1.65c6.15-2.3,10.65-3.87,10.65-3.87l18.18,5.76Z"/><path class="cls-27" d="M264.58,307.24s-2.33.58-6.05,1.33h0c-6.86,1.38-18.38,3.31-28.68,3.21-1.52,0-3-.08-4.46-.19a44.42,44.42,0,0,1-5.62-.78c-3.76-.79-6.91-2.14-9-4.24-15.32-15.6,8.35-71.59,13.33-77,5.81-6.36,16.42-8.6,22.28-9.36l.7-.09c2.06-.25,3.38-.3,3.46-.3h0l-1.23,4c-.3,1-.64,2.09-1,3.35-3.6,11.78-10.54,34.93-13.6,48-1.12,4.77-1.72,8.2-1.45,9.22,1.19,4.46,13.57,6.75,21.41,7.77,3.27.42,5.75.62,6.31.66h.11l.45,1.86,1.09,4.46,1.07,4.38Z"/><polygon class="cls-28" points="307.3 334.08 254.7 331.86 265.37 266.31 317.97 268.53 307.3 334.08"/><path class="cls-24" d="M261.06,292.78s10.24-.71,10.75,1.67c1.2,5.57-8.8,10.13-12,9.82S258.7,292.41,261.06,292.78Z"/><path class="cls-24" d="M315.09,281.84s-9.79-3.06-10.84-.86c-2.46,5.14,6.22,11.89,9.44,12.34S317.47,282,315.09,281.84Z"/><path class="cls-29" d="M251.59,216.51s-4.31,2.05-6.47,5.15c0,0,16.11,28,16,27.69S255.71,220.09,251.59,216.51Z"/><path class="cls-30" d="M271.65,216.9a12.47,12.47,0,0,1,4.75,4.86l1.91,24.41s-4.09-17.91-6.17-26A12.87,12.87,0,0,1,271.65,216.9Z"/><path class="cls-22" d="M282.81,267.05s.41-1.82,2.81-1.61,15.84.87,15.84.87,2.6,0,2.36,1.62Z"/><path class="cls-5" d="M267.38,205.26a5.58,5.58,0,0,0,4.56,1.1c1.67-.3,2.61-2.47,2.61-2.47A12.64,12.64,0,0,0,267.38,205.26Z"/><polygon class="cls-5" points="516.62 225.66 477.76 225.8 465.16 177.56 504.02 177.42 516.62 225.66"/><polygon class="cls-31" points="494.38 183.76 478.09 183.82 477.9 183.1 494.2 183.04 494.38 183.76"/><polygon class="cls-31" points="496.98 185.74 476.53 185.82 476.34 185.1 496.8 185.03 496.98 185.74"/><polygon class="cls-31" points="502.61 195.56 476.04 195.66 475.85 194.94 502.42 194.84 502.61 195.56"/><polygon class="cls-31" points="503.22 197.91 476.65 198.01 476.47 197.29 503.03 197.2 503.22 197.91"/><polygon class="cls-31" points="503.84 200.26 477.27 200.36 477.08 199.65 503.65 199.55 503.84 200.26"/><polygon class="cls-31" points="504.45 202.61 477.88 202.71 477.7 202 504.26 201.9 504.45 202.61"/><polygon class="cls-31" points="505.07 204.96 478.5 205.06 478.31 204.35 504.88 204.25 505.07 204.96"/><polygon class="cls-31" points="506.56 210.69 479.99 210.79 479.81 210.07 506.37 209.97 506.56 210.69"/><polygon class="cls-31" points="507.17 213.04 480.61 213.14 480.42 212.42 506.99 212.33 507.17 213.04"/><polygon class="cls-31" points="507.79 215.39 481.22 215.49 481.03 214.78 507.6 214.68 507.79 215.39"/><polygon class="cls-31" points="508.4 217.74 481.84 217.84 481.65 217.13 508.22 217.03 508.4 217.74"/><polygon class="cls-31" points="509.02 220.1 482.45 220.19 482.26 219.48 508.83 219.38 509.02 220.1"/><polygon class="cls-5" points="532.27 285.59 493.42 285.74 480.82 237.5 519.67 237.36 532.27 285.59"/><polygon class="cls-31" points="510.04 243.7 493.75 243.76 493.56 243.04 509.85 242.98 510.04 243.7"/><polygon class="cls-31" points="512.64 245.68 492.19 245.76 492 245.04 512.45 244.96 512.64 245.68"/><polygon class="cls-31" points="518.26 255.5 491.7 255.59 491.51 254.88 518.08 254.78 518.26 255.5"/><polygon class="cls-31" points="518.88 257.85 492.31 257.95 492.12 257.23 518.69 257.13 518.88 257.85"/><polygon class="cls-31" points="519.49 260.2 492.92 260.3 492.74 259.58 519.31 259.49 519.49 260.2"/><polygon class="cls-31" points="520.11 262.55 493.54 262.65 493.35 261.94 519.92 261.84 520.11 262.55"/><polygon class="cls-31" points="520.72 264.9 494.15 265 493.97 264.29 520.53 264.19 520.72 264.9"/><polygon class="cls-31" points="522.22 270.63 495.65 270.72 495.46 270.01 522.03 269.91 522.22 270.63"/><polygon class="cls-31" points="522.83 272.98 496.26 273.08 496.08 272.36 522.64 272.27 522.83 272.98"/><polygon class="cls-31" points="523.44 275.33 496.88 275.43 496.69 274.71 523.26 274.62 523.44 275.33"/><polygon class="cls-31" points="524.06 277.68 497.49 277.78 497.3 277.07 523.87 276.97 524.06 277.68"/><polygon class="cls-31" points="524.67 280.03 498.11 280.13 497.92 279.42 524.49 279.32 524.67 280.03"/><polygon class="cls-5" points="548.04 345.94 509.18 346.08 496.58 297.84 535.44 297.7 548.04 345.94"/><polygon class="cls-31" points="525.8 304.04 509.51 304.1 509.32 303.38 525.61 303.32 525.8 304.04"/><polygon class="cls-31" points="528.4 306.02 507.95 306.1 507.76 305.38 528.22 305.31 528.4 306.02"/><polygon class="cls-31" points="534.02 315.84 507.46 315.94 507.27 315.22 533.84 315.12 534.02 315.84"/><polygon class="cls-31" points="534.64 318.19 508.07 318.29 507.88 317.57 534.45 317.47 534.64 318.19"/><polygon class="cls-31" points="535.25 320.54 508.69 320.64 508.5 319.92 535.07 319.83 535.25 320.54"/><polygon class="cls-31" points="535.87 322.89 509.3 322.99 509.11 322.28 535.68 322.18 535.87 322.89"/><polygon class="cls-31" points="536.48 325.24 509.91 325.34 509.73 324.63 536.3 324.53 536.48 325.24"/><polygon class="cls-31" points="537.98 330.97 511.41 331.07 511.22 330.35 537.79 330.25 537.98 330.97"/><polygon class="cls-31" points="538.59 333.32 512.02 333.42 511.84 332.7 538.4 332.61 538.59 333.32"/><polygon class="cls-31" points="539.21 335.67 512.64 335.77 512.45 335.06 539.02 334.96 539.21 335.67"/><polygon class="cls-31" points="539.82 338.02 513.25 338.12 513.07 337.41 539.63 337.31 539.82 338.02"/><polygon class="cls-31" points="540.43 340.38 513.87 340.47 513.68 339.76 540.25 339.66 540.43 340.38"/><polygon class="cls-5" points="496.95 346.34 361.06 346.84 321.95 197.11 339.65 178.05 452.88 177.64 496.95 346.34"/><polygon class="cls-31" points="415.45 202.94 367.56 203.11 367.01 201.02 414.9 200.84 415.45 202.94"/><polygon class="cls-31" points="423.1 208.77 362.97 208.99 362.42 206.89 422.55 206.67 423.1 208.77"/><polygon class="cls-31" points="439.63 237.63 361.53 237.91 360.98 235.82 439.08 235.53 439.63 237.63"/><polygon class="cls-31" points="441.43 244.54 363.33 244.83 362.79 242.73 440.89 242.44 441.43 244.54"/><polygon class="cls-31" points="443.24 251.45 365.14 251.74 364.59 249.64 442.69 249.35 443.24 251.45"/><polygon class="cls-31" points="445.05 258.37 366.94 258.65 366.4 256.56 444.5 256.27 445.05 258.37"/><polygon class="cls-31" points="446.85 265.28 368.75 265.57 368.2 263.47 446.3 263.18 446.85 265.28"/><polygon class="cls-31" points="451.25 282.11 373.15 282.39 372.6 280.3 450.7 280.01 451.25 282.11"/><polygon class="cls-31" points="453.05 289.02 374.95 289.31 374.4 287.21 452.5 286.92 453.05 289.02"/><polygon class="cls-31" points="454.86 295.93 376.76 296.22 376.21 294.12 454.31 293.84 454.86 295.93"/><polygon class="cls-31" points="456.66 302.85 378.56 303.14 378.01 301.04 456.12 300.75 456.66 302.85"/><polygon class="cls-31" points="458.47 309.76 380.37 310.05 379.82 307.95 457.92 307.66 458.47 309.76"/><polygon class="cls-31" points="321.95 197.11 344.61 197.03 339.65 178.05 321.95 197.11"/><path class="cls-32" d="M538.62,424.65H650.29a14.94,14.94,0,0,1,14.94,14.94v8.91A15.28,15.28,0,0,1,650,463.78H538.62V424.65Z"/><path class="cls-33" d="M759.65,440.77v5.88a17.1,17.1,0,0,1-17.1,17.12H535.23a2.48,2.48,0,0,1-2.48-2.48v-.88a2.48,2.48,0,0,1,2.48-2.48H661.6a16.54,16.54,0,0,0,1.78-2.67,15.92,15.92,0,0,0,1.85-7.47v-7.47a15.9,15.9,0,0,0-.51-4,15.67,15.67,0,0,0-2.93-5.8H535.23a2.48,2.48,0,0,1-2.48-2.48v-.88a2.48,2.48,0,0,1,2.48-2.48H743.58a16,16,0,0,1,16.07,15.93v.16Z"/><path class="cls-34" d="M759,436.34H664.72a15.67,15.67,0,0,0-2.93-5.8H535.23a2.48,2.48,0,0,1-2.48-2.48v-.88a2.48,2.48,0,0,1,2.48-2.48H743.58A16.09,16.09,0,0,1,759,436.34Z"/><polygon class="cls-35" points="538.63 444.23 553.97 444.89 538.63 445.29 538.63 444.23"/><polygon class="cls-35" points="538.63 450.36 575.14 451.02 538.63 451.42 538.63 450.36"/><path class="cls-36" d="M682.78,494.12H561.46A12.12,12.12,0,0,1,549.34,482v-6.88a11.39,11.39,0,0,1,11.39-11.39h122v30.39Z"/><path class="cls-32" d="M810,494.12H672.59a11.89,11.89,0,0,1-11.84-11.92v-6.88a11.62,11.62,0,0,1,11.62-11.62H810v30.42Z"/><path class="cls-36" d="M651.76,494.08H814.7a2.27,2.27,0,0,0,2.27-2.27h0a2.28,2.28,0,0,0-2.27-2.28H651.76a2.28,2.28,0,0,0-2.27,2.28h0a2.27,2.27,0,0,0,2.27,2.27Z"/><path class="cls-36" d="M651.76,468.23H814.7A2.27,2.27,0,0,0,817,466h0a2.28,2.28,0,0,0-2.23-2.31h-163a2.27,2.27,0,0,0-2.27,2.27h0a2.27,2.27,0,0,0,2.23,2.31Z"/><polygon class="cls-35" points="810.04 478.88 791.94 479.39 810.04 479.7 810.04 478.88"/><polygon class="cls-35" points="810.04 471.89 766.97 472.4 810.04 472.71 810.04 471.89"/><path class="cls-33" d="M767.41,472.3a7,7,0,0,1,2.46,3.45,4.92,4.92,0,0,1,.19,1.2c.1,2.85,0,9.31,0,9.31l5.45-3.23,5.44,3.23v-8.75a7,7,0,0,0-1.33-4.32,2.07,2.07,0,0,0-1.51-.89Z"/><path class="cls-37" d="M767.41,472.3a7,7,0,0,1,2.46,3.45l10.92.13s-.43-3.08-2.68-3.58Z"/><path class="cls-32" d="M782.63,424.78H661.93a17.46,17.46,0,0,1-17.46-17.46h0V397.21a17.08,17.08,0,0,1,17.08-17.08H782.63v44.65Z"/><path class="cls-38" d="M647.3,397.45v9.61a11.19,11.19,0,0,0,11.2,11H789.17a2.77,2.77,0,0,1,2.77,2.77h0V422a2.77,2.77,0,0,1-2.77,2.77H563.43a19.12,19.12,0,0,1-19.11-19.09v-7.58a17.93,17.93,0,0,1,17.91-17.95H789.17a2.77,2.77,0,0,1,2.77,2.77h0V384a2.78,2.78,0,0,1-2.77,2.78H658.1a10.85,10.85,0,0,0-8,3.46A10.64,10.64,0,0,0,647.3,397.45Z"/><polygon class="cls-35" points="782.63 402.45 765.88 403.2 782.63 403.66 782.63 402.45"/><polygon class="cls-35" points="782.63 392.18 742.78 392.93 782.63 393.38 782.63 392.18"/><path class="cls-39" d="M743.19,392.78a8.33,8.33,0,0,1,3.5,3.74,4.19,4.19,0,0,1,.27,1.3c.15,3.1,0,10.09,0,10.09l7.77-3.49,7.74,3.49v-9.48a6.38,6.38,0,0,0-1.9-4.68,3.24,3.24,0,0,0-2.14-1Z"/><path class="cls-40" d="M743.19,392.78a8.33,8.33,0,0,1,3.5,3.74l15.56.14a5,5,0,0,0-3.82-3.88Z"/><path class="cls-21" d="M664.4,363.57c6.89,12,15.55,16.62,15.55,16.62h36S659.15,354.43,664.4,363.57Z"/><path class="cls-24" d="M692.08,456.32a3.33,3.33,0,0,1,.59,3.56h0c-.86,2.37-3.7,5-7,7.67-.43.34-.8.65-1.13.94l-.25.23a1.54,1.54,0,0,0-.19.17c-3.08,2.84-1.92,3.49-7.45,9.24-6.3,6.56-10.64,6.67-11.87,6.08-1-.51,1.08-4,3.43-7.9.11-.19.22-.38.34-.57l.93-1.57c2.76-4.7,2-6.91,1.4-13.91-.53-5.69-8.85-31.78-8.85-31.78l12.07-2.08s3.64,20.78,7.65,24c2.14,1.7,4.54,1.73,6.6,3l.42.27A16,16,0,0,1,692.08,456.32Z"/><path class="cls-21" d="M692.08,456.32a3.33,3.33,0,0,1,.59,3.56h0c-1,2.37-3.82,5-7,7.65-.41.34-.78.67-1.11,1l-.25.23a1.54,1.54,0,0,0-.19.17c-3.08,2.84-1.92,3.49-7.45,9.24-6.3,6.56-10.64,6.67-11.87,6.08-1-.51,1.08-4,3.43-7.9a26.82,26.82,0,0,0,11.23-8.27c3.79-4.85,6.32-11.07,8.91-14.67l.42.27A16.09,16.09,0,0,1,692.08,456.32Z"/><path class="cls-24" d="M594.71,448.77c-.74,3.73-6.06,3.11-12,1.66s-4.53.27-13-.66-11-4.09-11.27-5.34,3.94-1.51,8.42-2l1.7-.2c5-.63,8.75-3.9,13.35-6.57,4.34-2.54,10.83-12.88,10.83-12.88l11.59.92s-6.08,9.23-8.43,13.25c-1.38,2.36-1.31,5.48-1.14,7.89A14.77,14.77,0,0,1,594.71,448.77Z"/><path class="cls-21" d="M582.72,450.43c-5.94-1.45-4.53.27-13-.66s-11-4.09-11.27-5.34,3.94-1.51,8.42-2v.09A23.75,23.75,0,0,0,579,446.25c5.73.14,11.8-1.5,15.76-1.44a14.88,14.88,0,0,1-.09,4C594,452.5,588.65,451.88,582.72,450.43Z"/><path class="cls-21" d="M639.11,374.65l10.83,29.15,14.14,38.05a22.65,22.65,0,0,0,7.51-.69,32.36,32.36,0,0,0,7.27-3.53s-3.93-40.86-11.25-64.31c-1.88-6-4-10.89-6.3-13.64C650,346.31,639.11,374.65,639.11,374.65Z"/><path class="cls-41" d="M650.12,328.41c7.1-2.29,27.34.65,47.66,4.63l4.26-7,44-3.45s14.49,32.13,6.56,52.61a7.43,7.43,0,0,1-7.43,5H709.86c-21.83,0-46.21-15-49.36-15.64-5.17-1-7.23,9.29-12.39,20.13s-48.52,48-48.52,48-6.66.06-9.42-1a9.32,9.32,0,0,1-4-2.55S634.12,333.57,650.12,328.41Z"/><path class="cls-21" d="M702.3,265.55c15.63,8.61,47.35,26.46,47.52,26.34,0,0,11.66,4.39,18.27,0,11-7.32,16.94-27-3.22-44-10.06-8.46-17.2-10.52-18.29-24-.58-7.32-10.6-31.5-27.24-29.27-1.39.19-10,.59-15.57,3.54C689.43,205.65,678.86,262.22,702.3,265.55Z"/><path class="cls-24" d="M715.4,258.22c-.06,0,7.7,2.7,12.89.4,4.88-2.16,8.58-10.19,8.51-10.2-2.22-.1-4.66-2-6.54-14.78l-1,.34-15.9,5.72s1.15,5.1,1.9,10C715.94,253.74,716.27,257.65,715.4,258.22Z"/><path class="cls-42" d="M713.41,239.7s1.15,5.1,1.9,10c9.13-1.65,12.72-10.75,14-15.68Z"/><path class="cls-24" d="M711,244.76s21.76-2.92,19.73-16.44-.58-23-14.56-21.71-15.9,6.85-16.32,11.53S705.33,245.17,711,244.76Z"/><path class="cls-21" d="M700.69,210.73s13.92,12,23.4,13,13.06-2.08,13.06-2.08a37,37,0,0,1-8.95-12.12,6.66,6.66,0,0,0-5.49-3.93C716,205,703.12,204.73,700.69,210.73Z"/><path class="cls-21" d="M709.39,209.65s-4.66,4.5-6.12,7.84-1.84,10.94-.72,14c0,0-7.26-14.11-3.15-21C703.76,203.26,709.39,209.65,709.39,209.65Z"/><path class="cls-5" d="M697.08,290.27c.66,44.05.18,34.84,5,39,1.16,1,4.43,1.61,8.72,1.89,13.51.9,37.25-1.33,38.15-3.82,3.11-8.64.91-11.32,3.51-24.54.27-1.41.61-2.93,1-4.59,2.17-9.08,4.28-12.17-3.41-26.76-7-13.21-14.21-23.94-14.86-23.55-18.4,10.92-19.88,1.74-19.88,1.74S696.76,268.79,697.08,290.27Z"/><path class="cls-43" d="M649.94,403.84l14.14,38.05a22.65,22.65,0,0,0,7.51-.69,32.36,32.36,0,0,0,7.27-3.53s-3.93-40.86-11.25-64.31Z"/><path class="cls-5" d="M715.31,249.65s-18.93,3.21-21.15,11.36-15.3,56.05-15.3,56.05,9.62,1.73,14.06-2.72,15.47-41.23,15.47-41.23Z"/><path class="cls-44" d="M710.8,331.18c13.51.9,37.25-1.33,38.15-3.82,3.11-8.64.91-11.32,3.51-24.54L746,284.47s1.08,20.43-5,25.8-24.66,10.38-27.59,14.86A16.57,16.57,0,0,0,710.8,331.18Z"/><path class="cls-24" d="M726.27,322.59s-13.32-3-15.47-1.78-7.4,5.48-8.06,7,4.79-1.13,6.56-1.61c1.14-.31,4.16.74,5.66,1.24,6.28,2.1,10.14,1,10.14,1Z"/><path class="cls-5" d="M735.2,247.91s17.89,1.1,24.08,9.74c8.72,12.16,26,64,16.1,70.89-11.16,7.78-50.8,2-50.8,2s-1.32-6.17.52-9.15,31.66-7.8,33-9.18-17.2-26.84-17.2-31S735.2,247.91,735.2,247.91Z"/><path class="cls-24" d="M710.16,324.51s-2.8,3.61-3.71,4a2.74,2.74,0,0,1-1.51.32l1.88-3.39Z"/><path class="cls-24" d="M710.8,320.81l-8.12,3.94a1.46,1.46,0,0,0,1.35.52,19.62,19.62,0,0,0,3.52-1Z"/><polygon class="cls-45" points="706.45 334.06 642.25 334.06 622.93 286.03 687.04 286.03 706.45 334.06"/><polygon class="cls-40" points="641.49 332.19 726.27 332.19 726.27 334.06 642.25 334.06 641.49 332.19"/><path class="cls-5" d="M658.45,310.05a2.22,2.22,0,0,1,1.24-2.9,2.33,2.33,0,0,1,.94-.16,4.39,4.39,0,0,1,3.94,3.06,2.22,2.22,0,0,1-1.22,2.89,2.12,2.12,0,0,1-1,.16A4.38,4.38,0,0,1,658.45,310.05Z"/><path class="cls-5" d="M123,352.92l-1.37,1a3.22,3.22,0,0,1-4.48-.81l-8-11.47a3.24,3.24,0,0,1,.82-4.49l2-1.35a.63.63,0,0,1,.89-.05.62.62,0,0,1,.06.88.66.66,0,0,1-.24.17l-2,1.36a2,2,0,0,0-.5,2.73l8,11.47a2,2,0,0,0,2.73.49l1.37-.94a2,2,0,0,0,.49-2.73l-5.28-7.62a.64.64,0,0,1,.32-.83.63.63,0,0,1,.68.11l5.28,7.62A3.22,3.22,0,0,1,123,352.92Z"/><path class="cls-5" d="M131.72,364.24l-2.45,1.7a5.23,5.23,0,0,1-7.19-1.56l-12-17.25a.65.65,0,0,1,.16-.88.63.63,0,0,1,.88.16h0l12,17.25a4,4,0,0,0,5.43,1.24l2.46-1.7a4,4,0,0,0,.74-5.53L118.13,338a4,4,0,0,0-5.44-1.25.63.63,0,1,1-1-.83.81.81,0,0,1,.24-.17,5.21,5.21,0,0,1,7.19,1.56L132.79,357A5.23,5.23,0,0,1,131.72,364.24Z"/><path class="cls-5" d="M148.17,454.33l.3,2.43a4.74,4.74,0,0,1-4.14,5.27l-20.39,2.48a4.74,4.74,0,0,1-5.27-4.14l-.42-3.48a.93.93,0,0,1,1.82-.38.88.88,0,0,1,0,.16l.42,3.48a2.89,2.89,0,0,0,3.21,2.52l20.39-2.48a2.86,2.86,0,0,0,2.51-3.19v0l-.29-2.43a2.87,2.87,0,0,0-3.19-2.51h0l-13.54,1.61a.93.93,0,0,1-.22-1.84l13.54-1.65a4.74,4.74,0,0,1,5.27,4.15Z"/><path class="cls-5" d="M168.88,450.75l.53,4.36a7.67,7.67,0,0,1-7,8.28l-30.65,3.72a.91.91,0,0,1-.19-1.81l30.65-3.72a5.81,5.81,0,0,0,5.35-6.22l-.52-4.36a5.83,5.83,0,0,0-6.69-4.76l-34.91,4.24a5.81,5.81,0,0,0-5.35,6.22.93.93,0,0,1-1.84.22,7.66,7.66,0,0,1,7-8.28h0l34.91-4.24A7.68,7.68,0,0,1,168.88,450.75Z"/><circle class="cls-39" cx="498.38" cy="165.82" r="2.83" transform="translate(222.51 612.78) rotate(-76.72)"/><rect class="cls-46" x="55.07" y="493.86" width="825.99" height="2.19" rx="0.85"/></g></g></svg>