<svg xmlns="http://www.w3.org/2000/svg" xmlns:xlink="http://www.w3.org/1999/xlink" viewBox="0 0 1045 787"><defs><style>.cls-1{isolation:isolate;}.cls-2{fill:url(#linear-gradient);}.cls-17,.cls-3,.cls-4{opacity:0.2;}.cls-3{fill:url(#linear-gradient-2);}.cls-4{fill:url(#linear-gradient-3);}.cls-5{fill:#9ec3f6;}.cls-6{fill:#cde0fb;}.cls-49,.cls-7{opacity:0.5;}.cls-8{fill:#fff;}.cls-9{fill:url(#linear-gradient-4);}.cls-10{fill:url(#linear-gradient-5);}.cls-11{fill:url(#linear-gradient-6);}.cls-12{fill:url(#linear-gradient-7);}.cls-13{fill:url(#linear-gradient-8);}.cls-14{fill:url(#linear-gradient-9);}.cls-15{fill:url(#linear-gradient-10);}.cls-16{fill:#f1a34f;}.cls-17,.cls-24{fill:#233862;}.cls-18{fill:#ebeef3;opacity:0.1;}.cls-19{fill:url(#linear-gradient-11);}.cls-20{fill:url(#linear-gradient-12);}.cls-21{fill:#e9f3fe;}.cls-22{fill:url(#linear-gradient-13);}.cls-23{fill:url(#linear-gradient-14);}.cls-25{fill:#c65447;}.cls-26{fill:url(#Degradado_sin_nombre_8);}.cls-27{fill:#ffb27d;}.cls-28{fill:#e2915a;}.cls-29{fill:url(#Degradado_sin_nombre_8-2);}.cls-30{fill:url(#Degradado_sin_nombre_8-3);}.cls-31{fill:url(#linear-gradient-15);}.cls-32{fill:url(#linear-gradient-16);}.cls-33{fill:url(#linear-gradient-17);}.cls-34{fill:#adcbf9;}.cls-35{fill:#fcecdb;}.cls-36{fill:#699dee;}.cls-37{fill:#548ee2;}.cls-38{fill:#f4d2b8;}.cls-39{fill:#2b478b;}.cls-40{fill:#568cdb;}.cls-41{fill:#b5453c;}.cls-42{fill:#f99746;}.cls-43{fill:#ed7d2b;}.cls-44{fill:url(#linear-gradient-18);}.cls-45{fill:#ed975d;}.cls-46{fill:url(#linear-gradient-19);}.cls-47{fill:#ebf3ff;}.cls-48{fill:url(#Degradado_sin_nombre_8-4);}.cls-49{fill:#b589b6;mix-blend-mode:multiply;}</style><linearGradient id="linear-gradient" x1="-73" y1="393.5" x2="1045" y2="393.5" gradientUnits="userSpaceOnUse"><stop offset="0" stop-color="#ff736b"/><stop offset="0.51" stop-color="#ff4a66"/><stop offset="0.77" stop-color="#ff3563"/><stop offset="1" stop-color="#ff2260"/></linearGradient><linearGradient id="linear-gradient-2" x1="-73" y1="393.5" x2="1045" y2="393.5" gradientUnits="userSpaceOnUse"><stop offset="0" stop-color="#ff736b" stop-opacity="0.5"/><stop offset="0.51" stop-color="#ff4a66"/><stop offset="0.77" stop-color="#ff3563"/><stop offset="1" stop-color="#ff2260"/></linearGradient><linearGradient id="linear-gradient-3" x1="184.24" y1="370.91" x2="966.53" y2="370.91" xlink:href="#linear-gradient-2"/><linearGradient id="linear-gradient-4" x1="176.71" y1="294.73" x2="516.74" y2="294.73" gradientUnits="userSpaceOnUse"><stop offset="0" stop-color="#00f0ff"/><stop offset="1" stop-color="#553eff"/></linearGradient><linearGradient id="linear-gradient-5" x1="430.6" y1="464.46" x2="533.19" y2="464.46" gradientUnits="userSpaceOnUse"><stop offset="0" stop-color="#423eff"/><stop offset="1" stop-color="#fe3eff"/></linearGradient><linearGradient id="linear-gradient-6" x1="487.46" y1="600.26" x2="487.46" y2="520.39" gradientUnits="userSpaceOnUse"><stop offset="0" stop-color="#fe3eff"/><stop offset="1" stop-color="#423eff"/></linearGradient><linearGradient id="linear-gradient-7" x1="247.86" y1="370.72" x2="727.73" y2="370.72" xlink:href="#linear-gradient-6"/><linearGradient id="linear-gradient-8" x1="241.38" y1="373.99" x2="322.85" y2="373.99" xlink:href="#linear-gradient-6"/><linearGradient id="linear-gradient-9" x1="314.23" y1="524.61" x2="727.73" y2="524.61" xlink:href="#linear-gradient-5"/><linearGradient id="linear-gradient-10" x1="455.54" y1="584.69" x2="542.66" y2="584.69" gradientTransform="translate(998.2 1169.38) rotate(-180)" xlink:href="#linear-gradient-6"/><linearGradient id="linear-gradient-11" x1="781.43" y1="605.04" x2="152.4" y2="60.26" xlink:href="#linear-gradient-6"/><linearGradient id="linear-gradient-12" x1="514.32" y1="492.81" x2="536.23" y2="492.81" xlink:href="#linear-gradient-6"/><linearGradient id="linear-gradient-13" x1="264.41" y1="241.6" x2="637.81" y2="241.6" gradientUnits="userSpaceOnUse"><stop offset="0" stop-color="#553eff" stop-opacity="0.2"/><stop offset="1" stop-color="#00f0ff"/></linearGradient><linearGradient id="linear-gradient-14" x1="396.04" y1="382.4" x2="435.83" y2="382.4" xlink:href="#linear-gradient-6"/><linearGradient id="Degradado_sin_nombre_8" x1="407.6" y1="301.46" x2="447.61" y2="452.4" gradientUnits="userSpaceOnUse"><stop offset="0" stop-color="#ff736b"/><stop offset="1" stop-color="#ff2260"/></linearGradient><linearGradient id="Degradado_sin_nombre_8-2" x1="347.27" y1="317.46" x2="387.29" y2="468.39" xlink:href="#Degradado_sin_nombre_8"/><linearGradient id="Degradado_sin_nombre_8-3" x1="331.67" y1="358.15" x2="390.58" y2="358.15" xlink:href="#Degradado_sin_nombre_8"/><linearGradient id="linear-gradient-15" x1="412.33" y1="349.64" x2="412.33" y2="452.16" xlink:href="#linear-gradient-4"/><linearGradient id="linear-gradient-16" x1="371.12" y1="325.28" x2="387.15" y2="325.28" xlink:href="#linear-gradient-6"/><linearGradient id="linear-gradient-17" x1="397.65" y1="323.89" x2="404.31" y2="323.89" xlink:href="#linear-gradient-6"/><linearGradient id="linear-gradient-18" x1="712.08" y1="469.98" x2="880.88" y2="469.98" xlink:href="#linear-gradient-6"/><linearGradient id="linear-gradient-19" x1="801.05" y1="543.89" x2="775.77" y2="445.61" xlink:href="#linear-gradient-6"/><linearGradient id="Degradado_sin_nombre_8-4" x1="790.69" y1="385.15" x2="790.69" y2="425.05" xlink:href="#Degradado_sin_nombre_8"/></defs><title>Asset 9</title><g class="cls-1"><g id="Layer_2" data-name="Layer 2"><g id="Layer_1-2" data-name="Layer 1"><path class="cls-2" d="M670.5,23C451.23,23,139.87,73.62,0,219.22V580.78C139.87,731,451.23,764,670.5,764,961.28,764,1045,598.12,1045,393.5S961.28,23,670.5,23Z"/><path class="cls-3" d="M670.5,0C451.23,0,184,79,0,88V739c244-11,451.23,48,670.5,48C961.28,787,1045,610.82,1045,393.5S961.28,0,670.5,0Z"/><path class="cls-4" d="M232.22,587.37S136.1,484.17,216,372.45C286.82,273.32,369.43,280.1,430,320.32c25.81,17.14,100.24,2.12,163.59-98.75C680,84,979.47,167.44,924.87,379.07c-26.42,102.42,80.41,106.14,26,208.51Z"/><polygon class="cls-5" points="508.52 179.62 555.17 186.28 524.21 165.18 522.64 171.94 511.3 174 508.52 179.62"/><polygon class="cls-6" points="555.17 186.28 516.35 166.26 478.31 164.35 555.17 186.28"/><polygon class="cls-6" points="524.21 165.18 555.17 186.28 531.21 153.31 524.21 165.18"/><g class="cls-7"><path class="cls-8" d="M769.34,271.64l-11.73,8.41-11.8-8.32a14.44,14.44,0,0,1,23.53-.09Z"/><path class="cls-8" d="M757.61,245.1a34.87,34.87,0,0,0-28.54,14.83l7.44,5.23a25.8,25.8,0,0,1,42.07-.15l7.41-5.32A34.9,34.9,0,0,0,757.61,245.1Z"/><path class="cls-8" d="M757.61,206.11a73.76,73.76,0,0,0-60.39,31.36l7.44,5.23a64.76,64.76,0,0,1,105.62-.39l7.38-5.32A73.77,73.77,0,0,0,757.61,206.11Z"/><path class="cls-8" d="M757.61,227.44a52.79,52.79,0,0,0-43.07,22.25l7.45,5.23a43.74,43.74,0,0,1,71-.27l7.39-5.29A52.77,52.77,0,0,0,757.61,227.44Z"/></g><path class="cls-9" d="M514.26,322.72l-10.75-.25c3.45,4.48,4.23,8.61,2.08,12.1s-7.3,6.49-15,8.71A139,139,0,0,0,300.28,169.46h0c-6-1.82-11.79-3.32-17.41-4.46-28.34-5.75-48.45-1.77-56.62,11.2-7.78,12.33-3.55,30.9,11.88,52.55h0a140.08,140.08,0,0,0-9.21,21.16c-29,1.73-44.5,6.83-50.14,16.07-6.56,10.76,2.39,25.19,31.06,39.23,4,1.94,8.19,3.84,12.63,5.75a138.94,138.94,0,0,0,265.4,39.1c14.14-2.92,23.45-7.51,27.15-13.57C517.58,332.31,517.26,327.66,514.26,322.72Zm-33.18,22.74a214.32,214.32,0,0,1-34.88,2.83c-21.29.25-45.73-1.43-71.49-4.82q3.24-7.08,6.36-14.53a195.5,195.5,0,0,0,23.15,6.29,116.74,116.74,0,0,0,23.12,2.58c16.19,0,27.78-4.68,33.51-13.77a23.75,23.75,0,0,0,2.3-4.76H454.9c-.14.25-.28.5-.43.74-4.26,6.75-13.76,10.24-27.11,10.24a110.3,110.3,0,0,1-21.64-2.42A190,190,0,0,1,383.93,322q3-7.45,5.78-15.18c5-13.87,9.34-27.62,12.82-40.82,28.23,4.17,57.71,4.29,86,2.15a131.81,131.81,0,0,1,2.7,26.62A130,130,0,0,1,481.08,345.46ZM309.19,414.33c-4-1.46-6.05-7.22-7.05-11.79-1.59-7.23-1.88-17.39-.83-29.37.52-6.06,1.37-12.51,2.51-19.24a357.28,357.28,0,0,1,48.6,16.81c-3.58,6.16-7.19,11.87-10.8,17.05-6.88,9.86-13.61,17.48-19.46,22C318.45,412.67,313.2,415.78,309.19,414.33Zm46.86-50a366,366,0,0,0-50.91-17.63q.92-4.7,2-9.54c4.79,1.09,9.66,2.14,14.58,3.16,14.4,3,28.77,5.45,42.84,7.47Q360.38,356.41,356.05,364.29Zm-31.16-29.23q-8.34-1.71-16.44-3.58c2.54-10.56,5.66-21.57,9.29-32.79a322.21,322.21,0,0,0,56.38,27.81c-2.29,5.45-4.64,10.77-7,15.92C353.25,340.43,339.09,338,324.89,335.06Zm-46.2-142.53c10.51,21.54,30.78,39.29,52.59,51.07C326,255.11,321,267.4,316.33,280.15q-1.29,3.57-2.52,7.13c-27.63-18-51-38.64-66.38-58.61h0A131.46,131.46,0,0,1,278.69,192.53Zm118.17-19.94c4,1.46,6.05,7.22,7.05,11.79,1.59,7.23,1.87,17.39.83,29.37a292.78,292.78,0,0,1-7.68,43.88c-19.22-3.31-38.42-8.76-56.11-17.34a298.44,298.44,0,0,1,23.48-41.16c6.88-9.86,13.61-17.47,19.46-22,3.05-2.36,7.16-4.9,10.76-4.9A6.57,6.57,0,0,1,396.86,172.59Zm-1.63,92.19c-3.39,12.76-7.57,26.06-12.43,39.48-1.88,5.17-3.82,10.27-5.82,15.26a315.33,315.33,0,0,1-56.78-28.18q1.47-4.33,3.05-8.68c4.52-12.47,9.43-24.47,14.58-35.71C355.84,255.68,375.35,261.31,395.23,264.78Zm57.71-62.59a130.43,130.43,0,0,1,33.92,58.66c-30.16,2.2-57.8,1.51-82.51-2.06a299.82,299.82,0,0,0,7.72-44.4c1.28-14.7,1.12-32.11-4.84-41.9A130,130,0,0,1,452.94,202.19Zm-92.5-38.34a131,131,0,0,1,26.69,2.72c-10.28,4.48-20.77,16.93-28.74,28.35a306.35,306.35,0,0,0-24,42c-20.75-11.27-40.35-28.56-49.72-48.92A130.37,130.37,0,0,1,360.44,163.85ZM232.61,180.23c4.25-6.75,13.76-10.24,27.1-10.24a110.14,110.14,0,0,1,21.64,2.42q4.56.92,9.28,2.17h0a139.54,139.54,0,0,0-48.34,47h0C230.5,204,227,189.19,232.61,180.23ZM243.5,235.9h0c16.17,20.2,40,40.85,67.82,58.77-3.94,12-7.31,23.81-10,35.13-23.08-5.59-49.9-13.48-71.08-22.45a130.56,130.56,0,0,1,5.43-52.12A128.68,128.68,0,0,1,243.5,235.9Zm-27.26,65.17c-25-12.21-36.43-24-31.31-32.34,4.12-6.77,19.15-11.36,42.14-13.05a139.5,139.5,0,0,0-5.29,48C219.87,302.83,218,302,216.24,301.07ZM300,335.45c-.72,3.18-1.37,6.32-2,9.4-1.6-.39-3.21-.77-4.81-1.13-27.15-6.18-47.51-7.44-56.95-7.65a127.87,127.87,0,0,1-5.15-21.6C249.58,321.58,270.39,328.4,300,335.45Zm-61,8.08a295.8,295.8,0,0,1,52.58,7.36c1.71.39,3.41.8,5.12,1.21-1.23,7.16-2.14,14-2.69,20.43-1.06,12.18-1.14,26.23,2.26,36.26A131.55,131.55,0,0,1,239,343.53Zm81.79,75.93c9.68-5.07,19.41-16.72,26.9-27.46,3.86-5.54,7.72-11.67,11.53-18.28a370.12,370.12,0,0,1,62.95,36.42A131.06,131.06,0,0,1,320.76,419.46Zm132.18-32.21a130,130,0,0,1-23.8,18.87,377.54,377.54,0,0,0-66.34-38.84q4.79-8.77,9.41-18.47a564.65,564.65,0,0,0,60.31,4.94c4.86.14,9.59.14,14.17.11a251.87,251.87,0,0,0,31.53-2.12A130.29,130.29,0,0,1,452.94,387.25Z"/><path class="cls-10" d="M450,344.4,430.76,572.8s-2,13.85,8.28,13.87c16.94,0,84.29,0,84.29,0s-12.75-2.88-12.59-9.36c.18-7.65,22.45-235.07,22.45-235.07Z"/><path class="cls-11" d="M528.79,582.53c-3.33,0-67.66.21-84.15,0-7.18-.09-8.44-6.39-8.5-10.47a20.32,20.32,0,0,1,.22-3.4l.5-5.94,1.27-15.13,1.12-13.36,1.45-17.18,1.22-14.5,13.64-162.3,83.23-2.16s-9.38,95.18-16,164.46c-.74,7.72-1.44,15.12-2.1,22-.21,2.2-.41,4.36-.61,6.46-.61,6.56-1.17,12.58-1.66,17.89q-.39,4.2-.71,7.79c-.85,9.34-1.35,15.31-1.35,16.44a9,9,0,0,0,.16,1.85C517.86,582.29,527.54,582.53,528.79,582.53Z"/><polygon class="cls-12" points="247.86 220.11 294.65 408.06 301.06 433.8 322.85 521.34 727.73 521.34 647.4 220.11 247.86 220.11"/><polygon class="cls-13" points="247.86 220.11 241.38 222.27 314.23 527.88 322.85 521.34 247.86 220.11"/><polygon class="cls-14" points="314.23 527.88 716.62 527.88 727.73 521.34 322.85 521.34 314.23 527.88"/><rect class="cls-15" x="455.54" y="582.62" width="87.12" height="4.14" transform="translate(998.2 1169.38) rotate(180)"/><polygon class="cls-16" points="708.12 465.83 642.42 224.09 247.22 224.09 247.22 220.11 647.4 220.11 712.88 465.3 708.12 465.83"/><polygon class="cls-17" points="520.51 527.88 520.06 531.04 438.13 547.59 439.25 534.23 439.79 527.88 520.51 527.88"/><path class="cls-17" d="M528.79,582.53c-3.33,0-67.66.21-84.15,0-7.18-.09-8.44-6.39-8.5-10.47l81.55-15.34c-.85,9.34-1.35,15.31-1.35,16.44a9,9,0,0,0,.16,1.85C517.86,582.29,527.54,582.53,528.79,582.53Z"/><polygon class="cls-18" points="500.71 460.36 322.85 521.34 301.06 433.8 500.71 460.36"/><polygon class="cls-19" points="247.86 220.11 647.4 220.11 712.23 462.2 306.07 462.2 247.86 220.11"/><path class="cls-20" d="M536,492.81a13.7,13.7,0,0,0-12.84-10.75c-5.94,0-9.82,4.81-8.67,10.75s6.91,10.75,12.84,10.75S537.18,498.74,536,492.81Z"/><polygon class="cls-21" points="693.39 451.71 319.3 451.71 276.93 282.94 273.68 270 270.91 258.96 268.69 250.12 264.41 233.07 633.11 233.07 633.37 234.01 637.81 250.12 640.25 258.96 643.29 270 646.86 282.94 693.39 451.71"/><polygon class="cls-21" points="693.39 452.29 319.3 452.29 276.93 283.52 273.68 270.58 270.91 259.54 268.69 250.7 264.41 233.65 633.11 233.65 633.37 234.59 637.81 250.7 640.25 259.54 643.29 270.58 646.86 283.52 693.39 452.29"/><polygon class="cls-22" points="637.81 250.12 268.69 250.12 264.41 233.07 632.97 233.07 633.37 234.01 637.81 250.12"/><path class="cls-21" d="M274.67,241.6a2.44,2.44,0,0,1,2.43-3.24,4.41,4.41,0,0,1,4,3.24,2.44,2.44,0,0,1-2.43,3.23A4.4,4.4,0,0,1,274.67,241.6Z"/><ellipse class="cls-21" cx="288.66" cy="241.6" rx="2.86" ry="3.66" transform="translate(-83.51 298.03) rotate(-48.55)"/><path class="cls-21" d="M297,241.6a2.44,2.44,0,0,1,2.43-3.24,4.43,4.43,0,0,1,4,3.24,2.44,2.44,0,0,1-2.43,3.23A4.4,4.4,0,0,1,297,241.6Z"/><path class="cls-23" d="M435.83,452.29h-37c-.36-2.89-.67-6-.95-9.14-.5-5.71-.88-11.86-1.16-18.26q-.09-2.22-.18-4.47c-.07-1.9-.13-3.84-.18-5.78q-.14-4.93-.22-10h0c-.06-4.27-.1-8.57-.11-12.86h0v-3.2h0c0-1,0-2,0-3,0-9.23.17-18.28.36-26.69.43-18.63,1.12-34.14,1.49-41.6h0c.15-3.07.24-4.77.24-4.77h0c.09,0,.65.11,1.53.32.65.16,1.47.38,2.4.67h0c.84.25,1.77.57,2.75.94h0a31.5,31.5,0,0,1,5.15,2.49l.08,0c2.76,1.71,5.26,4,6.4,7,1,2.55,3.26,16.26,6,34.45l.24,1.57c1.46,9.67,3,20.51,4.62,31.58,1.68,11.74,3.36,23.72,4.9,34.82C433.58,435.91,434.8,444.78,435.83,452.29Z"/><path class="cls-24" d="M425.47,452.29H382.41c-.82-3.55-1.6-7-2.28-10.19-1.89-8.86-3.14-16.12-3.07-20a5.82,5.82,0,0,1,1.91-4.36,9.45,9.45,0,0,1,3.08-1.82c3.63-1.38,8.85-1.6,14.32-1.26,1.85.12,3.74.3,5.59.53a163,163,0,0,1,19.73,3.77s.64,2.57,1.39,7.06c.56,3.37,1.19,7.82,1.66,13.08.27,3.06.49,6.39.61,9.94C425.39,450.08,425.43,451.18,425.47,452.29Z"/><path class="cls-25" d="M405.58,422.13l-.42,3.11-2.09,15.11-.35,2.58-1.3,9.36H356.55c-.35-6.19-.67-12.22-.73-17.48,0-.58,0-1.15,0-1.71,0-7.92.7-13.79,3-15.27,2.57-1.68,11.1-1.22,20.19-.11l2.73.35c5.29.72,10.59,1.6,14.85,2.35l5.65,1C404.32,421.87,405.58,422.13,405.58,422.13Z"/><path class="cls-8" d="M355.81,320.3s24.65-15.94,42.33-7.79c2.82,1.3,6,4.93,8.34,7.46,6.39,7,18.88,118.91,18.88,118.91s-35.46,12-69.55-4.07Z"/><path class="cls-26" d="M399.55,312.11s24.95,10.23,28.33,18.08,14.37,56.12,14.37,61.78-19.13,1.26-22.21-7.86c-2.56-7.58-11.18-30.86-15.73-45.59Z"/><path class="cls-27" d="M394.36,319.9A28.08,28.08,0,0,1,375.05,316a55.61,55.61,0,0,0,4.12-14.54l.06-.49a15.08,15.08,0,0,0,.06-3.33h14.09s3.85,1.76,3.85,3c0,.65,0,1.28,0,1.87,0,1.62.1,3,.18,4.25a39.06,39.06,0,0,0,.72,5.81S399.86,318.82,394.36,319.9Z"/><path class="cls-28" d="M397.42,306.7c-10.67,2.06-16.86-3.77-18.25-5.27-.2-.21-.3-.34-.3-.34l.36-.15c4-1.61,13-.33,18,1.51C397.27,304.07,397.34,305.49,397.42,306.7Z"/><path class="cls-27" d="M375.68,295.29c1.91,10.26,15.15,9.93,20.87,9.28,1.62-.18,2.63-.38,2.63-.38,1.81-.49,2.83-3.35,3.3-7.09.93-7.42-.25-18.3-1.5-21.09-1.89-4.18-5.44-8.71-18.77-5.45S373.24,282.14,375.68,295.29Z"/><path class="cls-24" d="M401.48,270.29a30.67,30.67,0,0,0-9.2-7.51c-7.54-4.07-17.19.13-17.23.15-10.89,4.79-13.74,13.12-8,26.1,6.1,13.73,11.92,12.19,11.92,12.19s-1.24-.77-1.13-5.05c0-.24,0-.45,0-.62a2.84,2.84,0,0,0-.91-2.34c-1.35-1.21-2-4.86-.88-5.88,1.37-1.22,3.29.27,3.9,1.41a1.69,1.69,0,0,0,2.4.53c3.39-2.14,1.18-6.43,4.42-9s9.82-.42,14.67-2.51C407.88,275.34,402.85,272.19,401.48,270.29Z"/><path class="cls-29" d="M403.23,452.29H349.55c.39-11.13.88-24.42,1.4-37.87.13-3.49.27-7,.4-10.47l.18-4.4c1.18-29.88,2.36-56.86,2.61-58.32.56-3.28,1.09-6.08,1.67-8.51,1.69-7.08,3.78-11,8.35-14.3.45-.34,4.1-2.18,7.32-3.79l5-2.48h0a5.13,5.13,0,0,1,1.73,2.1,35.19,35.19,0,0,1,1.94,4.27,231.08,231.08,0,0,1,6.94,23.15v0h0c1.19,4.65,2,8.27,2.28,9.31.42,1.75,1,5.15,1.6,9.74v0c.87,6.27,1.9,14.77,3,24.43h0c.11,1,.22,2,.33,3s.27,2.32.4,3.51h0l.12,1.14h0c.42,3.83.85,7.77,1.27,11.78h0c.36,3.31,5.38,5.71,5.73,9.08,0,.24.05.74.08,1.43.07,1.42.14,3.68.24,6.29,0,1.17.08,2.4.12,3.66.2,5.6.44,11.74.72,14.69q0,.21,0,.54c0,.59.06,1.45.08,2.54C403.2,445.21,403.22,448.52,403.23,452.29Z"/><path class="cls-17" d="M364.58,347.76c0,.07,1.18,35.73,23.85,39.4s7.61,4.63,7.61,4.63-42.66-1.82-43.37-2.94S364.58,347.76,364.58,347.76Z"/><path class="cls-17" d="M385.77,400.1s-.42.3-1.24.82l0,0a106.29,106.29,0,0,1-28.68,12.26q-2.35.65-4.86,1.2c.13-3.48.27-7,.4-10.46a45.32,45.32,0,0,1-5.62-.78c.06-.46.13-.92.18-1.38,1.91-.78,3.8-1.53,5.62-2.24l4.28-1.65C362,395.57,366.5,394,366.5,394l18.18,5.76Z"/><path class="cls-30" d="M390.58,399.59s-2.33.58-6.05,1.33h0c-6.86,1.38-18.38,3.31-28.68,3.21-1.52,0-3-.08-4.46-.19a45.32,45.32,0,0,1-5.62-.78c-3.76-.79-6.91-2.14-9-4.24-15.32-15.6,8.35-71.59,13.33-77,5.81-6.36,16.42-8.6,22.28-9.36l.7-.09c2.06-.25,3.38-.3,3.46-.3h0l-1.23,4c-.3,1-.64,2.09-1,3.35-3.6,11.78-10.54,34.93-13.6,48-1.12,4.77-1.72,8.2-1.45,9.22,1.19,4.46,13.57,6.75,21.41,7.77,3.27.42,5.75.62,6.31.66h.11l.45,1.86,1.09,4.46,1.07,4.38Z"/><polygon class="cls-31" points="433.3 426.43 380.7 424.21 391.37 358.66 443.97 360.88 433.3 426.43"/><path class="cls-27" d="M387.06,385.13s10.24-.71,10.75,1.67c1.2,5.57-8.8,10.13-12,9.82S384.7,384.76,387.06,385.13Z"/><path class="cls-27" d="M441.09,374.19s-9.79-3.06-10.84-.86c-2.46,5.14,6.22,11.89,9.44,12.34S443.47,374.37,441.09,374.19Z"/><path class="cls-32" d="M377.59,308.86s-4.31,2.05-6.47,5.15c0,0,16.11,28,16,27.69S381.71,312.44,377.59,308.86Z"/><path class="cls-33" d="M397.65,309.25a12.41,12.41,0,0,1,4.75,4.86l1.91,24.41s-4.09-17.91-6.17-26A13,13,0,0,1,397.65,309.25Z"/><path class="cls-25" d="M408.81,359.4s.41-1.82,2.81-1.61,15.84.87,15.84.87,2.6,0,2.36,1.62Z"/><path class="cls-8" d="M393.38,297.61a5.61,5.61,0,0,0,4.56,1.1c1.67-.3,2.61-2.47,2.61-2.47A12.58,12.58,0,0,0,393.38,297.61Z"/><polygon class="cls-8" points="642.62 318.01 603.76 318.15 591.16 269.91 630.02 269.77 642.62 318.01"/><polygon class="cls-34" points="620.38 276.11 604.09 276.17 603.9 275.45 620.2 275.39 620.38 276.11"/><polygon class="cls-34" points="622.98 278.09 602.53 278.17 602.34 277.45 622.8 277.38 622.98 278.09"/><polygon class="cls-34" points="628.61 287.91 602.04 288.01 601.85 287.29 628.42 287.19 628.61 287.91"/><polygon class="cls-34" points="629.22 290.26 602.65 290.36 602.47 289.64 629.03 289.55 629.22 290.26"/><polygon class="cls-34" points="629.84 292.61 603.27 292.71 603.08 292 629.65 291.9 629.84 292.61"/><polygon class="cls-34" points="630.45 294.96 603.88 295.06 603.7 294.35 630.26 294.25 630.45 294.96"/><polygon class="cls-34" points="631.07 297.31 604.5 297.41 604.31 296.7 630.88 296.6 631.07 297.31"/><polygon class="cls-34" points="632.56 303.04 605.99 303.14 605.81 302.42 632.37 302.32 632.56 303.04"/><polygon class="cls-34" points="633.17 305.39 606.61 305.49 606.42 304.77 632.99 304.68 633.17 305.39"/><polygon class="cls-34" points="633.79 307.74 607.22 307.84 607.03 307.13 633.6 307.03 633.79 307.74"/><polygon class="cls-34" points="634.4 310.09 607.84 310.19 607.65 309.48 634.22 309.38 634.4 310.09"/><polygon class="cls-34" points="635.02 312.45 608.45 312.54 608.26 311.83 634.83 311.73 635.02 312.45"/><polygon class="cls-8" points="658.27 377.94 619.42 378.09 606.82 329.85 645.67 329.71 658.27 377.94"/><polygon class="cls-34" points="636.04 336.05 619.75 336.11 619.56 335.39 635.85 335.33 636.04 336.05"/><polygon class="cls-34" points="638.64 338.03 618.19 338.11 618 337.39 638.45 337.31 638.64 338.03"/><polygon class="cls-34" points="644.26 347.85 617.7 347.94 617.51 347.23 644.08 347.13 644.26 347.85"/><polygon class="cls-34" points="644.88 350.2 618.31 350.3 618.12 349.58 644.69 349.48 644.88 350.2"/><polygon class="cls-34" points="645.49 352.55 618.92 352.65 618.74 351.93 645.31 351.84 645.49 352.55"/><polygon class="cls-34" points="646.11 354.9 619.54 355 619.35 354.29 645.92 354.19 646.11 354.9"/><polygon class="cls-34" points="646.72 357.25 620.15 357.35 619.97 356.64 646.53 356.54 646.72 357.25"/><polygon class="cls-34" points="648.22 362.98 621.65 363.07 621.46 362.36 648.03 362.26 648.22 362.98"/><polygon class="cls-34" points="648.83 365.33 622.26 365.43 622.08 364.71 648.64 364.62 648.83 365.33"/><polygon class="cls-34" points="649.44 367.68 622.88 367.78 622.69 367.06 649.26 366.97 649.44 367.68"/><polygon class="cls-34" points="650.06 370.03 623.49 370.13 623.3 369.42 649.87 369.32 650.06 370.03"/><polygon class="cls-34" points="650.67 372.38 624.11 372.48 623.92 371.77 650.49 371.67 650.67 372.38"/><polygon class="cls-8" points="674.04 438.29 635.18 438.43 622.58 390.19 661.44 390.05 674.04 438.29"/><polygon class="cls-34" points="651.8 396.39 635.51 396.45 635.32 395.73 651.61 395.67 651.8 396.39"/><polygon class="cls-34" points="654.4 398.37 633.95 398.45 633.76 397.73 654.22 397.66 654.4 398.37"/><polygon class="cls-34" points="660.02 408.19 633.46 408.29 633.27 407.57 659.84 407.47 660.02 408.19"/><polygon class="cls-34" points="660.64 410.54 634.07 410.64 633.88 409.92 660.45 409.82 660.64 410.54"/><polygon class="cls-34" points="661.25 412.89 634.69 412.99 634.5 412.27 661.07 412.18 661.25 412.89"/><polygon class="cls-34" points="661.87 415.24 635.3 415.34 635.11 414.63 661.68 414.53 661.87 415.24"/><polygon class="cls-34" points="662.48 417.59 635.91 417.69 635.73 416.98 662.3 416.88 662.48 417.59"/><polygon class="cls-34" points="663.98 423.32 637.41 423.42 637.22 422.7 663.79 422.6 663.98 423.32"/><polygon class="cls-34" points="664.59 425.67 638.02 425.77 637.84 425.05 664.4 424.96 664.59 425.67"/><polygon class="cls-34" points="665.21 428.02 638.64 428.12 638.45 427.41 665.02 427.31 665.21 428.02"/><polygon class="cls-34" points="665.82 430.37 639.25 430.47 639.07 429.76 665.63 429.66 665.82 430.37"/><polygon class="cls-34" points="666.43 432.73 639.87 432.82 639.68 432.11 666.25 432.01 666.43 432.73"/><polygon class="cls-8" points="622.95 438.69 487.06 439.19 447.95 289.46 465.65 270.4 578.88 269.99 622.95 438.69"/><polygon class="cls-34" points="541.45 295.29 493.56 295.46 493.01 293.37 540.9 293.19 541.45 295.29"/><polygon class="cls-34" points="549.1 301.12 488.97 301.34 488.42 299.24 548.55 299.02 549.1 301.12"/><polygon class="cls-34" points="565.63 329.98 487.53 330.26 486.98 328.17 565.08 327.88 565.63 329.98"/><polygon class="cls-34" points="567.43 336.89 489.33 337.18 488.79 335.08 566.89 334.79 567.43 336.89"/><polygon class="cls-34" points="569.24 343.8 491.14 344.09 490.59 341.99 568.69 341.7 569.24 343.8"/><polygon class="cls-34" points="571.05 350.72 492.94 351 492.4 348.91 570.5 348.62 571.05 350.72"/><polygon class="cls-34" points="572.85 357.63 494.75 357.92 494.2 355.82 572.3 355.53 572.85 357.63"/><polygon class="cls-34" points="577.25 374.46 499.15 374.74 498.6 372.65 576.7 372.36 577.25 374.46"/><polygon class="cls-34" points="579.05 381.37 500.95 381.66 500.4 379.56 578.5 379.27 579.05 381.37"/><polygon class="cls-34" points="580.86 388.28 502.76 388.57 502.21 386.47 580.31 386.19 580.86 388.28"/><polygon class="cls-34" points="582.66 395.2 504.56 395.49 504.01 393.39 582.12 393.1 582.66 395.2"/><polygon class="cls-34" points="584.47 402.11 506.37 402.4 505.82 400.3 583.92 400.01 584.47 402.11"/><polygon class="cls-34" points="447.95 289.46 470.61 289.38 465.65 270.4 447.95 289.46"/><path class="cls-35" d="M664.62,517H776.29A14.94,14.94,0,0,1,791.23,532v8.85a15.28,15.28,0,0,1-15.28,15.28H664.62a0,0,0,0,1,0,0V517a0,0,0,0,1,0,0Z"/><path class="cls-36" d="M885.65,533.12V539a17.11,17.11,0,0,1-17.12,17.12H661.23a2.48,2.48,0,0,1-2.48-2.48v-.88a2.48,2.48,0,0,1,2.48-2.48H787.6a16.54,16.54,0,0,0,1.78-2.67,15.92,15.92,0,0,0,1.85-7.47v-7.47a15.85,15.85,0,0,0-.51-4,15.67,15.67,0,0,0-2.93-5.8H661.23a2.48,2.48,0,0,1-2.48-2.48v-.88a2.48,2.48,0,0,1,2.48-2.48H869.58a16,16,0,0,1,16.07,16.07Z"/><path class="cls-37" d="M885,528.69H790.72a15.67,15.67,0,0,0-2.93-5.8H661.23a2.48,2.48,0,0,1-2.48-2.48v-.88a2.48,2.48,0,0,1,2.48-2.48H869.58A16.09,16.09,0,0,1,885,528.69Z"/><polygon class="cls-38" points="664.63 536.58 679.97 537.24 664.63 537.64 664.63 536.58"/><polygon class="cls-38" points="664.63 542.71 701.14 543.37 664.63 543.77 664.63 542.71"/><path class="cls-39" d="M675.33,556H796.65a12.12,12.12,0,0,1,12.12,12.12V575a11.39,11.39,0,0,1-11.39,11.39H675.33a0,0,0,0,1,0,0V556A0,0,0,0,1,675.33,556Z" transform="translate(1484.11 1142.47) rotate(-180)"/><path class="cls-35" d="M786.71,556H924.16A11.89,11.89,0,0,1,936,567.92v6.88a11.62,11.62,0,0,1-11.62,11.62H786.71a0,0,0,0,1,0,0V556a0,0,0,0,1,0,0Z" transform="translate(1722.75 1142.47) rotate(180)"/><path class="cls-39" d="M777.76,586.43H940.7a2.27,2.27,0,0,0,2.27-2.27h0a2.28,2.28,0,0,0-2.27-2.28H777.76a2.28,2.28,0,0,0-2.27,2.28h0A2.27,2.27,0,0,0,777.76,586.43Z"/><path class="cls-39" d="M777.76,560.58H940.7a2.27,2.27,0,0,0,2.27-2.27h0A2.27,2.27,0,0,0,940.7,556H777.76a2.27,2.27,0,0,0-2.27,2.27h0A2.27,2.27,0,0,0,777.76,560.58Z"/><polygon class="cls-38" points="936.04 571.23 917.94 571.74 936.04 572.05 936.04 571.23"/><polygon class="cls-38" points="936.04 564.24 892.97 564.75 936.04 565.06 936.04 564.24"/><path class="cls-36" d="M893.41,564.65a7,7,0,0,1,2.46,3.45,4.7,4.7,0,0,1,.19,1.2c.1,2.85,0,9.31,0,9.31l5.45-3.23,5.44,3.23v-8.75a7,7,0,0,0-1.33-4.32,2.06,2.06,0,0,0-1.51-.89Z"/><path class="cls-40" d="M893.41,564.65a7,7,0,0,1,2.46,3.45l10.92.13s-.43-3.08-2.68-3.58Z"/><path class="cls-35" d="M770.47,472.48h120.7a17.46,17.46,0,0,1,17.46,17.46v10.11a17.08,17.08,0,0,1-17.08,17.08H770.47a0,0,0,0,1,0,0V472.48A0,0,0,0,1,770.47,472.48Z" transform="translate(1679.1 989.61) rotate(180)"/><path class="cls-41" d="M773.3,489.8v9.61a11.18,11.18,0,0,0,11.2,11H915.17a2.77,2.77,0,0,1,2.77,2.77v1.14a2.77,2.77,0,0,1-2.77,2.77H689.43A19.12,19.12,0,0,1,670.32,498v-7.58a17.93,17.93,0,0,1,17.95-17.95h226.9a2.77,2.77,0,0,1,2.77,2.77v1.13a2.78,2.78,0,0,1-2.77,2.78H784.1a10.84,10.84,0,0,0-8,3.46A10.6,10.6,0,0,0,773.3,489.8Z"/><polygon class="cls-38" points="908.63 494.8 891.88 495.55 908.63 496.01 908.63 494.8"/><polygon class="cls-38" points="908.63 484.53 868.78 485.28 908.63 485.73 908.63 484.53"/><path class="cls-42" d="M869.19,485.13a8.33,8.33,0,0,1,3.5,3.74,4.36,4.36,0,0,1,.27,1.3c.15,3.1,0,10.09,0,10.09l7.77-3.49,7.74,3.49v-9.48a6.36,6.36,0,0,0-1.9-4.68,3.2,3.2,0,0,0-2.14-1Z"/><path class="cls-43" d="M869.19,485.13a8.33,8.33,0,0,1,3.5,3.74l15.56.14a5,5,0,0,0-3.82-3.88Z"/><path class="cls-24" d="M790.4,455.92c6.89,12,15.55,16.62,15.55,16.62h36S785.15,446.78,790.4,455.92Z"/><path class="cls-27" d="M818.08,548.67a3.31,3.31,0,0,1,.59,3.56v0c-.86,2.37-3.7,5-7,7.67-.43.34-.8.65-1.13.94l-.25.23a1.54,1.54,0,0,0-.19.17c-3.08,2.84-1.92,3.49-7.45,9.24-6.3,6.56-10.64,6.67-11.87,6.08-1-.51,1.08-4,3.43-7.9.11-.19.22-.38.34-.57l.93-1.57c2.76-4.7,2-6.91,1.4-13.91-.53-5.69-8.85-31.78-8.85-31.78l12.07-2.08s3.64,20.78,7.65,24c2.14,1.7,4.54,1.73,6.6,3l.42.27A16,16,0,0,1,818.08,548.67Z"/><path class="cls-24" d="M818.08,548.67a3.31,3.31,0,0,1,.59,3.56v0c-1,2.37-3.82,5-7,7.65q-.61.51-1.11,1l-.25.23a1.54,1.54,0,0,0-.19.17c-3.08,2.84-1.92,3.49-7.45,9.24-6.3,6.56-10.64,6.67-11.87,6.08-1-.51,1.08-4,3.43-7.9a26.9,26.9,0,0,0,11.23-8.27c3.79-4.85,6.32-11.07,8.91-14.67l.42.27A16,16,0,0,1,818.08,548.67Z"/><path class="cls-27" d="M720.71,541.12c-.74,3.73-6.06,3.11-12,1.66s-4.53.27-13-.66-11-4.09-11.27-5.34,3.94-1.51,8.42-2l1.7-.2c5-.63,8.75-3.9,13.35-6.57,4.34-2.54,10.83-12.88,10.83-12.88l11.59.92s-6.08,9.23-8.43,13.25c-1.38,2.36-1.31,5.48-1.14,7.89A14.6,14.6,0,0,1,720.71,541.12Z"/><path class="cls-24" d="M708.72,542.78c-5.94-1.45-4.53.27-13-.66s-11-4.09-11.27-5.34,3.94-1.51,8.42-2l0,.09A23.86,23.86,0,0,0,705,538.6c5.73.14,11.8-1.5,15.76-1.44a14.6,14.6,0,0,1-.09,4C720,544.85,714.65,544.23,708.72,542.78Z"/><path class="cls-24" d="M765.11,467l10.83,29.15,14.14,38.05a22.85,22.85,0,0,0,7.51-.69,32.22,32.22,0,0,0,7.27-3.53s-3.93-40.86-11.25-64.31c-1.88-6-4-10.89-6.3-13.64C776,438.66,765.11,467,765.11,467Z"/><path class="cls-44" d="M776.12,420.76c7.1-2.29,27.34.65,47.66,4.63l4.26-7L872,414.94s14.49,32.13,6.56,52.61a7.44,7.44,0,0,1-7.43,5h-.65l-34.62,0c-21.83,0-46.21-15-49.36-15.64-5.17-1-7.23,9.29-12.39,20.13s-48.52,48-48.52,48-6.66.06-9.42-1a9.26,9.26,0,0,1-4-2.55S760.12,425.92,776.12,420.76Z"/><path class="cls-24" d="M828.3,357.9c15.63,8.61,47.35,26.46,47.52,26.34,0,0,11.66,4.39,18.27,0,11-7.32,16.94-27-3.22-44-10.06-8.46-17.2-10.52-18.29-24-.58-7.32-10.6-31.5-27.24-29.27-1.39.19-10,.59-15.57,3.54C815.43,298,804.86,354.57,828.3,357.9Z"/><path class="cls-27" d="M841.4,350.57c-.06.05,7.7,2.7,12.89.4,4.88-2.16,8.58-10.19,8.51-10.2-2.22-.1-4.66-2-6.54-14.78l-1,.34-15.9,5.72s1.15,5.1,1.9,10C841.94,346.09,842.27,350,841.4,350.57Z"/><path class="cls-45" d="M839.41,332.05s1.15,5.1,1.9,10c9.13-1.65,12.72-10.75,14-15.68Z"/><path class="cls-27" d="M837,337.11s21.76-2.92,19.73-16.44-.58-23-14.56-21.71-15.9,6.85-16.32,11.53S831.33,337.52,837,337.11Z"/><path class="cls-24" d="M826.69,303.08s13.92,12,23.4,13S863.15,314,863.15,314a37,37,0,0,1-8.95-12.12,6.65,6.65,0,0,0-5.49-3.93C842,297.35,829.12,297.08,826.69,303.08Z"/><path class="cls-24" d="M835.39,302s-4.66,4.5-6.12,7.84-1.84,10.94-.72,14c0,0-7.26-14.11-3.15-21C829.76,295.61,835.39,302,835.39,302Z"/><path class="cls-8" d="M823.08,382.62c.66,44.05.18,34.84,5,39,1.16,1,4.43,1.61,8.72,1.89,13.51.9,37.25-1.33,38.15-3.82,3.11-8.64.91-11.32,3.51-24.54.27-1.41.61-2.93,1-4.59,2.17-9.08,4.28-12.17-3.41-26.76-7-13.21-14.21-23.94-14.86-23.55-18.4,10.92-19.88,1.74-19.88,1.74S822.76,361.14,823.08,382.62Z"/><path class="cls-46" d="M775.94,496.19l14.14,38.05a22.85,22.85,0,0,0,7.51-.69,32.22,32.22,0,0,0,7.27-3.53s-3.93-40.86-11.25-64.31Z"/><path class="cls-8" d="M841.31,342s-18.93,3.21-21.15,11.36-15.3,56.05-15.3,56.05,9.62,1.73,14.06-2.72,15.47-41.23,15.47-41.23Z"/><path class="cls-47" d="M836.8,423.53c13.51.9,37.25-1.33,38.15-3.82,3.11-8.64.91-11.32,3.51-24.54L872,376.82s1.08,20.43-5,25.8S842.34,413,839.41,417.48A16.53,16.53,0,0,0,836.8,423.53Z"/><path class="cls-27" d="M852.27,414.94s-13.32-3-15.47-1.78-7.4,5.48-8.06,7,4.79-1.13,6.56-1.61c1.14-.31,4.16.74,5.66,1.24,6.28,2.1,10.14,1,10.14,1Z"/><path class="cls-8" d="M861.2,340.26s17.89,1.1,24.08,9.74c8.72,12.16,26,64,16.1,70.89-11.16,7.78-50.8,2-50.8,2s-1.32-6.17.52-9.15,31.66-7.8,33-9.18-17.2-26.84-17.2-31S861.2,340.26,861.2,340.26Z"/><path class="cls-27" d="M836.16,416.86s-2.8,3.61-3.71,4a2.72,2.72,0,0,1-1.51.32l1.88-3.39Z"/><path class="cls-27" d="M836.8,413.16l-8.12,3.94a1.47,1.47,0,0,0,1.35.52,19.66,19.66,0,0,0,3.52-1Z"/><polygon class="cls-48" points="832.45 426.41 768.25 426.41 748.93 378.38 813.04 378.38 832.45 426.41"/><polygon class="cls-43" points="767.49 424.54 852.27 424.54 852.27 426.41 768.25 426.41 767.49 424.54"/><path class="cls-8" d="M784.45,402.4a2.23,2.23,0,0,1,2.18-3.06,4.39,4.39,0,0,1,3.94,3.06,2.22,2.22,0,0,1-2.18,3.05A4.38,4.38,0,0,1,784.45,402.4Z"/><path class="cls-8" d="M249,445.27l-1.37,1a3.22,3.22,0,0,1-4.48-.81l-8-11.47a3.24,3.24,0,0,1,.82-4.49l2-1.35a.63.63,0,1,1,.71,1l-1.95,1.36a2,2,0,0,0-.5,2.73l7.95,11.47a2,2,0,0,0,2.73.49l1.37-.94a2,2,0,0,0,.49-2.73l-5.28-7.62a.63.63,0,0,1,1-.72l5.28,7.62A3.22,3.22,0,0,1,249,445.27Z"/><path class="cls-8" d="M257.72,456.59l-2.45,1.7a5.23,5.23,0,0,1-7.19-1.56l-12-17.25a.65.65,0,0,1,.16-.88.63.63,0,0,1,.88.16l12,17.25a4,4,0,0,0,5.43,1.24l2.46-1.7a4,4,0,0,0,.74-5.53l-13.62-19.64a4,4,0,0,0-5.44-1.25.63.63,0,1,1-.71-1,5.21,5.21,0,0,1,7.19,1.56l13.62,19.64A5.22,5.22,0,0,1,257.72,456.59Z"/><path class="cls-8" d="M274.17,546.68l.3,2.43a4.74,4.74,0,0,1-4.14,5.27l-20.39,2.48a4.74,4.74,0,0,1-5.27-4.14l-.42-3.48a.93.93,0,1,1,1.84-.22l.42,3.48a2.89,2.89,0,0,0,3.21,2.52l20.39-2.48a2.87,2.87,0,0,0,2.51-3.21l-.29-2.43a2.87,2.87,0,0,0-3.21-2.51L255.58,546a.93.93,0,0,1-.22-1.84l13.54-1.65A4.74,4.74,0,0,1,274.17,546.68Z"/><path class="cls-8" d="M294.88,543.1l.53,4.36a7.67,7.67,0,0,1-7,8.28l-30.65,3.72a.94.94,0,0,1-1-.81.93.93,0,0,1,.81-1l30.65-3.72a5.81,5.81,0,0,0,5.35-6.22l-.52-4.36a5.83,5.83,0,0,0-6.69-4.76l-34.91,4.24a5.81,5.81,0,0,0-5.35,6.22.93.93,0,0,1-1.84.22,7.66,7.66,0,0,1,7-8.28l34.91-4.24A7.68,7.68,0,0,1,294.88,543.1Z"/><circle class="cls-42" cx="624.4" cy="258.18" r="2.83" transform="translate(229.67 806.56) rotate(-76.72)"/><rect class="cls-49" x="181.07" y="586.21" width="825.99" height="2.19" rx="0.85"/></g></g></g></svg>