<svg xmlns="http://www.w3.org/2000/svg" xmlns:xlink="http://www.w3.org/1999/xlink" viewBox="0 0 794.23 458.83"><defs><style>.cls-1{fill:#e6e6e6;}.cls-2{fill:#fff;}.cls-3{fill:#f2f2f2;}.cls-4{fill:url(#linear-gradient);}.cls-5{fill:#233862;}.cls-6{fill:#f53065;}.cls-7{fill:url(#linear-gradient-2);}.cls-8{fill:#ffb8b8;}.cls-9{fill:url(#linear-gradient-3);}.cls-10{fill:url(#linear-gradient-4);}.cls-11{fill:url(#linear-gradient-5);}.cls-12{fill:url(#linear-gradient-6);}</style><linearGradient id="linear-gradient" x1="424" y1="215" x2="-9.12" y2="215" gradientUnits="userSpaceOnUse"><stop offset="0" stop-color="#fe3eff"/><stop offset="1" stop-color="#423eff"/></linearGradient><linearGradient id="linear-gradient-2" x1="770.57" y1="208.24" x2="626.57" y2="100.24" xlink:href="#linear-gradient"/><linearGradient id="linear-gradient-3" x1="632.16" y1="168.8" x2="663.16" y2="356.8" gradientUnits="userSpaceOnUse"><stop offset="0" stop-color="#ff736b"/><stop offset="1" stop-color="#ff2260"/></linearGradient><linearGradient id="linear-gradient-4" x1="585.48" y1="176.5" x2="616.48" y2="364.5" xlink:href="#linear-gradient-3"/><linearGradient id="linear-gradient-5" x1="664.2" y1="163.51" x2="695.2" y2="351.51" xlink:href="#linear-gradient-3"/><linearGradient id="linear-gradient-6" x1="770.02" y1="208.98" x2="626.02" y2="100.98" xlink:href="#linear-gradient"/></defs><title>assignment</title><g id="Layer_2" data-name="Layer 2"><g id="b6192656-deba-422a-9855-e43972e91d46"><path class="cls-1" d="M366.76,435.23a6.75,6.75,0,0,1-3.34-.88L169.92,325a6.83,6.83,0,0,1-2.58-9.29L319.74,46.09A6.82,6.82,0,0,1,329,43.51h0l193.49,109.4a6.82,6.82,0,0,1,2.58,9.29L372.71,431.77A6.82,6.82,0,0,1,368.6,435,6.75,6.75,0,0,1,366.76,435.23Z"/><rect class="cls-2" x="415.42" y="-2.31" width="1.58" height="234.92" transform="translate(111.13 420.79) rotate(-60.52)"/><rect class="cls-2" x="401.42" y="22.45" width="1.58" height="234.92" transform="translate(82.47 421.18) rotate(-60.52)"/><rect class="cls-2" x="387.42" y="47.2" width="1.58" height="234.92" transform="translate(53.81 421.57) rotate(-60.52)"/><rect class="cls-2" x="373.43" y="71.96" width="1.58" height="234.92" transform="translate(25.16 421.95) rotate(-60.52)"/><rect class="cls-2" x="359.43" y="96.71" width="1.58" height="234.92" transform="translate(-3.5 422.34) rotate(-60.52)"/><rect class="cls-2" x="345.44" y="121.47" width="1.58" height="234.92" transform="translate(-32.16 422.73) rotate(-60.52)"/><rect class="cls-2" x="331.44" y="146.23" width="1.58" height="234.92" transform="translate(-60.82 423.12) rotate(-60.52)"/><rect class="cls-2" x="317.44" y="170.98" width="1.58" height="234.92" transform="translate(-89.48 423.51) rotate(-60.52)"/><rect class="cls-2" x="303.45" y="195.74" width="1.58" height="234.92" transform="translate(-118.14 423.9) rotate(-60.52)"/><rect class="cls-2" x="289.45" y="220.49" width="1.58" height="234.92" transform="translate(-146.79 424.29) rotate(-60.52)"/><rect class="cls-2" x="275.45" y="245.25" width="1.58" height="234.92" transform="translate(-175.45 424.67) rotate(-60.52)"/><path class="cls-3" d="M348.76,394.23a6.75,6.75,0,0,1-3.34-.88L151.92,284a6.83,6.83,0,0,1-2.58-9.29L301.74,5.09A6.82,6.82,0,0,1,311,2.51h0l193.49,109.4a6.82,6.82,0,0,1,2.58,9.29L354.71,390.77A6.82,6.82,0,0,1,350.6,394,6.75,6.75,0,0,1,348.76,394.23Z"/><rect class="cls-2" x="397.42" y="-43.31" width="1.58" height="234.92" transform="translate(137.68 384.3) rotate(-60.52)"/><rect class="cls-2" x="383.42" y="-18.55" width="1.58" height="234.92" transform="translate(109.02 384.69) rotate(-60.52)"/><rect class="cls-2" x="369.42" y="6.2" width="1.58" height="234.92" transform="translate(80.36 385.08) rotate(-60.52)"/><rect class="cls-2" x="355.43" y="30.96" width="1.58" height="234.92" transform="translate(51.71 385.46) rotate(-60.52)"/><rect class="cls-2" x="341.43" y="55.71" width="1.58" height="234.92" transform="translate(23.05 385.85) rotate(-60.52)"/><rect class="cls-2" x="327.44" y="80.47" width="1.58" height="234.92" transform="translate(-5.61 386.24) rotate(-60.52)"/><rect class="cls-2" x="313.44" y="105.23" width="1.58" height="234.92" transform="translate(-34.27 386.63) rotate(-60.52)"/><rect class="cls-2" x="299.44" y="129.98" width="1.58" height="234.92" transform="translate(-62.93 387.02) rotate(-60.52)"/><rect class="cls-2" x="285.45" y="154.74" width="1.58" height="234.92" transform="translate(-91.59 387.41) rotate(-60.52)"/><rect class="cls-2" x="271.45" y="179.49" width="1.58" height="234.92" transform="translate(-120.24 387.79) rotate(-60.52)"/><rect class="cls-2" x="257.45" y="204.25" width="1.58" height="234.92" transform="translate(-148.9 388.18) rotate(-60.52)"/><path class="cls-4" d="M329.48,0H20.24V430H329.48a4.2,4.2,0,0,0,4.19-4.19V4.19A4.2,4.2,0,0,0,329.48,0ZM37.69,418.13a7.68,7.68,0,1,1,7.68-7.68,7.67,7.67,0,0,1-7.68,7.68Zm0-39.09a7.68,7.68,0,1,1,7.68-7.68A7.67,7.67,0,0,1,37.69,379Zm0-39.09a7.68,7.68,0,1,1,7.68-7.68A7.67,7.67,0,0,1,37.69,340Zm0-39.09a7.68,7.68,0,1,1,7.68-7.68,7.67,7.67,0,0,1-7.68,7.68Zm0-39.09a7.68,7.68,0,1,1,7.68-7.68h0a7.68,7.68,0,0,1-7.68,7.68Zm0-39.09A7.68,7.68,0,1,1,45.37,215h0a7.68,7.68,0,0,1-7.68,7.68Zm0-39.09a7.68,7.68,0,1,1,7.68-7.68h0a7.68,7.68,0,0,1-7.68,7.68Zm0-39.09a7.68,7.68,0,1,1,7.68-7.68h0a7.68,7.68,0,0,1-7.68,7.68Zm0-39.09a7.68,7.68,0,1,1,7.68-7.68h0a7.68,7.68,0,0,1-7.68,7.68Zm0-39.1a7.68,7.68,0,1,1,7.68-7.67,7.66,7.66,0,0,1-7.68,7.67Zm0-39.09a7.68,7.68,0,1,1,7.68-7.67h0a7.67,7.67,0,0,1-7.68,7.67Z"/><path class="cls-5" d="M20.24,23.73C18.17,23.73,0,23.64,0,20.24s18.17-3.49,20.24-3.49v1.4c-10.7,0-17.64,1.2-18.76,2.09,1.12.9,8.06,2.1,18.76,2.1S37.86,21.14,39,20.25c-.55-.38-2.76-1.19-8.71-1.7l.12-1.39c10.08.87,10.08,2.48,10.08,3.08C40.49,23.64,22.32,23.73,20.24,23.73Z"/><path class="cls-5" d="M20.24,62.13C18.17,62.13,0,62,0,58.64s18.17-3.49,20.24-3.49v1.39c-10.7,0-17.64,1.2-18.76,2.1,1.12.89,8.06,2.09,18.76,2.09S37.86,59.54,39,58.64c-.55-.38-2.76-1.18-8.71-1.7l.12-1.39c10.08.87,10.08,2.48,10.08,3.09C40.49,62,22.32,62.13,20.24,62.13Z"/><path class="cls-5" d="M20.24,101.22c-2.07,0-20.24-.1-20.24-3.49s18.17-3.49,20.24-3.49v1.39c-10.7,0-17.64,1.2-18.76,2.1,1.12.89,8.06,2.09,18.76,2.09S37.86,98.63,39,97.73c-.55-.38-2.76-1.18-8.71-1.7l.12-1.39c10.08.87,10.08,2.48,10.08,3.09C40.49,101.12,22.32,101.22,20.24,101.22Z"/><path class="cls-5" d="M20.24,140.31c-2.07,0-20.24-.1-20.24-3.49s18.17-3.49,20.24-3.49v1.39c-10.7,0-17.64,1.2-18.76,2.1,1.12.89,8.06,2.09,18.76,2.09s17.62-1.19,18.76-2.09c-.55-.38-2.76-1.18-8.71-1.7l.12-1.39c10.08.87,10.08,2.48,10.08,3.09C40.49,140.21,22.32,140.31,20.24,140.31Z"/><path class="cls-5" d="M20.24,179.4c-2.07,0-20.24-.1-20.24-3.49s18.17-3.49,20.24-3.49v1.39c-10.7,0-17.64,1.2-18.76,2.1,1.12.9,8.06,2.09,18.76,2.09s17.62-1.19,18.76-2.08c-.55-.39-2.76-1.19-8.71-1.71l.12-1.39c10.08.87,10.08,2.48,10.08,3.09C40.49,179.3,22.32,179.4,20.24,179.4Z"/><path class="cls-5" d="M20.24,218.49C18.17,218.49,0,218.39,0,215s18.17-3.49,20.24-3.49v1.4c-10.7,0-17.64,1.19-18.76,2.09,1.12.9,8.06,2.09,18.76,2.09S37.86,215.9,39,215c-.55-.39-2.76-1.19-8.71-1.71l.12-1.39c10.08.88,10.08,2.48,10.08,3.09C40.49,218.39,22.32,218.49,20.24,218.49Z"/><path class="cls-5" d="M20.24,257.58c-2.07,0-20.24-.1-20.24-3.49s18.17-3.49,20.24-3.49V252c-10.7,0-17.64,1.19-18.76,2.09,1.12.9,8.06,2.1,18.76,2.1S37.86,255,39,254.1c-.55-.39-2.76-1.19-8.71-1.7l.12-1.4c10.08.88,10.08,2.49,10.08,3.09C40.49,257.48,22.32,257.58,20.24,257.58Z"/><path class="cls-5" d="M20.24,296.67c-2.07,0-20.24-.1-20.24-3.49s18.17-3.49,20.24-3.49v1.4c-10.7,0-17.64,1.2-18.76,2.09,1.12.9,8.06,2.1,18.76,2.1s17.62-1.2,18.76-2.09c-.55-.39-2.76-1.19-8.71-1.7l.12-1.39c10.08.87,10.08,2.48,10.08,3.08C40.49,296.57,22.32,296.67,20.24,296.67Z"/><path class="cls-5" d="M20.24,335.76c-2.07,0-20.24-.09-20.24-3.49s18.17-3.49,20.24-3.49v1.4c-10.7,0-17.64,1.2-18.76,2.09,1.12.9,8.06,2.1,18.76,2.1s17.62-1.2,18.76-2.09c-.55-.38-2.76-1.19-8.71-1.7l.12-1.39c10.08.87,10.08,2.48,10.08,3.08C40.49,335.67,22.32,335.76,20.24,335.76Z"/><path class="cls-5" d="M20.24,374.85c-2.07,0-20.24-.09-20.24-3.49s18.17-3.49,20.24-3.49v1.4c-10.7,0-17.64,1.2-18.76,2.09,1.12.9,8.06,2.1,18.76,2.1s17.62-1.2,18.76-2.09c-.55-.38-2.76-1.19-8.71-1.7l.12-1.39c10.08.87,10.08,2.48,10.08,3.08C40.49,374.76,22.32,374.85,20.24,374.85Z"/><path class="cls-5" d="M20.24,413.94c-2.07,0-20.24-.09-20.24-3.49S18.17,407,20.24,407v1.4c-10.7,0-17.64,1.2-18.76,2.09,1.12.9,8.06,2.1,18.76,2.1s17.62-1.19,18.76-2.09c-.55-.38-2.76-1.19-8.71-1.7l.12-1.39c10.08.87,10.08,2.48,10.08,3.08C40.49,413.85,22.32,413.94,20.24,413.94Z"/><path class="cls-2" d="M266.31,164.39H112.74a4.54,4.54,0,0,1-4.54-4.54v-60a4.55,4.55,0,0,1,4.54-4.54H266.31a4.55,4.55,0,0,1,4.53,4.54v60A4.53,4.53,0,0,1,266.31,164.39Z"/><path class="cls-6" d="M209.07,115.88H170a3.49,3.49,0,1,1,0-7h39.09a3.49,3.49,0,1,1,0,7Z"/><path class="cls-6" d="M230.71,133.33H148.34a3.49,3.49,0,0,1,0-7h82.37a3.49,3.49,0,0,1,0,7Z"/><path class="cls-6" d="M230.71,150.78H148.34a3.49,3.49,0,0,1,0-7h82.37a3.49,3.49,0,1,1,0,7Z"/><path class="cls-7" d="M629.63,144.93a11.57,11.57,0,0,0,9-18.81c-5.7-7.13-18.19-6-23.18-13.67-4.23-6.48-.32-15.37,5.31-20.66,11-10.37,28.7-12.92,42.21-6.09s22,22.55,20.15,37.59c-.68,5.72-2.27,12.67,2.17,16.35,3.95,3.26,9.77,1.41,14.73.13a52.53,52.53,0,0,1,43.16,8c10.52,7.54,18.19,19.72,18.2,32.67s-8.82,26-21.44,28.9c-12.37,2.84-25.12-4.07-33.87-13.26s-14.75-20.63-22.73-30.51-19-18.57-31.7-18.79c-7.35-.14-15.4,2.45-21.64-1.44"/><circle class="cls-8" cx="635.08" cy="125.52" r="24.56"/><path class="cls-8" d="M582.84,288.46a10,10,0,0,1,6.64-12.57,9.46,9.46,0,0,1,1.74-.37l7.5-34.94,13,13.25L602.61,285a10.11,10.11,0,0,1-19.77,3.49Z"/><polygon class="cls-8" points="708.99 440.21 696.95 442.47 660.62 323.16 686.4 319.82 708.99 440.21"/><path class="cls-5" d="M687.69,440.64l23.24-4.36h0l2.74,14.64h0L675.8,458h0a14.9,14.9,0,0,1,11.89-17.38Z"/><polygon class="cls-8" points="630.03 446.63 617.77 446.63 615.94 336.15 642.03 336.15 630.03 446.63"/><path class="cls-5" d="M609,443.13h23.64V458H594.13A14.89,14.89,0,0,1,609,443.13Z"/><path class="cls-9" d="M610.3,351.18l1.13-54c-.09-.76-8.95-82.57-12.25-103.47-3.35-21.25,14-32.14,14.15-32.24.78-.32,1.48-.59,2.18-.85h0a46.47,46.47,0,0,1,48.54,9.86,48,48,0,0,1,13.54,48.69l-6.11,21.17c31.32,56.62,37.75,81,37.81,81.22l0,.07v.08c-1.12,22.45-94.48,29.15-98.45,29.43Z"/><polygon class="cls-10" points="603.02 183.62 581.86 267.13 619.72 271.58 603.02 183.62"/><path class="cls-8" d="M654.16,252.65A10.08,10.08,0,0,1,667.54,245l22.68-27.61,5.49,17.74-22.37,23.5a10.11,10.11,0,0,1-19.18-6Z"/><path class="cls-11" d="M683.78,252.72,664,239.94l18.79-19.89-50.94-15.51L645,166.36l16.13,2.3,41,30.36a24.84,24.84,0,0,1,5.33,34.37l-.08.1Z"/><path class="cls-12" d="M613,111.56A80.44,80.44,0,0,0,647.79,123l-3.67-4.4a26.64,26.64,0,0,0,8.33,1.65c2.84,0,5.82-1.14,7.43-3.48a8.48,8.48,0,0,0,.57-7.84,16.15,16.15,0,0,0-5.05-6.32,30.13,30.13,0,0,0-28-5A18,18,0,0,0,619,103c-2.12,2.61-6.73,5-5.65,8.14Z"/><path class="cls-1" d="M793,458.83H488.75a1.19,1.19,0,0,1,0-2.38H793a1.19,1.19,0,1,1,0,2.38Z"/></g></g></svg>