<?xml version="1.0" standalone="no"?>
<!DOCTYPE svg PUBLIC "-//W3C//DTD SVG 20010904//EN"
 "http://www.w3.org/TR/2001/REC-SVG-20010904/DTD/svg10.dtd">
<svg version="1.0" xmlns="http://www.w3.org/2000/svg"
 width="750.000000pt" height="118.000000pt" viewBox="0 0 750.000000 118.000000"
 preserveAspectRatio="xMidYMid meet">
<metadata>
Created by potrace 1.16, written by Peter Selinger 2001-2019
</metadata>
<g transform="translate(0.000000,118.000000) scale(0.100000,-0.100000)"
fill="#000000" stroke="none">
<path d="M143 1171 c-82 -21 -142 -103 -143 -194 0 -56 32 -97 75 -97 34 0 32
-12 -6 -34 -37 -22 -68 -86 -69 -139 0 -31 7 -45 30 -67 26 -24 30 -35 30 -82
0 -32 6 -62 15 -75 15 -21 14 -25 -11 -62 -46 -71 -41 -173 11 -207 58 -38
159 -18 171 33 19 86 22 90 72 97 49 6 146 -7 166 -23 6 -5 35 -14 64 -22 l52
-13 83 42 c92 46 167 72 211 72 22 0 38 -10 64 -40 18 -22 46 -47 61 -54 35
-19 104 -12 140 13 36 26 36 26 74 -1 48 -34 111 -33 163 3 23 16 45 29 48 29
3 0 27 -14 53 -31 41 -26 54 -30 93 -25 24 4 61 17 82 31 44 29 61 31 79 9 24
-29 71 -46 110 -41 34 4 129 59 137 79 2 4 8 8 13 8 16 0 10 -30 -11 -53 -27
-28 -39 -75 -28 -112 14 -50 32 -60 101 -56 72 4 177 4 263 -1 116 -6 247 78
247 158 0 17 7 17 31 -1 10 -8 38 -17 62 -21 35 -5 51 -2 89 19 l46 26 36 -25
c53 -36 93 -32 169 16 19 12 25 10 54 -10 51 -36 117 -33 175 8 25 18 54 32
64 32 11 0 57 -16 103 -36 97 -41 138 -41 209 5 55 34 93 45 116 31 31 -18
206 -70 235 -70 15 0 48 11 73 24 l45 25 25 -25 c29 -29 98 -33 133 -8 25 17
45 16 143 -7 55 -12 56 -12 130 24 41 20 80 37 87 37 7 0 28 -11 47 -26 28
-21 32 -29 26 -52 -4 -15 -6 -33 -5 -39 1 -7 2 -21 3 -31 1 -21 51 -45 77 -36
17 5 17 4 -1 -7 -11 -7 -35 -25 -53 -41 -47 -40 -71 -36 -37 8 13 16 14 16 9
1 -8 -23 9 -22 32 4 15 17 16 22 4 29 -17 11 -45 -3 -88 -44 l-34 -31 19 33
c15 28 16 34 4 41 -9 6 -22 6 -31 1 -10 -6 -21 -5 -27 1 -7 7 -15 6 -24 -4
-13 -12 -16 -12 -28 0 -11 12 -19 10 -58 -12 -51 -28 -69 -33 -35 -9 27 18 30
39 4 25 -10 -6 -24 -6 -34 0 -11 6 -20 4 -28 -6 -11 -13 -14 -13 -25 1 -9 14
-16 14 -33 5 -32 -17 -27 -1 10 29 38 32 31 48 -19 48 -29 0 -44 -8 -72 -36
-20 -20 -39 -35 -43 -34 -5 1 -8 -6 -8 -16 0 -18 -19 -40 -50 -57 -14 -8 14
31 32 45 3 3 10 18 13 33 6 23 5 26 -9 21 -10 -4 -15 -12 -13 -18 2 -6 -17
-29 -42 -51 -49 -44 -47 -36 11 41 42 56 45 64 24 64 -8 0 -24 -16 -36 -34
-11 -19 -27 -33 -34 -30 -18 7 -81 -39 -84 -63 -3 -23 24 -39 43 -23 8 6 15 6
23 -2 8 -8 15 -8 24 0 8 7 19 7 28 2 8 -5 19 -6 25 -4 5 3 -3 -6 -18 -20 -15
-14 -39 -26 -53 -26 -13 0 -24 -4 -24 -10 0 -5 22 -10 50 -10 43 0 55 5 90 36
22 20 49 51 61 70 11 19 25 34 31 34 6 0 3 -9 -8 -21 -14 -15 -16 -24 -8 -37
18 -29 41 -25 86 15 24 20 32 26 19 11 -30 -35 -24 -56 9 -30 26 20 45 18 68
-5 20 -20 38 -16 79 19 27 23 31 25 15 7 -12 -14 -22 -28 -22 -32 0 -17 24 -4
53 28 17 19 35 35 40 35 6 0 2 -9 -8 -20 -17 -19 -17 -22 -3 -36 12 -12 20
-13 35 -6 12 7 24 7 36 0 13 -7 25 -5 43 6 13 9 24 12 24 7 0 -5 9 -13 20 -16
22 -7 90 36 90 57 0 6 -7 5 -17 -3 -17 -13 -17 -12 -4 4 13 16 13 20 0 28 -8
5 -9 9 -4 9 6 0 15 -4 20 -9 21 -21 205 70 263 129 63 64 75 106 80 280 5 172
-6 249 -41 301 -38 56 -71 74 -138 74 -32 0 -59 3 -59 7 0 5 4 8 8 8 23 0 41
86 26 125 -16 40 -93 51 -174 25 -25 -8 -52 -9 -87 -2 -64 11 -91 0 -115 -46
-9 -19 -31 -41 -50 -50 -19 -10 -39 -31 -48 -50 -14 -32 -16 -33 -50 -26 -82
18 -123 11 -177 -29 -28 -20 -57 -37 -65 -37 -8 0 -19 -5 -25 -11 -8 -8 -22 2
-53 35 -61 66 -99 69 -219 21 l-92 -37 -24 26 c-21 22 -33 26 -83 26 -49 0
-67 5 -118 36 -229 140 -226 138 -277 139 -66 0 -87 -26 -90 -113 -1 -56 -4
-63 -24 -68 -13 -4 -33 -4 -46 -1 -12 3 -42 11 -66 17 -46 11 -92 6 -126 -14
-11 -6 -35 -13 -54 -15 -52 -4 -82 -19 -88 -41 -7 -26 -23 -26 -23 -1 0 31 19
73 45 99 49 49 37 144 -21 158 -29 7 -88 -1 -142 -19 -20 -7 -48 -10 -62 -6
-47 13 -87 9 -113 -11 -38 -30 -42 -65 -13 -122 l25 -48 -24 0 c-13 0 -27 -4
-30 -10 -10 -17 -58 -11 -100 12 -50 27 -149 31 -186 7 -13 -8 -53 -23 -87
-33 -59 -16 -65 -16 -76 -1 -6 9 -32 19 -56 22 -25 3 -65 12 -89 20 -51 16
-93 10 -135 -20 l-29 -20 -49 27 c-42 24 -57 27 -93 21 -24 -3 -54 -14 -66
-24 -20 -16 -26 -16 -48 -5 -18 10 -45 12 -88 8 -37 -4 -68 -2 -75 4 -29 22
-94 24 -154 3 -32 -12 -67 -21 -79 -21 -11 0 -33 -7 -48 -15 -27 -14 -28 -14
-20 8 12 34 6 122 -10 154 -49 93 -147 126 -273 92 -33 -9 -50 -8 -88 5 -43
15 -53 15 -108 0 -51 -13 -72 -14 -122 -4 -83 16 -184 21 -223 11z m397 -37
c0 -8 4 -13 8 -10 5 3 9 -2 9 -10 0 -8 -19 -25 -41 -36 -142 -72 -156 -100
-156 -304 -1 -102 -5 -162 -15 -189 -8 -21 -12 -41 -10 -43 8 -8 53 30 65 56
9 17 16 87 20 192 3 96 11 174 18 186 18 33 77 81 116 95 20 7 36 16 36 21 0
4 7 4 17 1 11 -5 14 -3 8 6 -6 10 -2 11 15 6 16 -5 20 -4 15 5 -5 9 -1 10 15
5 17 -5 21 -4 15 6 -6 9 -2 11 13 7 12 -4 20 -2 16 3 -3 5 -2 9 3 9 4 0 19 3
33 5 22 5 23 4 5 -5 -17 -9 -14 -10 13 -5 23 3 31 1 26 -7 -5 -8 -2 -9 9 -5
10 3 17 2 17 -4 0 -6 6 -7 13 -3 6 4 9 4 6 0 -4 -4 6 -20 21 -35 60 -59 43
-143 -42 -214 -38 -32 -41 -36 -23 -42 56 -19 75 -29 97 -52 21 -23 23 -32 23
-145 l0 -121 -64 -13 c-95 -20 -181 -51 -230 -83 l-43 -29 -57 26 c-73 34
-201 42 -283 18 -71 -20 -86 -37 -70 -79 8 -22 9 -34 1 -44 -15 -18 -58 -17
-65 2 -4 8 -9 13 -13 11 -3 -2 -6 12 -7 32 -1 31 9 45 69 109 38 40 73 70 77
68 14 -9 22 35 10 50 -19 23 -71 19 -77 -5 -4 -15 -13 -20 -34 -18 -24 2 -29
7 -29 28 0 20 2 22 11 10 9 -12 10 -11 6 7 -5 23 19 67 33 58 4 -3 10 2 13 10
4 10 16 12 40 8 22 -3 37 -1 42 7 5 9 4 11 -3 6 -8 -5 -10 -2 -6 9 18 47 -85
76 -126 35 -22 -22 -50 -17 -50 9 0 14 -2 14 -10 1 -19 -29 -10 5 10 38 32 51
76 73 134 65 l49 -6 -7 35 c-7 39 1 71 16 62 5 -3 8 1 6 10 -2 9 16 29 45 50
l48 34 -53 -1 c-29 -1 -79 2 -110 7 l-57 8 -21 -35 c-21 -36 -47 -54 -47 -33
0 6 -3 24 -7 40 -5 20 -4 26 5 20 7 -4 10 -2 7 7 -3 8 2 20 11 27 13 11 13 12
1 6 -8 -3 -1 8 17 26 30 32 35 33 111 34 44 1 78 -3 75 -8 -3 -4 9 -5 27 -1
18 4 30 3 27 -2 -3 -5 30 -8 73 -8 44 0 73 4 67 8 -7 5 0 6 16 2 17 -3 26 -2
23 4 -3 5 0 12 6 14 22 9 28 7 28 -9z m2205 -34 l-30 -8 28 -1 c34 -1 35 -24
1 -39 -47 -22 -54 -60 -54 -311 l0 -229 25 -16 c18 -12 30 -14 51 -6 24 10 26
14 20 51 -5 29 -3 38 5 33 7 -4 9 0 5 13 -7 22 69 137 84 128 5 -3 11 -1 15 5
7 12 -34 90 -47 90 -5 0 -7 4 -4 9 3 5 -1 11 -9 15 -8 3 -15 13 -14 23 0 16 1
16 9 -2 7 -17 9 -17 9 -2 1 13 10 17 39 19 l37 1 -45 8 c-42 7 -41 7 17 5 38
-1 60 2 56 8 -4 5 1 7 11 3 10 -4 15 -3 11 3 -8 13 33 32 56 25 11 -4 16 -11
13 -17 -5 -8 -1 -9 10 -5 11 5 15 3 10 -5 -5 -7 0 -9 14 -6 14 4 20 2 16 -4
-4 -7 5 -8 26 -3 23 5 30 4 26 -4 -5 -7 1 -11 15 -11 12 0 19 3 16 7 -11 10
13 33 35 33 29 0 32 -26 6 -62 -21 -31 -23 -44 -26 -183 -3 -156 3 -184 34
-170 32 14 40 13 41 -4 0 -9 -28 -38 -64 -65 l-64 -49 -34 33 c-19 19 -35 40
-35 46 0 29 -24 22 -92 -25 -82 -58 -87 -58 -145 18 -18 24 -33 36 -33 27 0
-8 -27 -33 -59 -55 l-59 -41 -53 36 c-38 25 -60 34 -76 29 -16 -4 -22 -1 -21
7 2 7 -3 12 -9 10 -7 -1 -13 2 -13 8 0 5 7 10 16 10 8 0 13 4 9 9 -3 5 -1 12
5 16 5 3 11 52 12 108 l2 102 6 -100 c5 -77 7 -47 8 127 2 231 -3 273 -35 286
-16 6 -21 15 -26 47 -1 5 9 11 22 13 17 3 21 0 15 -9 -5 -9 -2 -11 9 -6 10 4
17 1 17 -5 0 -6 3 -9 6 -5 4 3 14 -3 24 -15 15 -19 47 -18 35 2 -7 12 44 42
61 36 8 -3 12 -2 9 3 -6 11 18 19 55 19 22 0 22 -1 -5 -8z m536 -7 c12 -14 12
-16 0 -8 -9 5 -12 4 -7 -3 4 -6 13 -9 21 -6 8 4 18 -1 21 -10 3 -9 11 -13 18
-9 6 3 8 3 4 -2 -4 -4 58 -48 138 -97 l146 -89 22 19 c11 11 32 23 46 27 14 3
20 3 14 -2 -7 -5 -11 -82 -13 -218 -2 -146 -6 -213 -14 -221 -7 -6 -33 -19
-59 -28 -26 -10 -63 -28 -82 -41 l-36 -24 -62 29 c-34 16 -86 35 -115 41 -49
11 -53 14 -49 38 2 14 5 30 5 34 1 5 6 5 11 2 6 -4 10 49 11 152 1 87 1 162 0
166 -1 5 6 6 16 3 10 -3 31 1 48 8 l30 12 -67 40 -68 39 0 65 c0 46 -3 61 -10
50 -8 -12 -10 -10 -10 8 0 13 4 20 10 17 6 -3 10 1 10 9 0 20 4 20 21 -1z
m1595 -10 c3 -15 -3 -24 -16 -28 -37 -12 -51 -57 -48 -158 l3 -92 40 40 c43
44 97 85 112 85 5 0 18 -7 29 -16 10 -8 12 -12 4 -9 -8 4 -3 -3 12 -16 45 -40
48 -58 48 -244 0 -199 -6 -222 -68 -277 -38 -32 -207 -118 -235 -118 -8 0 -18
-6 -20 -12 -3 -8 -6 -5 -6 5 -1 10 -5 16 -10 13 -5 -3 -12 1 -15 10 -3 8 -2
13 2 10 4 -2 14 -1 22 5 13 7 13 9 0 9 -9 1 -6 5 8 10 12 5 30 7 40 3 9 -3 14
-2 10 2 -5 5 14 21 41 36 27 16 56 38 64 49 7 11 17 17 21 12 4 -4 5 11 2 33
-5 29 -4 34 3 20 7 -13 10 36 10 151 1 150 -1 175 -17 194 l-17 21 -43 -30
-42 -31 0 -134 c0 -127 1 -134 23 -149 12 -8 20 -17 17 -19 -3 -2 -29 -21 -57
-42 l-53 -38 -49 36 c-26 20 -51 33 -55 29 -3 -3 -6 3 -6 14 0 11 7 26 15 33
12 10 15 47 17 194 l3 181 2 -179 c3 -133 0 -183 -9 -195 -12 -14 -11 -15 5
-2 17 14 18 32 16 248 -3 229 -12 301 -37 296 -7 -2 -12 2 -12 8 0 5 -4 7 -10
4 -6 -4 -7 1 -3 11 5 13 3 15 -7 9 -9 -5 -11 -4 -6 3 4 7 17 12 29 13 21 0 21
1 2 9 -23 10 -5 13 19 4 9 -3 13 -11 9 -17 -4 -6 0 -8 11 -4 11 5 15 3 10 -5
-5 -8 -2 -9 10 -5 9 4 15 3 11 -2 -11 -20 19 -16 41 4 26 24 78 44 108 42 11
-1 20 -11 22 -24z m-282 -98 c34 -52 21 -84 -82 -204 l-43 -50 41 -21 c23 -12
44 -19 47 -16 4 3 12 -2 19 -12 9 -11 13 -51 14 -119 l0 -103 -27 -6 c-49 -10
-87 -27 -120 -51 -31 -23 -34 -23 -63 -8 -51 26 -119 30 -165 9 -43 -19 -88
-26 -79 -13 3 5 0 9 -5 9 -6 0 -11 5 -11 11 0 5 5 7 10 4 6 -3 10 1 10 9 0 8
9 20 20 26 11 6 18 15 15 20 -3 4 20 31 51 59 l57 50 -57 28 -56 27 0 106 0
106 48 13 c26 8 51 13 57 12 5 -2 7 1 2 5 -4 4 5 20 19 35 23 24 30 26 50 17
13 -6 21 -15 17 -21 -3 -5 3 -6 17 -2 16 5 20 4 15 -5 -5 -9 -1 -10 15 -5 14
4 20 3 16 -3 -3 -6 18 -9 56 -7 66 2 83 16 49 37 -26 16 -27 36 -3 55 11 10
12 12 2 8 -8 -4 -6 1 4 9 27 22 41 20 60 -9z m-2972 -147 l10 -28 45 46 c25
25 52 43 59 40 7 -3 16 0 20 6 5 7 2 8 -7 4 -8 -4 -3 1 11 12 18 15 28 18 37
10 7 -6 11 -14 8 -18 -7 -11 52 -63 64 -55 6 3 9 10 6 14 -2 5 4 16 15 26 16
14 22 15 35 5 8 -7 12 -16 9 -21 -3 -5 -1 -9 4 -9 6 0 -5 -15 -24 -34 l-34
-34 0 -145 c0 -170 2 -180 36 -165 13 6 20 16 17 22 -4 6 0 5 9 -2 26 -21 16
-38 -51 -87 -61 -45 -63 -46 -87 -30 -14 9 -30 27 -36 41 -6 13 -14 24 -17 24
-3 0 -5 70 -3 156 3 136 1 159 -14 175 -22 25 -31 24 -71 -7 l-33 -25 0 -133
c0 -127 1 -134 23 -149 12 -8 20 -17 17 -19 -3 -2 -29 -21 -57 -42 l-53 -38
-49 36 c-26 20 -51 33 -55 29 -3 -3 -6 3 -6 14 0 20 22 47 31 39 2 -2 4 66 4
152 0 168 2 161 -50 151 -14 -3 -19 1 -16 11 2 8 4 20 5 27 3 18 95 85 106 78
6 -4 10 -3 9 2 -5 27 6 23 37 -12 19 -22 40 -52 46 -67z m-438 86 c9 -3 13
-11 9 -17 -4 -6 0 -8 10 -4 10 4 17 2 17 -4 0 -6 7 -9 15 -5 8 3 15 1 15 -5 0
-5 11 -7 26 -3 19 5 25 4 20 -5 -5 -7 1 -11 15 -11 12 0 19 3 16 7 -10 10 13
33 34 33 30 0 31 -18 4 -74 -25 -52 -26 -60 -23 -194 2 -77 6 -144 10 -147 4
-4 15 -4 25 0 32 14 39 13 40 -5 1 -10 -23 -36 -63 -65 l-65 -48 -35 34 c-19
18 -34 39 -34 45 0 29 -23 22 -91 -25 l-72 -51 -28 21 c-52 37 -74 78 -75 142
0 31 4 57 10 57 5 0 6 3 3 7 -4 3 1 12 11 20 9 8 11 12 5 8 -7 -3 -13 -4 -13
-2 0 9 62 82 70 82 20 0 19 16 -1 58 -13 25 -27 43 -32 40 -6 -3 -7 -1 -3 5 4
7 3 12 -2 12 -6 0 -8 9 -5 20 4 16 14 20 47 22 l41 1 -50 8 -50 7 62 -2 c38
-1 60 2 56 8 -4 5 1 7 11 3 9 -4 15 -3 11 2 -3 6 3 14 12 20 21 12 26 13 47 5z
m1060 0 c9 -3 13 -11 9 -17 -4 -6 0 -8 10 -4 10 3 17 2 17 -4 0 -6 5 -7 10 -4
6 3 10 1 10 -5 0 -7 7 -9 16 -6 9 4 13 2 8 -5 -4 -7 -1 -10 7 -7 8 3 20 -1 27
-9 14 -14 57 -18 48 -5 -4 8 74 52 92 52 4 0 6 -34 4 -75 -2 -41 -7 -75 -10
-75 -4 0 -24 4 -44 9 l-38 9 0 -138 0 -138 36 -47 c54 -71 60 -89 40 -120 -9
-14 -44 -39 -78 -56 l-62 -32 -81 12 c-75 12 -121 9 -233 -13 -13 -3 -20 -1
-17 5 4 5 1 9 -4 9 -6 0 -11 5 -11 10 0 16 91 111 100 105 10 -6 35 23 27 32
-4 3 -32 22 -64 42 l-58 36 0 178 c0 97 4 177 8 177 5 0 6 4 3 9 -8 12 49 25
66 15 7 -4 10 -3 5 1 -4 5 23 21 60 36 79 31 77 31 97 23z m1771 -14 c10 -11
14 -20 9 -20 -5 0 23 -31 61 -70 38 -38 65 -73 61 -77 -4 -4 -58 -40 -119 -79
-111 -69 -112 -71 -115 -111 -3 -39 -1 -42 30 -49 18 -5 38 -9 43 -9 6 0 13
-4 16 -9 4 -5 21 1 38 13 17 12 36 19 42 15 8 -4 9 -3 5 5 -14 23 25 24 47 1
12 -13 16 -20 10 -16 -7 4 -13 3 -13 -2 0 -5 -40 -34 -89 -64 l-90 -56 -83 29
c-46 16 -91 29 -101 29 -14 0 -17 6 -13 28 2 15 5 31 5 35 1 5 6 5 11 2 6 -4
10 53 11 162 1 92 1 171 0 175 -1 11 38 20 50 12 7 -4 9 -3 6 3 -5 8 120 69
149 72 6 0 19 -8 29 -19z"/>
<path d="M141 1102 c-36 -18 -65 -52 -76 -89 -8 -30 7 -30 20 -1 16 36 48 47
108 36 50 -10 144 -6 197 8 15 4 -5 -15 -47 -44 -73 -53 -83 -69 -99 -154 l-6
-38 -53 0 c-42 0 -60 -5 -83 -25 -16 -14 -32 -34 -35 -45 -6 -25 -2 -25 30 0
61 48 153 6 153 -70 0 -15 -7 -20 -25 -20 -53 0 -105 -42 -105 -86 0 -13 5
-12 25 10 28 30 65 34 88 8 31 -34 20 -60 -58 -142 -59 -62 -75 -85 -75 -108
0 -19 6 -32 17 -36 27 -11 37 9 23 43 -16 38 -3 56 57 83 86 38 236 33 324
-12 l36 -19 77 38 c67 34 135 56 229 76 l27 5 0 108 c0 83 -4 113 -16 131 -20
28 -72 51 -114 51 -16 0 -30 4 -30 8 0 4 23 26 51 47 29 22 60 53 70 70 40 65
13 139 -61 169 -40 16 -42 15 -152 -20 -144 -47 -184 -81 -198 -169 -6 -33
-10 -112 -10 -175 0 -93 -4 -122 -19 -150 -18 -34 -82 -80 -131 -95 -23 -7
-22 -5 13 34 20 22 38 42 38 44 1 1 5 83 8 182 6 159 10 185 30 223 21 42 75
85 141 112 43 18 27 30 -17 14 -50 -17 -111 -17 -206 1 -99 19 -105 19 -146
-3z m564 -45 c85 -47 93 -137 18 -208 -41 -39 -83 -69 -95 -69 -5 0 -8 27 -8
60 0 33 -4 60 -10 60 -6 0 -10 -73 -10 -200 l0 -200 -27 7 c-16 5 -71 8 -124
8 l-96 -1 60 36 c81 47 113 81 120 127 4 21 7 101 7 178 0 157 5 171 68 205
47 24 49 24 97 -3z m66 -467 c13 -7 19 -21 19 -43 0 -30 -3 -33 -62 -54 -84
-29 -108 -19 -108 48 0 37 4 49 18 52 33 9 114 7 133 -3z"/>
<path d="M599 1037 c-18 -12 -36 -33 -40 -47 -4 -14 -7 -94 -8 -178 -1 -179
-6 -195 -82 -244 -45 -29 -49 -33 -29 -36 12 -2 45 -2 71 0 27 1 49 0 49 -4 0
-5 7 -8 15 -8 12 0 15 32 17 203 l3 202 24 3 c13 2 21 0 17 -6 -3 -6 0 -13 6
-15 10 -4 10 -6 1 -6 -13 -1 -20 -101 -7 -101 14 0 64 43 64 55 0 7 10 22 23
32 13 10 22 24 19 32 -3 8 0 11 7 7 15 -10 14 43 -3 72 -16 29 -64 62 -92 62
-12 0 -36 -10 -55 -23z"/>
<path d="M2697 1066 c-36 -13 -65 -32 -78 -49 -3 -5 -23 3 -44 17 -51 35 -62
33 -31 -5 l26 -31 0 -245 c0 -212 -2 -249 -16 -264 -15 -17 -14 -19 21 -33 20
-9 50 -25 66 -37 l30 -21 49 32 c28 18 50 37 50 42 0 6 -6 5 -15 -2 -12 -10
-21 -8 -46 11 l-30 24 1 244 c0 150 5 252 11 265 6 11 23 31 37 43 31 26 23
28 -31 9z"/>
<path d="M2965 879 c-16 -10 -46 -19 -66 -19 -20 0 -38 -2 -41 -5 -3 -3 9 -33
27 -67 l33 -61 -45 -55 c-53 -64 -63 -89 -63 -146 0 -34 7 -50 36 -84 19 -23
39 -42 44 -42 5 0 44 25 88 55 l80 55 11 -33 c7 -19 23 -44 36 -57 l24 -23 56
42 c56 42 71 60 34 41 -43 -23 -49 -1 -49 173 0 144 2 163 21 193 11 19 16 34
10 34 -5 0 -13 -4 -16 -10 -10 -16 -71 -12 -132 10 -32 11 -57 20 -58 19 0 0
-13 -9 -30 -20z m42 -65 l51 -15 4 -64 c2 -36 -1 -65 -6 -65 -5 0 -34 11 -65
26 -58 25 -62 30 -119 146 -3 7 56 -5 135 -28z m-5 -135 l58 -24 0 -65 c0 -64
-1 -65 -41 -93 -22 -16 -46 -27 -53 -24 -8 3 -26 22 -42 42 -21 27 -28 48 -28
83 -1 53 21 115 38 109 6 -3 37 -15 68 -28z"/>
<path d="M2922 665 c-18 -39 -14 -96 8 -133 26 -42 45 -49 68 -25 9 10 15 14
12 8 -3 -6 2 -3 11 7 9 9 19 14 23 11 3 -4 6 19 6 51 l0 57 -55 25 c-31 13
-57 24 -59 24 -1 0 -8 -11 -14 -25z"/>
<path d="M3280 1006 l0 -54 70 -41 c39 -23 68 -46 65 -51 -3 -5 -28 -16 -55
-25 l-50 -17 0 -158 c0 -95 -4 -161 -10 -165 -20 -12 -9 -20 41 -32 28 -7 75
-23 103 -36 l53 -24 86 41 86 41 1 178 c0 103 4 186 10 198 14 25 -2 25 -24 0
-17 -19 -22 -17 -197 90 l-179 109 0 -54z m229 -192 l61 -36 0 -154 c0 -95 -4
-154 -10 -154 -5 0 -39 12 -75 26 l-65 26 0 152 c0 105 4 156 12 164 15 15 7
18 77 -24z"/>
<path d="M3437 823 c-4 -3 -7 -70 -7 -148 l0 -142 56 -22 c31 -11 57 -21 58
-21 1 0 1 64 1 142 l0 142 -45 28 c-47 30 -53 32 -63 21z"/>
<path d="M4809 1066 c-19 -7 -46 -20 -59 -29 -22 -15 -26 -15 -67 9 -46 28
-58 24 -20 -6 22 -18 22 -22 25 -282 3 -256 2 -263 -18 -280 -20 -16 -20 -17
25 -48 l45 -31 46 32 c44 30 45 31 25 46 -20 13 -21 24 -21 151 l0 137 51 35
c39 27 54 32 67 24 34 -21 37 -48 32 -236 -6 -221 -7 -223 -120 -281 -126 -64
-95 -63 45 2 165 77 184 112 185 326 0 174 -9 216 -51 246 l-31 22 -82 -57
c-45 -31 -85 -56 -89 -56 -9 0 -9 156 -1 199 4 18 20 45 36 62 33 32 30 34
-23 15z"/>
<path d="M4547 973 c-12 -11 -8 -40 8 -53 19 -16 19 -25 -1 -44 -22 -22 -92
-20 -166 5 l-61 20 -26 -25 c-14 -14 -45 -33 -69 -44 l-43 -19 -2 -84 -2 -84
57 -30 c32 -16 58 -32 58 -35 0 -3 -34 -43 -76 -88 -42 -46 -74 -86 -70 -89 3
-3 25 2 48 13 50 22 103 22 162 0 43 -17 44 -17 82 9 21 14 57 31 81 37 l43
10 0 97 0 97 -60 29 c-33 16 -60 31 -60 33 0 3 27 36 60 73 88 99 104 134 74
163 -17 17 -27 20 -37 9z m-212 -159 c25 -10 59 -14 97 -12 32 2 58 1 58 -2 0
-3 -29 -36 -65 -75 l-64 -70 -38 20 c-21 11 -37 23 -35 28 1 4 2 34 2 67 0 33
2 60 4 60 2 0 21 -7 41 -16z m100 -181 l35 -17 0 -74 c0 -67 -2 -73 -17 -67
-49 20 -93 27 -144 23 -66 -5 -67 -12 16 90 28 33 55 61 62 61 7 1 28 -7 48
-16z"/>
<path d="M1490 864 c-25 -20 -47 -41 -49 -47 -2 -9 0 -8 10 1 43 40 59 -9 59
-183 0 -134 -1 -145 -21 -158 -20 -15 -19 -16 25 -46 l45 -32 41 27 c44 29 47
36 25 54 -12 10 -15 40 -15 149 l0 136 50 34 50 34 29 -27 29 -27 1 -161 c2
-165 9 -197 48 -212 13 -5 113 57 113 70 0 2 -11 2 -25 -2 -38 -10 -47 28 -43
193 3 141 3 142 32 172 34 35 24 42 -11 9 l-23 -22 -39 38 -39 38 -83 -60 -84
-60 -6 36 c-6 32 -48 83 -67 81 -4 0 -27 -16 -52 -35z"/>
<path d="M1125 879 c-16 -10 -47 -19 -67 -19 -46 0 -46 -7 -9 -80 l29 -55 -38
-45 c-77 -92 -90 -157 -45 -222 44 -66 55 -66 144 -3 43 30 81 55 85 55 3 0 6
-11 6 -24 0 -29 48 -89 65 -82 7 2 33 19 58 38 47 34 63 57 26 38 -43 -23 -49
-1 -49 169 0 137 2 161 20 194 11 20 16 37 11 37 -6 0 -13 -4 -16 -10 -10 -16
-71 -11 -127 10 -62 23 -55 24 -93 -1z m60 -71 l40 -13 3 -63 c2 -36 -1 -62
-7 -62 -5 0 -36 11 -68 25 -55 24 -61 31 -90 89 l-32 64 57 -13 c31 -8 75 -20
97 -27z m-29 -126 l69 -28 3 -60 3 -60 -46 -33 c-44 -31 -47 -32 -70 -17 -26
17 -48 54 -58 97 -6 22 17 129 27 129 2 0 34 -13 72 -28z"/>
<path d="M1079 652 c-14 -48 -6 -101 22 -136 25 -32 32 -32 64 0 14 14 30 22
35 19 6 -4 10 16 10 52 l0 59 -52 20 c-29 10 -56 20 -60 22 -4 2 -12 -15 -19
-36z"/>
<path d="M2170 878 c-25 -12 -65 -26 -90 -33 l-45 -11 -2 -175 -3 -174 65 -40
65 -40 -67 -67 c-37 -37 -65 -70 -62 -72 2 -3 22 -1 44 4 52 12 181 13 223 0
28 -7 44 -5 90 16 106 47 114 69 50 152 l-43 55 -3 150 -3 150 50 -7 51 -7 0
46 c0 25 -2 45 -4 45 -2 0 -25 -9 -50 -20 l-46 -19 -82 34 c-45 19 -85 35 -88
34 -3 0 -25 -10 -50 -21z m65 -68 l50 -17 3 -124 3 -125 -36 -42 -36 -42 -45
31 -44 30 0 160 0 159 28 -6 c15 -4 50 -15 77 -24z m64 -335 c7 -20 37 -62 67
-94 32 -35 50 -62 44 -66 -6 -4 -34 2 -63 11 -35 12 -81 18 -139 18 l-88 0 78
82 c42 45 79 82 82 83 4 0 12 -15 19 -34z"/>
<path d="M2152 670 l3 -151 31 -20 c30 -18 32 -18 45 -2 13 17 13 17 -6 3 -11
-8 -6 1 10 20 30 35 30 37 30 149 l0 114 -35 12 c-19 7 -45 15 -58 19 l-23 8
3 -152z"/>
<path d="M3890 859 l-95 -38 -3 -168 c-1 -92 -7 -172 -12 -177 -16 -16 -12
-26 9 -26 11 0 52 -11 90 -25 l71 -26 80 48 c43 26 79 52 80 56 0 4 -20 -4
-44 -18 l-43 -25 -64 22 -64 23 -3 45 -3 45 120 75 c67 41 121 77 121 80 0 3
-33 38 -72 77 l-73 71 -95 -39z m93 -77 l67 -67 -71 -43 c-38 -23 -74 -42 -78
-42 -10 0 -15 195 -6 210 11 17 19 12 88 -58z"/>
<path d="M5378 1145 c-26 -8 -63 -30 -82 -49 -30 -27 -36 -40 -36 -74 0 -24 7
-49 19 -63 17 -22 27 -24 91 -23 49 1 70 -2 67 -10 -2 -6 -36 -30 -76 -53 -88
-50 -100 -65 -101 -124 0 -49 26 -89 58 -89 19 0 114 -60 119 -75 2 -5 -25
-23 -59 -40 -34 -16 -85 -53 -115 -80 -45 -43 -53 -56 -53 -87 0 -21 5 -49 12
-63 21 -46 100 -51 171 -12 24 14 49 22 54 18 6 -3 12 -33 15 -65 4 -49 10
-64 32 -83 25 -22 35 -23 157 -23 125 0 131 1 154 25 20 19 25 34 25 73 0 65
12 74 72 55 65 -21 105 -11 180 47 34 27 65 45 68 41 10 -15 46 -29 90 -36 25
-4 50 -10 55 -15 6 -4 37 -17 69 -29 69 -26 103 -23 170 15 l49 27 16 -20 c34
-44 93 -55 145 -28 35 19 56 19 126 0 61 -16 109 -9 151 23 41 31 92 41 133
27 21 -7 45 -20 54 -28 30 -26 88 -39 127 -28 46 12 132 76 150 111 26 50 2
115 -48 128 l-32 8 0 90 0 89 27 3 c42 5 68 45 68 107 0 61 -25 102 -67 107
-22 3 -28 10 -38 50 -16 66 -29 78 -83 78 -47 0 -104 -27 -121 -58 -9 -15 -11
-15 -29 2 -54 48 -160 24 -184 -41 -11 -30 -16 -34 -38 -29 -96 22 -118 20
-173 -15 -66 -44 -102 -59 -113 -50 -5 4 -29 13 -54 20 -25 7 -63 22 -85 32
-79 39 -116 37 -211 -11 -47 -23 -89 -39 -93 -34 -4 5 -13 27 -20 49 -21 61
-57 102 -139 156 -92 60 -137 74 -193 59 -29 -8 -50 -8 -71 -1 -43 15 -74 14
-113 -5 -27 -13 -38 -13 -56 -3 -36 19 -186 21 -241 4z m132 -26 c-11 -8 -7
-9 18 -5 23 4 31 2 26 -6 -5 -8 -1 -9 12 -4 10 4 15 4 12 0 -4 -3 6 -17 21
-30 16 -13 34 -37 41 -54 14 -34 22 -37 40 -15 8 10 10 30 6 60 -6 39 -5 45
11 45 15 0 16 2 3 10 -12 8 -9 10 13 10 15 0 26 -3 26 -7 -1 -5 -1 -25 0 -45
1 -36 2 -37 26 -26 13 6 22 15 18 21 -3 6 -1 7 4 4 6 -4 13 -1 16 6 3 6 21 21
41 31 36 19 37 19 52 0 8 -10 13 -12 9 -4 -4 10 -2 9 8 -2 8 -10 17 -15 20
-11 4 3 7 2 7 -4 0 -6 21 -25 48 -42 120 -77 132 -107 132 -345 l0 -185 -77
-62 c-43 -34 -83 -66 -88 -70 -6 -4 -48 3 -94 17 -127 37 -121 41 -121 -71 l0
-95 -107 0 c-60 0 -114 4 -122 9 -11 7 -12 27 -7 100 5 60 4 91 -3 91 -33 0
-123 -26 -166 -48 -53 -27 -76 -33 -74 -18 0 5 -5 12 -12 16 -15 10 70 92 88
85 7 -2 15 1 19 7 4 7 3 8 -4 4 -7 -4 -12 -5 -12 -2 0 13 100 55 116 49 13 -5
15 -3 9 7 -6 10 -2 11 18 6 14 -3 28 -2 31 2 9 15 -15 85 -40 119 -25 33 -124
88 -146 81 -14 -5 -38 15 -38 31 0 6 5 11 11 11 5 0 8 3 6 8 -3 4 35 28 85 55
49 26 87 42 83 35 -4 -7 0 -5 8 4 8 10 16 16 18 14 2 -3 5 15 7 39 4 62 -28
98 -86 97 -23 0 -46 -3 -52 -7 -17 -10 -71 -14 -65 -4 4 5 0 9 -7 9 -10 0 -10
2 0 9 8 4 13 12 13 17 0 5 6 9 13 9 8 0 18 4 23 9 4 5 3 6 -4 2 -7 -4 -13 -5
-13 -2 0 14 62 36 87 30 22 -4 25 -3 13 5 -11 8 -2 11 40 11 42 0 51 -3 40
-11z m1781 -78 c-11 -7 -9 -10 8 -16 17 -5 19 -10 11 -25 -6 -10 -10 -38 -10
-61 l0 -42 55 7 55 6 0 -45 0 -45 -55 0 -55 0 0 -154 0 -154 27 -17 c25 -17
27 -17 45 6 11 13 17 18 13 12 -4 -8 0 -13 9 -13 34 0 13 -30 -49 -74 l-66
-46 -40 30 c-22 16 -56 34 -75 40 -35 12 -46 41 -22 56 7 5 8 3 3 -6 -5 -9 -4
-11 3 -6 7 4 10 18 6 34 -4 21 -3 24 5 12 8 -11 11 25 11 132 l0 147 -27 3
c-36 4 -39 20 -8 57 15 17 24 31 20 31 -4 0 21 32 55 70 34 39 69 70 79 70 13
0 13 -2 2 -9z m-197 -56 c32 -49 13 -97 -81 -198 -26 -28 -42 -52 -37 -57 14
-14 84 -41 84 -33 0 4 7 -2 15 -13 10 -14 14 -47 15 -121 l0 -101 -49 -12
c-28 -6 -70 -24 -94 -40 -41 -25 -45 -26 -71 -13 -46 24 -129 28 -167 8 -37
-19 -82 -28 -74 -15 3 5 -1 11 -7 13 -10 4 -9 8 2 16 8 6 11 11 6 11 -4 0 16
26 45 58 29 31 56 56 60 55 3 -1 14 6 24 17 17 18 15 20 -39 47 l-56 27 0 98
c0 72 3 98 13 98 8 0 7 4 -3 11 -12 8 -9 10 12 6 15 -2 25 -1 23 3 -3 4 8 13
24 20 16 6 41 24 56 40 23 24 31 27 51 18 13 -6 21 -15 17 -21 -3 -5 3 -6 17
-2 17 5 20 4 15 -5 -6 -10 -1 -11 19 -6 15 4 25 3 22 -2 -3 -5 20 -8 52 -7 63
2 76 16 38 41 -14 9 -26 21 -26 28 0 6 5 4 11 -4 8 -12 9 -11 7 6 -4 26 18 54
42 54 10 0 25 -11 34 -25z m-689 -66 c-3 -5 2 -6 11 -2 13 5 15 3 9 -7 -6 -10
-4 -12 9 -7 11 5 15 3 10 -5 -5 -8 -2 -9 10 -5 10 4 15 3 11 -3 -6 -9 10 -14
43 -13 6 1 12 -4 12 -9 0 -5 10 -6 21 -3 16 5 19 4 14 -5 -6 -10 -1 -11 18 -6
l25 6 2 -195 1 -196 -33 -11 c-18 -6 -60 -26 -93 -43 l-60 -31 -65 30 c-43 20
-81 31 -112 31 -25 0 -44 3 -41 8 2 4 -3 7 -11 7 -8 0 -18 5 -22 12 -4 6 -3 8
3 5 6 -4 14 4 17 18 4 14 10 24 14 21 4 -2 5 67 4 155 -4 149 -3 159 15 159
14 0 15 2 5 9 -10 6 -7 10 13 15 14 4 31 4 37 0 6 -4 8 -3 5 3 -6 10 89 60
105 56 4 -2 7 0 7 5 -3 16 2 23 11 17 6 -4 8 -11 5 -16z"/>
<path d="M5371 1075 c-57 -27 -64 -45 -10 -26 60 21 98 14 136 -24 31 -31 34
-39 31 -82 l-3 -48 -100 -58 c-55 -31 -99 -60 -97 -65 1 -4 12 -10 25 -13 38
-10 101 -46 124 -71 28 -30 53 -89 53 -126 0 -27 -4 -31 -47 -41 -54 -14 -96
-36 -165 -89 -52 -39 -55 -64 -5 -33 36 22 125 48 177 53 l35 3 3 -98 3 -97
94 0 94 0 3 92 3 93 40 -3 c22 -1 71 -12 108 -23 42 -12 73 -17 80 -11 7 5 45
34 85 66 l72 57 0 142 c0 255 -15 293 -153 381 l-77 48 -69 -41 c-38 -22 -74
-41 -80 -41 -5 0 -12 19 -14 43 l-4 42 -1 -50 c-2 -45 -6 -52 -37 -72 -44 -29
-45 -29 -45 6 0 94 -141 140 -259 86z m499 -71 c37 -19 78 -46 90 -59 24 -25
51 -95 43 -109 -3 -4 -24 -17 -47 -27 -57 -26 -131 -24 -186 4 l-45 22 -3 77
-3 77 38 25 c21 14 40 25 42 25 1 1 34 -15 71 -35z m-160 -379 l0 -355 -40 0
-40 0 0 334 0 334 33 21 c17 11 35 21 40 21 4 0 7 -160 7 -355z m60 170 c23
-8 67 -15 97 -15 29 0 70 7 90 15 19 8 38 15 42 15 4 0 7 -34 7 -75 -1 -41 -4
-75 -7 -75 -4 0 -23 7 -42 15 -20 8 -61 15 -92 15 -31 0 -72 -7 -92 -15 -19
-8 -39 -15 -44 -15 -5 0 -9 34 -9 75 0 41 2 75 4 75 2 0 23 -7 46 -15z m201
-141 c31 -19 32 -20 33 -102 1 -50 -3 -82 -9 -82 -6 0 -38 10 -70 21 -33 12
-91 27 -130 33 l-70 12 -3 51 -3 50 48 22 c59 26 154 24 204 -5z"/>
<path d="M5768 1004 c-27 -14 -28 -18 -28 -89 0 -67 2 -76 23 -86 26 -14 168
-18 159 -5 -3 5 5 7 16 4 13 -4 20 -2 16 4 -3 5 2 8 12 6 15 -2 19 3 17 27 -3
43 -32 75 -104 118 -72 42 -73 42 -111 21z"/>
<path d="M5668 946 c-17 -12 -18 -40 -18 -340 0 -319 0 -326 20 -326 20 0 20
7 20 340 0 187 -1 340 -2 340 -2 0 -11 -7 -20 -14z"/>
<path d="M5740 732 c0 -48 2 -53 18 -47 65 28 150 28 215 0 15 -6 17 -1 17 50
0 51 -2 56 -17 50 -56 -24 -115 -29 -174 -14 l-59 16 0 -55z"/>
<path d="M5817 659 c-65 -15 -77 -26 -77 -69 0 -35 3 -39 30 -45 16 -4 39 -3
51 0 16 5 19 4 14 -5 -6 -10 -1 -11 19 -6 20 5 26 4 20 -5 -5 -9 -1 -10 14 -7
14 4 20 2 15 -5 -4 -6 1 -8 13 -5 11 3 25 -1 32 -9 7 -7 19 -13 27 -13 12 0
15 15 15 71 0 70 0 70 -32 83 -49 20 -98 25 -141 15z"/>
<path d="M7202 931 c-40 -44 -72 -82 -72 -85 0 -3 11 -6 25 -6 l25 0 0 -163
c0 -131 -3 -167 -16 -185 -8 -12 -11 -22 -6 -22 4 0 34 -16 66 -35 l57 -34 55
36 c51 34 69 57 27 35 -15 -8 -26 -5 -52 15 l-32 25 2 152 c1 83 4 157 6 164
3 7 24 12 54 12 42 0 49 3 49 19 0 17 -8 20 -52 23 l-53 3 3 63 c2 34 0 62 -5
62 -5 0 -42 -36 -81 -79z"/>
<path d="M7041 966 c-8 -10 -6 -20 11 -41 l22 -28 -23 -18 c-30 -25 -86 -24
-161 1 l-60 20 -44 -34 c-25 -19 -59 -37 -76 -41 l-30 -7 0 -87 0 -87 62 -30
61 -31 -77 -87 c-80 -89 -90 -115 -33 -81 39 23 125 25 176 3 32 -15 36 -14
98 18 35 19 73 34 84 34 17 0 19 8 19 98 l0 99 -64 30 -64 30 65 74 c76 87 99
130 83 159 -12 23 -33 26 -49 6z m-205 -152 c26 -11 57 -15 96 -12 l57 4 -29
-35 c-15 -20 -44 -54 -63 -76 l-34 -39 -42 18 -41 19 0 69 c0 37 4 68 9 68 5
0 26 -7 47 -16z m99 -181 l35 -17 0 -73 c0 -40 -2 -73 -4 -73 -2 0 -21 7 -41
16 -26 10 -60 14 -107 12 -37 -2 -68 -2 -68 0 0 11 127 152 137 152 7 0 28 -8
48 -17z"/>
<path d="M6335 866 c-33 -18 -70 -35 -82 -38 -23 -6 -23 -9 -23 -155 0 -106
-4 -155 -14 -175 -14 -26 -14 -26 28 -32 23 -4 70 -20 104 -36 l62 -29 85 40
85 40 0 174 0 173 -52 18 c-29 9 -70 25 -90 35 -21 11 -39 19 -40 18 -2 0 -30
-15 -63 -33z m80 -59 l60 -22 3 -158 c2 -122 0 -157 -10 -156 -7 0 -40 10 -73
23 l-60 23 -3 156 c-2 122 0 157 10 156 7 0 40 -10 73 -22z"/>
<path d="M6350 669 l0 -140 33 -14 c18 -7 46 -17 61 -21 27 -6 28 -6 16 16
-13 24 -10 210 4 242 6 13 -4 20 -49 37 -31 12 -58 21 -60 21 -3 0 -5 -63 -5
-141z"/>
<path d="M2988 206 c-14 -21 -30 -33 -43 -33 -34 0 -75 -32 -75 -59 0 -29 14
-38 38 -25 13 7 22 7 30 -1 8 -8 15 -8 27 2 12 10 18 10 30 0 11 -9 19 -9 28
-2 8 7 18 7 27 2 8 -5 21 -5 31 0 9 5 19 6 23 3 10 -10 86 -11 92 -1 3 5 10 6
15 2 6 -3 -10 -19 -35 -35 -55 -34 -61 -59 -14 -59 23 0 40 10 67 37 20 21 53
49 74 63 20 14 37 31 37 39 0 10 -8 7 -25 -9 -14 -13 -25 -19 -25 -13 0 6 7
16 15 23 8 7 15 16 15 21 0 19 -25 7 -57 -28 -20 -23 -30 -29 -23 -16 5 12 15
25 20 28 15 9 12 25 -4 25 -7 0 -21 -11 -30 -25 -9 -13 -25 -29 -37 -36 -15
-8 -9 6 22 48 23 32 46 60 51 61 14 6 9 22 -7 22 -8 0 -32 -24 -53 -52 -22
-29 -50 -62 -63 -73 l-23 -20 17 25 c10 14 20 33 24 43 3 9 9 17 14 17 5 0 9
5 9 10 0 6 -9 10 -21 10 -11 0 -19 -5 -17 -12 4 -11 -30 -52 -67 -78 -15 -11
-13 -5 8 22 15 20 27 38 27 40 0 3 -45 2 -70 -1 -5 0 -28 -17 -50 -37 -22 -20
-40 -33 -40 -29 0 3 20 33 45 65 49 64 52 70 30 70 -8 0 -25 -15 -37 -34z"/>
<path d="M3666 176 c-25 -35 -52 -66 -61 -70 -13 -4 -11 1 5 24 12 17 25 30
30 30 4 0 10 9 13 20 4 15 0 20 -14 20 -10 0 -19 -4 -19 -10 0 -5 -7 -10 -16
-10 -10 0 -14 -6 -11 -14 3 -7 -8 -26 -24 -42 -32 -31 -40 -20 -9 13 10 12 22
33 26 47 5 22 3 25 -10 20 -10 -4 -15 -12 -13 -18 2 -6 -12 -24 -31 -41 -32
-27 -34 -27 -23 -7 7 13 10 26 7 30 -8 7 -25 -10 -40 -39 -6 -12 -18 -25 -26
-27 -9 -3 -4 9 13 31 15 19 27 38 27 41 0 13 -35 -10 -68 -43 l-35 -36 27 37
c31 43 32 50 9 41 -27 -10 -53 -46 -50 -68 2 -15 10 -19 45 -20 24 -1 47 5 54
12 12 15 38 18 38 4 0 -15 32 -22 45 -11 8 7 16 7 19 2 13 -22 57 -9 83 24 14
19 30 34 36 34 5 0 3 -8 -6 -18 -21 -23 -21 -38 -1 -46 16 -6 74 28 74 45 0
15 -12 11 -38 -13 l-24 -23 19 32 c17 31 17 33 0 45 -18 13 -17 14 2 32 24 22
27 36 7 36 -8 0 -35 -29 -60 -64z"/>
</g>
</svg>
