<?xml version="1.0" standalone="no"?>
<!DOCTYPE svg PUBLIC "-//W3C//DTD SVG 20010904//EN"
 "http://www.w3.org/TR/2001/REC-SVG-20010904/DTD/svg10.dtd">
<svg version="1.0" xmlns="http://www.w3.org/2000/svg"
 width="750.000000pt" height="326.000000pt" viewBox="0 0 750.000000 326.000000"
 preserveAspectRatio="xMidYMid meet">
<metadata>
Created by potrace 1.16, written by Peter Selinger 2001-2019
</metadata>
<g transform="translate(0.000000,326.000000) scale(0.100000,-0.100000)"
fill="#000000" stroke="none">
<path d="M323 2155 c-32 -14 -73 -66 -73 -94 0 -7 13 1 29 18 32 34 36 35 110
21 37 -7 71 -6 121 4 39 7 70 12 70 10 0 -1 -22 -16 -50 -34 -71 -45 -97 -80
-105 -140 l-7 -50 -44 0 c-55 0 -96 -20 -111 -53 -15 -33 -6 -40 20 -16 22 21
76 25 107 9 16 -8 40 -58 40 -81 0 -5 -9 -9 -20 -9 -42 0 -87 -27 -98 -59 -12
-35 -3 -41 16 -11 25 40 102 17 102 -31 0 -11 -33 -55 -75 -99 -77 -81 -90
-111 -56 -130 30 -16 33 -13 26 34 -6 39 -4 45 19 64 69 54 247 54 350 0 27
-14 31 -13 82 17 52 32 187 75 232 75 21 0 22 4 22 108 -1 73 -5 113 -14 124
-16 22 -77 48 -111 48 -36 0 -31 12 20 49 111 79 119 173 19 221 l-44 22 -107
-36 c-179 -60 -185 -69 -193 -280 -4 -131 -9 -168 -23 -189 -19 -29 -76 -69
-116 -82 -23 -7 -23 -6 7 31 41 52 51 103 52 259 0 125 1 133 27 173 18 28 46
52 86 73 32 17 57 33 54 35 -2 2 -29 -1 -60 -7 -46 -10 -73 -9 -146 5 -106 19
-117 19 -158 1z m527 -40 c97 -50 90 -170 -15 -235 -42 -26 -46 -36 -6 -16 27
14 31 14 61 -7 18 -12 37 -32 41 -45 7 -19 4 -24 -17 -32 -29 -11 -78 -13
-112 -4 -19 5 -23 13 -22 38 4 74 -1 146 -10 146 -6 0 -10 -69 -10 -186 l0
-186 -27 7 c-16 4 -68 7 -117 6 l-89 0 76 50 c93 61 97 70 97 264 0 154 5 167
65 198 38 20 49 21 85 2z m88 -390 c-3 -40 -3 -40 -43 -38 -37 2 -33 -1 23
-13 17 -3 22 -11 22 -38 0 -33 -2 -35 -62 -54 -82 -27 -100 -18 -96 46 3 43 6
48 33 54 l30 7 -32 -3 c-32 -2 -33 -2 -33 38 l0 41 80 0 81 1 -3 -41z"/>
<path d="M5274 2131 c-48 -22 -71 -47 -29 -31 85 32 157 -3 168 -82 7 -54 1
-61 -107 -118 -47 -25 -86 -48 -86 -51 0 -3 24 -15 53 -27 84 -35 127 -85 142
-164 7 -36 7 -37 -36 -48 -56 -15 -125 -51 -169 -89 -42 -36 -35 -49 11 -22
19 11 59 25 89 31 30 6 65 13 77 16 22 4 22 1 25 -88 l3 -93 93 -3 92 -3 0 91
0 91 46 -7 c26 -4 72 -14 103 -24 l57 -17 77 61 77 61 0 167 c0 93 -5 179 -11
195 -14 39 -62 86 -137 135 -49 32 -68 39 -80 32 -10 -6 -43 -25 -74 -43 l-58
-32 0 40 c0 23 -4 41 -10 41 -5 0 -10 -20 -10 -45 0 -40 -4 -47 -32 -65 l-33
-20 -3 27 c-11 89 -133 132 -238 84z m464 -70 c78 -40 114 -80 116 -128 1 -32
-3 -39 -29 -52 -51 -25 -126 -26 -179 -3 l-46 21 0 78 c0 75 1 79 28 95 36 23
44 23 110 -11z m-158 -357 l0 -335 -32 3 -33 3 -3 313 -2 312 32 20 c18 11 34
20 36 20 1 0 2 -151 2 -336z m65 161 c52 -19 112 -19 165 0 23 8 44 15 46 15
2 0 4 -32 4 -71 0 -64 -2 -70 -17 -64 -68 29 -151 28 -225 0 -16 -6 -18 0 -18
64 0 39 1 71 3 71 1 0 20 -7 42 -15z m178 -128 l37 -16 0 -80 c0 -45 -3 -81
-7 -81 -5 0 -42 11 -83 24 -41 13 -96 27 -122 31 l-48 7 0 49 c0 39 4 50 22
60 60 32 134 34 201 6z"/>
<path d="M2728 2116 c-15 -8 -37 -21 -49 -30 -19 -13 -24 -12 -53 5 -43 26
-51 24 -27 -7 20 -25 21 -39 21 -253 0 -178 -3 -231 -14 -247 -13 -18 -10 -22
49 -53 l64 -34 48 32 c26 18 40 30 30 27 -11 -4 -31 3 -48 15 l-30 21 3 238 3
239 29 30 c32 34 20 41 -26 17z"/>
<path d="M4703 2105 l-51 -26 -34 21 c-44 27 -52 25 -23 -5 l25 -24 0 -242 c0
-206 -2 -245 -16 -260 -14 -16 -13 -19 19 -43 42 -32 50 -32 93 0 31 24 33 28
19 44 -12 13 -15 44 -15 143 l0 127 42 30 c49 36 62 37 82 8 22 -31 23 -332 2
-382 -16 -39 -60 -74 -131 -104 -29 -12 -41 -21 -30 -22 40 0 207 93 239 133
l31 39 3 151 c2 83 1 166 -3 185 -6 34 -47 82 -69 82 -6 0 -46 -25 -89 -55
l-77 -55 0 104 c0 93 2 107 25 140 13 20 21 36 17 36 -5 0 -31 -11 -59 -25z"/>
<path d="M3290 2062 l0 -50 65 -38 c36 -21 65 -41 65 -45 0 -4 -22 -15 -50
-24 l-49 -16 -3 -147 c-2 -81 -7 -154 -11 -163 -7 -13 -1 -17 30 -23 21 -3 64
-18 96 -33 l58 -28 84 40 84 40 3 180 c2 99 2 182 0 185 -2 3 -10 -3 -17 -14
-13 -17 -23 -12 -177 80 -90 53 -166 99 -170 101 -5 2 -8 -18 -8 -45z m223
-182 l47 -30 0 -145 c0 -80 -4 -145 -8 -145 -5 0 -35 11 -68 24 l-59 24 -3
138 c-1 76 0 144 2 151 8 21 37 15 89 -17z"/>
<path d="M6998 1996 c-38 -41 -68 -77 -68 -80 0 -2 10 -6 23 -8 22 -3 22 -5
22 -154 0 -131 -2 -155 -18 -171 -17 -19 -16 -20 20 -36 21 -8 50 -23 64 -33
26 -17 28 -17 78 16 29 18 49 35 46 38 -3 3 -10 1 -16 -5 -9 -9 -21 -6 -45 10
l-34 22 2 155 3 155 53 3 c44 3 53 6 50 20 -2 13 -16 18 -55 20 l-53 3 7 60
c3 32 2 59 -3 59 -5 0 -39 -34 -76 -74z"/>
<path d="M4493 2033 c-18 -6 -16 -33 3 -55 42 -46 -56 -65 -163 -31 -52 16
-53 16 -76 -5 -12 -11 -44 -30 -70 -42 l-47 -21 0 -77 0 -78 60 -29 60 -30
-74 -80 c-41 -44 -72 -83 -70 -87 3 -4 23 2 47 12 52 24 78 24 143 2 51 -18
51 -18 85 5 19 13 53 29 77 35 l42 10 0 92 0 91 -61 27 -61 27 71 81 c52 60
71 88 71 109 0 31 -17 51 -37 44z m-220 -145 c12 -6 52 -14 89 -17 l66 -6 -56
-67 -57 -66 -37 19 -38 19 0 65 c0 36 3 65 6 65 3 0 15 -5 27 -12z m101 -173
l36 -15 0 -70 c0 -39 -2 -70 -4 -70 -2 0 -21 7 -42 16 -28 12 -57 15 -101 11
l-61 -5 61 74 c34 40 65 73 68 74 4 0 23 -7 43 -15z"/>
<path d="M6847 2033 c-12 -11 -8 -36 8 -54 14 -15 14 -18 0 -33 -22 -21 -96
-20 -162 3 -51 17 -53 17 -69 -1 -10 -10 -41 -29 -71 -44 l-54 -25 3 -77 3
-77 53 -24 c28 -14 52 -29 52 -34 0 -6 -31 -45 -70 -87 -38 -43 -67 -80 -63
-83 3 -3 23 3 44 13 46 24 83 25 144 4 45 -15 47 -15 107 15 34 17 69 31 80
31 16 0 18 9 18 94 l0 93 -61 27 -62 27 20 22 c10 12 42 48 71 80 40 46 52 66
52 92 0 21 -6 35 -16 39 -19 7 -19 7 -27 -1z m-202 -149 c24 -10 59 -14 92
-12 29 2 53 1 53 -2 0 -3 -27 -34 -59 -70 l-58 -65 -37 17 c-36 18 -36 18 -36
83 0 36 2 65 4 65 2 0 21 -7 41 -16z m95 -169 c29 -15 30 -18 30 -85 l0 -69
-46 16 c-29 10 -67 14 -104 11 l-58 -4 62 73 c33 40 67 73 74 73 7 0 26 -7 42
-15z"/>
<path d="M1260 1945 c-14 -8 -35 -14 -47 -15 -51 0 -27 -19 52 -40 l85 -22 0
-64 c0 -61 -1 -64 -19 -54 -11 5 -23 10 -28 10 -4 -1 4 -8 20 -16 25 -13 27
-20 27 -72 0 -55 -2 -58 -42 -86 -46 -33 -59 -30 -95 24 -25 36 -30 88 -12
139 12 34 19 35 74 17 11 -4 5 1 -13 11 -22 11 -45 39 -69 80 -44 80 -53 82
-13 2 l31 -60 -35 -39 c-59 -65 -83 -131 -65 -179 13 -32 58 -81 76 -81 7 0
44 23 83 50 39 28 72 50 75 50 3 0 5 -7 5 -15 0 -27 29 -73 50 -80 13 -4 34 4
64 27 25 18 45 37 46 42 0 5 -7 3 -15 -4 -12 -10 -18 -10 -30 0 -22 18 -22
298 0 340 17 33 14 36 -14 19 -14 -9 -33 -7 -89 10 -82 25 -71 24 -102 6z"/>
<path d="M1590 1923 c-26 -20 -36 -33 -24 -29 40 12 49 -16 52 -164 4 -129 3
-139 -17 -157 l-21 -20 43 -30 c39 -28 44 -30 62 -16 11 8 29 21 39 29 18 13
19 15 3 32 -14 15 -17 41 -17 144 l0 125 46 33 46 33 26 -20 c27 -20 27 -21
32 -181 5 -156 6 -162 30 -186 l25 -25 55 40 c42 30 48 38 28 34 -41 -10 -48
16 -48 168 0 127 1 136 25 172 l26 37 -27 -21 -26 -20 -38 31 -39 31 -65 -47
c-86 -62 -96 -65 -96 -32 0 28 -40 76 -62 75 -7 0 -33 -16 -58 -36z"/>
<path d="M2260 1951 c-8 -5 -45 -19 -82 -31 l-68 -22 0 -161 0 -162 62 -38 61
-38 -62 -63 -63 -64 108 5 c60 3 125 1 144 -4 30 -9 44 -6 101 23 37 18 69 41
73 50 4 11 -4 32 -21 57 -66 94 -63 83 -63 226 l0 134 45 -6 45 -7 0 45 0 44
-46 -20 -45 -20 -74 30 c-78 33 -91 35 -115 22z m90 -205 c-1 -118 -1 -122
-29 -154 -32 -37 -49 -37 -95 -1 -26 20 -26 22 -26 163 0 78 2 145 5 148 3 3
37 -4 75 -15 l70 -20 0 -121z m84 -276 c54 -52 44 -69 -25 -44 -28 10 -77 16
-133 16 l-88 0 78 79 79 79 21 -43 c12 -23 43 -63 68 -87z"/>
<path d="M2996 1945 c-11 -8 -32 -15 -48 -15 -49 0 -30 -16 40 -35 101 -27
102 -27 102 -90 0 -43 -3 -55 -16 -55 -14 0 -14 -1 0 -16 10 -10 16 -33 16
-64 0 -43 -4 -51 -37 -80 -31 -26 -32 -28 -6 -11 39 26 43 26 43 -3 0 -29 36
-76 58 -76 9 0 37 18 62 41 26 23 35 35 21 29 -41 -20 -46 -2 -46 163 0 132 2
156 19 180 20 29 16 34 -13 16 -14 -9 -33 -7 -89 10 -82 25 -81 25 -106 6z"/>
<path d="M3865 1926 l-80 -32 -5 -156 c-3 -102 -9 -160 -17 -170 -15 -18 -7
-28 21 -28 12 0 47 -11 78 -24 l57 -23 75 46 c41 25 73 47 72 49 -2 1 -19 -6
-38 -18 l-34 -20 -63 21 -62 21 3 46 3 46 98 61 c54 34 103 67 109 73 9 9 -3
27 -52 77 -35 36 -69 65 -75 64 -5 -1 -46 -15 -90 -33z m85 -71 c35 -35 62
-66 59 -68 -13 -11 -128 -77 -133 -77 -3 0 -6 47 -6 105 0 58 4 105 8 105 4 0
36 -29 72 -65z"/>
<path d="M6183 1936 c-23 -13 -55 -28 -72 -34 l-31 -11 0 -128 c-1 -79 -6
-142 -14 -164 l-13 -37 35 -6 c20 -3 64 -17 99 -32 l63 -27 77 36 78 35 3 166
c2 116 -1 166 -9 166 -6 0 -44 14 -86 30 -41 17 -78 30 -81 29 -4 0 -26 -11
-49 -23z m80 -64 l47 -17 0 -147 c0 -82 -4 -148 -8 -148 -4 0 -35 10 -67 23
l-60 23 -3 148 -3 148 23 -7 c13 -4 44 -14 71 -23z"/>
<path d="M2890 1913 c0 -5 13 -31 29 -60 l28 -51 -42 -52 c-46 -56 -71 -124
-60 -160 4 -12 23 -40 42 -61 l35 -39 44 30 43 30 -35 33 c-41 37 -54 83 -41
146 6 30 15 45 29 49 11 2 15 8 10 11 -5 3 -24 34 -41 69 -29 57 -41 74 -41
55z"/>
</g>
</svg>
