<svg xmlns="http://www.w3.org/2000/svg" xmlns:xlink="http://www.w3.org/1999/xlink" viewBox="0 0 835.61 660.05"><defs><style>.cls-1{fill:url(#linear-gradient);}.cls-2{fill:#fff;}.cls-3{fill:url(#linear-gradient-2);}.cls-4{fill:url(#linear-gradient-3);}.cls-10,.cls-11,.cls-12,.cls-13,.cls-16,.cls-5,.cls-7,.cls-8,.cls-9{opacity:0.45;}.cls-5{fill:url(#linear-gradient-4);}.cls-6{fill:#e6e6e6;}.cls-7{fill:url(#linear-gradient-5);}.cls-8{fill:url(#linear-gradient-6);}.cls-9{fill:url(#linear-gradient-7);}.cls-10{fill:url(#linear-gradient-8);}.cls-11{fill:url(#linear-gradient-9);}.cls-12{fill:url(#linear-gradient-10);}.cls-13{fill:url(#linear-gradient-11);}.cls-14,.cls-15,.cls-30{fill:#f53065;}.cls-14{opacity:0.5;}.cls-14,.cls-15{isolation:isolate;}.cls-15{opacity:0.2;}.cls-16{fill:url(#linear-gradient-12);}.cls-17,.cls-18,.cls-19,.cls-20,.cls-21{opacity:0.56;}.cls-17{fill:url(#linear-gradient-13);}.cls-18{fill:url(#linear-gradient-14);}.cls-19{fill:url(#linear-gradient-15);}.cls-20{fill:url(#linear-gradient-16);}.cls-21{fill:url(#linear-gradient-17);}.cls-22{fill:url(#linear-gradient-18);}.cls-23{fill:url(#linear-gradient-19);}.cls-24{fill:url(#linear-gradient-20);}.cls-25{fill:none;}.cls-26{fill:url(#linear-gradient-21);}.cls-27{fill:url(#linear-gradient-22);}.cls-28{fill:url(#linear-gradient-23);}.cls-29{fill:url(#linear-gradient-24);}.cls-31{fill:url(#linear-gradient-25);}.cls-32{fill:url(#linear-gradient-26);}.cls-33{fill:url(#linear-gradient-27);}.cls-34{fill:url(#linear-gradient-28);}.cls-35{fill:url(#linear-gradient-29);}.cls-36{fill:url(#linear-gradient-30);}.cls-37{fill:url(#linear-gradient-31);}.cls-38{fill:url(#linear-gradient-32);}.cls-39{fill:url(#linear-gradient-33);}.cls-40{fill:url(#linear-gradient-34);}.cls-41{fill:url(#linear-gradient-35);}.cls-42{fill:url(#linear-gradient-36);}.cls-43{fill:url(#linear-gradient-37);}.cls-44{fill:url(#linear-gradient-38);}.cls-45{fill:url(#linear-gradient-39);}.cls-46{fill:url(#linear-gradient-40);}.cls-47{fill:url(#linear-gradient-41);}.cls-48{fill:url(#linear-gradient-42);}.cls-49{fill:url(#linear-gradient-43);}.cls-50{fill:url(#linear-gradient-44);}.cls-51{fill:url(#linear-gradient-45);}.cls-52{fill:url(#linear-gradient-46);}.cls-53{fill:url(#linear-gradient-47);}.cls-54{fill:url(#linear-gradient-48);}</style><linearGradient id="linear-gradient" x1="435.61" y1="133" x2="435.61" y2="662" gradientTransform="matrix(1, 0, 0, -1, 0, 662)" gradientUnits="userSpaceOnUse"><stop offset="0" stop-color="gray" stop-opacity="0.25"/><stop offset="0.54" stop-color="gray" stop-opacity="0.12"/><stop offset="1" stop-color="gray" stop-opacity="0.1"/></linearGradient><linearGradient id="linear-gradient-2" x1="42.61" y1="36.75" x2="826.61" y2="36.75" gradientUnits="userSpaceOnUse"><stop offset="0" stop-color="#ff736b"/><stop offset="1" stop-color="#ff2260"/></linearGradient><linearGradient id="linear-gradient-3" x1="435.61" y1="174" x2="435.61" y2="567" xlink:href="#linear-gradient"/><linearGradient id="linear-gradient-4" x1="63.11" y1="138.75" x2="155.11" y2="138.75" xlink:href="#linear-gradient-2"/><linearGradient id="linear-gradient-5" x1="528.11" y1="138.75" x2="620.11" y2="138.75" xlink:href="#linear-gradient-2"/><linearGradient id="linear-gradient-6" x1="342.11" y1="213.75" x2="434.11" y2="213.75" xlink:href="#linear-gradient-2"/><linearGradient id="linear-gradient-7" x1="621.11" y1="213.75" x2="713.11" y2="213.75" xlink:href="#linear-gradient-2"/><linearGradient id="linear-gradient-8" x1="156.11" y1="361.75" x2="248.11" y2="361.75" xlink:href="#linear-gradient-2"/><linearGradient id="linear-gradient-9" x1="249.11" y1="361.75" x2="341.11" y2="361.75" xlink:href="#linear-gradient-2"/><linearGradient id="linear-gradient-10" x1="528.11" y1="361.75" x2="620.11" y2="361.75" xlink:href="#linear-gradient-2"/><linearGradient id="linear-gradient-11" x1="714.11" y1="361.75" x2="806.11" y2="361.75" xlink:href="#linear-gradient-2"/><linearGradient id="linear-gradient-12" x1="342.11" y1="436.75" x2="434.11" y2="436.75" xlink:href="#linear-gradient-2"/><linearGradient id="linear-gradient-13" x1="159" y1="272" x2="36.96" y2="272" gradientUnits="userSpaceOnUse"><stop offset="0" stop-color="#553eff"/><stop offset="1" stop-color="#00f0ff"/></linearGradient><linearGradient id="linear-gradient-14" x1="461" y1="124" x2="267.04" y2="124" xlink:href="#linear-gradient-13"/><linearGradient id="linear-gradient-15" x1="426" y1="272" x2="300" y2="272" xlink:href="#linear-gradient-13"/><linearGradient id="linear-gradient-16" x1="580" y1="343" x2="331.71" y2="343" xlink:href="#linear-gradient-13"/><linearGradient id="linear-gradient-17" x1="736" y1="272" x2="545.18" y2="272" xlink:href="#linear-gradient-13"/><linearGradient id="linear-gradient-18" x1="171.55" y1="1.95" x2="171.55" y2="345.05" xlink:href="#linear-gradient"/><linearGradient id="linear-gradient-19" x1="4.63" y1="488.5" x2="338.47" y2="488.5" xlink:href="#linear-gradient-2"/><linearGradient id="linear-gradient-20" x1="171.55" y1="165.39" x2="171.55" y2="181.61" xlink:href="#linear-gradient"/><linearGradient id="linear-gradient-21" x1="194.61" y1="172.5" x2="194.61" y2="279.5" xlink:href="#linear-gradient"/><linearGradient id="linear-gradient-22" x1="219.72" y1="384.35" x2="168.72" y2="490.35" gradientTransform="translate(520.93 87.21) rotate(67.11)" gradientUnits="userSpaceOnUse"><stop offset="0" stop-color="#fe3eff"/><stop offset="1" stop-color="#423eff"/></linearGradient><linearGradient id="linear-gradient-23" x1="187.61" y1="117.5" x2="187.61" y2="173.5" xlink:href="#linear-gradient"/><linearGradient id="linear-gradient-24" x1="205.37" y1="547.45" x2="174.37" y2="494.45" gradientTransform="translate(269.26 -26.71) rotate(28.52)" xlink:href="#linear-gradient-22"/><linearGradient id="linear-gradient-25" x1="993.77" y1="302.4" x2="993.77" y2="311.43" gradientTransform="matrix(-0.5, 0.87, 0.87, 0.5, 293.8, -588.07)" xlink:href="#linear-gradient"/><linearGradient id="linear-gradient-26" x1="246.07" y1="-17.17" x2="246.07" y2="-8.14" gradientTransform="matrix(0.87, 0.5, 0.5, -0.87, -142.9, 420.68)" xlink:href="#linear-gradient"/><linearGradient id="linear-gradient-27" x1="662.74" y1="40.74" x2="662.74" y2="49.78" gradientTransform="matrix(0.87, 0.5, 0.5, -0.87, -551.37, 199.81)" xlink:href="#linear-gradient"/><linearGradient id="linear-gradient-28" x1="1151.63" y1="692.52" x2="1151.63" y2="701.56" gradientTransform="matrix(0, 1, 1, 0, -588.2, -771.98)" xlink:href="#linear-gradient"/><linearGradient id="linear-gradient-29" x1="1135.41" y1="755.11" x2="1135.41" y2="764.15" gradientTransform="matrix(0, 1, 1, 0, -588.2, -771.98)" xlink:href="#linear-gradient"/><linearGradient id="linear-gradient-30" x1="1151.63" y1="817.71" x2="1151.63" y2="826.74" gradientTransform="matrix(0, 1, 1, 0, -588.2, -771.97)" xlink:href="#linear-gradient"/><linearGradient id="linear-gradient-31" x1="1198" y1="864.07" x2="1198" y2="873.11" gradientTransform="matrix(-0.5, 0.87, 0.87, 0.5, 127.18, -1045.77)" xlink:href="#linear-gradient"/><linearGradient id="linear-gradient-32" x1="1326.66" y1="862.91" x2="1326.66" y2="871.95" gradientTransform="matrix(-0.5, 0.87, 0.87, 0.5, 191.35, -1027.95)" xlink:href="#linear-gradient"/><linearGradient id="linear-gradient-33" x1="1371.87" y1="815.39" x2="1371.87" y2="824.42" gradientTransform="matrix(-0.5, 0.87, 0.87, 0.5, 207.58, -998.14)" xlink:href="#linear-gradient"/><linearGradient id="linear-gradient-34" x1="1385.78" y1="755.11" x2="1385.78" y2="764.15" gradientTransform="matrix(-0.5, 0.87, 0.87, 0.5, 206.46, -966.13)" xlink:href="#linear-gradient"/><linearGradient id="linear-gradient-35" x1="1371.87" y1="694.84" x2="1371.87" y2="703.87" gradientTransform="matrix(-0.5, 0.87, 0.87, 0.5, 191.43, -937.86)" xlink:href="#linear-gradient"/><linearGradient id="linear-gradient-36" x1="168.07" y1="363.31" x2="175.03" y2="363.31" xlink:href="#linear-gradient-13"/><linearGradient id="linear-gradient-37" x1="230.66" y1="380.08" x2="237.63" y2="380.08" xlink:href="#linear-gradient-13"/><linearGradient id="linear-gradient-38" x1="276.48" y1="425.91" x2="283.44" y2="425.91" gradientTransform="translate(250.46 -82.92) rotate(30)" xlink:href="#linear-gradient-13"/><linearGradient id="linear-gradient-39" x1="275.76" y1="554.68" x2="282.72" y2="554.68" gradientTransform="translate(619.99 35.51) rotate(60)" xlink:href="#linear-gradient-13"/><linearGradient id="linear-gradient-40" x1="228.23" y1="599.65" x2="235.19" y2="599.65" gradientTransform="translate(330.87 -35.52) rotate(30)" xlink:href="#linear-gradient-13"/><linearGradient id="linear-gradient-41" x1="105.47" y1="380.09" x2="112.43" y2="380.09" xlink:href="#linear-gradient-13"/><linearGradient id="linear-gradient-42" x1="59.66" y1="425.91" x2="66.62" y2="425.91" gradientTransform="translate(400.42 158.27) rotate(60)" xlink:href="#linear-gradient-13"/><linearGradient id="linear-gradient-43" x1="293.27" y1="492.1" x2="302.31" y2="492.1" gradientTransform="translate(285.95 -82.97) rotate(30)" xlink:href="#linear-gradient-13"/><linearGradient id="linear-gradient-44" x1="60.39" y1="554.68" x2="67.35" y2="554.68" gradientTransform="translate(285.9 42.38) rotate(30)" xlink:href="#linear-gradient-13"/><linearGradient id="linear-gradient-45" x1="107.91" y1="599.66" x2="114.87" y2="599.66" gradientTransform="translate(575.01 203.36) rotate(60)" xlink:href="#linear-gradient-13"/><linearGradient id="linear-gradient-46" x1="41.73" y1="491.98" x2="48.69" y2="491.98" xlink:href="#linear-gradient-13"/><linearGradient id="linear-gradient-47" x1="168.07" y1="613.68" x2="175.03" y2="613.68" xlink:href="#linear-gradient-13"/><linearGradient id="linear-gradient-48" x1="165.75" y1="488.5" x2="177.35" y2="488.5" xlink:href="#linear-gradient-13"/></defs><title>Calendar</title><g id="Layer_2" data-name="Layer 2"><g id="_3cd38589-f6b5-4ced-9f2c-9a4b79f01fae" data-name="3cd38589-f6b5-4ced-9f2c-9a4b79f01fae"><rect class="cls-1" x="35.61" width="800" height="529"/><rect class="cls-2" x="42.61" y="62.5" width="784" height="450.5"/><rect class="cls-3" x="42.61" y="11" width="784" height="51.5"/><rect class="cls-4" x="53.61" y="95" width="764" height="393"/><rect class="cls-5" x="63.11" y="102" width="92" height="73.5"/><rect class="cls-2" x="156.11" y="102" width="92" height="73.5"/><rect class="cls-6" x="249.11" y="102" width="92" height="73.5"/><rect class="cls-2" x="342.11" y="102" width="92" height="73.5"/><rect class="cls-2" x="435.11" y="102" width="92" height="73.5"/><rect class="cls-7" x="528.11" y="102" width="92" height="73.5"/><rect class="cls-2" x="621.11" y="102" width="92" height="73.5"/><rect class="cls-6" x="714.11" y="102" width="92" height="73.5"/><rect class="cls-6" x="63.11" y="177" width="92" height="73.5"/><rect class="cls-6" x="156.11" y="177" width="92" height="73.5"/><rect class="cls-2" x="249.11" y="177" width="92" height="73.5"/><rect class="cls-8" x="342.11" y="177" width="92" height="73.5"/><rect class="cls-2" x="435.11" y="177" width="92" height="73.5"/><rect class="cls-6" x="528.11" y="177" width="92" height="73.5"/><rect class="cls-9" x="621.11" y="177" width="92" height="73.5"/><rect class="cls-2" x="714.11" y="177" width="92" height="73.5"/><rect class="cls-2" x="63.11" y="251" width="92" height="73.5"/><rect class="cls-2" x="156.11" y="251" width="92" height="73.5"/><rect class="cls-6" x="249.11" y="251" width="92" height="73.5"/><rect class="cls-2" x="342.11" y="251" width="92" height="73.5"/><rect class="cls-6" x="435.11" y="251" width="92" height="73.5"/><rect class="cls-2" x="528.11" y="251" width="92" height="73.5"/><rect class="cls-2" x="621.11" y="251" width="92" height="73.5"/><rect class="cls-6" x="714.11" y="251" width="92" height="73.5"/><rect class="cls-2" x="63.11" y="325" width="92" height="73.5"/><rect class="cls-10" x="156.11" y="325" width="92" height="73.5"/><rect class="cls-11" x="249.11" y="325" width="92" height="73.5"/><rect class="cls-2" x="342.11" y="325" width="92" height="73.5"/><rect class="cls-2" x="435.11" y="325" width="92" height="73.5"/><rect class="cls-12" x="528.11" y="325" width="92" height="73.5"/><rect class="cls-2" x="621.11" y="325" width="92" height="73.5"/><rect class="cls-13" x="714.11" y="325" width="92" height="73.5"/><rect class="cls-14" x="63.11" y="400" width="92" height="73.5"/><rect class="cls-15" x="156.11" y="400" width="92" height="73.5"/><rect class="cls-2" x="249.11" y="400" width="92" height="73.5"/><rect class="cls-16" x="342.11" y="400" width="92" height="73.5"/><rect class="cls-6" x="435.11" y="400" width="92" height="73.5"/><rect class="cls-2" x="528.11" y="400" width="92" height="73.5"/><rect class="cls-6" x="621.11" y="400" width="92" height="73.5"/><rect class="cls-2" x="714.11" y="400" width="92" height="73.5"/><rect class="cls-17" x="70.61" y="258" width="28" height="28"/><rect class="cls-18" x="348.61" y="110" width="28" height="28"/><rect class="cls-19" x="345.61" y="258" width="28" height="28"/><rect class="cls-20" x="440.61" y="329" width="28" height="28"/><rect class="cls-21" x="625.61" y="258" width="28" height="28"/><circle class="cls-22" cx="171.55" cy="488.5" r="171.55"/><circle class="cls-23" cx="171.55" cy="488.5" r="166.92"/><circle class="cls-2" cx="171.55" cy="488.5" r="135.62"/><circle class="cls-24" cx="171.55" cy="488.5" r="8.11"/><line class="cls-25" x1="216.76" y1="384.18" x2="172.71" y2="488.5"/><polygon class="cls-26" points="174.61 489.5 169.61 487.82 214.61 382.5 219.61 384.85 174.61 489.5"/><rect class="cls-27" x="138.1" y="434.57" width="113.24" height="3.48" transform="translate(-282.96 445.99) rotate(-67.11)"/><line class="cls-25" x1="172.71" y1="489.66" x2="201.69" y2="542.98"/><polygon class="cls-28" points="199.61 544.5 170.61 490.5 174.61 488.5 204.61 541.5 199.61 544.5"/><rect class="cls-29" x="185.44" y="486.01" width="3.48" height="60.69" transform="translate(-223.83 152.03) rotate(-28.52)"/><circle class="cls-30" cx="297.9" cy="491.98" r="3.48"/><circle class="cls-31" cx="62.72" cy="426.02" r="4.52" transform="matrix(0.5, -0.87, 0.87, 0.5, -337.58, 267.32)"/><circle class="cls-32" cx="63.87" cy="554.68" r="4.52" transform="translate(-268.78 106.25) rotate(-30)"/><circle class="cls-33" cx="45.21" cy="491.98" r="4.52"/><circle class="cls-34" cx="108.84" cy="379.65" r="4.52"/><circle class="cls-35" cx="171.44" cy="363.43" r="4.52"/><circle class="cls-36" cx="234.03" cy="379.66" r="4.52"/><circle class="cls-37" cx="280.39" cy="426.02" r="4.52" transform="translate(-175.45 197.27) rotate(-30)"/><circle class="cls-38" cx="279.24" cy="554.69" r="4.52" transform="translate(-239.93 213.93) rotate(-30)"/><circle class="cls-39" cx="231.71" cy="599.89" r="4.52" transform="translate(-268.9 196.23) rotate(-30)"/><circle class="cls-40" cx="171.43" cy="613.81" r="4.52" transform="translate(-283.94 167.95) rotate(-30)"/><circle class="cls-41" cx="111.16" cy="599.9" r="4.52" transform="translate(-285.05 135.95) rotate(-30)"/><circle class="cls-42" cx="171.55" cy="363.31" r="3.48"/><circle class="cls-43" cx="234.14" cy="380.08" r="3.48"/><circle class="cls-44" cx="279.96" cy="425.91" r="3.48" transform="translate(-175.45 197.04) rotate(-30)"/><circle class="cls-45" cx="279.24" cy="554.68" r="3.48" transform="translate(-340.75 519.17) rotate(-60)"/><circle class="cls-46" cx="231.71" cy="599.65" r="3.48" transform="translate(-268.78 196.19) rotate(-30)"/><circle class="cls-47" cx="108.95" cy="380.09" r="3.48"/><circle class="cls-48" cx="63.14" cy="425.91" r="3.48" transform="translate(-337.28 267.64) rotate(-60)"/><circle class="cls-49" cx="297.79" cy="492.1" r="4.52" transform="translate(-206.15 214.82) rotate(-30)"/><circle class="cls-50" cx="63.87" cy="554.68" r="3.48" transform="translate(-268.78 106.25) rotate(-30)"/><circle class="cls-51" cx="111.39" cy="599.66" r="3.48" transform="translate(-463.62 396.29) rotate(-60)"/><circle class="cls-52" cx="45.21" cy="491.98" r="3.48"/><circle class="cls-53" cx="171.55" cy="613.68" r="3.48"/><path class="cls-15" d="M42.89,501.25a135.64,135.64,0,0,1,253.28-67.48A135.64,135.64,0,1,0,53.89,554.83,135.21,135.21,0,0,1,42.89,501.25Z"/><circle class="cls-54" cx="171.55" cy="488.5" r="5.8"/></g></g></svg>