<svg xmlns="http://www.w3.org/2000/svg" xmlns:xlink="http://www.w3.org/1999/xlink" viewBox="0 0 1099 797.68"><defs><style>.cls-1{fill:#f2f2f2;}.cls-2{fill:url(#linear-gradient);}.cls-3{fill:#ffb9b9;}.cls-4{opacity:0.1;}.cls-10,.cls-4{isolation:isolate;}.cls-5{fill:#233862;}.cls-6{fill:#2f2e41;}.cls-7{fill:url(#linear-gradient-2);}.cls-8{fill:url(#linear-gradient-3);}.cls-9{fill:url(#linear-gradient-4);}.cls-10,.cls-18,.cls-40{fill:none;stroke-miterlimit:10;}.cls-10{stroke:#000;stroke-width:2px;opacity:0.2;}.cls-11{fill:url(#linear-gradient-5);}.cls-12{fill:url(#linear-gradient-6);}.cls-13{fill:url(#linear-gradient-7);}.cls-14{fill:url(#linear-gradient-8);}.cls-15{fill:url(#linear-gradient-9);}.cls-16{fill:url(#linear-gradient-10);}.cls-17{fill:url(#linear-gradient-11);}.cls-18{stroke:url(#linear-gradient-12);}.cls-19{fill:url(#linear-gradient-13);}.cls-20{fill:url(#linear-gradient-14);}.cls-21{fill:url(#linear-gradient-15);}.cls-22{fill:url(#linear-gradient-16);}.cls-23{fill:#9f616a;}.cls-24{fill:url(#linear-gradient-17);}.cls-25{fill:#fff;}.cls-26{fill:#ff3d64;}.cls-27{fill:url(#linear-gradient-18);}.cls-28,.cls-32,.cls-36{opacity:0.61;}.cls-28{fill:url(#linear-gradient-19);}.cls-29{fill:url(#linear-gradient-20);}.cls-30{fill:url(#linear-gradient-21);}.cls-31{fill:url(#linear-gradient-22);}.cls-32{fill:url(#linear-gradient-23);}.cls-33{fill:url(#linear-gradient-24);}.cls-34{fill:url(#linear-gradient-25);}.cls-35{fill:url(#linear-gradient-26);}.cls-36{fill:url(#linear-gradient-27);}.cls-37{fill:url(#linear-gradient-28);}.cls-38{fill:url(#linear-gradient-29);}.cls-39{fill:url(#linear-gradient-30);}.cls-40{stroke:url(#linear-gradient-31);}.cls-41{fill:url(#linear-gradient-32);}</style><linearGradient id="linear-gradient" x1="944.67" y1="562.71" x2="830.67" y2="417.71" gradientUnits="userSpaceOnUse"><stop offset="0" stop-color="#fe3eff"/><stop offset="1" stop-color="#423eff"/></linearGradient><linearGradient id="linear-gradient-2" x1="859.01" y1="766" x2="859.01" y2="665" xlink:href="#linear-gradient"/><linearGradient id="linear-gradient-3" x1="870.28" y1="435.62" x2="868.28" y2="600.62" gradientUnits="userSpaceOnUse"><stop offset="0" stop-color="#ff736b"/><stop offset="0.51" stop-color="#ff4a66"/><stop offset="0.77" stop-color="#ff3563"/><stop offset="1" stop-color="#ff2260"/></linearGradient><linearGradient id="linear-gradient-4" x1="927.25" y1="741.91" x2="940.25" y2="637.91" xlink:href="#linear-gradient"/><linearGradient id="linear-gradient-5" x1="791.37" y1="434.66" x2="789.37" y2="599.66" xlink:href="#linear-gradient-3"/><linearGradient id="linear-gradient-6" x1="933.53" y1="436.38" x2="931.53" y2="601.38" xlink:href="#linear-gradient-3"/><linearGradient id="linear-gradient-7" x1="786.06" y1="724.26" x2="799.06" y2="620.26" xlink:href="#linear-gradient"/><linearGradient id="linear-gradient-8" x1="865.25" y1="568" x2="865.25" y2="716" gradientUnits="userSpaceOnUse"><stop offset="0" stop-color="#00f0ff"/><stop offset="1" stop-color="#553eff"/></linearGradient><linearGradient id="linear-gradient-9" x1="968.1" y1="544.29" x2="854.1" y2="399.29" xlink:href="#linear-gradient"/><linearGradient id="linear-gradient-10" x1="979.62" y1="535.24" x2="865.62" y2="390.24" xlink:href="#linear-gradient"/><linearGradient id="linear-gradient-11" x1="975.1" y1="538.79" x2="861.1" y2="393.79" xlink:href="#linear-gradient"/><linearGradient id="linear-gradient-12" x1="573.43" y1="411.64" x2="848.93" y2="411.64" xlink:href="#linear-gradient"/><linearGradient id="linear-gradient-13" x1="571.76" y1="262.03" x2="583.91" y2="262.03" xlink:href="#linear-gradient"/><linearGradient id="linear-gradient-14" x1="38.64" y1="693.41" x2="38.64" y2="774.94" xlink:href="#linear-gradient-3"/><linearGradient id="linear-gradient-15" x1="170.59" y1="755.33" x2="165.59" y2="389.33" xlink:href="#linear-gradient-8"/><linearGradient id="linear-gradient-16" x1="184.09" y1="755.15" x2="179.09" y2="389.15" xlink:href="#linear-gradient-8"/><linearGradient id="linear-gradient-17" x1="157.85" y1="201.51" x2="187.85" y2="382.51" xlink:href="#linear-gradient-3"/><linearGradient id="linear-gradient-18" x1="359.61" y1="473.24" x2="284.61" y2="429.24" xlink:href="#linear-gradient-8"/><linearGradient id="linear-gradient-19" x1="453.76" y1="183" x2="522.94" y2="183" xlink:href="#linear-gradient"/><linearGradient id="linear-gradient-20" x1="431" y1="185.47" x2="548" y2="185.47" xlink:href="#linear-gradient-8"/><linearGradient id="linear-gradient-21" x1="447" y1="183.47" x2="532" y2="183.47" xlink:href="#linear-gradient-8"/><linearGradient id="linear-gradient-22" x1="470" y1="179" x2="506" y2="179" xlink:href="#linear-gradient-8"/><linearGradient id="linear-gradient-23" x1="453.76" y1="239.55" x2="522.94" y2="239.55" gradientTransform="translate(57.85 -93.69) rotate(11.54)" xlink:href="#linear-gradient"/><linearGradient id="linear-gradient-24" x1="439.18" y1="244.3" x2="563.66" y2="244.3" xlink:href="#linear-gradient-8"/><linearGradient id="linear-gradient-25" x1="455.53" y1="241.3" x2="546.04" y2="241.3" xlink:href="#linear-gradient-8"/><linearGradient id="linear-gradient-26" x1="480.02" y1="234.43" x2="515.54" y2="234.43" xlink:href="#linear-gradient-8"/><linearGradient id="linear-gradient-27" x1="453.76" y1="295.49" x2="522.94" y2="295.49" gradientTransform="translate(749.99 -213.02) rotate(86.02)" xlink:href="#linear-gradient"/><linearGradient id="linear-gradient-28" x1="436.11" y1="300.26" x2="556.25" y2="300.26" xlink:href="#linear-gradient-8"/><linearGradient id="linear-gradient-29" x1="452.75" y1="297.78" x2="540.05" y2="297.78" xlink:href="#linear-gradient-8"/><linearGradient id="linear-gradient-30" x1="477.47" y1="291.91" x2="513.41" y2="291.91" xlink:href="#linear-gradient-8"/><linearGradient id="linear-gradient-31" x1="288.69" y1="223.62" x2="414.99" y2="223.62" xlink:href="#linear-gradient"/><linearGradient id="linear-gradient-32" x1="287.08" y1="231.58" x2="299.23" y2="231.58" xlink:href="#linear-gradient"/></defs><title>cash-back</title><g id="Layer_2" data-name="Layer 2"><g id="ecb8a146-dd8f-4f83-ab4e-53bb1469e238"><circle class="cls-1" cx="414.92" cy="373" r="373"/><ellipse class="cls-1" cx="148" cy="774" rx="148" ry="23.68"/><ellipse class="cls-1" cx="870" cy="736.97" rx="229" ry="36.64"/><path class="cls-2" d="M819.12,384.78s2,6.5-9.1,12.35-14.3,27.95-1.3,34.45,16.9,14.94,10.4,20.79-18.2,21.45-2.6,25.35,17.55,11.69,13,14.94,10.4-5.84,10.4-5.84,2.6,15.59,16.24,11.69,52-78,32.5-88.38S819.12,384.78,819.12,384.78Z"/><path class="cls-3" d="M842.68,447.54s6.74,23.59-5.06,25.28a46.05,46.05,0,0,0-20.22,8.42l21.9,28.65h40.45L905,484.61s-33.7-25.28-27-40.44S842.68,447.54,842.68,447.54Z"/><path class="cls-4" d="M842.68,447.54s6.74,23.59-5.06,25.28a46.05,46.05,0,0,0-20.22,8.42l21.9,28.65h40.45L905,484.61s-33.7-25.28-27-40.44S842.68,447.54,842.68,447.54Z"/><polygon class="cls-3" points="852.79 740.78 891.55 754.26 918.51 755.95 916.83 732.35 861.21 715.9 852.79 740.78"/><path class="cls-5" d="M902.5,735.72s0,23.6,3.37,23.6,48.88-5.06,62.36,0,33.71-13.49,23.59-23.6-26.6-25.28-36.89-21.91-52.43,11.8-52.43,11.8Z"/><path class="cls-5" d="M778.63,713.81s-20.22,40.45-6.74,43.82,28.65-1.68,30.34-3.37,25.28-8.43,28.65-5,3.37-13.49,3.37-13.49Z"/><path class="cls-6" d="M795.49,658.2s-32,43.82-8.43,55.61,136.51,11.8,144.94,0,11.79-48.87,0-52.24S795.49,658.2,795.49,658.2Z"/><path class="cls-7" d="M795.49,658.2s-32,43.82-8.43,55.61,136.51,11.8,144.94,0,11.79-48.87,0-52.24S795.49,658.2,795.49,658.2Z"/><circle class="cls-3" cx="856.16" cy="420.57" r="38.76"/><path class="cls-8" d="M795.49,481.24l33.7-6.74s8.43,27,35.39,21.91,33.71-21.91,33.71-21.91,20.22,8.43,21.91,8.43,23.59,8.42,23.59,13.48S918.51,552,918.51,552l3.37,91-124.71-3.37,8.43-89.32Z"/><path class="cls-3" d="M777,525.06s-10.11,89.32-3.37,96.06,33.7,25.28,33.7,25.28V626.18L793.8,600.9l13.48-59Z"/><path class="cls-3" d="M951.38,522.53s-5.9,91.85-5.9,95.22-15.17,15.17-20.23,15.17-8.42-8.43-8.42-8.43L928.63,611l-8.43-69.1Z"/><path class="cls-9" d="M935.37,651.46s75.83-42.13,77.52,0-38.76,59-38.76,59-104.49,31.34-108.7,19.88-12.64-30-5.9-31.67,15.17-5.06,18.54-1.69,45.5-25.28,45.5-25.28Z"/><path class="cls-10" d="M970.76,646.4s-15.17,6.74-20.23,11.8-27,13.48-27,13.48"/><path class="cls-11" d="M805.6,484.61l-10.11-3.37S758.41,520,770.21,530.12,788.75,543.6,792.12,547,812.34,552,812.34,552Z"/><path class="cls-12" d="M928.63,493l15.16,3.37s11.8,25.28,15.17,28.65-5.06,1.69-10.11,8.43S938.74,552,928.63,552,905,535.17,905,535.17Z"/><path class="cls-13" d="M798.86,666.63s-64-45.51-86-11.8S807.28,734,824.14,740.78s32,13.48,32,13.48,15.17-37.08,15.17-43.82-11.8-6.74-15.17-6.74-18.54-3.37-21.91-8.42S798.86,666.63,798.86,666.63Z"/><path class="cls-10" d="M763.47,654.83s16.85,13.48,32,16.85,20.22,11.8,20.22,11.8"/><path class="cls-14" d="M787.23,591.46l1.35,71.36a8.93,8.93,0,0,0,9,8.76l132.79-1.49a8.94,8.94,0,0,0,8.82-8.42l4-69.86a8.93,8.93,0,0,0-8.41-9.43l-.51,0H796.16a8.93,8.93,0,0,0-8.93,8.93Z"/><path class="cls-15" d="M858.23,371.88s2.16,7.2-10.08,13.68-15.84,31-1.44,38.16,18.72,16.55,11.52,23-20.16,23.76-2.88,28.08,19.44,13,14.4,16.56,11.52-6.48,11.52-6.48,2.88,17.28,18,13S929.47,415,912.61,394.8C896.94,376,858.23,371.88,858.23,371.88Z"/><path class="cls-16" d="M853.63,364.47c0-10.55,31.56-3,45.09,11.76,9.37,10.2,23.6,25.54,11.67,36.35s20.44,25,29.12,29.29,25.82,17.45,10.34,26.26-15.22,17.72-9.4,19.83-12.84-3.13-12.84-3.13,1.89,17.41-13.83,17.33-60.84-86.49-50.06-110.51C873.74,369.31,853.63,364.47,853.63,364.47Z"/><path class="cls-17" d="M860.46,362.16C818.27,359.62,814,391.38,814,391.38c.29,18.38,29.48,9.43,37.59,12.17,9.78-7,28.64-20.35,42.12-29.86A63.74,63.74,0,0,0,860.46,362.16Z"/><path class="cls-18" d="M848.44,564.85s-37.85-177.4-274.77-306.09"/><polygon class="cls-19" points="583.43 254.89 583.9 256.84 574.32 259.16 577.34 268.55 575.43 269.16 571.76 257.72 583.43 254.89"/><path class="cls-20" d="M68.47,746.11c0,22.47-13.35,30.32-29.83,30.32l-1.14,0c-.77,0-1.52,0-2.27-.1-14.87-1-26.42-9.3-26.42-30.2,0-21.62,27.63-48.91,29.71-50.93h0l.12-.12S68.47,723.64,68.47,746.11Z"/><path class="cls-5" d="M37.55,773l10.91-15.25L37.53,774.66l0,1.75c-.77,0-1.52,0-2.27-.1l1.18-22.48v-.18l0,0,.11-2.12-11-17,11,15.37,0,.45.89-17-9.39-17.53,9.5,14.55.93-35.21v0l-.16,27.76,9.35-11-9.38,13.4-.25,15.2L46.81,726,38,742.78l-.13,8.45,12.66-20.31L37.86,754.18Z"/><path class="cls-5" d="M210.77,740.29l6.39-4.74s4.22,23.6-.49,27.13-22.4,9.43-22.4,16.5-40.06,16.5-41.24,5.89,3.53-16.5,3.53-16.5,18.86-18.85,21.22-22.39,8.25-10.6,8.25-10.6Z"/><path class="cls-21" d="M116.5,446.85l.48,2.94c.28,1.68.67,4.06,1.14,7,4.95,30.2,19.39,119.12,18.41,122.05-1.18,3.54-9.43,16.5,0,20,.91.34,1.89,1.44,2.93,3.19a68,68,0,0,1,5,11.76c5.62,16.31,11.63,42.41,15.11,60.49,1.52,7.94,2.55,14.33,2.86,17.68a9.56,9.56,0,0,1,0,2.33c-1.18,4.71,7.07,21.21,10.6,25.93s9.43,9.42,8.25,14.14,29.46,17.68,33,9.43,3.53-13,4.71-15.32,2.36-18.86-3.53-21.22-2.36-43.6-8.25-51.85c-2-2.74-5-12-8.12-23.23-1.24-4.38-2.49-9.05-3.71-13.73C190.43,599.31,186,580,186,580l1.17-137.88-64.81-8.25-1.66,3.67-3.31,7.27Z"/><path class="cls-5" d="M113,673.12s-9.43-9.43-14.14,0-9.43,46-17.68,54.21-18.85,49.49-7.07,51.85,24.75-3.54,25.93-10.61,25.92-43.6,25.92-47.13-16.49-16.5-16.49-16.5Z"/><path class="cls-22" d="M257.91,382s-15.32,137.88-18.85,150.84-22.39,62.46-28.29,70.71-43.6,75.42-48.31,79-14.15,13-14.15,13-17.67,17.68-20,21.21-22.39-7.07-23.57-14.14,1.18-18.86,2.36-23.57-2.36-11.78,1.18-15.32,21.21-21.21,21.21-29.46,30.64-56.57,42.42-67.17,9.43-28.29,9.43-28.29V466.89l-64.81-20s3.53-56.56,11.78-56.56S245,371.43,257.91,382Z"/><circle class="cls-23" cx="162.46" cy="146.35" r="38.89"/><path class="cls-23" d="M175.42,177s4.71,17.67,10.61,22.39-15.32,24.74-15.32,24.74l-40.07,2.36-7.07-22.39s13-25.93,9.42-42.42S175.42,177,175.42,177Z"/><path class="cls-24" d="M191.92,197s-10.61,1.18-13,4.71-18.85,14.15-31.81,11.79-21.22-5.89-23.57-4.72-7.07,25.93-7.07,25.93l13,37.71L127.1,376.15l-3.53,28.28s-7.07-9.43,21.21-3.54,64.81-4.71,76.6-5.89,31.82-4.71,33-11.78-3.54-33-3.54-33l-18.85-79L220.2,228.84Z"/><path class="cls-25" d="M180.77,191.7s10-5.29,13.5-.57,48.32,11.78,48.32,15.32,9.43,99,7.07,107.24,4.72,17.67,4.72,17.67l8.25,35.36s22.39,67.17,13,69.53-17.68,0-21.21,0-2.36-44.78-11.79-56.57-22.39-41.24-24.75-47.14S186,245.34,187.2,235.91,180.77,191.7,180.77,191.7Z"/><path class="cls-25" d="M131.82,197s-9.43,0-10.61,2.36-13,17.67-17.68,21.21S82.32,239.44,82.32,243s34.18,29.46,34.18,29.46,14.14,69.53,7.07,93.1-17.68,80.14-13,83.67,15.32,4.71,15.32,0,7.07-55.39,13-66,23.57-77.78,16.5-96.64S131.82,197,131.82,197Z"/><path class="cls-23" d="M287.37,313.69s1.18,36.53-11.78,55.39-21.21,40.06-21.21,40.06-21.22-5.89-24.75-13S203.7,395,203.7,392.64s27.11-14.14,29.46-16.49,10.61-2.36,15.32-7.07,5.9-15.32,5.9-15.32l4.71-30.64Z"/><path class="cls-5" d="M189.24,122.37c3-.27,6.08-.57,8.72-2,5.93-3.19,7.5-12.29,3-17.29a22.82,22.82,0,0,0-4.14-3.33l-9-6.1c-4-2.69-8-5.44-12.64-6.71-4.18-1.15-8.59-1-12.92-.76-8.4.52-16.85,1.6-24.75,4.5s-15.27,7.75-20,14.67c-7.59,11-7.69,25.78-3.51,38.45s12.11,23.7,19.93,34.51l4.05-19.8c.37-1.76.83-3.69,2.3-4.74,3.64-2.59,8.1,2.74,12.58,2.7,2.87,0,5.28-2.39,6.37-5.05s1.16-5.6,1.41-8.46c.54-6.07,2.66-14.51,8.4-17.85C174.37,122,183.23,122.91,189.24,122.37Z"/><path class="cls-4" d="M187.06,447.8s-4,115.13-6.34,118.67,0-119,0-119Z"/><path class="cls-25" d="M233.16,206.45h9.43s40.07,54.21,35.36,57.74,0,13,0,13l9.42,17.67s11.79,10.61,8.25,13-8.25,11.78-8.25,11.78S263.8,316,256.73,330.19l-15.28-19.3Z"/><rect class="cls-5" x="215.27" y="228.09" width="35" height="65.22" transform="translate(-81.88 108.58) rotate(-22.44)"/><ellipse class="cls-26" cx="230.25" cy="253.3" rx="7" ry="6.43" transform="translate(-79.25 107.06) rotate(-22.44)"/><path class="cls-23" d="M209.59,300.72s-84.84,70.71-99,48.32,15.32-41.24,15.32-41.24,25.93,1.17,55.39-17.68l29.46-13s26.9-38.4,36.06-23.78S231.19,293.45,209.59,300.72Z"/><path class="cls-25" d="M95.28,238.27l-13,4.71v35.35l-4.71,7.07s1.18,14.15,4.71,17.68,10.61,2.36,8.25,10.61a44.55,44.55,0,0,0-1.18,16.5s21.21,27.1,22.39,23.57,17.68-47.14,20-47.14-23.57-68.35-23.57-68.35Z"/><path class="cls-27" d="M250.25,416.8s12.19-11.78,6.09-12.37S229,392.06,225.5,398,250.25,416.8,250.25,416.8Z"/><ellipse class="cls-28" cx="482" cy="183" rx="17" ry="9"/><path class="cls-29" d="M548,214.45l-1.35-.51c-37.92-14.33-76.38-14.33-114.3,0l-1.35.51V165.26l.71-.22a199.41,199.41,0,0,1,115.58,0l.71.22Zm-58.5-13.26A162.53,162.53,0,0,1,546,211.56V166.74a197.59,197.59,0,0,0-113,0v44.82A162.53,162.53,0,0,1,489.5,201.19Z"/><path class="cls-30" d="M532,204.73l-1.35-.51c-27.31-10.32-55-10.32-82.3,0l-1.35.51V168.62l.71-.22a144.22,144.22,0,0,1,83.58,0l.71.22Zm-42.5-10.25a117.41,117.41,0,0,1,40.5,7.36V170.1a142.24,142.24,0,0,0-81,0v31.74A117.41,117.41,0,0,1,489.5,194.48Z"/><path class="cls-31" d="M488,189c-10.09,0-18-4.39-18-10s7.91-10,18-10,18,4.39,18,10S498.09,189,488,189Zm0-18c-8.67,0-16,3.66-16,8s7.33,8,16,8,16-3.66,16-8S496.67,171,488,171Z"/><ellipse class="cls-32" cx="492.7" cy="239.55" rx="17" ry="9" transform="translate(-37.95 103.37) rotate(-11.54)"/><path class="cls-33" d="M449,280.56l-9.84-48.2.66-.35A199.29,199.29,0,0,1,553.08,208.9l.74.06,9.84,48.2-1.43-.23c-40-6.45-77.7,1.24-112,22.85Zm-7.58-47.14,9,43.91c34-21.05,71.21-28.64,110.72-22.6l-9-43.91A197.47,197.47,0,0,0,441.44,233.42Z"/><path class="cls-34" d="M462.75,267.83l-7.22-35.38.65-.35a144.2,144.2,0,0,1,81.89-16.71l.74.06L546,250.83l-1.43-.23c-28.81-4.64-55.94.9-80.63,16.46Zm-5-34.32,6.34,31.1a115,115,0,0,1,79.37-16.2l-6.35-31.1A142.15,142.15,0,0,0,457.79,233.51Z"/><path class="cls-35" d="M493.42,244.89c-7,0-12.41-2.6-13.28-6.86-.56-2.74.85-5.65,3.95-8.21a29.74,29.74,0,0,1,24.48-5c3.85,1.13,6.29,3.26,6.85,6,1.12,5.49-5.75,11.38-15.64,13.4A32,32,0,0,1,493.42,244.89ZM502.1,226a29.94,29.94,0,0,0-5.92.62,25.18,25.18,0,0,0-10.82,4.78c-2.5,2.06-3.66,4.28-3.26,6.26.87,4.25,8.78,6.37,17.28,4.64s14.94-6.79,14.08-11c-.41-2-2.34-3.57-5.46-4.48A21,21,0,0,0,502.1,226Z"/><ellipse class="cls-36" cx="489.17" cy="295.49" rx="9" ry="17" transform="translate(160.44 762.97) rotate(-86.02)"/><path class="cls-37" d="M552.83,331.44l-1.31-.61c-36.84-16.92-75.2-19.59-114-7.93l-1.39.42,3.42-49.08.72-.16a199.44,199.44,0,0,1,115.3,8l.7.27Zm-68.19-17.66A160.54,160.54,0,0,1,551,328.42l3.11-44.71a197.4,197.4,0,0,0-112.73-7.84l-3.11,44.7A165,165,0,0,1,484.64,313.78Z"/><path class="cls-38" d="M537.55,320.63l-1.32-.6c-26.52-12.19-54.14-14.11-82.09-5.72l-1.39.42,2.51-36,.72-.17a144.3,144.3,0,0,1,83.38,5.8l.69.27Zm-49.47-13.44a116.2,116.2,0,0,1,47.67,10.42L538,286a142.24,142.24,0,0,0-80.8-5.62L455,312A119.33,119.33,0,0,1,488.08,307.19Z"/><path class="cls-39" d="M497.1,302c-.77,0-1.56,0-2.36-.08a27.17,27.17,0,0,1-12.26-3.62c-3.42-2.12-5.19-4.82-5-7.61h0c.2-2.78,2.33-5.22,6-6.85a29.77,29.77,0,0,1,24.92,1.74c3.41,2.12,5.19,4.83,5,7.61C513,298.31,506.06,302,497.1,302Zm-3.29-18.12a23.88,23.88,0,0,0-9.52,1.79c-3,1.32-4.67,3.15-4.81,5.16h0c-.14,2,1.3,4.06,4,5.78a25.23,25.23,0,0,0,11.35,3.31c8.66.6,16.22-2.54,16.52-6.87.14-2-1.3-4.06-4.06-5.77A25.11,25.11,0,0,0,496,283.93C495.26,283.88,494.53,283.85,493.81,283.85Z"/><path class="cls-40" d="M414.92,214.09s-73.49-10.05-126,20.71"/><polygon class="cls-41" points="290.71 224.46 292.62 225.06 289.63 234.46 299.23 236.75 298.76 238.7 287.08 235.91 290.71 224.46"/></g></g></svg>