<svg xmlns="http://www.w3.org/2000/svg" xmlns:xlink="http://www.w3.org/1999/xlink" viewBox="0 0 965.82 729.21"><defs><style>.cls-1{fill:#afafaf;}.cls-2{fill:url(#linear-gradient);}.cls-3{fill:#e6e6e6;}.cls-4{fill:url(#linear-gradient-2);}.cls-5{fill:url(#linear-gradient-3);}.cls-6{fill:#575a89;}.cls-7{fill:url(#linear-gradient-4);}.cls-8{fill:url(#linear-gradient-5);}.cls-9{fill:#ffb8b8;}.cls-10{fill:url(#linear-gradient-6);}.cls-11{fill:#233862;}.cls-12{fill:url(#linear-gradient-7);}.cls-13{fill:url(#linear-gradient-8);}.cls-14{fill:url(#linear-gradient-9);}.cls-15{fill:url(#linear-gradient-10);}.cls-16{fill:url(#linear-gradient-11);}.cls-17{fill:#ffb9b9;}.cls-18{fill:url(#linear-gradient-12);}.cls-19{fill:url(#linear-gradient-13);}.cls-20{fill:url(#linear-gradient-14);}.cls-21{fill:url(#linear-gradient-15);}.cls-22{opacity:0.1;isolation:isolate;}</style><linearGradient id="linear-gradient" x1="226.18" y1="119.33" x2="262.13" y2="119.33" gradientTransform="translate(322.84 -140.79) rotate(80.78)" gradientUnits="userSpaceOnUse"><stop offset="0" stop-color="#ff736b"/><stop offset="1" stop-color="#ff2260"/></linearGradient><linearGradient id="linear-gradient-2" x1="270.16" y1="324.64" x2="307.87" y2="324.64" gradientTransform="matrix(1, 0, 0, 1, 0, 0)" xlink:href="#linear-gradient"/><linearGradient id="linear-gradient-3" x1="549.52" y1="41.6" x2="587.23" y2="41.6" gradientTransform="matrix(1, 0, 0, 1, 0, 0)" xlink:href="#linear-gradient"/><linearGradient id="linear-gradient-4" x1="556.68" y1="245.47" x2="592.62" y2="245.47" gradientTransform="matrix(1, 0, 0, 1, 0, 0)" xlink:href="#linear-gradient"/><linearGradient id="linear-gradient-5" x1="418.57" y1="412.96" x2="517.91" y2="412.96" gradientTransform="matrix(1, 0, 0, 1, 0, 0)" xlink:href="#linear-gradient"/><linearGradient id="linear-gradient-6" x1="877.36" y1="683.23" x2="799.36" y2="398.23" gradientUnits="userSpaceOnUse"><stop offset="0" stop-color="#fe3eff"/><stop offset="1" stop-color="#423eff"/></linearGradient><linearGradient id="linear-gradient-7" x1="857.61" y1="303.98" x2="821.61" y2="405.98" gradientTransform="matrix(1, 0, 0, 1, 0, 0)" xlink:href="#linear-gradient"/><linearGradient id="linear-gradient-8" x1="843.56" y1="324.98" x2="842.56" y2="348.98" gradientTransform="matrix(1, 0, 0, 1, 0, 0)" xlink:href="#linear-gradient"/><linearGradient id="linear-gradient-9" x1="810.14" y1="307.58" x2="851.14" y2="240.58" xlink:href="#linear-gradient-6"/><linearGradient id="linear-gradient-10" x1="805.77" y1="304.9" x2="846.77" y2="237.9" xlink:href="#linear-gradient-6"/><linearGradient id="linear-gradient-11" x1="811.09" y1="308.16" x2="852.09" y2="241.16" xlink:href="#linear-gradient-6"/><linearGradient id="linear-gradient-12" x1="147.91" y1="724.84" x2="83.91" y2="575.84" gradientTransform="matrix(1, 0, 0, 1, 0, 0)" xlink:href="#linear-gradient"/><linearGradient id="linear-gradient-13" x1="69.14" y1="654.58" x2="88.14" y2="404.58" gradientTransform="matrix(1, 0, 0, 1, 0, 0)" xlink:href="#linear-gradient"/><linearGradient id="linear-gradient-14" x1="70.58" y1="253" x2="69.58" y2="389" gradientUnits="userSpaceOnUse"><stop offset="0" stop-color="#00f0ff"/><stop offset="1" stop-color="#553eff"/></linearGradient><linearGradient id="linear-gradient-15" x1="132.3" y1="253.46" x2="131.3" y2="389.46" xlink:href="#linear-gradient-14"/></defs><title>content_sharing</title><g id="Layer_2" data-name="Layer 2"><g id="bab7d7d3-5265-4add-b9d0-a4ec8bbdc3a5"><path class="cls-1" d="M445.39,155.56H207.14a4.42,4.42,0,0,1-4.42-4.41V92.05a4.43,4.43,0,0,1,4.42-4.41H445.39a4.43,4.43,0,0,1,4.42,4.41v59.1A4.42,4.42,0,0,1,445.39,155.56ZM207.14,89.4a2.66,2.66,0,0,0-2.65,2.65v59.1a2.65,2.65,0,0,0,2.65,2.65H445.39a2.65,2.65,0,0,0,2.65-2.65V92.05a2.66,2.66,0,0,0-2.65-2.65Z"/><circle class="cls-2" cx="244.16" cy="119.33" r="17.97" transform="translate(87.25 341.22) rotate(-80.78)"/><path class="cls-3" d="M285.67,107.35a3,3,0,1,0,0,6H426.88a3,3,0,0,0,0-6Z"/><path class="cls-3" d="M285.67,125.33a3,3,0,1,0,0,6h60.76a3,3,0,1,0,0-6H285.67Z"/><path class="cls-1" d="M342,366.23H236.06a4.42,4.42,0,0,1-4.41-4.41V251.54a4.42,4.42,0,0,1,4.41-4.41H342a4.41,4.41,0,0,1,4.41,4.41V361.82A4.41,4.41,0,0,1,342,366.23ZM236.06,248.89a2.65,2.65,0,0,0-2.64,2.65V361.82a2.65,2.65,0,0,0,2.64,2.65H342a2.65,2.65,0,0,0,2.64-2.65V251.54a2.65,2.65,0,0,0-2.64-2.65Z"/><path class="cls-3" d="M258.63,269.87a3,3,0,0,0,0,6h60.76a3,3,0,1,0,0-6Z"/><path class="cls-3" d="M258.63,287.52a3,3,0,0,0,0,6h60.77a3,3,0,1,0,0-6Z"/><path class="cls-4" d="M289,343.49a18.86,18.86,0,1,1,18.86-18.85h0A18.88,18.88,0,0,1,289,343.49Z"/><path class="cls-1" d="M515.43,0H621.32a4.42,4.42,0,0,1,4.41,4.41V114.69a4.43,4.43,0,0,1-4.41,4.42H515.43a4.43,4.43,0,0,1-4.42-4.42V4.41A4.43,4.43,0,0,1,515.43,0ZM621.32,117.34a2.65,2.65,0,0,0,2.65-2.65V4.41a2.67,2.67,0,0,0-2.65-2.65H515.43a2.65,2.65,0,0,0-2.65,2.65V114.69a2.64,2.64,0,0,0,2.65,2.65Z"/><path class="cls-3" d="M598.75,96.36a3,3,0,1,0,0-6H538a3,3,0,0,0,0,6h60.77Z"/><path class="cls-3" d="M598.75,78.72a3,3,0,0,0,0-6H538a3,3,0,0,0,0,6h60.77Z"/><path class="cls-5" d="M568.37,22.74A18.86,18.86,0,1,1,549.52,41.6h0A18.87,18.87,0,0,1,568.37,22.74Z"/><path class="cls-6" d="M204.08,228.16A150.93,150.93,0,0,1,268,199.27a148.8,148.8,0,0,1,70.53,3.62,150.61,150.61,0,0,1,32.91,14.26c10.56,6.18,20.1,13.77,29.28,21.82s18.29,16.66,28,24.34a156.91,156.91,0,0,0,97.61,34.33c2.93,0,5.86-.08,8.78-.24,1.59-.09,1.6-2.57,0-2.48a154.31,154.31,0,0,1-100.89-30.49C424.14,256.91,415,248.3,405.58,240c-9.09-8.08-18.43-15.95-28.75-22.44a151.87,151.87,0,0,0-167.66,3.82c-2.33,1.62-4.6,3.31-6.84,5.05-1.26,1,.51,2.73,1.76,1.76Z"/><circle class="cls-6" cx="202.77" cy="227.26" r="12.89"/><circle class="cls-6" cx="682.15" cy="398.34" r="12.89"/><path class="cls-1" d="M749.65,324.94H539.39a4.42,4.42,0,0,1-4.41-4.41V211.13a4.42,4.42,0,0,1,4.41-4.41H749.65a4.4,4.4,0,0,1,4.41,4.41v109.4A4.41,4.41,0,0,1,749.65,324.94ZM539.39,208.48a2.65,2.65,0,0,0-2.64,2.65v109.4a2.65,2.65,0,0,0,2.64,2.65H749.65a2.66,2.66,0,0,0,2.65-2.65V211.13a2.65,2.65,0,0,0-2.65-2.65Z"/><circle class="cls-7" cx="574.65" cy="245.47" r="17.97"/><path class="cls-3" d="M616.16,233.49a3,3,0,1,0,0,6H729.37a3,3,0,1,0,0-6H616.16Z"/><path class="cls-3" d="M616.16,251.46a3,3,0,1,0,0,6h60.77a3,3,0,1,0,0-6Z"/><path class="cls-3" d="M560.86,280.2c-2.27,0-4.13,1.34-4.13,3s1.86,3,4.13,3H727.7c2.28,0,4.13-1.35,4.13-3s-1.85-3-4.13-3Z"/><path class="cls-3" d="M560.86,298.17c-2.27,0-4.13,1.34-4.13,3s1.86,3,4.13,3H727.7c2.28,0,4.13-1.34,4.13-3s-1.85-3-4.13-3Z"/><path class="cls-6" d="M522.49,410.34c11.86-5.14,25.11-.66,36.29,4.08,5.76,2.45,11.45,5.05,17.41,7A98.84,98.84,0,0,0,591.55,425a108.24,108.24,0,0,0,31.54.19,109.62,109.62,0,0,0,30.43-8.85,102.82,102.82,0,0,0,26.35-17.22c1-.9,2-1.82,2.93-2.77,1.14-1.11-.61-2.87-1.75-1.75a99.87,99.87,0,0,1-25.7,18.14,107.46,107.46,0,0,1-29.86,9.59,105.34,105.34,0,0,1-31.46.55,99.94,99.94,0,0,1-15.4-3.35,161.69,161.69,0,0,1-17-6.61c-11.28-4.84-23.82-9.59-36.22-6.25a30.76,30.76,0,0,0-4.16,1.49c-1.46.63-.2,2.77,1.25,2.14Z"/><path class="cls-8" d="M517.91,440.75H418.57L442,400.26a4.77,4.77,0,0,1,8.27,0l10,17.3,17-29.41a6,6,0,0,1,10.35,0Z"/><path class="cls-1" d="M518,440.74H412.11a4.41,4.41,0,0,1-4.41-4.41v-59.1a4.41,4.41,0,0,1,4.41-4.41H518a4.42,4.42,0,0,1,4.42,4.41v59.1A4.42,4.42,0,0,1,518,440.74ZM412.11,374.58a2.66,2.66,0,0,0-2.65,2.65v59.1a2.66,2.66,0,0,0,2.65,2.65H518a2.65,2.65,0,0,0,2.65-2.65v-59.1a2.65,2.65,0,0,0-2.65-2.65Z"/><path class="cls-9" d="M725.7,388.73l-18.88,9.58c-6.73,3.42-13.24,2.84-15.73-4.3h0a12.52,12.52,0,0,1,9.5-16.38l17.94-3.35,76.83-25.49,46.54-33L859,343l-53.78,29Z"/><polygon class="cls-9" points="813.81 706.87 799.37 704.47 800.97 677.19 816.22 677.19 813.81 706.87"/><path class="cls-10" d="M946.19,656.33l-17.66,7.22L844.29,552.83l-26.47,130-17.65-3.21c-11.32-112.05-20.56-226.34-9.23-280.4l65.39-2.8L886,491.06l14.44,64.18Z"/><path class="cls-11" d="M813,728.93h0a12.61,12.61,0,0,1-7.85-.83l-8.58-3.86c-7.19-.37-12.09,1.06-16.1-4.17a10.48,10.48,0,0,1-1.22-10.58h0a10.56,10.56,0,0,1,8.63-6.28l11.78-7.42.62,5.56c5.39,3,11.78,1.74,18.55-1.23l3.7,12.94a12.68,12.68,0,0,1-8.7,15.67Z"/><path class="cls-11" d="M959.69,702.38h0a12.7,12.7,0,0,1-7.7,1.76l-9.37-.86c-6.92,2-11.09,4.93-16.58,1.29a10.5,10.5,0,0,1-4.59-9.61h0a10.58,10.58,0,0,1,6.12-8.75l8.74-10.85,2.39,5.07c6.08,1.14,11.7-2.19,17.14-7.2l7.71,11a12.67,12.67,0,0,1-3.15,17.64C960.17,702.08,959.93,702.23,959.69,702.38Z"/><circle class="cls-9" cx="832.26" cy="253.58" r="28.88"/><polygon class="cls-9" points="867.56 314.55 829.85 306.53 825.04 275.24 851.51 269.63 867.56 314.55"/><path class="cls-12" d="M857.13,400.4H789.74l15.19-38.14c-1.1-13.12,4.46-22.77,12.42-31.18l10.1-25.35c16.31-10.74,28.62-9.94,41.72,4C884.7,331.73,874,364.79,857.13,400.4Z"/><path class="cls-9" d="M826.64,481.43l-1.91,21.08c-.69,7.53-4.64,12.72-12,11h0a12.47,12.47,0,0,1-8.83-16.75l6.7-17,19.25-78.62-3.21-57h32.1l-4,61Z"/><path class="cls-13" d="M861.14,345.84h-36.9l2.58-24.07a16.71,16.71,0,0,1,15.86-16h0a16.7,16.7,0,0,1,17.51,15.84c0,.06,0,.12,0,.18Z"/><circle class="cls-14" cx="868.01" cy="213.03" r="10.86"/><path class="cls-15" d="M856.82,210.37a10.85,10.85,0,0,1,10.85-10.15l-.67-.08a10.86,10.86,0,0,0-1.4,21.67c.23,0,.46,0,.68,0A10.85,10.85,0,0,1,856.82,210.37Z"/><path class="cls-16" d="M856.76,215c-9.68-8-37.45,2.18-39.25,7.58-13.09,1.78-23,9.42-23,23h0c7.78,3.19,16.64,2.8,26.21,0,15.25,12.44,16.3,28.07,7,46l11.41.22,14.15-20.67.68,21,26.16-.52V261.54a62.82,62.82,0,0,0-6.71-28.79C869.35,224.83,863,220.2,856.76,215Z"/><ellipse class="cls-9" cx="832.4" cy="260.84" rx="5.19" ry="7.27"/><path class="cls-17" d="M179.19,270.06s3.13-54.09,19.35-41.8-7.08,46.82-7.08,46.82Z"/><path class="cls-17" d="M118.84,430.51s36,40.45,15.87,43.24-28.09-38.12-28.09-38.12Z"/><path class="cls-6" d="M71.81,239h0a23.73,23.73,0,0,1,17.46,19.65l11.47,81.59,16.07,65.09s8,7.23,4.82,11.25,4,20.89,4,20.89l-20.08,6.43s-2.41-16.88-6.43-17.68c-3.53-.71-43.06-106.29-52.58-131.87-1.32-3.53-2.06-5.53-2.06-5.53S46.1,235,71.81,239Z"/><path class="cls-17" d="M75.48,664.49l12.34,21.87c9.55,20.4,1.06,24.1-22.37,14l-5.34-25.82Z"/><path class="cls-11" d="M81.7,693.55s5.86-9.53,8-7.94,10.86,8.51,10.86,8.51L111.92,705s38.45,4.06,14,17.53S88,724.87,88,724.87s-34.22,1.78-33.67-7.77,11.59-24.66,11.59-24.66S79.83,701.77,81.7,693.55Z"/><path class="cls-18" d="M20.73,417.34l11.56,140S32.68,641,45,657.17s12.72,24.29,12.72,24.29l25.45-13.11S70.08,646.5,72.78,643.16a18.67,18.67,0,0,0,3.47-7.2l-6.94-86.37L82.42,399.22Z"/><polygon class="cls-17" points="52.34 664.49 41.55 693.02 17.06 682.79 29.98 661.41 52.34 664.49"/><path class="cls-11" d="M34.33,683.41s9.19-5.74,10.33-3.44,5.74,12,5.74,12l5.17,14.35s31.56,20.09,4.59,21.24S26.3,713.26,26.3,713.26-4.12,700.06.47,692s20.66-16.37,20.66-16.37S29.17,689.73,34.33,683.41Z"/><path class="cls-19" d="M118.66,417.72l6.17,128.79S68.54,663,62.37,666a15.49,15.49,0,0,0-7.71,9.26l-33.93-8.48,15.42-24.68,33.93-82.51s5.4-2.32,6.94-10,4.63-7.71-3.08-9.25-7.71-9.26-7.71-9.26L40.78,413.87Z"/><circle class="cls-17" cx="90.9" cy="184.84" r="30.85"/><path class="cls-17" d="M63.53,186.77s-2.32,39.32-5.4,43.18S90.52,233,90.52,233s-2.32-33.16,0-36.24S63.53,186.77,63.53,186.77Z"/><path class="cls-20" d="M121,426.21s-87.14-7.71-103.33,0c0,0,6-22.11,4.42-24.42-1.12-1.69,2-64.67,1-101-.55-20.5-5.28-40.52,8.47-55.74,4.68-5.17,9.9-9.51,15.41-11.63,0,0-1.54-14.65,6.17-15.42,0,0,29.31-3.09,40.1,6.17,3.45,2.94,5.62,11.9,5.85,19.62-5.34,26.26-3.45,55.4,1.45,85.63.3,1.92.63,3.85,1,5.78C106.67,365.18,114.53,396.09,121,426.21Z"/><path class="cls-11" d="M74.79,193.93c2.61-.16,5.15.72,7.74,1.07,9.27,1.23,18.91-5.5,21-14.62a11.14,11.14,0,0,1,1.07-3.49c1.43-2.33,4.68-2.78,7.36-2.24s5.21,1.79,7.94,1.93c4.21.22,8.25-2.37,10.5-5.94a20.12,20.12,0,0,0,2.57-12.17l-2,2.12A10.29,10.29,0,0,1,130,155a6.46,6.46,0,0,0-6.12,1.56c-1.78.19-.44-3.3-1.76-4.5a3.09,3.09,0,0,0-2.16-.41c-3.78,0-6.85-2.86-9.83-5.19a41.79,41.79,0,0,0-17.65-8c-4.28-.83-8.82-1-12.88.63a27.31,27.31,0,0,0-8.69,6.16c-6.35,6.11-12,13.28-14.62,21.68a36.61,36.61,0,0,0-.17,21.17c1.06,3.59,4.27,15.89,9,16.18C71,204.61,67.44,194.36,74.79,193.93Z"/><path class="cls-21" d="M87.56,242.79l11,1.18s10.84,21,10.06,25.44-2.51,1.72,2.38,8.75S129.78,303.33,131.5,306s48.49-33,45.58-43.71c0,0,14.77,10.59,21.1,12,0,0-48.2,63.22-54.92,71.31s-12.12,6.43-21.35,1.63S66,294.59,66,294.59Z"/><path class="cls-22" d="M101.47,335.2,63.06,296.79l9.72-3.17,27.73,35.8C100.81,331.34,101.14,333.27,101.47,335.2Z"/></g></g></svg>