<svg xmlns="http://www.w3.org/2000/svg" xmlns:xlink="http://www.w3.org/1999/xlink" viewBox="0 0 942.23 551.51"><defs><style>.cls-1,.cls-3,.cls-8{opacity:0.2;}.cls-1{fill:url(#linear-gradient);}.cls-2{fill:url(#linear-gradient-2);}.cls-3{fill:url(#linear-gradient-3);}.cls-4{fill:url(#linear-gradient-4);}.cls-5{fill:url(#linear-gradient-5);}.cls-6{opacity:0.56;}.cls-7{fill:#fff;opacity:0.33;}.cls-8{fill:url(#linear-gradient-6);}.cls-9{fill:url(#linear-gradient-7);}.cls-10{fill:#493482;}.cls-11{fill:#ff3d64;}.cls-12{fill:url(#linear-gradient-8);}.cls-13{fill:#d0cde1;}.cls-14{fill:#233862;}.cls-15{fill:#ffb9b9;}.cls-16{fill:url(#linear-gradient-9);}.cls-17{fill:url(#linear-gradient-10);}.cls-18{fill:url(#linear-gradient-11);}.cls-19{fill:url(#linear-gradient-12);}.cls-20{fill:url(#linear-gradient-13);}</style><linearGradient id="linear-gradient" x1="0.5" y1="275.76" x2="942.73" y2="275.76" gradientTransform="matrix(-1, 0, 0, 1, 942.73, 0)" gradientUnits="userSpaceOnUse"><stop offset="0" stop-color="#ff736b" stop-opacity="0.5"/><stop offset="0.51" stop-color="#ff4a66"/><stop offset="0.77" stop-color="#ff3563"/><stop offset="1" stop-color="#ff2260"/></linearGradient><linearGradient id="linear-gradient-2" x1="89.61" y1="503.36" x2="82.55" y2="540.77" gradientUnits="userSpaceOnUse"><stop offset="0" stop-color="#ff736b"/><stop offset="0.51" stop-color="#ff4a66"/><stop offset="0.77" stop-color="#ff3563"/><stop offset="1" stop-color="#ff2260"/></linearGradient><linearGradient id="linear-gradient-3" x1="48.86" y1="538.24" x2="268.86" y2="538.24" gradientTransform="matrix(1, 0, 0, 1, 0, 0)" xlink:href="#linear-gradient"/><linearGradient id="linear-gradient-4" x1="837.07" y1="644.39" x2="830.01" y2="681.8" xlink:href="#linear-gradient-2"/><linearGradient id="linear-gradient-5" x1="256.09" y1="304.56" x2="799.26" y2="304.56" gradientUnits="userSpaceOnUse"><stop offset="0" stop-color="#fe3eff"/><stop offset="1" stop-color="#423eff"/></linearGradient><linearGradient id="linear-gradient-6" x1="160.36" y1="495.22" x2="893.36" y2="495.22" gradientTransform="matrix(1, 0, 0, 1, 0, 0)" xlink:href="#linear-gradient"/><linearGradient id="linear-gradient-7" x1="525.36" y1="180.8" x2="525.36" y2="382.71" xlink:href="#linear-gradient-2"/><linearGradient id="linear-gradient-8" x1="115.16" y1="472.55" x2="853.08" y2="472.55" xlink:href="#linear-gradient-5"/><linearGradient id="linear-gradient-9" x1="175.47" y1="135.74" x2="268.64" y2="257.86" gradientUnits="userSpaceOnUse"><stop offset="0" stop-color="#00f0ff"/><stop offset="1" stop-color="#553eff"/></linearGradient><linearGradient id="linear-gradient-10" x1="140.65" y1="142.88" x2="105.36" y2="253" xlink:href="#linear-gradient-9"/><linearGradient id="linear-gradient-11" x1="167.13" y1="238.54" x2="157.95" y2="469.36" xlink:href="#linear-gradient-2"/><linearGradient id="linear-gradient-12" x1="162.2" y1="144.09" x2="162.2" y2="273.99" xlink:href="#linear-gradient-9"/><linearGradient id="linear-gradient-13" x1="140.7" y1="234.9" x2="152.7" y2="234.9" xlink:href="#linear-gradient-2"/></defs><title>customer-support</title><g id="Layer_2" data-name="Layer 2"><g id="e9b383de-0ed4-41c7-955a-d31167ca9f18"><path class="cls-1" d="M888.45,551.24S995,404.8,908.11,275.78c-59.56-88.42-173-92.19-259-66.81C589,226.71,540.9,209.71,451.18,82.4,333.11-85.13-15.65,13,50.41,284.27c32,131.26-97.29,136-31.43,267.24Z"/><path class="cls-2" d="M96.46,520.33a4.74,4.74,0,0,0-2.82,1c-2.4-6.35-6.12-10.42-10.29-10.42S75.46,515,73.06,521.32a4.74,4.74,0,0,0-2.82-1c-4.74,0-8.59,8-8.59,17.91H105C105,528.35,101.2,520.33,96.46,520.33Z"/><rect class="cls-3" x="48.86" y="537.24" width="220" height="2"/><path class="cls-4" d="M878.46,478.3a4.8,4.8,0,0,0-2.82,1c-2.4-6.34-6.12-10.42-10.29-10.42s-7.89,4.08-10.29,10.42a4.8,4.8,0,0,0-2.82-1c-4.74,0-8.59,8-8.59,17.92H887C887,486.32,883.2,478.3,878.46,478.3Z"/><path class="cls-5" d="M785.09,149.12H575.6V144.8h-95v4.32H270.26a14.17,14.17,0,0,0-14.17,14.17h0V450.15a14.17,14.17,0,0,0,14.17,14.17H785.09a14.17,14.17,0,0,0,14.17-14.17h0V163.29a14.17,14.17,0,0,0-14.17-14.17Z"/><rect class="cls-6" x="275.09" y="174.16" width="505.17" height="284.98"/><circle class="cls-7" cx="527.24" cy="161.21" r="5.18"/><rect class="cls-8" x="160.36" y="494.22" width="733" height="2"/><path class="cls-9" d="M596.7,280.63V259.55a25.87,25.87,0,0,0-25.87-25.87H549.74c0-2.84-9.14-5.18-20.76-5.4V202.86a14.44,14.44,0,1,0-3.62,0v25.42c-11.62.22-20.76,2.56-20.76,5.4H479.9A25.87,25.87,0,0,0,454,259.55h0v21.08c-3,0-5.42,10.11-5.42,22.58S451,325.78,454,325.78v24.7a25.87,25.87,0,0,0,25.87,25.87h90.93a25.88,25.88,0,0,0,25.87-25.87h0v-24.7c3,0,5.41-10.11,5.41-22.57S599.69,280.63,596.7,280.63Z"/><path class="cls-10" d="M485.08,241.81h80.57a22.92,22.92,0,0,1,22.92,22.92h0V345.3a22.92,22.92,0,0,1-22.92,22.92H485.08a22.92,22.92,0,0,1-22.92-22.92h0V264.73A22.92,22.92,0,0,1,485.08,241.81Z"/><path class="cls-11" d="M496.47,301.85a16.27,16.27,0,0,1-16.25-16.25.9.9,0,0,1,1.8,0,14.45,14.45,0,0,0,28.9,0v0a.9.9,0,0,1,1.8,0A16.27,16.27,0,0,1,496.47,301.85Z"/><path class="cls-11" d="M525.36,332.55a12.65,12.65,0,0,1-12.64-12.64.91.91,0,0,1,1.81,0,10.84,10.84,0,1,0,21.67,0,.91.91,0,0,1,1.81,0h0A12.66,12.66,0,0,1,525.36,332.55Z"/><path class="cls-11" d="M554.26,301.85A16.27,16.27,0,0,1,538,285.6a.9.9,0,0,1,1.8,0,14.45,14.45,0,0,0,28.9,0v0a.9.9,0,0,1,1.8,0A16.27,16.27,0,0,1,554.26,301.85Z"/><circle class="cls-11" cx="496.47" cy="286.5" r="8.13"/><circle class="cls-11" cx="554.26" cy="286.5" r="8.13"/><ellipse class="cls-11" cx="525.36" cy="324.43" rx="7.22" ry="3.61"/><path class="cls-12" d="M813.45,454h-49.3V450.4a.7.7,0,0,0-.71-.7h-16.9a.7.7,0,0,0-.71.7h0V454H735.27V450.4a.7.7,0,0,0-.71-.7h-16.9a.7.7,0,0,0-.7.7h0V454H706.39V450.4a.7.7,0,0,0-.7-.7H688.78a.7.7,0,0,0-.7.7h0V454H677.51V450.4a.7.7,0,0,0-.7-.7h-16.9a.7.7,0,0,0-.71.7h0V454H648.64V450.4a.7.7,0,0,0-.71-.7H631a.7.7,0,0,0-.7.7h0V454H619.76V450.4a.7.7,0,0,0-.7-.7H602.15a.7.7,0,0,0-.7.7h0V454H590.88V450.4a.7.7,0,0,0-.7-.7H457.77a.7.7,0,0,0-.71.7h0V454H446.5V450.4a.7.7,0,0,0-.7-.7H428.89a.7.7,0,0,0-.7.7V454H417.62V450.4a.7.7,0,0,0-.7-.7H400a.7.7,0,0,0-.7.7h0V454H388.75V450.4a.7.7,0,0,0-.71-.7h-16.9a.7.7,0,0,0-.71.7h0V454H359.87V450.4a.7.7,0,0,0-.71-.7h-16.9a.7.7,0,0,0-.7.7h0V454H331V450.4a.7.7,0,0,0-.7-.7H313.38a.7.7,0,0,0-.7.7h0V454H302.11V450.4a.7.7,0,0,0-.7-.7h-16.9a.7.7,0,0,0-.71.7h0V454H251.4a16.9,16.9,0,0,0-16.9,16.9h0v7.64a16.91,16.91,0,0,0,16.9,16.91H813.45a16.91,16.91,0,0,0,16.9-16.91v-7.64a16.9,16.9,0,0,0-16.9-16.9Z"/><rect class="cls-11" x="352.36" y="375.22" width="337" height="2"/><path class="cls-13" d="M376.36,374.22h-83a554.63,554.63,0,0,0,0-94h83C371.79,312.41,371.53,343.79,376.36,374.22Z"/><rect class="cls-7" x="305.36" y="299.22" width="60" height="4"/><rect class="cls-7" x="305.36" y="312.22" width="60" height="4"/><rect class="cls-7" x="305.36" y="325.22" width="60" height="4"/><rect class="cls-7" x="305.36" y="338.22" width="60" height="4"/><rect class="cls-7" x="305.36" y="351.22" width="60" height="4"/><path class="cls-14" d="M155.81,60.48s-13-4.66-21.43,14S113,113.57,113,113.57l7.45,1.87s1.86-13,6.52-14.91l-1.86,16.77s55.89,19.56,81-1.86l-.93-6.53s3.72.94,3.72,6.53l2.8-2.8s-2.8-5.59-11.18-13c-5.5-4.89-7.39-14.2-8-20A24.2,24.2,0,0,0,186.9,66.4C181.33,59.94,171.18,53.08,155.81,60.48Z"/><polygon class="cls-15" points="118.2 471.4 122.2 494.4 138.2 491.4 141.2 471.4 118.2 471.4"/><path class="cls-14" d="M141.2,484.41l-22,2,1,18-1,23s-13,26,6,24,17-12,17-12l5-6-3-15Z"/><polygon class="cls-15" points="208.2 471.4 204.2 494.4 188.2 491.4 185.2 471.4 208.2 471.4"/><path class="cls-14" d="M185.2,484.41l22,2-1,18,1,23s13,26-6,24-17-12-17-12l-5-6,3-15Z"/><circle class="cls-15" cx="162.2" cy="99.41" r="23" transform="translate(45.69 249.79) rotate(-83.74)"/><path class="cls-15" d="M147.2,111.41l3,36,28-1s-8-23-3-32Z"/><path class="cls-15" d="M103.2,264.41l-1,41s-9.63,40.47,6.69,40.23,4.31-40.23,4.31-40.23l7-40Z"/><path class="cls-15" d="M254.41,221.37l28.11,29.87S316.7,275,304.39,285.68s-30.07-27.1-30.07-27.1l-31.9-25.12Z"/><path class="cls-16" d="M186.36,155.22l20.84-6.81s10,0,10,11c0,4.53,19.16,41.81,19.16,41.81s46.05,32.82,39,34c-12,2-19,23-19,23l-45-40Z"/><path class="cls-17" d="M125.2,151.41l-6.5-1.5s-8.5,3.5-10.5,14.5-28,97-15,102,32,7,32,5,8-77,8-77Z"/><path class="cls-18" d="M213.2,312.41c2.7-23.41-10-68.68-12.55-77.49H133.5l-1.3,6.5c-13,12-40,222-44,234s48,4,60,2,15-164,15-164,2,153,3,163,22,4,51-2S210.2,338.41,213.2,312.41Z"/><path class="cls-19" d="M200.2,233.41l7-85-20-9-12.48-6.19-11.52,7.19-14.08-5.92L117.2,150.41l17,81-.7,3.5h67.15Z"/><polygon class="cls-13" points="132.7 238.91 201.19 236.81 200.3 232.16 200.3 232.13 134.1 230.94 132.7 238.91"/><circle class="cls-20" cx="146.7" cy="234.9" r="6"/><path class="cls-14" d="M134.15,101.12s7.45-10.25,14-12.11,7.45-11.18,7.45-11.18,16.77,18.63,27,19.56.93-22.35.93-22.35l-18.63-4.66-17.7,1.86-14,9.32Z"/><ellipse class="cls-15" cx="139.7" cy="95.91" rx="3" ry="4.5"/></g></g></svg>