<svg xmlns="http://www.w3.org/2000/svg" xmlns:xlink="http://www.w3.org/1999/xlink" viewBox="0 0 1130 868.04"><defs><style>.cls-1,.cls-2{opacity:0.2;}.cls-1{fill:url(#linear-gradient);}.cls-2{fill:url(#linear-gradient-2);}.cls-11,.cls-12,.cls-3{fill:#f53065;}.cls-23,.cls-3,.cls-5{opacity:0.1;}.cls-12,.cls-13,.cls-20,.cls-3,.cls-32,.cls-5{isolation:isolate;}.cls-4{fill:#c8cad7;}.cls-6{fill:url(#linear-gradient-3);}.cls-7,.cls-8,.cls-9{fill:#fff;}.cls-7{opacity:0.94;}.cls-8{opacity:0.36;}.cls-10{fill:#ededf4;}.cls-12,.cls-13,.cls-24{opacity:0.5;}.cls-13,.cls-25{fill:#dce0ed;}.cls-14{opacity:0.63;fill:url(#linear-gradient-4);}.cls-15{fill:url(#linear-gradient-5);}.cls-16{fill:url(#linear-gradient-6);}.cls-17{fill:#233862;}.cls-18{fill:#fbbebe;}.cls-19{fill:url(#linear-gradient-7);}.cls-20{opacity:0.05;}.cls-21{fill:url(#linear-gradient-8);}.cls-22{fill:url(#linear-gradient-9);}.cls-26{fill:url(#linear-gradient-10);}.cls-27{fill:url(#linear-gradient-11);}.cls-28{fill:url(#linear-gradient-12);}.cls-29{fill:#ffd037;}.cls-30{fill:url(#linear-gradient-13);}.cls-31{fill:#a8a8a8;}.cls-32{opacity:0.2;}.cls-33{fill:url(#linear-gradient-14);}.cls-34{fill:url(#linear-gradient-15);}.cls-35{fill:url(#linear-gradient-16);}</style><linearGradient id="linear-gradient" x1="89.52" y1="102.51" x2="1108.14" y2="102.51" gradientUnits="userSpaceOnUse"><stop offset="0" stop-color="#ff736b" stop-opacity="0.5"/><stop offset="0.51" stop-color="#ff4a66"/><stop offset="0.77" stop-color="#ff3563"/><stop offset="1" stop-color="#ff2260"/></linearGradient><linearGradient id="linear-gradient-2" x1="0" y1="423.13" x2="1130" y2="423.13" xlink:href="#linear-gradient"/><linearGradient id="linear-gradient-3" x1="555.84" y1="90.95" x2="555.84" y2="856" gradientUnits="userSpaceOnUse"><stop offset="0" stop-color="#fe3eff"/><stop offset="1" stop-color="#423eff"/></linearGradient><linearGradient id="linear-gradient-4" x1="430.94" y1="320.76" x2="880.51" y2="320.76" xlink:href="#linear-gradient"/><linearGradient id="linear-gradient-5" x1="340.51" y1="-4.71" x2="340.51" y2="417.55" gradientTransform="matrix(1, 0, 0, -1, -35, 853.95)" gradientUnits="userSpaceOnUse"><stop offset="0" stop-color="gray" stop-opacity="0.25"/><stop offset="0.54" stop-color="gray" stop-opacity="0.12"/><stop offset="1" stop-color="gray" stop-opacity="0.1"/></linearGradient><linearGradient id="linear-gradient-6" x1="320.74" y1="841.35" x2="306.62" y2="598.52" gradientUnits="userSpaceOnUse"><stop offset="0" stop-color="#00f0ff"/><stop offset="1" stop-color="#553eff"/></linearGradient><linearGradient id="linear-gradient-7" x1="327.94" y1="514.16" x2="309.58" y2="652.51" gradientUnits="userSpaceOnUse"><stop offset="0" stop-color="#ff736b"/><stop offset="1" stop-color="#ff2260"/></linearGradient><linearGradient id="linear-gradient-8" x1="357.01" y1="518.02" x2="338.66" y2="656.37" xlink:href="#linear-gradient-7"/><linearGradient id="linear-gradient-9" x1="305.9" y1="511.24" x2="287.55" y2="649.59" xlink:href="#linear-gradient-7"/><linearGradient id="linear-gradient-10" x1="853.58" y1="850" x2="934" y2="850" xlink:href="#linear-gradient-7"/><linearGradient id="linear-gradient-11" x1="873.22" y1="832.75" x2="914.37" y2="832.75" xlink:href="#linear-gradient-7"/><linearGradient id="linear-gradient-12" x1="101.33" y1="813.58" x2="128.79" y2="813.58" xlink:href="#linear-gradient-7"/><linearGradient id="linear-gradient-13" x1="75.07" y1="813.59" x2="102.24" y2="813.59" xlink:href="#linear-gradient-7"/><linearGradient id="linear-gradient-14" x1="457.2" y1="551.1" x2="503.87" y2="551.1" xlink:href="#linear-gradient-7"/><linearGradient id="linear-gradient-15" x1="761.54" y1="565.72" x2="854.26" y2="565.72" xlink:href="#linear-gradient-7"/><linearGradient id="linear-gradient-16" x1="639.59" y1="516.6" x2="673.35" y2="516.6" xlink:href="#linear-gradient-7"/></defs><title>dashboard</title><g id="Layer_2" data-name="Layer 2"><g id="cb7db7bb-371f-430c-ab8e-9f8547f8cfe6"><path class="cls-1" d="M1108.14,197.61a231.26,231.26,0,0,0-44.83-60.38l-621.86-5.18,512-60.79A337.27,337.27,0,0,0,849.57,53.84C800.28,20.19,736.93,0,667.83,0c-62,0-119.33,16.29-166.07,43.93-39.72-17.3-85-27.11-133.11-27.11-138.17,0-253.3,80.9-279.13,188.19Z"/><path class="cls-2" d="M1130,287.59a196.9,196.9,0,0,0-19.38-84.92L32.86,298.31A209.63,209.63,0,0,0,7.61,352.22l333.75,42.06L0,424.94C10.27,546.4,133.43,642.3,283.88,642.3c75.73,0,144.54-24.3,195.53-63.93,51.15,40.38,120.62,65.21,197.17,65.21,113.57,0,211.6-54.67,257.25-133.71,91.58-24.58,162.72-86.28,187.07-163.47L698.83,291.06H1130Z"/><ellipse class="cls-3" cx="499.98" cy="855.1" rx="289.98" ry="12.94"/><path class="cls-4" d="M672.09,832.34v7.82H440.84v-6.35a76,76,0,0,0,5.23-140.37H670.52a76,76,0,0,0,1.57,138.9Z"/><path class="cls-5" d="M670.52,693.44a76.1,76.1,0,0,0-42,50.39H488.08a76.1,76.1,0,0,0-42-50.39Z"/><path class="cls-4" d="M176,653.6v43.9c0,24.24,17.74,43.89,39.63,43.89H896.05c21.89,0,39.63-19.65,39.63-43.89V653.6Z"/><path class="cls-5" d="M672.09,832.34v7.82H440.84v-6.35a75.8,75.8,0,0,0,17.83-9.5H657.91A76.54,76.54,0,0,0,672.09,832.34Z"/><rect class="cls-4" x="364.42" y="826.75" width="384.09" height="23.17" rx="9.5"/><path class="cls-6" d="M935.68,172.57A39.61,39.61,0,0,0,896.05,133H215.66A39.62,39.62,0,0,0,176,172.57V662.14H935.68Z"/><path class="cls-7" d="M915,190.25V610.92a19.5,19.5,0,0,1-19.49,19.51H216.27a19.5,19.5,0,0,1-19.51-19.49V190.25a19.5,19.5,0,0,1,19.51-19.51H895.44A19.5,19.5,0,0,1,915,190.2Z"/><circle class="cls-8" cx="555.85" cy="151.84" r="9.15"/><circle class="cls-8" cx="555.85" cy="699.33" r="22.56"/><path class="cls-9" d="M348.53,180.5V630.43H216.27a19.5,19.5,0,0,1-19.51-19.49V190.25l.71-2.65,1.9-7.1Z"/><polygon class="cls-4" points="348.94 194.61 348.94 228.1 196.76 228.1 196.76 196.81 197.4 194.61 348.94 194.61"/><path class="cls-4" d="M915,190.25H196.76a19.5,19.5,0,0,1,19.5-19.5H895.44A19.5,19.5,0,0,1,915,190.19Z"/><circle class="cls-10" cx="216.27" cy="180.5" r="4.88"/><circle class="cls-10" cx="230.9" cy="180.5" r="4.88"/><circle class="cls-10" cx="245.53" cy="180.5" r="4.88"/><rect class="cls-11" x="221.98" y="205.43" width="101.33" height="9.33"/><rect class="cls-12" x="221.98" y="250.93" width="101.33" height="9.33"/><rect class="cls-12" x="221.98" y="283.1" width="101.33" height="9.33"/><rect class="cls-12" x="221.98" y="315.27" width="101.33" height="9.33"/><rect class="cls-12" x="221.98" y="347.43" width="101.33" height="9.33"/><rect class="cls-12" x="221.98" y="379.6" width="101.33" height="9.33"/><rect class="cls-12" x="221.98" y="411.77" width="101.33" height="9.33"/><rect class="cls-12" x="221.98" y="443.93" width="101.33" height="9.33"/><rect class="cls-13" x="431.49" y="239.74" width="449.01" height="1.5"/><rect class="cls-13" x="431.49" y="274.57" width="449.01" height="1.5"/><rect class="cls-13" x="431.49" y="309.41" width="449.01" height="1.5"/><rect class="cls-13" x="431.49" y="344.24" width="449.01" height="1.5"/><rect class="cls-13" x="431.49" y="379.07" width="449.01" height="1.5"/><polygon class="cls-14" points="880.51 380.56 430.94 380.56 430.94 312.06 472.17 332.38 514.84 338.16 552.28 326.87 597.45 291.84 620.17 278.72 636.78 275.52 652.67 276.37 678.81 289.28 714.33 311.91 742.21 315.5 764.32 307.88 811.17 269.5 835.09 260.97 860.12 264.84 880.51 276.61 880.51 380.56"/><path class="cls-11" d="M509.3,338.18c-40.48,0-77.9-24.76-78.36-25.08l1.11-1.66c.58.39,58.16,38.49,107.09,19.4C557,323.89,569.68,313.06,582,302.6c12.83-10.93,25-21.26,41.46-25.74,19-5.13,39.65-.48,55.38,12.44,13.44,11.05,40.22,28.8,68.51,23.49,14.42-2.7,26.58-13.24,39.45-24.39,24.64-21.4,50.2-43.49,94.29-11.77l-1.17,1.62c-42.85-30.79-67.76-9.21-91.84,11.66-13.08,11.34-25.44,22-40.39,24.85-29.1,5.45-56.44-12.64-70.15-23.91-15.23-12.52-35.26-17-53.58-12.05-16.09,4.36-28,14.54-40.69,25.32-12.41,10.57-25.25,21.51-43.4,28.59A83.79,83.79,0,0,1,509.3,338.18Z"/><circle class="cls-11" cx="647.55" cy="275.32" r="11.13"/><path class="cls-15" d="M368.62,517.19c-15.21-8.76-21-10.93-21-10.94l-.31-.22a12.64,12.64,0,0,1-3.84-4.85v-.9c.25-4.64,3.54-8.85,6.67-12.53q4-4.71,8-9.41A9.17,9.17,0,0,0,360.2,475a7.49,7.49,0,0,0,.22-2v-.82c0-2.34-.11-4.68-.19-7-.08-2.05-.6-4.62-2.65-5-1.06-.22-2.46.16-3-.75a1.64,1.64,0,0,1-.14-1.21v0a28,28,0,0,0,.76-4.81,6.9,6.9,0,0,0-.33-2.43c-1.19-3.39-5.26-4.78-8.86-5.42s-7.64-1.19-9.9-4a33.2,33.2,0,0,0-2-2.71,7.92,7.92,0,0,0-3.69-1.82A20.73,20.73,0,0,0,317,438.18c-1.74.78-3.49,1.82-5.4,1.71s-3.68-1.5-5.64-1.83c-3.16-.54-6.19,1.79-7.75,4.54a10.9,10.9,0,0,0-1.43,5.35v.31h0a7.86,7.86,0,0,0,2.06,5.46c1.36,1.42,3.39,2.39,4,4.25.23.76.18,1.58.38,2.34a1.08,1.08,0,0,0,.09.29l-.11.13a23.75,23.75,0,0,0-5,14.62,24.26,24.26,0,0,0,17,23v.72a10.33,10.33,0,0,1-3.3,8.05l-21.58,8.66s-13-1.54-17.68,17.45a32.16,32.16,0,0,0-.8,9.63c.17,2.87-.23,7.91-3.56,14.43-5.33,10.44-4.12,34.39,6.78,36.76,10.29,2.24,14.32,1.31,14.74,1.2v.42c-.17,4.5-1.8,43.26-7.73,48-1.65,1.29-1.34,2.17,0,2.76v.7c-.18,2.84-1.1,13.63-5.07,19.78C272.48,674,273,715,273,715l-3.14,24.19s1.93,14.94,0,17.55c-1.73,2.33-4,57.61-4.52,69.59h-.2a5.84,5.84,0,0,0-4.66,2.84C257.9,833.31,249,840.94,249,840.94c-1.93,2.75-9.09,5.38-12.87,6.62a7.85,7.85,0,0,0-1.46.63,7.68,7.68,0,0,0-3.25,3.42,3.64,3.64,0,0,0-.34,2.85c1,2.37,21.07,4,26.15,1.66,4-1.86,19.84-4.32,26.42-5.28a5.41,5.41,0,0,0,4.7-4.7,3.1,3.1,0,0,0-.6-2.35h0c-1.26-1.56-1.91-5.82-2.2-8.6a6.16,6.16,0,0,0,1.48-.88,63.16,63.16,0,0,1,3.63-25.38c4.84-12.8,6.3-36.52,5.09-51.94,0,0,14.77-63.57,26.4-69.5h0c.18.22,5.82,7.46,6.54,29.88.72,22.77,8.95,37.71,8.95,37.71s-3.63,38.66,0,53.13L332.87,831a7,7,0,0,1-.57-.52s.14.64.34,1.65l-.1.48.2,0c.54,2.85,1.34,7.82,1,10.74-.19,1.67-.65,3.94-1,6.18-.5,3.51-.64,6.92,1.21,7.66,3,1.22,20.83,2.89,23.86-1a5.59,5.59,0,0,0,.88-5.86,6,6,0,0,0-.88-1.49s-4.73-7.73-3.39-13.18a4,4,0,0,0-.57-3.12A160.39,160.39,0,0,1,358,807c3-11.41,9.42-36.43,4.72-52.89h0c-.18-.64-.38-1.28-.6-1.9a70.94,70.94,0,0,1-2.67-27.75,56.39,56.39,0,0,1,0-24.19C362.33,687,364.36,674,364.36,674s1.6-17.55.2-28.31l-.09-.69.76-.17s-4.11-18.26-5.57-29.88c-.34-2.75-.79-6.22-1.28-9.93a25.68,25.68,0,0,0,3.95-1c13.08-4.51,17.19-45.31,17.19-45.31V545.77S383.88,526,368.62,517.19Zm-97.43,315-.64-.34h0Z"/><path class="cls-16" d="M360.73,752.6c5.67,16.31-1,42.78-4,54.6a165.51,165.51,0,0,0-4,26,55.14,55.14,0,0,1-20.8-.48l5-24.34c-3.54-14.42,0-53,0-53s-8-14.9-8.74-37.59c-.7-22.33-6.2-29.55-6.38-29.78h0C310.38,694,296,757.33,296,757.33c1.18,15.36-.24,39-5,51.77a64,64,0,0,0-3.55,25.29c-1.65,1.39-3.95,1.63-6.43,1.23-6.75-1.09-14.84-6.91-14.84-6.91s2.6-69,4.49-71.62,0-17.49,0-17.49l3.07-24.11s-.47-40.89,4-48c3.88-6.13,4.77-16.89,4.95-19.71v-.7l6.84-8.19s66.19-5,71.15,0c1.22,1.22,2,4,2.42,7.48,1.36,10.72-.2,28.21-.2,28.21s-2,13-4.82,26.23a57.3,57.3,0,0,0,0,24.11A72.15,72.15,0,0,0,360.73,752.6Z"/><path class="cls-17" d="M356.59,856.25c-2.95,3.9-20.32,2.25-23.28,1-1.81-.75-1.67-4.14-1.18-7.64.31-2.23.76-4.5.94-6.15.48-4.26-1.41-12.89-1.41-12.89s3.9,4.14,4.84,0a4.49,4.49,0,0,1,3.37-3.2,8.84,8.84,0,0,1,6.14.38c3.07,1.33,8.19,4.17,7.27,8-1.3,5.43,3.31,13.13,3.31,13.13a5.94,5.94,0,0,1,0,7.37Z"/><path class="cls-5" d="M356.59,856.25c-2.95,3.9-20.32,2.25-23.28,1-1.81-.75-1.67-4.14-1.18-7.64,1.86.87,5,1.6,10.32,1.11a28.9,28.9,0,0,1,3.72-.12,84.93,84.93,0,0,0,11.28-.22A5.67,5.67,0,0,1,356.59,856.25Z"/><path class="cls-5" d="M296,757.33c1.18,15.36-.24,39-5,51.77a64,64,0,0,0-3.55,25.29c-1.65,1.39-3.95,1.63-6.43,1.23,1.43-10,7.5-52.93,11.4-86.86,4.43-38.65,25.17-65.24,25.17-65.24l4.14,4.55C310.38,694,296,757.33,296,757.33Z"/><path class="cls-18" d="M349.5,508.9l-2.89,14.18-14.13,23.76-17.43-7.45s-23.7-24.82-8.81-28.36a13.14,13.14,0,0,0,4.95-2.2c2.92-2.21,3.84-5.41,3.86-8.55a26.29,26.29,0,0,0-2.42-10.17l30.49-9.57a48.46,48.46,0,0,0-2.19,12.35c-.23,8.3,2.85,12.4,5.38,14.35A9,9,0,0,0,349.5,508.9Z"/><path class="cls-5" d="M343.12,480.54a48.46,48.46,0,0,0-2.19,12.35,24.1,24.1,0,0,1-25.88,7.39,26.29,26.29,0,0,0-2.42-10.17Z"/><path class="cls-18" d="M346.61,476.64a24.11,24.11,0,1,1-24.11-24.11h0a24.05,24.05,0,0,1,24.11,24Z"/><path class="cls-5" d="M349.5,508.9l-2.89,14.18-14.13,23.76-17.43-7.45s-23.7-24.82-8.81-28.36a13.14,13.14,0,0,0,4.95-2.2c-2.69,7.39,8.41,22.76,8.41,22.76,1.29,1.9,4.26.71,4.26.71,7.14-1.08,20.31-21.64,22.45-25.06A9,9,0,0,0,349.5,508.9Z"/><path class="cls-5" d="M363.15,646.39c-4.2,1-27.42,6.09-36.22,4.81-9.69-1.42-28.54-2.36-28.54-2.36s-12,.64-15.68-1v-.7l6.84-8.19s66.19-5,71.15,0C362,640.13,362.7,642.9,363.15,646.39Z"/><path class="cls-19" d="M319.6,532.3s-12.47-17.27-7.77-24l-21.07,8.64s-12.68-1.54-17.25,17.38a33.06,33.06,0,0,0-.79,9.61c.17,2.85-.22,7.87-3.47,14.37-5.2,10.4-4,34.28,6.62,36.64s14.42,1.18,14.42,1.18-1.42,43.26-7.56,48.22,15.67,3.78,15.67,3.78,18.84,1,28.53,2.37,36.87-5,36.87-5-4-18.2-5.44-29.78-4.72-36.24-4.72-36.24l24.11-32.66s4.25-19.74-10.64-28.48-20.5-10.9-20.5-10.9-15,24.37-22.76,25.55C323.85,533,320.89,534.2,319.6,532.3Z"/><path class="cls-5" d="M291.94,539.16s-.23,7.8,1.19,10.87,6.61,20.09,6.61,20.09H287.93s6.38-6.85,5.91-10.16S291.94,539.16,291.94,539.16Z"/><path class="cls-18" d="M326.93,598s-26.1-6.38-28.53-11.81-9.14-17.61-9.14-17.61l2.75-3.71,12.7,10s15.13,12,22.22,13.24S326.93,598,326.93,598Z"/><path class="cls-20" d="M326.93,598s-26.1-6.38-28.53-11.81-9.14-17.61-9.14-17.61l2.75-3.71,12.7,10s15.13,12,22.22,13.24S326.93,598,326.93,598Z"/><path class="cls-18" d="M349.5,567.29v14.16h-2.28a66.18,66.18,0,0,0-32.14,8.32l-4.26,2.36-1.15.64-7.33-16.5,6.86-6.15h.35c1.68.16,8.93.76,12-.27s6.55-4.14,15.14-1.94c4.24,1.08,7.85,5.83,12,4.35Z"/><path class="cls-5" d="M372.31,541.52l4.73,5.32v12.88s-4,40.66-16.78,45.15-35.55-2.6-35.55-2.6-5.89-15.6-3.14-16.55,24.34-6.64,24.34-6.64-.31-23.85,4.42-30.94c0,0-3.07-22.22,7.56-22.69S372.31,541.52,372.31,541.52Z"/><path class="cls-21" d="M373,541.52l4.73,5.32v12.88s-4,40.66-16.79,45.15-35.54-2.6-35.54-2.6-5.89-15.6-3.14-16.55,24.33-6.64,24.33-6.64-.3-23.85,4.43-30.94c0,0-3.08-22.22,7.56-22.69S373,541.52,373,541.52Z"/><path class="cls-5" d="M340,486.88a9.37,9.37,0,0,0-.54-4.6,3.52,3.52,0,0,0-3.74-2.16c-2,.47-2.9,3.1-4.88,3.73-1.67.53-3.5-.65-4.3-2.21a11.32,11.32,0,0,1-.82-5.14v-5.93c0-2.15-.07-4.47-1.4-6.16-1.65-2.1-5.52-3-8.1-2.93a6.88,6.88,0,0,0-4.63,1.86,6,6,0,0,1-4.87,1.74,4.22,4.22,0,0,1-3.39-2.94v-.08a24.11,24.11,0,0,1,38.46,29.09,24.78,24.78,0,0,1-2.6,2.91A66.54,66.54,0,0,0,340,486.88Z"/><path class="cls-17" d="M306.71,464.37a4.25,4.25,0,0,1-3.4-2.94c-.19-.76-.14-1.58-.37-2.33-.55-1.86-2.53-2.83-3.86-4.24-2.66-2.82-2.49-7.47-.61-10.87,1.53-2.74,4.48-5.05,7.57-4.52,1.91.34,3.56,1.7,5.5,1.82s3.57-.92,5.27-1.7a19.84,19.84,0,0,1,13.06-1.16,7.56,7.56,0,0,1,3.6,1.81,30,30,0,0,1,1.92,2.7c2.2,2.81,6.15,3.36,9.66,4s7.49,2,8.64,5.41c.77,2.24,0,4.67-.41,7a2,2,0,0,0,.09,1.45c.55.91,1.92.53,3,.74,2,.42,2.5,3,2.57,5,.09,2.32.16,4.65.19,7a9,9,0,0,1-.2,2.59,9.12,9.12,0,0,1-2,3.25l-7.81,9.38c-3.46,4.16-7.13,9-6.44,14.37-1.64.73-3.58-.68-4.12-2.4s-.11-3.56.26-5.32a65.17,65.17,0,0,0,1.23-9.23,9.29,9.29,0,0,0-.54-4.61,3.53,3.53,0,0,0-3.75-2.16c-2,.47-2.89,3.1-4.87,3.73-1.67.54-3.5-.65-4.3-2.21a11.45,11.45,0,0,1-.82-5.14v-5.93c0-2.15-.07-4.47-1.4-6.16-1.64-2.1-5.52-3-8.1-2.93a6.88,6.88,0,0,0-4.63,1.86A6,6,0,0,1,306.71,464.37Z"/><path class="cls-5" d="M312.15,538.57l7.41,30.4S325.39,568.94,312.15,538.57Z"/><path class="cls-5" d="M337.45,533.48s-9.7,15.88-5.91,32.29l1.8.13S330.12,558.3,337.45,533.48Z"/><path class="cls-5" d="M343.59,623.31s11.9-3.94,12.77,5.2C356.36,628.51,354.11,622.24,343.59,623.31Z"/><path class="cls-5" d="M309.2,570.83s-2.36,16.55,1.89,23.17a52,52,0,0,1-20.8,2.83l-1.42-26Z"/><path class="cls-5" d="M310.82,592.13l-1.15.64-7.33-16.5,6.86-6.15h.35C309.44,570.92,307.53,585.13,310.82,592.13Z"/><path class="cls-22" d="M309.2,570.12s-2.36,16.55,1.89,23.17a52,52,0,0,1-20.8,2.83l-8.27-26Z"/><path class="cls-17" d="M288.75,846.19a5.34,5.34,0,0,1-4.59,4.68c-6.41,1-21.88,3.4-25.78,5.26-5,2.37-24.58.71-25.53-1.65a3.73,3.73,0,0,1,.34-2.85,7.79,7.79,0,0,1,4.59-4c3.7-1.24,10.68-3.85,12.56-6.59,0,0,8.7-7.62,11.18-11.73a5.65,5.65,0,0,1,4.55-2.83c2.07-.1,4.37.95,5.32,5.48,0,0,11.34,6.47,14.41.8,0,0,.47,8.71,2.35,11.1h0A3.13,3.13,0,0,1,288.75,846.19Z"/><path class="cls-5" d="M288.75,846.19a5.34,5.34,0,0,1-4.59,4.68c-6.41,1-21.88,3.4-25.78,5.26-5,2.37-24.58.71-25.53-1.65a3.73,3.73,0,0,1,.34-2.85,7.51,7.51,0,0,1,3.17-3.4c3.2,2.12,10.3,4.2,25.92,1.76,14.9-2.33,22.27-4.61,25.87-6.16h0A3.11,3.11,0,0,1,288.75,846.19Z"/><g class="cls-23"><path d="M353.25,459.67v-.12a21.57,21.57,0,0,0,.73-5.36,33,33,0,0,1-.73,4.3A2.61,2.61,0,0,0,353.25,459.67Z"/><path d="M339.46,481.79a7,7,0,0,1,.58,2.7,8.07,8.07,0,0,0-.58-3.76,3.55,3.55,0,0,0-3.75-2.17c-2,.47-2.89,3.11-4.87,3.74-1.67.53-3.5-.66-4.3-2.22a11.16,11.16,0,0,1-.82-5.14V469c0-2.15-.07-4.47-1.4-6.16-1.65-2.11-5.52-3-8.11-2.94a6.85,6.85,0,0,0-4.62,1.87,6,6,0,0,1-4.87,1.73,4.19,4.19,0,0,1-3.4-2.94c-.2-.76-.14-1.57-.37-2.33-.55-1.86-2.53-2.82-3.86-4.23a7.8,7.8,0,0,1-2-5,8.09,8.09,0,0,0,2,6.06c1.33,1.41,3.31,2.38,3.86,4.24.23.75.17,1.57.37,2.33a4.25,4.25,0,0,0,3.4,2.94,6,6,0,0,0,4.87-1.74A6.94,6.94,0,0,1,316.2,461c2.59-.08,6.46.84,8.11,2.94,1.33,1.69,1.39,4,1.4,6.16V476a11.07,11.07,0,0,0,.82,5.15c.8,1.56,2.63,2.74,4.3,2.21,2-.63,2.85-3.26,4.87-3.74A3.58,3.58,0,0,1,339.46,481.79Z"/><path d="M358.89,475.28a9.24,9.24,0,0,1-2,3.26q-3.92,4.68-7.81,9.37c-3.28,3.95-6.76,8.52-6.51,13.56.24-4.62,3.46-8.82,6.51-12.49l7.81-9.38a6.83,6.83,0,0,0,2.2-5.85A6.55,6.55,0,0,1,358.89,475.28Z"/><path d="M338.51,499.89a5.48,5.48,0,0,1-.24-1.27,6.33,6.33,0,0,0,.24,2.33c.53,1.72,2.48,3.13,4.12,2.4,0-.35-.07-.7-.08-1C340.93,503,339,501.57,338.51,499.89Z"/></g><path class="cls-5" d="M260,831.42s2.47,4.34,11.43.51"/><path class="cls-5" d="M335.65,832.46s7.73,9.09,17.46,3"/><path class="cls-5" d="M358.13,724.94s-5.46,3.41-5.64,5.36,2.82-1.42,2.82-1.42Z"/><path class="cls-5" d="M360.28,751.08a11.33,11.33,0,0,1-6.72,2.62c-4.08.18-3.74,5.5-1.07,3.9S360.28,751.08,360.28,751.08Z"/><path class="cls-5" d="M361.32,754.49s-2.62,12.86-4.75,10.38"/><g class="cls-24"><rect class="cls-25" x="471.17" y="458.6" width="66" height="14"/><rect class="cls-25" x="622.72" y="458.6" width="66" height="14"/><rect class="cls-25" x="774.27" y="458.6" width="66" height="14"/></g><ellipse class="cls-3" cx="952.73" cy="801.24" rx="26.93" ry="4.55"/><ellipse class="cls-3" cx="115.22" cy="858.69" rx="26.93" ry="4.55"/><ellipse class="cls-26" cx="893.79" cy="850" rx="40.21" ry="6.8"/><path class="cls-27" d="M910.41,838.89a11.67,11.67,0,0,0,3.83-5.79c.5-2.3-.48-5.05-2.67-5.89-2.46-.94-5.09.76-7.09,2.49s-4.27,3.68-6.88,3.32a10.5,10.5,0,0,0,3.24-9.81,4,4,0,0,0-.9-2c-1.37-1.46-3.84-.84-5.48.31-5.2,3.66-6.65,10.72-6.68,17.08-.52-2.29-.08-4.68-.09-7s-.66-5-2.64-6.23a8,8,0,0,0-4-.94c-2.34-.09-4.95.14-6.54,1.85-2,2.13-1.47,5.69.25,8s4.36,3.8,6.77,5.42a15.12,15.12,0,0,1,4.84,4.61,5,5,0,0,1,.35.83h14.66A41,41,0,0,0,910.41,838.89Z"/><path class="cls-28" d="M116.45,791.19s5.5,7.19-2.53,18-14.65,20-12,26.77c0,0,12.12-20.15,22-20.43S127.3,803.31,116.45,791.19Z"/><path class="cls-5" d="M116.45,791.19a9.19,9.19,0,0,1,1.13,2.26c9.62,11.3,14.74,21.85,5.49,22.11-8.61.25-18.94,15.65-21.42,19.54a9.24,9.24,0,0,0,.29.89s12.12-20.15,22-20.43S127.3,803.31,116.45,791.19Z"/><path class="cls-29" d="M126.66,800.35c0,2.53-.28,4.58-.63,4.58s-.63-2-.63-4.58.35-1.34.7-1.34S126.66,797.82,126.66,800.35Z"/><path class="cls-29" d="M130.17,803.37c-2.22,1.21-4.16,1.94-4.32,1.63s1.49-1.54,3.71-2.75,1.35-.33,1.51,0S132.39,802.16,130.17,803.37Z"/><path class="cls-11" d="M87.44,791.19s-5.5,7.19,2.53,18,14.65,20,12,26.77c0,0-12.11-20.15-22-20.43S76.59,803.31,87.44,791.19Z"/><path class="cls-30" d="M87.44,791.19a9.19,9.19,0,0,0-1.13,2.26c-9.62,11.3-14.74,21.85-5.49,22.11,8.61.25,18.94,15.65,21.42,19.54a7.16,7.16,0,0,1-.3.89s-12.11-20.15-22-20.43S76.59,803.31,87.44,791.19Z"/><path class="cls-29" d="M77.22,800.35c0,2.53.29,4.58.64,4.58s.63-2,.63-4.58-.35-1.34-.7-1.34S77.22,797.82,77.22,800.35Z"/><path class="cls-29" d="M73.72,803.37c2.22,1.21,4.15,1.94,4.32,1.63s-1.49-1.54-3.71-2.75-1.35-.33-1.52,0S71.5,802.16,73.72,803.37Z"/><path class="cls-31" d="M79,835.05s15.36-.48,20-3.77,23.63-7.24,24.78-1.95,23.08,26.29,5.74,26.43-40.29-2.7-44.91-5.51S79,835.05,79,835.05Z"/><path class="cls-32" d="M129.79,853.92c-17.34.14-40.3-2.7-44.92-5.51-3.51-2.15-4.92-9.84-5.38-13.38H79s1,12.38,5.6,15.2,27.57,5.65,44.91,5.51c5,0,6.73-1.82,6.64-4.46C135.42,852.9,133.51,853.89,129.79,853.92Z"/><path class="cls-33" d="M466.5,556.37c0-20.44,16.63-36.14,37.08-36.14h.29v-9.3h-.29c-25.58,0-46.38,19.87-46.38,45.44a46.26,46.26,0,0,0,15.89,34.9l6.59-6.59A37,37,0,0,1,466.5,556.37Z"/><path class="cls-12" d="M504.8,510.94v9.3a37.07,37.07,0,1,1-24.19,65.37L474,592.2a46.36,46.36,0,1,0,30.78-81.26Z"/><path class="cls-12" d="M808.8,519.76c20.44,0,36.14,16.63,36.14,37.08v.29h9.3v-.29c0-25.57-19.87-46.38-45.44-46.38a46.26,46.26,0,0,0-34.9,15.89l6.59,6.59A37,37,0,0,1,808.8,519.76Z"/><path class="cls-34" d="M854.23,558.06h-9.3a37.07,37.07,0,1,1-65.37-24.19L773,527.28a46.36,46.36,0,1,0,81.26,30.78Z"/><path class="cls-12" d="M674,513.66l-1.85,9.26c13.61,5.49,22.31,18.83,22.31,34.38a37.07,37.07,0,1,1-51.93-33.95L638.41,515a46.36,46.36,0,1,0,65.39,42.3C703.8,537.23,691.92,520.11,674,513.66Z"/><path class="cls-35" d="M658.59,519.69a32.39,32.39,0,0,1,12.91,2.68l1.85-9.25a40.91,40.91,0,0,0-14.76-2.73,46.11,46.11,0,0,0-19,4.09l4.16,8.33A36.82,36.82,0,0,1,658.59,519.69Z"/></g></g></svg>