<svg xmlns="http://www.w3.org/2000/svg" xmlns:xlink="http://www.w3.org/1999/xlink" viewBox="0 0 1061 551.51"><defs><style>.cls-1{opacity:0.2;fill:url(#linear-gradient);}.cls-2{fill:url(#linear-gradient-2);}.cls-3{opacity:0.5;}.cls-11,.cls-3{isolation:isolate;}.cls-4{fill:#fff;opacity:0.75;}.cls-5{fill:url(#linear-gradient-3);}.cls-6{fill:#233862;}.cls-7{fill:#ffb9b9;}.cls-8{fill:url(#linear-gradient-4);}.cls-9{fill:url(#linear-gradient-5);}.cls-10{fill:url(#linear-gradient-6);}.cls-11{opacity:0.15;}.cls-12{fill:#3f3d56;}.cls-13{fill:url(#linear-gradient-7);}.cls-14{fill:url(#linear-gradient-8);}.cls-15{fill:url(#linear-gradient-9);}.cls-16{fill:url(#linear-gradient-10);}.cls-17{fill:url(#linear-gradient-11);}</style><linearGradient id="linear-gradient" x1="30.4" y1="275.76" x2="972.63" y2="275.76" gradientTransform="matrix(-1, 0, 0, 1, 1061, 0)" gradientUnits="userSpaceOnUse"><stop offset="0" stop-color="#ff736b" stop-opacity="0.5"/><stop offset="0.51" stop-color="#ff4a66"/><stop offset="0.77" stop-color="#ff3563"/><stop offset="1" stop-color="#ff2260"/></linearGradient><linearGradient id="linear-gradient-2" x1="48.65" y1="313.39" x2="1031.53" y2="313.39" gradientUnits="userSpaceOnUse"><stop offset="0" stop-color="#fe3eff"/><stop offset="1" stop-color="#423eff"/></linearGradient><linearGradient id="linear-gradient-3" x1="921.12" y1="522.03" x2="89.59" y2="522.03" xlink:href="#linear-gradient-2"/><linearGradient id="linear-gradient-4" x1="535.08" y1="257.85" x2="511.08" y2="441.38" gradientUnits="userSpaceOnUse"><stop offset="0" stop-color="#ff736b"/><stop offset="1" stop-color="#ff2260"/></linearGradient><linearGradient id="linear-gradient-5" x1="430.6" y1="244.19" x2="406.6" y2="427.72" xlink:href="#linear-gradient-4"/><linearGradient id="linear-gradient-6" x1="585.91" y1="264.5" x2="561.91" y2="448.03" xlink:href="#linear-gradient-4"/><linearGradient id="linear-gradient-7" x1="947.05" y1="467.8" x2="947.05" y2="510.15" xlink:href="#linear-gradient-4"/><linearGradient id="linear-gradient-8" x1="993.05" y1="467.8" x2="993.05" y2="510.15" xlink:href="#linear-gradient-4"/><linearGradient id="linear-gradient-9" x1="971.01" y1="452.27" x2="971.01" y2="548.44" xlink:href="#linear-gradient-2"/><linearGradient id="linear-gradient-10" x1="24.02" y1="489.82" x2="76.08" y2="489.82" xlink:href="#linear-gradient-4"/><linearGradient id="linear-gradient-11" x1="65.01" y1="452.27" x2="65.01" y2="548.44" xlink:href="#linear-gradient-2"/></defs><title>dynamic attandance</title><g id="Layer_2" data-name="Layer 2"><g id="b665ac0c-e2fc-4bb5-9b25-39c3bd142587"><path class="cls-1" d="M976.82,551.24s106.57-146.44,19.66-275.46c-59.56-88.42-173-92.19-259-66.81-60.08,17.74-108.21.74-197.93-126.57C421.48-85.13,72.72,13,138.78,284.27c32,131.26-97.3,136-31.43,267.24Z"/><path class="cls-2" d="M828.79,120.35H568.62V115h-118v5.36H189.41a17.6,17.6,0,0,0-17.6,17.6h0V494.2a17.6,17.6,0,0,0,17.6,17.6H828.79a17.6,17.6,0,0,0,17.6-17.6V138a17.6,17.6,0,0,0-17.6-17.6Z"/><rect class="cls-3" x="195.41" y="151.45" width="627.39" height="353.91"/><circle class="cls-4" cx="508.57" cy="135.36" r="6.43"/><path class="cls-5" d="M864,498.93H802.78v-4.41a.87.87,0,0,0-.88-.88h-21a.87.87,0,0,0-.87.88h0v4.41H766.91v-4.41a.87.87,0,0,0-.87-.88h-21a.87.87,0,0,0-.88.88h0v4.41H731.05v-4.41a.87.87,0,0,0-.87-.88h-21a.87.87,0,0,0-.87.88h0v4.41H695.19v-4.41a.87.87,0,0,0-.88-.88h-21a.87.87,0,0,0-.87.88h0v4.41H659.33v-4.41a.88.88,0,0,0-.88-.88h-21a.88.88,0,0,0-.88.88h0v4.41H623.46v-4.41a.87.87,0,0,0-.87-.88h-21a.87.87,0,0,0-.88.88h0v4.41H587.6v-4.41a.87.87,0,0,0-.87-.88H422.28a.87.87,0,0,0-.87.88h0v4.41H408.29v-4.41a.88.88,0,0,0-.88-.88h-21a.88.88,0,0,0-.88.88h0v4.41H372.42v-4.41a.87.87,0,0,0-.87-.88h-21a.87.87,0,0,0-.88.88h0v4.41H336.56v-4.41a.87.87,0,0,0-.87-.88h-21a.87.87,0,0,0-.87.88h0v4.41H300.7v-4.41a.87.87,0,0,0-.88-.88h-21a.87.87,0,0,0-.87.88h0v4.41H264.83v-4.41a.87.87,0,0,0-.87-.88H243a.87.87,0,0,0-.88.88h0v4.41H229v-4.41a.87.87,0,0,0-.87-.88h-21a.87.87,0,0,0-.87.88h0v4.41H166a21,21,0,0,0-21,21v9.49a21,21,0,0,0,21,21H864a21,21,0,0,0,21-21v-9.49A21,21,0,0,0,864,498.93Z"/><rect class="cls-4" x="382.21" y="191.62" width="254" height="267"/><path class="cls-6" d="M516.55,180.54s-21.66-7.74-35.58,23.2-35.58,65-35.58,65l12.37,3.09s3.1-21.66,10.83-24.75l-3.09,27.85s92.82,32.48,134.59-3.1L598.54,261s6.19,1.55,6.19,10.83l4.64-4.64s-4.64-9.28-18.56-21.66c-9.14-8.12-12.28-23.57-13.36-33.24a40.27,40.27,0,0,0-9.26-21.9C558.94,179.65,542.08,168.25,516.55,180.54Z"/><path class="cls-7" d="M396.87,209.73l-9-94s-18-51,9-47,11,43,11,43l15,98Z"/><circle class="cls-7" cx="527.87" cy="243.73" r="36"/><path class="cls-7" d="M501.87,259.73s-2,41-12,44-38,36-25,46,88,3,88,3l-7-52s-16-11-3-30Z"/><path class="cls-8" d="M576.94,460.62H435.54c.51-9.05,1.79-21.83,3.43-35.88.5-4.26,1-8.65,1.58-13.08,4.85-39.05,11.32-81.93,11.32-81.93l1.7-3.93,17.3-40.07.18.07,22.82,8.93.81,3.84,6.19,29.16,40-32.33,37-5.78,2.5-.39,4.5,42.5s-.2,9.5-.41,23c-.24,15.55-.5,36.43-.48,54.32,0,8.55.08,16.42.25,22.7.14,5.29.35,9.46.64,12C585.54,449.4,582,455.29,576.94,460.62Z"/><polygon class="cls-9" points="471.87 290.73 470.87 284.73 442.87 250.73 426.87 193.73 387.87 208.73 415.87 277.73 455.87 328.73 471.87 290.73"/><path class="cls-6" d="M480.58,248s12.37-17,23.2-20.11,12.38-18.56,12.38-18.56S544,240.3,561,241.85s1.55-37.13,1.55-37.13L531.63,197l-29.39,3.1L479,215.55Z"/><path class="cls-7" d="M580.21,426.62l-95.67,3.8s-52.72,12.07-45.67-14.3,44-6,44-6l99.07-3.73Z"/><path class="cls-10" d="M569.37,296.23l9-7s15-8,18,20,25,121,3,122-78,2-78,2l6-31,46-3Z"/><polygon class="cls-11" points="572.37 339.23 569.37 396.23 525.37 405.23 565.37 389.23 572.37 339.23"/><rect class="cls-12" y="549.51" width="1061" height="2"/><path class="cls-13" d="M958,479.65c14.37,15.43,15.12,38.1,15.12,38.1s-22.57-2.34-36.94-17.76S921,461.89,921,461.89,943.58,464.22,958,479.65Z"/><path class="cls-14" d="M1003.21,503.73c-15.42,14.38-38.1,15.12-38.1,15.12s2.34-22.57,17.77-36.94,38.1-15.12,38.1-15.12S1018.64,489.35,1003.21,503.73Z"/><path class="cls-15" d="M999.38,549.51H942.64a5.8,5.8,0,0,1-5.22-3.26l-12.35-25.39a5.81,5.81,0,0,1,2.68-7.76,5.74,5.74,0,0,1,2.54-.59h81.44a5.81,5.81,0,0,1,5.81,5.81,5.74,5.74,0,0,1-.59,2.54l-12.35,25.39A5.8,5.8,0,0,1,999.38,549.51Z"/><path class="cls-16" d="M61,479.65c14.37,15.43,15.12,38.1,15.12,38.1S53.51,515.41,39.14,500,24,461.89,24,461.89,46.58,464.22,61,479.65Z"/><path class="cls-17" d="M93.38,549.51H36.64a5.8,5.8,0,0,1-5.22-3.26L19.07,520.86a5.81,5.81,0,0,1,2.68-7.76,5.74,5.74,0,0,1,2.54-.59h81.44a5.81,5.81,0,0,1,5.81,5.81,5.74,5.74,0,0,1-.59,2.54L98.6,546.25A5.8,5.8,0,0,1,93.38,549.51Z"/></g></g></svg>