<svg xmlns="http://www.w3.org/2000/svg" xmlns:xlink="http://www.w3.org/1999/xlink" viewBox="0 0 88.21 68.02"><defs><style>.cls-1{fill:url(#linear-gradient);}.cls-2{fill:url(#linear-gradient-2);}.cls-3{fill:url(#linear-gradient-3);}.cls-4{fill:url(#linear-gradient-4);}.cls-5{fill:url(#linear-gradient-5);}.cls-6{fill:url(#linear-gradient-6);}</style><linearGradient id="linear-gradient" x1="44.11" y1="-1.04" x2="44.11" y2="69.88" gradientUnits="userSpaceOnUse"><stop offset="0" stop-color="#ff736b"/><stop offset="1" stop-color="#ff2260"/></linearGradient><linearGradient id="linear-gradient-2" x1="44.1" y1="-1.04" x2="44.1" y2="69.88" xlink:href="#linear-gradient"/><linearGradient id="linear-gradient-3" x1="27.59" y1="-1.04" x2="27.59" y2="69.88" xlink:href="#linear-gradient"/><linearGradient id="linear-gradient-4" x1="58.23" y1="-1.04" x2="58.23" y2="69.88" xlink:href="#linear-gradient"/><linearGradient id="linear-gradient-5" x1="33.26" y1="-1.04" x2="33.26" y2="69.88" xlink:href="#linear-gradient"/><linearGradient id="linear-gradient-6" x1="54.17" y1="-1.04" x2="54.17" y2="69.88" xlink:href="#linear-gradient"/></defs><title>Dynamic course &amp;amp; Exam</title><g id="Layer_2" data-name="Layer 2"><g id="a1564cff-f165-45d5-b330-5a55512dec45"><path class="cls-1" d="M88.14,59.74H0v4a3.68,3.68,0,0,1,.08.58,3.9,3.9,0,0,0,2.09,3.3,2.06,2.06,0,0,0,1,.25q8.16.09,16.31.13l3.11,0c.14,0,.29,0,.44,0H65.18c.15,0,.29,0,.44,0l3.1,0q8.13,0,16.25-.12a1.71,1.71,0,0,0,.75-.1A3.61,3.61,0,0,0,88,65c.19-1.69.14-3.41.19-5.11C88.21,59.81,88.18,59.79,88.14,59.74ZM54.08,64.56a1.18,1.18,0,0,1-1.16.71c-2.94,0-5.88,0-8.81,0H35.25A1.34,1.34,0,0,1,34,64a1.47,1.47,0,0,1,1.29-1.29H53A1.3,1.3,0,0,1,54.08,64.56Z"/><path class="cls-2" d="M6,51.25a6.74,6.74,0,0,0,3.62,4,3.36,3.36,0,0,0,1.34.44q16.49,0,33,0H75a11.19,11.19,0,0,0,2.46-.15,6.45,6.45,0,0,0,4.72-4.16,9.31,9.31,0,0,0,.43-3.59q0-20.61-.06-41.21A6.54,6.54,0,0,0,79,.75a4.25,4.25,0,0,0-2-.67C67.73,0,58.4,0,49.07,0,44,0,38.9,0,33.81,0Q23.22,0,12.62.09a10.24,10.24,0,0,0-2.15.17,6.62,6.62,0,0,0-4.8,5.87c0,1.67-.09,3.33-.09,5q0,19.13.1,38.25A5.77,5.77,0,0,0,6,51.25ZM12.19,5.84c1.44-.06,2.88-.12,4.31-.13q8,0,16.07,0,18.57,0,37.14,0c2.08,0,4.17.08,6.25.14.74,0,.9.23.9,1q0,21,0,42c0,1-.39,1.08-1.1,1.1-1.63.06-3.27.11-4.9.11H44.08v0q-14.64,0-29.3,0c-.79,0-1.59,0-2.38-.08l-.36,0c-.54-.11-.67-.27-.67-.81V6.69C11.37,6.1,11.56,5.86,12.19,5.84Z"/><path class="cls-3" d="M18.69,38.71H33c1.09,0,2.19-.05,3.28-.12S37.93,38,38,36.82c0-.66.08-1.32.08-2,0-3.12,0-6.24,0-9.36,0-.11,0-.22,0-.38l-.21.18a27,27,0,0,0-3.41,4.4.93.93,0,0,0-.12.5c0,1.35,0,2.7,0,4v.66H20.93V21.58h.47c2.58,0,5.16-.1,7.74,0a2.61,2.61,0,0,0,2.41-1,2.31,2.31,0,0,1,.36-.34l2.83-2.41c-.34,0-.64,0-.94,0-3.63,0-7.26,0-10.89,0-1.47,0-2.94.07-4.4.17a1.16,1.16,0,0,0-1.25,1.17A13.8,13.8,0,0,0,17.11,21c0,5.4,0,10.8,0,16.2A1.77,1.77,0,0,0,18.69,38.71Z"/><path class="cls-4" d="M47.13,24.83,58.29,25v0H69.58a.86.86,0,0,0,.51-.11,8.1,8.1,0,0,0,.8-.85c.62-.69.09-2.57-1.07-2.61-.52,0-1-.13-1.57-.13-6,0-12-.06-18-.06-1.17,0-2.34.06-3.51.15a1.62,1.62,0,0,0-1.43,1.34A1.69,1.69,0,0,0,47.13,24.83Z"/><path class="cls-5" d="M30.62,24.91c-.53.65-1,1.33-1.56,2.05-.3-.21-.55-.37-.79-.55-.64-.51-1.27-1.06-1.93-1.54a1.2,1.2,0,0,0-1.67.14,1.38,1.38,0,0,0-.11,1.81c1.21,1.43,2.42,2.86,3.69,4.24a1.54,1.54,0,0,0,2.58-.12,19.61,19.61,0,0,0,1.49-2.19,35.26,35.26,0,0,1,8.76-9.62,6,6,0,0,0,1.05-1,.87.87,0,0,0,.06-.77.8.8,0,0,0-.64-.32,2.66,2.66,0,0,0-.95.24A24.8,24.8,0,0,0,30.62,24.91Z"/><path class="cls-6" d="M47.16,33.38H61.42a1.1,1.1,0,0,0,.48-.07A2.06,2.06,0,0,0,63,31.13a1.78,1.78,0,0,0-1.9-1.45q-7.05,0-14.08,0a1.74,1.74,0,0,0-1.68,2A2,2,0,0,0,47.16,33.38Z"/></g></g></svg>