<svg xmlns="http://www.w3.org/2000/svg" xmlns:xlink="http://www.w3.org/1999/xlink" viewBox="0 0 982.89 802.95"><defs><style>.cls-1{opacity:0.2;fill:url(#linear-gradient);}.cls-2{fill:#172b4c;}.cls-3{fill:#f53065;}.cls-4{fill:url(#linear-gradient-2);}.cls-5{fill:url(#linear-gradient-3);}.cls-6{fill:#233862;}.cls-7{fill:#a1616a;}.cls-14,.cls-8{opacity:0.1;}.cls-10,.cls-16,.cls-25,.cls-8{isolation:isolate;}.cls-9{fill:#3f3d56;}.cls-10{opacity:0.04;}.cls-11{fill:#fff;}.cls-12{fill:url(#linear-gradient-4);}.cls-13{fill:url(#linear-gradient-5);}.cls-15{fill:#fbbebe;}.cls-16{opacity:0.05;}.cls-17{fill:url(#linear-gradient-6);}.cls-18{fill:url(#linear-gradient-7);}.cls-19{fill:#f86d70;}.cls-20{fill:url(#linear-gradient-8);}.cls-21{fill:url(#linear-gradient-9);}.cls-22{fill:url(#linear-gradient-10);}.cls-23{fill:url(#linear-gradient-11);}.cls-24{fill:url(#linear-gradient-12);}.cls-25{opacity:0.07;}</style><linearGradient id="linear-gradient" y1="401.47" x2="958.99" y2="401.47" gradientUnits="userSpaceOnUse"><stop offset="0" stop-color="#ff736b" stop-opacity="0.5"/><stop offset="0.51" stop-color="#ff4a66"/><stop offset="0.77" stop-color="#ff3563"/><stop offset="1" stop-color="#ff2260"/></linearGradient><linearGradient id="linear-gradient-2" x1="200.01" y1="824.81" x2="228.25" y2="573.52" gradientUnits="userSpaceOnUse"><stop offset="0" stop-color="#00f0ff"/><stop offset="1" stop-color="#553eff"/></linearGradient><linearGradient id="linear-gradient-3" x1="258.06" y1="226.98" x2="258.06" y2="359.68" gradientUnits="userSpaceOnUse"><stop offset="0" stop-color="#ff736b"/><stop offset="0.51" stop-color="#ff4a66"/><stop offset="0.77" stop-color="#ff3563"/><stop offset="1" stop-color="#ff2260"/></linearGradient><linearGradient id="linear-gradient-4" x1="108.6" y1="226.98" x2="108.6" y2="359.68" xlink:href="#linear-gradient-3"/><linearGradient id="linear-gradient-5" x1="372.77" y1="226.98" x2="372.77" y2="359.68" xlink:href="#linear-gradient-3"/><linearGradient id="linear-gradient-6" x1="765.11" y1="265.1" x2="765.11" y2="486.86" xlink:href="#linear-gradient-3"/><linearGradient id="linear-gradient-7" x1="905.07" y1="266.47" x2="917.78" y2="712.58" xlink:href="#linear-gradient-2"/><linearGradient id="linear-gradient-8" x1="850.18" y1="837.81" x2="764.06" y2="532.87" gradientUnits="userSpaceOnUse"><stop offset="0" stop-color="#fe3eff"/><stop offset="1" stop-color="#423eff"/></linearGradient><linearGradient id="linear-gradient-9" x1="675.62" y1="273" x2="688.32" y2="719.12" xlink:href="#linear-gradient-2"/><linearGradient id="linear-gradient-10" x1="751.4" y1="756.02" x2="745.75" y2="476.49" gradientUnits="userSpaceOnUse"><stop offset="0" stop-color="#fe3eff"/><stop offset="0.72" stop-color="#613eff"/><stop offset="1" stop-color="#423eff"/></linearGradient><linearGradient id="linear-gradient-11" x1="790.31" y1="455.22" x2="1130.54" y2="370.52" xlink:href="#linear-gradient-2"/><linearGradient id="linear-gradient-12" x1="659.18" y1="273.47" x2="671.88" y2="719.59" xlink:href="#linear-gradient-2"/></defs><title>exam</title><g id="Layer_2" data-name="Layer 2"><g id="f7e01b52-fe13-4534-b7fc-d479bcd2a427"><path class="cls-1" d="M959,465.49v1.82q-.16,15.78-1.87,31.48V499c-.09.87-.19,1.73-.29,2.6-.17,1.47-.35,2.93-.55,4.4a316.63,316.63,0,0,1-11.53,52.79h0a284.91,284.91,0,0,1-30.1,66.28q-5.92,9.5-12.61,18.39h0c-2.38,3.14-4.81,6.21-7.32,9.23q-2.64,3.17-5.38,6.24l-1.14,1.26a296.57,296.57,0,0,1-31,29.46c-18,14.92-37.38,27.9-57.07,39.94-1.12.69-2.25,1.37-3.38,2a1.28,1.28,0,0,1-.25.15C769.74,747.9,742,762.5,713.4,774.19c-31.3,12.83-63.62,22.16-96.78,26.24-46.22,5.68-93,1.06-138.94-6.88a905,905,0,0,1-113-27l-6.1-1.91q-4.74-1.51-9.47-3.08-28.58-9.45-56.5-21A742.5,742.5,0,0,1,159.28,669q-8-5.38-15.77-11-10.86-7.83-21.46-16.1l-4.36-3.38A449,449,0,0,1,65.87,590.9c-21.52-23.42-39.91-49.84-52-80Q11,503.79,8.63,496.41l-.15-.49c-.8-2.5-1.54-5-2.22-7.6q-1.5-5.58-2.63-11.3c-.16-.73-.3-1.46-.43-2.2A189,189,0,0,1,.05,435.89a180,180,0,0,1,4-34h0a153.48,153.48,0,0,1,11.33-33.57h0a120.8,120.8,0,0,1,17.33-26.73h0A101.75,101.75,0,0,1,49,326.33c10.85-8.08,22.88-13.71,35.35-18.16h0c5.86-2.1,11.8-3.94,17.77-5.65,4.23-1.22,8.48-2.38,12.71-3.52l12.48-3.37c8-2.18,16-4.42,23.88-6.84,21.48-6.56,42.53-14.5,62-26.34,3.08-1.87,6.22-3.92,9.36-6.12q6-4.17,11.84-9.06h0c3.94-3.3,7.8-6.83,11.48-10.57.57-.58,1.13-1.16,1.69-1.75,3-3.16,5.91-6.47,8.61-9.91,1.32-1.68,2.6-3.39,3.82-5.13,1.69-2.41,3.29-4.86,4.77-7.38h0c7.42-12.6,12-26.5,11.46-41.15a64.37,64.37,0,0,0-.65-7.21c-1.3-8.83-2.55-17.45-3.47-25.88-3.86-34.87-2.23-66.49,23.94-96.2C328.62,5.16,379.69-2.37,426.18.58,560.59,9.08,683,85.82,790.48,177.18q13.95,11.83,27.56,24,3.44,3.06,6.87,6.16c17,15.31,33.74,31.19,49.33,48.2,1.26,1.38,2.52,2.76,3.76,4.15.76.86,1.53,1.71,2.28,2.58q7.29,8.25,14.15,16.9a320.2,320.2,0,0,1,32.32,49,278.27,278.27,0,0,1,28.38,86.67h0A309.88,309.88,0,0,1,958.56,448c.17,3.27.28,6.55.34,9.82V461C959,462.49,959,464,959,465.49Z"/><polygon class="cls-2" points="393.98 448.72 377.98 733.51 393.98 733.72 406.98 444.72 393.98 448.72"/><rect class="cls-3" x="136.98" y="593.01" width="198" height="43"/><path class="cls-2" d="M348,631v27H143.45q-10.86-7.83-21.46-16.1V631Z"/><path class="cls-4" d="M388.82,569.55c-.56,2.59-1.29,5.15-2.06,7.7-2.27,7.37-5,14.64-5.53,22.3-.71,10.12,2,21.89-5,29.24-1.8,1.9-4.15,3.32-5.76,5.35a8.38,8.38,0,0,0-.68,1c-1.44,2.38-1.61,5.28-1.63,8a139.88,139.88,0,0,0,1.13,17.35c2.37,19.8,7,39.64.9,58.33a91.19,91.19,0,0,1-3.89,9.51c-3,6.6-6.27,13.11-7.25,20.26-.72,5.3-.5,10.76-.54,16.15q-4.74-1.51-9.47-3.08-28.57-9.45-56.5-21c0-.27.1-.55.14-.82,1.43-8.9-.53-18-2.91-26.68-5-18.39-12.08-36.6-16.27-55.12a138.62,138.62,0,0,1-3.31-22c-.12-1.66-.19-3.33-.2-5-.05-2.18,0-4.36.09-6.56.21-4.39.4-9.6-3.11-12.27-1.93-1.45-4.48-1.7-6.73-2.58-4.34-1.69-7.31-5.61-10.75-8.75a14.08,14.08,0,0,0-12.59-3.7c-22.48,5.15-39,24.22-59.92,33.86-.81.38-1.62.74-2.44,1.08a35.58,35.58,0,0,0-7.67,3.92,8.69,8.69,0,0,0-3.44,4.85c-.53,2.12-.07,4.34.19,6.52a33.29,33.29,0,0,1-.45,10.63,32.77,32.77,0,0,1-1.07,4c-.8,2.37-1.87,4.69-2.89,7q-8-5.38-15.77-11-10.86-7.83-21.46-16.1l-4.29-3.45A449,449,0,0,1,65.87,590.9c2.13-6,5.21-11.58,6.69-17.73.84-3.53,1.15-7.2,2.31-10.63a38.32,38.32,0,0,1,5.52-9.9,134,134,0,0,1,30.74-30.76c12.39-8.88,26.7-16,37.85-26.08a60.1,60.1,0,0,0,11.57-13.71,8.56,8.56,0,0,0,.53-1,20.91,20.91,0,0,0,1.79-5.72c.8-4.48.68-9.4,1.08-13.7a146.12,146.12,0,0,0,41.13,1.24c15.95-1.79,31.55-6.22,47.5-7.94,1.2-.14,2.41-.25,3.62-.35,5.11-.41,10.23-.5,15.36-.44,4.29,0,8.58.19,12.87.33l47.23,1.6c5.23.18,10.57.38,15.44,2.29,5.78,2.27,10.41,6.79,14.12,11.76.47.64.94,1.28,1.38,1.94a61,61,0,0,1,7.28,14.39c.19.52.37,1,.54,1.57.45,1.39.84,2.79,1.19,4.21.27,1.11.51,2.22.73,3.34,1.1,5.54,1.75,11.2,3.49,16.55.12.39.25.78.39,1.16,2.09,5.86,5.56,11.11,8.18,16.74a62,62,0,0,1,4.3,12.73A62.88,62.88,0,0,1,388.82,569.55Z"/><path class="cls-5" d="M245.26,211.68c-4.22-3.36-10.34-.9-15.28,1.27a98.09,98.09,0,0,1-12.76,4.61,5.46,5.46,0,0,1-2.8.29c-2-.48-2.84-2.85-4.33-4.29-2.59-2.49-6.83-1.9-10.17-.55s-6.64,3.3-10.22,3c-3.82-.3-7.14-3.12-11-3.21-6.8-.16-12.51,8.22-18.94,6-3.92-1.35-7-6.45-10.86-5-3,1.14-3.27,5.29-5.08,8-2.13,3.16-6.28,4-9.83,5.45-11.19,4.42-18.6,16.89-17.14,28.83.81,6.59,4,12.63,6.11,18.92,6.26,18.29,4.11,38.92,12,56.56,1-.94,1.56-1.29,2.53-2.22a23.09,23.09,0,0,0-1.35,16.6c.83,2.77,2.18,5.35,3.2,8.06a72.69,72.69,0,0,1,2.56,9.3l8.7,38.38c3.4,15,6.81,30,7.4,45.36a132.38,132.38,0,0,1-2.28,29.8c15.76-2.61,30.18-9.6,46.15-9.51,5.86,0,11.67,1,17.48,1.8a359.84,359.84,0,0,0,51.13,3.47,20.29,20.29,0,0,0,7.84-1.1c2.2-.94,4-2.61,6.08-3.82,4.07-2.4,9-3,13.69-3,21.39-.39,42,7.44,63.25,10.2,8.39-17.61,8.89-38.71,2.45-57.12-1.91-5.47-4.48-10.8-5.24-16.55a82,82,0,0,1-.24-10.63A77,77,0,0,0,353.48,364c-1.24-3.33-2.73-6.72-2.6-10.27s1.88-6.86,3.6-10c3.49-6.4,7-12.86,11.93-18.26,5-5.58,11.37-9.83,17.62-14l15.43-10.36c-2.11-13.33-4.83-27.37-10.48-39.63s-14.1-23.53-25.53-30.7a84.13,84.13,0,0,0-12.06-6c-5.84-2.46-11.92-4.63-18.25-5-7.2-.41-14.29,1.52-21.4,2.72C289.36,226.27,263,225.81,245.26,211.68Z"/><path class="cls-2" d="M414,443l-7.34,9.27L392.8,469.74l-16,20.19-4.47,5.64h-8.67L149,495.82,14.52,496h-6c-.8-2.5-1.54-5-2.22-7.6q-1.5-5.58-2.63-11.3c-.16-.73-.3-1.46-.43-2.2L52,443l18.34-.1h0l56.1-.32h0l31.33-.18h9.31l20.88-.11h0l159.14-.91h0l8.14-.05h3.53l9.35-.05,34.79-.2,6.68-2.54.49.52Z"/><path class="cls-6" d="M411,438l-.83,1-5.46,6.43L393.45,458.7l-23.57,27.79-208.8-5.33-157.45-4c-.16-.73-.3-1.46-.43-2.2A189,189,0,0,1,.05,436l17.46-8.94,4-2.06,31.13-16L80,395l71.26,9.26,15.78,2,7.14.92,10.45,1.36.88.12L349.34,430l18.11,2.35,10.63,1.38L410.84,438Z"/><path class="cls-2" d="M377,486l-.17,3.93-1,22.19-5.38,122-1.14,26.37-3,67.84-1.69,38.32-6.1-1.91q-4.74-1.51-9.47-3.08l14.63-266,.31-5.58,6.44-2Z"/><path class="cls-2" d="M15,485.71,14.53,496l-.66,15Q11,503.87,8.63,496.49L8.48,496c-.8-2.5-1.54-5-2.22-7.6Z"/><ellipse class="cls-7" cx="276.48" cy="272.51" rx="46" ry="62"/><ellipse class="cls-8" cx="276.48" cy="272.51" rx="46" ry="62"/><circle class="cls-7" cx="282.98" cy="235.01" r="64"/><path class="cls-6" d="M284.25,136.37a81.17,81.17,0,0,0-11.61,1.77c-10.12,2.46-18.87,7.92-27.39,13.28-3.82,2.41-7.75,4.92-10.12,8.46-4.26,6.35-2.61,14.43-5,21.48-1.24,3.62-3.52,6.87-5.45,10.24-5.31,9.24-8.09,19.39-10.82,29.44-.56,2.08-.72,4.9,1.55,5.7a6.24,6.24,0,0,0,3.88-.44c7.17-2.37,16.28-3.05,21.6,1.76s4.87,13.34,11.2,17c7.25,4.23,18.57-.88,25.15,4.11,2.82,2.14,3.84,5.57,6.15,8.15,5.38,6,15.73,5.71,24.34,4.5,4.94-.7,11-1.17,14,2.3,1.44,1.64,1.85,3.89,3.52,5.37,3,2.68,8.49,1.32,11.42-1.43s4.33-6.47,6.77-9.56c4.75-6,13.1-9.27,18-15.2,4.1-5,5.34-11.26,6.46-17.3l4.17-22.39c1.69-9.08,3.23-19-1.88-27-1.82-2.88-4.43-5.36-6-8.34-1.05-2-1.64-4.11-2.86-6a24.94,24.94,0,0,0-5.13-5.18l-9.87-8.17a82.52,82.52,0,0,0-10.79-8C321.45,132.71,300.35,134.87,284.25,136.37Z"/><path class="cls-7" d="M73.45,301.23c-2.37,2.52-4.56,5.24-7.1,7.6a87.57,87.57,0,0,1-7,5.6q-5.88,4.4-11.5,9.11a64,64,0,0,0-10.54,10.53c-5.34,7.17-7.87,16.09-12.87,23.5C20,364.14,13.79,369.33,9.3,375.85A28.29,28.29,0,0,0,5,384.92a42.3,42.3,0,0,0-.89,9.59C4,399.79,3.92,405.13,5,410.3s3.45,10.25,7.51,13.64c3.77,3.15,8.64,4.6,13.41,5.8,2.46.61,5.12,1.18,7.46.21a12.38,12.38,0,0,0,4.34-3.66l12.17-14c8.14-9.4,16.6-19,27.77-24.5,3.5-1.71,7.19-3,10.7-4.66,14.88-7.17,25.4-21.85,29.48-37.85,1-3.91,1.64-7.9,2.29-11.89l1.76-10.94a3.62,3.62,0,0,0,0-1.67,3.58,3.58,0,0,0-1.28-1.52,212.18,212.18,0,0,1-23.74-22.4c-1.74-1.92-3.37-4.55-5.38-6.16-2.52-2-2.33-1.85-5.36,0A64.33,64.33,0,0,0,73.45,301.23Z"/><path class="cls-9" d="M156.7,374a1.88,1.88,0,0,0-3.45,1.5l.07.14-1,.49,29.82,61.12,5.39-2.63-29.82-61.16Z"/><path class="cls-10" d="M73.45,301.23c-2.37,2.52-4.56,5.24-7.1,7.6a87.57,87.57,0,0,1-7,5.6q-5.88,4.4-11.5,9.11a64,64,0,0,0-10.54,10.53c-5.34,7.17-7.87,16.09-12.87,23.5C20,364.14,13.79,369.33,9.3,375.85A28.29,28.29,0,0,0,5,384.92a42.3,42.3,0,0,0-.89,9.59C4,399.79,3.92,405.13,5,410.3s3.45,10.25,7.51,13.64c3.77,3.15,8.64,4.6,13.41,5.8,2.46.61,5.12,1.18,7.46.21a12.38,12.38,0,0,0,4.34-3.66l12.17-14c8.14-9.4,16.6-19,27.77-24.5,3.5-1.71,7.19-3,10.7-4.66,14.88-7.17,25.4-21.85,29.48-37.85,1-3.91,1.64-7.9,2.29-11.89l1.76-10.94a3.62,3.62,0,0,0,0-1.67,3.58,3.58,0,0,0-1.28-1.52,212.18,212.18,0,0,1-23.74-22.4c-1.74-1.92-3.37-4.55-5.38-6.16-2.52-2-2.33-1.85-5.36,0A64.33,64.33,0,0,0,73.45,301.23Z"/><path class="cls-7" d="M418.19,413.87c-.1,6.38-.35,12.95-3,18.77-1.14,2.52-2.91,5-5.56,5.83a13,13,0,0,1-4.89.18,176.41,176.41,0,0,0-58.49,4.64c5.1-10.2,2.17-22.43,3.58-33.75.39-3.09,1.1-6.13,1.37-9.23,1-11-3.71-21.68-5.87-32.54a72.61,72.61,0,0,1,0-28.48,19,19,0,0,1,2.45-6.85,16,16,0,0,1,5.62-4.89c8.1-4.61,17.65-5.14,26.75-4.53,6.13.41,18.42-.17,23.53,3.6,5.59,4.13,7.36,18,8.87,24.41a206.27,206.27,0,0,1,4.6,29.87A321,321,0,0,1,418.19,413.87Z"/><polygon class="cls-11" points="59.98 436.01 95.98 460.01 257.98 454.01 150.98 436.01 59.98 436.01"/><path class="cls-12" d="M107.45,245.32c-5.91,5.21-10.92,11.35-16.52,16.9-7.68,7.62-16.41,14.1-25.1,20.55a18.67,18.67,0,0,1,13,13.1c.38,1.47.57,3,1,4.44a24.26,24.26,0,0,0,5.56,9c10.14,11.43,24.33,19.89,30.31,34a3.17,3.17,0,0,0,1.2,1.7,2.66,2.66,0,0,0,1.55.18c5.41-.57,9.55-4.93,13-9.17,7.2-9,13.45-18.94,17-29.92s4.12-23.12.25-34c-1.93-5.42-4.91-10.4-7.87-15.33l-7.76-12.92c-1.35-2.27-3.07-6.88-5.72-8C121.63,233.39,111.12,241.65,107.45,245.32Z"/><path class="cls-13" d="M402,310l8.51,20a61.83,61.83,0,0,0-55.9,7.75c-4.85,3.47-9.3,7.83-11.49,13.37a5.85,5.85,0,0,1-5.79-2.27,11.65,11.65,0,0,1-2.14-6.12c-.79-7.68,2.12-15.21,5-22.39,1.34-3.36,2.72-6.79,5.1-9.52s5.54-4.53,8.7-6.23a193.36,193.36,0,0,1,31.55-13.94c4.6-1.49,9.42-1.46,12,2.84C400.52,298.57,399.65,304.49,402,310Z"/><path class="cls-7" d="M60.19,370c2.13,1.7,4,3.71,6.19,5.33a43.91,43.91,0,0,0,7.36,4.13l9.86,4.74A54.61,54.61,0,0,0,93.15,388c4.22,1.13,8.65,1.24,12.89,2.29,5.35,1.32,10.24,4.07,15.51,5.66s11.44,1.85,15.84-1.46c2.75-2.07,4.83-5.49,8.24-6,2.2-.29,4.32.77,6.28,1.8l25.66,13.49c3.46,1.82,7.12,3.84,8.93,7.31s.59,8.74-3.22,9.64a35.62,35.62,0,0,1-4,.23c-1.32.16-2.76.94-2.94,2.27a4.53,4.53,0,0,0,.63,2.35c1.15,2.64,1.49,5.8.15,8.36s-4.63,4.15-7.26,3c.45,3.87-3.76,6.58-7.51,7.61-9.46,2.59-19.49,1-29.16-.64-3.8-.64-7.66-1.3-11.12-3-1.66-.81-3.2-1.85-4.88-2.6-4.61-2.05-9.85-1.78-14.89-1.69-23.31.41-46.42-3.91-69.34-8.21-4.25-.8-8.62-1.65-12.25-4-7-4.56-9.6-13.92-8.45-22.2s5.35-15.78,9.48-23.06l5.35-9.43A12.07,12.07,0,0,1,30,366C37.84,360,53.45,364.54,60.19,370Z"/><path class="cls-10" d="M60.19,370c2.13,1.7,4,3.71,6.19,5.33a43.91,43.91,0,0,0,7.36,4.13l9.86,4.74A54.61,54.61,0,0,0,93.15,388c4.22,1.13,8.65,1.24,12.89,2.29,5.35,1.32,10.24,4.07,15.51,5.66s11.44,1.85,15.84-1.46c2.75-2.07,4.83-5.49,8.24-6,2.2-.29,4.32.77,6.28,1.8l25.66,13.49c3.46,1.82,7.12,3.84,8.93,7.31s.59,8.74-3.22,9.64a35.62,35.62,0,0,1-4,.23c-1.32.16-2.76.94-2.94,2.27a4.53,4.53,0,0,0,.63,2.35c1.15,2.64,1.49,5.8.15,8.36s-4.63,4.15-7.26,3c.45,3.87-3.76,6.58-7.51,7.61-9.46,2.59-19.49,1-29.16-.64-3.8-.64-7.66-1.3-11.12-3-1.66-.81-3.2-1.85-4.88-2.6-4.61-2.05-9.85-1.78-14.89-1.69-23.31.41-46.42-3.91-69.34-8.21-4.25-.8-8.62-1.65-12.25-4-7-4.56-9.6-13.92-8.45-22.2s5.35-15.78,9.48-23.06l5.35-9.43A12.07,12.07,0,0,1,30,366C37.84,360,53.45,364.54,60.19,370Z"/><path class="cls-7" d="M365.45,387.24c-5.21,2.46-11.19,2.7-16.63,4.59s-10.06,5.29-15.05,8.06c-13,7.26-28,10-42.73,12.61-8.93,1.6-18,3.2-27,2.82-12.18-.52-23.88-4.58-35.68-7.64S204,402.56,192.28,406a40.61,40.61,0,0,0-26.5,25.43c-2.45,7.19-2.79,14.94-2.32,22.52,2.46,1.81,5.9-.7,7.24-3.45s2.07-6.12,4.67-7.72c4.51,1.53,5.61,7.54,9.33,10.51,2.32,1.86,5.42,2.35,8.37,2.77l15.2,2.16c3.66.52,7.91.87,10.56-1.71,1.29-1.25,2-3,3.18-4.34,2.42-2.68,6.46-3.14,10.06-2.78,11.24,1.12,21.78,8.41,32.94,6.68,3.84-.59,7.41-2.23,11.07-3.52,21.69-7.66,45.79-3,68.36-7.39,8.61-1.67,16.9-4.63,25.09-7.75,4.45-1.69,9-3.46,12.75-6.32a26.84,26.84,0,0,0,10.36-23.81A27.26,27.26,0,0,0,383,389.64c-1.76-1.5-4.07-4.37-6.18-5.31C372.82,382.56,368.87,385.63,365.45,387.24Z"/><g class="cls-14"><path d="M336.23,259.49c-1.67-1.48-2.08-3.73-3.52-5.37-3-3.47-9.06-3-14-2.3-8.61,1.21-19,1.49-24.34-4.5-2.31-2.58-3.33-6-6.15-8.15-6.58-5-17.9.12-25.15-4.11-6.33-3.69-5.92-12.25-11.2-17s-14.43-4.13-21.6-1.76a6.24,6.24,0,0,1-3.88.44c-2.27-.8-2.11-3.62-1.55-5.7,2.73-10,5.51-20.2,10.82-29.44,1.93-3.37,4.21-6.62,5.45-10.24,2.17-6.34,1.06-13.51,3.91-19.51-3.06,2-6,4.18-7.89,7-4.26,6.35-2.61,14.43-5,21.48-1.24,3.62-3.52,6.87-5.45,10.24-5.31,9.24-8.09,19.39-10.82,29.44-.56,2.08-.72,4.9,1.55,5.7a6.24,6.24,0,0,0,3.88-.44c7.17-2.37,16.28-3.05,21.6,1.76s4.87,13.34,11.2,17c7.25,4.23,18.57-.88,25.15,4.11,2.82,2.14,3.84,5.57,6.15,8.15,5.38,6,15.73,5.71,24.34,4.5,4.94-.7,11-1.17,14,2.3,1.44,1.64,1.85,3.89,3.52,5.37,3,2.68,8.49,1.32,11.42-1.43a30.68,30.68,0,0,0,4.78-6.54C340.85,261.28,338.08,261.16,336.23,259.49Z"/><path d="M354.45,248.49a27.09,27.09,0,0,0-1.79,2.59c3.84-2.74,7.91-5.3,10.78-8.79a22.77,22.77,0,0,0,2-2.88C361.45,242.27,357.29,244.9,354.45,248.49Z"/></g><polygon class="cls-2" points="556.48 446.51 559.48 733.51 573.48 731.51 570.48 446.51 556.48 446.51"/><polygon class="cls-2" points="640.48 498.51 643.48 785.51 657.48 783.51 654.48 498.51 640.48 498.51"/><path class="cls-2" d="M902,643.49h0L902,638V634.7l-.53-50.48-.83-78.92-.14-6.81h-14l.07,6.56.44,42.27.19,18.3h0l.16,14.82.26,25.62.16,15.11h0v1.6l.21,19.86.18,17.51,1.14-1.26c1.83-2,3.63-4.13,5.38-6.24Z"/><polygon class="cls-3" points="624.98 545.01 616.98 556.97 624.98 611.46 692.98 630.07 802.98 630.07 868.98 634.06 900.42 612.54 894.98 575.58 870.98 545.01 624.98 545.01"/><path class="cls-2" d="M617,557l-4,33.22s-21,65.13,148,61.14,140-17.28,140-17.28l-1-38.54s5.89,18.24-80,15.77-166-10.45-166-10.45S624,606.14,617,557Z"/><path class="cls-15" d="M757.78,259.21c-9.64,4.39-16.94,12.9-21.83,22.31s-7.64,19.74-10.35,30c-2.86,10.82-5.73,21.67-7.21,32.76-2.64,19.72-.66,40.45,8.4,58.16s25.8,32,45.4,35.41c7.57,1.33,15.35,1.06,23,.27a187.51,187.51,0,0,0,40.61-8.95c13.75-4.65,28.06-11.81,34.18-25,3.55-7.65,3.85-16.37,3.68-24.79a263.72,263.72,0,0,0-10.31-67.79c-1.85-6.4-4-12.85-7.92-18.24s-9.28-9.34-14.75-13C817.29,264.6,786.55,246.13,757.78,259.21Z"/><path class="cls-16" d="M757.78,259.21c-9.64,4.39-16.94,12.9-21.83,22.31s-7.64,19.74-10.35,30c-2.86,10.82-5.73,21.67-7.21,32.76-2.64,19.72-.66,40.45,8.4,58.16s25.8,32,45.4,35.41c7.57,1.33,15.35,1.06,23,.27a187.51,187.51,0,0,0,40.61-8.95c13.75-4.65,28.06-11.81,34.18-25,3.55-7.65,3.85-16.37,3.68-24.79a263.72,263.72,0,0,0-10.31-67.79c-1.85-6.4-4-12.85-7.92-18.24s-9.28-9.34-14.75-13C817.29,264.6,786.55,246.13,757.78,259.21Z"/><path class="cls-17" d="M747,385.08a45.39,45.39,0,0,0,10,10c9.52,6.58,21.74,7.47,33.3,7.83,9.28.28,19.92-.25,25.74-7.49,2.62-3.26,3.8-7.42,4.86-11.47a508.79,508.79,0,0,0,13.9-75.77l26.48.09c11.46,49.07,10.52,100.08,9.52,150.47l-1.45,73.48-17.06-1.81c-40.51-4.29-81.08-8.58-121.81-9.32a696.69,696.69,0,0,0-71.52,2.36L696.06,413c4.82-14.36,9.69-28.91,10.82-44,1.63-21.89-4.51-45,4-65.25.68-1.63,1.54-3.32,3.09-4.17s3.51-.64,5.29-.41c3.36.45,13.63,0,16.07,2.15,3.6,3.12,1.22,3.59-.05,8.62-2.27,9-4.42,17.33-4.39,26.71C730.92,353.67,736.2,371.65,747,385.08Z"/><path class="cls-18" d="M902,643.49h0q6.69-8.88,12.61-18.39c-2-4.28-4.2-8.46-6-12.83-2.68-6.7-4.22-13.8-5.74-20.85q-.78-3.6-1.55-7.2c-5.6-26.11-10.86-52.59-12-79.06q-.15-3.3-.19-6.6v-8.22c.12-6,.5-12,1.19-18.07.13-1.18.28-2.36.44-3.54a5.07,5.07,0,0,1,.1-.77l68-2.48h0l5.72-.21c3.93-.14,8.09-.36,11.33-2.59,5.45-3.74,6.09-11.41,6-18a267.07,267.07,0,0,0-5.64-49.55c-2.58-12.26-6.26-24.79-14.52-34.21-6.78-7.74-16.6-13.37-20.13-23-1.31-3.58-1.64-7.51-3.34-10.93s-4.51-5.93-7.16-8.57a119.1,119.1,0,0,1-22.9-31.72c-4.05-8.16-8.44-17.16-13.73-22.8-.26-.29-.52-.56-.79-.82-4.5-4.45-9.65-6.4-15.75-3.37a20.06,20.06,0,0,0-3.12,1.94h0a37.69,37.69,0,0,0-5.93,5.64,134.66,134.66,0,0,0-16.13,23,127.69,127.69,0,0,0-8.24,18,122.35,122.35,0,0,0-4.45,15c-.86,3.77-1.54,7.58-2.08,11.4-2,14.36-2,29-1.72,43.54.3,13.36.89,26.75,2.1,40.06.3,3.22.63,6.43,1,9.65q1.1,9.53,2.72,19c.43,2.41.87,4.82,1.36,7.22.12.64.25,1.28.38,1.91l.06.27a164.16,164.16,0,0,1,3.07,16.91q.12,1.06.18,2.13a82.33,82.33,0,0,1-.08,9.81c-.23,3.86-.59,7.71-.77,11.57a18.81,18.81,0,0,1-.07,2c-.05,1.95,0,3.9,0,5.85A92.72,92.72,0,0,0,848,518.5a90,90,0,0,0,8.65,24.44c.38.72.77,1.43,1.16,2.13,5.07,9.06,11.47,17.37,16.16,26.64a115.07,115.07,0,0,1,9,26.21q1,4.49,1.9,9c.93,4.8,1.76,9.64,2.61,14.48.08.48.17,1,.26,1.44,1.13,6.42,2.32,12.81,3.85,19.08.89,3.65,1.89,7.25,3.06,10.79Z"/><path class="cls-19" d="M888.65,564.67c0,.9-.06,1.8-.1,2.71a128,128,0,0,1-1.21,13.11A85.45,85.45,0,0,1,883,597.88a59.09,59.09,0,0,1-5.16,10.61,49,49,0,0,1-6.42,8.27c-6,6.24-14.64,8.23-23,10.86a56,56,0,0,0-11.09,4.53c-.63.35-1.25.73-1.85,1.13L825,640.21c-3.26,2.15-6.59,4.38-8.83,7.57a16,16,0,0,0-1,1.69,38,38,0,0,0-3.08,9.24c-5.44,22.66-10.89,45.34-14.62,68.34-.25,1.52-.49,3.05-.75,4.58l-.09.48a2.53,2.53,0,0,0-.16-.33C769.74,748,742,762.56,713.4,774.25l-6.21-52a62.83,62.83,0,0,1-.64-12.78c.59-6.73,3.33-13.11,4.07-19.82a33.77,33.77,0,0,0-3.57-19.07c-1.18-2.28-2.66-4.52-2.93-7.07s1.2-4.88,3.76-5.14c2-2.22,2.16-5.25,1.57-8.25a23.44,23.44,0,0,0-1.4-4.57c-1.7-4.18-3.85-8.73-2.39-13a4.93,4.93,0,0,0,.5-2.5.43.43,0,0,0,0-.16c-.34-1.12-1.67-1.61-2.36-2.56-1.3-1.77,0-4.18.8-6.22a23.66,23.66,0,0,0,1.34-6.81c.11-1.29.19-2.59.33-3.87a37.43,37.43,0,0,1,.93-5.14,40.57,40.57,0,0,1,16.43-23.52c3.89-2.62,8.22-4.53,12.19-7a111.22,111.22,0,0,0,11.62-9q13.21-11,27.47-20.74a347,347,0,0,1,31.72-19.26c2.33-1.26,4.67-2.49,7-3.68q3.81-2,7.67-3.79c8.24-3.93,17.59-2.46,26.7.16,3.82,1.09,7.59,2.39,11.23,3.57a51.84,51.84,0,0,1,10.2,4.58c8.07,4.74,14.74,11.74,17.51,20.58v.17C888.7,552.9,888.81,558.84,888.65,564.67Z"/><path class="cls-20" d="M888.65,564.67c0,.9-.06,1.8-.1,2.71a128,128,0,0,1-1.21,13.11A85.45,85.45,0,0,1,883,597.88a59.09,59.09,0,0,1-5.16,10.61,49,49,0,0,1-6.42,8.27c-6,6.24-14.64,8.23-23,10.86a56,56,0,0,0-11.09,4.53c-.63.35-1.25.73-1.85,1.13L825,640.21c-3.26,2.15-6.59,4.38-8.83,7.57a16,16,0,0,0-1,1.69,38,38,0,0,0-3.08,9.24c-5.44,22.66-10.89,45.34-14.62,68.34-.25,1.52-.49,3.05-.75,4.58l-.09.48a2.53,2.53,0,0,0-.16-.33C769.74,748,742,762.56,713.4,774.25l-6.21-52a62.83,62.83,0,0,1-.64-12.78c.59-6.73,3.33-13.11,4.07-19.82a33.77,33.77,0,0,0-3.57-19.07c-1.18-2.28-2.66-4.52-2.93-7.07s1.2-4.88,3.76-5.14c2-2.22,2.16-5.25,1.57-8.25a23.44,23.44,0,0,0-1.4-4.57c-1.7-4.18-3.85-8.73-2.39-13a4.93,4.93,0,0,0,.5-2.5.43.43,0,0,0,0-.16c-.34-1.12-1.67-1.61-2.36-2.56-1.3-1.77,0-4.18.8-6.22a23.66,23.66,0,0,0,1.34-6.81c.11-1.29.19-2.59.33-3.87a37.43,37.43,0,0,1,.93-5.14,40.57,40.57,0,0,1,16.43-23.52c3.89-2.62,8.22-4.53,12.19-7a111.22,111.22,0,0,0,11.62-9q13.21-11,27.47-20.74a347,347,0,0,1,31.72-19.26c2.33-1.26,4.67-2.49,7-3.68q3.81-2,7.67-3.79c8.24-3.93,17.59-2.46,26.7.16,3.82,1.09,7.59,2.39,11.23,3.57a51.84,51.84,0,0,1,10.2,4.58c8.07,4.74,14.74,11.74,17.51,20.58v.17C888.7,552.9,888.81,558.84,888.65,564.67Z"/><path class="cls-9" d="M793.7,399a1.88,1.88,0,0,0-3.45,1.5.91.91,0,0,0,.07.14l-1,.49,29.82,61.12,5.39-2.63-29.82-61.16Z"/><circle class="cls-15" cx="830.98" cy="271.01" r="64"/><path class="cls-6" d="M915.45,231.39a85.38,85.38,0,0,0-2.26-15.09c-3.76-16.17-10.63-32.09-22.46-43.7a87.56,87.56,0,0,0-2.61-8.39,1.18,1.18,0,0,0-.07-.2A93.9,93.9,0,0,0,873,137.24c-3.75-4.66-8.61-9.26-14.59-9.44-1.68-.06-3.46.23-5-.54a9,9,0,0,1-2.79-2.86,26.19,26.19,0,0,0-25.36-9.49l-.62.13c-.35.07-.7.15-1,.24l-1.26.37q.69,1.14,1.35,2.31,1.79,3.17,3.3,6.48,1.26,2.76,2.33,5.61c-10.24,1.17-18.58,8.44-26.2,15.36l-17.94,16.28-.09.09-.52.5c-.13.13-.26.26-.38.4a.86.86,0,0,0-.13.14c-.15.16-.29.33-.43.5a6.71,6.71,0,0,0-.67,1,3.1,3.1,0,0,0-.26.47,1,1,0,0,0-.07.15,2.63,2.63,0,0,0-.17.42.06.06,0,0,0,0,.06,1.82,1.82,0,0,0-.07.25,2.94,2.94,0,0,0,.17,2.12l11.83.13h1.39c.06,1.58.11,3.17.17,4.75a66.35,66.35,0,0,0-5.4,4.5,56.51,56.51,0,0,0-5.27,5.56C774.6,195.62,769,212.27,768.47,229v6.12c0,1,.09,2,.17,3a7.45,7.45,0,0,0,1,3.71,4.39,4.39,0,0,0,.28.36,6.94,6.94,0,0,0,2.12,1.56l.86.42h0c.43.21.84.41,1.24.64,3.77,2.13,6,6.24,9.43,8.88.2.15.4.3.6.43l.45.3.28.18.38.22a7.08,7.08,0,0,0,.77.41h0l.48.24h.08c.4.18.8.35,1.21.5l.57.2.17.06c.16.05.33.11.5.15l1,.27,1,.22c.39.07.79.14,1.19.19l.59.08.6.06q1.42.12,2.88.15h0a72.49,72.49,0,0,0,9.07-.63l25.52-3c5.79-.67,11.7-1.34,17.41-.16,4.84,1,9.3,3.3,14,4.93,1.06.37,2.12.71,3.19,1,.39.11.79.23,1.19.33l.55.14,1.28.31c.46.11.92.22,1.38.31.65.14,1.29.26,1.94.38.44.09.89.16,1.34.24h.09l1.28.2h.31l1,.13c.46.07.92.13,1.39.18q1.53.18,3.06.33c1.65.16,3.31.28,5,.38l1.66.1,1.66.08,5,.22h.92a25.91,25.91,0,0,0,6.22-.32c.36-.07.71-.15,1.06-.25s.64-.2,1-.32c3.75-1.44,6.49-4.75,8.39-8.29.4-.75.77-1.5,1.11-2.27s.65-1.55.93-2.33c.35-1,.65-1.95.91-2.95.08-.27.15-.54.21-.82s.2-.83.28-1.25c.25-1.15.44-2.31.58-3.48a10.67,10.67,0,0,1,.13-1.12c.09-1,.16-1.93.2-2.91V234.3C915.52,233.49,915.45,232.42,915.45,231.39Zm-25.64-59.7c-.81-.76-1.64-1.49-2.48-2.18a10.27,10.27,0,0,1,2.47,2.18Z"/><path class="cls-21" d="M708.15,267.49c-7.53-.93-15-4.23-22.43-2.61-4.65,1-8.65,3.89-12.37,6.86a150.07,150.07,0,0,0-34.77,39.75,21.1,21.1,0,0,0-3.21,7.52c-.48,3.12.37,6.29,1.38,9.28,6.84,20.21,21.47,37.09,28.13,57.36,7,21.32,4.57,44.62-.59,66.46a277.9,277.9,0,0,1-30.84,76.7,44,44,0,0,1-7.1,9.72c-3.64,3.5-8.53,6-10.69,10.58-1,2-1.29,4.28-2,6.42-2,6-6.84,11.14-7.31,17.47-.35,4.83,1.94,9.4,3.33,14a38.65,38.65,0,0,1-.71,24.1c-5.07,13.9-18.33,26.54-14.48,40.83,8.59-2.47,18.11-5.68,22.16-13.65,1.43-2.82,2.14-6.18,4.55-8.24,4.81-4.09,13-.39,18.11-4.15,3.86-2.86,4-8.72,2.28-13.22s-4.68-8.46-6-13.09c-2.3-8.35,1.38-17.18.7-25.81-.32-4-1.55-7.83-1.64-11.81-.17-7.73,4.11-15,9.8-20.25s12.72-8.73,19.64-12.16l26.16-13c9.49-4.7,19.89-10.43,23-20.55,1.18-3.79,1.19-7.83,1.25-11.79.89-60.51,16-119.8,31.12-178.41,2.34-9.08,4.72-18.2,8.2-26.92s10.29-15.72,13.76-23.82C747.45,252.7,729.06,270.11,708.15,267.49Z"/><path class="cls-22" d="M852.36,647.1c2.31,14,3.72,28.3,4.82,42.53-18,14.92-37.38,27.9-57.07,39.94-1.12.69-2.25,1.37-3.38,2l-.09.48a2.53,2.53,0,0,0-.16-.33A15.05,15.05,0,0,0,789,724.3q-11.07-23.25-22.12-46.5c-4-8.37-8-16.82-10-25.85a4,4,0,0,0-.12-.58c-1.52-7-1.87-14.27-2.88-21.36a61.87,61.87,0,0,0-2.73-11.94c-1.2-3.45-2.85-6.8-4.31-10.17-1.8-4.16-3.31-8.37-3.38-12.86,0-1.43.09-3-.61-4.2a10.87,10.87,0,0,0-2.73-2.64,10.42,10.42,0,0,1-3.36-9.51c-6,.31-9.38,6.76-11.79,12.23a66.75,66.75,0,0,1-8.56,15,28.56,28.56,0,0,1-9.48,7.89c-.33.16-.66.32-1,.46-8.35,3.68-18.1,2.38-27.15.72-7.91-1.45-16.09-3.25-22.45-8.17l-.68-.54a29.77,29.77,0,0,1-5-5.34c-5.33-7.28-7.69-16.87-9-26-.12-.86-.24-1.72-.35-2.58a96.15,96.15,0,0,1-.75-19.48c.12-1.6.29-3.2.5-4.79.14-1,.29-2.08.46-3.12a.14.14,0,0,1,0-.09c.26-1.65.54-3.31.82-5,1-5.67,2-11.49,5-16.37a30.67,30.67,0,0,1,7.36-7.88c1.08-.85,2.19-1.66,3.31-2.44,1.82-1.26,3.69-2.46,5.59-3.59a96.2,96.2,0,0,1,15-7.3c1.24-.48,2.5-.93,3.76-1.36a29.53,29.53,0,0,1,15.28-1.21,81.27,81.27,0,0,0,13.68.8c11.73-.23,23.51-2.47,35.22-3.92,16.26-2,33.73-2.24,47.91,6,.68.39,1.34.8,2,1.23,7,4.58,12.64,11,17.19,18.17,1,1.51,1.87,3.06,2.73,4.63a119.38,119.38,0,0,1,5.37,11.1,13.89,13.89,0,0,1,1.49,6,8,8,0,0,1-.16,1.18c-.27,1.42-.81,2.8-1,4.24-.63,5.45,4,10,5.73,15.19,1.12,3.38,1,7,1.63,10.56.91,5,3.36,9.5,5.56,14a174.49,174.49,0,0,1,8.9,22.37c1.74,5.33,3.23,10.74,4.54,16.2q.64,2.63,1.21,5.27C850.68,637.59,851.57,642.33,852.36,647.1Z"/><polygon class="cls-2" points="958.98 499.01 958.98 506.01 957.69 505.99 956.25 505.97 940.17 505.77 900.55 505.25 889.43 505.11 886.55 505.07 869.86 504.86 846.34 504.55 796.44 503.9 709.85 502.78 678.6 502.38 666.06 502.22 654.52 502.07 647.33 501.97 640.52 501.88 590.03 501.23 576.03 501.05 572.98 501.01 571 495.9 556.61 458.79 553.98 452.01 555.98 444.01 564.98 450.01 570.52 450.7 661.73 462.04 678.85 464.17 715.15 468.69 750.71 473.11 764.65 474.84 847.14 485.1 870.19 487.97 889.27 490.34 957.11 498.78 958.98 499.01"/><polygon class="cls-6" points="555.98 444.01 573.98 491.01 958.98 499.01 958.98 448.01 555.98 444.01"/><polygon class="cls-2" points="575.98 496.01 578.98 783.01 592.98 781.01 589.98 496.01 575.98 496.01"/><path class="cls-2" d="M957.69,506h-1.44a316.63,316.63,0,0,1-11.53,52.79l-4.55-53-.19-2.26,16.82-1.94.56-.06Z"/><polygon class="cls-11" points="902.98 472.01 756.48 475.01 710.98 460.01 832.98 453.01 902.98 472.01"/><path class="cls-15" d="M719.21,413.69a9.72,9.72,0,0,0-4,2.85,10.47,10.47,0,0,0-1.49,4.54l-2.46,14.67a6.45,6.45,0,0,0,.19,4.07c.64,1.23,2.5,1.87,3.43.85-.12,2.87.13,5.93,1.8,8.27s5.17,3.57,7.53,1.94a4.88,4.88,0,0,0,6.71,1.61,5,5,0,0,0,.64-.47c-1.42.48-1.52,2.65-.51,3.75a6.54,6.54,0,0,0,4.08,1.63,99.79,99.79,0,0,0,51.9-6.53c1.55-.64-2.53-19.75-2.94-21.71-1-4.61-1.5-10.24-5.39-13.34-9.3-7.42-25.82-8.88-37.15-8A63.79,63.79,0,0,0,719.21,413.69Z"/><path class="cls-8" d="M868.27,415.91c-36.17.69-73.09,1.28-107.61-9.55a73,73,0,0,1-.66,38.87l169.12,14c7.17.59,36.9,3.95,43.89,2.26s-58.65-23.31-56-30c7.29-18.43,31.71-29.23,14.12-29.92C908.93,400.69,890.64,415.49,868.27,415.91Z"/><path class="cls-23" d="M869.27,417.91c-36.17.69-73.09,1.28-107.61-9.55a73,73,0,0,1-.66,38.87l169.12,14c7.17.59,36.9,4,43.89,2.26s5.35-10.31,8-17c7.29-18.43-32.29-42.23-49.88-42.92C909.93,402.69,891.64,417.49,869.27,417.91Z"/><path class="cls-15" d="M811.76,420.69a9.72,9.72,0,0,1,4,2.85,10.75,10.75,0,0,1,1.5,4.54l2.46,14.67a6.59,6.59,0,0,1-.19,4.07c-.64,1.23-2.51,1.87-3.43.85.11,2.87-.13,5.93-1.8,8.27s-5.17,3.57-7.54,1.94a4.89,4.89,0,0,1-6.71,1.61,5,5,0,0,1-.64-.47c1.42.48,1.53,2.65.52,3.75a6.59,6.59,0,0,1-4.09,1.63A99.75,99.75,0,0,1,744,457.87c-1.55-.64,2.52-19.75,2.94-21.71,1-4.61,1.5-10.24,5.39-13.34,9.29-7.42,25.82-8.88,37.15-8A63.74,63.74,0,0,1,811.76,420.69Z"/><path class="cls-24" d="M572.76,388.84c-3.32,4.28-6.65,8.65-8.79,13.64-4.09,9.52-3.49,20.3-2.81,30.64.19,3,.43,6.06,2,8.55a14.47,14.47,0,0,0,5.22,4.45c8.66,4.92,18.8,6.39,28.7,7.49q22.74,2.52,45.64,3.07c37.82.92,76.22-2.17,113.06,6.4-4.56-6.93-4.55-16.1-2-24s7.46-14.78,12.27-21.55c-16.86-5.34-34.94,3-52.6,2.17-18.13-.85-34.91-11.33-53.06-11.32-3.9,0-7.87.49-11.66-.45s-7.46-3.8-7.81-7.69c4.84,1.09,9.43-3.05,11.43-7.59s2.36-9.67,4.3-14.24c4.83-11.37,17.88-16.64,26-26,1.28-1.48,2.49-3.23,2.45-5.19a8.13,8.13,0,0,0-2-4.47c-6.75-9-16.92-14-25.37-21-2.94-2.44-8.87-11.64-12.17-12.49-6.12-1.57-11.31,7.27-15.29,11.58Q600.14,353.59,572.76,388.84Z"/><path class="cls-25" d="M773.84,386.3a33.1,33.1,0,0,1,6.69,6.63,11.42,11.42,0,0,1,2.09,8.94A13.36,13.36,0,0,1,791,388Z"/><g class="cls-14"><path d="M829.3,124.06a86.87,86.87,0,0,0-4.06-9.15,24.52,24.52,0,0,0-2.92.75,86.2,86.2,0,0,1,4.63,8.83A16.77,16.77,0,0,1,829.3,124.06Z"/><path d="M887.32,163.49c.27.22.53.47.79.7A1.07,1.07,0,0,0,888,164Z"/><path d="M794.36,167.89c.52-.41,1-.84,1.56-1.24l-.16-4.75-10.68-.11c-1.73,1.59-3.57,3.87-2.55,6Z"/><path d="M911.12,247.85c-1.9,3.54-4.64,6.86-8.39,8.29-2.89,1.1-6.07,1-9.16.86-10.54-.43-21.26-.9-31.22-4.39-4.66-1.64-9.12-3.93-14-4.94-5.71-1.18-11.62-.51-17.41.17l-25.52,3c-7.53.88-15.92,1.54-21.93-3.08-3.44-2.64-5.66-6.75-9.43-8.87-1.59-.9-3.48-1.48-4.51-3a7.45,7.45,0,0,1-1-3.71c-.08-1.05-.13-2.1-.17-3.15a84.67,84.67,0,0,0,.17,9.15,7.45,7.45,0,0,0,1,3.71c1,1.51,2.92,2.09,4.51,3,3.77,2.12,6,6.23,9.43,8.87,6,4.62,14.4,4,21.93,3.08l25.52-3c5.79-.68,11.7-1.35,17.41-.17,4.84,1,9.3,3.3,14,4.94,10,3.49,20.68,4,31.22,4.39,3.09.13,6.27.24,9.16-.86,3.75-1.43,6.49-4.75,8.39-8.29,3.68-6.85,4.71-14.62,4.32-22.45A39.18,39.18,0,0,1,911.12,247.85Z"/></g><path class="cls-8" d="M829,130.49l14,13S831,138.49,829,130.49Z"/></g></g></svg>