<svg xmlns="http://www.w3.org/2000/svg" xmlns:xlink="http://www.w3.org/1999/xlink" viewBox="0 0 98.61 110.2"><defs><style>.cls-1{fill:url(#Degradado_sin_nombre_8);}.cls-2{fill:url(#Degradado_sin_nombre_8-2);}.cls-3{fill:url(#Degradado_sin_nombre_8-3);}.cls-4{fill:url(#Degradado_sin_nombre_8-4);}</style><linearGradient id="Degradado_sin_nombre_8" x1="28.6" y1="5.26" x2="28.6" y2="99.2" gradientUnits="userSpaceOnUse"><stop offset="0" stop-color="#ff736b"/><stop offset="1" stop-color="#ff2260"/></linearGradient><linearGradient id="Degradado_sin_nombre_8-2" x1="25.43" y1="5.26" x2="25.43" y2="99.2" xlink:href="#Degradado_sin_nombre_8"/><linearGradient id="Degradado_sin_nombre_8-3" x1="74.26" y1="5.26" x2="74.26" y2="99.2" xlink:href="#Degradado_sin_nombre_8"/><linearGradient id="Degradado_sin_nombre_8-4" x1="75.32" y1="5.26" x2="75.32" y2="99.2" xlink:href="#Degradado_sin_nombre_8"/></defs><title>Expert Teachers</title><g id="Layer_2" data-name="Layer 2"><g id="Layer_1-2" data-name="Layer 1"><path class="cls-1" d="M20.51,50.94a14.69,14.69,0,0,1,2.35-5.64,2,2,0,0,1,2.74-.42,1.8,1.8,0,0,1,.45,2.56A13.18,13.18,0,0,0,24.39,56c.59,3.33,1.61,6,7.14,7,3.51.63,3.85,3.33,4.1,5.29a10.91,10.91,0,0,0,4,7.8,23.73,23.73,0,0,0,4.79,3c.89.45,1.81.93,2.73,1.47a29,29,0,0,0,2.41-10.92,17.43,17.43,0,0,0-3.7-10.22l-.5-.64.16-.78a19.16,19.16,0,0,0,.37-4.19,7.88,7.88,0,0,1-2.48.37,10.94,10.94,0,0,1-8.61-3.82c-3.37-4-2.6-8.51-2.44-10.86s.31-4.21.59-6.86c.44-4.11,1-9.22.57-11C32.22,15.92,29.34,16,28.26,16a1.84,1.84,0,1,1-.12-3.67c2.7-.09,7.49.88,9.19,8.36.54,2.38,0,7.36-.51,12.17-.28,2.64-.52,4.56-.57,6.69s-.4,6.06,1.62,8.41c1.26,1.48,3.13,2.28,5.75,2.41a5.5,5.5,0,0,0,4.14-2.78,10.62,10.62,0,0,0-1.58-11.22l-1-1.16,1-1.14a10.81,10.81,0,0,0,2.72-7.46,10.69,10.69,0,0,0-2.28-6.26l-.88-1.13.93-1.1a10.87,10.87,0,0,0,2.59-7.34C49.1,4.29,44.59-.13,38.35.07,34,.2,30.81,2,29,6.16c-4.36-1.16-9.46,2.63-10.6,6.4S18,21.13,22.89,27.05a18.25,18.25,0,0,0,2.32,2.33,1.76,1.76,0,0,1,.16,2.6,2.06,2.06,0,0,1-2.77.16,22.53,22.53,0,0,1-2.8-2.81,24.31,24.31,0,0,1-5.24-12.21c-7.45,5.1-8.41,14.48-5,19.64C5.19,43.32,12,51.34,20.51,50.94Z"/><path class="cls-2" d="M42.5,82.23a20.6,20.6,0,0,1-5.59-3.49,14.34,14.34,0,0,1-5.17-10c-.25-2-.34-2-1-2.13a14.08,14.08,0,0,1-6.9-2.92,14.65,14.65,0,0,1-5.47,1.26,17.59,17.59,0,0,1-9.14-2.35A1.79,1.79,0,0,1,8.73,60a2,2,0,0,1,2.71-.51c.22.13,4.94,3,10.12,1.11a13.56,13.56,0,0,1-1.43-6C11.9,54.88,4.28,50,4,41.87-6.69,57.51,6,72.16,20.45,76.3a9.69,9.69,0,0,1,6.74,9.08,8.55,8.55,0,0,1-.52,3A22.73,22.73,0,0,1,31.82,90a18.91,18.91,0,0,1-.07-5.28A2,2,0,0,1,34,83.17a1.84,1.84,0,0,1,1.65,2.08s-.9,5.9,1.69,8.64a12.75,12.75,0,0,1,3.14,6.55,1.87,1.87,0,0,1-1.68,2.08l-.21,0a1.92,1.92,0,0,1-2-1.58C35.41,93.1,27.36,92,24.51,91.73a14.66,14.66,0,0,1-6,3.48,2.11,2.11,0,0,1-.59.11,2,2,0,0,1-1.91-1.22,1.83,1.83,0,0,1,1.2-2.36c3.9-1.3,6-3.54,6-6.31a6.18,6.18,0,0,0-4.06-5.63c-8.06-2.49-14-6.57-17.63-12.12C-3.15,80,7.1,85.29,13.66,84.52a2,2,0,0,1,2.18,1.6,1.87,1.87,0,0,1-1.71,2q-.81.09-1.56.12a17.3,17.3,0,0,1-6-.86C5,94.26,12,105.64,24.79,101c1.6,9,14.8,13.09,22.41,4.59S49.49,85.17,42.5,82.23Z"/><path class="cls-3" d="M51.93,25.6A10.27,10.27,0,0,0,52.07,27a27.57,27.57,0,0,1,4.32-4.6l1.3-1c4.12-3.27,6.19-4.91,5.83-10.41a1.9,1.9,0,0,1,3.78-.23C67.78,18,64.57,20.52,60.12,24l-1.26,1a24.11,24.11,0,0,0-5.13,6.1l0,0-.39.8a10.14,10.14,0,0,0-1.07,4.89,10.32,10.32,0,0,0,1.24,4.58l.39.71-.31.75A14.24,14.24,0,0,0,52.47,49a14.43,14.43,0,0,0,1.05,4.9,16.61,16.61,0,0,1,5.39-4.41,17.06,17.06,0,0,1,9.42-2.06,20.79,20.79,0,0,1,14.94-7h.15c3.35-.11,9.94.85,12.86,4.78,1.27-7.11-1.27-13-8.68-14.46a12.39,12.39,0,0,0-5.71-13.18,15.82,15.82,0,0,1-6.11,8.09c.89,1.2,3,4.42,3,7.85A1.85,1.85,0,0,1,77,35.29h0A1.83,1.83,0,0,1,75,33.54c0-2.42-1.68-4.92-2.35-5.83-3.07,2-5.91,4.2-7.72,9.69a1.94,1.94,0,0,1-2.37,1.18,1.75,1.75,0,0,1-1.25-2.22c2.35-7.11,6.38-9.75,9.94-12.07,3-2,5.65-3.69,7.1-8.14l.29-1.48A11.49,11.49,0,0,0,78.91,12C78.69,5.16,72.58-.22,65.28,0S52.23,6,52.45,12.85a11.75,11.75,0,0,0,1.3,5l.44.87-.54.83A10.44,10.44,0,0,0,51.93,25.6Z"/><path class="cls-4" d="M97.41,69.56a36.81,36.81,0,0,1-3.51,3.66,2,2,0,0,1-2.68,0,1.7,1.7,0,0,1,.06-2.51,34.15,34.15,0,0,0,3.94-4.31l0,0,.68-1.06a13.94,13.94,0,0,0-2.44-18L93,46.86l-.14-.12A14.76,14.76,0,0,0,83.41,44,17.06,17.06,0,0,0,70.58,50.5l-.86,1.07-1.33-.47c-1.18-.41-4.34-.22-7.64,1.51a12.16,12.16,0,0,0-6.17,7.63c-1.7,6.33,3.17,10,4.89,11.23a1.81,1.81,0,0,1,.72,2.42,1.9,1.9,0,0,1-1.59.91,2,2,0,0,1-1-.22,14.22,14.22,0,0,1-4.93-4.53A12.51,12.51,0,0,0,55,82.13l.54.67a42.65,42.65,0,0,0,5.55,4.82c.83.63,1.57,1.2,2.13,1.69,5.29,4.52,4.25,10,3,12.32a1.92,1.92,0,0,1-1.62,1,2,2,0,0,1-.95-.2,1.73,1.73,0,0,1-.79-2.39c.24-.44,2.15-4.35-2.17-8-.52-.45-1.21-1-2-1.56-1.32-1-2.91-2.24-4.37-3.59a10.14,10.14,0,0,0-.1,1.56,9,9,0,0,0,1.05,3.92l.44.84-.49.82a10.45,10.45,0,0,0-1.49,5.68c.19,6,5.57,10.77,12,10.56A11.65,11.65,0,0,0,76,103.66l.33-.69.75-.26a10.13,10.13,0,0,0,5.08-3.87,10.82,10.82,0,0,1-4.52-1.51,9.33,9.33,0,0,1-4.52-7,18,18,0,0,1,1.43-7.88,17.57,17.57,0,0,1-4.81.86,11,11,0,0,1-4.11-.55,1.74,1.74,0,0,1-1-2.32,1.94,1.94,0,0,1,2.47-1c2.12.8,8.8.08,11.09-4,2.35-4.2,3-6.38,2.1-8.49a5,5,0,0,0-3.72-3,8.11,8.11,0,0,0-6.8,2A2,2,0,0,1,67.06,66a1.72,1.72,0,0,1,.08-2.52,12.3,12.3,0,0,1,8.49-3.11,14.37,14.37,0,0,0,.09-6.54,1.78,1.78,0,0,1,1.4-2.15,1.9,1.9,0,0,1,2.28,1.3,17.82,17.82,0,0,1-.08,8.21,8.57,8.57,0,0,1,4.47,4.55c1.82,4.37-.36,8.37-4.08,14.53,0,0-3.22,5.68-2.8,9.75a5.68,5.68,0,0,0,2.81,4.36C90.16,100.39,102.55,83.44,97.41,69.56Z"/></g></g></svg>