<svg xmlns="http://www.w3.org/2000/svg" xmlns:xlink="http://www.w3.org/1999/xlink" viewBox="0 0 203.13 402.4"><defs><style>.cls-1{isolation:isolate;}.cls-2{fill:#ffa39f;}.cls-3{fill:#233862;}.cls-4{fill:#f24b46;}.cls-5{fill:#ff7d78;}.cls-6{fill:url(#linear-gradient);}.cls-7{fill:url(#Degradado_sin_nombre_8);}.cls-8{fill:#7831bb;}.cls-9{fill:#6615b2;}.cls-10{fill:url(#linear-gradient-2);}.cls-11{fill:#b589b6;opacity:0.5;mix-blend-mode:multiply;}.cls-12{fill:url(#linear-gradient-3);}.cls-13{fill:url(#linear-gradient-4);}.cls-14{fill:url(#linear-gradient-5);}</style><linearGradient id="linear-gradient" x1="97.13" y1="372.96" x2="97.13" y2="151.54" gradientUnits="userSpaceOnUse"><stop offset="0" stop-color="#00f0ff"/><stop offset="1" stop-color="#553eff"/></linearGradient><linearGradient id="Degradado_sin_nombre_8" x1="330.33" y1="84.15" x2="330.33" y2="160.98" gradientTransform="matrix(-1, 0, 0, 1, 461.13, 0)" gradientUnits="userSpaceOnUse"><stop offset="0" stop-color="#ff736b"/><stop offset="1" stop-color="#ff2260"/></linearGradient><linearGradient id="linear-gradient-2" x1="68.41" y1="59.45" x2="62.05" y2="198.15" gradientUnits="userSpaceOnUse"><stop offset="0" stop-color="#fe3eff"/><stop offset="1" stop-color="#423eff"/></linearGradient><linearGradient id="linear-gradient-3" x1="147.77" y1="372.96" x2="147.77" y2="151.54" xlink:href="#linear-gradient"/><linearGradient id="linear-gradient-4" x1="141.1" y1="16.22" x2="156.98" y2="211.04" xlink:href="#linear-gradient-2"/><linearGradient id="linear-gradient-5" x1="152" y1="63.68" x2="155.17" y2="140.97" xlink:href="#linear-gradient-2"/></defs><title>F_character</title><g class="cls-1"><g id="Layer_2" data-name="Layer 2"><g id="Layer_1-2" data-name="Layer 1"><polygon class="cls-2" points="149.7 355.35 143.33 382.16 133.79 382.11 133.44 355.35 149.7 355.35"/><polygon class="cls-2" points="69.48 356.49 51.37 382.16 44.31 373.09 55.21 352.96 69.48 356.49"/><path class="cls-3" d="M113.46,64.78c-1.22-2.51-2.58-7-3.25-14.93.11.79,1.48,10.82,5.33,16.5,15.84,10.4,46.2,45.12,45.6,51.7,0,0,3.35-3.15,8.22-7.62l1.12-6.76a13.26,13.26,0,0,1,.62,5.16c9.09-8.33,22.13-20.08,29.1-25.38a82.86,82.86,0,0,0-3.28-8c2,.56,4.45,4.29,5.63,6.28a5.73,5.73,0,0,1,.58-.38S201.05,65,177.42,52.75C165,46.34,156.54,43.68,157,35.54s-3.24-43.19-27-34c0,0-3.82-1.7-5.53-1.44a4.64,4.64,0,0,1,2.11,1,18.42,18.42,0,0,0-10,1.91C107.85,8,100,52.43,113.46,64.78Z"/><path class="cls-2" d="M116.48,66.87c-.08,0,7.65,4,13.46,2.45,5.47-1.49,9-8.58,9-8.59-2.31-.46-3-3.64-2.93-17.32l-1.05.21-17.59,3.49s.4,5.53.41,10.75C117.75,62.24,117.48,66.4,116.48,66.87Z"/><path class="cls-4" d="M136.38,8.73S127.7-.52,116.8,8.25C116.8,8.25,123.15,7.16,136.38,8.73Z"/><path class="cls-5" d="M117.33,47.11s.4,5.53.41,10.75c9.85-.28,15-9.26,17.18-14.24Z"/><path class="cls-3" d="M136.74,41.71s5.16-8.16,6.4-15.13c.89-5-1.65-23.43-20.19-20.77a25.17,25.17,0,0,0-10.45,4c-4,2.71-9.84,8.58-3.34,24.69l1.69,5.44Z"/><path class="cls-6" d="M47.18,366.06l9.33.28,10.1.31s23.32-26,36.41-67.59q.45-1.46,1-2.94c7.16-20.88,22-47.08,29.83-70.8,1.24-3.78,2.36-7.34,3.36-10.71.32-1.07.64-2.13.94-3.17,5.76-20,7.43-33.18,9-47.23l-56.49.45S81.48,260.6,47.18,366.06Z"/><path class="cls-7" d="M98.5,132.2c.14,26.88-3.94,38.41-3.94,38.41a75.87,75.87,0,0,0,52.93,3.24c.33-.1,23.79-5.46,23.79-5.46-.48-1.08-4.75-19.2-5.22-20.2-6.07-13-10.68-18.74-11.4-22.75a85.68,85.68,0,0,1-.7-22.52,181.23,181.23,0,0,1,7-35.36c-7.83-1.78-15.37-4.83-23.52-7.89C135.54,62,130,64.37,125,64.26c-5.73-.13-7.52-2.55-7.31-5.28-6.1,3.4-11,6.63-11,6.63-5.18,9-15.7,17.75-16.46,31.57C90.13,100.57,98.5,131.45,98.5,132.2Z"/><path class="cls-8" d="M147.08,135.2c2.47,3.49,7.2,24.73,19,27.4-6.07-15.14-10.68-21.77-11.4-26.43A115.34,115.34,0,0,1,154,110c-3.94-6.91-6.88-11.65-6.88-11.65-.31-1.12-6.27-19.53-8.18-3.07S144.32,131.29,147.08,135.2Z"/><path class="cls-2" d="M114,52.05s23.3.38,23.31-14.13,3-24.24-11.84-25.1-17.77,4.67-19,9.52S108,51.57,114,52.05Z"/><path class="cls-3" d="M107.25,14.27c3.59-4.36,6.31-3.41,7.84-2.1,5-7.53,20.95,3.35,20.95,3.35a27.71,27.71,0,0,0,9.07,16.38s-4.25,2.63-14,.11c-7.71-2-13.3-12.95-15.33-17.53-1.39,1.23-4.31,4.08-5.19,6.86-1.16,3.7-1.68,11.31-3.9,11.05C106.65,32.39,101.85,20.82,107.25,14.27Z"/><path class="cls-2" d="M143.65,380.66a25.74,25.74,0,0,0,1.22,11s1.56,7.11-5.45,7.25-8.72-.53-7.93-4.89,2.31-11.91,2.31-11.91Z"/><path class="cls-9" d="M130.83,402.39h14.54c.79-3.72-.5-10.73-.5-10.73-7.93,7.58-12.9-.19-12.9-.19C130.68,394.71,130.83,402.39,130.83,402.39Z"/><path class="cls-2" d="M27.43,395.05s12.91-14.66,16.88-22l9.6,4.92L32.45,398.17l-5-.66Z"/><path class="cls-9" d="M19.51,402.36H37.43c1.57-1.42,3.08-4.28,4.92-8,1.06-2.15,3.42-3.34,5.85-4v12h3.71l3.43-12.79c2.28-4.29.57-8.22-1-11.6-1.87,0-7.3,1.34-16.84,12.3-3.13,3.6-6.59,4.89-10,4.78l-.14.08C21.86,397.62,20.09,400.68,19.51,402.36Z"/><path class="cls-10" d="M20.38,76.13s15.29,8.56,20.76,11c1.94.88,5.46,2.52,9.06,4.2l6.27,2.94a7.89,7.89,0,0,0,9.34-2C74.09,82.6,95.52,61.64,117.66,59l.07,0v0h0l-.12.24c-1.25,3.09-13.38,33.41-13.76,39.81-.39,6.74-1.58,110.21-1.58,110.21S103.08,214,94,212s-11.49-4-11.49-4,8.72-63.83,6.34-86a49.09,49.09,0,0,1,.93-14.31c-13.48,8.17-29.38,11.8-29.38,11.8a135.51,135.51,0,0,1-15.14-8.29A95,95,0,0,1,32.46,101C27.13,96.07,18,84.26,18,84.26Z"/><path class="cls-11" d="M56.51,366.34l10.1.31s23.32-26,36.41-67.59q.45-1.46,1-2.94c7.16-20.88,22-47.08,29.83-70.8,1.24-3.78,2.36-7.34,3.36-10.71.32-1.07.64-2.13.94-3.17l-8.32-6.32s-25,40.44-32.71,78.5C90.37,316.67,63.47,356.45,56.51,366.34Z"/><path class="cls-12" d="M128.92,287.16c-.14,18.51.79,61.06,3.2,78.67h8.95c4.94,0,7.41-.07,7.41-.07,6-30.63,10.34-56,13.48-77.81,2.56-17.91,4.85-33.28,6.6-46.5s3-24.46,3.44-33.87c.07-1.48.12-2.93.15-4.33s0-2.77,0-4.1l-48.8-4.76C124,226.82,129,276.41,128.92,287.16Z"/><path class="cls-11" d="M141.07,365.83c4.94,0,7.41-.07,7.41-.07,6-30.63,10.34-56,13.48-77.81,2.56-17.91,4.85-33.28,6.6-46.5s3-24.46,3.44-33.87l-17.91,10.53s11.43,4,7.07,34.56S147.14,361.51,141.07,365.83Z"/><path class="cls-13" d="M138.76,207.28s3.44,12.42,15.33,10.83,28.81-8.72,28.81-8.72-5.08-16.06-11.4-37.16c-7.65-25.54-17.13-58.47-21.59-79.24a130,130,0,0,1-2.43-14.16L137.41,59.67s-14.51,33-15.3,41.36S138.76,207.28,138.76,207.28Z"/><path class="cls-2" d="M96.29,110.32c5.72.75,7.91,3.8,8.62,7.9a17.47,17.47,0,0,0,2.49,6c5.71.3,19.28,1,30.69,1.77l.94,15a171,171,0,0,1-34.14-8.08,9,9,0,0,1-3.88-2.11c-8.22-6.73-12.88-18-12.89-19.61S90.56,109.57,96.29,110.32Z"/><path class="cls-11" d="M139.29,118.47c.53,13.48,3.7,39.65,32,53.65l.23.11c-7.65-25.54-17.13-58.47-21.59-79.24C144.72,100.75,139,111.05,139.29,118.47Z"/><path class="cls-14" d="M137.41,59.67s24.19,1.72,30,14.67,7.66,56,.26,68.72c0,0-10.19,2.9-28.21-.47l-.66-.13s-5.75-14.07-.6-16.85c0,0,15.2.8,13.61-4.23S137.41,59.67,137.41,59.67Z"/><path class="cls-2" d="M4,66c13-1.67,16.3,10.16,16.3,10.16l-2.43,8.13c-4,.56-7.52-.49-10.76-5.11S3,76.29.91,72.85C-1.88,68.18,2.49,66.44,4,66Z"/><path class="cls-2" d="M41.14,87.15c1.94.88,5.46,2.52,9.06,4.2-1.93,3.41-4.34,9.62-5,19.89a83.41,83.41,0,0,1-13.14-10.59A173.53,173.53,0,0,1,18,84.26l2.43-8.13S35.67,84.69,41.14,87.15Z"/></g></g></g></svg>