<?xml version="1.0" encoding="utf-8"?>
<!-- Generator: Adobe Illustrator 24.0.1, SVG Export Plug-In . SVG Version: 6.00 Build 0)  -->
<svg version="1.1" id="b759170a-51c3-4e2f-999d-77dec9fd6d11"
	 xmlns="http://www.w3.org/2000/svg" xmlns:xlink="http://www.w3.org/1999/xlink" x="0px" y="0px" viewBox="0 0 1140.6 787.3"
	 style="enable-background:new 0 0 1140.6 787.3;" xml:space="preserve">
<style type="text/css">
	.st0{opacity:0.2;fill:url(#SVGID_1_);enable-background:new    ;}
	.st1{opacity:0.2;fill:url(#SVGID_2_);enable-background:new    ;}
	.st2{fill:url(#SVGID_3_);}
	.st3{fill:url(#SVGID_4_);}
	.st4{fill:url(#SVGID_5_);}
	.st5{fill:url(#SVGID_6_);}
	.st6{fill:url(#SVGID_7_);}
	.st7{fill:url(#SVGID_8_);}
	.st8{fill:url(#SVGID_9_);}
	.st9{fill:url(#SVGID_10_);}
	.st10{fill:url(#SVGID_11_);}
	.st11{fill:url(#SVGID_12_);}
	.st12{fill:url(#SVGID_13_);}
	.st13{fill:url(#SVGID_14_);}
	.st14{fill:url(#SVGID_15_);}
	.st15{fill:url(#SVGID_16_);}
	.st16{fill:url(#SVGID_17_);}
	.st17{fill:url(#SVGID_18_);}
	.st18{fill:url(#SVGID_19_);}
	.st19{fill:url(#SVGID_20_);}
	.st20{fill:url(#SVGID_21_);}
	.st21{fill:url(#SVGID_22_);}
	.st22{fill:url(#SVGID_23_);}
	.st23{fill:url(#SVGID_24_);}
	.st24{fill:url(#SVGID_25_);}
	.st25{fill:url(#SVGID_26_);}
	.st26{fill:url(#SVGID_27_);}
	.st27{fill:url(#SVGID_28_);}
	.st28{fill:url(#SVGID_29_);}
	.st29{fill:url(#SVGID_30_);}
	.st30{fill:url(#SVGID_31_);}
	.st31{fill:url(#SVGID_32_);}
	.st32{fill:url(#SVGID_33_);}
	.st33{fill:url(#SVGID_34_);}
	.st34{fill:url(#SVGID_35_);}
	.st35{fill:url(#SVGID_36_);}
	.st36{fill:url(#SVGID_37_);}
	.st37{fill:url(#SVGID_38_);}
	.st38{fill:url(#SVGID_39_);}
	.st39{fill:url(#SVGID_40_);}
	.st40{fill:url(#SVGID_41_);}
	.st41{fill:url(#SVGID_42_);}
	.st42{fill:url(#SVGID_43_);}
	.st43{fill:url(#SVGID_44_);}
	.st44{fill:url(#SVGID_45_);}
	.st45{fill:url(#SVGID_46_);}
	.st46{fill:url(#SVGID_47_);}
	.st47{fill:url(#SVGID_48_);}
	.st48{fill:url(#SVGID_49_);}
	.st49{fill:url(#SVGID_50_);}
	.st50{fill:url(#SVGID_51_);}
	.st51{fill:url(#SVGID_52_);}
	.st52{fill:url(#SVGID_53_);}
	.st53{fill:url(#SVGID_54_);}
	.st54{fill:url(#SVGID_55_);}
	.st55{fill:url(#SVGID_56_);}
	.st56{fill:url(#SVGID_57_);}
	.st57{fill:url(#SVGID_58_);}
	.st58{fill:url(#SVGID_59_);}
	.st59{fill:url(#SVGID_60_);}
	.st60{fill:url(#SVGID_61_);}
	.st61{fill:url(#SVGID_62_);}
	.st62{fill:url(#SVGID_63_);}
	.st63{fill:url(#SVGID_64_);}
	.st64{fill:url(#SVGID_65_);}
	.st65{fill:url(#SVGID_66_);}
	.st66{fill:url(#SVGID_67_);}
	.st67{fill:url(#SVGID_68_);}
	.st68{fill:url(#SVGID_69_);}
	.st69{fill:url(#SVGID_70_);}
	.st70{fill:url(#SVGID_71_);}
	.st71{fill:url(#SVGID_72_);}
	.st72{fill:url(#SVGID_73_);}
	.st73{fill:url(#SVGID_74_);}
	.st74{opacity:0.1;enable-background:new    ;}
	.st75{opacity:0.6;fill:url(#SVGID_75_);}
	.st76{opacity:0.8;fill:#FFFFFF;}
	.st77{fill:#FE5266;}
	.st78{fill:url(#SVGID_76_);}
	.st79{fill:url(#SVGID_77_);}
	.st80{opacity:0.2;fill:#FFFFFF;enable-background:new    ;}
	.st81{fill:none;stroke:#535461;stroke-width:2;stroke-miterlimit:10;}
	.st82{fill:url(#SVGID_78_);}
	.st83{fill:url(#SVGID_79_);}
	.st84{fill:url(#SVGID_80_);}
	.st85{opacity:0.25;enable-background:new    ;}
	.st86{fill:url(#SVGID_81_);}
	.st87{fill:url(#SVGID_82_);}
	.st88{fill:url(#SVGID_83_);}
	.st89{fill:url(#SVGID_84_);}
	.st90{fill:url(#SVGID_85_);}
	.st91{fill:url(#SVGID_86_);}
	.st92{fill:url(#SVGID_87_);}
	.st93{fill:url(#SVGID_88_);}
	.st94{fill:url(#SVGID_89_);}
	.st95{fill:#434175;}
	.st96{fill:url(#SVGID_90_);}
	.st97{fill:#233862;}
	.st98{opacity:5.000000e-02;enable-background:new    ;}
	.st99{fill:url(#SVGID_91_);}
	.st100{fill:#EE8E9E;}
	.st101{fill:#E3E8F4;}
	.st102{fill:url(#SVGID_92_);}
	.st103{fill:url(#SVGID_93_);}
	.st104{fill:url(#SVGID_94_);}
	.st105{fill:#30374E;}
	.st106{fill:url(#SVGID_95_);}
	.st107{fill:url(#SVGID_96_);}
	.st108{fill:url(#SVGID_97_);}
	.st109{fill:#565387;}
	.st110{opacity:0.1;}
	.st111{fill:url(#SVGID_98_);}
	.st112{fill:url(#SVGID_99_);}
</style>
<title>maker launch</title>
<linearGradient id="SVGID_1_" gradientUnits="userSpaceOnUse" x1="-8.985608e-04" y1="366.7587" x2="1075.9424" y2="366.7587">
	<stop  offset="0" style="stop-color:#FF736B;stop-opacity:0.5"/>
	<stop  offset="0.51" style="stop-color:#FF4A66"/>
	<stop  offset="0.77" style="stop-color:#FF3563"/>
	<stop  offset="1" style="stop-color:#FF2260"/>
</linearGradient>
<path class="st0" d="M8.8,414.5c20.2-32.9,65.7-27.2,98.1-10s64.6,42.8,100.2,37.9c30-4.2,54.6-30.3,67.9-60.5s17.2-64.2,20.9-97.5
	c4.7-41.9,9.4-83.8,14.1-125.7c1.7-15.3,3.8-31.5,12.4-43.6c11.4-16,32.3-20.9,50.1-16.1s33.1,17.7,46.1,32.1
	c41.7,46.1,65.4,108.4,101.9,159.7c7.4,10.4,15.8,20.8,26.9,25.8c16,7.3,34.4,2.1,50-6c51-26.3,85.3-79.9,118.9-130
	c16.4-24.3,36.3-50.4,63.6-53c28.7-2.8,53.6,21.6,70.4,47.5c54.1,83.2,65.7,196.9,131,269.5c8.1,9,17.1,17.3,27.4,22.9
	c3.4,1.8,6.9,3.4,10.6,4.7c57,19.7,76,98.9,33.8,145.9c-0.9,1-1.8,2-2.8,3c-6.3,6.6-13.3,12.9-21.8,14.8c-7.9,1.8-16-0.3-23.8-2.5
	c-49.9-14.5-99.1-36.8-150.7-35.7c-50.2,1-97.7,24.2-147.3,32.5c-33.3,5.6-67.3,4.5-101,3.3c-112.3-4-224.6-8.7-336.9-14.1
	c-55.7-2.6-111.5-5-167.2-7.8c-42.9-2.2-70.3-7.1-75.2-57C22.1,510.7-17.1,456.7,8.8,414.5z"/>
<linearGradient id="SVGID_2_" gradientUnits="userSpaceOnUse" x1="519.91" y1="749.54" x2="1059.89" y2="749.54">
	<stop  offset="0" style="stop-color:#FF736B;stop-opacity:0.5"/>
	<stop  offset="0.51" style="stop-color:#FF4A66"/>
	<stop  offset="0.77" style="stop-color:#FF3563"/>
	<stop  offset="1" style="stop-color:#FF2260"/>
</linearGradient>
<ellipse class="st1" cx="789.9" cy="749.5" rx="270" ry="37.7"/>
<linearGradient id="SVGID_3_" gradientUnits="userSpaceOnUse" x1="148.74" y1="590.496" x2="170.59" y2="590.496">
	<stop  offset="0" style="stop-color:#FF736B"/>
	<stop  offset="1" style="stop-color:#FF2260"/>
</linearGradient>
<path class="st2" d="M148.7,586.8c0,0,13.2-3,21.9,5.9c0,0-5.6,5-18.6-0.5L148.7,586.8z"/>
<linearGradient id="SVGID_4_" gradientUnits="userSpaceOnUse" x1="142.7724" y1="597.865" x2="150.9939" y2="597.865">
	<stop  offset="0" style="stop-color:#FF736B"/>
	<stop  offset="1" style="stop-color:#FF2260"/>
</linearGradient>
<path class="st3" d="M147.3,586.6c0,0-7.8,11.1-2.9,22.5c0,0,6.8-3.3,6.6-17.5L147.3,586.6z"/>
<linearGradient id="SVGID_5_" gradientUnits="userSpaceOnUse" x1="138.48" y1="572.4694" x2="165.48" y2="572.4694">
	<stop  offset="0" style="stop-color:#FF736B"/>
	<stop  offset="1" style="stop-color:#FF2260"/>
</linearGradient>
<path class="st4" d="M138.5,569.9c0,0,4.7-10.2,27,2.1c0,0-2.4,6.8-11.9,6.9S141.3,574.9,138.5,569.9z"/>
<linearGradient id="SVGID_6_" gradientUnits="userSpaceOnUse" x1="126.4943" y1="581.7982" x2="140.5579" y2="581.7982">
	<stop  offset="0" style="stop-color:#FF736B"/>
	<stop  offset="1" style="stop-color:#FF2260"/>
</linearGradient>
<path class="st5" d="M137.1,569.3c0,0-11.2-0.5-10.5,24.9c0,0,7.1,1,11.6-7.4S140.2,574.2,137.1,569.3z"/>
<linearGradient id="SVGID_7_" gradientUnits="userSpaceOnUse" x1="129.28" y1="547.467" x2="157.75" y2="547.467">
	<stop  offset="0" style="stop-color:#FF736B"/>
	<stop  offset="1" style="stop-color:#FF2260"/>
</linearGradient>
<path class="st6" d="M129.3,549.5c0,0,5-17.7,28.5-6.9c0,0-4.1,16.2-25.8,12.6L129.3,549.5z"/>
<linearGradient id="SVGID_8_" gradientUnits="userSpaceOnUse" x1="120.57" y1="523.5402" x2="153.06" y2="523.5402">
	<stop  offset="0" style="stop-color:#FF736B"/>
	<stop  offset="1" style="stop-color:#FF2260"/>
</linearGradient>
<path class="st7" d="M120.6,524.2c0,0,10.6-18.2,32.5-3.4c0,0-6.2,16.9-30.3,9.5L120.6,524.2z"/>
<linearGradient id="SVGID_9_" gradientUnits="userSpaceOnUse" x1="116.43" y1="499.0095" x2="150.79" y2="499.0095">
	<stop  offset="0" style="stop-color:#FF736B"/>
	<stop  offset="1" style="stop-color:#FF2260"/>
</linearGradient>
<path class="st8" d="M116.4,499.8c0,0,12.6-17,34.4-2.3c0,0-12.1,14.9-34.1,6.4L116.4,499.8z"/>
<linearGradient id="SVGID_10_" gradientUnits="userSpaceOnUse" x1="112.69" y1="474.9047" x2="146.28" y2="474.9047">
	<stop  offset="0" style="stop-color:#FF736B"/>
	<stop  offset="1" style="stop-color:#FF2260"/>
</linearGradient>
<path class="st9" d="M112.7,476.1c0,0,12.8-17.7,33.6-3.2c0,0-14.7,15.8-33.3,7.1L112.7,476.1z"/>
<linearGradient id="SVGID_11_" gradientUnits="userSpaceOnUse" x1="112.51" y1="450.7698" x2="145.16" y2="450.7698">
	<stop  offset="0" style="stop-color:#FF736B"/>
	<stop  offset="1" style="stop-color:#FF2260"/>
</linearGradient>
<path class="st10" d="M112.5,454.8c0,0,13.1-22.5,32.7-9.2c0,0-14.4,19.6-32.4,13.3L112.5,454.8z"/>
<linearGradient id="SVGID_12_" gradientUnits="userSpaceOnUse" x1="114.28" y1="426.6495" x2="147.37" y2="426.6495">
	<stop  offset="0" style="stop-color:#FF736B"/>
	<stop  offset="1" style="stop-color:#FF2260"/>
</linearGradient>
<path class="st11" d="M114.3,429.8c0,0,14-22.4,33.1-7.2c0,0-17.1,19.8-32.9,11.1L114.3,429.8z"/>
<linearGradient id="SVGID_13_" gradientUnits="userSpaceOnUse" x1="117.46" y1="402.2986" x2="151.46" y2="402.2986">
	<stop  offset="0" style="stop-color:#FF736B"/>
	<stop  offset="1" style="stop-color:#FF2260"/>
</linearGradient>
<path class="st12" d="M117.9,407.4c0,0,17-21.3,33.6-14.4c0,0-17.7,22.6-34,19.8L117.9,407.4z"/>
<linearGradient id="SVGID_14_" gradientUnits="userSpaceOnUse" x1="121.7" y1="378.3556" x2="155.28" y2="378.3556">
	<stop  offset="0" style="stop-color:#FF736B"/>
	<stop  offset="1" style="stop-color:#FF2260"/>
</linearGradient>
<path class="st13" d="M122.9,386c0,0,19.5-26,32.4-18.6c0,0-14.3,20.1-33.6,23.3L122.9,386z"/>
<linearGradient id="SVGID_15_" gradientUnits="userSpaceOnUse" x1="128.43" y1="355.3606" x2="161.53" y2="355.3606">
	<stop  offset="0" style="stop-color:#FF736B"/>
	<stop  offset="1" style="stop-color:#FF2260"/>
</linearGradient>
<path class="st14" d="M130.5,361c0,0,17.2-21.3,31-17.2c0,0-14.4,21.9-33.1,23.7L130.5,361z"/>
<linearGradient id="SVGID_16_" gradientUnits="userSpaceOnUse" x1="136.77" y1="330.8367" x2="165.69" y2="330.8367">
	<stop  offset="0" style="stop-color:#FF736B"/>
	<stop  offset="1" style="stop-color:#FF2260"/>
</linearGradient>
<path class="st15" d="M137.4,337.7c0,0,19.2-20.6,28.3-17.8c0,0-13.4,22.4-28.9,22.1L137.4,337.7z"/>
<linearGradient id="SVGID_17_" gradientUnits="userSpaceOnUse" x1="144.15" y1="305.7951" x2="169.97" y2="305.7951">
	<stop  offset="0" style="stop-color:#FF736B"/>
	<stop  offset="1" style="stop-color:#FF2260"/>
</linearGradient>
<path class="st16" d="M144.1,316.2c0,0,16.1-24.2,25.8-23c0,0-9.3,21.2-25.7,25.3L144.1,316.2z"/>
<linearGradient id="SVGID_18_" gradientUnits="userSpaceOnUse" x1="150.88" y1="280.56" x2="173.95" y2="280.56">
	<stop  offset="0" style="stop-color:#FF736B"/>
	<stop  offset="1" style="stop-color:#FF2260"/>
</linearGradient>
<path class="st17" d="M151.1,287.2c0,0,14.4-18.7,22.8-19.2c0,0-10.7,24.3-23.1,25L151.1,287.2z"/>
<linearGradient id="SVGID_19_" gradientUnits="userSpaceOnUse" x1="153.72" y1="252.65" x2="167.9242" y2="252.65">
	<stop  offset="0" style="stop-color:#FF736B"/>
	<stop  offset="1" style="stop-color:#FF2260"/>
</linearGradient>
<path class="st18" d="M155.1,268l12.6-37.7c0,0,3,33.1-14,44.6L155.1,268z"/>
<linearGradient id="SVGID_20_" gradientUnits="userSpaceOnUse" x1="157.2" y1="217.355" x2="163.4352" y2="217.355">
	<stop  offset="0" style="stop-color:#FF736B"/>
	<stop  offset="1" style="stop-color:#FF2260"/>
</linearGradient>
<path class="st19" d="M158.5,227.2c0,0,0.4-30.8-1.3-33.2c0,0,12.5,24.7,2.1,46.7L158.5,227.2z"/>
<linearGradient id="SVGID_21_" gradientUnits="userSpaceOnUse" x1="103.87" y1="557.22" x2="130.87" y2="557.22">
	<stop  offset="0" style="stop-color:#FF736B"/>
	<stop  offset="1" style="stop-color:#FF2260"/>
</linearGradient>
<path class="st20" d="M128.6,549.2c0,0-16.3-8.6-24.8,15.7c0,0,14.5,8.3,27-9.8L128.6,549.2z"/>
<linearGradient id="SVGID_22_" gradientUnits="userSpaceOnUse" x1="92.65" y1="532.6556" x2="122.16" y2="532.6556">
	<stop  offset="0" style="stop-color:#FF736B"/>
	<stop  offset="1" style="stop-color:#FF2260"/>
</linearGradient>
<path class="st21" d="M120,523.2c0,0-19.7-7.5-27.3,17.9c0,0,15.5,9.2,29.5-11.8L120,523.2z"/>
<linearGradient id="SVGID_23_" gradientUnits="userSpaceOnUse" x1="81.28" y1="502.653" x2="115.91" y2="502.653">
	<stop  offset="0" style="stop-color:#FF736B"/>
	<stop  offset="1" style="stop-color:#FF2260"/>
</linearGradient>
<path class="st22" d="M115.6,501.3c0,0-14.8-15.1-34.4,2.3c0,0,13.9,13.2,34.6,1.8L115.6,501.3z"/>
<linearGradient id="SVGID_24_" gradientUnits="userSpaceOnUse" x1="78.51" y1="476.9269" x2="112.51" y2="476.9269">
	<stop  offset="0" style="stop-color:#FF736B"/>
	<stop  offset="1" style="stop-color:#FF2260"/>
</linearGradient>
<path class="st23" d="M112.2,476.1c0,0-15-15.8-33.7,1.4c0,0,16.7,13.7,34,2.5L112.2,476.1z"/>
<linearGradient id="SVGID_25_" gradientUnits="userSpaceOnUse" x1="80.72" y1="450.3161" x2="112.55" y2="450.3161">
	<stop  offset="0" style="stop-color:#FF736B"/>
	<stop  offset="1" style="stop-color:#FF2260"/>
</linearGradient>
<path class="st24" d="M112.6,455.4c0,0-11.4-23.5-31.8-11.7c0,0,12.9,20.6,31.2,15.7L112.6,455.4z"/>
<linearGradient id="SVGID_26_" gradientUnits="userSpaceOnUse" x1="83.39" y1="424.7831" x2="115.45" y2="424.7831">
	<stop  offset="0" style="stop-color:#FF736B"/>
	<stop  offset="1" style="stop-color:#FF2260"/>
</linearGradient>
<path class="st25" d="M115.4,429.6c0,0-11.3-23.9-32.1-11.1c0,0,14.7,21.6,31.3,14.9L115.4,429.6z"/>
<linearGradient id="SVGID_27_" gradientUnits="userSpaceOnUse" x1="96.43" y1="395.91" x2="119.98" y2="395.91">
	<stop  offset="0" style="stop-color:#FF736B"/>
	<stop  offset="1" style="stop-color:#FF2260"/>
</linearGradient>
<path class="st26" d="M120,407.3c0,0-5.6-26.7-23.6-27.9c0,0,5.7,28.1,21.5,32.9L120,407.3z"/>
<linearGradient id="SVGID_28_" gradientUnits="userSpaceOnUse" x1="104.91" y1="372.095" x2="123.37" y2="372.095">
	<stop  offset="0" style="stop-color:#FF736B"/>
	<stop  offset="1" style="stop-color:#FF2260"/>
</linearGradient>
<path class="st27" d="M123.4,386c0,0-3.7-32.3-18.5-32.5c0,0,2.1,24.6,17.1,37.1L123.4,386z"/>
<linearGradient id="SVGID_29_" gradientUnits="userSpaceOnUse" x1="111.53" y1="348.85" x2="132" y2="348.85">
	<stop  offset="0" style="stop-color:#FF736B"/>
	<stop  offset="1" style="stop-color:#FF2260"/>
</linearGradient>
<path class="st28" d="M132,360c0,0-6.2-26.7-20.5-29c0,0,3.5,26,19.5,35.7L132,360z"/>
<linearGradient id="SVGID_30_" gradientUnits="userSpaceOnUse" x1="127.6641" y1="323.86" x2="139.06" y2="323.86">
	<stop  offset="0" style="stop-color:#FF736B"/>
	<stop  offset="1" style="stop-color:#FF2260"/>
</linearGradient>
<path class="st29" d="M139.1,337.8c0,0-2-28.1-10.9-31.6c0,0-3.6,25.8,8.6,35.4L139.1,337.8z"/>
<linearGradient id="SVGID_31_" gradientUnits="userSpaceOnUse" x1="132.4245" y1="300.63" x2="144.79" y2="300.63">
	<stop  offset="0" style="stop-color:#FF736B"/>
	<stop  offset="1" style="stop-color:#FF2260"/>
</linearGradient>
<path class="st30" d="M144.8,315.8c0,0-3.1-28.8-12.3-32.3c0,0-1.5,23.1,11.1,34.3L144.8,315.8z"/>
<linearGradient id="SVGID_32_" gradientUnits="userSpaceOnUse" x1="143.1355" y1="277.63" x2="152.54" y2="277.63">
	<stop  offset="0" style="stop-color:#FF736B"/>
	<stop  offset="1" style="stop-color:#FF2260"/>
</linearGradient>
<path class="st31" d="M152.5,289.5c0,0-1.6-23.5-8.4-28.6c0,0-4.6,26.2,5.4,33.6L152.5,289.5z"/>
<linearGradient id="SVGID_33_" gradientUnits="userSpaceOnUse" x1="144.2689" y1="251.07" x2="155.05" y2="251.07">
	<stop  offset="0" style="stop-color:#FF736B"/>
	<stop  offset="1" style="stop-color:#FF2260"/>
</linearGradient>
<path class="st32" d="M154.3,266.9l-8.8-38.7c0,0-6.2,32.6,9.6,45.8L154.3,266.9z"/>
<linearGradient id="SVGID_34_" gradientUnits="userSpaceOnUse" x1="135.4192" y1="219.645" x2="159.83" y2="219.645">
	<stop  offset="0" style="stop-color:#FF736B"/>
	<stop  offset="1" style="stop-color:#FF2260"/>
</linearGradient>
<path class="st33" d="M152.9,227.9c0,0-17.6-25.3-17.5-28.2c0,0,3.5,27.5,24.4,39.9L152.9,227.9z"/>
<linearGradient id="SVGID_35_" gradientUnits="userSpaceOnUse" x1="129.85" y1="200.53" x2="155.46" y2="200.53">
	<stop  offset="0" style="stop-color:#FF736B"/>
	<stop  offset="1" style="stop-color:#FF2260"/>
</linearGradient>
<path class="st34" d="M154.3,220c0,0-17.5-36.4-24.4-39c0,0,22.1,9.4,25.6,37.8L154.3,220z"/>
<linearGradient id="SVGID_36_" gradientUnits="userSpaceOnUse" x1="149.82" y1="255.435" x2="159.4211" y2="255.435">
	<stop  offset="0" style="stop-color:#FF736B"/>
	<stop  offset="1" style="stop-color:#FF2260"/>
</linearGradient>
<path class="st35" d="M150.8,293.3l-1-0.3c9.9-42,11.2-68.5,3.9-74.6l0.7-0.8C162.1,224.1,160.9,250.2,150.8,293.3z"/>
<linearGradient id="SVGID_37_" gradientUnits="userSpaceOnUse" x1="120.99" y1="341.02" x2="151.54" y2="341.02">
	<stop  offset="0" style="stop-color:#FF736B"/>
	<stop  offset="1" style="stop-color:#FF2260"/>
</linearGradient>
<path class="st36" d="M122.5,391.9l-1.6-0.4c1.1-3.9,2.3-7.8,3.5-11.7c11-33.7,20.1-65,25.8-88.9l1.3-0.8
	c-5.6,24-14.5,56.4-25.5,90.2C124.8,384.2,123.6,388.1,122.5,391.9z"/>
<linearGradient id="SVGID_38_" gradientUnits="userSpaceOnUse" x1="110.8864" y1="502.355" x2="171.07" y2="502.355">
	<stop  offset="0" style="stop-color:#FF736B"/>
	<stop  offset="1" style="stop-color:#FF2260"/>
</linearGradient>
<path class="st37" d="M169.6,616.3c-0.2-0.2-22.2-21.9-39.1-60.2c-9.9-22.5-16.2-46.3-18.6-70.8c-3-30.5,1.1-65.1,10-96.9l1.3,1.3
	c-20,71.3-6.2,130.3,9.2,165.4c16.7,38,38.5,59.5,38.7,59.7L169.6,616.3z"/>
<linearGradient id="SVGID_39_" gradientUnits="userSpaceOnUse" x1="193.81" y1="504.3454" x2="207.03" y2="504.3454">
	<stop  offset="0" style="stop-color:#FF736B"/>
	<stop  offset="1" style="stop-color:#FF2260"/>
</linearGradient>
<path class="st38" d="M193.8,502.1c0,0,8-1.8,13.2,3.5c0,0-3.4,3-11.3-0.3L193.8,502.1z"/>
<linearGradient id="SVGID_40_" gradientUnits="userSpaceOnUse" x1="190.222" y1="508.815" x2="195.2212" y2="508.815">
	<stop  offset="0" style="stop-color:#FF736B"/>
	<stop  offset="1" style="stop-color:#FF2260"/>
</linearGradient>
<path class="st39" d="M192.9,502c0,0-4.7,6.7-1.7,13.6c0,0,4.1-2,4-10.5L192.9,502z"/>
<linearGradient id="SVGID_41_" gradientUnits="userSpaceOnUse" x1="187.62" y1="493.4511" x2="203.92" y2="493.4511">
	<stop  offset="0" style="stop-color:#FF736B"/>
	<stop  offset="1" style="stop-color:#FF2260"/>
</linearGradient>
<path class="st40" d="M187.6,491.9c0,0,2.8-6.1,16.3,1.3c0,0-1.4,4.1-7.2,4.2S189.3,494.9,187.6,491.9z"/>
<linearGradient id="SVGID_42_" gradientUnits="userSpaceOnUse" x1="180.3645" y1="499.0908" x2="188.8682" y2="499.0908">
	<stop  offset="0" style="stop-color:#FF736B"/>
	<stop  offset="1" style="stop-color:#FF2260"/>
</linearGradient>
<path class="st41" d="M186.8,491.5c0,0-6.8-0.3-6.4,15.1c0,0,4.3,0.6,7-4.5S188.6,494.5,186.8,491.5z"/>
<linearGradient id="SVGID_43_" gradientUnits="userSpaceOnUse" x1="182.03" y1="478.3233" x2="199.26" y2="478.3233">
	<stop  offset="0" style="stop-color:#FF736B"/>
	<stop  offset="1" style="stop-color:#FF2260"/>
</linearGradient>
<path class="st42" d="M182,479.6c0,0,3.1-10.7,17.2-4.2c0,0-2.5,9.8-15.6,7.6L182,479.6z"/>
<linearGradient id="SVGID_44_" gradientUnits="userSpaceOnUse" x1="176.79" y1="463.8781" x2="196.43" y2="463.8781">
	<stop  offset="0" style="stop-color:#FF736B"/>
	<stop  offset="1" style="stop-color:#FF2260"/>
</linearGradient>
<path class="st43" d="M176.8,464.3c0,0,6.4-11,19.6-2.1c0,0-3.8,10.2-18.3,5.8L176.8,464.3z"/>
<linearGradient id="SVGID_45_" gradientUnits="userSpaceOnUse" x1="174.28" y1="449.035" x2="195.05" y2="449.035">
	<stop  offset="0" style="stop-color:#FF736B"/>
	<stop  offset="1" style="stop-color:#FF2260"/>
</linearGradient>
<path class="st44" d="M174.3,449.5c0,0,7.6-10.3,20.8-1.4c0,0-7.3,9-20.6,3.9L174.3,449.5z"/>
<linearGradient id="SVGID_46_" gradientUnits="userSpaceOnUse" x1="172.02" y1="434.4727" x2="192.33" y2="434.4727">
	<stop  offset="0" style="stop-color:#FF736B"/>
	<stop  offset="1" style="stop-color:#FF2260"/>
</linearGradient>
<path class="st45" d="M172,435.2c0,0,7.7-10.7,20.3-1.9c0,0-8.9,9.6-20.1,4.3L172,435.2z"/>
<linearGradient id="SVGID_47_" gradientUnits="userSpaceOnUse" x1="171.92" y1="419.8731" x2="191.65" y2="419.8731">
	<stop  offset="0" style="stop-color:#FF736B"/>
	<stop  offset="1" style="stop-color:#FF2260"/>
</linearGradient>
<path class="st46" d="M171.9,422.3c0,0,8-13.6,19.7-5.5c0,0-8.7,11.8-19.6,8L171.9,422.3z"/>
<linearGradient id="SVGID_48_" gradientUnits="userSpaceOnUse" x1="172.96" y1="405.2735" x2="192.96" y2="405.2735">
	<stop  offset="0" style="stop-color:#FF736B"/>
	<stop  offset="1" style="stop-color:#FF2260"/>
</linearGradient>
<path class="st47" d="M173,407.2c0,0,8.5-13.5,20-4.4c0,0-10.3,11.9-19.9,6.7L173,407.2z"/>
<linearGradient id="SVGID_49_" gradientUnits="userSpaceOnUse" x1="174.93" y1="390.584" x2="195.46" y2="390.584">
	<stop  offset="0" style="stop-color:#FF736B"/>
	<stop  offset="1" style="stop-color:#FF2260"/>
</linearGradient>
<path class="st48" d="M175.2,393.6c0,0,10.3-12.9,20.3-8.7c0,0-10.7,13.7-20.5,11.9L175.2,393.6z"/>
<linearGradient id="SVGID_50_" gradientUnits="userSpaceOnUse" x1="177.47" y1="376.1031" x2="197.77" y2="376.1031">
	<stop  offset="0" style="stop-color:#FF736B"/>
	<stop  offset="1" style="stop-color:#FF2260"/>
</linearGradient>
<path class="st49" d="M178.2,380.7c0,0,11.8-15.7,19.6-11.3c0,0-8.6,12.1-20.3,14.1L178.2,380.7z"/>
<linearGradient id="SVGID_51_" gradientUnits="userSpaceOnUse" x1="181.57" y1="362.2177" x2="201.57" y2="362.2177">
	<stop  offset="0" style="stop-color:#FF736B"/>
	<stop  offset="1" style="stop-color:#FF2260"/>
</linearGradient>
<path class="st50" d="M182.8,365.6c0,0,10.4-12.9,18.8-10.4c0,0-8.7,13.2-20,14.3L182.8,365.6z"/>
<linearGradient id="SVGID_52_" gradientUnits="userSpaceOnUse" x1="186.58" y1="347.3775" x2="204.06" y2="347.3775">
	<stop  offset="0" style="stop-color:#FF736B"/>
	<stop  offset="1" style="stop-color:#FF2260"/>
</linearGradient>
<path class="st51" d="M186.9,351.5c0,0,11.6-12.5,17.1-10.8c0,0-8.1,13.5-17.5,13.4L186.9,351.5z"/>
<linearGradient id="SVGID_53_" gradientUnits="userSpaceOnUse" x1="191.04" y1="332.2285" x2="206.65" y2="332.2285">
	<stop  offset="0" style="stop-color:#FF736B"/>
	<stop  offset="1" style="stop-color:#FF2260"/>
</linearGradient>
<path class="st52" d="M191,338.5c0,0,9.7-14.6,15.6-13.9c0,0-5.6,12.8-15.5,15.3L191,338.5z"/>
<linearGradient id="SVGID_54_" gradientUnits="userSpaceOnUse" x1="195.12" y1="316.965" x2="209.07" y2="316.965">
	<stop  offset="0" style="stop-color:#FF736B"/>
	<stop  offset="1" style="stop-color:#FF2260"/>
</linearGradient>
<path class="st53" d="M195.3,321c0,0,8.7-11.3,13.8-11.6c0,0-6.5,14.7-13.9,15.1L195.3,321z"/>
<linearGradient id="SVGID_55_" gradientUnits="userSpaceOnUse" x1="196.79" y1="300.14" x2="205.4009" y2="300.14">
	<stop  offset="0" style="stop-color:#FF736B"/>
	<stop  offset="1" style="stop-color:#FF2260"/>
</linearGradient>
<path class="st54" d="M197.7,309.4l7.6-22.8c0,0,1.8,20-8.5,27L197.7,309.4z"/>
<linearGradient id="SVGID_56_" gradientUnits="userSpaceOnUse" x1="198.93" y1="278.77" x2="202.6987" y2="278.77">
	<stop  offset="0" style="stop-color:#FF736B"/>
	<stop  offset="1" style="stop-color:#FF2260"/>
</linearGradient>
<path class="st55" d="M199.7,284.7c0,0,0.3-18.6-0.8-20c0,0,7.5,15,1.3,28.2L199.7,284.7z"/>
<linearGradient id="SVGID_57_" gradientUnits="userSpaceOnUse" x1="166.66" y1="484.2318" x2="182.99" y2="484.2318">
	<stop  offset="0" style="stop-color:#FF736B"/>
	<stop  offset="1" style="stop-color:#FF2260"/>
</linearGradient>
<path class="st56" d="M181.7,479.4c0,0-9.8-5.2-15,9.5c0,0,8.8,5,16.3-5.9L181.7,479.4z"/>
<linearGradient id="SVGID_58_" gradientUnits="userSpaceOnUse" x1="159.91" y1="469.3393" x2="177.75" y2="469.3393">
	<stop  offset="0" style="stop-color:#FF736B"/>
	<stop  offset="1" style="stop-color:#FF2260"/>
</linearGradient>
<path class="st57" d="M176.4,463.6c0,0-11.9-4.5-16.5,10.8c0,0,9.4,5.5,17.8-7.1L176.4,463.6z"/>
<linearGradient id="SVGID_59_" gradientUnits="userSpaceOnUse" x1="153.03" y1="451.2429" x2="173.97" y2="451.2429">
	<stop  offset="0" style="stop-color:#FF736B"/>
	<stop  offset="1" style="stop-color:#FF2260"/>
</linearGradient>
<path class="st58" d="M173.8,450.4c0,0-8.9-9.1-20.8,1.4c0,0,8.4,8,20.9,1.1L173.8,450.4z"/>
<linearGradient id="SVGID_60_" gradientUnits="userSpaceOnUse" x1="151.36" y1="435.694" x2="171.9" y2="435.694">
	<stop  offset="0" style="stop-color:#FF736B"/>
	<stop  offset="1" style="stop-color:#FF2260"/>
</linearGradient>
<path class="st59" d="M171.7,435.2c0,0-9.1-9.5-20.4,0.8c0,0,10.1,8.3,20.5,1.5L171.7,435.2z"/>
<linearGradient id="SVGID_61_" gradientUnits="userSpaceOnUse" x1="152.69" y1="419.5639" x2="171.94" y2="419.5639">
	<stop  offset="0" style="stop-color:#FF736B"/>
	<stop  offset="1" style="stop-color:#FF2260"/>
</linearGradient>
<path class="st60" d="M171.9,422.6c0,0-6.9-14.2-19.3-7.1c0,0,7.8,12.5,18.9,9.5L171.9,422.6z"/>
<linearGradient id="SVGID_62_" gradientUnits="userSpaceOnUse" x1="154.28" y1="404.1478" x2="173.69" y2="404.1478">
	<stop  offset="0" style="stop-color:#FF736B"/>
	<stop  offset="1" style="stop-color:#FF2260"/>
</linearGradient>
<path class="st61" d="M173.7,407.1c0,0-6.9-14.5-19.4-6.7c0,0,8.9,13.1,18.9,9L173.7,407.1z"/>
<linearGradient id="SVGID_63_" gradientUnits="userSpaceOnUse" x1="162.19" y1="386.725" x2="176.43" y2="386.725">
	<stop  offset="0" style="stop-color:#FF736B"/>
	<stop  offset="1" style="stop-color:#FF2260"/>
</linearGradient>
<path class="st62" d="M176.4,393.6c0,0-3.4-16.1-14.2-16.9c0,0,3.4,17,13,19.9L176.4,393.6z"/>
<linearGradient id="SVGID_64_" gradientUnits="userSpaceOnUse" x1="167.28" y1="372.315" x2="178.48" y2="372.315">
	<stop  offset="0" style="stop-color:#FF736B"/>
	<stop  offset="1" style="stop-color:#FF2260"/>
</linearGradient>
<path class="st63" d="M178.5,380.7c0,0-2.2-19.5-11.2-19.6c0,0,1.3,14.9,10.3,22.5L178.5,380.7z"/>
<linearGradient id="SVGID_65_" gradientUnits="userSpaceOnUse" x1="171.32" y1="358.255" x2="183.69" y2="358.255">
	<stop  offset="0" style="stop-color:#FF736B"/>
	<stop  offset="1" style="stop-color:#FF2260"/>
</linearGradient>
<path class="st64" d="M183.7,365c0,0-3.8-16.1-12.4-17.5c0,0,2.1,15.7,11.8,21.6L183.7,365z"/>
<linearGradient id="SVGID_66_" gradientUnits="userSpaceOnUse" x1="181.0777" y1="343.155" x2="187.96" y2="343.155">
	<stop  offset="0" style="stop-color:#FF736B"/>
	<stop  offset="1" style="stop-color:#FF2260"/>
</linearGradient>
<path class="st65" d="M188,351.6c0,0-1.2-17-6.6-19.1c0,0-2.2,15.6,5.2,21.4L188,351.6z"/>
<linearGradient id="SVGID_67_" gradientUnits="userSpaceOnUse" x1="183.9562" y1="329.11" x2="191.43" y2="329.11">
	<stop  offset="0" style="stop-color:#FF736B"/>
	<stop  offset="1" style="stop-color:#FF2260"/>
</linearGradient>
<path class="st66" d="M191.4,338.3c0,0-1.9-17.4-7.4-19.5c0,0-0.9,14,6.7,20.7L191.4,338.3z"/>
<linearGradient id="SVGID_68_" gradientUnits="userSpaceOnUse" x1="190.4716" y1="315.205" x2="196.11" y2="315.205">
	<stop  offset="0" style="stop-color:#FF736B"/>
	<stop  offset="1" style="stop-color:#FF2260"/>
</linearGradient>
<path class="st67" d="M196.1,322.4c0,0-1-14.2-5-17.3c0,0-2.8,15.8,3.2,20.3L196.1,322.4z"/>
<linearGradient id="SVGID_69_" gradientUnits="userSpaceOnUse" x1="191.1362" y1="299.15" x2="197.65" y2="299.15">
	<stop  offset="0" style="stop-color:#FF736B"/>
	<stop  offset="1" style="stop-color:#FF2260"/>
</linearGradient>
<path class="st68" d="M197.2,308.7l-5.3-23.4c0,0-3.8,19.7,5.8,27.7L197.2,308.7z"/>
<linearGradient id="SVGID_70_" gradientUnits="userSpaceOnUse" x1="185.7695" y1="280.155" x2="200.52" y2="280.155">
	<stop  offset="0" style="stop-color:#FF736B"/>
	<stop  offset="1" style="stop-color:#FF2260"/>
</linearGradient>
<path class="st69" d="M196.3,285.2c0,0-10.6-15.3-10.6-17.1c0,0,2.1,16.6,14.8,24.1L196.3,285.2z"/>
<linearGradient id="SVGID_71_" gradientUnits="userSpaceOnUse" x1="182.37" y1="268.605" x2="197.85" y2="268.605">
	<stop  offset="0" style="stop-color:#FF736B"/>
	<stop  offset="1" style="stop-color:#FF2260"/>
</linearGradient>
<path class="st70" d="M197.1,280.4c0,0-10.6-22-14.8-23.5c0,0,13.4,5.7,15.5,22.9L197.1,280.4z"/>
<linearGradient id="SVGID_72_" gradientUnits="userSpaceOnUse" x1="194.44" y1="301.78" x2="200.2693" y2="301.78">
	<stop  offset="0" style="stop-color:#FF736B"/>
	<stop  offset="1" style="stop-color:#FF2260"/>
</linearGradient>
<path class="st71" d="M195.1,324.6l-0.6-0.2c6-25.4,6.8-41.4,2.4-45.1l0.4-0.5C201.9,282.8,201.2,298.6,195.1,324.6z"/>
<linearGradient id="SVGID_73_" gradientUnits="userSpaceOnUse" x1="177.04" y1="353.55" x2="195.51" y2="353.55">
	<stop  offset="0" style="stop-color:#FF736B"/>
	<stop  offset="1" style="stop-color:#FF2260"/>
</linearGradient>
<path class="st72" d="M178,384.3L177,384c0.7-2.3,1.4-4.7,2.1-7c6.6-20.4,12.2-39.3,15.6-53.8l0.8-0.5c-3.4,14.5-8.8,34.1-15.4,54.5
	C179.3,379.6,178.6,382,178,384.3z"/>
<linearGradient id="SVGID_74_" gradientUnits="userSpaceOnUse" x1="170.9256" y1="451.065" x2="207.33" y2="451.065">
	<stop  offset="0" style="stop-color:#FF736B"/>
	<stop  offset="1" style="stop-color:#FF2260"/>
</linearGradient>
<path class="st73" d="M206.4,520c-0.1-0.1-13.4-13.2-23.6-36.4c-6-13.6-9.8-28-11.3-42.8c-1.8-18.5,0.7-39.4,6.1-58.6l0.8,0.8
	c-12.1,43.1-3.7,78.8,5.6,100c10.1,23,23.3,35.9,23.4,36.1L206.4,520z"/>
<path class="st74" d="M236.5,570c-2.6,0.5-5.1,1.2-7.5,2.1c-9.8-47.7-15.9-96.1-18.5-144.8c1.8-1.5,2.9-2.3,2.9-2.3
	C294.5,454.9,236.5,570,236.5,570z"/>
<path class="st74" d="M426.3,426.9c-3.3,48.5-10.5,96.7-21.6,144c-1.3-0.4-2.5-0.7-3.8-0.9c0,0-58-115.1,23.1-144.9
	C424,425.1,424.8,425.7,426.3,426.9z"/>
<linearGradient id="SVGID_75_" gradientUnits="userSpaceOnUse" x1="212.3143" y1="343.4067" x2="425.0736" y2="343.4067">
	<stop  offset="0" style="stop-color:#FF736B"/>
	<stop  offset="1" style="stop-color:#FF2260"/>
</linearGradient>
<path class="st75" d="M396.6,591.8c-5.6,22.1-12.2,44.8-19.7,68c-11.3,34.9-35.7,37.2-122,0c0,0-8.6-24.3-18.1-65.6
	c-20.9-90.8-45.9-263.9,7.4-441.7C260.1,99,282.7,47.8,311.4,0c0,0,45.6,52.3,79,152.4S445.1,400.5,396.6,591.8z"/>
<circle class="st76" cx="318.7" cy="293.6" r="71.6"/>
<path class="st77" d="M369.5,293.6c0,28.1-22.7,50.8-50.8,50.8c-11.7,0-23.1-4.1-32.2-11.5c-3.6-3-6.8-6.5-9.5-10.3
	c-1.2-1.7-2.3-3.5-3.3-5.4c-3.8-7.3-5.8-15.4-5.8-23.6c0-0.4,0-0.8,0-1.2c0.5-22.3,15.5-41.6,37-47.7c4-1.1,8.1-1.7,12.2-1.9h1.5
	C346.7,242.8,369.4,265.6,369.5,293.6C369.5,293.6,369.5,293.6,369.5,293.6z"/>
<linearGradient id="SVGID_76_" gradientUnits="userSpaceOnUse" x1="244.18" y1="84.8617" x2="390.4" y2="84.8617">
	<stop  offset="0" style="stop-color:#FF736B"/>
	<stop  offset="1" style="stop-color:#FF2260"/>
</linearGradient>
<path class="st78" d="M390.4,152.4c-81.3,38.9-146.2,0-146.2,0C260.1,99,282.7,47.8,311.4,0C311.4,0,357,52.3,390.4,152.4z"/>
<linearGradient id="SVGID_77_" gradientUnits="userSpaceOnUse" x1="236.76" y1="635.4311" x2="396.59" y2="635.4311">
	<stop  offset="0" style="stop-color:#FF736B"/>
	<stop  offset="1" style="stop-color:#FF2260"/>
</linearGradient>
<path class="st79" d="M396.6,591.8c-3.8,15-8,30.2-12.7,45.7c-2.2,7.4-4.5,14.8-7,22.3c-3.7,11.3-35.7,37.2-122,0
	c0,0-2.8-7.9-7-22.3c-3.1-10.9-7-25.5-11.1-43.3c0,0,32.1,13.7,77.7,13.7C342.6,607.9,370.5,602.5,396.6,591.8z"/>
<path class="st76" d="M383.9,637.4c-2.2,7.4-4.5,14.8-7,22.3c-3.7,11.3-35.7,37.2-122,0c0,0-2.8-7.9-7-22.3
	C247.9,637.4,335.8,662.7,383.9,637.4z"/>
<path class="st80" d="M304.9,244.6l-0.1,0.1l-36.9,47.6c0,0.4,0,0.8,0,1.2c0,8.2,2,16.3,5.8,23.6l43.5-74.4L304.9,244.6z"/>
<path class="st80" d="M316.7,287.6l-30.2,45.3c-3.6-3-6.8-6.5-9.5-10.3l36-38.6L316.7,287.6z"/>
<path class="st80" d="M274.2,659.8c0,0-8.6-24.3-18.1-65.6c-20.9-90.8-45.9-263.9,7.4-441.7c14.3-48.1,34.1-94.4,58.9-138.1
	c-6.8-9.5-11-14.3-11-14.3c-28.7,47.8-51.3,99-67.2,152.4c-53.3,177.8-28.3,350.9-7.4,441.7c9.5,41.3,18.1,65.6,18.1,65.6
	c34.1,14.7,60.3,17.8,79.5,16.1C317.9,674.6,298,670,274.2,659.8z"/>
<path class="st81" d="M937,728.9c0,0,46.7-58.2,43.6-116.4c-1.5-24.4,5.1-48.7,18.5-69.1c6.5-9.7,13.9-18.7,22-27"/>
<path class="st77" d="M1019.4,479.8c-3.3,8.1,1.7,37.7,1.7,37.7s24.4-17.5,27.7-25.6c3.3-8.1-0.5-17.4-8.6-20.7
	C1032,467.8,1022.7,471.7,1019.4,479.8L1019.4,479.8L1019.4,479.8z"/>
<path class="st77" d="M976.6,514.7c1.6,8.6,21.9,30.7,21.9,30.7s11-27.9,9.3-36.5c-1.6-8.6-9.9-14.3-18.5-12.7
	C980.7,497.8,975,506.1,976.6,514.7L976.6,514.7z"/>
<path class="st77" d="M946.1,591.9c5.7,6.6,34.4,15.5,34.4,15.5s-4.6-29.6-10.4-36.3c-5.9-6.5-15.9-7-22.4-1.1
	C941.4,575.7,940.7,585.4,946.1,591.9L946.1,591.9z"/>
<path class="st77" d="M936.1,655.6c4.5,7.5,31.3,21.1,31.3,21.1s0.4-30-4.1-37.5c-4.5-7.5-14.3-9.9-21.8-5.4
	S931.6,648.1,936.1,655.6z"/>
<path class="st77" d="M1028.7,559.7c-8.1,3.3-37.7-2-37.7-2s17.7-24.2,25.9-27.5c8.1-3.3,17.4,0.7,20.6,8.9
	S1036.8,556.5,1028.7,559.7L1028.7,559.7z"/>
<path class="st77" d="M1016.1,634c-8.7,0.7-35.3-13.2-35.3-13.2s24.1-17.8,32.9-18.5c8.8-0.5,16.3,6.2,16.7,15
	C1030.9,625.8,1024.6,633.2,1016.1,634z"/>
<path class="st77" d="M994,704.5c-8.5,2.1-37-7.1-37-7.1s20.8-21.6,29.3-23.7c8.5-2.1,17.1,3,19.3,11.5
	C1007.6,693.7,1002.5,702.3,994,704.5z"/>
<linearGradient id="SVGID_78_" gradientUnits="userSpaceOnUse" x1="898.6749" y1="679.6532" x2="950.9102" y2="604.8297">
	<stop  offset="0" style="stop-color:#FF736B"/>
	<stop  offset="1" style="stop-color:#FF2260"/>
</linearGradient>
<path class="st82" d="M1019.4,479.8c-3.3,8.1,1.7,37.7,1.7,37.7s24.4-17.5,27.7-25.6c3.3-8.1-0.5-17.4-8.6-20.7
	C1032,467.8,1022.7,471.7,1019.4,479.8L1019.4,479.8L1019.4,479.8z"/>
<linearGradient id="SVGID_79_" gradientUnits="userSpaceOnUse" x1="886.2785" y1="670.9991" x2="938.5138" y2="596.1755">
	<stop  offset="0" style="stop-color:#FF736B"/>
	<stop  offset="1" style="stop-color:#FF2260"/>
</linearGradient>
<path class="st83" d="M976.6,514.7c1.6,8.6,21.9,30.7,21.9,30.7s11-27.9,9.3-36.5c-1.6-8.6-9.9-14.3-18.5-12.7
	C980.7,497.8,975,506.1,976.6,514.7L976.6,514.7z"/>
<linearGradient id="SVGID_80_" gradientUnits="userSpaceOnUse" x1="899.7941" y1="680.4345" x2="952.0294" y2="605.611">
	<stop  offset="0" style="stop-color:#FF736B"/>
	<stop  offset="1" style="stop-color:#FF2260"/>
</linearGradient>
<path class="st84" d="M946.1,591.9c5.7,6.6,34.4,15.5,34.4,15.5s-4.6-29.6-10.4-36.3c-5.9-6.5-15.9-7-22.4-1.1
	C941.4,575.7,940.7,585.4,946.1,591.9L946.1,591.9z"/>
<path class="st85" d="M936.1,655.6c4.5,7.5,31.3,21.1,31.3,21.1s0.4-30-4.1-37.5c-4.5-7.5-14.3-9.9-21.8-5.4
	S931.6,648.1,936.1,655.6z"/>
<linearGradient id="SVGID_81_" gradientUnits="userSpaceOnUse" x1="917.7132" y1="692.944" x2="969.9485" y2="618.1205">
	<stop  offset="0" style="stop-color:#FF736B"/>
	<stop  offset="1" style="stop-color:#FF2260"/>
</linearGradient>
<path class="st86" d="M1028.7,559.7c-8.1,3.3-37.7-2-37.7-2s17.7-24.2,25.9-27.5c8.1-3.3,17.4,0.7,20.6,8.9
	S1036.8,556.5,1028.7,559.7L1028.7,559.7z"/>
<linearGradient id="SVGID_82_" gradientUnits="userSpaceOnUse" x1="943.4938" y1="710.9419" x2="995.7291" y2="636.1183">
	<stop  offset="0" style="stop-color:#FF736B"/>
	<stop  offset="1" style="stop-color:#FF2260"/>
</linearGradient>
<path class="st87" d="M1016.1,634c-8.7,0.7-35.3-13.2-35.3-13.2s24.1-17.8,32.9-18.5c8.8-0.5,16.3,6.2,16.7,15
	C1030.9,625.8,1024.6,633.2,1016.1,634z"/>
<path class="st85" d="M994,704.5c-8.5,2.1-37-7.1-37-7.1s20.8-21.6,29.3-23.7c8.5-2.1,17.1,3,19.3,11.5
	C1007.6,693.7,1002.5,702.3,994,704.5z"/>
<path class="st81" d="M937.4,726.5c0,0,66.3-34.2,87.1-88.7c8.6-22.9,24.3-42.4,44.9-55.6c9.8-6.2,20.2-11.5,31-15.8"/>
<linearGradient id="SVGID_83_" gradientUnits="userSpaceOnUse" x1="1099.9501" y1="547.4468" x2="1140.5715" y2="547.4468">
	<stop  offset="0" style="stop-color:#FF736B"/>
	<stop  offset="1" style="stop-color:#FF2260"/>
</linearGradient>
<path class="st88" d="M1113.7,532.1c-6.3,6.1-13.8,35.1-13.8,35.1s29.4-6.1,35.7-12.2c6.4-6.1,6.6-16.1,0.5-22.5
	S1120.1,526,1113.7,532.1L1113.7,532.1L1113.7,532.1z"/>
<linearGradient id="SVGID_84_" gradientUnits="userSpaceOnUse" x1="1060.1647" y1="559.1277" x2="1091.762" y2="559.1277">
	<stop  offset="0" style="stop-color:#FF736B"/>
	<stop  offset="1" style="stop-color:#FF2260"/>
</linearGradient>
<path class="st89" d="M1060.4,546.7c-2,8.5,7.6,37,7.6,37s21.3-21.1,23.3-29.7c2-8.5-3.3-17.1-11.8-19.1
	C1071,533,1062.5,538.2,1060.4,546.7L1060.4,546.7z"/>
<linearGradient id="SVGID_85_" gradientUnits="userSpaceOnUse" x1="1000.526" y1="608.7155" x2="1032.1274" y2="608.7155">
	<stop  offset="0" style="stop-color:#FF736B"/>
	<stop  offset="1" style="stop-color:#FF2260"/>
</linearGradient>
<path class="st90" d="M1001.2,604.9c2.6,8.4,25.2,28.1,25.2,28.1s7.8-29,5.2-37.3c-2.6-8.4-11.4-13.1-19.8-10.6
	C1003.4,587.7,998.7,596.5,1001.2,604.9L1001.2,604.9z"/>
<path class="st77" d="M966.3,659.1c1.1,8.7,20.1,31.9,20.1,31.9s12.6-27.2,11.4-35.9c-1.1-8.7-9.1-14.9-17.8-13.8
	S965.2,650.4,966.3,659.1L966.3,659.1z"/>
<linearGradient id="SVGID_86_" gradientUnits="userSpaceOnUse" x1="1056.2101" y1="593.0729" x2="1106.2761" y2="593.0729">
	<stop  offset="0" style="stop-color:#FF736B"/>
	<stop  offset="1" style="stop-color:#FF2260"/>
</linearGradient>
<path class="st91" d="M1089.8,608.9c-8.8-0.3-33.6-17.1-33.6-17.1s26-14.9,34.8-14.6c8.8,0.3,15.6,7.7,15.3,16.5
	C1105.9,602.4,1098.6,609.3,1089.8,608.9L1089.8,608.9z"/>
<linearGradient id="SVGID_87_" gradientUnits="userSpaceOnUse" x1="1021.2701" y1="656.8475" x2="1069.4017" y2="656.8475">
	<stop  offset="0" style="stop-color:#FF736B"/>
	<stop  offset="1" style="stop-color:#FF2260"/>
</linearGradient>
<path class="st92" d="M1048.2,671.7c-8.3-2.9-26.9-26.4-26.9-26.4s29.3-6.5,37.6-3.5c8.3,2.9,12.6,12,9.7,20.3
	C1065.6,670.3,1056.5,674.7,1048.2,671.7L1048.2,671.7z"/>
<linearGradient id="SVGID_88_" gradientUnits="userSpaceOnUse" x1="968.4" y1="711.6293" x2="1017.9938" y2="711.6293">
	<stop  offset="0" style="stop-color:#FF736B"/>
	<stop  offset="1" style="stop-color:#FF2260"/>
</linearGradient>
<path class="st93" d="M999.4,727.2c-8.6-1.5-31-21.5-31-21.5s27.8-11.3,36.4-9.8c8.6,1.5,14.4,9.7,12.9,18.3
	C1016.3,722.9,1008.1,728.7,999.4,727.2L999.4,727.2L999.4,727.2z"/>
<linearGradient id="SVGID_89_" gradientUnits="userSpaceOnUse" x1="852.3913" y1="-45.9267" x2="852.3913" y2="451.6573" gradientTransform="matrix(1 0 0 -1 -29.72 733.64)">
	<stop  offset="0" style="stop-color:#808080;stop-opacity:0.25"/>
	<stop  offset="0.54" style="stop-color:#808080;stop-opacity:0.12"/>
	<stop  offset="1" style="stop-color:#808080;stop-opacity:0.1"/>
</linearGradient>
<path class="st94" d="M1031.7,694.4l-51.4-74.5c0,0-1-18.5-4.3-22.8s-0.7-13.9-0.7-13.9s3.6-5.3,0.5-5.8s-0.5-12.2-0.5-12.2
	l-0.2-18.7c0,0,2.9-18,0.5-22.3c-1.4-2.4-1.3-5.4,0.2-7.7c0,0,2.9-10.3,0-12.9s-2.2-18.7-1.4-31.4s-5-19.9-5-21.8s-19-20.6-19-22.3
	c0-1.7-12-8.6-19.2-10.5s-10.8-3.3-10.6-4.3c0.2-1-11.3-4.8-11.3-4.8s-10.1-0.7-13.9-5.8c-3.8-5-15.6-6.5-15.9-6.5
	c-0.1-0.3-0.2-0.7-0.2-1c-0.1-0.3-0.2-0.7-0.2-1.1c0.9-1.5,1.8-3.1,2.5-4.7c0.2-0.5,0.5-1,0.7-1.5c4.2-0.2,8.5-1.1,11.8-3.7
	c3.4-2.9,5.5-7,5.8-11.5c0.2-4.4-0.8-8.8-2.8-12.8c-2.1-4.3-5.2-8.8-4.1-13.5c0.5-2,1.7-3.8,2.3-5.8c1.2-3.8,0.1-7.9-1.7-11.3
	c-1.8-3.5-4.3-6.5-6.4-9.9c-2.6-4.3-4.3-9-5.1-14c-0.4-2.6-0.6-5.3-1.9-7.6c-1.1-1.7-2.5-3.1-4.2-4.3c-7.5-5.4-16.6-8.1-25.8-7.8
	c-6.5,0.2-13.1,2-19.5,1.2c-3.9-0.5-7.6-1.9-11.4-3c-8.1-2.4-17.3-3.4-24.4,1.3s-9.8,13.7-14.6,20.8c-4.2,6.3-10.4,11.5-13.6,18.2
	c0-0.1,0.1-0.3,0.1-0.4c-0.8,1.5-1.4,3.2-1.8,4.8c-1.2,5.2-0.2,10.7,1.1,15.9c0.7,2.7,1.5,5.6,3.9,7.1c2.3,1.5,5.6,1.2,8.4,1.7
	c-0.1,0.5-0.2,0.9-0.3,1.4c-5.9,28,10.7,55.9,38.1,64c0,0.5,0,1,0,1.5c0,1.4-0.1,2.8-0.3,4.1l0,0c0,0-24.2-5-30.6-1.6
	c-6.5,3.4-19.2,6-21.1,7.9c-1.9,1.9-6.7,0.5-11,11.8c-4.3,11.3-4.8,22.8-10.3,28s-8.4,8.9-8.6,12.7s0.7,4.8-1.5,6s-5.3,6.2-4.3,8.2
	c0,0,1.2,4.8-2.6,7.2s-3.4,7.2-3.4,7.2s-1.4,5.3-4.8,6.5s-5.5,9.1-5.5,9.1l-10.9,12.6l-21.6-23.9c-3.4-3.7-9.1-4-12.8-0.7l-10.6,9.6
	c-4.1,1-7.8,3.2-10.6,6.3c-2.3,2.4-4.2,5.1-5.5,8.2l-5.8,5.2c-3.7,4.6-4.3,11-1.5,16.3l13.8,15.3l0.1,0.1c-5.2,0.7-9.8,2.3-13.4,5.5
	c-20.7,18.2-20.9,35-17.8,42.7s29.3,37.2,29.3,37.2s15.2,19.8,37.2,30.3l0,0l-0.2,0.2c-0.4,0.5-0.9,1-1.3,1.5l-0.4,0.5l-0.3,0.5
	l-0.4,0.6c-0.1,0.2-0.2,0.3-0.3,0.5s-0.3,0.5-0.4,0.7l-0.3,0.5c-0.2,0.3-0.3,0.6-0.5,0.9l-0.2,0.3c-0.2,0.4-0.4,0.8-0.6,1.3
	c-0.1,0.2-0.1,0.3-0.2,0.5c-0.1,0.3-0.3,0.6-0.4,1s-0.2,0.4-0.2,0.6s-0.2,0.6-0.3,0.9s-0.1,0.5-0.2,0.7s-0.2,0.7-0.3,1.1
	s-0.1,0.4-0.2,0.7c-0.1,0.5-0.3,1.1-0.4,1.7c0,0.2-0.1,0.5-0.1,0.7c-0.1,0.4-0.1,0.8-0.2,1.2c0,0.3-0.1,0.6-0.1,0.9
	s-0.1,0.8-0.2,1.2L674,711c0,0.4-0.1,0.9-0.1,1.4c0,0.3,0,0.6,0,0.8c0,0.8-0.1,1.5-0.1,2.3c-0.5,28,1.2,32.1,1.2,32.1
	s3.4,8.9,12.8,9.6c1.4,0.1,2.8,0,4.1-0.2c12.5-2.2,41.8-7.2,52.1-5.3c6.2,1.2,17.7-0.5,25.9-2.1l2.2-0.4l1.5,4.8l4.8-1.3l4,2.3
	l2.5,1.5c4.7,16.1,24,10.6,24,10.6l4.5,2.6l46.4,1.2c0,0,10,6,16.4,7.9c0.8,0.2,1.5,0.4,2.3,0.5c4.3,0.3,8.6,0.4,12.9,0.2
	c3.5-0.1,6.3-0.2,6.3-0.2s-0.5-12.6-1.2-26.7c17.7-0.7,33.4-1.8,42.9-3.5c24.8-4.3,35.1-26.9,38.9-38.9c1.1,4.9,2,9.9,2.4,14.9
	c1,4.4,2.3,8.7,3.8,12.9c1.4,3.4,3.1,6.6,5.3,9.6c18.3-6.2,7.2-15.6,3.4-19.7s2.7-7.4,2.7-7.4s5-3.3,4.6-6.5s-0.7-6.5,15.6-6.2
	S1031.7,694.4,1031.7,694.4z M778,541.4c0.2,1.4,2.5,16.1,4.5,20c0.4,0.8,0.6,3.7,0.5,7.9c-9.7-0.8-19.8-1.2-19.8-1.2
	c0.3,0.4,0.5,0.8,0.5,1.2l-1.5-0.3l-2.2-0.5L778,541.4L778,541.4z M742.7,597.6l16.8,2.7l1.4,0.2c-0.5,2.6-0.8,5.3-0.9,7.9
	c0,0.3,0.4,0.5,0.9,0.9c-0.2,1.3-0.3,2.7-0.3,4c0.3,1.3,8.1,4.2,17.1,6.6c-0.1,0.5-0.2,0.9-0.4,1.4l0,0c-7.9-4.2-20.4-6.1-21.9-9.2
	s-44-18-44-18s-1.5-0.8-4.2-2.1l11.2,2.1l3.1-0.3C728.5,595.4,735.5,596.7,742.7,597.6L742.7,597.6z"/>
<path class="st95" d="M977,704.8c0,0-6.7,40.2-40.5,46.2s-146.7,4.8-146.7,4.8s-64.5-9.3-87.8-63.8s-38.3-76.2-18.3-77.1
	s127.8,36.4,134,36.9S982.9,568.8,977,704.8z"/>
<linearGradient id="SVGID_90_" gradientUnits="userSpaceOnUse" x1="654.6149" y1="575.6063" x2="815.5562" y2="668.7827">
	<stop  offset="0" style="stop-color:#00F0FF"/>
	<stop  offset="1" style="stop-color:#553EFF"/>
</linearGradient>
<path class="st96" d="M977,704.8c0,0-6.7,40.2-40.5,46.2s-146.7,4.8-146.7,4.8s-64.5-9.3-87.8-63.8s-38.3-76.2-18.3-77.1
	s127.8,36.4,134,36.9S982.9,568.8,977,704.8z"/>
<path class="st97" d="M674.4,749.5c0,0,3.4,8.9,12.6,9.5c1.4,0.1,2.7,0,4.1-0.2c12.4-2.1,41.4-7.1,51.7-5.2
	c6.2,1.2,17.5-0.5,25.7-2.1c5.4-1,9.3-2,9.3-2s-9.5-31.7-10.7-32.6s-42.8-26-42.8-26l-33-2.4h-0.1c0,0-6.1,0.4-11.2,6.6
	c-3.5,4.2-6.5,11.1-6.7,22.5C672.7,745.5,674.4,749.5,674.4,749.5z"/>
<path class="st98" d="M674.4,749.5c0,0,3.4,8.9,12.6,9.5c-3.3-4.2-6.3-8.5-9-13.1l0.2-23.1c-1.5-17.3,6.6-28.4,13-34.3h-0.1
	c0,0-17.4,1.2-17.9,29S674.4,749.5,674.4,749.5z"/>
<path class="st74" d="M817.5,699.1l30.7-24l48.3-47.6c0,0-5.2-0.3-13.1-0.6c-2,1.3-7.5,5.2-7.7,10c-0.2,5.8-13.1,0.4-19.7,3.7
	s-39.3,45.1-45,44.8s-10.2-2.9-12.6,1.2c0,0.1-0.1,0.2-0.2,0.3L817.5,699.1z"/>
<path class="st74" d="M679.9,695.2c1.1,0.5,2.2,1,3.3,1.5c23.3,10,52.1,31,54.3,34.8c1.3,2.3,18,12.5,30.9,20.1c5.4-1,9.3-2,9.3-2
	s-9.5-31.7-10.7-32.6s-42.8-26-42.8-26l-33-2.4h-0.1C691.1,688.6,685,689,679.9,695.2z"/>
<linearGradient id="SVGID_91_" gradientUnits="userSpaceOnUse" x1="740.5105" y1="714.5887" x2="759.5693" y2="588.2357">
	<stop  offset="0" style="stop-color:#00F0FF"/>
	<stop  offset="1" style="stop-color:#553EFF"/>
</linearGradient>
<path class="st99" d="M615.1,626.9c3.1,7.6,29,36.9,29,36.9s16.4,21.4,39.8,31.4s52.1,31,54.3,34.8c1.4,2.5,20,13.7,33.1,21.3
	l2.9,1.7l6.5,3.8l3.4,2c0,0,8-6.4,15.9-12.8s15.6-12.8,15.8-13.1c0.2-0.7,3.3-8.8,2.6-9.3c-0.4-0.3-2-3.5-5-7.4
	c-3.2-4.2-7.4-7.7-12.1-10c-11-5-15.7-16.4-15.7-16.4s-1-0.8-2.6-1.8c-2.8-1.8-7.3-4.3-10.7-4.8c-5.3-0.7-15-11.4-15-11.4
	s-6.7-4.3-9.3-9.8c-2.5-5.2-39.4-30.6-42.8-32.9l89.5,57.5l21.4,13.8l30.7-24l48.3-47.6c0,0-6.5-0.3-16-0.7
	c-23.5-1-65.2-2.6-70.5-1.4c-4.3,1-8.7,1.3-13.1,0.8c0,0-11.9,0.5-19.7-3.6s-20.3-6.1-21.7-9.2S710.5,597,710.5,597
	s-57.4-30.5-77.8-12.4S612,619.3,615.1,626.9z"/>
<path class="st100" d="M800.1,452.2l7.4,24.5l9.5,55.2l35,2.4l10.1-16.8l10.1-16.8c0,0,6.3-22.3,10.8-43.9c4-19.1,6.6-37.6,2.3-39.7
	c-3.9-1.8-6.4-8.2-8-15.1c-0.2-0.8-0.4-1.7-0.6-2.6c-1.2-5.9-1.9-11.8-2.3-17.8c0,0-73.3-3.8-63.1,26.4c1.8,5.2,2.8,10.6,2.8,16.1
	c0,1.4-0.1,2.7-0.3,4.1C812.8,437.8,807.8,446.5,800.1,452.2z"/>
<path class="st101" d="M784.9,448.1l2.6,41.7l6,35.5l6.7,16.4l6,89.9c0,0,57.4,6.6,71.4-0.1c1-0.4,1.9-1.1,2.5-2
	c16.9-25.4,11.3-99.2,11.3-99.2l6.4-47.6l-4.3-24.7l-10.3-1.1l-8-0.8c0,0-1.8,2.2-4.4,5.7c-7.1,9.3-20,27.7-19.2,35.3
	c1.2,10.5-1.4,21.2-5.5,22.9s-7.4,4.5-8.1,1.7s-1.4-3.6-0.7-7.6s-3.1-16.4-3.1-16.4s-6.4-14.5-6-20.7s-0.7-13.3-2.6-15
	s-4.5-3.3-2.4-11s-9.4-22.5-9.4-22.5L784.9,448.1z"/>
<path class="st74" d="M860.7,552.2l2.4,71.2l13.8,7.6c1-0.4,1.9-1.1,2.5-2c16.9-25.5,11.3-99.2,11.3-99.2l6.4-47.6l-4.3-24.7
	l-10.4-1.1c4-19.1,6.6-37.6,2.3-39.7c-3.9-1.8-6.4-8.2-8.1-15.1l0,0l-7.4,50.4c0,0,0.6,4.5,0.8,9.2c0.2,3.5,0.1,7-0.6,8.9
	c-1.7,4.3-0.5,11.9-0.5,11.9c-4.3,7.6-6.4,21.6-7.5,35.1C860.2,535,860.7,552.2,860.7,552.2z"/>
<linearGradient id="SVGID_92_" gradientUnits="userSpaceOnUse" x1="856.3948" y1="386.5912" x2="973.5712" y2="688.7089">
	<stop  offset="0" style="stop-color:#FF736B"/>
	<stop  offset="1" style="stop-color:#FF2260"/>
</linearGradient>
<path class="st102" d="M876.9,400.5c0,0,12,1.5,15.8,6.5s13.8,5.7,13.8,5.7s11.4,3.8,11.2,4.8s3.3,2.4,10.5,4.3
	c7.1,1.9,19,8.8,19,10.5c0,1.7,18.8,20.2,18.8,22.1s5.7,9,5,21.7s-1.4,28.6,1.4,31.2s0,12.9,0,12.9c-1.5,2.3-1.6,5.3-0.1,7.6
	c2.4,4.3-0.5,22.2-0.5,22.2l0.2,18.6c0,0-2.6,11.7,0.5,12.1s-0.5,5.7-0.5,5.7s-2.6,9.5,0.7,13.8s4.3,22.6,4.3,22.6l51,74
	c0,0,0.7,13.6-15.5,13.3s-16,3.1-15.5,6.2s-4.5,6.4-4.5,6.4s-6.4,3.3-2.6,7.4s14.8,13.3-3.3,19.5c-2.1-2.9-3.9-6.1-5.2-9.5
	c-1.5-4.2-2.8-8.5-3.8-12.8c0,0-1.7-18.1-5-20.5s-2.9-13.8-2.9-13.8s4.8-9.3-1.9-13.1s-103.4-57.3-103.4-57.3l-2.4-71.2
	c0,0-1.7-52.6,8.3-70.2c0,0-1.2-7.6,0.5-11.9s-0.2-18.1-0.2-18.1L876.9,400.5z"/>
<path class="st74" d="M814.5,429c0,0-23.9-4.9-30.4-1.6c-6.4,3.3-19,6-21,7.9s-6.7,0.5-11,11.7s-4.8,22.6-10.2,27.8
	s-8.3,8.8-8.6,12.6s0.7,4.8-1.4,6s-5.2,6.2-4.3,8.1s49.6,43.8,49.6,43.8s2.4,16,4.5,20s-2.4,59.8-7.1,63.6s32.1,3.5,32.1,3.5
	s1.7-36.5,3.1-38.5s-1-41-1-41s-0.2-33.3,2.9-42.1s2.7-38.1,2.7-38.1s2.7-17.6,6.1-21.7C823.9,446.9,814.5,429,814.5,429z"/>
<linearGradient id="SVGID_93_" gradientUnits="userSpaceOnUse" x1="754.2065" y1="426.225" x2="871.3829" y2="728.3427">
	<stop  offset="0" style="stop-color:#FF736B"/>
	<stop  offset="1" style="stop-color:#FF2260"/>
</linearGradient>
<path class="st103" d="M813.8,428.3c0,0-23.9-4.9-30.4-1.6c-6.4,3.3-19,6-21,7.9s-6.7,0.5-11,11.7c-4.3,11.2-4.8,22.6-10.2,27.9
	s-8.3,8.8-8.6,12.6s0.7,4.8-1.4,6s-5.2,6.2-4.3,8.1s49.5,43.8,49.5,43.8s2.4,16,4.5,20s-2.4,59.8-7.1,63.6s32.1,3.5,32.1,3.5
	s1.7-36.5,3.1-38.5s-1-41-1-41s-0.2-33.3,2.9-42.1s2.8-38.1,2.8-38.1s2.7-17.6,6.1-21.7C823.1,446.1,813.8,428.3,813.8,428.3z"/>
<path class="st74" d="M811.3,408.1c1.8,5.2,2.8,10.6,2.8,16.1c24.1,7.1,49.9-3.1,62.7-24.8c-1.2-5.9-1.9-11.8-2.3-17.8
	C874.4,381.7,801.1,377.9,811.3,408.1z"/>
<path class="st100" d="M775.1,370.5c0,30.1,24.5,54.5,54.6,54.5c30.1,0,54.5-24.5,54.5-54.6c0-30.1-24.5-54.5-54.6-54.5
	c-25.7,0-48,18.1-53.3,43.2C775.5,362.9,775.1,366.7,775.1,370.5z"/>
<linearGradient id="SVGID_94_" gradientUnits="userSpaceOnUse" x1="690.7674" y1="450.8299" x2="807.9438" y2="752.9476">
	<stop  offset="0" style="stop-color:#FF736B"/>
	<stop  offset="1" style="stop-color:#FF2260"/>
</linearGradient>
<path class="st104" d="M740.1,496.7l-13.1,4c0,0,1.2,4.8-2.6,7.1s-3.3,7.2-3.3,7.2s-1.4,5.2-4.8,6.4s-5.5,9-5.5,9l-11,12.6
	c0,0-4,3.3-3.3,5s-4.3,2.1-4.3,2.1l2.6,42.4l22.6,4.3l14-1.4l11.4-4.3l10-6l4.6-11.6l20-30.5L740.1,496.7z"/>
<path class="st100" d="M695.6,553.6c0,0-29-41.9-50.7-19.3s8.8,59.3,16,58.1s41.2-3.1,41.2-3.1L695.6,553.6z"/>
<path class="st105" d="M635.5,548.7l26.9-24.2c5.2-4.7,13.2-4.3,17.8,0.9l29.8,33.1c4.7,5.2,4.3,13.2-0.9,17.8l-26.9,24.2
	c-5.2,4.7-13.2,4.3-17.8-0.9l-29.8-33.1C629.9,561.3,630.4,553.3,635.5,548.7z"/>
<path class="st74" d="M635.5,548.7l26.9-24.2c5.2-4.7,13.2-4.3,17.8,0.9l29.8,33.1c4.7,5.2,4.3,13.2-0.9,17.8l-26.9,24.2
	c-5.2,4.7-13.2,4.3-17.8-0.9l-29.8-33.1C629.9,561.3,630.4,553.3,635.5,548.7z"/>
<path class="st97" d="M636.3,545.2l26.9-24.2c5.2-4.7,13.2-4.3,17.8,0.9l29.8,33.1c4.7,5.2,4.3,13.2-0.9,17.8l-26.9,24.2
	c-5.2,4.7-13.2,4.3-17.8-0.9L635.4,563C630.8,557.9,631.2,549.9,636.3,545.2z"/>
<circle class="st77" cx="672.4" cy="560.7" r="13.6"/>
<circle class="st74" cx="672.4" cy="560.7" r="13.6"/>
<linearGradient id="SVGID_95_" gradientUnits="userSpaceOnUse" x1="659.58" y1="559.02" x2="686.72" y2="559.02">
	<stop  offset="0" style="stop-color:#FF736B"/>
	<stop  offset="1" style="stop-color:#FF2260"/>
</linearGradient>
<circle class="st106" cx="673.2" cy="559" r="13.6"/>
<path class="st100" d="M676.8,562.4c-0.2,31.4,64.8,38.1,64.8,38.1l16.6,2.6l7.4,1.2l3.1-30.7c0,0-3.4-0.5-7.7-1.5
	c-6.3-1.5-14.4-4-16.2-7.5C742,558.6,677,531,676.8,562.4z"/>
<path class="st74" d="M776.3,359.2c1.5,0.1,2.9,0.7,4,1.8c1.8,2,1.9,5.4,4.3,6.6c0.9,0.4,1.9,0.5,2.8,0.3c6.3-0.9,10-8,16.1-10
	c3.5-1.1,7.3-0.4,10.7,0.9c1.4,0.4,2.6,1.2,3.5,2.3c2,2.6,0.6,6.5,1.5,9.7c1.3,4.4,6.6,6.2,11.2,6.8s9.7,0.9,12.8,4.3
	c2.2,2.5,2.7,6,2.3,9.2c-0.3,1.1-0.3,2.3,0,3.4c1.3,3.6,7.4,3,9,0.2c1.2-2,0.8-3.8,3.6-4.3c1.9-0.4,4.1,0.4,5.8,1
	c4.8,1.7,10,2.5,15.1,2.3c12.7-27.3,0.9-59.7-26.4-72.5c-27.3-12.7-59.7-0.9-72.5,26.4C778.4,351.4,777.1,355.2,776.3,359.2z"/>
<path class="st97" d="M845.4,393.1c-0.3-1.1-0.3-2.3,0-3.4c0.4-3.2-0.1-6.8-2.3-9.2c-3-3.5-8.2-3.8-12.8-4.4s-9.8-2.3-11.2-6.8
	c-0.9-3.2,0.5-7.1-1.5-9.7c-0.9-1.1-2.2-1.8-3.5-2.3c-3.4-1.3-7.2-2-10.7-0.9c-6.1,2-9.7,9.1-16.1,10c-1,0.2-1.9,0.1-2.8-0.3
	c-2.4-1.2-2.5-4.7-4.3-6.6c-2.9-3.1-8.4-1.1-11.9-3.4c-2.3-1.5-3.2-4.4-3.8-7c-1.3-5.2-2.3-10.6-1.1-15.8c2.1-8.9,10-14.9,15-22.5
	c4.7-7,7.3-16,14.4-20.6c7.1-4.6,16.2-3.6,24.2-1.2c3.7,1.1,7.4,2.5,11.3,3c6.4,0.8,12.9-1,19.4-1.2c9.2-0.3,18.1,2.4,25.6,7.8
	c1.7,1.1,3.1,2.5,4.2,4.2c1.3,2.3,1.5,5,1.8,7.6c0.8,4.9,2.5,9.7,5,13.9c2,3.4,4.5,6.4,6.3,9.9c1.8,3.5,2.9,7.5,1.7,11.3
	c-0.6,2-1.8,3.7-2.3,5.7c-1.1,4.7,2,9.1,4.1,13.4c2,3.9,3,8.3,2.8,12.7c-0.2,4.4-2.3,8.6-5.7,11.4c-3.4,2.6-7.8,3.5-12.1,3.7
	c-5.2,0.2-10.4-0.6-15.4-2.3c-1.8-0.6-4-1.4-5.8-1c-2.8,0.6-2.4,2.3-3.6,4.3C852.9,396.1,846.7,396.6,845.4,393.1z"/>
<path class="st74" d="M816.1,700.5l30.7-24l48.3-47.6c0,0-6.5-0.3-16-0.7c-1.7,1.8-3.3,4-3.4,6.5c-0.2,5.8-13.1,0.4-19.7,3.7
	s-39.3,45.1-45,44.8s-10.2-2.9-12.6,1.2c-0.1,0.1-0.1,0.2-0.2,0.3c-1,1.1-2.2,1.8-3.6,2.2L816.1,700.5z"/>
<linearGradient id="SVGID_96_" gradientUnits="userSpaceOnUse" x1="855.9186" y1="731.9966" x2="874.9774" y2="605.6437">
	<stop  offset="0" style="stop-color:#00F0FF"/>
	<stop  offset="1" style="stop-color:#553EFF"/>
</linearGradient>
<path class="st107" d="M754.2,698.8l15.4,49.3l2.4,7.7l7.3-2l16.2-4.5l72.2-19.8c0,0,13.6-0.2,26-6.9c13.8-7.5,29.3-11.2,44.8-9.8
	c9.5,0.9,20.2-3.2,29-19.5c0,0,20-59-30.5-76s-52.9,9-52.9,9s-0.3,0.1-0.7,0.4c-2,1.3-7.5,5.2-7.7,10c-0.2,5.8-13.1,0.4-19.7,3.7
	s-39.3,45.1-45,44.8s-10.2-2.9-12.6,1.2c0,0.1-0.1,0.2-0.2,0.3c-1.8,2.4-7.1,3-10.6,3.1c-1.9,0.1-3.3,0-3.3,0L784,690l-3.7,1
	L754.2,698.8z"/>
<path class="st74" d="M758.1,603.1l7.4,1.2l3.1-30.7c0,0-3.4-0.5-7.7-1.5C762.1,576.4,759.6,593,758.1,603.1z"/>
<path class="st74" d="M952.8,459.6c0,0,22.1-6.4,16.7,56.4s-46.4,102.6-46.4,102.6s-47.1,20.7-68.3,17.4s-36.7-4-36.7-4
	c-6.7-3.4-14-5.3-21.4-5.7c-11.9-0.5-36.9-7.9-37.4-10.2s6.2-37.4,3.3-40c0,0,33.3,1.4,36.7,3.8s8.1,0.7,11.7,0s14.5-10.2,36.2-1.9
	c0,0,7.4,0.7,10.2-1.2s7.4-0.5,7.4-0.5s4.5-1.7,5.2-2.7s6.4,0,6.4,0c1.3,0.6,2.8,0.1,3.4-1.2c0.1-0.2,0.1-0.3,0.2-0.5
	c0.7-1.9,1.9-3.7,3.3-5.2c0,0,6.4-36.2,18.6-49.8c0,0,3.6-3.1,2.6-6.9S924.3,452,952.8,459.6z"/>
<linearGradient id="SVGID_97_" gradientUnits="userSpaceOnUse" x1="758.6452" y1="542.8253" x2="969.8191" y2="542.8253">
	<stop  offset="0" style="stop-color:#FF736B"/>
	<stop  offset="1" style="stop-color:#FF2260"/>
</linearGradient>
<path class="st108" d="M952.3,454.8c0,0,22.1-6.4,16.7,56.4s-46.5,102.6-46.5,102.6s-47.1,20.7-68.3,17.4s-36.7-4-36.7-4
	c-6.7-3.4-14-5.3-21.4-5.7c-11.9-0.5-36.9-7.9-37.4-10.2s6.2-37.4,3.3-40c0,0,33.3,1.4,36.7,3.8s8.1,0.7,11.7,0s14.5-10.2,36.2-1.9
	c0,0,7.4,0.7,10.2-1.2s7.5-0.5,7.5-0.5s4.5-1.7,5.2-2.6s6.4,0,6.4,0c1.3,0.6,2.8,0.1,3.4-1.2c0.1-0.2,0.1-0.3,0.2-0.5
	c0.7-2,1.9-3.7,3.3-5.2c0,0,6.4-36.2,18.6-49.8c0,0,3.6-3.1,2.6-6.9S923.7,447.2,952.3,454.8z"/>
<path class="st74" d="M780.3,691l31.4,38c0.1-0.1,0.2-0.2,0.2-0.2c0.2-0.7,3.3-8.8,2.6-9.3s-6.2-12.4-17.1-17.4
	c-6.7-3-11.1-8.5-13.5-12.3L780.3,691z"/>
<path class="st74" d="M780.7,756.9l3.4,2c0,0,8-6.4,15.9-12.8s15.6-12.8,15.8-13.1c0.2-0.7,3.3-8.8,2.6-9.3c-0.4-0.3-2-3.5-5-7.4
	c-21.3-6-7.8,8.8-5.9,9.5c0,0-26-6-27.4,22.3C779.9,751,780.1,754,780.7,756.9z"/>
<path class="st97" d="M807,768.8l4.5,2.6l46,1.2c0,0,9.9,6,16.3,7.8c0.8,0.2,1.5,0.4,2.3,0.5c4.3,0.3,8.5,0.4,12.8,0.2
	c3.5-0.1,6.3-0.2,6.3-0.2s-2.2-58-3.8-64c-0.8-2.9-4.6-2.3-8.4-0.8c-2.9,1.2-5.6,2.6-8.2,4.2c0,0-19.5,1.9-22.6,3.6s-11.9-1-17.4,0
	s-15.2-6.5-15.2-6.5c-26.7-8.8-11.7,7.6-9.8,8.3c0,0-25.9-6-27.4,22.3S807,768.8,807,768.8z"/>
<path class="st109" d="M873.4,746.5c0.5,12,9.8,26.9,15.4,34.8c3.5-0.1,6.3-0.2,6.3-0.2s-2.2-58-3.8-64c-0.8-2.9-4.6-2.3-8.4-0.8
	C878.3,724.8,873,736.8,873.4,746.5z"/>
<path class="st74" d="M873.4,746.5c0.5,12,9.8,26.9,15.4,34.8c3.5-0.1,6.3-0.2,6.3-0.2s-2.2-58-3.8-64c-0.8-2.9-4.6-2.3-8.4-0.8
	C878.3,724.8,873,736.8,873.4,746.5z"/>
<path class="st98" d="M865.6,748c3.2,11.6,3.1,24.6,8.2,32.4c0.8,0.2,1.5,0.4,2.3,0.5c4.3,0.3,8.5,0.4,12.8,0.2
	c3.5-0.1,6.3-0.2,6.3-0.2s-2.2-58-3.8-64c-0.8-2.9-4.6-2.3-8.4-0.8c-2.9,1.2-5.6,2.6-8.2,4.2C874.6,720.3,861.5,733.2,865.6,748z"/>
<path class="st74" d="M707.1,630.6c0,0,22.8,7.4,42.2,33.7L707.1,630.6z"/>
<g class="st110">
	<path d="M892.5,344.9c0,0.2-0.1,0.3-0.1,0.5c-0.2,0.7-0.5,1.4-0.8,2C891.8,346.5,892.1,345.7,892.5,344.9z"/>
	<path d="M763.4,333.3c0.4-1.7,1-3.3,1.8-4.8c-0.1,0.4-0.3,0.8-0.3,1.2c-1.2,5.2-0.2,10.6,1.1,15.8c0.7,2.7,1.5,5.6,3.8,7
		c3.5,2.3,9,0.3,11.9,3.3c1.8,2,1.9,5.4,4.3,6.6c0.9,0.4,1.9,0.5,2.8,0.3c6.3-0.9,10-8,16.1-10c3.5-1.1,7.3-0.4,10.7,0.9
		c1.4,0.4,2.6,1.2,3.5,2.3c2,2.6,0.6,6.5,1.5,9.7c1.3,4.4,6.6,6.2,11.2,6.8s9.7,0.9,12.8,4.4c2.2,2.4,2.7,6,2.3,9.2
		c-0.3,1.1-0.3,2.3,0,3.4c1.3,3.6,7.4,3,9,0.2c1.2-2,0.8-3.8,3.6-4.3c1.9-0.4,4.1,0.4,5.8,1c4.9,1.7,10.2,2.5,15.4,2.3
		c4.3-0.2,8.7-1,12.1-3.7c1.5-1.2,2.8-2.8,3.7-4.5c-0.8,3.2-2.6,6-5.1,8.1c-3.4,2.6-7.8,3.5-12.1,3.7c-5.2,0.2-10.4-0.6-15.4-2.3
		c-1.8-0.6-4-1.4-5.8-1c-2.8,0.6-2.4,2.3-3.6,4.3c-1.6,2.8-7.8,3.4-9.1-0.2c-0.3-1.1-0.3-2.3,0-3.4c0.4-3.2-0.1-6.8-2.3-9.2
		c-3.1-3.5-8.2-3.8-12.8-4.4s-9.8-2.3-11.2-6.8c-1-3.2,0.5-7.1-1.5-9.7c-1-1.1-2.2-1.8-3.5-2.3c-3.4-1.3-7.2-2-10.7-0.9
		c-6.1,2-9.8,9.1-16.1,10c-1,0.2-1.9,0.1-2.8-0.3c-2.4-1.2-2.5-4.7-4.3-6.6c-2.9-3.1-8.4-1.1-11.9-3.4c-2.3-1.5-3.2-4.4-3.8-7
		C763.2,344,762.2,338.5,763.4,333.3z"/>
</g>
<path class="st74" d="M896.2,523.9c-4.4,5.9-9.3,11.3-13.2,17.6s-6.6,13.5-5.8,20.8c4-4.1,5.8-9.8,8.3-14.9
	c4.3-8.7,10.6-16.1,16-24.1c1-1.5,7.6-10.3,4.3-10.8C903.1,512.2,897.7,521.9,896.2,523.9z"/>
<linearGradient id="SVGID_98_" gradientUnits="userSpaceOnUse" x1="130.227" y1="579.855" x2="256.5727" y2="579.855">
	<stop  offset="0" style="stop-color:#FF736B"/>
	<stop  offset="1" style="stop-color:#FF2260"/>
</linearGradient>
<path class="st111" d="M236.5,570c-2.6,0.5-5.1,1.2-7.5,2.1c-53.9,21.5-53,162.5-53,162.5h-15.9c0,0-5-60.5-26.8-146.8
	c-19.6-77.7,60.9-147.3,77.2-160.5c1.8-1.5,2.9-2.3,2.9-2.3C294.5,454.9,236.5,570,236.5,570z"/>
<path class="st80" d="M219.3,427.5c-1.9-0.9-3.8-1.7-5.9-2.4c0,0-1,0.8-2.9,2.3c-16.4,13.2-96.9,82.8-77.2,160.5
	c21.8,86.3,26.7,146.8,26.7,146.8h8.9c0,0-4.9-60.5-26.8-146.8C122.7,510.5,202.4,441.1,219.3,427.5z"/>
<linearGradient id="SVGID_99_" gradientUnits="userSpaceOnUse" x1="380.7445" y1="579.855" x2="507.1011" y2="579.855">
	<stop  offset="0" style="stop-color:#FF736B"/>
	<stop  offset="1" style="stop-color:#FF2260"/>
</linearGradient>
<path class="st112" d="M504,587.8c-21.8,86.3-26.8,146.8-26.8,146.8h-15.9c0,0,1-147.4-56.7-163.8c-1.3-0.4-2.5-0.7-3.8-0.9
	c0,0-58-115.1,23.1-144.9c0,0,0.8,0.6,2.3,1.8C441.3,438.9,523.9,509.3,504,587.8z"/>
</svg>
