<svg xmlns="http://www.w3.org/2000/svg" xmlns:xlink="http://www.w3.org/1999/xlink" viewBox="0 0 1087.9 1073.23"><defs><style>.cls-1{opacity:0.2;fill:url(#linear-gradient);}.cls-2{fill:url(#linear-gradient-2);}.cls-3{fill:url(#Degradado_sin_nombre_8);}</style><linearGradient id="linear-gradient" x1="314.14" y1="-143.35" x2="962.45" y2="851.15" gradientUnits="userSpaceOnUse"><stop offset="0" stop-color="#ff736b" stop-opacity="0.5"/><stop offset="0.51" stop-color="#ff4a66"/><stop offset="0.77" stop-color="#ff3563"/><stop offset="1" stop-color="#ff2260"/></linearGradient><linearGradient id="linear-gradient-2" x1="18.9" y1="516.5" x2="1087.9" y2="516.5" gradientUnits="userSpaceOnUse"><stop offset="0" stop-color="#ff736b"/><stop offset="0.51" stop-color="#ff4a66"/><stop offset="0.77" stop-color="#ff3563"/><stop offset="1" stop-color="#ff2260"/></linearGradient><linearGradient id="Degradado_sin_nombre_8" x1="427.28" y1="326.06" x2="1087.9" y2="326.06" gradientUnits="userSpaceOnUse"><stop offset="0" stop-color="#ff736b"/><stop offset="1" stop-color="#ff2260"/></linearGradient></defs><title>Homepage_back</title><g id="Layer_2" data-name="Layer 2"><g id="Layer_1-2" data-name="Layer 1"><path class="cls-1" d="M1087.9,0V900.87S951.9,779,793.17,971.77C674.37,1116,398.43,1123.28,314.69,883c-78.77-226.07,88.93-285.58-76.77-292.58-203.56-8.6-29-149.17-115.51-232.2C36.47,275.7-80.1,103,78.77,0Z"/><path class="cls-2" d="M1087.9,2V898.84S926.07,729.25,777.69,933.15c-102.44,140.79-367.26,142.74-445.57-80.68-73.66-210.22,81.29-265.55-73.66-272.06-190.35-8-14-138.7-94.92-215.91C83.18,287.77-64.79,128.73,79.71,2Z"/><path class="cls-3" d="M1087.9,2V591S931,695.7,818.9,576.75s-167.76,87.11-251.62,72.64,30.17-160.13-137.92-127c0,0-5.91-22.67,58.64-24.52s125-16.42,118.82-64.42-201-105.59-177.59-222.74C452.36,94.68,646.18,91,636.07,2h52.19c-8.9,27.39-13.22,66.68,30,75.88,46.84,10,75.18-39.09,89.59-75.88h27.24c-3.5,14.27-4.73,34.79,18.89,30.25C868.3,29.53,874.28,15.32,874.13,2Z"/></g></g></svg>