<svg xmlns="http://www.w3.org/2000/svg" xmlns:xlink="http://www.w3.org/1999/xlink" viewBox="0 0 989.14 766.09"><defs><style>.cls-1,.cls-12,.cls-22{isolation:isolate;}.cls-2{fill:#b589b6;opacity:0.5;mix-blend-mode:multiply;}.cls-3{fill:#ebf3ff;}.cls-4,.cls-6{fill:#3f3d56;}.cls-4{opacity:0.38;}.cls-15,.cls-5{opacity:0.2;}.cls-5{fill:url(#linear-gradient);}.cls-7{fill:#d0cde1;}.cls-8{fill:url(#Degradado_sin_nombre_8);}.cls-9{fill:#ffa39f;}.cls-10{fill:url(#linear-gradient-2);}.cls-11{fill:url(#Degradado_sin_nombre_8-2);}.cls-12{opacity:0.2;}.cls-13{fill:url(#Degradado_sin_nombre_8-3);}.cls-14{fill:#233862;}.cls-15{fill:url(#linear-gradient-3);}.cls-16{fill:#ff938f;}.cls-17{fill:url(#linear-gradient-4);}.cls-18{fill:#2f2e41;}.cls-19{fill:url(#linear-gradient-5);}.cls-20{fill:url(#linear-gradient-6);}.cls-21{fill:url(#linear-gradient-7);}.cls-22{opacity:0.1;}.cls-23{fill:url(#linear-gradient-8);}.cls-24{fill:url(#Degradado_sin_nombre_8-4);}.cls-25{fill:url(#Degradado_sin_nombre_8-5);}</style><linearGradient id="linear-gradient" x1="692.87" y1="236.14" x2="989.14" y2="236.14" gradientUnits="userSpaceOnUse"><stop offset="0" stop-color="#ff736b" stop-opacity="0.5"/><stop offset="0.51" stop-color="#ff4a66"/><stop offset="0.77" stop-color="#ff3563"/><stop offset="1" stop-color="#ff2260"/></linearGradient><linearGradient id="Degradado_sin_nombre_8" x1="718.03" y1="258.13" x2="792.69" y2="258.13" gradientUnits="userSpaceOnUse"><stop offset="0" stop-color="#ff736b"/><stop offset="1" stop-color="#ff2260"/></linearGradient><linearGradient id="linear-gradient-2" x1="832.18" y1="401.59" x2="826.53" y2="284.41" gradientUnits="userSpaceOnUse"><stop offset="0" stop-color="#fe3eff"/><stop offset="1" stop-color="#423eff"/></linearGradient><linearGradient id="Degradado_sin_nombre_8-2" x1="778.35" y1="195.31" x2="919.56" y2="195.31" xlink:href="#Degradado_sin_nombre_8"/><linearGradient id="Degradado_sin_nombre_8-3" x1="857.59" y1="200.97" x2="937.44" y2="200.97" xlink:href="#Degradado_sin_nombre_8"/><linearGradient id="linear-gradient-3" x1="0" y1="580" x2="296.14" y2="580" xlink:href="#linear-gradient"/><linearGradient id="linear-gradient-4" x1="273.44" y1="507.5" x2="184.5" y2="561.14" xlink:href="#linear-gradient-2"/><linearGradient id="linear-gradient-5" x1="139.73" y1="682.49" x2="143.97" y2="729.08" gradientUnits="userSpaceOnUse"><stop offset="0" stop-color="#553eff"/><stop offset="1" stop-color="#00f0ff"/></linearGradient><linearGradient id="linear-gradient-6" x1="133.81" y1="724.71" x2="133.81" y2="397.15" xlink:href="#linear-gradient-2"/><linearGradient id="linear-gradient-7" x1="105.77" y1="491.46" x2="86.01" y2="689.11" xlink:href="#linear-gradient-2"/><linearGradient id="linear-gradient-8" x1="325.93" y1="436.24" x2="272.28" y2="513.88" xlink:href="#linear-gradient-2"/><linearGradient id="Degradado_sin_nombre_8-4" x1="644.34" y1="413.76" x2="644.34" y2="476.24" xlink:href="#Degradado_sin_nombre_8"/><linearGradient id="Degradado_sin_nombre_8-5" x1="367.32" y1="413.76" x2="367.32" y2="476.24" xlink:href="#Degradado_sin_nombre_8"/></defs><title>internal_communication</title><g class="cls-1"><g id="Layer_2" data-name="Layer 2"><g id="b284e515-97d4-40b6-a45d-73d07a6575b3"><path class="cls-2" d="M603.25,447.16H409.34c9-97.33,14.66-189.32,0-249.32H603.25C599.91,275.53,600.3,359.26,603.25,447.16Z"/><rect class="cls-3" x="443.96" y="237.32" width="124.66" height="83.11"/><rect class="cls-3" x="432.88" y="349.51" width="146.82" height="2.77"/><rect class="cls-3" x="432.88" y="361.98" width="146.82" height="2.77"/><rect class="cls-3" x="432.88" y="374.44" width="146.82" height="2.77"/><rect class="cls-3" x="432.88" y="386.91" width="146.82" height="2.77"/><rect class="cls-3" x="432.88" y="399.37" width="146.82" height="2.77"/><path class="cls-4" d="M671.62,447.08h-85V445.7c0-19.82,7.76-35.35,17.67-35.35a9.75,9.75,0,0,1,4.66,1.21c5-12.16,12.26-19.09,20.19-19.09s15.22,6.93,20.19,19.09a9.75,9.75,0,0,1,4.66-1.21c9.9,0,17.66,15.53,17.66,35.35Zm-82.25-2.77h79.47c-.35-17-7-31.19-14.88-31.19a7.73,7.73,0,0,0-4.53,1.61L648,415.8l-.64-1.7c-4.53-12-11.17-18.86-18.21-18.86s-13.68,6.88-18.22,18.86l-.64,1.7-1.47-1.07a7.7,7.7,0,0,0-4.52-1.61c-7.87,0-14.54,14.15-14.89,31.19Z"/><path class="cls-4" d="M394.6,447.08h-85V445.7c0-19.82,7.76-35.35,17.67-35.35a9.75,9.75,0,0,1,4.66,1.21c5-12.16,12.27-19.09,20.19-19.09s15.22,6.93,20.19,19.09a9.75,9.75,0,0,1,4.66-1.21c9.9,0,17.66,15.53,17.66,35.35Zm-82.24-2.77h79.46c-.35-17-7-31.19-14.88-31.19a7.76,7.76,0,0,0-4.53,1.61l-1.47,1.07-.64-1.7c-4.53-12-11.17-18.86-18.21-18.86s-13.68,6.88-18.22,18.86l-.64,1.7-1.47-1.07a7.7,7.7,0,0,0-4.52-1.61c-7.86,0-14.54,14.15-14.88,31.19Z"/><path class="cls-5" d="M989.14,236A148.14,148.14,0,1,1,837.75,88l1.39,0h2c1.68,0,3.36,0,5,.09q5.52.18,10.92.76c2.08.22,4.13.49,6.18.79l.7.11a145.89,145.89,0,0,1,24.89,6.11A148.06,148.06,0,0,1,989.14,236Z"/><ellipse class="cls-6" cx="725.66" cy="242.58" rx="0.99" ry="2.64" transform="translate(132.49 725.88) rotate(-57.66)"/><path class="cls-7" d="M723.57,235.39h0A4.63,4.63,0,0,1,730,234h0l58.6,37.11a4.63,4.63,0,0,1,1.44,6.38h0l-66.42-42.05Z"/><path class="cls-8" d="M718,237.35l1.84-2.91a3.15,3.15,0,0,1,4.36-1h0L791,275.71a3.73,3.73,0,0,1,1.16,5.16l-1.53,2.42h0L718,237.35Z"/><rect class="cls-7" x="729.18" y="238.28" width="1.32" height="5.28" transform="translate(135.83 728.63) rotate(-57.66)"/><rect class="cls-7" x="735.32" y="242.16" width="1.32" height="5.28" transform="translate(135.4 735.63) rotate(-57.66)"/><circle class="cls-9" cx="822.54" cy="65.58" r="41.65"/><path class="cls-9" d="M825.08,95s20.32,32,15.24,41.15-20.83,34-20.83,34,70.1-51.81,61-63c0,0-20.82-17.78-21.84-29Z"/><path class="cls-10" d="M881.2,378.52a148.69,148.69,0,0,1-101.75-7.95l3.2-85.5.24-6.65.09-2.16.11-3.18.08-2,.38,0c.68,0,2.25-.16,4.5-.29,2.61-.15,6.12-.34,10.21-.51l3-.13c21.54-.8,55.18-1,59.63,5.52l.56,3.82.9,6.17,1.84,12.61S885.11,339.82,881.2,378.52Z"/><path class="cls-11" d="M919.56,159.05l-36,79.61L868,273.22,862.16,286l-83.81-1L787,226.6c-12.19-31.49,16.76-44.19,16.76-44.19l24.39-26v4.14s23.87-28.45,34.54-44.7,25.39-10.16,25.39-10.16C913.46,103.17,919.56,159.05,919.56,159.05Z"/><path class="cls-12" d="M883.57,238.66,868,273.22c-5-9.39-8.84-20-8.84-26.3,0-17.27,17.27-8.13,17.27-8.13s-14-76.44-14-99.3C862.41,124.31,875.07,191.69,883.57,238.66Z"/><path class="cls-9" d="M869.78,244.38l-75.69-1.52s-55.36,4.57-47.24,26.92,52.32,0,52.32,0l88.39,13.71Z"/><path class="cls-13" d="M884,109.78s-26.41,2-26.41,24.88,23.87,104.13,23.87,104.13-17.27-9.14-17.27,8.13,28.95,67.56,32,34c0,0,43.68,21.34,41.14-18.79s-30-125-30-125S904.32,108.25,884,109.78Z"/><path class="cls-14" d="M823.92,61.05c-2.91-2.82-2.86-7.58-5.21-10.89C815,45,807.33,45.31,801,46.21c-4.19.6-8.45,1.21-12.34,2.87a12.15,12.15,0,0,0-7.14,8.17c-.5,2-1.59-3.76-2.69-11.28a36.62,36.62,0,0,1,20-38.23l.24-.12c7.14-3.47,14.62-6.53,22.51-7.4s16.31.7,22.49,5.67c2.83,2.27,5.13,5.19,8.16,7.18,5.33,3.5,12.08,3.67,18.41,4.4,7.16.84,14.33,2.59,20.51,6.3s11.3,9.56,13,16.55c2,8.17-1.27,17.82-9.29,21.36a9.61,9.61,0,0,0-3.63,2.67c-6.59,8.05,4,12.46,5.59,19.48,1.29,5.85-4.34,11.15-10.11,12.76-10.75,3-23.27-3-27.69-13.22-2-4.6-2.43-9.67-3-14.65-.62-5.69-15.55-16-5.47-8.24a14,14,0,0,1,4.47,5.65c3.06,7.34-3.3,11.5-6.71,16.74a18.63,18.63,0,0,0-.1,19.71C839.49,98,835,86.37,838.46,77c.92-2.49,2.3-4.79,3.13-7.31,1.3-3.93.15-11.57-5.65-10C831.8,60.78,828.27,65.26,823.92,61.05Z"/><path class="cls-15" d="M296.14,580a148,148,0,0,1-93.82,137.75c-2.17.87-4.38,1.68-6.6,2.43-2.48.85-5,1.63-7.52,2.34-1.76.49-3.53,1-5.33,1.38a149,149,0,0,1-81.61-3.48c-2.07-.69-4.12-1.43-6.15-2.2-2.73-1.05-5.43-2.18-8.08-3.39l-.58-.26c-1-.48-2-1-3.08-1.47h0c-1.41-.68-2.8-1.39-4.19-2.12q-4.77-2.52-9.33-5.37c-1.58-1-3.13-2-4.67-3.05a147.94,147.94,0,0,1,53-267.52q3.92-.81,7.91-1.4c1.67-.26,3.36-.48,5-.67,1.21-.14,2.42-.27,3.65-.37h0q4.94-.45,10-.56l1.39,0h2c1.68,0,3.36,0,5,.09q5.52.18,10.92.76c2.08.22,4.13.49,6.18.79l.7.11,2.05.34c1.44.23,2.87.5,4.3.79s2.67.55,4,.85a143.36,143.36,0,0,1,14.54,4.13,148.35,148.35,0,0,1,77.94,61.93q.76,1.21,1.5,2.46c.38.62.74,1.24,1.1,1.87q.19.31.36.63c.08.12.14.24.21.36.66,1.15,1.3,2.32,1.92,3.49A147.33,147.33,0,0,1,296.14,580Z"/><path class="cls-16" d="M228.38,527.14s34.35-30.2,47.12-9.09-35.76,29.65-38.56,28.56S228.38,527.14,228.38,527.14Z"/><path class="cls-17" d="M161.56,549.54s40.65-13.22,47.58-18.59,13.32-9.34,14.73-8.8,10.59-2.33,10.59-2.33l10.89,30.06S201.89,562,200.8,564.82,161.56,549.54,161.56,549.54Z"/><path class="cls-18" d="M182.87,723.9a149,149,0,0,1-81.61-3.48l1.8-17,1.67-15.9,25-38.73,8-12.41,33.09,12,3.37,21.25,5.37,33.89Z"/><path class="cls-19" d="M202.32,717.75c-2.17.87-4.38,1.68-6.6,2.43-2.48.85-5,1.63-7.52,2.34-1.76.49-3.53,1-5.33,1.38a149,149,0,0,1-81.61-3.48c-2.07-.69-4.12-1.43-6.15-2.2A114.37,114.37,0,0,1,94.57,736,210.81,210.81,0,0,1,87,714.83c-.15-.48-.29-1-.43-1.44-.7-2.42-1.32-4.73-1.88-6.9-.64-2.51-1.19-4.84-1.65-7C81.24,691.16,80.66,686,80.66,686l19.55-40.6,3.91.45,1.62.18,9.8,1.12,14.24,1.63,23.07,2.63,21.42,18.24L193.46,686s1.6,5.44,4.11,14.45C198.93,705.28,200.54,711.15,202.32,717.75Z"/><circle class="cls-16" cx="167.34" cy="404.09" r="34.59"/><path class="cls-16" d="M139.08,405.83,121,444.56l50.82,35.2s-6-41.92,5.29-52.54S139.08,405.83,139.08,405.83Z"/><path class="cls-20" d="M178.42,483s-24.06-49.63-43.61-49.63-70.69,34.59-69.18,42.11,1.5,9,1.5,13.54-10.53,4.51-1.5,7.51,10.52,6,10.52,6L68.63,695s33.09,12,45.12,7.51,24.06-34.59,24.06-34.59-3,40.61,9,39.11,57.15-4.52,58.65-10.53-9-138.36-9-138.36Z"/><path class="cls-16" d="M94.57,736v0C93,749.32,88.36,762.83,76.15,765.7c-20.74,4.88-12.78-37.74-9-54,.88-3.79,1.52-6.15,1.52-6.15l1.21.07,14.88.88,9.48.56s.39,2.75.69,7.06c.09,1.25.17,2.63.22,4.11A114.37,114.37,0,0,1,94.57,736Z"/><path class="cls-21" d="M100.22,470.93,56.6,582.22s-6,12,0,21-3,63.17,3,75.2,6,33.09,6,33.09l34.59,3,7.52-132.35L146.84,498S143.83,463.41,100.22,470.93Z"/><path class="cls-22" d="M111.5,467.17s-27.07,7.52-36.1,34.59Z"/><path class="cls-14" d="M144.67,419.87c3.37-.2,6.66.94,10,1.38,12,1.59,24.39-7.09,27-18.86a14.53,14.53,0,0,1,1.39-4.5c1.84-3,6-3.58,9.48-2.89s6.73,2.31,10.25,2.49c5.43.29,10.65-3.06,13.54-7.66s3.72-10.27,3.33-15.7l-2.61,2.73a13.38,13.38,0,0,1-1.18-7.19,8.35,8.35,0,0,0-7.9,2c-2.29.24-.56-4.26-2.27-5.82-.71-.65-1.81-.53-2.77-.52-4.89.05-8.84-3.69-12.69-6.7a53.8,53.8,0,0,0-22.77-10.38c-5.52-1.08-11.38-1.25-16.61.8-4.3,1.69-7.9,4.76-11.22,8-8.19,7.88-15.45,17.13-18.85,28a47,47,0,0,0-.23,27.3c1.37,4.64,5.51,20.51,11.57,20.88C139.77,433.65,135.2,420.44,144.67,419.87Z"/><polygon class="cls-22" points="147.13 530.5 111.71 582.45 100.38 703.12 147.13 530.5"/><ellipse class="cls-6" cx="287.45" cy="499.17" rx="2.64" ry="0.99" transform="translate(-285.85 443.24) rotate(-54.49)"/><path class="cls-7" d="M241,555.71h0a4.63,4.63,0,0,1-1.08-6.45h0l40.29-56.46a4.63,4.63,0,0,1,6.45-1.08h0l-45.66,64Z"/><path class="cls-23" d="M242.67,561.36l-2.33-1.67a3.74,3.74,0,0,1-.87-5.22l45.87-64.29a3.15,3.15,0,0,1,4.41-.73h0l2.8,2h0l-49.88,69.91Z"/><rect class="cls-7" x="280.31" y="498.55" width="5.28" height="1.32" transform="translate(-287.77 439.6) rotate(-54.49)"/><rect class="cls-7" x="276.09" y="504.47" width="5.28" height="1.32" transform="translate(-294.35 438.65) rotate(-54.49)"/><rect class="cls-4" x="283.14" y="445" width="446" height="2"/><path class="cls-24" d="M662.5,422.27a6.62,6.62,0,0,0-3.9,1.37c-3.33-8.79-8.48-14.43-14.26-14.43s-10.93,5.64-14.25,14.43a6.64,6.64,0,0,0-3.9-1.37c-6.57,0-11.9,11.11-11.9,24.81h60.1C674.39,433.38,669.07,422.27,662.5,422.27Z"/><path class="cls-25" d="M385.48,422.27a6.64,6.64,0,0,0-3.9,1.37c-3.33-8.79-8.47-14.43-14.26-14.43s-10.93,5.64-14.25,14.43a6.64,6.64,0,0,0-3.9-1.37c-6.57,0-11.9,11.11-11.9,24.81h60.1C397.37,433.38,392.05,422.27,385.48,422.27Z"/></g></g></g></svg>