<svg xmlns="http://www.w3.org/2000/svg" xmlns:xlink="http://www.w3.org/1999/xlink" viewBox="0 0 112.35 96.55"><defs><style>.cls-1{fill:url(#linear-gradient);}.cls-2{fill:url(#linear-gradient-2);}.cls-3{fill:url(#linear-gradient-3);}.cls-10,.cls-4,.cls-7,.cls-8,.cls-9{opacity:0.6;}.cls-4{fill:url(#linear-gradient-4);}.cls-5{fill:url(#linear-gradient-5);}.cls-6{fill:url(#linear-gradient-6);}.cls-7{fill:url(#linear-gradient-7);}.cls-8{fill:url(#linear-gradient-8);}.cls-9{fill:url(#linear-gradient-9);}.cls-10{fill:url(#linear-gradient-10);}</style><linearGradient id="linear-gradient" x1="29.99" y1="1.96" x2="29.99" y2="97.87" gradientUnits="userSpaceOnUse"><stop offset="0" stop-color="#ff736b"/><stop offset="1" stop-color="#ff2260"/></linearGradient><linearGradient id="linear-gradient-2" x1="80.91" y1="1.96" x2="80.91" y2="97.87" xlink:href="#linear-gradient"/><linearGradient id="linear-gradient-3" x1="30.04" y1="1.96" x2="30.04" y2="97.87" xlink:href="#linear-gradient"/><linearGradient id="linear-gradient-4" x1="80.73" y1="7.8" x2="80.73" y2="42.11" xlink:href="#linear-gradient"/><linearGradient id="linear-gradient-5" x1="30.03" y1="1.96" x2="30.03" y2="97.87" xlink:href="#linear-gradient"/><linearGradient id="linear-gradient-6" x1="80.86" y1="1.96" x2="80.86" y2="97.87" xlink:href="#linear-gradient"/><linearGradient id="linear-gradient-7" x1="80.72" y1="7.8" x2="80.72" y2="42.11" xlink:href="#linear-gradient"/><linearGradient id="linear-gradient-8" x1="93.42" y1="7.8" x2="93.42" y2="42.11" xlink:href="#linear-gradient"/><linearGradient id="linear-gradient-9" x1="68.05" y1="7.8" x2="68.05" y2="42.11" xlink:href="#linear-gradient"/><linearGradient id="linear-gradient-10" x1="80.72" y1="7.8" x2="80.72" y2="42.11" xlink:href="#linear-gradient"/></defs><title>Integrated video</title><g id="Layer_2" data-name="Layer 2"><g id="a1564cff-f165-45d5-b330-5a55512dec45"><path class="cls-1" d="M0,86.67c.61-.35.39-1,.43-1.48a142.53,142.53,0,0,1,3-21.46,7.08,7.08,0,0,1,4.12-5.14A54.82,54.82,0,0,1,15,55.82a1.72,1.72,0,0,0,1.23-.94,3.09,3.09,0,0,1,2-1.38,26.81,26.81,0,0,1,7.41-1.39,48.58,48.58,0,0,1,14.08.79,12.1,12.1,0,0,1,2.9,1c.35.18.86.38.95.68C44,55.75,45,55.8,45.91,56.09A33.74,33.74,0,0,1,54,59.49a5,5,0,0,1,2.23,3A101.48,101.48,0,0,1,59,78.23c.57,5.12.92,10.26,1,15.42,0,2.2-.62,2.88-2.84,2.88q-26.72,0-53.41,0c-1.39,0-2.69-.06-3.73-1.1Z"/><path class="cls-2" d="M112.35,47.61c-.48,0-.48.5-.65.8a6.14,6.14,0,0,1-5.62,3.37q-24.9,0-49.81,0c-4.18,0-6.66-2.51-6.68-6.7,0-1.87,0-3.74,0-5.6,0-.73.22-1.08,1-1.09A5.65,5.65,0,0,0,53,37.84c.79-.39,1-.19,1,.65,0,2.23,0,4.46,0,6.69,0,1.58.62,2.22,2.18,2.22h49.58c1.63,0,2.22-.66,2.22-2.42V6.81c0-1.82-.58-2.4-2.46-2.41H56.58C54.55,4.38,54,5,54,7c0,4.24,0,8.48,0,12.72,0,.46.33,1.23-.3,1.32A1.63,1.63,0,0,1,52,20.23c-1-2.58-2.92-4.87-2.46-8a43.13,43.13,0,0,0,.06-5.8A6.18,6.18,0,0,1,56,0Q81,0,106.09,0a6.09,6.09,0,0,1,5.64,3.53c.16.3.16.75.62.83Z"/><path class="cls-3" d="M46.5,28.72a30,30,0,0,1-6.18,17.39c-.16.21-.33.39-.48.6a5.41,5.41,0,0,1-5.64,2.37,41.08,41.08,0,0,0-10.39.12,2.44,2.44,0,0,1-2.07-.72A23.86,23.86,0,0,1,16,39.88a27,27,0,0,1-2.16-14.57,16.41,16.41,0,0,1,32.49,1.11C46.4,27.19,46.44,28,46.5,28.72Z"/><path class="cls-4" d="M90.18,21.46a20,20,0,0,1-4.43,11.37c-3.1,3.7-7.1,3.71-10.12-.08-3.25-4.06-4.93-8.77-4.18-14a9.36,9.36,0,0,1,10.07-8C86.53,11.29,90.22,15.56,90.18,21.46Z"/><path class="cls-5" d="M30.13,7.75a20.26,20.26,0,0,1,19.38,14,2,2,0,0,0,1.63,1.34,6.52,6.52,0,0,1,4.74,6.69,6.73,6.73,0,0,1-5.83,6.06,6.4,6.4,0,0,1-1,0c-1.47-.15-2.08-1-1.71-2.4A20.24,20.24,0,0,0,47.72,24c-1.65-7.46-7.53-12.67-15.5-13.8A18.22,18.22,0,0,0,13.06,21.4a18.84,18.84,0,0,0-.53,11.43c.55,2.28-.3,3.21-2.67,3A6.74,6.74,0,0,1,4.18,30,6.35,6.35,0,0,1,8.8,23.11a2.38,2.38,0,0,0,1.85-1.81A20.35,20.35,0,0,1,30.13,7.75Z"/><path class="cls-6" d="M80.76,59.75H65.86a6.4,6.4,0,0,1-1.31-.07c-.66-.14-1-.57-.85-1.27.33-1.16.7-2.31,1.1-3.44.32-.9,1.1-.94,1.9-.94H88.18c2.3,0,4.61,0,6.9,0a1.88,1.88,0,0,1,2.14,1.57c.18.71.44,1.4.65,2.09.49,1.61.17,2-1.55,2.07s-3.73,0-5.59,0h-10Z"/><path class="cls-7" d="M64.21,21.11c0-.55,0-1.1,0-1.65,0-1.52.8-2.42,2.31-2.27s2.21-.48,2.81-1.89c2-4.71,6.55-7.38,11.86-7.23a12.15,12.15,0,0,1,11.15,8c.31.84.68,1.19,1.55,1.07a5.19,5.19,0,0,1,1.42,0,2,2,0,0,1,1.88,2.07c0,1.2,0,2.41,0,3.62a2.1,2.1,0,0,1-2.16,2.26c-.79.07-1.81-.35-2.31.22s-.39,1.51-.59,2.29S91.76,29.2,91.5,30c-.32.94-.69,1.74-.07,2.83s-.29,2.38-1.52,2.66a2.13,2.13,0,0,1-2.51-1.74,2,2,0,0,1,1.87-2.36,1.06,1.06,0,0,0,1.08-.83,26.75,26.75,0,0,0,1.27-5c0-.11.09-.27,0-.32-1-1.16-.18-2.37-.07-3.54.44-4.4-1-8-4.74-10.37A10.69,10.69,0,0,0,74.92,11a10.15,10.15,0,0,0-5.2,10.13,13.78,13.78,0,0,0,.39,2.37c.22.91-.1,1.48-1,1.55a18.65,18.65,0,0,1-3.17,0,1.84,1.84,0,0,1-1.69-1.86c0-.69,0-1.39,0-2.08Z"/><path class="cls-8" d="M93.35,44.76c-2.26,0-4.52,0-6.78,0-.72,0-1-.07-.63-.88a33.25,33.25,0,0,0,1.82-5.25c.11-.45.18-.88.83-.68,2.65.81,5.42,1.14,8.06,2A5.89,5.89,0,0,1,101,44c.17.6.13.76-.51.75C98.09,44.75,95.72,44.76,93.35,44.76Z"/><path class="cls-9" d="M68,44.76c-2.26,0-4.53,0-6.79,0-.89,0-.88-.23-.67-1a5.39,5.39,0,0,1,3.73-3.68,61.81,61.81,0,0,1,7.1-1.75c2-.46,2-.45,2.63,1.54.45,1.38,1,2.75,1.5,4.1.24.6.14.76-.5.76C72.7,44.74,70.36,44.76,68,44.76Z"/><path class="cls-10" d="M80.76,44.76H80.1c-1.33,0-1.32,0-1.14-1.3a6.53,6.53,0,0,0,0-1.08c0-.71-.73-1.51.45-2a2.82,2.82,0,0,1,3.17.3c.3.29.18.61.11.92a4.05,4.05,0,0,0-.11,2.26c.3.85-.07,1-.81.93A8,8,0,0,0,80.76,44.76Z"/></g></g></svg>