<svg xmlns="http://www.w3.org/2000/svg" xmlns:xlink="http://www.w3.org/1999/xlink" viewBox="0 0 64.73 68.06"><defs><style>.cls-1{fill:url(#linear-gradient);}.cls-2{fill:url(#linear-gradient-2);}</style><linearGradient id="linear-gradient" x1="28.77" y1="0.76" x2="28.77" y2="68.97" gradientUnits="userSpaceOnUse"><stop offset="0" stop-color="#ff736b"/><stop offset="1" stop-color="#ff2260"/></linearGradient><linearGradient id="linear-gradient-2" x1="48.23" y1="0.76" x2="48.23" y2="68.97" xlink:href="#linear-gradient"/></defs><title>Intra_Communication</title><g id="Layer_2" data-name="Layer 2"><g id="a1564cff-f165-45d5-b330-5a55512dec45"><path class="cls-1" d="M35.93,50.35V43.13H14.42V28.77H16q13.21,0,26.43,0a2.6,2.6,0,0,0,1.15-.23L57,21.41a.85.85,0,0,0,.54-.86c0-5.94,0-11.88,0-17.82C57.53.9,56.59,0,54.75,0H3.15A2.85,2.85,0,0,0,0,3.08V47.26a2.76,2.76,0,0,0,3.09,3.09H35.93ZM52.68,21.56H48V16.83h4.67ZM48,7.26h4.7V12H48Zm-43.15,0H9.55V12H4.84Zm4.7,9.58v4.72H4.85V16.83Zm0,26.27H4.85V38.42h4.7Zm0-9.6H4.85V28.83H9.57ZM14.41,7.26H43.1V21.51H14.41Z"/><path class="cls-2" d="M64.73,29.83V23.7l-.42.17-23,12.28a.88.88,0,0,0-.52.94c0,2.4,0,4.8,0,7.19V53l-.68-.14a6,6,0,0,0-5.64,1.42,8.27,8.27,0,0,0-.76,11.47,6.3,6.3,0,0,0,8.25,1.36,7.68,7.68,0,0,0,3.6-7c0-4.92,0-9.84,0-14.76a1,1,0,0,1,.6-1l10-5.37,3.75-2V49.6l-.49-.1a6.36,6.36,0,0,0-6.77,2.43,8.35,8.35,0,0,0,.2,10.39,6.38,6.38,0,0,0,9.15.79,8.33,8.33,0,0,0,2.74-6.62Z"/></g></g></svg>