<svg xmlns="http://www.w3.org/2000/svg" xmlns:xlink="http://www.w3.org/1999/xlink" viewBox="0 0 111.29 127.45"><defs><style>.cls-1{opacity:0.2;fill:url(#linear-gradient);}.cls-2{fill:url(#Degradado_sin_nombre_8);}.cls-3{fill:url(#Degradado_sin_nombre_8-2);}.cls-4{fill:url(#Degradado_sin_nombre_8-3);}.cls-5{fill:url(#Degradado_sin_nombre_8-4);}.cls-6{fill:url(#Degradado_sin_nombre_8-5);}.cls-7{fill:url(#Degradado_sin_nombre_8-6);}.cls-8{fill:url(#Degradado_sin_nombre_8-7);}.cls-9{fill:url(#Degradado_sin_nombre_8-8);}.cls-10{fill:#f9f7f7;}</style><linearGradient id="linear-gradient" x1="55.92" y1="25.61" x2="55.92" y2="117.02" gradientUnits="userSpaceOnUse"><stop offset="0" stop-color="#ff736b" stop-opacity="0.5"/><stop offset="0.51" stop-color="#ff4a66"/><stop offset="0.77" stop-color="#ff3563"/><stop offset="1" stop-color="#ff2260"/></linearGradient><linearGradient id="Degradado_sin_nombre_8" x1="72.29" y1="118.6" x2="40.42" y2="118.6" gradientUnits="userSpaceOnUse"><stop offset="0" stop-color="#ff736b"/><stop offset="1" stop-color="#ff2260"/></linearGradient><linearGradient id="Degradado_sin_nombre_8-2" x1="43.86" y1="115.64" x2="67.2" y2="115.64" xlink:href="#Degradado_sin_nombre_8"/><linearGradient id="Degradado_sin_nombre_8-3" x1="43.86" y1="118.86" x2="67.2" y2="118.86" xlink:href="#Degradado_sin_nombre_8"/><linearGradient id="Degradado_sin_nombre_8-4" x1="49.97" y1="56.21" x2="42.92" y2="115.74" xlink:href="#Degradado_sin_nombre_8"/><linearGradient id="Degradado_sin_nombre_8-5" x1="88.72" y1="60.8" x2="81.67" y2="120.33" xlink:href="#Degradado_sin_nombre_8"/><linearGradient id="Degradado_sin_nombre_8-6" x1="102.66" y1="62.45" x2="95.6" y2="121.98" xlink:href="#Degradado_sin_nombre_8"/><linearGradient id="Degradado_sin_nombre_8-7" x1="18.36" y1="52.46" x2="11.31" y2="111.99" xlink:href="#Degradado_sin_nombre_8"/><linearGradient id="Degradado_sin_nombre_8-8" x1="6.98" y1="51.11" x2="-0.08" y2="110.64" xlink:href="#Degradado_sin_nombre_8"/></defs><title>Learn Anywhere</title><g id="Layer_2" data-name="Layer 2"><g id="Layer_1-2" data-name="Layer 1"><path class="cls-1" d="M92.51,59.46A36.59,36.59,0,1,0,30,85.3a41.55,41.55,0,0,1,10.75,18.46l2.95,10.91h24l2.8-10.34A41.61,41.61,0,0,1,81.58,85.55,36.45,36.45,0,0,0,92.51,59.46Z"/><path class="cls-2" d="M61.46,127.45H49.77a6.21,6.21,0,0,1-6.34-5.55l-1-12,26.48-.17L67.8,121.9A6.21,6.21,0,0,1,61.46,127.45Z"/><path class="cls-3" d="M66.55,115c-7.4.32-14.82-.06-22.22.27a.5.5,0,0,0,0,1c7.4.25,14.82-.21,22.23,0C67.43,116.29,67.39,114.94,66.55,115Z"/><path class="cls-4" d="M66.55,118.18c-7.4.32-14.82-.06-22.22.27a.51.51,0,0,0,0,1c7.4.24,14.82-.21,22.23,0C67.43,119.51,67.39,118.15,66.55,118.18Z"/><path class="cls-5" d="M58.91,4.27c0,2.36-1.26,10.83-2.8,10.83s-2.8-8.47-2.8-10.83S54.56,0,56.11,0,58.91,1.91,58.91,4.27Z"/><path class="cls-6" d="M93.8,17.29c-1.79,1.53-7.4,8-6.39,9.18s8.25-3.4,10-4.93,2.42-3.74,1.41-4.91S95.59,15.75,93.8,17.29Z"/><path class="cls-7" d="M107.4,55.12c-2.34.29-10.91.12-11.1-1.42s8-3.84,10.39-4.14,4.39.71,4.59,2.24S109.74,54.82,107.4,55.12Z"/><path class="cls-8" d="M21.62,14.47c1.85,1.46,7.75,7.67,6.8,8.89s-8.4-3-10.26-4.48-2.58-3.62-1.63-4.83S19.76,13,21.62,14.47Z"/><path class="cls-9" d="M3.9,49.06c2.34.29,10.9.12,11.1-1.42S6.94,43.8,4.6,43.5.21,44.21,0,45.74,1.56,48.76,3.9,49.06Z"/><path class="cls-10" d="M71.72,78.09A9.39,9.39,0,0,1,69,74.84,11.47,11.47,0,0,0,71.11,69a36.44,36.44,0,0,0,.21-3.76,3.27,3.27,0,0,0-1.16-3c-.92-.67-2.14-.06-2.85.59a6.92,6.92,0,0,0-1.52,3,14.17,14.17,0,0,0,.39,8.59,5.63,5.63,0,0,1-1.76.94c-2,.64-3.51-.52-4.44-2.22-.15-.28-.29-.58-.43-.89.16-.42.31-.84.45-1.25a26.35,26.35,0,0,0,1.22-6.28c.14-1.76.19-3.86-1.5-4.91a1.12,1.12,0,0,0-1.5.4c-2.48,3.43-2.34,8-1,11.89a28.2,28.2,0,0,1-1.51,3c-.62,1.07-1.81,2.72-3.24,2.51s-2.41-1.87-3.08-2.91a11.81,11.81,0,0,1-1.17-2.43c.17-.44.33-.9.47-1.35a25,25,0,0,0,1-5.56c.13-1.57.18-3.77-1.54-4.53a1.11,1.11,0,0,0-1.5.4,15.68,15.68,0,0,0-.85,10.58c0,.12.07.24.11.36a23.21,23.21,0,0,1-4.55,7.19c-.86.94.51,2.32,1.4,1.41a24.44,24.44,0,0,0,4.26-5.9,15.69,15.69,0,0,0,1.11,1.79c1.12,1.55,2.52,3,4.54,3.11s3.41-1.48,4.43-2.86a14.77,14.77,0,0,0,1.3-2.13,5.8,5.8,0,0,0,4.07,2.89,6.64,6.64,0,0,0,4.65-1.2,14,14,0,0,0,3,3.6A1.24,1.24,0,1,0,71.72,78.09ZM59.11,62.83a13.41,13.41,0,0,1-.17,2.49,21.78,21.78,0,0,1-.48,2.89A10.1,10.1,0,0,1,59.11,62.83Zm8.55,5.52a10.67,10.67,0,0,1,.61-2.67,5.61,5.61,0,0,1,.54-1.1,1,1,0,0,1,.17-.21,2.46,2.46,0,0,1,0,.26,18.94,18.94,0,0,1-.76,6.74,7.05,7.05,0,0,1-.3.76A12.7,12.7,0,0,1,67.66,68.35Z"/><path class="cls-10" d="M73.8,72.71c-3.89,11.88-8,23.69-12.39,35.39a1.16,1.16,0,0,0,2.15.86C68,97.24,72,85.42,75.67,73.46,76.05,72.23,74.2,71.47,73.8,72.71Z"/><path class="cls-10" d="M38.41,72c3.1,12.11,6,24.27,8.58,36.5a1.16,1.16,0,0,0,2.28-.44c-2.6-12.23-5.52-24.39-8.88-36.44C40.05,70.34,38.08,70.69,38.41,72Z"/></g></g></svg>