<svg xmlns="http://www.w3.org/2000/svg" xmlns:xlink="http://www.w3.org/1999/xlink" viewBox="0 0 870 520.1"><defs><style>.cls-1{isolation:isolate;}.cls-2{fill:#f2f2f2;}.cls-3{fill:#fff;}.cls-4{fill:#ccc;}.cls-5{fill:#ff5367;}.cls-6{fill:#ffb8b8;}.cls-7{fill:#233862;}.cls-8{fill:url(#Degradado_sin_nombre_8);}.cls-9{fill:url(#Degradado_sin_nombre_8-2);}.cls-10{fill:url(#Degradado_sin_nombre_8-3);}.cls-11{fill:url(#linear-gradient);}.cls-12{fill:#b589b6;opacity:0.5;mix-blend-mode:multiply;}</style><linearGradient id="Degradado_sin_nombre_8" x1="629.77" y1="238.68" x2="665.16" y2="238.68" gradientUnits="userSpaceOnUse"><stop offset="0" stop-color="#ff736b"/><stop offset="1" stop-color="#ff2260"/></linearGradient><linearGradient id="Degradado_sin_nombre_8-2" x1="615.4" y1="205.06" x2="616.4" y2="326.06" xlink:href="#Degradado_sin_nombre_8"/><linearGradient id="Degradado_sin_nombre_8-3" x1="605.47" y1="196.87" x2="569.47" y2="252.87" xlink:href="#Degradado_sin_nombre_8"/><linearGradient id="linear-gradient" x1="622.71" y1="499.74" x2="602.71" y2="287.74" gradientUnits="userSpaceOnUse"><stop offset="0" stop-color="#fe3eff"/><stop offset="1" stop-color="#423eff"/></linearGradient></defs><title>login</title><g class="cls-1"><g id="Layer_2" data-name="Layer 2"><g id="b368e7d6-7c4a-408c-9a35-0514749a7e1a"><path class="cls-2" d="M666.09,514.26C655,504.84,648.19,490,650,475.5s12.77-27.78,27-30.85,30.51,5.43,34.83,19.36c2.39-26.85,5.13-54.82,19.41-77.68,12.92-20.7,35.31-35.51,59.57-38.16s49.8,7.35,64.93,26.5,18.83,47,8.24,69c-7.81,16.2-22.19,28.25-37.26,38.05a240.4,240.4,0,0,1-164.45,36Z"/><path class="cls-3" d="M831.73,356.08A396.62,396.62,0,0,0,715.15,513.72c-1.11,2.72,3.31,3.91,4.41,1.21A392.44,392.44,0,0,1,835,359.31C837.25,357.45,834,354.23,831.73,356.08Z"/><path class="cls-2" d="M280.07,511.7c15.3-12.93,24.59-33.35,22.15-53.23s-17.53-38.15-37.11-42.38-41.9,7.47-47.84,26.59C214,405.81,210.22,367.39,190.62,336c-17.75-28.43-48.5-48.78-81.82-52.42S40.4,293.68,19.62,320-6.25,384.51,8.3,414.71C19,437,38.78,453.51,59.47,467c66,43,147.94,60.89,225.88,49.42"/><path class="cls-3" d="M52.57,294.44a540.84,540.84,0,0,1,75.3,74.78,548.32,548.32,0,0,1,59.39,87.89A545.32,545.32,0,0,1,212.69,511c1.52,3.74-4.55,5.37-6.06,1.67a536.7,536.7,0,0,0-49-92.73,539.85,539.85,0,0,0-65.73-81.2,539.13,539.13,0,0,0-43.77-39.81c-3.13-2.56,1.34-7,4.45-4.45Z"/><path class="cls-2" d="M624.5,519h-365V144.5C259.5,64.82,324.32,0,404,0h76c79.68,0,144.5,64.82,144.5,144.5Z"/><path class="cls-4" d="M548.5,519h-289V144.5a143.35,143.35,0,0,1,27.6-84.94c.66-.91,1.32-1.8,2-2.69A144.65,144.65,0,0,1,319.86,27l2-1.42A144.72,144.72,0,0,1,353.32,9.14l2-.74a144.6,144.6,0,0,1,31.11-7.34c.66-.09,1.33-.16,2-.23a147,147,0,0,1,31.1,0c.68.07,1.35.14,2,.23a144.51,144.51,0,0,1,31.1,7.34l2,.74a143.57,143.57,0,0,1,31.1,16.22c.68.46,1.35.93,2,1.4a146.05,146.05,0,0,1,18.38,15.57A143,143,0,0,1,518.9,56.88c.68.88,1.34,1.77,2,2.67a143.4,143.4,0,0,1,27.6,85Z"/><circle class="cls-5" cx="525" cy="335.5" r="16"/><polygon class="cls-6" points="594.6 507.78 582.34 507.78 576.51 460.5 594.6 460.5 594.6 507.78"/><path class="cls-7" d="M573.58,504.28h23.65v14.89H558.69a14.89,14.89,0,0,1,14.89-14.89Z"/><polygon class="cls-6" points="655.6 507.78 643.34 507.78 637.51 460.5 655.6 460.5 655.6 507.78"/><path class="cls-7" d="M634.58,504.28h23.65v14.89H619.69a14.89,14.89,0,0,1,14.89-14.89Z"/><path class="cls-6" d="M533.1,338.67A10.74,10.74,0,0,1,536,323.75a10,10,0,0,1,1.66-.92L579.28,208l20.51,11.19L552.21,328.92a10.8,10.8,0,0,1-19.11,9.75Z"/><path class="cls-6" d="M649.34,360.25a10.74,10.74,0,0,1-4-14.66,10.47,10.47,0,0,1,1.08-1.55L633.53,222.53l23.34,1.06,5.37,119.52a10.8,10.8,0,0,1-12.9,17.14Z"/><circle class="cls-6" cx="612.11" cy="162.12" r="24.56"/><path class="cls-8" d="M632.05,270.81l-2-45.94c-1.52-8.64,3.42-16.8,11-18.14s15,4.66,16.56,13.36L665.16,263Z"/><path class="cls-9" d="M649.18,332.62h-74l.09-.58c.13-.86,13.2-86.44,3.56-114.43A11.83,11.83,0,0,1,584.85,203h0c13.77-6.48,40.21-14.47,62.52,4.91a28.24,28.24,0,0,1,9.46,23.4Z"/><path class="cls-10" d="M589.35,258.25,556,251.49l15.62-37a14,14,0,0,1,27.11,7Z"/><path class="cls-11" d="M646.72,327.12c11.91,45.38,13.21,103.07,10,166l-16-2-29-120-16,122-18-1c-5.38-66-10.62-122.72-2-160Z"/><path class="cls-7" d="M628.29,181.1c-4.58,4.88-13.09,2.26-13.69-4.4a8.13,8.13,0,0,1,0-1.56c.31-2.95,2-5.63,1.61-8.75a4.63,4.63,0,0,0-.84-2.15c-3.65-4.89-12.23,2.19-15.67-2.24-2.11-2.71.37-7-1.25-10-2.14-4-8.48-2-12.46-4.22-4.42-2.44-4.15-9.23-1.24-13.36,3.55-5,9.77-7.71,15.92-8.1s12.25,1.27,18,3.51c6.52,2.54,13,6.05,17,11.79,4.88,7,5.35,16.35,2.91,24.5C637.1,171.06,632,177.12,628.29,181.1Z"/><path class="cls-12" d="M840,519.64H101.69a1.19,1.19,0,0,1,0-2.38H840a1.19,1.19,0,1,1,0,2.38Z"/><path class="cls-3" d="M469,410.5H339a6.47,6.47,0,0,1-6.5-6.42V113.92a6.47,6.47,0,0,1,6.5-6.42H469a6.47,6.47,0,0,1,6.5,6.42V404.08A6.47,6.47,0,0,1,469,410.5Z"/><rect class="cls-4" x="332.5" y="201.39" width="143" height="2"/><rect class="cls-4" x="333" y="315.5" width="143" height="2"/><rect class="cls-4" x="377.5" y="107.5" width="2" height="304"/><rect class="cls-4" x="427.5" y="107.5" width="2" height="304"/></g></g></g></svg>