<svg xmlns="http://www.w3.org/2000/svg" xmlns:xlink="http://www.w3.org/1999/xlink" viewBox="0 0 811.76 620"><defs><style>.cls-1{fill:#f2f2f2;}.cls-2{fill:#fff;}.cls-3{fill:#ffb8b8;}.cls-4{fill:#233862;}.cls-5{fill:url(#linear-gradient);}.cls-6{fill:url(#linear-gradient-2);}.cls-7{fill:url(#linear-gradient-3);}.cls-8{fill:url(#linear-gradient-4);}.cls-9{fill:#b589b6;isolation:isolate;}.cls-10,.cls-9{opacity:0.5;}.cls-10{fill:url(#linear-gradient-5);}.cls-11{fill:#ccc;}.cls-12{fill:#e6e6e6;}.cls-13{fill:url(#linear-gradient-6);}.cls-14{fill:url(#linear-gradient-7);}.cls-15{fill:url(#linear-gradient-8);}</style><linearGradient id="linear-gradient" x1="207.62" y1="417.35" x2="207.62" y2="619.43" gradientUnits="userSpaceOnUse"><stop offset="0" stop-color="#553eff"/><stop offset="1" stop-color="#00f0ff"/></linearGradient><linearGradient id="linear-gradient-2" x1="198.84" y1="285.35" x2="198.84" y2="454.96" gradientUnits="userSpaceOnUse"><stop offset="0" stop-color="#423eff"/><stop offset="1" stop-color="#fe3eff"/></linearGradient><linearGradient id="linear-gradient-3" x1="163.83" y1="285.35" x2="163.83" y2="454.96" xlink:href="#linear-gradient-2"/><linearGradient id="linear-gradient-4" x1="225.94" y1="285.35" x2="225.94" y2="454.96" xlink:href="#linear-gradient-2"/><linearGradient id="linear-gradient-5" x1="370.76" y1="197.08" x2="471.76" y2="197.08" gradientUnits="userSpaceOnUse"><stop offset="0" stop-color="#ff736b"/><stop offset="1" stop-color="#ff2260"/></linearGradient><linearGradient id="linear-gradient-6" x1="465.76" y1="143" x2="511.76" y2="143" xlink:href="#linear-gradient-5"/><linearGradient id="linear-gradient-7" x1="756.58" y1="246" x2="816.53" y2="246" gradientUnits="userSpaceOnUse"><stop offset="0" stop-color="#00f0ff"/><stop offset="1" stop-color="#553eff"/></linearGradient><linearGradient id="linear-gradient-8" x1="683.58" y1="23" x2="746.65" y2="23" xlink:href="#linear-gradient-7"/></defs><title>notification</title><g id="Layer_2" data-name="Layer 2"><g id="b6508004-6c42-4ebe-8fca-29884660373a"><path class="cls-1" d="M74.91,619l0,.25-.12-.73c-.08-.39-.14-.78-.21-1.17a95.68,95.68,0,0,1,3.91-45.76c1-2.88,2.06-5.69,3.29-8.46a93.64,93.64,0,0,1,19.65-28.71,40.23,40.23,0,0,1,9.11-7c.49-.26,1-.51,1.49-.74a16.75,16.75,0,0,1,10-1.45,14,14,0,0,1,3.56,1.2,11.59,11.59,0,0,1,1.15.63,19.69,19.69,0,0,1,8.64,13.23,30.85,30.85,0,0,1-.43,12c-.08.37-.17.75-.26,1.12a61.59,61.59,0,0,1-2.49,7.73C122.19,586.86,100.77,609.62,74.91,619Z"/><path class="cls-2" d="M125.48,526.55q-11.66,16.77-22,34.38t-19.37,36q-5,10.27-9.64,20.75c-.34.77.81,1.44,1.15.66q8.22-18.7,17.83-36.75T114,546.26q6.12-9.66,12.66-19c.49-.7-.66-1.36-1.15-.66Z"/><path class="cls-2" d="M133.81,552.42a36.41,36.41,0,0,1-24,13.88,34.45,34.45,0,0,1-8,.16c-.85-.08-.86,1.25,0,1.33a37.78,37.78,0,0,0,27.37-8.65,36.13,36.13,0,0,0,5.74-6c.51-.68-.64-1.34-1.15-.67Z"/><path class="cls-2" d="M83.88,593.63a30.36,30.36,0,0,1-3.36-6.22,32.26,32.26,0,0,1-2.07-15.79c1-2.88,2.06-5.69,3.29-8.46a.77.77,0,0,1,.06.75A28.41,28.41,0,0,0,80,570.37,30.71,30.71,0,0,0,85,593a.54.54,0,0,1,.08.52.72.72,0,0,1-1,.37A.8.8,0,0,1,83.88,593.63Z"/><path class="cls-2" d="M110.7,526.62a30.83,30.83,0,0,0,1.36,19.18.66.66,0,0,0,.9.24.68.68,0,0,0,.25-.9A29.3,29.3,0,0,1,112,527a.67.67,0,0,0-.5-.8.65.65,0,0,0-.78.45Z"/><path class="cls-1" d="M74.75,587l.08.23-.45-.58c-.25-.31-.49-.63-.72-.95a95.47,95.47,0,0,1-17.8-42.34q-.72-4.49-1-9A94,94,0,0,1,58.9,499.8a40.55,40.55,0,0,1,4.83-10.43c.31-.46.63-.91,1-1.34a16.57,16.57,0,0,1,8.18-5.93,13.69,13.69,0,0,1,3.7-.6c.44,0,.88,0,1.31,0a19.7,19.7,0,0,1,13.8,7.7,30.79,30.79,0,0,1,5.21,10.85c.1.37.2.75.29,1.12a62,62,0,0,1,1.39,8C101.68,536.55,93.28,566.65,74.75,587Z"/><path class="cls-2" d="M76.57,481.61Q74,501.88,73,522.3t-.45,40.84q.32,11.43,1.11,22.85c0,.84,1.38.9,1.32,0q-1.41-20.38-1.28-40.82t1.81-40.81q.94-11.4,2.37-22.75c.11-.85-1.22-.9-1.33-.05Z"/><path class="cls-2" d="M96,500.65A36.39,36.39,0,0,1,81.2,524.07a34.55,34.55,0,0,1-7,3.85c-.79.33-.18,1.5.6,1.18A37.71,37.71,0,0,0,95,508.73a35.61,35.61,0,0,0,2.27-8c.14-.84-1.19-.89-1.33-.06Z"/><path class="cls-2" d="M70.89,560.34a30.57,30.57,0,0,1-5.86-4,32,32,0,0,1-9.17-13q-.72-4.49-1-9a.74.74,0,0,1,.4.63,29.7,29.7,0,0,0,1.36,6.59,30.77,30.77,0,0,0,15,17.65.54.54,0,0,1,.32.42.73.73,0,0,1-.68.77A.92.92,0,0,1,70.89,560.34Z"/><path class="cls-2" d="M63.51,488.54a30.94,30.94,0,0,0,10.11,16.35.67.67,0,0,0,.72-1.12,29.36,29.36,0,0,1-9.53-15.52.67.67,0,0,0-1.3.29Z"/><path class="cls-1" d="M75.32,619.2l.2.15-.7-.25-1.11-.4a95.49,95.49,0,0,1-37.8-26.1q-3-3.39-5.72-7A93.7,93.7,0,0,1,15,554.26a40.22,40.22,0,0,1-1.55-11.38c0-.56,0-1.11.1-1.67a16.65,16.65,0,0,1,3.7-9.4,13.86,13.86,0,0,1,2.8-2.5c.37-.24.74-.47,1.12-.68a19.74,19.74,0,0,1,15.77-1A31,31,0,0,1,47.19,534l.84.78a61,61,0,0,1,5.48,6C70.84,562.18,80,592.07,75.32,619.2Z"/><path class="cls-2" d="M20.1,529.41q8.77,18.45,18.93,36.2t21.61,34.65q6.42,9.48,13.23,18.66c.51.68,1.66,0,1.15-.67Q62.86,601.84,52,584.55T31.51,549.19q-5.35-10.11-10.26-20.45C20.88,528,19.74,528.65,20.1,529.41Z"/><path class="cls-2" d="M46.7,535a36.45,36.45,0,0,1,.17,27.68,34.4,34.4,0,0,1-3.83,7c-.49.69.66,1.36,1.15.66a37.71,37.71,0,0,0,6.06-28,36,36,0,0,0-2.41-8c-.34-.78-1.48-.11-1.14.67Z"/><path class="cls-2" d="M57.72,598.81a30.4,30.4,0,0,1-7.07-.17,32,32,0,0,1-14.74-6q-3-3.39-5.72-7a.74.74,0,0,1,.68.31,29,29,0,0,0,4.7,4.82,30.72,30.72,0,0,0,22.15,6.79.54.54,0,0,1,.49.18.73.73,0,0,1-.49,1.15Z"/><path class="cls-2" d="M12.83,542.29a30.85,30.85,0,0,0,17.33,8.33c.35,0,.66-.34.66-.66a.68.68,0,0,0-.66-.67,29.36,29.36,0,0,1-16.4-7.94c-.61-.59-1.55.34-.93.94Z"/><path class="cls-3" d="M165.86,444.25a10.76,10.76,0,0,0,2.79-14.94,10.54,10.54,0,0,0-1.21-1.46l4.17-93-21.22,2.39,1.24,91a10.8,10.8,0,0,0,14.23,16.05Z"/><polygon class="cls-3" points="204.56 601.71 216.64 603.83 228.57 558.27 212.75 555.13 204.56 601.71"/><path class="cls-4" d="M238,619.14,200,612.46h0l2.57-14.66h0l23.29,4.1A14.87,14.87,0,0,1,238,619.14Z"/><polygon class="cls-3" points="171.42 607.75 183.68 607.75 189.51 560.46 171.42 560.46 171.42 607.75"/><path class="cls-4" d="M207.33,619.13H168.8V604.25h23.65a14.89,14.89,0,0,1,14.89,14.88Z"/><path class="cls-5" d="M223.57,594.8l-.57,0-14.43-1.19a4.88,4.88,0,0,1-4.28-5.42c0-.08,0-.16,0-.24l13.32-74.68-9-47.47a1.63,1.63,0,0,0-3.22.16L194.18,592.55A4.92,4.92,0,0,1,189,597l-13.6-.5a4.9,4.9,0,0,1-4.53-4.64l-.92-151.76,70.48-8.81,4.93,76,0,.08-17,83.67A4.89,4.89,0,0,1,223.57,594.8Z"/><circle class="cls-3" cx="193.16" cy="250" r="24.56"/><path class="cls-6" d="M216.3,451.18a20.17,20.17,0,0,1-10.86-3.11C193.55,440.64,180,443.59,173,446a4.91,4.91,0,0,1-4.22-.48,4.82,4.82,0,0,1-2.23-3.56L153.87,328.36c-2.13-19,9.34-36.94,27.27-42.56h0c.67-.21,1.36-.41,2.05-.6a39.53,39.53,0,0,1,33,5.72,40.18,40.18,0,0,1,17.17,29.35L244,434.66a4.81,4.81,0,0,1-1.53,4C238.76,442.14,227.86,451.18,216.3,451.18Z"/><path class="cls-7" d="M177.56,352.72l-28.7-3.15a5.72,5.72,0,0,1-5.06-6.31,6,6,0,0,1,.15-.83l7.31-27.84a15.88,15.88,0,0,1,31.55,3.56l1.09,28.68a5.71,5.71,0,0,1-5.5,5.92,4.72,4.72,0,0,1-.84,0Z"/><path class="cls-3" d="M243.93,440.27a10.76,10.76,0,0,0,1-15.17,9.93,9.93,0,0,0-1.37-1.3L236.45,331l-20.79,4.68,12.2,90.41a10.8,10.8,0,0,0,16.07,14.22Z"/><path class="cls-8" d="M207.69,346.89a5.71,5.71,0,0,1-1.82-4.4L207,313.81a15.88,15.88,0,0,1,31.55-3.56l7.31,27.85a5.7,5.7,0,0,1-4.91,7.13l-28.7,3.16A5.74,5.74,0,0,1,207.69,346.89Z"/><path class="cls-4" d="M191.7,275.48a5.7,5.7,0,0,1-1.3-.15l-.12,0c-21.6-3.3-26.37-15.81-27.42-21-1.08-5.41.15-10.63,2.94-12.66-1.52-4.8-1.27-9.06.73-12.66,3.5-6.28,11.08-8.41,12.1-8.67,6.06-4.46,13.3-1.48,14.62-.88,11.72-4.33,16.2-.72,17,.08,5.24.94,8.43,3,9.49,6,2,5.73-4.3,12.86-4.57,13.16l-.14.16-9.38.44a6.36,6.36,0,0,0-6,6.66,4.93,4.93,0,0,0,.07.66h0a27.31,27.31,0,0,0,1,3.35c1.6,5,2.8,9.29,1.25,10.91a2.49,2.49,0,0,1-2.62.46c-1.47-.39-2.47-.31-3,.24-.77.86-.54,3,.66,6.13a5.74,5.74,0,0,1-1.05,5.85A5.53,5.53,0,0,1,191.7,275.48Z"/><path class="cls-9" d="M481.76,354h-121a17,17,0,0,1-17-17V155.17a17,17,0,0,1,17-17h121a17,17,0,0,1,17,17V337A17,17,0,0,1,481.76,354Zm-121-213.83a15,15,0,0,0-15,15V337a15,15,0,0,0,15,15h121a15,15,0,0,0,15-15V155.17a15,15,0,0,0-15-15Z"/><path class="cls-10" d="M463.26,225.58h-84a8.51,8.51,0,0,1-8.5-8.5v-40a8.52,8.52,0,0,1,8.5-8.5h84a8.52,8.52,0,0,1,8.5,8.5v40A8.51,8.51,0,0,1,463.26,225.58Z"/><path class="cls-11" d="M457.26,263.08h-72a8,8,0,0,1,0-16h72a8,8,0,1,1,0,16Z"/><path class="cls-11" d="M457.26,293.08h-72a8,8,0,0,1,0-16h72a8,8,0,0,1,0,16Z"/><path class="cls-11" d="M457.26,323.08h-72a8,8,0,0,1,0-16h72a8,8,0,0,1,0,16Z"/><path class="cls-9" d="M776.76,456h-121a17,17,0,0,1-17-17V257.17a17,17,0,0,1,17-17h121a17,17,0,0,1,17,17V439A17,17,0,0,1,776.76,456Zm-121-213.83a15,15,0,0,0-15,15V439a15,15,0,0,0,15,15h121a15,15,0,0,0,15-15V257.17a15,15,0,0,0-15-15Z"/><path class="cls-11" d="M752.26,285.08h-72a8,8,0,0,1,0-16h72a8,8,0,0,1,0,16Z"/><path class="cls-11" d="M752.26,315.08h-72a8,8,0,0,1,0-16h72a8,8,0,0,1,0,16Z"/><path class="cls-12" d="M758.26,391.58h-84a8.51,8.51,0,0,1-8.5-8.5v-40a8.52,8.52,0,0,1,8.5-8.5h84a8.52,8.52,0,0,1,8.5,8.5v40A8.51,8.51,0,0,1,758.26,391.58Z"/><path class="cls-11" d="M752.26,427.08h-72a8,8,0,0,1,0-16h72a8,8,0,0,1,0,16Z"/><path class="cls-9" d="M702.76,167h-121a17,17,0,0,1-17-17V37.17a17,17,0,0,1,17-17h121a17,17,0,0,1,17,17V150A17,17,0,0,1,702.76,167Zm-121-144.83a15,15,0,0,0-15,15V150a15,15,0,0,0,15,15h121a15,15,0,0,0,15-15V37.17a15,15,0,0,0-15-15Z"/><path class="cls-11" d="M678.26,131.58h-72a8,8,0,1,1,0-16h72a8,8,0,0,1,0,16Z"/><path class="cls-11" d="M678.26,101.58h-72a8,8,0,0,1,0-16h72a8,8,0,0,1,0,16Z"/><path class="cls-11" d="M678.26,71.58h-72a8,8,0,0,1,0-16h72a8,8,0,0,1,0,16Z"/><circle class="cls-13" cx="488.76" cy="143" r="23"/><path class="cls-2" d="M486.48,151.77a2.41,2.41,0,0,1-1.44-.47l0,0-5.41-4.14a2.4,2.4,0,1,1,2.92-3.82h0L486,146l8.27-10.79a2.4,2.4,0,0,1,3.37-.44h0l-.06.07.06-.07a2.4,2.4,0,0,1,.44,3.37l-9.73,12.69A2.38,2.38,0,0,1,486.48,151.77Z"/><circle class="cls-14" cx="788.76" cy="246" r="23"/><path class="cls-2" d="M786.48,254.77a2.41,2.41,0,0,1-1.44-.47l0,0-5.41-4.14a2.4,2.4,0,1,1,2.92-3.82h0L786,249l8.27-10.79a2.4,2.4,0,0,1,3.37-.44h0l-.06.07.06-.07a2.4,2.4,0,0,1,.44,3.37l-9.73,12.69A2.38,2.38,0,0,1,786.48,254.77Z"/><circle class="cls-15" cx="715.76" cy="23" r="23"/><path class="cls-2" d="M713.48,31.77A2.41,2.41,0,0,1,712,31.3l0,0-5.41-4.14a2.4,2.4,0,0,1,2.91-3.82h0L713,26l8.27-10.79a2.4,2.4,0,0,1,3.37-.44h0l-.06.07.06-.07a2.4,2.4,0,0,1,.44,3.37l-9.73,12.69A2.38,2.38,0,0,1,713.48,31.77Z"/><path class="cls-9" d="M382,620H1a1,1,0,0,1,0-2H382a1,1,0,0,1,0,2Z"/></g></g></svg>