<svg xmlns="http://www.w3.org/2000/svg" xmlns:xlink="http://www.w3.org/1999/xlink" viewBox="0 0 821.68 579.01"><defs><style>.cls-1{isolation:isolate;}.cls-2{fill:#f2f2f2;}.cls-3{fill:#b589b6;opacity:0.5;mix-blend-mode:multiply;}.cls-4{fill:#f53065;}.cls-4,.cls-6{opacity:0.6;}.cls-5{fill:#e6e6e6;}.cls-6{fill:#ff6584;}.cls-7{fill:#ccc;}.cls-8{fill:#ffb8b8;}.cls-9{fill:#233862;}.cls-10{fill:url(#linear-gradient);}.cls-11{fill:url(#Degradado_sin_nombre_8);}.cls-12{fill:url(#Degradado_sin_nombre_8-2);}.cls-13{fill:url(#Degradado_sin_nombre_8-3);}.cls-14{fill:#a0616a;}.cls-15{fill:#2f2e41;}.cls-16{fill:url(#linear-gradient-2);}.cls-17{fill:url(#linear-gradient-3);}.cls-18{fill:url(#linear-gradient-4);}.cls-19{fill:url(#linear-gradient-5);}</style><linearGradient id="linear-gradient" x1="153.31" y1="572.77" x2="153.31" y2="319.71" gradientUnits="userSpaceOnUse"><stop offset="0" stop-color="#fe3eff"/><stop offset="1" stop-color="#423eff"/></linearGradient><linearGradient id="Degradado_sin_nombre_8" x1="150.05" y1="281.55" x2="163.81" y2="348.26" gradientUnits="userSpaceOnUse"><stop offset="0" stop-color="#ff736b"/><stop offset="1" stop-color="#ff2260"/></linearGradient><linearGradient id="Degradado_sin_nombre_8-2" x1="114.95" y1="288.8" x2="128.72" y2="355.5" xlink:href="#Degradado_sin_nombre_8"/><linearGradient id="Degradado_sin_nombre_8-3" x1="191.88" y1="272.92" x2="205.64" y2="339.63" xlink:href="#Degradado_sin_nombre_8"/><linearGradient id="linear-gradient-2" x1="513.09" y1="363.12" x2="513.09" y2="575.94" gradientUnits="userSpaceOnUse"><stop offset="0" stop-color="#553eff"/><stop offset="1" stop-color="#00f0ff"/></linearGradient><linearGradient id="linear-gradient-3" x1="497.71" y1="393.63" x2="503" y2="245.4" xlink:href="#linear-gradient"/><linearGradient id="linear-gradient-4" x1="539.35" y1="395.12" x2="544.64" y2="246.89" xlink:href="#linear-gradient"/><linearGradient id="linear-gradient-5" x1="432.42" y1="391.3" x2="437.72" y2="243.07" xlink:href="#linear-gradient"/></defs><title>notice_board</title><g class="cls-1"><g id="Layer_2" data-name="Layer 2"><g id="afc98551-3d88-4acb-87ed-36f06011ac7a"><path class="cls-2" d="M182.08,58h-52.4a19,19,0,0,0-19,19v56.81c-.67,0-1.34-.1-2-.18A67,67,0,1,1,181.78,56C181.89,56.67,182,57.34,182.08,58Z"/><path class="cls-3" d="M800.68,56h-671a21,21,0,0,0-21,21V431a21,21,0,0,0,21,21h671a21,21,0,0,0,21-21V77A21,21,0,0,0,800.68,56Zm19,375a19,19,0,0,1-19,19h-671a19,19,0,0,1-19-19V77a19,19,0,0,1,19-19h671a19,19,0,0,1,19,19Z"/><path class="cls-3" d="M767.68,113.38h-605a1,1,0,0,1,0-2h605a1,1,0,0,1,0,2Z"/><path class="cls-3" d="M333.68,409a1,1,0,0,1-1-1V79a1,1,0,1,1,2,0V408A1,1,0,0,1,333.68,409Z"/><path class="cls-3" d="M484.68,409a1,1,0,0,1-1-1V79a1,1,0,0,1,2,0V408A1,1,0,0,1,484.68,409Z"/><path class="cls-3" d="M635.68,409a1,1,0,0,1-1-1V79a1,1,0,1,1,2,0V408A1,1,0,0,1,635.68,409Z"/><path class="cls-4" d="M236.6,216.59H200.06a4.49,4.49,0,0,1-4.5-4.5V169a4.51,4.51,0,0,1,4.5-4.5H236.6a4.51,4.51,0,0,1,4.5,4.5v43.12A4.5,4.5,0,0,1,236.6,216.59Z"/><path class="cls-4" d="M288.6,339.59H252.06a4.49,4.49,0,0,1-4.5-4.5V292a4.51,4.51,0,0,1,4.5-4.5H288.6a4.51,4.51,0,0,1,4.5,4.5v43.12A4.5,4.5,0,0,1,288.6,339.59Z"/><path class="cls-4" d="M406.6,242.59H370.06a4.49,4.49,0,0,1-4.5-4.5V195a4.51,4.51,0,0,1,4.5-4.5H406.6a4.51,4.51,0,0,1,4.5,4.5v43.12A4.5,4.5,0,0,1,406.6,242.59Z"/><path class="cls-4" d="M559.6,195.59H523.06a4.49,4.49,0,0,1-4.5-4.5V148a4.51,4.51,0,0,1,4.5-4.5H559.6a4.51,4.51,0,0,1,4.5,4.5v43.12A4.5,4.5,0,0,1,559.6,195.59Z"/><path class="cls-4" d="M700.6,195.59H664.06a4.49,4.49,0,0,1-4.5-4.5V148a4.51,4.51,0,0,1,4.5-4.5H700.6a4.51,4.51,0,0,1,4.5,4.5v43.12A4.5,4.5,0,0,1,700.6,195.59Z"/><path class="cls-5" d="M765.6,207.59H729.06a4.49,4.49,0,0,1-4.5-4.5V160a4.51,4.51,0,0,1,4.5-4.5H765.6a4.51,4.51,0,0,1,4.5,4.5v43.12A4.5,4.5,0,0,1,765.6,207.59Z"/><path class="cls-5" d="M736.6,284.59H700.06a4.49,4.49,0,0,1-4.5-4.5V237a4.51,4.51,0,0,1,4.5-4.5H736.6a4.51,4.51,0,0,1,4.5,4.5v43.12A4.5,4.5,0,0,1,736.6,284.59Z"/><path class="cls-6" d="M612.6,268.59H576.06a4.49,4.49,0,0,1-4.5-4.5V221a4.51,4.51,0,0,1,4.5-4.5H612.6a4.51,4.51,0,0,1,4.5,4.5v43.12A4.5,4.5,0,0,1,612.6,268.59Z"/><path class="cls-5" d="M541.6,284.59H505.06a4.49,4.49,0,0,1-4.5-4.5V237a4.51,4.51,0,0,1,4.5-4.5H541.6a4.51,4.51,0,0,1,4.5,4.5v43.12A4.5,4.5,0,0,1,541.6,284.59Z"/><path class="cls-5" d="M388.6,352.59H352.06a4.49,4.49,0,0,1-4.5-4.5V305a4.51,4.51,0,0,1,4.5-4.5H388.6a4.51,4.51,0,0,1,4.5,4.5v43.12A4.5,4.5,0,0,1,388.6,352.59Z"/><path class="cls-6" d="M203.6,295.59H167.06a4.49,4.49,0,0,1-4.5-4.5V248a4.51,4.51,0,0,1,4.5-4.5H203.6a4.51,4.51,0,0,1,4.5,4.5v43.12A4.5,4.5,0,0,1,203.6,295.59Z"/><path class="cls-5" d="M306.6,216.59H270.06a4.49,4.49,0,0,1-4.5-4.5V169a4.51,4.51,0,0,1,4.5-4.5H306.6a4.51,4.51,0,0,1,4.5,4.5v43.12A4.5,4.5,0,0,1,306.6,216.59Z"/><path class="cls-7" d="M276.68,97h-57a4,4,0,0,1,0-8h57a4,4,0,0,1,0,8Z"/><path class="cls-7" d="M437.68,97h-57a4,4,0,0,1,0-8h57a4,4,0,1,1,0,8Z"/><path class="cls-7" d="M588.68,97h-57a4,4,0,0,1,0-8h57a4,4,0,0,1,0,8Z"/><path class="cls-7" d="M729.68,97h-57a4,4,0,0,1,0-8h57a4,4,0,0,1,0,8Z"/><path class="cls-8" d="M149,389.9a10.06,10.06,0,0,1-9-11,10.27,10.27,0,0,1,.33-1.74l-25.64-23.86,13.56-3.44,25.2,20.44A10.11,10.11,0,0,1,149,389.9Z"/><polygon class="cls-8" points="184.41 566.26 196.67 566.26 202.5 518.97 184.41 518.97 184.41 566.26"/><path class="cls-9" d="M220.31,577.64H181.78V562.76h23.65a14.89,14.89,0,0,1,14.88,14.89Z"/><polygon class="cls-8" points="100.35 557.41 112.2 560.56 130 516.36 112.52 511.71 100.35 557.41"/><path class="cls-9" d="M132.12,577.64l-37.23-9.91h0l3.82-14.38h0l22.85,6.08a14.88,14.88,0,0,1,10.56,18.21Z"/><path class="cls-10" d="M200,557.31H181.26a4.75,4.75,0,0,1-4.73-4.3L165.18,435.08a3.75,3.75,0,0,0-7.32-.71l-33,110.2a4.73,4.73,0,0,1-5.7,3.24l-17.4-4.35a4.76,4.76,0,0,1-3.46-5.76v0c.29-1.11,28.41-111,28.66-112.16,6.37-47,14-59.55,18.09-66.31.34-.56.65-1.07.93-1.56s2.52-6.65,3.89-10.57a4.8,4.8,0,0,1,2.43-3c17.21-8.8,37.35-2.71,43.11-.63a4.62,4.62,0,0,1,2.34,1.81c17.28,26.07,8.8,177.49,6.93,207.58A4.77,4.77,0,0,1,200,557.31Z"/><circle class="cls-8" cx="151.69" cy="234.03" r="24.56"/><path class="cls-11" d="M149.09,351.84l-.18-.17c-.33-.32-33-32.38-28.82-62,1.81-12.68,12.07-20.78,29.67-23.43a27.13,27.13,0,0,1,30,19.12l17.4,59.48Z"/><path class="cls-12" d="M132.34,374.65,109,351.48a13.17,13.17,0,0,1-3.48-12.4l11.29-45.92a10.36,10.36,0,0,1,12.53-7.58c.22.05.43.12.65.18a10.42,10.42,0,0,1,6.81,12.8L124.93,339l19.22,20.64Z"/><path class="cls-8" d="M257.41,295.57a10,10,0,0,1-14.88,4L211.4,315.73l1.37-13.7L240.37,285a10.11,10.11,0,0,1,17,10.62Z"/><path class="cls-13" d="M239.13,305.77l-30.35,13.11a12.82,12.82,0,0,1-12.48-1.33L157.72,289.9a10.36,10.36,0,0,1-2.39-14.45c.13-.19.27-.37.41-.54a10.42,10.42,0,0,1,14.41-1.57l33.09,26,26.3-10.17Z"/><path class="cls-9" d="M155.76,241.9c3-3.8,8.69-4,12.85-6.5,5.46-3.29,7.71-10.62,5.95-16.73s-6.93-10.88-12.87-13.16-12.55-2.31-18.82-1.21c-9.33,1.64-18.52,6-24.21,13.57s-7.14,18.67-2,26.61c2.37,3.66,6,6.67,7,10.92,1.24,5.58-2.67,11-6.87,14.85-4.77,4.42-10.25,8.13-14.44,13.12s-7,11.81-5.07,18c1.6,5.22,6.26,9.06,11.37,11s10.66,2.2,16.12,2.31c5.29.1,10.92,0,15.38-2.89,4.78-3.05,7.33-8.85,7.52-14.52S146,286.07,143.43,281c-1.52-3-3.28-5.95-4.28-9.18s-1.18-6.89.43-9.86,5.11-5,8.6-5.69l.58-.1a7.4,7.4,0,0,0,6.38-8.29c0-.11,0-.22,0-.34C154.69,245.32,154.73,243.2,155.76,241.9Z"/><polygon class="cls-14" points="483.24 567.3 470.98 567.3 465.14 520.02 483.24 520.02 483.24 567.3"/><path class="cls-15" d="M462.22,563.8h23.64v14.89H447.33a14.89,14.89,0,0,1,14.89-14.89Z"/><polygon class="cls-14" points="572.19 553.42 561.04 558.51 536.09 517.92 552.54 510.4 572.19 553.42"/><path class="cls-15" d="M551.62,559l21.5-9.82h0l6.19,13.54h0l-35,16h0A14.9,14.9,0,0,1,551.62,559Z"/><path class="cls-14" d="M536.49,407.86a10.05,10.05,0,0,0,2-14.08,11.44,11.44,0,0,0-1.19-1.32l14.41-32.7-18.31,3.11-10.88,30.57a10.11,10.11,0,0,0,14,14.42Z"/><path class="cls-16" d="M482.45,554.84H470.74a4.53,4.53,0,0,1-4.49-4.18L459.87,380.1a4.5,4.5,0,0,1,4.16-4.81,3.86,3.86,0,0,1,.76,0l67.74,7.19a4.5,4.5,0,0,1,4.06,4.4L538,462.12a3.81,3.81,0,0,0,.23,1.2L566,535.37a4.49,4.49,0,0,1-2.58,5.81l-.07,0-11.86,4.37a4.5,4.5,0,0,1-5.56-2.16l-34.13-66.37a4.33,4.33,0,0,1-.41-1.14l-5.83-28.1a3.5,3.5,0,0,0-6.9.31L486.92,550.85A4.5,4.5,0,0,1,482.45,554.84Z"/><circle class="cls-14" cx="488.29" cy="222.18" r="24.56"/><path class="cls-17" d="M505.13,395.7a87.59,87.59,0,0,1-46.87-14.2l-.24-.16,0-.29,9.4-109.42A15.41,15.41,0,0,1,482,257.57c12.17-.56,28.53.15,37.28,6.67,13.23,9.85,19.61,24.69,17.5,40.71-4.38,33.22.58,78,1.16,83l0,.36-.33.15A77.27,77.27,0,0,1,505.13,395.7Z"/><path class="cls-18" d="M537.87,388.16a5,5,0,0,1-3.68-1.62l-5.38-5.86a5,5,0,0,1-1.11-4.8L540,334.42l-18.64-39.14a8.81,8.81,0,0,1,15.71-8l25.3,41.05a11.94,11.94,0,0,1,.72,11.19l-20.61,45.67a5,5,0,0,1-3.77,2.88A5.25,5.25,0,0,1,537.87,388.16Z"/><path class="cls-14" d="M364.74,309a10.06,10.06,0,0,0,14.07-2.07,9,9,0,0,0,.93-1.51l35.44,4.6L407,293.29l-32.41-1.81A10.11,10.11,0,0,0,364.74,309Z"/><path class="cls-19" d="M442.86,318.07a12.69,12.69,0,0,1-1.85-.13l-55.75-7.73A5.52,5.52,0,0,1,381,307.1a5.93,5.93,0,0,1-.32-.83h0a5.56,5.56,0,0,1,.58-4.43l4.61-7.65a5.57,5.57,0,0,1,4.76-2.68h0l48.6.05L475.53,259A9.84,9.84,0,0,1,489,273.36L452.8,313.64A13.38,13.38,0,0,1,442.86,318.07Z"/><path class="cls-9" d="M491.08,244c2.24-5.19,4.14-12.11-.16-15.78-2.5-2.13-6.1-2.14-9.37-2.4-9.22-.75-18.7-5-23.21-13.06s-2-20.09,6.51-23.73c5.73-2.46,12.3-.79,18.3.91l18,5.11c5.35,1.52,11,3.19,14.82,7.2,6.14,6.4,5.68,17.21.8,24.62S504.55,242,496.14,244.84Z"/><path class="cls-3" d="M739.49,579H1.2A1.18,1.18,0,0,1,0,577.83a1.2,1.2,0,0,1,1.18-1.2H739.49a1.2,1.2,0,0,1,1.2,1.19A1.19,1.19,0,0,1,739.5,579Z"/></g></g></g></svg>