<svg xmlns="http://www.w3.org/2000/svg" xmlns:xlink="http://www.w3.org/1999/xlink" viewBox="0 0 134 134"><defs><style>.cls-1{fill:#f9f7f7;}.cls-2{opacity:0.15;}.cls-3{fill:url(#Degradado_sin_nombre_8);}</style><linearGradient id="Degradado_sin_nombre_8" x1="46.16" y1="13.6" x2="75.8" y2="81.37" gradientUnits="userSpaceOnUse"><stop offset="0" stop-color="#ff736b"/><stop offset="1" stop-color="#ff2260"/></linearGradient></defs><title>Play button</title><g id="Layer_2" data-name="Layer 2"><g id="Layer_1-2" data-name="Layer 1"><circle class="cls-1" cx="67" cy="67" r="67"/><g class="cls-2"><path d="M113,67.65a8.72,8.72,0,0,1-3.44,6.94h0c-.21.13-.41.28-.61.43h0l-.25.2h0L89.11,88.83l-30.79,21.4-.52.36a8.93,8.93,0,0,1-13.74-7.38V32.08a6.79,6.79,0,0,0,0,.9c0-.44,0-.89,0-1.33h0a8.66,8.66,0,0,1,1.11-3.85v0l.05-.08a8.95,8.95,0,0,1,12.67-2.91l0,0,.24.16h0l50.68,35.22h0l.28.21h0l.25.17h0a9.08,9.08,0,0,1,2.06,2.09A8.73,8.73,0,0,1,113,67.65Z"/></g><path class="cls-3" d="M109.85,65.65a8.58,8.58,0,0,1-3.32,6.79h0q-.3.19-.6.42h0l-.25.2h0L86.76,86.36,57,107.27l-.5.35a8.48,8.48,0,0,1-4.7,1.38,8.59,8.59,0,0,1-8.58-8.59V30.88a8.51,8.51,0,0,0,0,.88c0-.43,0-.87,0-1.3h0a8.41,8.41,0,0,1,1.07-3.76v0l.05-.08a8.57,8.57,0,0,1,12.24-2.84h0l.23.16h0l49,34.43h0l.27.2h0l.24.17h0a8.65,8.65,0,0,1,2,2.06A8.48,8.48,0,0,1,109.85,65.65Z"/></g></g></svg>