<svg xmlns="http://www.w3.org/2000/svg" xmlns:xlink="http://www.w3.org/1999/xlink" viewBox="0 0 888 674.5"><defs><style>.cls-1{fill:#e6e8ec;}.cls-2{fill:#3f3d56;}.cls-2,.cls-3{opacity:0.62;}.cls-3{fill:#f53065;}.cls-4{fill:#b589b6;opacity:0.5;isolation:isolate;}.cls-5{fill:#233862;}.cls-6{fill:url(#linear-gradient);}.cls-7{fill:url(#linear-gradient-2);}.cls-8{fill:url(#linear-gradient-3);}.cls-9{fill:#ffb8b8;}.cls-10{fill:#fff;}.cls-11{fill:url(#linear-gradient-4);}.cls-12{fill:url(#linear-gradient-5);}.cls-13{fill:#a0616a;}.cls-14{fill:url(#linear-gradient-6);}.cls-15{fill:url(#linear-gradient-7);}.cls-16{fill:url(#linear-gradient-8);}.cls-17{fill:url(#linear-gradient-9);}.cls-18{fill:#2f2e41;}.cls-19{fill:url(#linear-gradient-10);}.cls-20{fill:#e5e4ef;}</style><linearGradient id="linear-gradient" x1="607.98" y1="46.5" x2="627.5" y2="46.5" gradientUnits="userSpaceOnUse"><stop offset="0" stop-color="#ff736b"/><stop offset="1" stop-color="#ff2260"/></linearGradient><linearGradient id="linear-gradient-2" x1="554.24" y1="575" x2="625.8" y2="575" xlink:href="#linear-gradient"/><linearGradient id="linear-gradient-3" x1="122.99" y1="160.5" x2="339" y2="160.5" xlink:href="#linear-gradient"/><linearGradient id="linear-gradient-4" x1="232.28" y1="281.52" x2="230.16" y2="138.24" gradientUnits="userSpaceOnUse"><stop offset="0" stop-color="#553eff"/><stop offset="1" stop-color="#00f0ff"/></linearGradient><linearGradient id="linear-gradient-5" x1="643" y1="339.56" x2="862.59" y2="339.56" xlink:href="#linear-gradient"/><linearGradient id="linear-gradient-6" x1="675.99" y1="389.63" x2="731.52" y2="389.63" gradientUnits="userSpaceOnUse"><stop offset="0" stop-color="#fe3eff"/><stop offset="1" stop-color="#423eff"/></linearGradient><linearGradient id="linear-gradient-7" x1="855.76" y1="218.98" x2="792.23" y2="346.75" xlink:href="#linear-gradient-6"/><linearGradient id="linear-gradient-8" x1="757.45" y1="456.35" x2="757.45" y2="300.63" xlink:href="#linear-gradient-6"/><linearGradient id="linear-gradient-9" x1="0" y1="566.5" x2="216.01" y2="566.5" xlink:href="#linear-gradient"/><linearGradient id="linear-gradient-10" x1="105.21" y1="481.06" x2="105.21" y2="631.61" xlink:href="#linear-gradient"/></defs><title>report_generation</title><g id="Layer_2" data-name="Layer 2"><g id="b9662ebd-6742-415a-b964-20bc217b5817"><rect class="cls-1" x="256" y="20.5" width="418" height="537.56"/><rect class="cls-2" x="354.09" y="117.81" width="213.4" height="2.4"/><rect class="cls-2" x="354.09" y="134.59" width="213.4" height="2.4"/><rect class="cls-2" x="354.09" y="151.38" width="213.4" height="2.4"/><rect class="cls-3" x="354.09" y="242.81" width="213.4" height="2.4"/><rect class="cls-3" x="354.09" y="259.59" width="213.4" height="2.4"/><rect class="cls-2" x="354.09" y="276.38" width="213.4" height="2.4"/><rect class="cls-2" x="354.09" y="318.81" width="213.4" height="2.4"/><rect class="cls-2" x="354.09" y="335.59" width="213.4" height="2.4"/><rect class="cls-2" x="354.09" y="352.38" width="213.4" height="2.4"/><rect class="cls-2" x="354.09" y="394.81" width="213.4" height="2.4"/><rect class="cls-3" x="354.09" y="411.59" width="213.4" height="2.4"/><rect class="cls-2" x="354.09" y="428.38" width="213.4" height="2.4"/><rect class="cls-2" x="354.09" y="470.81" width="213.4" height="2.4"/><rect class="cls-2" x="354.09" y="487.59" width="213.4" height="2.4"/><rect class="cls-2" x="354.09" y="504.38" width="213.4" height="2.4"/><path class="cls-4" d="M703.5,597h-449V0h449Zm-447-2h445V2h-445Z"/><path class="cls-5" d="M604,46.5a13,13,0,0,1,6.5-11.25,13,13,0,1,0,0,22.5A13,13,0,0,1,604,46.5Z"/><path class="cls-6" d="M621,46.5a13,13,0,0,1,6.5-11.25,13,13,0,1,0,0,22.5A13,13,0,0,1,621,46.5Z"/><circle class="cls-5" cx="638" cy="46.5" r="13"/><path class="cls-2" d="M625.8,598.05l-1.07-.4c-.24-.09-23.71-9.09-34.7-29.48s-5.62-44.94-5.56-45.19l.25-1.12,1.08.41c.23.09,23.7,9.08,34.7,29.47s5.61,45,5.56,45.19Zm-34-30.83c9.29,17.24,27.84,26.08,32.54,28.1.9-5,3.7-25.41-5.59-42.63s-27.84-26.07-32.55-28.1C585.3,529.63,582.5,550,591.79,567.22Z"/><path class="cls-7" d="M598.43,561c19.76,11.89,27.37,35.5,27.37,35.5s-24.43,4.34-44.19-7.55-27.37-35.5-27.37-35.5S578.67,549.13,598.43,561Z"/><path class="cls-8" d="M339,160.5a108.07,108.07,0,0,1-56.91,95.17q-1.93,1.05-3.93,2a108.16,108.16,0,0,1-94.66-.17q-3.81-1.86-7.44-4c-2.46-1.44-4.85-3-7.17-4.63A108,108,0,0,1,182.26,64.11a106.19,106.19,0,0,1,20.6-7.9q4.71-1.27,9.58-2.12A108.93,108.93,0,0,1,231,52.5c1.28,0,2.55,0,3.82.08q1.4,0,2.79.12a107.31,107.31,0,0,1,28.53,5.65c.79.27,1.58.55,2.36.84q4.08,1.5,8,3.34A108,108,0,0,1,339,160.5Z"/><path class="cls-5" d="M273.15,50.06c-9.82-23.18-34.83-27.56-34.83-27.56s-24.09-6.43-44.2,24.17c-18.75,28.52-42.92,55.24-12.26,66.63l8.1-17,1,19.57a125.48,125.48,0,0,0,13.49,2c34,3.45,66.07,9.2,66.66-3.09C271.87,98.48,282.61,72.37,273.15,50.06Z"/><path class="cls-9" d="M185.82,239l-.8,6.42-1.52,12.08q-3.81-1.86-7.44-4c-2.46-1.44-4.85-3-7.17-4.63l.24-6.23.27-6.91L180.5,238Z"/><path class="cls-9" d="M297.55,245.57a108.62,108.62,0,0,1-15.46,10.1l-5.24-18.15-.69-2.39-1.72-6,1.85-.29,18.94-3,.61,5.15Z"/><circle class="cls-9" cx="238.33" cy="68.33" r="29.54" transform="translate(132.71 292.64) rotate(-80.78)"/><path class="cls-9" d="M218.09,79.81s2.19,37.2-4.37,39.39,33.91,0,33.91,0-5.47-23,0-29.54S218.09,79.81,218.09,79.81Z"/><path class="cls-10" d="M248.18,113.18s-28.45-2.18-33.92,0-20.79,13.13-20.79,13.13l7.66,68.93,62.37,13.13,9.84-14.22,9.85-20.79-4.38-26.26-1.09-15.32Z"/><path class="cls-10" d="M188,130.69s-14.22,3.28-15.31,14.22-1.1,38.3,0,42.67,0,6.57-1.1,7.66-3.28-1.09-1.09,2.19,2.19,3.28,1.09,6.56-4.37-1.09-2.19,4.38,3.29,6.57,2.19,7.66-4.37,26.26-4.37,26.26l18.6,3.28L204.42,181Z"/><path class="cls-10" d="M273.34,130.69a11.66,11.66,0,0,1,9.85,6.56c3.28,6.57,12,49.24,10.94,52.52s-3.28-1.09-1.09,5.47,0,5.47,1.09,9.85-4.37,0,0,4.37,6.57,5.48,4.38,7.66-5.47-2.18-2.19,2.19,3.28,10.94,3.28,10.94l-26.26,5.47-7.65-61.27Z"/><path class="cls-11" d="M276.85,237.52l1.31,20.16a108.16,108.16,0,0,1-94.66-.17q-3.81-1.86-7.44-4c.84-3.09,1.69-6.17,2.56-9.19q.93-3.23,1.88-6.35c4.91-16.07,10.2-29.74,15.16-35,0,0,0-12,2.19-13.13a7.21,7.21,0,0,0,2.32-3.18,42.79,42.79,0,0,0,2.06-5.57l-3.62-8.42-16.2-37.72a4.6,4.6,0,0,1,2.17-5.93l5.37-2.69a4.61,4.61,0,0,1,6.18,2.08v0l24.69,50.47,27.35,17.51,19.18-8.53.51-.23s14.23-21.88,9.85-32.82c-1.87-4.67-3.93-10.91-5.7-16.54-1-3.32-1.95-6.43-2.67-8.87a2,2,0,0,1,1.34-2.44,2,2,0,0,1,1.64.25l3.73,2.49a5.44,5.44,0,0,1,1.93,2.29,5.09,5.09,0,0,1,.38,1.14l8.1,39.19-10.94,23v21.88l.76,11.75.4,6.15Z"/><polygon class="cls-5" points="267.6 41.64 242.53 28.51 207.92 33.88 200.75 65.51 218.58 64.83 223.56 53.2 223.56 64.63 231.79 64.32 236.56 45.81 239.55 65.51 268.79 64.91 267.6 41.64"/><ellipse class="cls-9" cx="208.25" cy="68.33" rx="3.28" ry="5.74"/><path class="cls-12" d="M862.59,339.56c0,47.94-32.38,88.5-77,102.08a109.61,109.61,0,0,1-20.2,4.16,112.81,112.81,0,0,1-12.6.7c-1.56,0-3.12,0-4.66-.11h0A111.35,111.35,0,0,1,703,434.87,110,110,0,0,1,676,416a105.23,105.23,0,0,1-33-76.41c0-45.32,28.94-84.05,69.81-99.62a109.4,109.4,0,0,1,15-4.53,113.21,113.21,0,0,1,56.92,1.83q2.12.6,4.17,1.32h0a102.57,102.57,0,0,1,9.72,3.82c1.09.48,2.18,1,3.24,1.51,2.14,1,4.23,2.14,6.29,3.32.79.45,1.57.9,2.35,1.38a109.09,109.09,0,0,1,32.17,29.58,104.89,104.89,0,0,1,19.88,61.38Z"/><path class="cls-5" d="M871.25,166.08l15-4.56,1.3-12.89S851,135.18,839.34,159c-4.13,8.4-9.33,13.44-14.33,16.45a27,27,0,0,1-23,1.93c-25.34-9-31.31,16.62-31.31,16.62s2.19,3.65,17.81,4.54c7.77.45,14.13,6.15,18.56,11.76,9.48,12,29,8.54,33.74-5.88.08-.23.16-.47.23-.71,7.47-23.83,41.48-4.85,41.48-4.85l2.17-21.59Z"/><ellipse class="cls-5" cx="768.84" cy="206.5" rx="18.41" ry="17.93"/><ellipse class="cls-5" cx="759.64" cy="254.31" rx="49.09" ry="47.81"/><ellipse class="cls-13" cx="758.1" cy="271.75" rx="33.75" ry="32.87"/><path class="cls-13" d="M744.81,296.65,751,328.52l30.68-4s-5.12-24.9-2-31.88Z"/><path class="cls-14" d="M731.52,362.39s-13.48,36.39-25.8,65.89c-.42,1-.85,2.05-1.27,3.06-.51,1.19-1,2.37-1.5,3.53A110,110,0,0,1,676,416c5.53-17.51,14.3-45.35,17.69-56.56,3.73-12.37,12.36-14.64,16.75-15a14,14,0,0,1,2.67,0Z"/><path class="cls-13" d="M805.15,226.92S780.6,209,770.38,216s27.61,29.89,31.7,27.9S805.15,226.92,805.15,226.92Z"/><path class="cls-15" d="M806.17,321.55l3.07-3s38.86-40.84,37.84-50.8c0,0-20.45-24.9-46-17.93,0,0-11.25-26.89,6.13-25.9s81.82-3,80.8,25.9S825.6,367.37,825.6,367.37Z"/><path class="cls-16" d="M828.67,362.39a4,4,0,0,1,0,.49h0c-.63,14.24-27.54,57.82-43.06,78.75a109.61,109.61,0,0,1-20.2,4.16,112.81,112.81,0,0,1-12.6.7c-1.56,0-3.12,0-4.66-.11h0c-14.3-4.49-31.27-10.4-43.66-15.05-5.83-2.21-10.65-4.13-13.68-5.49a19.5,19.5,0,0,1-3.23-1.7c-5.12-4,6.14-7,11.25-8s-2-11.95-2-11.95c-18.41-18.93,4.08-34.86,4.08-34.86s9.2-18.93,9.2-23.92a1.9,1.9,0,0,1,.4-1c3.85-5.3,34.38-14.92,34.38-14.92V313.58l3.16-.51L779.08,308l2.54-.42,5.12,8,22.5,3S828.67,344.46,828.67,362.39Z"/><path class="cls-5" d="M765.39,445.8a112.81,112.81,0,0,1-12.6.7c-1.56,0-3.12,0-4.66-.11h0A110.74,110.74,0,0,1,690,427.31l.74-1.46h0l.86-1.69,14.09,4.13Z"/><ellipse class="cls-5" cx="759.64" cy="246.35" rx="20.97" ry="33.66" transform="translate(293.42 894.71) rotate(-72.25)"/><path class="cls-17" d="M0,566.5a109.6,109.6,0,0,0,1.26,16.58,108.11,108.11,0,0,0,37.5,66.31c.55.46,1.11.92,1.68,1.37q1.77,1.43,3.6,2.77,2.64,2,5.4,3.73a108.18,108.18,0,0,0,98.47,9.62c.76-.3,1.52-.61,2.27-.93,1.2-.51,2.38-1,3.56-1.6q4.48-2.08,8.75-4.59t8.5-5.52c1.25-.9,2.46-1.81,3.67-2.76h0a108.27,108.27,0,0,0,35-48.53h0a108.15,108.15,0,0,0-43.52-127.44c-1-.6-1.91-1.2-2.88-1.76s-2-1.2-3.05-1.76a107.14,107.14,0,0,0-45.08-13.23q-3.56-.24-7.17-.24h-.36q-4.86,0-9.6.45A108,108,0,0,0,0,566.5Z"/><path class="cls-9" d="M219.31,603.59s31.54-32.6,40-12.62-31.55,30.49-31.55,30.49Z"/><path class="cls-18" d="M40.44,650.76q1.77,1.43,3.6,2.77,2.64,2,5.4,3.73a108.18,108.18,0,0,0,98.47,9.62c.76-.3,1.52-.61,2.27-.93,1.2-.51,2.38-1,3.56-1.6l-2.77-4a31.21,31.21,0,0,0-6.69-4.77c-19-10.29-54.64-10-78.79-8.28-3.44.24-6.64.51-9.52.78-1.8.16-3.48.33-5,.49l-1.77.19c-5.39.6-8.62,1.07-8.62,1.07Z"/><circle class="cls-9" cx="133.12" cy="474.75" r="30.21" transform="translate(-349.88 573.88) rotate(-85.93)"/><path class="cls-9" d="M113.12,484.78,91,507.91l-6.31,35.75,55.73,9.46-4.21-32.59s1.05-15.77,5.26-18.93S113.12,484.78,113.12,484.78Z"/><path class="cls-19" d="M47.93,653a57.2,57.2,0,0,1,5.61-1.49A83.27,83.27,0,0,1,68,649.67a70.66,70.66,0,0,1,33.52,6.49c15.32,7.35,33.5,9.35,46,9.73l2.63.06c1.2-.51,2.38-1,3.56-1.6q4.48-2.08,8.75-4.59l0-3.7-.66-73.2h0l-.31-35-20-23.13L136.38,519l-2.44,2.19L119.43,534.2,98.28,514.61,91,507.91,56.31,624.82,51.83,639.9l-2.64,8.88-.41,1.36h0Z"/><path class="cls-20" d="M128.62,551.11a105.65,105.65,0,0,0,1.32,15.68c3.6,23,6.69,61.21,14.34,88.81,1,3.64,2.09,7.08,3.27,10.29l.36,1c.76-.3,1.52-.61,2.27-.93,1.2-.51,2.38-1,3.56-1.6q4.48-2.08,8.75-4.59t8.5-5.52l-.32-1.26h0l-5-19.94s3.2-16.69,5.76-35.36h0c2.94-21.37,5-45.31.55-49.8l-35.23-32.23h0a35.66,35.66,0,0,0-2.82,5.5C131.54,526.83,128.5,536.87,128.62,551.11Z"/><path class="cls-20" d="M19,627.7a108.26,108.26,0,0,0,19.75,21.69c.55.46,1.11.92,1.68,1.37q1.77,1.43,3.6,2.77,2.64,2,5.4,3.73c1.36-1.89,2.73-3.81,4.1-5.74L56,648.1c1.28-1.82,2.56-3.65,3.82-5.49l.46-.66c1.6-2.31,3.18-4.63,4.72-6.94,11.36-17,20.78-33.26,21.86-43,1.3-11.65,3.93-29.67,6.6-46.88,1.72-11.18,3.46-22,4.85-30.53,1.68-10.34,2.84-17.26,2.84-17.26s-55.1-5.51-62.82-.1h0a1.81,1.81,0,0,0-.87,1.2c-.84,5.86,3.66,60.32,5.52,82.32h0c.48,5.64.79,9.14.79,9.14s-3.15,4.21-7.77,11S25,617.3,19,627.7Z"/><path class="cls-20" d="M168.84,577.3l5.26,41,46.26-20,14.72,30.49-75.7,28.39S145.71,584.66,168.84,577.3Z"/><path class="cls-18" d="M163.31,480.28s4.1-4.43,3.69-10a31.51,31.51,0,0,1,.6-9.44s-1.29-9.08-3.19-14.35-.29-7.1-8.45-10-3-13.27-27-5a6.59,6.59,0,0,1-7.16,1.47c-4.44-1.63-7.11,4.47-7.11,4.47s-2.77-2.27-4.33.09-9.07-3-11.82,14.16,6.7,32.51,6.7,32.51,1.33-27.5,17-28,33.28-6.41,35.47,5.17A83.84,83.84,0,0,0,163.31,480.28Z"/><path class="cls-9" d="M38.76,649.39c.55.46,1.11.92,1.68,1.37q1.77,1.43,3.6,2.77,2.64,2,5.4,3.73a107.29,107.29,0,0,0,28.66,13C80.58,663.94,74.64,656,68,649.67c-.84-.81-1.7-1.6-2.54-2.35-2-1.77-4-3.37-5.7-4.71l-.22-.17c-3.27-2.52-5.64-4.07-5.64-4.07l-2.1,1.53Z"/><path class="cls-20" d="M1.26,583.08a108.11,108.11,0,0,0,37.5,66.31c.55.46,1.11.92,1.68,1.37q1.77,1.43,3.6,2.77l4.74-3.38h0L51,648.59l8.61-6.15.68-.49,6.61-4.72L65,635l-8.66-10.19L36,600.88l-4.85-5.7,11.83-14.4h0l12.35-15L44.78,498.45a11.2,11.2,0,0,0-6.48-1.2h0c-2.38.41-4.81,2.05-6.13,6.45C29.77,511.67,10.47,560.1,1.26,583.08Z"/></g></g></svg>