<svg xmlns="http://www.w3.org/2000/svg" xmlns:xlink="http://www.w3.org/1999/xlink" viewBox="0 0 93.83 72.33"><defs><style>.cls-1{fill:url(#linear-gradient);}.cls-2{fill:url(#linear-gradient-2);}.cls-3{fill:url(#linear-gradient-3);}.cls-4{fill:url(#linear-gradient-4);}.cls-5{fill:url(#linear-gradient-5);}.cls-6{fill:url(#linear-gradient-6);}.cls-7{fill:url(#linear-gradient-7);}.cls-8{fill:url(#linear-gradient-8);}.cls-9{fill:url(#linear-gradient-9);}</style><linearGradient id="linear-gradient" x1="46.92" y1="1.2" x2="46.92" y2="71.48" gradientUnits="userSpaceOnUse"><stop offset="0" stop-color="#ff736b"/><stop offset="1" stop-color="#ff2260"/></linearGradient><linearGradient id="linear-gradient-2" x1="50.7" y1="1.2" x2="50.7" y2="71.48" xlink:href="#linear-gradient"/><linearGradient id="linear-gradient-3" x1="21.89" y1="1.2" x2="21.89" y2="71.48" xlink:href="#linear-gradient"/><linearGradient id="linear-gradient-4" x1="43.45" y1="1.2" x2="43.45" y2="71.48" xlink:href="#linear-gradient"/><linearGradient id="linear-gradient-5" x1="29.02" y1="1.2" x2="29.02" y2="71.48" xlink:href="#linear-gradient"/><linearGradient id="linear-gradient-6" x1="70.49" y1="1.2" x2="70.49" y2="71.48" xlink:href="#linear-gradient"/><linearGradient id="linear-gradient-7" x1="70.49" y1="1.2" x2="70.49" y2="71.48" xlink:href="#linear-gradient"/><linearGradient id="linear-gradient-8" x1="36.23" y1="1.2" x2="36.23" y2="71.48" xlink:href="#linear-gradient"/><linearGradient id="linear-gradient-9" x1="50.64" y1="1.2" x2="50.64" y2="71.48" xlink:href="#linear-gradient"/></defs><title>Reporting_&amp;amp;_Analytics</title><g id="Layer_2" data-name="Layer 2"><g id="a1564cff-f165-45d5-b330-5a55512dec45"><path class="cls-1" d="M89.36,63.88c-1.92.17-2.42-.52-2.21-2.3a33.29,33.29,0,0,0,0-3.74q0-19.59,0-39.18a5,5,0,0,0-7.27-4.37,1.22,1.22,0,0,0-.5.61c-.73,1.77-1.43,3.55-2.18,5.44a9.9,9.9,0,0,0,1.47,0c2.09-.4,2.45.53,2.44,2.48q-.15,18.33,0,36.67c0,1.6-.41,1.91-1.94,1.91q-32.19-.09-64.39,0c-1.41,0-2-.13-2-1.84.1-11.32,0-22.65.07-34,0-1.71-.78-4,.36-5,1-.83,3.18-.18,4.83-.27,1.37-.08,2.91.52,4.07-.34,2.31-1.7,4.45-3.62,7.05-5.77H11.64c-3.91,0-5,1-5,4.87,0,14.31,0,28.62,0,42.93,0,1.44-.32,1.88-1.81,1.86-1.64,0-3.48-.68-4.9.81v2.08c1.42,4.09,4.28,5.58,8.58,5.55,17.5-.14,35-.08,52.5,0,1.53,0,2.28-.24,2.06-2-.2-1.51.23-3,2-2.92s2.13,1.6,1.89,3.08c-.28,1.79.65,1.9,2,1.82.78-.05,1.15-.22,1.08-1.06a9.74,9.74,0,0,1,0-1.87,2,2,0,0,1,2-2c1.19,0,1.84.8,2,2,.42,2.91.43,2.91,3.35,2.91,2.57,0,5.15-.15,7.71,0,4.31.31,7.16-1.45,8.59-5.52V64.69C92.55,63.32,90.86,63.75,89.36,63.88Z"/><path class="cls-2" d="M21.74,27.37c.62.69,1.1-.22,1.53-.52,3.23-2.27,6.46-4.54,9.6-6.94.92-.7,1.29-.5,1.93.28,2.48,3.08,5.06,6.08,7.52,9.17.84,1.06,1.37,1.27,2.61.41C51.18,25.42,57.52,21.21,63.84,17c1.2-.81,2.44-2.24,3.63-2.21,1.38,0,2,2,3,3.12a4.6,4.6,0,0,1,.41.47c.8,1,1.48.91,2-.25C75.16,12.54,77.42,7,79.7,1.42c.4-1,.15-1.46-.88-1.42-.27,0-.48,0-.68.08C72.51,1.22,66.88,2.38,61.26,3.5c-1.72.35-1.95,1-.72,2.31.67.69,1.18,1.55,1.88,2.22s.57,1.28-.21,2Q53.59,17.35,45,24.8c-.85.75-1.35.78-2.18-.05-2.55-2.56-5.22-5-7.8-7.52-.65-.63-1.06-.77-1.86-.09-3.53,3-7.15,5.93-10.7,8.92C22.13,26.37,21,26.57,21.74,27.37Z"/><path class="cls-3" d="M21.94,57.05c1.42,0,1.88-1.11,1.85-2.49-.05-3,0-6,0-8.94s0-6,0-8.95c0-1.3-.23-2.44-1.82-2.46s-2,1-2,2.35c0,6,0,12.07,0,18.1C20,56.05,20.52,57.09,21.94,57.05Z"/><path class="cls-4" d="M43.46,57.08A1.85,1.85,0,0,0,45.3,55c0-4.57,0-9.15,0-13.72,0-1.25-.61-2.16-2-2.06s-1.69,1-1.69,2.17V48c0,2.29,0,4.57,0,6.86C41.55,56.21,42.13,57.09,43.46,57.08Z"/><path class="cls-5" d="M29.15,39.2c-1.43-.05-2,.89-2,2.13,0,4.5,0,9,0,13.52,0,1.28.66,2.22,2,2.22s1.85-1,1.82-2.27c0-2.22,0-4.44,0-6.66s0-4.44,0-6.65C30.93,40.23,30.6,39.26,29.15,39.2Z"/><path class="cls-6" d="M74.9,43.8c-1.46,0-2.91,0-4.37,0H66.17a1.75,1.75,0,0,0-1.92,1.75,1.66,1.66,0,0,0,1.55,1.89c3.11.12,6.23.12,9.34,0a1.65,1.65,0,0,0,1.6-1.84A1.71,1.71,0,0,0,74.9,43.8Z"/><path class="cls-7" d="M74.83,52.14H70.46c-1.39,0-2.77,0-4.16,0a1.87,1.87,0,1,0-.24,3.73c3,.09,6,.1,9,0a1.86,1.86,0,0,0-.18-3.71Z"/><path class="cls-8" d="M38.05,48.78a1.63,1.63,0,0,0-1.73-1.68,1.58,1.58,0,0,0-1.87,1.52c-.1,2.28-.1,4.56,0,6.84a1.66,1.66,0,0,0,1.83,1.62,1.72,1.72,0,0,0,1.81-1.86c0-1,0-2.08,0-3.12h0C38.06,51,38.1,49.88,38.05,48.78Z"/><path class="cls-9" d="M50.34,57.07a1.75,1.75,0,0,0,2.08-1.6,54,54,0,0,0,0-6.85,1.85,1.85,0,0,0-3.67.34c0,1,0,2.08,0,3.12s0,2.08,0,3.12A1.74,1.74,0,0,0,50.34,57.07Z"/></g></g></svg>