<svg xmlns="http://www.w3.org/2000/svg" xmlns:xlink="http://www.w3.org/1999/xlink" viewBox="0 0 816.36 662.16"><defs><style>.cls-1{fill:#b589b6;opacity:0.5;isolation:isolate;}.cls-2{fill:#233862;}.cls-3{fill:#fbbebe;}.cls-4{fill:url(#linear-gradient);}.cls-5{fill:url(#linear-gradient-2);}.cls-6{fill:url(#linear-gradient-3);}.cls-7{fill:url(#linear-gradient-4);}.cls-8{fill:#e6e6e6;}.cls-9{fill:#fff;}.cls-10{fill:url(#linear-gradient-5);}</style><linearGradient id="linear-gradient" x1="493.99" y1="220.34" x2="467.99" y2="357.34" gradientUnits="userSpaceOnUse"><stop offset="0" stop-color="#ff736b"/><stop offset="1" stop-color="#ff2260"/></linearGradient><linearGradient id="linear-gradient-2" x1="569.22" y1="638" x2="569.22" y2="419" gradientUnits="userSpaceOnUse"><stop offset="0" stop-color="#fe3eff"/><stop offset="1" stop-color="#423eff"/></linearGradient><linearGradient id="linear-gradient-3" x1="652.08" y1="262.11" x2="757.15" y2="262.11" xlink:href="#linear-gradient"/><linearGradient id="linear-gradient-4" x1="584.15" y1="200" x2="584.15" y2="437.5" xlink:href="#linear-gradient"/><linearGradient id="linear-gradient-5" x1="229.09" y1="452.01" x2="320.41" y2="452.01" xlink:href="#linear-gradient"/></defs><title>result_sheet</title><g id="Layer_2" data-name="Layer 2"><g id="f9d61bf9-0ef1-4a80-973b-f2b4c4b57253"><path class="cls-1" d="M550,608.1a838,838,0,0,1-113.61-7.44c-1.23-.16-2.48-.34-3.72-.52-9.24-1.32-18.49-2.82-27.48-4.47-40.46-7.4-78.62-18.2-113.41-32.12C176,517.24,103.23,527.1,62.56,543.52c-44,17.77-60.95,46.85-61.11,47.14L0,589.84C.17,589.54,17.31,560,61.81,542c26.09-10.55,56.36-15.17,90-13.71,42,1.81,89.27,13.15,140.63,33.69,34.69,13.88,72.74,24.65,113.09,32,9,1.65,18.19,3.15,27.42,4.46,1.23.18,2.47.36,3.69.51,102.09,14,200.57,5.58,265.21-4,53.28-7.89,87.56-17.12,87.9-17.21l.44,1.61c-.34.09-34.71,9.34-88.1,17.25A1050,1050,0,0,1,550,608.1Z"/><path class="cls-1" d="M550.12,130.27c-29.34,0-57.92-1.38-85.48-4.12-63.35-6.31-121.5-19.92-172.85-40.46C176,39.38,103.23,49.24,62.56,65.66c-44,17.77-60.95,46.85-61.11,47.14L0,112c.17-.3,17.31-29.81,61.81-47.82,26.09-10.55,56.36-15.17,90-13.71,42,1.81,89.27,13.15,140.63,33.69,116,46.38,245,48.21,332.8,41.57C720.4,118.52,789,100.12,789.72,99.93l.44,1.61c-.68.18-69.44,18.62-164.78,25.83C599.85,129.3,574.71,130.27,550.12,130.27Z"/><path class="cls-2" d="M545.81,8.05S513.08-3.64,492,43.12s-53.77,98.19-53.77,98.19L457,146s4.68-32.73,16.37-37.41l-4.68,42.08s140.28,49.1,203.4-4.67l-2.34-16.37s9.36,2.34,9.36,16.37l7-7s-7-14-28.06-32.73C644.22,94,639.48,70.61,637.85,56a60.74,60.74,0,0,0-14-33.1C609.87,6.7,584.39-10.52,545.81,8.05Z"/><path class="cls-3" d="M744.47,272.64s61.59,52.54,70.65,83.33-34.42,34.42-34.42,34.42l-94.2,9.06s-1.81,43.48-18.12,48.91-3.31-71.89-3.31-71.89l92.08-25.93-41.67-43.48Z"/><path class="cls-3" d="M456.43,327l-7.25,96L409.33,586s-36.23,74.28-5.44,76.09,29-70.65,29-70.65l58-154,5.43-105.07Z"/><circle class="cls-3" cx="557.88" cy="98.73" r="59.78"/><path class="cls-3" d="M530.7,127.72s21.74,77.89-12.68,97.82S605,260,637.59,200.18c0,0-58-19.93-41.67-72.46Z"/><path class="cls-4" d="M489,234.6,478.17,231s-21.74,9.06-21.74,25.37-3.62,81.52-3.62,81.52l48.91,5.43Z"/><path class="cls-5" d="M701.94,595.83c-66.88,9.9-164.35,17.9-265.43,4,0-1,0-2,0-2.92q0-8.48.65-16.77c5.18-68,40.23-124.75,53.79-144.4.68-1,1.31-1.9,1.88-2.7,2.19-3.07,3.46-4.7,3.46-4.7s105.07-1.71,159.42,20a23.44,23.44,0,0,1,7.08,4.63C683,471.69,694.94,532.4,701.94,595.83Z"/><path class="cls-6" d="M663,209.24s23.55-12.68,47.1,14.49l47.1,54.35-36.23,39.85-68.84-41.67Z"/><path class="cls-2" d="M493.28,99.11c21.16-15.32,38.29-33,49.63-53.94,0,0,38.83,43.15,62.57,45.31s2.16-51.79,2.16-51.79L564.48,27.91l-41,4.31L491.12,53.8Z"/><path class="cls-7" d="M628.53,196.56s-25.35,40.08-101.44,20.94l-43.18,11.89L478.17,231s5.43,108.7,19.93,128.63,10.87,30.79,7.24,32.6-12.68-1.81-7.24,7.25,12.68,3.62,5.43,9.06-10.87,25.36-10.87,25.36L663,455.61S657.51,385,672,348.73,690.12,298,690.12,298l-10.87-90.58Z"/><rect class="cls-8" x="41.52" y="161.09" width="233.1" height="291.38"/><rect class="cls-9" x="57.75" y="185.65" width="49.95" height="33.3"/><rect class="cls-9" x="58.17" y="250.59" width="193.14" height="11.66"/><rect class="cls-9" x="58.17" y="281.39" width="193.14" height="11.66"/><rect class="cls-9" x="58.17" y="312.19" width="193.14" height="11.66"/><rect class="cls-9" x="58.17" y="342.99" width="193.14" height="11.66"/><rect class="cls-9" x="58.17" y="373.8" width="193.14" height="11.66"/><path class="cls-10" d="M320.41,452.05a45.66,45.66,0,1,1-7.08-24.46A45.67,45.67,0,0,1,320.41,452.05Z"/><path class="cls-9" d="M313.33,427.59l-45.07,45.07c-2.83-4.39-18.62-24.77-18.62-24.77a65.83,65.83,0,0,1,6.46-5.7l13.09,17.45,38.86-38.87A46.37,46.37,0,0,1,313.33,427.59Z"/></g></g></svg>