<svg xmlns="http://www.w3.org/2000/svg" xmlns:xlink="http://www.w3.org/1999/xlink" viewBox="0 0 965.67 800.85"><defs><style>.cls-1,.cls-3{fill:#f53065;}.cls-1,.cls-19{opacity:0.1;isolation:isolate;}.cls-10,.cls-2{fill:none;stroke-miterlimit:10;}.cls-2{stroke:#535461;stroke-width:2px;}.cls-4{fill:url(#linear-gradient);}.cls-5{fill:url(#linear-gradient-2);}.cls-6{fill:url(#linear-gradient-3);}.cls-7{fill:url(#linear-gradient-4);}.cls-8{fill:#ffd037;}.cls-9{fill:url(#linear-gradient-5);}.cls-10{stroke:#233862;stroke-width:3px;opacity:0.32;}.cls-11{fill:url(#linear-gradient-6);}.cls-12{fill:#f7f7fd;}.cls-13{fill:#e2e2ec;}.cls-14{fill:#fff;}.cls-15{fill:url(#linear-gradient-7);}.cls-16{fill:#fc6681;}.cls-17{fill:url(#linear-gradient-8);}.cls-18{fill:#db8b8b;}.cls-20{fill:#233862;}.cls-21{fill:#474463;}.cls-22{fill:url(#linear-gradient-9);}.cls-23{fill:url(#linear-gradient-10);}.cls-24{fill:url(#linear-gradient-11);}.cls-25{fill:url(#linear-gradient-12);}.cls-26{fill:url(#linear-gradient-13);}</style><linearGradient id="linear-gradient" x1="752.36" y1="167.35" x2="784.1" y2="167.35" gradientUnits="userSpaceOnUse"><stop offset="0" stop-color="#ff736b"/><stop offset="1" stop-color="#ff2260"/></linearGradient><linearGradient id="linear-gradient-2" x1="780" y1="139.42" x2="803.49" y2="139.42" xlink:href="#linear-gradient"/><linearGradient id="linear-gradient-3" x1="823.63" y1="133.56" x2="862.59" y2="133.56" xlink:href="#linear-gradient"/><linearGradient id="linear-gradient-4" x1="797.39" y1="108.37" x2="823.43" y2="108.37" xlink:href="#linear-gradient"/><linearGradient id="linear-gradient-5" x1="90.23" y1="434.78" x2="315.23" y2="678.78" xlink:href="#linear-gradient"/><linearGradient id="linear-gradient-6" x1="478.38" y1="106.26" x2="478.38" y2="768.79" gradientTransform="matrix(1, 0, 0, -1, 0, 801.99)" gradientUnits="userSpaceOnUse"><stop offset="0" stop-color="gray" stop-opacity="0.25"/><stop offset="0.54" stop-color="gray" stop-opacity="0.12"/><stop offset="1" stop-color="gray" stop-opacity="0.1"/></linearGradient><linearGradient id="linear-gradient-7" x1="374.54" y1="696.55" x2="443.02" y2="696.55" xlink:href="#linear-gradient"/><linearGradient id="linear-gradient-8" x1="1802.24" y1="-4.86" x2="1802.24" y2="607.01" gradientTransform="translate(2616.83 752.4) rotate(180)" xlink:href="#linear-gradient-6"/><linearGradient id="linear-gradient-9" x1="838.07" y1="853.99" x2="838.07" y2="431.85" gradientUnits="userSpaceOnUse"><stop offset="0" stop-color="#fe3eff"/><stop offset="1" stop-color="#423eff"/></linearGradient><linearGradient id="linear-gradient-10" x1="841.47" y1="380.53" x2="888.92" y2="380.53" xlink:href="#linear-gradient"/><linearGradient id="linear-gradient-11" x1="817.88" y1="717.99" x2="817.88" y2="407.95" xlink:href="#linear-gradient-9"/><linearGradient id="linear-gradient-12" x1="822.98" y1="243.99" x2="822.98" y2="438.04" xlink:href="#linear-gradient"/><linearGradient id="linear-gradient-13" x1="773.21" y1="357" x2="834.76" y2="357" xlink:href="#linear-gradient"/></defs><title>scheduling</title><g id="Layer_2" data-name="Layer 2"><g id="_53917d2c-59b7-443c-9dc6-ca37ebed1a74" data-name="53917d2c-59b7-443c-9dc6-ca37ebed1a74"><path class="cls-1" d="M901.88,442.49c-37.09,60-30.14,141.74-13.85,206.19,5.45,21.58,11.73,44.36,7.07,68.51-5.7,29.53-26.48,52.72-47.51,66-38.34,24.15-82.12,23.48-114-1.77-27.53-21.81-45.66-59.85-73.77-80.49-47-34.55-111.54-13.61-167.58,18.68C452.61,742.4,409,771.4,372.36,755c-25.77-11.53-41.84-44.06-49.34-79.46-3.62-17.09-5.81-35.76-14.11-48.78-4.94-7.74-11.73-12.92-18.77-17.17C225.89,570.83,139,603.22,77,559.35c-41.85-29.62-65.64-90.8-73.46-156.22S2.15,267.71,10.2,198.79c5.73-49,13.48-101.42,39.2-141.27,27.21-42.15,70.1-61,107.38-57S226.43,28.14,254.33,57c34.87,36.08,66.32,82.16,111.45,93.8,30.74,7.93,64.31-1.25,97-6.44,54.58-8.68,108.4-6.19,161.84-2.93,51.16,3.12,102.63,7,150.3,25,33.73,12.75,59.62,39.29,91.1,56.55,20.52,11.25,43.67,12.68,62.79,27.68,23.55,18.48,43.93,52.59,34.5,95.71C954.32,387.4,921.56,410.65,901.88,442.49Z"/><path class="cls-2" d="M664.49,306.87s101-84.63,123.46-127.3,51-79.44,51-79.44"/><path class="cls-3" d="M825.72,195.52,782,185.67S792.34,231.75,825.72,195.52Z"/><path class="cls-4" d="M759,148.48l25.14,37.65S735,189.68,759,148.48Z"/><path class="cls-3" d="M842.91,160.13l-39.93-7S828.06,191.28,842.91,160.13Z"/><path class="cls-5" d="M783.82,126.48l19.67,25.76S768.67,155.54,783.82,126.48Z"/><path class="cls-6" d="M823.63,121.35s34,1.62,38,4.87-5.07,22.3-18,19.19S823.63,121.35,823.63,121.35Z"/><path class="cls-7" d="M810,91s13.89,25.31,13.37,30.13-21.17,10.23-25.34-8S810,91,810,91Z"/><circle class="cls-8" cx="844.22" cy="107.45" r="9.45" transform="translate(487.54 880.13) rotate(-72.47)"/><circle class="cls-8" cx="829.42" cy="97.72" r="9.45" transform="translate(486.47 859.22) rotate(-72.47)"/><path class="cls-9" d="M349.46,638.62s16.21-48.22-86.55-106.35c0,0-104.34-30.43-93.67-134.93,0,0-120.28,88.12-38.89,200.37S282,685.46,282,685.46Z"/><path class="cls-10" d="M318.13,660.4s-50.14-54.19-98.2-75.14a95.58,95.58,0,0,1-26.11-17.39c-30.64-28-44-70.25-36.1-111l11.55-59.53"/><rect class="cls-11" x="193.07" y="33.19" width="570.61" height="662.53"/><rect class="cls-12" x="199.72" y="40.9" width="557.32" height="647.09"/><rect class="cls-13" x="233.38" y="113.84" width="140.89" height="11.22"/><rect class="cls-13" x="233.38" y="141.27" width="240.63" height="11.22"/><rect class="cls-14" x="630.36" y="103.12" width="99.99" height="86.28"/><path class="cls-13" d="M729.82,103.62V188.9h-99V103.62h99m1-1h-101V189.9h101Z"/><rect class="cls-14" x="529.37" y="103.12" width="99.99" height="86.28"/><path class="cls-13" d="M628.82,103.62V188.9h-99V103.62h99m1-1h-101V189.9h101Z"/><rect class="cls-14" x="630.36" y="190.4" width="99.99" height="86.28"/><path class="cls-13" d="M729.82,190.9v85.28h-99V190.9h99m1-1h-101v87.28h101Z"/><rect class="cls-14" x="529.37" y="190.4" width="99.99" height="86.28"/><path class="cls-13" d="M628.82,190.9v85.28h-99V190.9h99m1-1h-101v87.28h101Z"/><rect class="cls-14" x="428.38" y="190.4" width="99.99" height="86.28"/><path class="cls-13" d="M527.87,190.9v85.28h-99V190.9h99m1-1h-101v87.28h101Z"/><rect class="cls-14" x="327.39" y="190.4" width="99.99" height="86.28"/><path class="cls-13" d="M426.88,190.9v85.28h-99V190.9h99m1-1h-101v87.28h101Z"/><rect class="cls-14" x="226.4" y="190.4" width="99.99" height="86.28"/><path class="cls-13" d="M325.89,190.9v85.28h-99V190.9h99m1-1h-101v87.28h101Z"/><rect class="cls-14" x="630.36" y="277.67" width="99.99" height="86.28"/><path class="cls-13" d="M729.82,278.18v85.28h-99V278.18h99m1-1h-101v87.28h101Z"/><rect class="cls-14" x="529.37" y="277.67" width="99.99" height="86.28"/><path class="cls-13" d="M628.82,278.18v85.28h-99V278.18h99m1-1h-101v87.28h101Z"/><rect class="cls-14" x="428.38" y="277.67" width="99.99" height="86.28"/><path class="cls-13" d="M527.87,278.18v85.28h-99V278.18h99m1-1h-101v87.28h101Z"/><rect class="cls-14" x="327.39" y="277.67" width="99.99" height="86.28"/><path class="cls-13" d="M426.88,278.18v85.28h-99V278.18h99m1-1h-101v87.28h101Z"/><rect class="cls-14" x="226.4" y="277.67" width="99.99" height="86.28"/><path class="cls-13" d="M325.89,278.18v85.28h-99V278.18h99m1-1h-101v87.28h101Z"/><rect class="cls-14" x="630.36" y="364.95" width="99.99" height="86.28"/><path class="cls-13" d="M729.82,365.45v85.28h-99V365.45h99m1-1h-101v87.28h101Z"/><rect class="cls-14" x="529.37" y="364.95" width="99.99" height="86.28"/><path class="cls-13" d="M628.82,365.45v85.28h-99V365.45h99m1-1h-101v87.28h101Z"/><rect class="cls-14" x="428.38" y="364.95" width="99.99" height="86.28"/><path class="cls-13" d="M527.87,365.45v85.28h-99V365.45h99m1-1h-101v87.28h101Z"/><rect class="cls-14" x="327.39" y="364.95" width="99.99" height="86.28"/><path class="cls-13" d="M426.88,365.45v85.28h-99V365.45h99m1-1h-101v87.28h101Z"/><rect class="cls-14" x="226.4" y="364.95" width="99.99" height="86.28"/><path class="cls-13" d="M325.89,365.45v85.28h-99V365.45h99m1-1h-101v87.28h101Z"/><rect class="cls-14" x="630.36" y="452.22" width="99.99" height="86.28"/><path class="cls-13" d="M729.82,452.73V538h-99V452.73h99m1-1h-101V539h101Z"/><rect class="cls-14" x="529.37" y="452.22" width="99.99" height="86.28"/><path class="cls-13" d="M628.82,452.73V538h-99V452.73h99m1-1h-101V539h101Z"/><rect class="cls-14" x="428.38" y="452.22" width="99.99" height="86.28"/><path class="cls-13" d="M527.87,452.73V538h-99V452.73h99m1-1h-101V539h101Z"/><rect class="cls-14" x="327.39" y="452.22" width="99.99" height="86.28"/><path class="cls-13" d="M426.88,452.73V538h-99V452.73h99m1-1h-101V539h101Z"/><rect class="cls-14" x="226.4" y="452.22" width="99.99" height="86.28"/><path class="cls-13" d="M325.89,452.73V538h-99V452.73h99m1-1h-101V539h101Z"/><rect class="cls-14" x="630.36" y="539.5" width="99.99" height="86.28"/><path class="cls-13" d="M729.82,540v85.28h-99V540h99m1-1h-101v87.28h101Z"/><rect class="cls-14" x="529.37" y="539.5" width="99.99" height="86.28"/><path class="cls-13" d="M628.82,540v85.28h-99V540h99m1-1h-101v87.28h101Z"/><rect class="cls-14" x="428.38" y="539.5" width="99.99" height="86.28"/><path class="cls-13" d="M527.87,540v85.28h-99V540h99m1-1h-101v87.28h101Z"/><rect class="cls-14" x="327.39" y="539.5" width="99.99" height="86.28"/><path class="cls-13" d="M426.88,540v85.28h-99V540h99m1-1h-101v87.28h101Z"/><rect class="cls-14" x="226.4" y="539.5" width="99.99" height="86.28"/><path class="cls-13" d="M325.89,540v85.28h-99V540h99m1-1h-101v87.28h101Z"/><path class="cls-15" d="M436.42,704.88c2.86-2.17,5.55-4.73,6.38-7.85a6.64,6.64,0,0,0-4.46-8c-4.09-1.28-8.46,1-11.78,3.37s-7.11,5-11.45,4.51c4.49-3.25,6.63-8.52,5.39-13.31a5.13,5.13,0,0,0-1.5-2.7c-2.27-2-6.39-1.13-9.11.43-8.65,5-11.06,14.55-11.11,23.18-.87-3.11-.14-6.35-.16-9.55s-1.09-6.73-4.39-8.45a15.89,15.89,0,0,0-6.7-1.29c-3.89-.12-8.22.2-10.87,2.52-3.3,2.88-2.44,7.72.43,10.89s7.24,5.16,11.25,7.35c3.06,1.67,6.16,3.62,8,6.26a5.5,5.5,0,0,1,.6,1.12h24.37A69.47,69.47,0,0,0,436.42,704.88Z"/><circle class="cls-16" cx="239.59" cy="203.52" r="5.7"/><circle class="cls-8" cx="253.83" cy="203.52" r="5.7"/><circle class="cls-3" cx="440.87" cy="288.02" r="5.7"/><circle class="cls-3" cx="455.12" cy="288.02" r="5.7"/><circle class="cls-3" cx="745.64" cy="451.32" r="5.7"/><circle class="cls-3" cx="748.49" cy="444.68" r="5.7"/><circle class="cls-3" cx="751.34" cy="438.98" r="5.7"/><circle class="cls-3" cx="645" cy="203.52" r="5.7"/><circle class="cls-3" cx="659.24" cy="203.52" r="5.7"/><circle class="cls-3" cx="673.49" cy="203.52" r="5.7"/><circle class="cls-3" cx="687.73" cy="203.52" r="5.7"/><circle class="cls-3" cx="645" cy="380.11" r="5.7"/><circle class="cls-3" cx="659.24" cy="380.11" r="5.7"/><circle class="cls-3" cx="673.49" cy="380.11" r="5.7"/><circle class="cls-3" cx="687.73" cy="380.11" r="5.7"/><circle class="cls-8" cx="340.23" cy="288.02" r="5.7"/><circle class="cls-16" cx="239.59" cy="374.42" r="5.7"/><path class="cls-17" d="M740.72,465.62c6.25,3.69,16,6.09,28.35-1.84L769,481.34c.88,12,15.77,55.91,15.77,55.91l10.5,36.1a282.27,282.27,0,0,1,11.54,78.53c0,8.81.82,17.89,3.35,24.72,5.59,15.11-2.2,34.58-5.58,41.83a170.74,170.74,0,0,1-17.33,4.88,14.51,14.51,0,0,0-1.55.47l-.07-.1s-15.76,6.25-22.76,5.39c-5.22-.64-8.49,5.87-4.4,10.66-3.86,1-7.82,1.71-10.49,1.38-7-.86-10.51,11.18,2.63,14.62s87.59,0,87.59,0a10.55,10.55,0,0,0,5.6-11.66c5.72-.22,9.29-.39,9.29-.39s13.14-6,0-22.37l-.7.53-2.81-8.27V702.4s16.64-80,11.39-89.46S853,555.31,853,555.31l1.78-52.47c4.75-9.8,7.18-25.16,8.41-37.17A78.25,78.25,0,0,0,866.59,448c.21-2.82.38-5.78.49-8.85a59,59,0,0,0-3.26-19.79c5-7.2,13.13-18.33,19.84-24.91,10.51-10.32,7.88-22.37,7.88-22.37l-4.38-29.25L876.65,293c1.32-13.84-1.57-21.81-4.76-26.31.76-4.47,1.47-8.94,2-13.43a171.9,171.9,0,0,0-3.07-58.48c-1.52-6.69-3.59-13.55-8.28-18.62-5.31-5.74-13.93-9.24-15.91-16.76-.49-1.87-.51-3.86-1.22-5.66-1.92-4.92-8-6.71-13.32-7.35-9.48-1.15-23.19-2-32.3,1.7-6.36,2.6-15.12,9.76-18.6,17.44-2,3.53-2.93,7.24-2.08,10.73a14.94,14.94,0,0,0,1.51,3.67A33.34,33.34,0,0,0,800,222.53c.21.66.4,1.31.56,1.95a32.76,32.76,0,0,1,.86,4.69c-.17,3-.36,6.09-.5,9.14-.1.42-.2.84-.32,1.24a229.75,229.75,0,0,0-22,11.22c5.26,7.74-.88,40.43-.88,40.43-13.14,7.74-26.28,27.53-12.26,48.17s6.13,43,6.13,43L769.4,416h0v.06l-.44,6.73h.17l-.17,2.55.38.07v2.74c-6.15,2.26-15.14,6.82-20.5,15.25a53.39,53.39,0,0,1-9.17,11.25,6.76,6.76,0,0,0-.68,9.54A6.61,6.61,0,0,0,740.72,465.62Zm105.76-89.36a32.12,32.12,0,0,1,3.11-16.92c2.06,0,4.13.07,6.19.07.21,1.45.46,2.83.76,4.09,1.78,7.58-5.33,11.21-10.07,12.75Z"/><path class="cls-18" d="M848.21,709.65l3.37,10.11-11,11-36.24,8.43-26.13-2.53,1.69-9.27h0a11.2,11.2,0,0,1,8.3-8.17c10.74-2.52,31.22-8.28,35.52-16.27Z"/><path class="cls-19" d="M848.21,709.65l3.37,10.11-11,11-36.24,8.43-26.13-2.53,1.69-9.27h0a11.2,11.2,0,0,1,8.3-8.17c10.74-2.52,31.22-8.28,35.52-16.27Z"/><path class="cls-20" d="M786.68,734.09l5.06-6.74-5.06-7.81s-15.17,6.12-21.91,5.28-10.11,11,2.53,14.33,84.28,0,84.28,0,12.64-5.9,0-21.9l-11,8.42S822,735.78,812.77,734.1Z"/><path class="cls-18" d="M763.92,748.4l26.13,2.53,36.24-8.43,11-11-.89-2.68-1.26-3.76-1.26-3.66-24.44-6.74a15,15,0,0,1-5,5c-7.94,5.43-22.2,9.35-30.57,11.31-.34.09-.67.19-1,.31a11.17,11.17,0,0,0-7.26,7.86Z"/><path class="cls-19" d="M763.92,748.4l26.13,2.53,36.24-8.43,11-11-.89-2.68-10.06,7.74S807.8,746.67,798.53,745H772.35l5.06-6.74-4.54-7a11.17,11.17,0,0,0-7.26,7.86Z"/><path class="cls-20" d="M772.35,745.89l5.06-6.74-5.06-7.81s-15.17,6.12-21.91,5.28-10.11,11,2.53,14.33,84.28,0,84.28,0,12.64-5.9,0-21.91l-11,8.43s-18.54,10.11-27.81,8.43Z"/><path class="cls-18" d="M793.42,257.06s40.46,4.21,34.56-12.64a30.32,30.32,0,0,1-1.25-14.88,41.36,41.36,0,0,1,7.15-17.14L796,218.3a47.28,47.28,0,0,1,5.14,12.18C805.61,248.35,793.42,257.06,793.42,257.06Z"/><path class="cls-21" d="M862.53,449.22s-.84,36.24-9.27,53.94l-1.69,51.41s2.53,47.2,7.59,56.47-11,87.65-11,87.65v13.49s-27,10.11-34.56-1.69l7.59-100.3-3.37-139.06Z"/><path class="cls-22" d="M862.53,449.22s-.84,36.24-9.27,53.94l-1.69,51.41s2.53,47.2,7.59,56.47-11,87.65-11,87.65v13.49s-27,10.11-34.56-1.69l7.59-100.3-3.37-139.06Z"/><path class="cls-16" d="M879.39,332.91l5.06,13.49,4.21,28.66A25.32,25.32,0,0,1,881.07,397c-10.11,10.11-23.6,31.18-23.6,31.18l-16-48s16-2.53,13.49-13.49-1.7-31.26-1.7-31.26Z"/><path class="cls-23" d="M879.39,332.91l5.06,13.49,4.21,28.66A25.32,25.32,0,0,1,881.07,397c-10.11,10.11-23.6,31.18-23.6,31.18l-16-48s16-2.53,13.49-13.49-1.7-31.26-1.7-31.26Z"/><path class="cls-19" d="M804.48,719.67c10.81,17,27.64,7.37,30.62,5.45l-1.22-3.72-24.44-6.74A15,15,0,0,1,804.48,719.67Z"/><path class="cls-24" d="M770.67,482.09c.84,11.8,15.17,54.78,15.17,54.78L796,572.24a281,281,0,0,1,11.11,76.94c0,8.63.79,17.53,3.23,24.22,6.74,18.54-6.74,43.83-6.74,43.83,11.8,21.07,32,6.74,32,6.74V710.49s16-73.33,11.8-87.65-5.9-53.1-5.9-53.1v-70a79.37,79.37,0,0,0,23.13-50.32c.2-2.76.36-5.66.47-8.67.68-19-12.32-41.31-17.4-49.25-1.22-1.92-2-3-2-3L771.23,418l-.17.07v9.25Z"/><path class="cls-19" d="M796,218.29a47.28,47.28,0,0,1,5.14,12.18,33,33,0,0,0,25.64-.94,41.38,41.38,0,0,1,7.15-17.13Z"/><circle class="cls-18" cx="812.81" cy="198.05" r="32.87"/><path class="cls-19" d="M770.67,427.31l.36.07c35.34,7.27,79.71-29.57,79.71-29.57a43.84,43.84,0,0,1-3.07-6.27c-1.22-1.92-2-3-2-3l-74.42,29.52-.19,2.95Z"/><path class="cls-25" d="M779.94,256.21s47.2-28.66,62.37-16.86l21.07,27s13.49,4.21,11,31.18l10.07,48.87L854.11,354s-17.7,16.86-3.37,41.3c0,0-44.67,37.08-80.07,29.5l2.53-39.61s7.59-21.91-5.9-42.14-.84-39.61,11.8-47.2C779.1,295.83,785,263.8,779.94,256.21Z"/><path class="cls-18" d="M777.41,428.15s-17.7,3.37-26.13,16.86a52.3,52.3,0,0,1-8.82,11,6.7,6.7,0,0,0-.46,9.45,6.49,6.49,0,0,0,1.46,1.21c6.69,4,17.6,6.49,31.38-4.83C798.48,442.48,777.41,428.15,777.41,428.15Z"/><path class="cls-19" d="M803.54,272.23s16.86-1.69,21.07,42.14,11,53.94,11,53.94,4.21,22.76-5.9,36.24-29.5,42.14-29.5,42.14-21.07,5.9-25.28-15.17l26.13-48.88s4.21-16.86-5.9-28.66S777.41,263.8,803.54,272.23Z"/><path class="cls-26" d="M801.82,269.7s16.86-1.69,21.07,42.14,11,53.94,11,53.94S838.1,388.54,828,402s-29.5,42.14-29.5,42.14-21.07,5.9-25.28-15.17l26.13-48.88s4.21-16.86-5.9-28.66S775.72,261.27,801.82,269.7Z"/><path class="cls-19" d="M787.94,301.3s-1.68,26.1,5.88,40.46,7.59,32.87,0,43"/><path class="cls-19" d="M783.73,269.28s6.74-6.74,26.13-7.59S837.67,255,837.67,255"/><path class="cls-19" d="M830.61,155.58c5.12.63,11,2.39,12.82,7.2.68,1.77.7,3.72,1.17,5.55,1.91,7.36,10.2,10.79,15.31,16.42,4.51,5,6.5,11.69,8,18.24a171.17,171.17,0,0,1,3,57.26c-1.64,14-5,27.74-5.94,41.78s.78,28.81,8.45,40.61c3.3,5.07,7.66,9.53,10,15.11-4.83,3.92-11.5,4.48-17.73,4.69q-10.86.38-21.75,0c-3.8-.13-7.77-.38-11.05-2.3a17,17,0,0,1-5.8-6.23c-4.15-7-5.19-15.5-5-23.66s1.47-16.28,1.62-24.45c.08-4.45-.27-9.18-2.83-12.82-1.85-2.63-4.66-4.4-7.06-6.53-9-8-12.12-20.82-12.42-32.87s1.69-24.12.67-36.13c-.4-4.7-2.16-10.35-6.78-11.26-1.46-.29-3,0-4.4-.56-3.71-1.43-3.35-6.66-4.41-10.49-1.19-4.3-4.86-7.62-5.89-12-2.43-10.2,10.55-22.37,19.06-25.92S821.49,154.46,830.61,155.58Z"/><path class="cls-20" d="M831.45,153.9c5.12.63,11,2.39,12.82,7.2.68,1.77.7,3.72,1.17,5.55,1.91,7.36,10.2,10.79,15.31,16.42,4.51,5,6.5,11.69,8,18.24a171.17,171.17,0,0,1,3,57.26c-1.64,14-5,27.74-5.94,41.78s.78,28.81,8.45,40.61c3.3,5.07,7.66,9.53,10,15.11-4.83,3.92-11.5,4.48-17.73,4.69q-10.86.38-21.75,0c-3.8-.13-7.77-.38-11-2.3a17,17,0,0,1-5.8-6.23c-4.15-7-5.19-15.5-5-23.66s1.47-16.28,1.62-24.45c.08-4.45-.27-9.18-2.83-12.82-1.85-2.63-4.66-4.4-7.06-6.53-9-8-12.12-20.82-12.42-32.87s1.69-24.12.67-36.13c-.4-4.7-2.16-10.35-6.78-11.26-1.46-.29-3,0-4.4-.56-3.71-1.43-3.35-6.66-4.41-10.49-1.19-4.3-4.86-7.62-5.89-12-2.43-10.2,10.55-22.37,19.06-25.92S822.33,152.77,831.45,153.9Z"/></g></g></svg>