<svg xmlns="http://www.w3.org/2000/svg" xmlns:xlink="http://www.w3.org/1999/xlink" viewBox="0 0 959.44 652.97"><defs><style>.cls-1{fill:#233862;}.cls-2{fill:#b589b6;opacity:0.5;isolation:isolate;}.cls-3{fill:#e6e6e6;}.cls-4{fill:url(#linear-gradient);}.cls-5{fill:url(#linear-gradient-2);}.cls-6{fill:url(#linear-gradient-3);}.cls-7{fill:#ff3d64;}.cls-8{fill:url(#linear-gradient-4);}.cls-9{fill:url(#linear-gradient-5);}.cls-10{fill:#ffb8b8;}.cls-11{fill:url(#linear-gradient-6);}.cls-12{fill:url(#linear-gradient-7);}.cls-13{fill:url(#linear-gradient-8);}.cls-14{fill:url(#linear-gradient-9);}.cls-15{fill:url(#linear-gradient-10);}.cls-16{fill:#a0616a;}.cls-17{fill:url(#linear-gradient-11);}.cls-18{fill:url(#linear-gradient-12);}.cls-19{fill:url(#linear-gradient-13);}.cls-20{fill:url(#linear-gradient-14);}.cls-21{fill:url(#linear-gradient-15);}</style><linearGradient id="linear-gradient" x1="221.52" y1="385.52" x2="351.55" y2="255.5" gradientTransform="translate(382.13 -135.8) rotate(56.31)" gradientUnits="userSpaceOnUse"><stop offset="0" stop-color="#553eff"/><stop offset="1" stop-color="#00f0ff"/></linearGradient><linearGradient id="linear-gradient-2" x1="220.57" y1="384.57" x2="350.6" y2="254.55" gradientTransform="matrix(1, 0, 0, 1, 0, 0)" xlink:href="#linear-gradient"/><linearGradient id="linear-gradient-3" x1="228.07" y1="392.07" x2="358.1" y2="262.05" gradientTransform="matrix(1, 0, 0, 1, 0, 0)" xlink:href="#linear-gradient"/><linearGradient id="linear-gradient-4" x1="669.93" y1="175.07" x2="765.93" y2="271.08" gradientUnits="userSpaceOnUse"><stop offset="0" stop-color="#ff736b"/><stop offset="1" stop-color="#ff2260"/></linearGradient><linearGradient id="linear-gradient-5" x1="662.46" y1="182.61" x2="758.46" y2="278.61" xlink:href="#linear-gradient-4"/><linearGradient id="linear-gradient-6" x1="808.01" y1="565.98" x2="914.05" y2="565.98" gradientUnits="userSpaceOnUse"><stop offset="0" stop-color="#fe3eff"/><stop offset="1" stop-color="#423eff"/></linearGradient><linearGradient id="linear-gradient-7" x1="821.09" y1="572.98" x2="927.02" y2="572.98" xlink:href="#linear-gradient-6"/><linearGradient id="linear-gradient-8" x1="876.03" y1="410" x2="876.03" y2="504.01" xlink:href="#linear-gradient-4"/><linearGradient id="linear-gradient-9" x1="903.21" y1="443" x2="903.21" y2="537.01" xlink:href="#linear-gradient-4"/><linearGradient id="linear-gradient-10" x1="923.44" y1="489" x2="923.44" y2="449.15" xlink:href="#linear-gradient-4"/><linearGradient id="linear-gradient-11" x1="45.74" y1="565.73" x2="151.76" y2="565.73" xlink:href="#linear-gradient-6"/><linearGradient id="linear-gradient-12" x1="32.74" y1="572.73" x2="138.76" y2="572.73" xlink:href="#linear-gradient-6"/><linearGradient id="linear-gradient-13" x1="56.56" y1="537" x2="56.56" y2="426.96" gradientTransform="matrix(1, 0, 0, 1, 0, 0)" xlink:href="#linear-gradient"/><linearGradient id="linear-gradient-14" x1="83.79" y1="537" x2="83.79" y2="426.96" gradientTransform="matrix(1, 0, 0, 1, 0, 0)" xlink:href="#linear-gradient"/><linearGradient id="linear-gradient-15" x1="36.33" y1="549" x2="36.33" y2="438.96" gradientTransform="matrix(1, 0, 0, 1, 0, 0)" xlink:href="#linear-gradient"/></defs><title>team</title><g id="Layer_2" data-name="Layer 2"><g id="e5a14d39-c01f-40f9-a6ab-d21710ce4f03"><circle class="cls-1" cx="916.03" cy="397.7" r="31"/><path class="cls-2" d="M788,0H181a8.73,8.73,0,0,0-8.72,8.72V420a8.73,8.73,0,0,0,8.72,8.72H788a8.71,8.71,0,0,0,6.63-3.06,2,2,0,0,0,.19-.24,8.66,8.66,0,0,0,1.91-5.42V8.72A8.72,8.72,0,0,0,788,0Zm6.24,420a6.19,6.19,0,0,1-1,3.42,6.5,6.5,0,0,1-2.36,2.12,6.15,6.15,0,0,1-2.85.69H181a6.24,6.24,0,0,1-6.23-6.23V8.72A6.24,6.24,0,0,1,181,2.49H788a6.24,6.24,0,0,1,6.24,6.23Z"/><rect class="cls-2" x="173.5" y="34.95" width="621.96" height="2.49"/><circle class="cls-3" cx="194.69" cy="18.7" r="7.48"/><circle class="cls-3" cx="216.19" cy="18.7" r="7.48"/><circle class="cls-3" cx="237.69" cy="18.7" r="7.48"/><path class="cls-3" d="M518.77,77.5H298.64A13.68,13.68,0,0,0,285,91.16v278a13.68,13.68,0,0,0,13.66,13.65H518.77a13.68,13.68,0,0,0,13.66-13.65v-278A13.68,13.68,0,0,0,518.77,77.5Zm12.06,291.64a12.07,12.07,0,0,1-12.06,12.05H298.64a12.07,12.07,0,0,1-12.05-12.05v-278A12.07,12.07,0,0,1,298.64,79.1H518.77a12.07,12.07,0,0,1,12.06,12.06Z"/><path class="cls-3" d="M475.39,269.91H342c-13.62-.06-13.68-20.81,0-20.88H475.39C489,249.09,489.08,269.84,475.39,269.91Z"/><path class="cls-3" d="M475.39,308.48H342c-13.62-.07-13.68-20.82,0-20.89H475.39C489,287.65,489.08,308.41,475.39,308.48Z"/><path class="cls-3" d="M475.39,347H342c-13.62-.06-13.68-20.82,0-20.89H475.39C489,326.22,489.08,347,475.39,347Z"/><path class="cls-3" d="M655,202.5a27,27,0,1,1,27-27A27,27,0,0,1,655,202.5Zm0-52a25,25,0,1,0,25,25h0A25,25,0,0,0,655,150.5Z"/><path class="cls-3" d="M667,174.5H656V162a1,1,0,0,0-2,0v12.5H643a1,1,0,0,0,0,2h11V189a1,1,0,0,0,2,0V176.5h11a1,1,0,0,0,0-2Z"/><path class="cls-3" d="M657,350.5a27,27,0,1,1,27-27h0A27,27,0,0,1,657,350.5Zm0-52a25,25,0,1,0,25,25h0A25,25,0,0,0,657,298.5Z"/><path class="cls-3" d="M664.77,314.31,657,322.08l-8.84-8.83a1,1,0,0,0-1.41,0,1,1,0,0,0,0,1.41l8.84,8.84-7.78,7.78a1,1,0,1,0,1.41,1.41l7.78-7.78,8.84,8.84a1,1,0,0,0,1.42-1.41l-8.84-8.84,7.77-7.78a1,1,0,0,0-1.41-1.41Z"/><path class="cls-3" d="M473,224H344.43a13.27,13.27,0,0,1-13.25-13.26v-72a13.27,13.27,0,0,1,13.25-13.26H473a13.28,13.28,0,0,1,13.26,13.26v72A13.28,13.28,0,0,1,473,224Z"/><rect class="cls-3" x="543.88" y="200.11" width="81.28" height="2" transform="translate(-21.96 320.68) rotate(-30.14)"/><rect class="cls-3" x="583.52" y="252.25" width="2" height="81.28" transform="translate(37.73 651.32) rotate(-59.86)"/><rect class="cls-4" x="301.8" y="287.25" width="32.28" height="3.7" transform="translate(-98.97 393.28) rotate(-56.31)"/><path class="cls-5" d="M339.29,257.08c-9.08,6.59-21.86,13.75-32.22,16.57l18.19,4.47,11.12,15.07C335,282.55,336.7,268,339.29,257.08Z"/><circle class="cls-6" cx="286.17" cy="333.97" r="31.48"/><rect class="cls-7" x="695.63" y="188.38" width="3.7" height="32.28" transform="translate(3.69 421.24) rotate(-33.69)"/><path class="cls-8" d="M676.13,172.5c9.08,6.58,21.86,13.75,32.21,16.57l-18.19,4.47L679,208.61C680.42,198,678.72,183.41,676.13,172.5Z"/><circle class="cls-9" cx="729.24" cy="249.39" r="31.48"/><path class="cls-3" d="M946.68,542.12h-48c0,1.38-49.48,2.5-49.48,2.5a13.77,13.77,0,0,0-2.11,2,12.5,12.5,0,0,0-2.9,8v2a12.51,12.51,0,0,0,12.5,12.5h90a12.5,12.5,0,0,0,12.5-12.5v-2A12.52,12.52,0,0,0,946.68,542.12Z"/><rect class="cls-3" x="895.68" y="568.63" width="13" height="84"/><path class="cls-3" d="M945.68,652.17c0,1.4-19.7.54-44,.54s-44,.86-44-.54,19.7-12.54,44-12.54S945.68,650.76,945.68,652.17Z"/><polygon class="cls-10" points="836.67 641.12 824.41 641.12 818.58 593.83 836.67 593.83 836.67 641.12"/><path class="cls-1" d="M815.65,637.62H839.3V652.5H800.77A14.88,14.88,0,0,1,815.65,637.62Z"/><polygon class="cls-10" points="817.53 634.28 805.84 630.61 814.43 583.74 831.69 589.16 817.53 634.28"/><path class="cls-1" d="M798.53,624.64l22.56,7.08h0l-4.46,14.21h0l-36.76-11.54h0A14.88,14.88,0,0,1,798.53,624.64Z"/><path class="cls-11" d="M913.85,533.92a37.56,37.56,0,0,0-1.52-7L910,524l-6-7.48h-.26c-.44,0-2.27.12-5.1.34h0c-1.75.14-3.89.32-6.32.55l-2,.2v10.44h12.5a2.51,2.51,0,0,1,2.48,2.18c0,.11,0,.21,0,.32a2.49,2.49,0,0,1-2.5,2.5h-72.6a32.41,32.41,0,0,0-2.66,2,14.88,14.88,0,0,0-5.25,7.86c-4.24,18.64-12,53.4-14.25,63.61a4.53,4.53,0,0,0,1.35,4.28,4.41,4.41,0,0,0,1.47.91l9,3.38a4.58,4.58,0,0,0,1.15.27h.14a1.31,1.31,0,0,0,.28,0,4.5,4.5,0,0,0,4.21-2.9l7.12-18.68,11-28.8,4.34-11.39c5,1.18,47.23,10.52,61.36-4.53a16.09,16.09,0,0,0,3.24-5.11A20.82,20.82,0,0,0,913.85,533.92Z"/><path class="cls-12" d="M926.09,536.67c-.22-.89-.47-1.81-.76-2.74l-8.24-10.35h-.26c-.52,0-3,.16-6.78.47-4.29.36-10.3.94-17,1.85l-.6.08-2,.28v1.85h12.49a2.51,2.51,0,0,1,2.48,2.17c0,.11,0,.21,0,.32a2.5,2.5,0,0,1-2.5,2.5H858.74c-1.93.63-3.79,1.29-5.57,2-9.33,3.7-16.32,8.55-17.74,14.85l-1.57,6.93c-2.08,9.21-4.61,20.49-6.9,30.74h0c-.47,2.12-.94,4.18-1.39,6.18-1.91,8.59-3.52,15.88-4.38,19.71l-.06.32v0a4.55,4.55,0,0,0,.28,2.28h0a4.37,4.37,0,0,0,1.29,1.79,4.78,4.78,0,0,0,1.29.75l9,3.38a4.42,4.42,0,0,0,3.71-.26,4.47,4.47,0,0,0,2.06-2.35l19.41-50.92,3-7.91c5,1.18,47.19,10.51,61.31-4.52A16.92,16.92,0,0,0,927,545.06,29.68,29.68,0,0,0,926.09,536.67Z"/><path class="cls-13" d="M884,449.24a12.29,12.29,0,0,0-1.58-.55,11.51,11.51,0,0,0-13.54,6.53L862,471.08l-.86,2h23.73a5.44,5.44,0,0,1,1.27.15l.8-1.85,3-7A11.52,11.52,0,0,0,884,449.24Z"/><path class="cls-14" d="M925,448.42c-.16-.19-.33-.38-.51-.56a24.49,24.49,0,0,0-21-7.39,79.61,79.61,0,0,0-9.91,1.95,25.12,25.12,0,0,0-11.18,6.27,24.43,24.43,0,0,0-7.41,18.2c0,1.37,0,2.77,0,4.19,0,.66,0,1.33,0,2h9.86a5.44,5.44,0,0,1,1.27.15,5.51,5.51,0,0,1,4.23,5.35V525.1l2,.58.61.19.68.21q3,.95,6,2h3.26a2.51,2.51,0,0,1,2.48,2.18l2,.81c2.31,1,4.5,1.92,6.51,2.85,2.71,1.24,5.12,2.42,7.14,3.45a4.46,4.46,0,0,0,2,.5,4.34,4.34,0,0,0,2.6-.86,3.16,3.16,0,0,0,.45-.37,4.48,4.48,0,0,0,1.37-4,128.56,128.56,0,0,1-.9-23.7c.28-6.65.88-13.47,1.66-20.06.42-3.57.89-7.07,1.38-10.44.47-3.22,1-6.31,1.46-9.23A24.62,24.62,0,0,0,925,448.42Z"/><circle class="cls-10" cx="905.33" cy="408.1" r="24.56"/><path class="cls-10" d="M929.6,478.46l-14,.38-1,9.85-.23,2.28-22,9.86-2,.9v17.53l2-.57,6.32-1.8h0L926.56,509l.32-.09a10.87,10.87,0,0,0,7.86-10.35l.07-11.63.06-8.57Z"/><path class="cls-15" d="M934.16,459a11.5,11.5,0,0,0-23,1.41l1.53,25a4.51,4.51,0,0,0,4.77,4.21l10.72-.66,3.25-.2a4.32,4.32,0,0,0,3.1-1.51,1.76,1.76,0,0,0,.24-.3,4.43,4.43,0,0,0,.88-3Z"/><path class="cls-2" d="M893.66,526.08h-1.29V526l-2,.28v1.85h9.24C897.67,527.38,895.69,526.72,893.66,526.08Zm0,0h-1.29V526l-2,.28v1.85h9.24C897.67,527.38,895.69,526.72,893.66,526.08Zm9.21,0h-10.5v-47.5a7.52,7.52,0,0,0-5.43-7.2,7.25,7.25,0,0,0-2.07-.3h-89a7.52,7.52,0,0,0-7.5,7.5v49a7.5,7.5,0,0,0,7.5,7.5h107a4.5,4.5,0,0,0,4.47-4,3.91,3.91,0,0,0,0-.49,4.51,4.51,0,0,0-4.5-4.5Zm2.5,4.5a2.49,2.49,0,0,1-2.5,2.5h-107a5.5,5.5,0,0,1-5.5-5.5v-49a5.51,5.51,0,0,1,5.5-5.5h89a5.44,5.44,0,0,1,1.27.15,5.51,5.51,0,0,1,4.23,5.35v49.5h12.5a2.51,2.51,0,0,1,2.48,2.18c0,.11,0,.21,0,.32Zm-11.71-4.5h-1.29V526l-2,.28v1.85h9.24c-1.94-.7-3.92-1.36-6-2Z"/><circle class="cls-7" cx="840.37" cy="503.09" r="6"/><path class="cls-3" d="M0,553.62v2a12.51,12.51,0,0,0,12.5,12.5h90a12.5,12.5,0,0,0,12.5-12.5v-2a12.39,12.39,0,0,0-2.9-8,13.33,13.33,0,0,0-2.11-2s-49.48-1.12-49.48-2.5h-48A12.52,12.52,0,0,0,0,553.62Z"/><rect class="cls-3" x="50.5" y="567.63" width="13" height="84"/><path class="cls-3" d="M13.5,651.17c0,1.4,19.7.54,44,.54s44,.86,44-.54-19.69-12.54-44-12.54S13.5,649.76,13.5,651.17Z"/><polygon class="cls-16" points="123.1 640.88 135.36 640.88 141.19 593.59 123.1 593.59 123.1 640.88"/><path class="cls-1" d="M159,652.26H120.47V637.38h23.65A14.88,14.88,0,0,1,159,652.26Z"/><polygon class="cls-16" points="142.24 634.04 153.94 630.37 145.34 583.5 128.08 588.92 142.24 634.04"/><path class="cls-1" d="M179.9,634.15l-36.76,11.54h0l-4.46-14.21h0l22.56-7.08a14.89,14.89,0,0,1,18.66,9.75Z"/><path class="cls-17" d="M151.66,606.32c-2.27-10.21-10-45-14.25-63.61a14.69,14.69,0,0,0-5-7.62,26.15,26.15,0,0,0-2.58-2H63.55a2.5,2.5,0,0,1-2.5-2.5c0-.11,0-.21,0-.32a2.49,2.49,0,0,1,2.48-2.18h12.5v-9.93l-2-.23c-5.23-.62-9.73-1-12.95-1.27-2.86-.22-4.71-.32-5.15-.34l-.26,0-6,7.49-2.29,2.88a37.29,37.29,0,0,0-1.52,7c-.71,6.28.74,11.38,4.33,15.2,14.13,15,56.33,5.71,61.36,4.53L134,612.28a4.51,4.51,0,0,0,4.21,2.89l.42,0a5,5,0,0,0,1.15-.26l9-3.38A4.54,4.54,0,0,0,151.66,606.32Z"/><path class="cls-18" d="M138.66,613.32c-2.27-10.21-10-45-14.25-63.61-1.41-6.18-8.13-11-17.17-14.62-1.73-.71-3.55-1.37-5.44-2H63.55a2.5,2.5,0,0,1-2.5-2.5c0-.11,0-.21,0-.32a2.49,2.49,0,0,1,2.48-2.18h12.5V527c-1.39-.24-2.78-.46-4.14-.67l-1.86-.27-3.27-.45c-6.75-.91-12.75-1.49-17.05-1.85-3.79-.31-6.26-.44-6.78-.47l-.26,0-8.25,10.37c-.29.93-.54,1.85-.76,2.74-2,8.28-.8,14.81,3.57,19.47,14.13,15,56.33,5.71,61.36,4.53L121,619.28a4.52,4.52,0,0,0,5.78,2.61l9-3.38a4.52,4.52,0,0,0,2.83-3.36A4.18,4.18,0,0,0,138.66,613.32Z"/><path class="cls-16" d="M126.05,497.09a6,6,0,0,0-5.47,3.54l9.1-2.32A5.89,5.89,0,0,0,126.05,497.09Z"/><path class="cls-19" d="M84.78,466a24.45,24.45,0,0,0-7.42-17.56,24.94,24.94,0,0,0-11.17-6.26,82,82,0,0,0-9.92-2,24.5,24.5,0,0,0-21,7.4c-.18.18-.35.37-.51.56A24.57,24.57,0,0,0,28.71,469c.49,2.92,1,6,1.46,9.23s1,6.87,1.38,10.44c.78,6.59,1.38,13.41,1.66,20.05a127,127,0,0,1-.9,23.71,4.5,4.5,0,0,0,1.37,4,5.54,5.54,0,0,0,.45.37,4.37,4.37,0,0,0,4.65.35c2-1,4.43-2.21,7.14-3.45,4.09-1.87,8.86-3.89,14-5.75,1.77-.64,3.59-1.26,5.43-1.84l1.43-.45c2.39-.73,4.82-1.41,7.27-2,.67-.16,1.33-.31,2-.45V478.59a5.5,5.5,0,0,1,4.23-5.35,5.38,5.38,0,0,1,1.27-.15h3.22c0-.67,0-1.34,0-2,0-1.5,0-3,0-4.43C84.78,466.44,84.78,466.22,84.78,466Z"/><path class="cls-20" d="M97.87,471.09l-7-16.1a11.51,11.51,0,0,0-13.54-6.54,10.94,10.94,0,0,0-1.58.55,11.51,11.51,0,0,0-6,15.13l4.93,11.38,1.33,3.08a5.5,5.5,0,0,1,4.23-5.35,5.38,5.38,0,0,1,1.27-.15H98.73Z"/><circle class="cls-16" cx="54.44" cy="407.87" r="24.56"/><path class="cls-1" d="M39.6,429.69a4,4,0,0,1-5.61.4l-.08-.08a44.33,44.33,0,0,1-12.67-16.54c-3.19-7.62-3.66-16.9,0-24,3.07-6,8.59-9.87,14.09-13a23.14,23.14,0,0,1,6.85-2.9,9,9,0,0,1,7.15,1.41,7.51,7.51,0,0,1,2.88,7.22A22.41,22.41,0,0,1,62,374.81a11.33,11.33,0,0,1,7.55-.51c3.53,1.18,6.15,4.75,7.61,8.59a19,19,0,0,1,1.25,9.26,11.08,11.08,0,0,1-4.27,7.67c-2.88,2-6.6,1.79-9.95.91s-6.61-2.37-10-2.79-7.19.49-9.23,3.53c-1.43,2.14-1.77,5-2.06,7.66l-1.52,14A18.64,18.64,0,0,1,40.07,429,3.08,3.08,0,0,1,39.6,429.69Z"/><path class="cls-16" d="M74.05,503.58,45.44,490.74l-.23-2.28-1-9.85-14-.38-5.27-.14.06,8.57L25,498.29a10.86,10.86,0,0,0,7.86,10.34l.32.09,27.89,7.94,12.95,3.69,2,.57V504.48Z"/><path class="cls-21" d="M37.8,448a11.48,11.48,0,0,0-12.18,10.75v0L24.08,483.7a4.49,4.49,0,0,0,.88,3,3.15,3.15,0,0,0,.24.3,4.53,4.53,0,0,0,1.34,1,4.44,4.44,0,0,0,1.76.48l3.25.2,10.72.66A4.52,4.52,0,0,0,47,485.11l1.53-24.95A11.51,11.51,0,0,0,37.8,448Z"/><path class="cls-1" d="M924.08,427c-2.1,1.13-4.71,2.24-6.7.88s-2.09-4.29-1.41-6.58,1.93-4.44,2-6.85c.16-3.45-2.14-6.65-5-8.44s-6.2-2.44-9.47-3.06l-17.92-3.42c-4.44-.85-9.24-1.91-12.21-5.48-4.28-5.17-2.42-13.78,2.65-18s12.23-4.65,18.62-3.25c3.53.78,7,2.07,10.56,2.45,7.08.75,14.57-2.06,21.14.86,5.72,2.53,9.19,9,10,15.38s-.6,12.83-2.18,19.05c-.93,3.69-2,7.44-4,10.59s-5.37,5.63-9,5.68Z"/><circle class="cls-1" cx="939.44" cy="378.92" r="20"/><path class="cls-2" d="M74.05,526v.13H72.76l-.85.27c-1.73.55-3.43,1.12-5.1,1.73h9.24v-1.85Zm0,0v.13H72.76l-.85.27c-1.73.55-3.43,1.12-5.1,1.73h9.24v-1.85Zm0,0v.13H72.76l-.85.27c1.36.21,2.75.43,4.14.67v-.79Zm0-2.31v2.44H72.76l-.85.27c-1.73.55-3.43,1.12-5.1,1.73h9.24V523.2C75.38,523.34,74.72,523.49,74.05,523.65Zm0,0v2.44H72.76l-.85.27c-1.73.55-3.43,1.12-5.1,1.73h9.24V523.2C75.38,523.34,74.72,523.49,74.05,523.65Zm0,0v2.44H72.76l-.85.27c-1.73.55-3.43,1.12-5.1,1.73h9.24V523.2C75.38,523.34,74.72,523.49,74.05,523.65Zm96.5-52.56h-89a6.91,6.91,0,0,0-2.07.3,7.54,7.54,0,0,0-4.76,4.12,7.27,7.27,0,0,0-.67,3.08v47.5H63.55a4.49,4.49,0,0,0-4.5,4.5h0a4,4,0,0,0,0,.49,4.5,4.5,0,0,0,4.47,4h107a7.5,7.5,0,0,0,7.5-7.5v-49A7.51,7.51,0,0,0,170.55,471.09Zm5.5,56.5a5.51,5.51,0,0,1-5.5,5.5h-107a2.5,2.5,0,0,1-2.5-2.5c0-.11,0-.21,0-.32a2.49,2.49,0,0,1,2.48-2.18h12.5v-49.5a5.5,5.5,0,0,1,4.23-5.35,5.38,5.38,0,0,1,1.27-.15h89a5.5,5.5,0,0,1,5.5,5.5Zm-102-3.94v2.44H72.76l-.85.27c-1.73.55-3.43,1.12-5.1,1.73h9.24V523.2C75.38,523.34,74.72,523.49,74.05,523.65Zm0,0v2.44H72.76l-.85.27c-1.73.55-3.43,1.12-5.1,1.73h9.24V523.2C75.38,523.34,74.72,523.49,74.05,523.65Zm0,0v2.44H72.76l-.85.27c-1.73.55-3.43,1.12-5.1,1.73h9.24V523.2C75.38,523.34,74.72,523.49,74.05,523.65Zm0,2.31v.13H72.76l-.85.27c-1.73.55-3.43,1.12-5.1,1.73h9.24v-1.85Z"/><path class="cls-7" d="M132.05,503.09a6,6,0,1,1-6-6,5.89,5.89,0,0,1,3.63,1.22A6,6,0,0,1,132.05,503.09Z"/></g></g></svg>