<svg xmlns="http://www.w3.org/2000/svg" xmlns:xlink="http://www.w3.org/1999/xlink" viewBox="0 0 65 140.44"><defs><style>.cls-1,.cls-2,.cls-3{opacity:0.2;}.cls-1{fill:url(#linear-gradient);}.cls-2{fill:url(#linear-gradient-2);}.cls-3{fill:url(#linear-gradient-3);}.cls-4{fill:url(#Degradado_sin_nombre_8);}.cls-5{fill:#ea5455;}.cls-6{fill:url(#Degradado_sin_nombre_8-2);}.cls-7{fill:url(#Degradado_sin_nombre_8-3);}.cls-8{fill:#f9f7f7;}</style><linearGradient id="linear-gradient" x1="32.5" y1="1.82" x2="32.5" y2="96.65" gradientUnits="userSpaceOnUse"><stop offset="0" stop-color="#ff736b" stop-opacity="0.5"/><stop offset="0.51" stop-color="#ff4a66"/><stop offset="0.77" stop-color="#ff3563"/><stop offset="1" stop-color="#ff2260"/></linearGradient><linearGradient id="linear-gradient-2" x1="32.5" y1="132.98" x2="32.5" y2="104.98" xlink:href="#linear-gradient"/><linearGradient id="linear-gradient-3" x1="32.5" y1="140.4" x2="32.5" y2="102.2" xlink:href="#linear-gradient"/><linearGradient id="Degradado_sin_nombre_8" x1="66.79" y1="93.04" x2="50.91" y2="87.04" gradientUnits="userSpaceOnUse"><stop offset="0" stop-color="#ff736b"/><stop offset="1" stop-color="#ff2260"/></linearGradient><linearGradient id="Degradado_sin_nombre_8-2" x1="0.2" y1="94.46" x2="16.08" y2="85.81" xlink:href="#Degradado_sin_nombre_8"/><linearGradient id="Degradado_sin_nombre_8-3" x1="16.61" y1="46.26" x2="48.39" y2="46.26" xlink:href="#Degradado_sin_nombre_8"/></defs><title>Unlimited Access</title><g id="Layer_2" data-name="Layer 2"><g id="Layer_1-2" data-name="Layer 1"><path class="cls-1" d="M32.5,0S.47,17.56,11,76.25A178.58,178.58,0,0,0,16.32,98a1.21,1.21,0,0,0,.05.18H48.63a3.37,3.37,0,0,0,.1-.34,181.5,181.5,0,0,0,5.33-21.65C64.52,17.55,32.5,0,32.5,0Z"/><path class="cls-2" d="M39,103s6.17,12.33-6.64,30.84c0,0-12.1-14-6.4-31.08Z"/><path class="cls-3" d="M42.86,102.07s9.77,15.34-10.52,38.37c0,0-19.15-17.42-10.14-38.67Z"/><path class="cls-4" d="M64.05,83l-10-6.81a181.5,181.5,0,0,1-5.33,21.65L65,104.38Z"/><polygon class="cls-5" points="32.26 98.21 17.3 98.21 18.5 103.43 46.5 103.43 47.7 98.21 32.74 98.21 32.26 98.21"/><path class="cls-6" d="M1.42,83.5,0,104.38,16.32,98A178.58,178.58,0,0,1,11,76.25Z"/><circle class="cls-7" cx="32.5" cy="46.26" r="15.89"/><circle class="cls-8" cx="32.5" cy="46.26" r="11.39"/></g></g></svg>