<svg xmlns="http://www.w3.org/2000/svg" xmlns:xlink="http://www.w3.org/1999/xlink" viewBox="0 0 512 490.67"><defs><style>.cls-1{fill:#2b4862;}.cls-2{fill:url(#linear-gradient);}.cls-3{fill:#2c4960;}</style><linearGradient id="linear-gradient" x1="327.04" y1="349.83" x2="496.45" y2="475.83" gradientUnits="userSpaceOnUse"><stop offset="0" stop-color="#ff736b"/><stop offset="1" stop-color="#ff2260"/></linearGradient></defs><title>user_login</title><g id="Layer_2" data-name="Layer 2"><g id="Layer_1-2" data-name="Layer 1"><path class="cls-1" d="M288,378.67a69.44,69.44,0,0,1,42.67-64v-5.34A84.28,84.28,0,0,1,339,273.17,100.89,100.89,0,0,0,282.67,256H101.33A101.45,101.45,0,0,0,0,357.33V432a16,16,0,0,0,16,16H288Z"/><path class="cls-1" d="M298.67,106.67A106.67,106.67,0,1,1,192,0,106.66,106.66,0,0,1,298.67,106.67Z"/><path class="cls-2" d="M474.67,341.33H357.33A37.38,37.38,0,0,0,320,378.67v74.66a37.38,37.38,0,0,0,37.33,37.34H474.67A37.38,37.38,0,0,0,512,453.33V378.67A37.38,37.38,0,0,0,474.67,341.33Z"/><path class="cls-3" d="M416,256a53.39,53.39,0,0,0-53.33,53.33v32h32v-32a21.33,21.33,0,1,1,42.66,0v32h32v-32A53.39,53.39,0,0,0,416,256Z"/></g></g></svg>