<?xml version="1.0" encoding="utf-8"?>
<!-- Generator: Adobe Illustrator 24.0.1, SVG Export Plug-In . SVG Version: 6.00 Build 0)  -->
<svg version="1.1" id="Layer_1" xmlns="http://www.w3.org/2000/svg" xmlns:xlink="http://www.w3.org/1999/xlink" x="0px" y="0px"
	 viewBox="0 0 888.7 679.4" style="enable-background:new 0 0 888.7 679.4;" xml:space="preserve">
<style type="text/css">
	.st0{opacity:0.1;fill:#F53065;enable-background:new    ;}
	.st1{fill:#E6E6E6;}
	.st2{fill:url(#SVGID_1_);}
	.st3{fill:#FFFFFF;}
	.st4{fill:#FFB8B8;}
	.st5{fill:url(#SVGID_2_);}
	.st6{clip-path:url(#SVGID_4_);}
	.st7{fill:url(#SVGID_5_);}
	.st8{fill:#E4865E;}
	.st9{opacity:0.5;}
	.st10{fill:#B589B6;}
	.st11{fill:url(#SVGID_6_);}
	.st12{fill:url(#SVGID_7_);}
	.st13{fill:url(#SVGID_8_);}
	.st14{fill:url(#SVGID_9_);}
	.st15{fill:url(#SVGID_10_);}
	.st16{fill:#9AB8FF;}
	.st17{fill:#D06A41;}
	.st18{fill:none;stroke:#000000;stroke-width:0.5813;stroke-linecap:round;stroke-linejoin:round;stroke-miterlimit:10;}
	.st19{fill:none;stroke:#FFFFFF;stroke-width:0.7905;stroke-linecap:round;stroke-linejoin:round;stroke-miterlimit:10;}
	.st20{fill:none;stroke:#000000;stroke-width:0.93;stroke-linecap:round;stroke-linejoin:round;stroke-miterlimit:10;}
	.st21{fill:none;stroke:#000000;stroke-width:0.7801;stroke-linecap:round;stroke-linejoin:round;stroke-miterlimit:10;}
	.st22{fill:#FFCD3B;}
	.st23{fill:url(#SVGID_11_);}
	.st24{clip-path:url(#SVGID_13_);}
	.st25{fill:url(#SVGID_14_);}
	.st26{fill:url(#SVGID_15_);}
	.st27{fill:#FFC1A6;}
	.st28{fill:url(#SVGID_16_);}
	.st29{fill:#FF6700;}
	.st30{fill:#EEA184;}
	.st31{fill:none;stroke:#000000;stroke-width:0.6283;stroke-linecap:round;stroke-linejoin:round;stroke-miterlimit:10;}
	.st32{clip-path:url(#SVGID_18_);fill:#FF74C7;}
	.st33{clip-path:url(#SVGID_20_);fill:#FFFFFF;}
	.st34{fill:url(#SVGID_21_);}
	.st35{clip-path:url(#SVGID_23_);}
	.st36{fill:url(#SVGID_24_);}
	.st37{fill:#F0B292;}
	.st38{fill:url(#SVGID_25_);}
	.st39{fill:url(#SVGID_26_);}
	.st40{fill:#F4A26D;}
	.st41{fill:#F7BC9A;}
	.st42{fill:none;stroke:#1D0300;stroke-width:0.5297;stroke-linecap:round;stroke-linejoin:round;stroke-miterlimit:10;}
	.st43{fill:#FBFBFA;}
	.st44{fill:#E08A6D;}
	.st45{fill:#1D0300;}
	.st46{fill:#FF5E85;}
	.st47{fill:none;stroke:#FFFFFF;stroke-width:0.7755;stroke-linecap:round;stroke-linejoin:round;stroke-miterlimit:10;}
	.st48{fill:url(#SVGID_27_);}
	.st49{fill:url(#SVGID_28_);}
	.st50{fill:url(#SVGID_29_);}
	.st51{clip-path:url(#SVGID_31_);}
	.st52{fill:url(#SVGID_32_);}
	.st53{fill:url(#SVGID_33_);}
	.st54{fill:url(#SVGID_34_);}
	.st55{fill:url(#SVGID_35_);}
	.st56{fill:#1E2770;}
	.st57{fill:none;stroke:#000000;stroke-width:0.5948;stroke-linecap:round;stroke-linejoin:round;stroke-miterlimit:10;}
	.st58{clip-path:url(#SVGID_37_);}
	.st59{fill:none;stroke:#000000;stroke-width:0.6324;stroke-linecap:round;stroke-linejoin:round;stroke-miterlimit:10;}
	.st60{fill:none;stroke:#FFCD3B;stroke-width:0.7339;stroke-linecap:round;stroke-miterlimit:10;}
	.st61{fill:url(#SVGID_38_);}
	.st62{clip-path:url(#SVGID_40_);}
	.st63{fill:url(#SVGID_41_);}
	.st64{fill:url(#SVGID_42_);}
	.st65{fill:url(#SVGID_43_);}
	.st66{fill:url(#SVGID_44_);}
	.st67{fill:url(#SVGID_45_);}
	.st68{fill:#9A3413;}
	.st69{clip-path:url(#SVGID_47_);fill:#FF74C7;}
	.st70{clip-path:url(#SVGID_49_);fill:#FFFFFF;}
	.st71{fill:#2954E7;}
	.st72{fill:url(#SVGID_50_);}
	.st73{clip-path:url(#SVGID_52_);}
	.st74{fill:url(#SVGID_53_);}
	.st75{fill:url(#SVGID_54_);}
	.st76{fill:url(#SVGID_55_);}
	.st77{fill:none;stroke:#000000;stroke-width:0.6096;stroke-linecap:round;stroke-linejoin:round;stroke-miterlimit:10;}
	.st78{fill:none;stroke:#000000;stroke-width:0.9477;stroke-linecap:round;stroke-linejoin:round;stroke-miterlimit:10;}
</style>
<title>video_conference</title>
<g id="a1564cff-f165-45d5-b330-5a55512dec45">
	<path class="st0" d="M830,375.4c-34.1,50.9-27.7,120.2-12.7,174.9c5,18.3,10.8,37.6,6.5,58.1c-5.2,25-24.4,44.7-43.7,56
		c-35.3,20.5-75.6,19.9-104.9-1.5c-25.3-18.5-41.3-29.6-67.2-47.1c-43.3-29.3-102.6-11.5-154.2,15.8c-36.5,19.3-77.3,22.7-111,8.8
		c-23.7-9.8-38.5-37.4-45.4-67.4c-3.3-14.5-5.4-30.3-13-41.4c-4.5-6.6-10.8-11-17.3-14.6C208,484.1,128,511.6,71,474.4
		c-38.6-25.1-60.4-77-67.6-132.5S2,227.1,9.4,168.6c5.3-41.6,12.4-86,36.1-119.8C70.5,13,110-3,144.3,0.4s64.1,23.4,89.8,47.9
		c32.1,30.6,61,69.7,102.6,79.6c28.3,6.7,59.2-1.1,89.3-5.5c50.2-7.4,99.8-5.3,148.9-2.5c47.1,2.7,94.4,5.9,138.3,21.2
		c31,10.8,54.9,33.3,83.8,48c18.9,9.5,40.2,10.8,57.8,23.5c21.7,15.7,40.4,44.6,31.8,81.2C878.2,328.6,848.1,348.4,830,375.4z"/>
	<rect x="30.5" y="66.3" class="st1" width="816.9" height="523.2"/>
	
		<linearGradient id="SVGID_1_" gradientUnits="userSpaceOnUse" x1="30.1" y1="-340.75" x2="847" y2="-340.75" gradientTransform="matrix(1 0 0 1 0 424)">
		<stop  offset="0" style="stop-color:#FF736B"/>
		<stop  offset="1" style="stop-color:#FF2260"/>
	</linearGradient>
	<rect x="30.1" y="65.9" class="st2" width="816.9" height="34.7"/>
	<circle class="st3" cx="55.9" cy="83.6" r="6.4"/>
	<circle class="st3" cx="80.3" cy="83.6" r="6.4"/>
	<circle class="st3" cx="104.7" cy="83.6" r="6.4"/>
	<path class="st4" d="M266.9,575.5h-1l0.5-0.9C266.6,574.9,266.8,575.2,266.9,575.5z"/>
	<g>
		<path class="st3" d="M824,137.4V556c0,4.6-4,8.3-8.9,8.3H63.8c-4.9,0-8.9-3.7-8.9-8.3V137.4c0-4.6,4-8.3,8.9-8.3h751.3
			C820,129.2,824,132.9,824,137.4z"/>
	</g>
	<g>
		<g>
			
				<linearGradient id="SVGID_2_" gradientUnits="userSpaceOnUse" x1="687.55" y1="523.1948" x2="687.55" y2="138.8206" gradientTransform="matrix(1 0 0 -1 0 680)">
				<stop  offset="0" style="stop-color:#FF736B"/>
				<stop  offset="0.5053" style="stop-color:#FF4A66"/>
				<stop  offset="0.7674" style="stop-color:#FF3563"/>
				<stop  offset="1" style="stop-color:#FF2260"/>
			</linearGradient>
			<path class="st5" d="M792.7,335.9H582.5c-4.4,0-8-3.6-8-8V160.7c0-4.4,3.6-8,8-8h210.1c4.4,0,8,3.6,8,8v167.2
				C800.6,332.3,797.1,335.9,792.7,335.9z"/>
			<g>
				<g>
					<defs>
						<path id="SVGID_3_" d="M792.7,335.9H582.5c-4.4,0-8-3.6-8-8V160.7c0-4.4,3.6-8,8-8h210.1c4.4,0,8,3.6,8,8v167.2
							C800.6,332.3,797.1,335.9,792.7,335.9z"/>
					</defs>
					<clipPath id="SVGID_4_">
						<use xlink:href="#SVGID_3_"  style="overflow:visible;"/>
					</clipPath>
					<g class="st6">
						<g>
							<g>
								
									<linearGradient id="SVGID_5_" gradientUnits="userSpaceOnUse" x1="677.1805" y1="254.8451" x2="677.1805" y2="436.3803" gradientTransform="matrix(1 0 0 -1 0 680)">
									<stop  offset="0" style="stop-color:#553EFF"/>
									<stop  offset="1" style="stop-color:#00F0FF"/>
								</linearGradient>
								<path class="st7" d="M713.5,266.5c12.9,5.9,17.2,22.3,8.6,33.7c-0.9,1.2-2,2.5-3.1,3.8c-11,12.9-40,39.1-57.7,54.8
									c-8.1,7.2-20.4,6.7-27.9-1.1l0,0c-7.4-7.7-7.5-20-0.2-27.8c0,0,33.9-39.4,54.7-58.4C695,265,704.8,262.5,713.5,266.5
									L713.5,266.5z"/>
								<g>
									<g>
										<g>
											<g>
												<path class="st8" d="M615.2,279.5c1.5-1.1,2.6-2.6,3.3-4.3l1.9-4.7c1.5-3.8,1.2-7.1,1.1-11.6l-0.3-9.3
													c-0.2-1.7-1.2-3-2.9-2.5l0,0c-1.4,0.4-2.4,1.8-2.6,3.2l-1.6,7.5l-9.5-24.3c-0.5-1.2-2.5-1.8-3.6-1.2l0,0
													c-0.9,0.5-1.7,1.7-1.4,2.7l4.8,15.2l-8.3-16.5c-0.5-1.2-2.4-1.6-3.5-1l0,0c-0.9,0.6-1.4,2.2-1,3.1l8.4,18.1l-9.4-13
													c-0.8-1.1-2.4-1.2-3.4-0.2l-0.2,0.2c-0.6,0.7-0.7,1.7-0.2,2.5l9.5,15.7l-6.9-8.8c-1-1.2-2.9-1-3.6,0.4l0,0
													c-0.3,0.7-0.3,1.5,0.1,2.1l15.2,23.9C604.2,281.7,610.6,282.9,615.2,279.5L615.2,279.5z"/>
											</g>
											<g class="st9">
												<path class="st10" d="M607.3,267.8C607.3,267.8,607.2,267.8,607.3,267.8c-0.3,0-0.5-0.3-0.4-0.5c1-5.6,6.7-9.6,7-9.8
													c0.2-0.1,0.5-0.1,0.6,0.1s0.1,0.5-0.1,0.6c-0.1,0-5.6,4-6.6,9.2C607.7,267.6,607.5,267.8,607.3,267.8z"/>
											</g>
										</g>
										<polygon class="st8" points="603.6,278.5 610,299.4 627.7,291.1 615.6,271.3 										"/>
									</g>
									<g>
										
											<linearGradient id="SVGID_6_" gradientUnits="userSpaceOnUse" x1="632.1414" y1="254.8451" x2="632.1414" y2="436.3803" gradientTransform="matrix(1 0 0 -1 0 680)">
											<stop  offset="0" style="stop-color:#553EFF"/>
											<stop  offset="1" style="stop-color:#00F0FF"/>
										</linearGradient>
										<path class="st11" d="M630.5,278.5l-30.7,18.6l31,57.3c5,8.5,16.1,11.2,24.4,6l0,0c7.9-5,11.9-15.2,7.4-23.3L630.5,278.5z
											"/>
										<g class="st9">
											<path class="st10" d="M657.5,328.2c-0.2,0-0.3-0.1-0.4-0.2l-8.2-15c-0.1-0.2,0-0.5,0.2-0.6s0.5,0,0.6,0.2l8.2,15
												c0.1,0.2,0,0.5-0.2,0.6C657.7,328.1,657.6,328.2,657.5,328.2z"/>
										</g>
									</g>
								</g>
							</g>
							<g>
								<g>
									
										<linearGradient id="SVGID_7_" gradientUnits="userSpaceOnUse" x1="723.2783" y1="254.8451" x2="723.2783" y2="436.3803" gradientTransform="matrix(1 0 0 -1 0 680)">
										<stop  offset="0" style="stop-color:#553EFF"/>
										<stop  offset="1" style="stop-color:#00F0FF"/>
									</linearGradient>
									<path class="st12" d="M716.4,260.2c0,0,20.9,3.4,37.5,12.5c4.2,2.3,6.8,6.6,7.3,11.4l9,88.8l-79.4-1.8l-14.2-78.9
										c-0.8-4.4,0.4-8.8,3.2-12.2c5.1-6,13.5-14.9,20.5-17.3L716.4,260.2z"/>
									<g>
										<g>
											<path class="st8" d="M725.7,262.2c0,0-6.2-1.9-9.3-2l-15.9,2.5c0,0-3.5,1.1-7,4l8.6,20.5L725.7,262.2z"/>
											<polygon class="st3" points="715.7,272.8 696.3,273.7 702,287.2 											"/>
										</g>
										<g>
											
												<linearGradient id="SVGID_8_" gradientUnits="userSpaceOnUse" x1="719.1" y1="416.7642" x2="719.1" y2="381.917" gradientTransform="matrix(1 0 0 -1 0 680)">
												<stop  offset="0" style="stop-color:#FE3EFF"/>
												<stop  offset="1" style="stop-color:#423EFF"/>
											</linearGradient>
											<path class="st13" d="M725.7,262.2c0,0,7.1,1.8,10.8,3.1l-34.8,33l0.3-11.1L725.7,262.2z"/>
											
												<linearGradient id="SVGID_9_" gradientUnits="userSpaceOnUse" x1="694.95" y1="416.7642" x2="694.95" y2="381.917" gradientTransform="matrix(1 0 0 -1 0 680)">
												<stop  offset="0" style="stop-color:#FE3EFF"/>
												<stop  offset="1" style="stop-color:#423EFF"/>
											</linearGradient>
											<path class="st14" d="M702,287.2l-8.6-20.5c0,0-3.2,2.4-5.5,4.7l13.8,26.8L702,287.2z"/>
										</g>
									</g>
								</g>
								<g>
									<g class="st9">
										<path class="st10" d="M678.7,308.1c0,0-4,10.8-3.8,36.8l8.1-5.6C679,327.2,678.7,308.1,678.7,308.1z"/>
									</g>
								</g>
							</g>
							<g>
								
									<linearGradient id="SVGID_10_" gradientUnits="userSpaceOnUse" x1="765.35" y1="254.8451" x2="765.35" y2="436.3803" gradientTransform="matrix(1 0 0 -1 0 680)">
									<stop  offset="0" style="stop-color:#553EFF"/>
									<stop  offset="1" style="stop-color:#00F0FF"/>
								</linearGradient>
								<path class="st15" d="M751.1,271.2c0,0,10.2,3.3,19.2,22.2c9.9,20.9,29.7,86.4,29.7,86.4l-33.4,12l-35.9-85.5L751.1,271.2z"
									/>
								<g>
									<g class="st9">
										<path class="st10" d="M736.9,317.6c0,0-0.6,27.3,8.7,54.8l13,0.2C758.6,372.7,745.6,342.7,736.9,317.6z"/>
									</g>
								</g>
							</g>
						</g>
						<g>
							<g>
								<g>
									<ellipse cx="728.2" cy="239" rx="17.7" ry="17.7"/>
									
										<ellipse transform="matrix(0.2309 -0.973 0.973 0.2309 330.8658 865.8643)" class="st16" cx="713.1" cy="223.6" rx="16.1" ry="16.1"/>
								</g>
								<path d="M731.4,206.8c1.6,17.3-11.7,32.6-29.8,34.3c-18.1,1.7-34.1-10.9-35.7-28.2c-1.6-17.3,11.9-31,30-32.7
									C714,178.6,729.8,189.6,731.4,206.8z"/>
								<path d="M705.6,185.1c0,0-31.2-19.5-44.7-2.6c-15.9,19.9,28.5,49.2,50,27.2L705.6,185.1z"/>
								<path class="st17" d="M677.5,226.2c-0.9,4.6-5.4,7.6-10,6.6c-4.6-0.9-7.6-5.4-6.6-10c0.9-4.6,5.4-7.6,10-6.6
									C675.5,217.1,678.4,221.6,677.5,226.2z"/>
								<polygon class="st8" points="694.3,240.9 697.3,267.4 721.8,265.8 710,220 								"/>
								<path class="st8" d="M668.6,195.7c-2,2-3.1,4.7-3.4,7.5c-0.9,8.3-2.7,22.9,1,31.2c4.8,10.8,14.6,17.9,29.1,13.7
									c0,0,17.4-3.4,19-26.1C716.6,186,685.4,178.5,668.6,195.7z"/>
								<g>
									<path class="st18" d="M674.5,223.9l-0.7,2.8c-0.1,0.5,0.3,0.9,0.7,1l2.1,0.2"/>
									<path d="M687.3,202.7c0,0-7.3-1-7.6,2.3c0,0-0.1,2.3,6.3,3c6.4,0.8,8.9,0.5,9.6-1.6C696.3,204.4,690.7,202.9,687.3,202.7z"
										/>
									<path d="M665.8,205.3c0,0,4.8-2.5,6.2-0.1c0,0,0.9,1.6-3.3,3.7c-3.1,1.5-4.4,1.3-5.1,0.2
										C662.8,207.7,663.9,206.1,665.8,205.3z"/>
									<path class="st3" d="M687.9,232.3h-13.5c0,0,1.4,4.7,6.1,4.6C686.1,236.8,687.9,232.3,687.9,232.3z"/>
									<g>
										<path class="st19" d="M678.9,218.6c0.3,5.5,4.9,9.8,10.3,9.5c5.4-0.3,9.6-4.9,9.3-10.5c-0.3-5.5-4.9-9.8-10.3-9.5
											C682.8,208.4,678.6,213.1,678.9,218.6z"/>
										<path class="st19" d="M657,219.6c0.3,5.3,4.2,9.4,8.8,9.2s8.2-4.7,7.9-10s-4.2-9.4-8.8-9.2
											C660.3,209.8,656.8,214.3,657,219.6z"/>
										<path class="st19" d="M678.9,218.6c0,0-2.3-2.4-5.1,0.2"/>
										<line class="st19" x1="698.5" y1="217.7" x2="707.8" y2="218.8"/>
									</g>
									<path class="st20" d="M691.1,218.1c0,0-4.8-2.2-8.3,0"/>
									<path class="st21" d="M665.6,218.1c0,0,3.4-2.2,5.8,0"/>
								</g>
								<path d="M709.1,221.2c0,0-14.3-22.4,0.2-28.3l10.6,10.7l2.7,8.7l0.7,7.2L709.1,221.2z"/>
								<g>
									<path class="st8" d="M725,223.9c-1,4.7-5.6,7.8-10.3,6.8s-7.8-5.6-6.8-10.3s5.6-7.8,10.3-6.8
										C722.9,214.6,725.9,219.2,725,223.9z"/>
									<path class="st18" d="M720.6,220.1c0,0-6.8-1.6-7.4,5.8"/>
									<path class="st22" d="M716.2,230.9c0,1.5-1.2,2.6-2.6,2.6s-2.6-1.2-2.6-2.6c0-1.5,1.2-2.6,2.6-2.6S716.2,229.5,716.2,230.9
										z"/>
								</g>
								<polygon class="st17" points="695.1,248.2 706.8,244.4 696.4,259 								"/>
								<path d="M664,191.4c0,0,6.6,11.7,51.1,5.8l-29.5-15.9C656.6,185.1,664,191.4,664,191.4z"/>
							</g>
						</g>
					</g>
				</g>
			</g>
		</g>
		<g>
			
				<linearGradient id="SVGID_11_" gradientUnits="userSpaceOnUse" x1="190.55" y1="523.1948" x2="190.55" y2="138.8206" gradientTransform="matrix(1 0 0 -1 0 680)">
				<stop  offset="0" style="stop-color:#FF736B"/>
				<stop  offset="0.5053" style="stop-color:#FF4A66"/>
				<stop  offset="0.7674" style="stop-color:#FF3563"/>
				<stop  offset="1" style="stop-color:#FF2260"/>
			</linearGradient>
			<path class="st23" d="M295.6,540.2H85.5c-4.4,0-8-3.6-8-8V365.1c0-4.4,3.6-8,8-8h210.1c4.4,0,8,3.6,8,8v167.2
				C303.6,536.7,300,540.2,295.6,540.2z"/>
			<g>
				<g>
					<defs>
						<path id="SVGID_12_" d="M295.6,540.2H85.5c-4.4,0-8-3.6-8-8V365.1c0-4.4,3.6-8,8-8h210.1c4.4,0,8,3.6,8,8v167.2
							C303.6,536.7,300,540.2,295.6,540.2z"/>
					</defs>
					<clipPath id="SVGID_13_">
						<use xlink:href="#SVGID_12_"  style="overflow:visible;"/>
					</clipPath>
					<g class="st24">
						<g>
							
								<linearGradient id="SVGID_14_" gradientUnits="userSpaceOnUse" x1="223.05" y1="215.3862" x2="223.05" y2="117.1107" gradientTransform="matrix(1 0 0 -1 0 680)">
								<stop  offset="0" style="stop-color:#FE3EFF"/>
								<stop  offset="1" style="stop-color:#423EFF"/>
							</linearGradient>
							<path class="st25" d="M221,485.5c0,0,5.8,4.4,8.5,24.3c2.7,19.9,8.7,60.8,8.7,60.8l7.4,23.8l-35,9l-10.1-48.3L221,485.5z"/>
							<g>
								
									<linearGradient id="SVGID_15_" gradientUnits="userSpaceOnUse" x1="175.8717" y1="215.3862" x2="175.8717" y2="117.1107" gradientTransform="matrix(1 0 0 -1 0 680)">
									<stop  offset="0" style="stop-color:#FE3EFF"/>
									<stop  offset="1" style="stop-color:#423EFF"/>
								</linearGradient>
								<path class="st26" d="M184.6,465.7c0,0-33.6,7.5-50.2,16.7c-4.2,2.3-6.8,6.6-7.3,11.4l3.7,84.7l79.4-1.8l14.2-78.9
									c0.8-4.4-0.4-8.8-3.2-12.2c-5.1-6-13.5-14.9-20.5-17.3L184.6,465.7z"/>
								<g>
									<g>
										<path class="st27" d="M175.2,467.7c0,0,6.2-1.9,9.3-2l15.9,2.5c0,0,3.5,1.1,7,4l-8.6,20.5L175.2,467.7z"/>
										<polygon class="st3" points="185.3,478.3 204.6,479.2 198.9,492.7 										"/>
									</g>
									<g>
										<path class="st22" d="M175.2,467.7c0,0-7,1.9-10.7,3.2l34.7,32.9l-0.3-11.1L175.2,467.7z"/>
										<path class="st22" d="M198.9,492.7l8.6-20.5c0,0,3.2,2.4,5.5,4.7l-13.8,26.8L198.9,492.7z"/>
									</g>
								</g>
								<g class="st9">
									<path class="st10" d="M205,577.2h-0.1c-0.2-0.1-0.4-0.3-0.3-0.5l14.9-54.7c0.1-0.2,0.3-0.4,0.5-0.3
										c0.2,0.1,0.4,0.3,0.3,0.5l-14.9,54.7C205.4,577,205.2,577.2,205,577.2z"/>
								</g>
							</g>
							<g>
								
									<linearGradient id="SVGID_16_" gradientUnits="userSpaceOnUse" x1="120.55" y1="215.3862" x2="120.55" y2="117.1107" gradientTransform="matrix(1 0 0 -1 0 680)">
									<stop  offset="0" style="stop-color:#FE3EFF"/>
									<stop  offset="1" style="stop-color:#423EFF"/>
								</linearGradient>
								<path class="st28" d="M134.8,482.2c0,0-10.2,3.3-19.2,22.2c-9.9,20.9-29.7,86.4-29.7,86.4l33.4,12l35.9-85.5L134.8,482.2z"
									/>
								<g class="st9">
									<g>
										<path class="st10" d="M130.7,578.6c-0.1,0-0.1,0-0.2,0c-0.2-0.1-0.3-0.3-0.3-0.6l22.6-58c0.1-0.2,0.3-0.3,0.6-0.3
											c0.2,0.1,0.3,0.3,0.3,0.6l-22.6,58C131,578.5,130.8,578.6,130.7,578.6z"/>
									</g>
									<g>
										<path class="st10" d="M152.2,523.4l-10,54.5l-13,0.2C129.3,578.1,143.6,548.4,152.2,523.4z"/>
									</g>
								</g>
							</g>
						</g>
						<g>
							<g>
								<path class="st29" d="M194.5,381.3c0,0-16.8-2.2-24.6,12.1c-6.8,12.4,7.5,33.4,7.5,33.4L194.5,381.3z"/>
								<path class="st29" d="M227.8,391.2c0,0,6.8-3.1,8.4,6.3c1.7,9.9-10.3,15.8-10.3,15.8L227.8,391.2z"/>
								<path class="st29" d="M187.8,384.1c0,0,18.2-16.2,39.2-11.3c11.5,2.7,12.7,14.9,4,23.8c-1.7,1.8-2.7,2.3-5.6,4L187.8,384.1z
									"/>
								
									<ellipse transform="matrix(1.386108e-02 -0.9999 0.9999 1.386108e-02 -209.9712 607.1764)" class="st29" cx="202.8" cy="410" rx="29.8" ry="30.8"/>
								<g>
									<path class="st30" d="M238.7,428.9c-0.8,4.9-6.3,8.7-12.1,8.5c-5.9-0.3-9.9-4.5-9.1-9.4c0.8-4.9,6.3-8.7,12.1-8.5
										C235.5,419.7,239.6,423.9,238.7,428.9z"/>
								</g>
								<polygon class="st27" points="207,445.6 205,472.7 177.7,468.7 187.1,428.2 								"/>
								<polygon class="st30" points="205.7,463.8 191.7,449.7 206.6,451.8 								"/>
								<g>
									<g>
										<path id="XMLID_13_" class="st27" d="M219.9,387.5c8.4,1.5,13.6,11.6,14,20c0.5,9.7,2,23.4-1.5,30.6
											c-3.7,7.8-10,13.2-18.5,14.1c-8.3,0.9-16.4-3.1-21.3-9.7c-3.2-4.4-10.5-10.2-13.9-20C169.2,394.9,200.1,384,219.9,387.5z"
											/>
									</g>
								</g>
								<g>
									<path d="M227.8,419.1c0.2,1.1,1.2,1.9,2.3,1.7s1.9-1.2,1.7-2.3c-0.2-1.1-1.2-1.9-2.3-1.7
										C228.5,416.9,227.7,418,227.8,419.1z"/>
									<path d="M210.6,418.6c0.2,1.1,1.2,1.9,2.3,1.7c1.1-0.2,1.9-1.2,1.7-2.3c-0.2-1.1-1.2-1.9-2.3-1.7S210.4,417.5,210.6,418.6z
										"/>
									<path class="st31" d="M223.7,422l1.6,4.9c0.1,0.6,0.2,1.3-0.8,1.8l-2.4,0.7"/>
									<path class="st29" d="M209.5,403.8c0,0,4.5-1,6.4,0.5c0.9,0.7,0.9,1.9,0.1,2.7c-0.7,0.7-2.1,1.6-5.1,2.2
										c-5.9,1.2-8.3,1.1-9.1-1.1C201.2,406,206.3,404.2,209.5,403.8z"/>
									<path class="st29" d="M233.2,404.7c0,0-5.1-2.5-6.4,0.3c0,0-0.9,1.9,3.6,3.9c3.3,1.5,4.7,1.1,5.3-0.1
										C236.4,407.3,235.2,405.5,233.2,404.7z"/>
									<g>
										<g>
											<path id="XMLID_5_" d="M225.9,433.4l-15.3-1.3c0,0-0.3,6.6,6.8,7.3C224.4,440.1,225.9,433.4,225.9,433.4z"/>
										</g>
										<g>
											<defs>
												<path id="SVGID_17_" d="M225.9,433.4l-15.3-1.3c0,0-0.3,6.6,6.8,7.3C224.4,440.1,225.9,433.4,225.9,433.4z"/>
											</defs>
											<clipPath id="SVGID_18_">
												<use xlink:href="#SVGID_17_"  style="overflow:visible;"/>
											</clipPath>
											<path class="st32" d="M209,442.9c1,2.8,4.1,4.3,6.9,3.3c2.8-1,4.3-4.1,3.3-6.9s-4.1-4.3-6.9-3.3
												C209.5,437,208,440.1,209,442.9z"/>
										</g>
										<g>
											<defs>
												<path id="SVGID_19_" d="M225.9,433.4l-15.3-1.3c0,0-0.3,6.6,6.8,7.3C224.4,440.1,225.9,433.4,225.9,433.4z"/>
											</defs>
											<clipPath id="SVGID_20_">
												<use xlink:href="#SVGID_19_"  style="overflow:visible;"/>
											</clipPath>
											<polygon class="st33" points="226.7,435.6 209.4,433.9 209.6,431 227.1,432 											"/>
										</g>
									</g>
								</g>
								<path class="st29" d="M190.9,424.6h2.2c1.3,0,2.3-1.1,2.2-2.4l-1.6-16.8c0,0,15.6-10.1,5.5-22.7c0,0-18.7-1.1-23.8,18.2V421
									L190.9,424.6z"/>
								<g>
									<path class="st27" d="M172.6,423.4c-1.2,4.8,2,10.1,7.2,12c5.2,1.8,10.4-0.5,11.7-5.3c1.2-4.8-2-10.1-7.2-12
										S173.9,418.6,172.6,423.4z"/>
									<path class="st31" d="M177.7,424c0,0,5.7-1.2,8.6,5"/>
								</g>
							</g>
						</g>
					</g>
				</g>
			</g>
		</g>
		<g>
			
				<linearGradient id="SVGID_21_" gradientUnits="userSpaceOnUse" x1="439.05" y1="523.1948" x2="439.05" y2="138.8206" gradientTransform="matrix(1 0 0 -1 0 680)">
				<stop  offset="0" style="stop-color:#FF736B"/>
				<stop  offset="0.5053" style="stop-color:#FF4A66"/>
				<stop  offset="0.7674" style="stop-color:#FF3563"/>
				<stop  offset="1" style="stop-color:#FF2260"/>
			</linearGradient>
			<path class="st34" d="M544.1,335.9H334c-4.4,0-8-3.6-8-8V160.7c0-4.4,3.6-8,8-8h210.1c4.4,0,8,3.6,8,8v167.2
				C552.1,332.3,548.5,335.9,544.1,335.9z"/>
			<g>
				<g>
					<g>
						<defs>
							<path id="SVGID_22_" d="M544.1,335.9H334c-4.4,0-8-3.6-8-8V160.7c0-4.4,3.6-8,8-8h210.1c4.4,0,8,3.6,8,8v167.2
								C552.1,332.3,548.5,335.9,544.1,335.9z"/>
						</defs>
						<clipPath id="SVGID_23_">
							<use xlink:href="#SVGID_22_"  style="overflow:visible;"/>
						</clipPath>
						<g class="st35">
							<g>
								<g>
									
										<linearGradient id="SVGID_24_" gradientUnits="userSpaceOnUse" x1="441.5" y1="405.5136" x2="441.5" y2="313.2771" gradientTransform="matrix(1 0 0 -1 0 680)">
										<stop  offset="0" style="stop-color:#FE3EFF"/>
										<stop  offset="1" style="stop-color:#423EFF"/>
									</linearGradient>
									<path class="st36" d="M434.7,276.5l-31.1,11.2c-5.7,2.1-9.5,7.4-9.6,13.4l-1.6,95.4h98.2l-1.6-96
										c-0.1-6.2-4.1-11.6-9.9-13.6l-31.3-10.5h-13.1V276.5z"/>
									<g>
										<polygon class="st37" points="422.4,280.9 434.7,276.5 447.7,276.5 460,280.6 441.7,301.8 										"/>
										<polygon class="st3" points="430.4,289.5 452.3,289.5 441.7,301.8 										"/>
										<polygon class="st22" points="460,280.6 468.8,283.5 441.7,311.3 441.7,301.8 										"/>
										<polygon class="st22" points="423.1,280.6 414.6,283.5 441.7,311.3 441.7,301.8 										"/>
									</g>
								</g>
								<g>
									
										<linearGradient id="SVGID_25_" gradientUnits="userSpaceOnUse" x1="390.2" y1="405.5136" x2="390.2" y2="313.2771" gradientTransform="matrix(1 0 0 -1 0 680)">
										<stop  offset="0" style="stop-color:#FE3EFF"/>
										<stop  offset="1" style="stop-color:#423EFF"/>
									</linearGradient>
									<path class="st38" d="M403.6,287.7c0,0-15.4,3.1-21.2,29.3c-5.8,26.2-6.8,79.5-6.8,79.5h29.2L403.6,287.7z"/>
									<g class="st9">
										<path class="st10" d="M399.3,396.9L399.3,396.9c-0.2,0-0.4-0.2-0.4-0.4l4.9-75.9c0-0.2,0.2-0.4,0.4-0.4
											c0.2,0,0.4,0.2,0.4,0.4l-4.9,75.9C399.7,396.8,399.5,396.9,399.3,396.9z"/>
									</g>
								</g>
								<g>
									
										<linearGradient id="SVGID_26_" gradientUnits="userSpaceOnUse" x1="494" y1="405.5136" x2="494" y2="313.2771" gradientTransform="matrix(1 0 0 -1 0 680)">
										<stop  offset="0" style="stop-color:#FE3EFF"/>
										<stop  offset="1" style="stop-color:#423EFF"/>
									</linearGradient>
									<path class="st39" d="M480.6,287.7c0,0,15.4,3.1,21.2,29.3c5.8,26.2,6.8,79.5,6.8,79.5h-29.2L480.6,287.7z"/>
									<g class="st9">
										<path class="st10" d="M480,396.9c-0.2,0-0.4-0.2-0.4-0.4l-4.9-75.9c0-0.2,0.1-0.4,0.4-0.4c0.2,0,0.4,0.1,0.4,0.4l4.9,75.9
											C480.4,396.7,480.2,396.9,480,396.9L480,396.9z"/>
									</g>
								</g>
							</g>
							<g>
								<path class="st40" d="M444,164.9"/>
								<path class="st41" d="M466.9,192.9"/>
								<g>
									<path class="st29" d="M491,236.1c-2.6-9.8-3.5-8.1-12.2-27.6c-5.2-11.7-9.2-16.4-11.6-18.2l0,0c0,0-8.8-9.5-24.5-9.5
										c-15,0-23.7,9-23.7,9l0,0c-2.3,1.5-6.6,5.9-12.3,18.7c-8.7,19.5-9.6,17.8-12.2,27.6s0.7,27.9,20.9,31.5
										c0,0-2.6-2.6-3.5-6.8c0,0,8.5,11.5,20,10.8h21.8c11.5,0.7,20-10.8,20-10.8c-0.9,4.2-3.5,6.8-3.5,6.8
										C490.3,264,493.6,245.9,491,236.1z"/>
									<g>
										<g>
											<path class="st37" d="M423.8,232.4c0,4.8-4,8.7-8.8,8.6s-8.7-4-8.6-8.8c0-4.8,4-8.7,8.8-8.6S423.8,227.6,423.8,232.4z"/>
											<path class="st42" d="M411.7,231.3c0,0,3.3-1.3,5.6,4.2"/>
										</g>
										<g>
											<circle class="st43" cx="415" cy="242.1" r="2.2"/>
										</g>
									</g>
									<g>
										<g>
											<path class="st37" d="M460.5,232.4c0,4.8,4,8.7,8.8,8.6s8.7-4,8.6-8.8c0-4.8-4-8.7-8.8-8.6S460.4,227.6,460.5,232.4z"/>
											<path class="st42" d="M472.5,231.3c0,0-2.8-1.3-5.6,4.2"/>
										</g>
										<g>
											<path class="st43" d="M467,242.1c0,1.2,1,2.2,2.2,2.2s2.2-1,2.2-2.2s-1-2.2-2.2-2.2C468.1,239.8,467,240.8,467,242.1z"/>
										</g>
									</g>
									<polygon class="st37" points="432.3,253.3 429.5,287.8 453.7,287.8 450,253.2 									"/>
									<polygon class="st44" points="430.9,253.9 451.4,266.7 449.7,251.4 433.6,250.8 									"/>
									<path class="st37" d="M418.9,201.2c-3.2,4.7-4.5,10.5-4,16.2c1,11.9,5.7,38.8,25.9,40c28.2,1.7,29.1-44.7,29.1-44.7
										s0-22.1-27.7-22.4C429.5,190.3,422.6,195.7,418.9,201.2z"/>
									<g>
										<path class="st45" d="M433.5,224c0,1.2-1.1,2.2-2.3,2.1s-2.2-1.1-2.1-2.3c0-1.2,1.1-2.2,2.3-2.1
											C432.6,221.8,433.5,222.8,433.5,224z"/>
										<path class="st45" d="M455.5,224c0,1.2-1.1,2.2-2.3,2.1c-1.2,0-2.2-1.1-2.1-2.3c0-1.2,1.1-2.2,2.3-2.1
											C454.6,221.8,455.5,222.8,455.5,224z"/>
										<path class="st42" d="M440.5,228.2v3.7c0,0.9,0.7,1.1,1.6,1.2h1.1"/>
										<g>
											<path class="st46" d="M433.1,239c0,0,8.9-3.2,18,0l-9.2,2.6L433.1,239z"/>
											<path class="st46" d="M433.1,239c0,0,1.2,6.8,9,6.8s9-6.8,9-6.8H433.1z"/>
											<path class="st43" d="M433.1,239h18c0,0-1.4,4.2-9.2,4.2C435.7,243.2,433.1,239,433.1,239z"/>
										</g>
										<path d="M455.4,209.1c0,0-7.4-1.1-7.7,2.4c0,0-0.1,2.3,6.4,3.1s9.1,0.5,9.8-1.6C464.5,210.8,458.9,209.3,455.4,209.1z"/>
										<path d="M428.9,209.1c0,0,7.4-1.1,7.7,2.4c0,0,0.1,2.3-6.4,3.1s-9.1,0.5-9.8-1.6C419.8,210.8,425.4,209.3,428.9,209.1z"/>
										<g>
											<g>
												<path class="st47" d="M438.8,224.5c0,5.7-4.6,10.2-10.2,10.2c-5.7,0-10.2-4.6-10.2-10.2c0-5.7,4.6-10.2,10.2-10.2
													C434.2,214.3,438.8,218.9,438.8,224.5z"/>
												<path class="st47" d="M464.8,224.5c0,5.7-4.6,10.2-10.2,10.2c-5.7,0-10.2-4.6-10.2-10.2c0-5.7,4.6-10.2,10.2-10.2
													C460.2,214.3,464.8,218.9,464.8,224.5z"/>
												<path class="st47" d="M438.8,224.5c0,0,2.5-1.9,5.6,0"/>
											</g>
										</g>
									</g>
									<path class="st29" d="M461.4,190.6c0,0-28,21.3-51.4,17.3c0,0,7.9-22.3,28.6-23.7L461.4,190.6z"/>
									<path class="st29" d="M453.3,184.4c0,0-2.6,22.6,23.3,29.3C476.5,213.6,464,185.2,453.3,184.4z"/>
									<polygon class="st29" points="409.3,223.2 416.7,229.8 415,219.8 									"/>
									<polygon class="st29" points="475,223.2 467.6,229.8 469.4,219.8 									"/>
								</g>
							</g>
						</g>
					</g>
				</g>
				<g>
					<g>
						<g>
							
								<linearGradient id="SVGID_27_" gradientUnits="userSpaceOnUse" x1="472.9005" y1="530.9495" x2="564.009" y2="439.841" gradientTransform="matrix(1 0 0 -1 0 680)">
								<stop  offset="0" style="stop-color:#00F0FF"/>
								<stop  offset="1" style="stop-color:#553EFF"/>
							</linearGradient>
							<path class="st48" d="M560,234.7h-53.4c-3.3,0-5.9-2.7-5.9-5.9v-38.7c0-3.3,2.7-5.9,5.9-5.9H560c3.3,0,5.9,2.7,5.9,5.9v38.7
								C565.9,232,563.2,234.7,560,234.7z"/>
						</g>
						
							<linearGradient id="SVGID_28_" gradientUnits="userSpaceOnUse" x1="465.3425" y1="519.5278" x2="553.5361" y2="431.3344" gradientTransform="matrix(1 0 0 -1 0 680)">
							<stop  offset="0" style="stop-color:#00F0FF"/>
							<stop  offset="1" style="stop-color:#553EFF"/>
						</linearGradient>
						<path class="st49" d="M521,224l10.5,17.3c0.7,1.1,2.3,1,2.9-0.1l9.2-17.2H521z"/>
					</g>
					<path class="st3" d="M534.4,197.6l2.3,7.1h7.5c1.2,0,1.6,1.5,0.7,2.2l-6.1,4.4l2.3,7.1c0.4,1.1-0.9,2-1.9,1.3l-6.1-4.4
						l-6.1,4.4c-0.9,0.7-2.2-0.2-1.9-1.3l2.3-7.1l-6.1-4.4c-0.9-0.7-0.5-2.2,0.7-2.2h7.5l2.3-7.1
						C532.5,196.5,534.1,196.5,534.4,197.6z"/>
				</g>
			</g>
		</g>
		<g>
			
				<linearGradient id="SVGID_29_" gradientUnits="userSpaceOnUse" x1="439.05" y1="523.1948" x2="439.05" y2="138.8206" gradientTransform="matrix(1 0 0 -1 0 680)">
				<stop  offset="0" style="stop-color:#FF736B"/>
				<stop  offset="0.5053" style="stop-color:#FF4A66"/>
				<stop  offset="0.7674" style="stop-color:#FF3563"/>
				<stop  offset="1" style="stop-color:#FF2260"/>
			</linearGradient>
			<path class="st50" d="M544.1,540.2H334c-4.4,0-8-3.6-8-8V365.1c0-4.4,3.6-8,8-8h210.1c4.4,0,8,3.6,8,8v167.2
				C552.1,536.7,548.5,540.2,544.1,540.2z"/>
			<g>
				<g>
					<g>
						<defs>
							<path id="SVGID_30_" d="M544.1,540.2H334c-4.4,0-8-3.6-8-8V365.1c0-4.4,3.6-8,8-8h210.1c4.4,0,8,3.6,8,8v167.2
								C552.1,536.7,548.5,540.2,544.1,540.2z"/>
						</defs>
						<clipPath id="SVGID_31_">
							<use xlink:href="#SVGID_30_"  style="overflow:visible;"/>
						</clipPath>
						<g class="st51">
							<g>
								<g>
									
										<linearGradient id="SVGID_32_" gradientUnits="userSpaceOnUse" x1="418.4105" y1="215.3862" x2="418.4105" y2="117.1107" gradientTransform="matrix(1 0 0 -1 0 680)">
										<stop  offset="0" style="stop-color:#FE3EFF"/>
										<stop  offset="1" style="stop-color:#423EFF"/>
									</linearGradient>
									<path class="st52" d="M420.6,475.8c0,0-20.6,5.5-17.2,60.5l30.4,11.6L420.6,475.8z"/>
									<g>
										<g>
											<g>
												<g>
													<path class="st8" d="M367.7,499c0,0,9.7-1.3,8.5-13.6l-1.5-19c-0.2-1.7-1.8-2.8-3.4-2.5l0,0c-1.1,0.3-2,1.2-2.2,2.3
														l-1.8,9.7l-10.8-22.4c-0.7-1.7-2.9-2.4-4.4-1.4l0,0c-1.2,0.8-1.7,2.3-1.2,3.7l6.3,15.6l-0.6,0.6l-9.5-16.2
														c-1.1-1.5-3.2-1.7-4.5-0.3l0,0c-1,1-1.1,2.6-0.3,3.7l8.6,16.5l-0.7,0.8l-9-12.9c-2.5-3.3-4.2-2.6-5.1-1.6
														c0,0-1.8,1.4,1.2,5.5l9.4,13.4l-0.5,0.6l-9.5-10.7c-1.1-1.2-2.7-0.8-3.3,0.4l0,0c-0.4,0.9-0.1,1.7,0.5,2.5l10.2,13.7
														c0,0,7.5,15.7,15.9,14.2L367.7,499z"/>
													<g class="st9">
														<path class="st10" d="M360.5,490.1c-0.2,0-0.4-0.2-0.4-0.4c-1.2-9.2,6.9-14.1,7-14.1c0.2-0.1,0.5-0.1,0.6,0.2
															c0.1,0.2,0.1,0.5-0.2,0.6c-0.1,0-7.7,4.7-6.6,13.3C361,489.8,360.8,490.1,360.5,490.1
															C360.6,490.1,360.5,490.1,360.5,490.1z"/>
													</g>
												</g>
											</g>
											<polygon class="st8" points="386,511.2 370.6,490.7 354.6,498 386.9,546.2 											"/>
										</g>
										<g>
											
												<linearGradient id="SVGID_33_" gradientUnits="userSpaceOnUse" x1="355.4624" y1="140.4713" x2="432.5064" y2="140.4713" gradientTransform="matrix(1 0 0 -1 0 680)">
												<stop  offset="0" style="stop-color:#FE3EFF"/>
												<stop  offset="1" style="stop-color:#423EFF"/>
											</linearGradient>
											<path class="st53" d="M430.7,554.3c5.3,8.5-1.5,22.6-10.6,26.8c-8,3.7-17.4,0.6-21.6-7.1l-42.9-61.6l25.1-16L430.7,554.3
												z"/>
										</g>
										<g class="st9">
											<path class="st10" d="M408.5,529.1c-0.1,0-0.2-0.1-0.3-0.2l-5.4-6.3c-0.2-0.2-0.1-0.5,0-0.6c0.2-0.2,0.5-0.1,0.6,0
												l5.4,6.3c0.2,0.2,0.1,0.5,0,0.6C408.7,529.1,408.6,529.1,408.5,529.1z"/>
										</g>
									</g>
									<g class="st9">
										<polygon class="st10" points="414,511.8 408.5,551.7 415.4,552.1 										"/>
									</g>
								</g>
								<g>
									
										<linearGradient id="SVGID_34_" gradientUnits="userSpaceOnUse" x1="460.8111" y1="215.3862" x2="460.8111" y2="117.1107" gradientTransform="matrix(1 0 0 -1 0 680)">
										<stop  offset="0" style="stop-color:#FE3EFF"/>
										<stop  offset="1" style="stop-color:#423EFF"/>
									</linearGradient>
									<path class="st54" d="M465.6,464.4l38.2,10.3c5.4,2.1,5.6,8,5.1,14.4l-7.2,109.6l-84-3.9l-5.1-104.5
										c-0.5-6.3,2.2-12.1,8-14.5l29.3-11.2L465.6,464.4z"/>
									<g class="st9">
										<path class="st10" d="M417,582.6c-0.2,0-0.4-0.2-0.4-0.4c-3.2-56-3.2-81.7-3.2-82c0-0.2,0.2-0.4,0.4-0.4
											c0.2,0,0.4,0.2,0.4,0.4c0,0.3-0.1,26,3.1,81.9C417.4,582.4,417.2,582.6,417,582.6L417,582.6z"/>
									</g>
									<g class="st9">
										<path class="st10" d="M488.1,517c0,0,4.7,31.9,15.8,49.9l2.5-38.2L488.1,517z"/>
									</g>
									<g>
										<polygon class="st8" points="471.4,466 480.1,468.3 445.2,487.9 437,469.5 449.9,464.5 										"/>
										<polygon class="st3" points="445.2,487.9 440,476.2 466,476.2 										"/>
										<polygon class="st22" points="445.2,487.9 445.2,496.1 493.1,471.8 480.1,468.3 										"/>
										<polygon class="st22" points="445.2,487.9 437,469.5 428.2,472.9 445.2,496.1 										"/>
									</g>
								</g>
								<g>
									
										<linearGradient id="SVGID_35_" gradientUnits="userSpaceOnUse" x1="513.3223" y1="215.3862" x2="513.3223" y2="117.1107" gradientTransform="matrix(1 0 0 -1 0 680)">
										<stop  offset="0" style="stop-color:#FE3EFF"/>
										<stop  offset="1" style="stop-color:#423EFF"/>
									</linearGradient>
									<path class="st55" d="M515.8,485.5c8,18.1,22.8,47.1,30.9,65.6c4.1,9.4-0.7,20.2-10.3,23.6l0,0c-8.3,2.8-19.3-0.8-23.3-8.6
										l-32.5-63.8c-5.4-10.6-0.1-23.6,11.2-27.4l0,0C501.3,471.7,511.8,476.3,515.8,485.5z"/>
									<g>
										<polygon class="st56" points="516.4,546 484.7,598.8 514.6,617.7 546.1,566.5 										"/>
										<line class="st57" x1="509.1" y1="557.9" x2="516.7" y2="545.5"/>
									</g>
									<g class="st9">
										<path class="st10" d="M504.7,550.5c-0.2,0-0.3-0.1-0.4-0.2l-18.8-37.4c-0.1-0.2,0-0.5,0.2-0.6s0.5,0,0.6,0.2l18.8,37.4
											c0.1,0.2,0,0.5-0.2,0.6C504.8,550.5,504.8,550.5,504.7,550.5z"/>
									</g>
								</g>
							</g>
							<g>
								<g>
									
										<ellipse transform="matrix(6.606960e-02 -0.9978 0.9978 6.606960e-02 16.8233 828.3555)" cx="450.9" cy="405.2" rx="30" ry="31"/>
									<g>
										<path class="st17" d="M414.8,420c0.4,5,5.6,9.3,11.5,9.5s10.3-3.7,9.9-8.7s-5.6-9.3-11.5-9.5
											C418.7,411.1,414.3,415,414.8,420z"/>
									</g>
									<polygon class="st8" points="443.8,440.6 443.7,469.9 471.8,468.6 465.2,424.7 									"/>
									<polygon class="st17" points="443.7,460.4 458.7,447.5 443.7,448.4 									"/>
									<g>
										<g>
											<path id="XMLID_10_" class="st8" d="M437.1,378.8c-8.2,2.8-16,13-17.2,21.4c-1.3,9.7-2.7,24.7,0.2,32.2
												c3.1,8.1,8.9,14,17.5,15.7c8.3,1.6,16.7-1.7,22.1-8c3.6-4.2,10.4-10.7,14.4-20.4C489.2,383.1,455.4,372.5,437.1,378.8z"
												/>
										</g>
										<g>
											<defs>
												<path id="SVGID_36_" d="M437.1,378.8c-8.2,2.8-16,13-17.2,21.4c-1.3,9.7-2.7,24.7,0.2,32.2c3.1,8.1,8.9,14,17.5,15.7
													c8.3,1.6,16.7-1.7,22.1-8c3.6-4.2,10.4-10.7,14.4-20.4C489.2,383.1,455.4,372.5,437.1,378.8z"/>
											</defs>
											<clipPath id="SVGID_37_">
												<use xlink:href="#SVGID_36_"  style="overflow:visible;"/>
											</clipPath>
											<path class="st58" d="M465.8,426.8L465.8,426.8c-4.1-4.7-5.6-11.2-3.9-17.3l1.7-8c0.4-2,0.2-4.2-0.8-6l0,0
												c-1.5-2.9-4.5-5.1-7.8-4.9c-10.5,0.8-29,5.5-30.7-4.2l13.5-12.9l33.3,3.6l9.5,16.2l2.5,11.6l-1.2,10.8L465.8,426.8z"/>
										</g>
									</g>
									<g>
										<g>
											<path d="M424.9,414.9c-0.2,1.1-1.4,1.8-2.5,1.6c-1.1-0.2-1.8-1.4-1.6-2.5c0.2-1.1,1.4-1.8,2.5-1.6
												C424.4,412.7,425.1,413.8,424.9,414.9z"/>
											<path d="M442.2,415.8c-0.2,1.1-1.4,1.8-2.5,1.6c-1.1-0.2-1.8-1.4-1.6-2.5c0.2-1.1,1.4-1.8,2.5-1.6
												C441.8,413.6,442.5,414.7,442.2,415.8z"/>
											<path class="st59" d="M429.1,416.9l-2.3,6c-0.2,0.6-0.3,1.3,0.7,1.9l2.3,0.9"/>
											<path class="st59" d="M427.1,430.2c0,0,5.4,4.1,12.4,0.3"/>
											<path d="M444.5,401c0,0-4.5-1.4-6.5,0c-0.9,0.6-1.1,1.9-0.4,2.7c0.6,0.8,2,1.8,4.9,2.6c5.9,1.6,8.3,1.7,9.2-0.3
												C452.7,403.9,447.7,401.7,444.5,401z"/>
											<path d="M420.6,400c0,0,5.3-2.1,6.4,0.8c0,0,0.7,2-3.9,3.7c-3.4,1.2-4.8,0.8-5.3-0.6C417.2,402.3,418.6,400.6,420.6,400z
												"/>
										</g>
										<g>
											<path class="st60" d="M432,415.4c-0.4,5.5,3.7,10.3,9.1,10.6c5.4,0.3,10.1-3.8,10.4-9.3c0.4-5.5-3.7-10.3-9.1-10.6
												C437,405.7,432.3,409.8,432,415.4z"/>
											<path class="st60" d="M410.2,413.9c-0.3,5.3,3.1,9.8,7.7,10.1c4.6,0.3,8.6-3.7,9-9c0.3-5.3-3.1-9.8-7.7-10.1
												C414.5,404.5,410.5,408.6,410.2,413.9z"/>
											<path class="st60" d="M432,415.4c0,0-2-2.6-5.1-0.4"/>
											<line class="st60" x1="451.5" y1="416.1" x2="461.9" y2="419"/>
										</g>
									</g>
									<g>
										<path class="st8" d="M480.3,419.8c0.9,4.9-2.8,10-8.2,11.4c-5.4,1.4-10.4-1.4-11.3-6.3s2.8-10,8.2-11.4
											C474.4,412.1,479.4,414.9,480.3,419.8z"/>
										<path class="st59" d="M475.1,419.9c0,0-5.7-1.7-9,4.3"/>
									</g>
								</g>
							</g>
						</g>
					</g>
				</g>
				<g>
					<g>
						<path class="st3" d="M382.9,420.1h-63.2c-2.4,0-4.4-2-4.4-4.4v-38.1c0-2.4,2-4.4,4.4-4.4h63.2c2.4,0,4.4,2,4.4,4.4v38.1
							C387.3,418.1,385.4,420.1,382.9,420.1z"/>
						<path class="st3" d="M343.3,415.9l6.3,9.4c0.9,1.4,3,1.4,3.9-0.1l5.8-9.3H343.3z"/>
					</g>
					<path class="st46" d="M361.7,388.9c-2.6-2.5-6.8-2.5-9.3,0.1l-1.7,1.7L349,389c-2.6-2.5-6.7-2.5-9.3,0.1
						c-2.5,2.6-2.5,6.7,0.1,9.3l6.4,6.3l0,0c1,1,2.3,1.6,3.6,1.8c2,0.3,4.2-0.3,5.7-1.9l6.3-6.4
						C364.3,395.6,364.3,391.4,361.7,388.9z"/>
				</g>
			</g>
		</g>
		<g>
			
				<linearGradient id="SVGID_38_" gradientUnits="userSpaceOnUse" x1="190.55" y1="523.1948" x2="190.55" y2="138.8206" gradientTransform="matrix(1 0 0 -1 0 680)">
				<stop  offset="0" style="stop-color:#FF736B"/>
				<stop  offset="0.5053" style="stop-color:#FF4A66"/>
				<stop  offset="0.7674" style="stop-color:#FF3563"/>
				<stop  offset="1" style="stop-color:#FF2260"/>
			</linearGradient>
			<path class="st61" d="M295.6,335.9H85.5c-4.4,0-8-3.6-8-8V160.7c0-4.4,3.6-8,8-8h210.1c4.4,0,8,3.6,8,8v167.2
				C303.6,332.3,300,335.9,295.6,335.9z"/>
			<g>
				<g>
					<g>
						<defs>
							<path id="SVGID_39_" d="M295.6,335.9H85.5c-4.4,0-8-3.6-8-8V160.7c0-4.4,3.6-8,8-8h210.1c4.4,0,8,3.6,8,8v167.2
								C303.6,332.3,300,335.9,295.6,335.9z"/>
						</defs>
						<clipPath id="SVGID_40_">
							<use xlink:href="#SVGID_39_"  style="overflow:visible;"/>
						</clipPath>
						<g class="st62">
							<g>
								
									<linearGradient id="SVGID_41_" gradientUnits="userSpaceOnUse" x1="224.7" y1="405.5136" x2="224.7" y2="313.2771" gradientTransform="matrix(1 0 0 -1 0 680)">
									<stop  offset="0" style="stop-color:#553EFF"/>
									<stop  offset="1" style="stop-color:#00F0FF"/>
								</linearGradient>
								<path class="st63" d="M222.7,283.4c0,0,5.8,4.4,8.5,24.3s8.7,60.8,8.7,60.8l7.4,23.8l-35,9L202.1,353L222.7,283.4z"/>
								<g>
									
										<linearGradient id="SVGID_42_" gradientUnits="userSpaceOnUse" x1="179.3216" y1="405.5136" x2="179.3216" y2="313.2771" gradientTransform="matrix(1 0 0 -1 0 680)">
										<stop  offset="0" style="stop-color:#553EFF"/>
										<stop  offset="1" style="stop-color:#00F0FF"/>
									</linearGradient>
									<path class="st64" d="M186.2,263.6c0,0-20.9,3.4-37.5,12.5c-4.2,2.3-6.8,6.6-7.3,11.4l-9,88.8l79.4-1.8l14.2-78.9
										c0.8-4.4-0.4-8.8-3.2-12.2c-5.1-6-13.5-14.9-20.5-17.3L186.2,263.6z"/>
									<g>
										<g>
											<path class="st37" d="M176.9,265.6c0,0,6.2-1.9,9.3-2l15.9,2.5c0,0,3.5,1.1,7,4l-8.6,20.5L176.9,265.6z"/>
											<polygon class="st3" points="186.9,276.2 206.3,277.1 200.6,290.6 											"/>
										</g>
										<g>
											
												<linearGradient id="SVGID_43_" gradientUnits="userSpaceOnUse" x1="183.5" y1="420.351" x2="183.5" y2="375.5886" gradientTransform="matrix(1 0 0 -1 0 680)">
												<stop  offset="0" style="stop-color:#FE3EFF"/>
												<stop  offset="1" style="stop-color:#423EFF"/>
											</linearGradient>
											<path class="st65" d="M176.9,265.6c0,0-7.1,1.8-10.8,3.1l34.8,33l-0.3-11.1L176.9,265.6z"/>
											
												<linearGradient id="SVGID_44_" gradientUnits="userSpaceOnUse" x1="207.65" y1="420.351" x2="207.65" y2="375.5886" gradientTransform="matrix(1 0 0 -1 0 680)">
												<stop  offset="0" style="stop-color:#FE3EFF"/>
												<stop  offset="1" style="stop-color:#423EFF"/>
											</linearGradient>
											<path class="st66" d="M200.6,290.6l8.6-20.5c0,0,3.2,2.4,5.5,4.7l-13.8,26.8L200.6,290.6z"/>
										</g>
									</g>
									<g class="st9">
										<path class="st10" d="M206.7,375.1c-0.1,0-0.1,0-0.2-0.1c-0.2-0.1-0.3-0.4-0.2-0.6c13.2-24,14.8-54.2,14.8-54.5
											c0-0.2,0.2-0.4,0.5-0.4c0.2,0,0.4,0.2,0.4,0.5s-1.7,30.6-14.9,54.9C207,375,206.8,375.1,206.7,375.1z"/>
									</g>
								</g>
								<g>
									
										<linearGradient id="SVGID_45_" gradientUnits="userSpaceOnUse" x1="137.25" y1="405.4" x2="137.25" y2="313.1635" gradientTransform="matrix(1 0 0 -1 0 680)">
										<stop  offset="0" style="stop-color:#553EFF"/>
										<stop  offset="1" style="stop-color:#00F0FF"/>
									</linearGradient>
									<path class="st67" d="M151.5,274.6c0,0-10.2,3.3-19.2,22.2c-9.9,20.9-29.7,86.4-29.7,86.4l33.4,12l35.9-85.5L151.5,274.6z"
										/>
									<g>
										<g class="st9">
											<path class="st10" d="M165.7,321c0,0,0.6,27.3-8.7,54.8l-13,0.2C144,376,157,346,165.7,321z"/>
										</g>
									</g>
								</g>
							</g>
							<g>
								<g>
									<path class="st68" d="M216.3,180.9c11.5,1.1,20.8,8.4,22.2,19.9l5.2,45.5c0.5,6.9-7,13.6-13.8,13l-43.7-4.1l17.6-75.5
										L216.3,180.9z"/>
									<path class="st68" d="M167.5,206.8c-1.7,17.7,12,33.4,30.5,35.1c18.5,1.7,34.9-11.2,36.5-28.8
										c1.7-17.7-12.2-31.7-30.7-33.5C185.3,177.9,169.1,189.2,167.5,206.8z"/>
									<path class="st44" d="M222.7,226.7c1,4.7,5.6,7.8,10.3,6.8s7.8-5.6,6.8-10.3s-5.6-7.8-10.3-6.8
										C224.7,217.4,221.7,222,222.7,226.7z"/>
									<polygon class="st37" points="209.2,243.2 206,270.3 181.5,266.6 193.1,221.8 									"/>
									<path class="st37" d="M231.8,195.5c2,2.1,3.2,4.8,3.5,7.6c0.9,8.5,2.8,23.4-1,31.9c-4.9,11.1-15,18.3-29.7,14.1
										c0,0-17.8-3.5-19.4-26.7C182.6,185.5,214.5,177.9,231.8,195.5z"/>
									<g>
										<path class="st57" d="M225.4,223.3l1,3.9c0.1,0.5-0.3,0.9-0.8,1l-2.2,0.2"/>
										<path class="st68" d="M212.7,204.6c0,0,7.5-1.1,7.8,2.4c0,0,0.1,2.3-6.4,3.1s-9.1,0.5-9.9-1.6
											C203.4,206.3,209.1,204.8,212.7,204.6z"/>
										<path class="st68" d="M234.6,207.5c0,0-4.9-2.5-6.3-0.1c0,0-1,1.7,3.4,3.8c3.2,1.5,4.6,1.3,5.2,0.2
											C237.7,210.1,236.5,208.3,234.6,207.5z"/>
										<g>
											<g>
												<path id="XMLID_9_" d="M226,232.7l-15.2-1.3c0,0-0.3,6.6,6.7,7.3S226,232.7,226,232.7z"/>
											</g>
											<g>
												<defs>
													<path id="SVGID_46_" d="M226,232.7l-15.2-1.3c0,0-0.3,6.6,6.7,7.3S226,232.7,226,232.7z"/>
												</defs>
												<clipPath id="SVGID_47_">
													<use xlink:href="#SVGID_46_"  style="overflow:visible;"/>
												</clipPath>
												<circle class="st69" cx="214.2" cy="240.4" r="5.4"/>
											</g>
											<g>
												<defs>
													<path id="SVGID_48_" d="M226,232.7l-15.2-1.3c0,0-0.3,6.6,6.7,7.3S226,232.7,226,232.7z"/>
												</defs>
												<clipPath id="SVGID_49_">
													<use xlink:href="#SVGID_48_"  style="overflow:visible;"/>
												</clipPath>
												<polygon class="st70" points="226.8,234.9 209.5,233.2 209.8,230.3 227.1,231.3 												"/>
											</g>
										</g>
										<path d="M215.8,218.2c-0.1,1.1-1.1,1.9-2.2,1.8c-1.1-0.1-1.9-1.1-1.8-2.2c0.1-1.1,1.1-1.9,2.2-1.8
											C215.1,216.1,215.9,217,215.8,218.2z"/>
										<path d="M233.7,219.8c-0.1,1.1-1.1,1.9-2.2,1.8c-1.1-0.1-1.9-1.1-1.8-2.2c0.1-1.1,1.1-1.9,2.2-1.8
											C233,217.8,233.9,218.7,233.7,219.8z"/>
									</g>
									<path class="st68" d="M168.5,201.1l-12.9,40.2c-1.8,5.4,1.9,11.1,7.6,11.7l19.3,1.8c6.7,0.6,11.6-6.1,9.1-12.3l-15.5-37.4
										L168.5,201.1z"/>
									<path class="st68" d="M189.1,221.8c0,0,8.4-10,2.1-22.4l-12,4l-2.8,8.9l-0.7,7.3L189.1,221.8z"/>
									<g>
										<path class="st37" d="M174.1,224.3c1,4.8,5.7,7.9,10.5,7s7.9-5.7,7-10.5c-1-4.8-5.7-7.9-10.5-7
											C176.2,214.8,173.1,219.5,174.1,224.3z"/>
										<path class="st57" d="M178.5,220.3c0,0,7-1.6,7.6,6"/>
									</g>
									<path class="st68" d="M186.1,204.3c0,0,22.9,2.5,42.3-11.9c0,0-8.2-10.7-21.7-12.4L180,190.6L186.1,204.3z"/>
									<polygon class="st44" points="208.5,250 195.7,247.8 206.9,262.9 									"/>
								</g>
							</g>
						</g>
					</g>
				</g>
				<g>
					<g>
						<g>
							<path class="st3" d="M128.8,238.2H71.6c-2.6,0-4.7-2.1-4.7-4.7v-14.3c0-2.6,2.1-4.7,4.7-4.7h57.2c2.6,0,4.7,2.1,4.7,4.7v14.3
								C133.5,236.1,131.4,238.2,128.8,238.2z"/>
							<path class="st3" d="M91.3,233.8l6.7,10c1,1.5,3.2,1.5,4.2-0.1l6.2-10H91.3V233.8z"/>
						</g>
					</g>
					<g>
						<path class="st71" d="M88,226.3c0,1.6-1.3,2.8-2.8,2.8c-1.6,0-2.8-1.3-2.8-2.8c0-1.6,1.3-2.8,2.8-2.8
							C86.7,223.4,88,224.7,88,226.3z"/>
						<path class="st71" d="M103.1,226.3c0,1.6-1.3,2.8-2.8,2.8c-1.6,0-2.8-1.3-2.8-2.8c0-1.6,1.3-2.8,2.8-2.8
							C101.8,223.4,103.1,224.7,103.1,226.3z"/>
						<path class="st71" d="M118.2,226.3c0,1.6-1.3,2.8-2.8,2.8c-1.6,0-2.8-1.3-2.8-2.8c0-1.6,1.3-2.8,2.8-2.8
							C117,223.4,118.2,224.7,118.2,226.3z"/>
					</g>
				</g>
			</g>
		</g>
		<g>
			
				<linearGradient id="SVGID_50_" gradientUnits="userSpaceOnUse" x1="687.55" y1="523.1948" x2="687.55" y2="138.8206" gradientTransform="matrix(1 0 0 -1 0 680)">
				<stop  offset="0" style="stop-color:#FF736B"/>
				<stop  offset="0.5053" style="stop-color:#FF4A66"/>
				<stop  offset="0.7674" style="stop-color:#FF3563"/>
				<stop  offset="1" style="stop-color:#FF2260"/>
			</linearGradient>
			<path class="st72" d="M792.7,540.2H582.5c-4.4,0-8-3.6-8-8V365.1c0-4.4,3.6-8,8-8h210.1c4.4,0,8,3.6,8,8v167.2
				C800.6,536.7,797.1,540.2,792.7,540.2z"/>
			<g>
				<g>
					<g>
						<defs>
							<path id="SVGID_51_" d="M792.7,540.2H582.5c-4.4,0-8-3.6-8-8V365.1c0-4.4,3.6-8,8-8h210.1c4.4,0,8,3.6,8,8v167.2
								C800.6,536.7,797.1,540.2,792.7,540.2z"/>
						</defs>
						<clipPath id="SVGID_52_">
							<use xlink:href="#SVGID_51_"  style="overflow:visible;"/>
						</clipPath>
						<g class="st73">
							<g>
								<g>
									
										<linearGradient id="SVGID_53_" gradientUnits="userSpaceOnUse" x1="693.95" y1="158.7697" x2="693.95" y2="58.7448" gradientTransform="matrix(1 0 0 -1 0 680)">
										<stop  offset="0" style="stop-color:#FF736B"/>
										<stop  offset="0.5053" style="stop-color:#FF4A66"/>
										<stop  offset="0.7674" style="stop-color:#FF3563"/>
										<stop  offset="1" style="stop-color:#FF2260"/>
									</linearGradient>
									<path class="st74" d="M686,474.4l-36.6,13.2c-6.7,2.4-11.2,8.7-11.3,15.8l-1.9,112.2h115.5l-1.9-112.9
										c-0.1-7.2-4.8-13.6-11.7-15.9l-36.8-12.4H686z"/>
									<g>
										<polygon class="st37" points="671.5,479.6 686,474.4 701.3,474.4 715.7,479.2 694.2,504.1 										"/>
										<polygon class="st3" points="680.9,489.7 706.7,489.7 694.2,504.1 										"/>
										<polygon class="st3" points="715.7,479.2 726.1,482.6 694.2,515.3 694.2,504.1 										"/>
										<polygon class="st3" points="672.3,479.2 662.3,482.6 694.2,515.3 694.2,504.1 										"/>
									</g>
								</g>
								<g>
									
										<linearGradient id="SVGID_54_" gradientUnits="userSpaceOnUse" x1="633.6" y1="158.7697" x2="633.6" y2="58.7448" gradientTransform="matrix(1 0 0 -1 0 680)">
										<stop  offset="0" style="stop-color:#FF736B"/>
										<stop  offset="0.5053" style="stop-color:#FF4A66"/>
										<stop  offset="0.7674" style="stop-color:#FF3563"/>
										<stop  offset="1" style="stop-color:#FF2260"/>
									</linearGradient>
									<path class="st75" d="M649.4,487.6c0,0-18.1,3.6-25,34.5c-6.8,30.9-8,93.6-8,93.6h34.4L649.4,487.6z"/>
									<g class="st9">
										<path class="st10" d="M644.4,616.1C644.3,616.1,644.3,616.1,644.4,616.1c-0.3,0-0.5-0.2-0.4-0.5l5.7-89.3
											c0-0.2,0.2-0.4,0.5-0.4c0.2,0,0.4,0.2,0.4,0.5l-5.7,89.3C644.8,615.9,644.6,616.1,644.4,616.1z"/>
									</g>
								</g>
								<g>
									
										<linearGradient id="SVGID_55_" gradientUnits="userSpaceOnUse" x1="755.8" y1="158.7697" x2="755.8" y2="58.7448" gradientTransform="matrix(1 0 0 -1 0 680)">
										<stop  offset="0" style="stop-color:#FF736B"/>
										<stop  offset="0.5053" style="stop-color:#FF4A66"/>
										<stop  offset="0.7674" style="stop-color:#FF3563"/>
										<stop  offset="1" style="stop-color:#FF2260"/>
									</linearGradient>
									<path class="st76" d="M740,487.6c0,0,18.1,3.6,25,34.5c6.8,30.9,8,93.6,8,93.6h-34.4L740,487.6z"/>
									<g class="st9">
										<path class="st10" d="M739.3,616.1c-0.2,0-0.4-0.2-0.4-0.4l-5.7-89.3c0-0.2,0.2-0.5,0.4-0.5s0.5,0.2,0.5,0.4l5.7,89.3
											C739.7,615.9,739.5,616.1,739.3,616.1L739.3,616.1z"/>
									</g>
								</g>
							</g>
							<g>
								<g>
									<g>
										<path class="st37" d="M676.5,429.5c0,5.3-4.3,9.6-9.6,9.6s-9.6-4.3-9.6-9.6s4.3-9.6,9.6-9.6S676.5,424.3,676.5,429.5z"/>
										<path class="st77" d="M661.6,428.1c0,0,3.9-1.7,7.3,5"/>
									</g>
									<g>
										<path class="st37" d="M711.4,429.5c0,5.3,4.3,9.6,9.6,9.6s9.6-4.3,9.6-9.6s-4.3-9.6-9.6-9.6S711.4,424.3,711.4,429.5z"/>
										<path class="st77" d="M726.3,428.1c0,0-3.9-1.7-7.3,5"/>
									</g>
									<g>
										<g>
											<polygon class="st37" points="703.2,448.9 683.4,448.4 679.6,482.5 707.2,482.1 											"/>
										</g>
										<polygon class="st44" points="684.2,454.9 705.4,466.9 703.2,448.9 										"/>
										<path class="st37" d="M719.8,410.8c0.1,11-1.4,20.6-2.9,27.4c-1.5,6.6-5.7,11.3-11.7,15l-1.1,0.7c-6.3,4-14.5,4.1-21,0.3
											l0,0c-6.5-3.8-11.1-8.8-12.5-15.9c-2.6-12.9-3-27.2-3-27.2s-2.6-27.9,25.6-27.5C721.3,384,719.8,410.8,719.8,410.8z"/>
									</g>
									<g>
										<path class="st78" d="M676.8,421.1c0,0,4.7-2.3,8.3,0"/>
										<path class="st78" d="M709.6,421c0,0-4.9-2.3-8.5,0"/>
										<path class="st68" d="M680.4,406c0,0,4.4-1,6.2,0.5c0.8,0.7,0.9,1.9,0.1,2.6c-0.7,0.7-2.1,1.5-4.9,2.1
											c-5.8,1.1-8.1,1-8.8-1S677.3,406.4,680.4,406z"/>
										<path class="st68" d="M705.3,406c0,0-4.4-1-6.2,0.5c-0.8,0.7-0.9,1.9-0.1,2.6c0.7,0.7,2.1,1.5,4.9,2.1
											c5.8,1.1,8.1,1,8.8-1S708.4,406.4,705.3,406z"/>
										<path class="st77" d="M692.1,424v4.7c0,0.8,0.6,1.4,1.4,1.4h1.6"/>
										<path class="st77" d="M683.6,435c0,0,9,5.3,19.5,0"/>
									</g>
									<g>
										<path class="st68" d="M668.5,424.3c0,0,3.5-26.7,1.5-31.9C670,392.4,656.5,399.2,668.5,424.3z"/>
										<path class="st68" d="M718.7,424.1c0,0-4.7-23.2-3.4-31.9C715.3,392.2,729,397.3,718.7,424.1z"/>
									</g>
									<path class="st68" d="M670.6,400.9c0,0,1-10.3,12.7-8.7c9.8,1.3,29.8,12.8,35.9-3c5.7-14.7-17.5-19.8-27.9-14.9
										S670,390.6,670,390.6L670.6,400.9z"/>
									<path class="st68" d="M676.5,386.6c0,0-13-0.4-14.9,10.5s7,28.5,7,28.5l0.4-25.8L676.5,386.6z"/>
									<path class="st68" d="M710.3,385.7c0,0,13.4,0.5,15.3,11.4c1.9,10.9-7,28.5-7,28.5l-0.4-25.8L710.3,385.7z"/>
								</g>
								<path class="st40" d="M702.6,351.5"/>
							</g>
						</g>
					</g>
				</g>
				<g>
					<path class="st46" d="M804.2,466.8h-42.5c-3.9,0-7-3.1-7-7v-38.3c0-3.9,3.1-7,7-7h42.5c3.9,0,7,3.1,7,7v38.3
						C811.2,463.6,808.1,466.8,804.2,466.8z"/>
					<path class="st3" d="M793.3,433.1c-2.5-2.4-6.4-2.4-8.8,0.1l-1.6,1.6l-1.6-1.6c-2.4-2.4-6.4-2.4-8.8,0.1
						c-2.4,2.4-2.4,6.4,0.1,8.8l6.1,6l0,0c1,0.9,2.2,1.5,3.4,1.7c1.9,0.3,3.9-0.3,5.4-1.8l6-6.1
						C795.8,439.4,795.8,435.5,793.3,433.1z"/>
				</g>
			</g>
		</g>
	</g>
</g>
</svg>
