<svg xmlns="http://www.w3.org/2000/svg" xmlns:xlink="http://www.w3.org/1999/xlink" viewBox="0 0 626.3 383.63"><defs><style>.cls-1{fill:#fff;}.cls-2{opacity:0.85;fill:url(#linear-gradient);}.cls-3{opacity:0.2;fill:url(#linear-gradient-2);}.cls-4{fill:#f9f7f7;}.cls-5{opacity:0.15;}.cls-6{fill:url(#Degradado_sin_nombre_8);}</style><linearGradient id="linear-gradient" x1="10" y1="183.22" x2="616.3" y2="183.22" gradientUnits="userSpaceOnUse"><stop offset="0" stop-color="#ff736b"/><stop offset="0.51" stop-color="#ff4a66"/><stop offset="0.77" stop-color="#ff3563"/><stop offset="1" stop-color="#ff2260"/></linearGradient><linearGradient id="linear-gradient-2" x1="305" y1="368.63" x2="321" y2="368.63" gradientUnits="userSpaceOnUse"><stop offset="0" stop-color="#ff736b" stop-opacity="0.5"/><stop offset="0.51" stop-color="#ff4a66"/><stop offset="0.77" stop-color="#ff3563"/><stop offset="1" stop-color="#ff2260"/></linearGradient><linearGradient id="Degradado_sin_nombre_8" x1="288.15" y1="129.23" x2="317.8" y2="197" gradientUnits="userSpaceOnUse"><stop offset="0" stop-color="#ff736b"/><stop offset="1" stop-color="#ff2260"/></linearGradient></defs><title>Asset 24</title><g id="Layer_2" data-name="Layer 2"><g id="Layer_1-2" data-name="Layer 1"><path class="cls-1" d="M626.3,7.3v369a7.26,7.26,0,0,1-7.22,7.3H7.22A7.26,7.26,0,0,1,0,376.33V7.3A7.26,7.26,0,0,1,7.22,0H619.08A7.26,7.26,0,0,1,626.3,7.3Z"/><image width="1920" height="1080" transform="translate(10 10.63) scale(0.32 0.32)" xlink:href="../../../Dashboard/1x/Dashboard_Admin.png"/><rect class="cls-2" x="10" y="10.81" width="606.3" height="344.82"/><circle class="cls-3" cx="313" cy="368.63" r="8"/><circle class="cls-4" cx="309" cy="182.63" r="67"/><g class="cls-5"><path d="M355,183.28a8.75,8.75,0,0,1-3.44,6.94h0c-.21.14-.41.28-.61.44h0l-.25.2h0l-19.57,13.6-30.79,21.4-.52.36a8.93,8.93,0,0,1-13.74-7.38V147.7a9.1,9.1,0,0,0,0,.91l0-1.34h0a8.62,8.62,0,0,1,1.11-3.84v0l.05-.08a8.95,8.95,0,0,1,12.67-2.91h0l.24.17h0l50.68,35.22h0l.28.21h0a2.2,2.2,0,0,0,.25.17h0a8.93,8.93,0,0,1,2.06,2.1A8.73,8.73,0,0,1,355,183.28Z"/></g><path class="cls-6" d="M351.85,181.28a8.56,8.56,0,0,1-3.32,6.78h0q-.3.19-.6.42h0l-.25.19h0L328.76,202,299,222.9l-.5.35a8.48,8.48,0,0,1-4.7,1.38A8.61,8.61,0,0,1,285.2,216V146.5a8.69,8.69,0,0,0,.05.89c0-.43,0-.87,0-1.3h0a8.37,8.37,0,0,1,1.07-3.75v0l0-.08a8.6,8.6,0,0,1,12.25-2.85l0,0,.24.16h0l49,34.42h0l.27.2h0l.24.17h0a8.56,8.56,0,0,1,3.5,6.92Z"/></g></g></svg>